<svg width="125" height="41" viewBox="0 0 125 41" fill="none" xmlns="http://www.w3.org/2000/svg">
<path d="M62.5 40.5C79.5195 40.5 94.9479 38.3134 106.138 34.7652C111.73 32.992 116.292 30.8701 119.467 28.4903C122.633 26.1171 124.5 23.4223 124.5 20.5C124.5 17.5777 122.633 14.8829 119.467 12.5097C116.292 10.1299 111.73 8.00796 106.138 6.2348C94.9479 2.68665 79.5195 0.5 62.5 0.5C45.4805 0.5 30.0521 2.68665 18.8618 6.2348C13.2695 8.00796 8.70763 10.1299 5.53307 12.5097C2.36725 14.8829 0.5 17.5777 0.5 20.5C0.5 23.4223 2.36725 26.1171 5.53307 28.4903C8.70763 30.8701 13.2695 32.992 18.8618 34.7652C30.0521 38.3134 45.4805 40.5 62.5 40.5Z" fill="#CCFCB5"/>
<path d="M62.5 40.5C79.5195 40.5 94.9479 38.3134 106.138 34.7652C111.73 32.992 116.292 30.8701 119.467 28.4903C122.633 26.1171 124.5 23.4223 124.5 20.5C124.5 17.5777 122.633 14.8829 119.467 12.5097C116.292 10.1299 111.73 8.00796 106.138 6.2348C94.9479 2.68665 79.5195 0.5 62.5 0.5C45.4805 0.5 30.0521 2.68665 18.8618 6.2348C13.2695 8.00796 8.70763 10.1299 5.53307 12.5097C2.36725 14.8829 0.5 17.5777 0.5 20.5C0.5 23.4223 2.36725 26.1171 5.53307 28.4903C8.70763 30.8701 13.2695 32.992 18.8618 34.7652C30.0521 38.3134 45.4805 40.5 62.5 40.5Z" stroke="black" stroke-linejoin="round"/>
<path d="M62.5 40.5C79.5195 40.5 94.9479 38.3134 106.138 34.7652C111.73 32.992 116.292 30.8701 119.467 28.4903C122.633 26.1171 124.5 23.4223 124.5 20.5C124.5 17.5777 122.633 14.8829 119.467 12.5097C116.292 10.1299 111.73 8.00796 106.138 6.2348C94.9479 2.68665 79.5195 0.5 62.5 0.5C45.4805 0.5 30.0521 2.68665 18.8618 6.2348C13.2695 8.00796 8.70763 10.1299 5.53307 12.5097C2.36725 14.8829 0.5 17.5777 0.5 20.5C0.5 23.4223 2.36725 26.1171 5.53307 28.4903C8.70763 30.8701 13.2695 32.992 18.8618 34.7652C30.0521 38.3134 45.4805 40.5 62.5 40.5Z" stroke="#CCFCB5" stroke-linejoin="round"/>
<path d="M11 21.9619C11.1973 23.9348 15.6381 27.6281 17.4762 27.825C18.8006 27.9669 19.7242 29.1562 21.0784 29.2046C22.5404 29.2568 23.978 29.9535 25.2937 30.5075C27.4884 31.4316 30.3597 31.2765 32.6513 32.0403C33.9277 32.4658 34.6669 32.9432 36.1001 32.9983C36.8308 33.0264 38.2236 33.2613 38.9359 33.5157C40.3504 34.0208 41.8857 34.7228 43.4003 34.7228C44.7889 34.7228 45.9075 34.6581 47.194 35.221C48.2061 35.6637 49.9073 35.6368 51.0261 35.7766C52.7454 35.9915 54.3598 36.1023 56.1036 36.1023C59.5272 36.1023 62.9274 36.4472 66.4502 36.4472C69.5555 36.4472 72.5883 36.1023 75.6472 36.1023C81.2114 36.1023 86.3499 33.1971 91.8569 32.6726C94.5407 32.417 97.2918 31.5036 99.981 30.7566C102.301 30.1121 104.721 29.4801 106.802 28.1699C107.642 27.6412 108.734 27.59 109.638 27.0586C110.4 26.6104 111.092 25.9141 111.86 25.4875C114.042 24.2756 114.163 22.9354 114.792 20.7357C116.064 16.2853 109.765 14.438 106.879 12.9949" stroke="#737272" stroke-linecap="round"/>
<path d="M11.796 16.9928C11.796 15.5499 15.9283 13.5396 17.3318 13.0556C19.3162 12.3713 21.1676 11.5947 23.2524 11.1314C24.1634 10.929 25.3605 11.0834 26.1979 10.717C26.8131 10.4478 27.8181 9.92588 28.433 9.81409C29.7709 9.57083 31.2318 9 32.5774 9" stroke="#737272" stroke-linecap="round"/>
</svg>
