<svg width="130" height="145" viewBox="0 0 130 145" fill="none" xmlns="http://www.w3.org/2000/svg">
<path d="M96.2199 24.0168L68.6334 57.1056L56.3728 24.414L96.2199 24.0168Z" fill="#FFBC3A"/>
<rect width="128.402" height="41.335" rx="20" fill="#FFBC3A"/>
<path d="M24.9965 17.1878C24.9965 16.667 25.0616 16.1722 25.1918 15.7034C25.322 15.2347 25.5303 14.8245 25.8168 14.473C26.1032 14.1214 26.4678 13.8415 26.9105 13.6331C27.3532 13.4248 27.8871 13.3206 28.5121 13.3206C29.1631 13.3206 29.71 13.4704 30.1527 13.7698C30.5954 14.0563 30.947 14.4079 31.2074 14.8245C31.4808 15.2282 31.6696 15.6513 31.7738 16.0941C31.891 16.5368 31.9496 16.9013 31.9496 17.1878C31.9496 17.5394 31.8975 17.943 31.7933 18.3987C31.7022 18.8415 31.5264 19.2646 31.266 19.6683C31.0186 20.0589 30.667 20.3974 30.2113 20.6839C29.7686 20.9573 29.1892 21.0941 28.473 21.0941C27.809 21.0941 27.2556 20.9704 26.8129 20.723C26.3702 20.4756 26.0121 20.1631 25.7386 19.7855C25.4782 19.3948 25.2894 18.9717 25.1722 18.5159C25.0551 18.0472 24.9965 17.6045 24.9965 17.1878ZM26.2465 17.1878C26.2465 17.6045 26.3051 17.9756 26.4222 18.3011C26.5394 18.6136 26.7022 18.8805 26.9105 19.1019C27.1189 19.3232 27.3532 19.499 27.6136 19.6292C27.8871 19.7594 28.1735 19.831 28.473 19.8441C29.1241 19.8441 29.6514 19.5901 30.0551 19.0823C30.4587 18.5745 30.6605 17.8844 30.6605 17.012C30.6605 16.6995 30.6084 16.4 30.5043 16.1136C30.4001 15.8141 30.2504 15.5537 30.0551 15.3323C29.8597 15.098 29.6254 14.9092 29.3519 14.7659C29.0915 14.6227 28.7985 14.5446 28.473 14.5316C28.1345 14.5316 27.8285 14.6097 27.5551 14.7659C27.2946 14.9092 27.0668 15.1045 26.8715 15.3519C26.6761 15.5862 26.5264 15.8662 26.4222 16.1917C26.3181 16.5042 26.2595 16.8362 26.2465 17.1878ZM35.4261 11.8753H36.7543V16.055H39.8011V17.3831H36.7543V23.4378H35.348L35.4261 11.8753ZM29.6058 28.0081V23.4378L30.934 23.6722V27.2659H38.0043L38.0824 28.5159H30.1527L29.6058 28.0081ZM49.3715 20.1175V21.4066H42.6918L42.1058 20.5472V13.2816H43.473V19.9222L49.3715 20.1175ZM54.098 11.9925V22.2659H52.848V18.3597H47.3793V17.1097H52.7894V15.3909H47.3793V14.1409H52.7699V12.0316L54.098 11.9925ZM52.7308 26.2894C52.7308 25.8076 52.503 25.404 52.0472 25.0784C51.6045 24.7399 50.986 24.5706 50.1918 24.5706C49.3715 24.5706 48.7399 24.7399 48.2972 25.0784C47.8676 25.404 47.6527 25.8076 47.6527 26.2894C47.6527 26.7842 47.8676 27.2008 48.2972 27.5394C48.7399 27.8779 49.3715 28.0472 50.1918 28.0472C50.986 28.0472 51.6045 27.8779 52.0472 27.5394C52.503 27.2008 52.7308 26.7842 52.7308 26.2894ZM46.2855 26.2894C46.2855 25.8987 46.3636 25.5276 46.5199 25.1761C46.6892 24.8245 46.9366 24.5185 47.2621 24.2581C47.6006 23.9847 48.0108 23.7763 48.4926 23.6331C48.9743 23.4769 49.5407 23.3987 50.1918 23.3987C50.8298 23.3987 51.3897 23.4769 51.8715 23.6331C52.3663 23.7763 52.7764 23.9847 53.1019 24.2581C53.4405 24.5185 53.6879 24.8245 53.8441 25.1761C54.0134 25.5276 54.098 25.8987 54.098 26.2894C54.098 26.706 54.0134 27.0901 53.8441 27.4417C53.6879 27.7933 53.4405 28.0993 53.1019 28.3597C52.7764 28.6331 52.3663 28.8415 51.8715 28.9847C51.3897 29.1409 50.8298 29.2191 50.1918 29.2191C49.5407 29.2191 48.9743 29.1409 48.4926 28.9847C48.0108 28.8415 47.6006 28.6331 47.2621 28.3597C46.9366 28.0993 46.6892 27.7933 46.5199 27.4417C46.3636 27.0901 46.2855 26.706 46.2855 26.2894ZM65.5433 16.68L65.4261 17.8519L56.9496 17.1878V15.9769L60.5433 16.2112V12.8128L61.8715 12.93V16.4066L65.5433 16.68ZM64.1371 22.6956C64.072 23.1513 63.9418 23.568 63.7465 23.9456C63.5642 24.3102 63.3298 24.6292 63.0433 24.9026C62.7699 25.1761 62.4509 25.3909 62.0863 25.5472C61.7217 25.6904 61.3376 25.762 60.934 25.762C60.335 25.762 59.8272 25.6579 59.4105 25.4495C59.0069 25.2282 58.6748 24.9547 58.4144 24.6292C58.154 24.2907 57.9652 23.9261 57.848 23.5355C57.7308 23.1318 57.6722 22.7412 57.6722 22.3636C57.6722 21.8818 57.7373 21.4261 57.8676 20.9964C58.0108 20.5537 58.2191 20.1696 58.4926 19.8441C58.766 19.5055 59.1045 19.2386 59.5082 19.0433C59.9118 18.848 60.3806 18.7503 60.9144 18.7503C61.904 18.7503 62.6918 19.0693 63.2777 19.7073C63.8636 20.3323 64.1566 21.1722 64.1566 22.2269C64.1566 22.305 64.1566 22.3831 64.1566 22.4612C64.1566 22.5394 64.1501 22.6175 64.1371 22.6956ZM59.0199 21.7191C58.9678 21.8883 58.9418 22.0967 58.9418 22.3441C58.9418 22.5784 58.9743 22.8193 59.0394 23.0667C59.1045 23.3141 59.2152 23.5485 59.3715 23.7698C59.5277 23.9782 59.7295 24.154 59.9769 24.2972C60.2243 24.4274 60.5238 24.4925 60.8754 24.4925C61.1488 24.4925 61.4092 24.4274 61.6566 24.2972C61.904 24.167 62.1189 23.9977 62.3011 23.7894C62.4834 23.568 62.6267 23.3141 62.7308 23.0276C62.835 22.7412 62.8871 22.4417 62.8871 22.1292C62.8871 21.5433 62.7178 21.042 62.3793 20.6253C62.0538 20.2086 61.5785 20.0003 60.9535 20.0003C60.4457 20.0003 60.0225 20.1631 59.684 20.4886C59.3454 20.8011 59.1241 21.2112 59.0199 21.7191ZM68.7074 27.305L67.2621 27.1878V13.1644H68.8636V19.18H71.8324V20.43H68.7074V27.305ZM73.1215 23.2816L76.2074 18.5159V14.18H77.7699V18.4769L81.1683 23.1253L80.2699 24.1019L76.9496 19.8831L74.1761 24.18L73.1215 23.2816ZM79.4886 18.9456V17.6175H83.1605V13.2816H84.5277V25.5472L83.2386 25.6253V18.9456H79.4886ZM86.4418 12.8128H87.7699V26.055H86.4418V12.8128ZM92.5355 17.2269C92.5225 17.1748 92.516 17.1227 92.516 17.0706C92.516 17.0185 92.516 16.9665 92.516 16.9144C92.516 16.4066 92.6071 15.9508 92.7894 15.5472C92.9717 15.1305 93.2321 14.779 93.5707 14.4925C93.9222 14.193 94.3324 13.9651 94.8011 13.8089C95.2829 13.6396 95.8168 13.555 96.4027 13.555C97.1579 13.555 97.809 13.6526 98.3558 13.848C98.9157 14.0303 99.378 14.2842 99.7426 14.6097C100.107 14.9222 100.374 15.2933 100.543 15.723C100.726 16.1396 100.817 16.5758 100.817 17.0316C100.817 17.6435 100.687 18.1709 100.426 18.6136C100.166 19.0563 99.8272 19.4274 99.4105 19.7269L99.5277 24.6683H103.59V26.0159H89.9183V24.4925H94.3324L94.2152 19.7855C93.7725 19.5381 93.3884 19.206 93.0629 18.7894C92.7504 18.3727 92.5746 17.8519 92.5355 17.2269ZM98.0629 20.3128C97.6462 20.417 97.2491 20.4691 96.8715 20.4691C96.4678 20.4691 96.0446 20.4235 95.6019 20.3323L95.6996 24.6097H98.1605L98.0629 20.3128ZM96.6761 14.7659C96.3116 14.7659 95.96 14.8115 95.6215 14.9026C95.2829 14.9938 94.9834 15.137 94.723 15.3323C94.4756 15.5146 94.2738 15.749 94.1176 16.0355C93.9743 16.3219 93.9027 16.667 93.9027 17.0706C93.9027 17.4352 93.9873 17.7477 94.1566 18.0081C94.3259 18.2685 94.5472 18.4834 94.8207 18.6526C95.1071 18.8219 95.4327 18.9456 95.7972 19.0237C96.1618 19.1019 96.5329 19.1409 96.9105 19.1409C97.3402 19.1409 97.7178 19.0823 98.0433 18.9651C98.3689 18.8349 98.6358 18.6722 98.8441 18.4769C99.0524 18.2685 99.2087 18.0342 99.3129 17.7737C99.417 17.5003 99.4691 17.2269 99.4691 16.9534C99.4691 16.2633 99.2152 15.736 98.7074 15.3714C98.2126 14.9938 97.5355 14.792 96.6761 14.7659ZM109.098 25.6644L108.043 27.1097L106.403 25.43L107.496 24.0628L109.098 25.6644ZM108.473 22.8909H106.871V12.9691H108.473V22.8909Z" fill="black"/>
<path d="M20.8436 126.058C22.3825 129.124 24.0379 131.977 27.581 132.602C28.6566 135.845 29.2769 137.263 34.0004 138.906C38.0124 140.301 41.9003 141.324 45.9926 142.343C50.6977 143.515 57.4934 142.836 61.7377 140.582C70.3629 135.999 83.0029 137.701 92.6671 137.273C100.679 136.918 103.89 128.656 108.671 123.566C111.52 120.532 109.296 116.305 111.561 113.296C114.009 110.045 114.088 105.826 111.777 102.511C109.77 99.6322 108.853 95.3965 106.859 92.843C104.525 89.8535 102.336 87.1074 100.691 83.6476C99.3192 80.7637 92.4867 77.8858 89.6906 76.9874C81.4272 74.3322 73.52 70.9259 64.7573 69.3389C59.7058 68.424 53.9225 69.253 48.7965 69.253C46.7089 69.253 44.2467 68.8626 42.2396 69.4248C32.9427 72.0294 22.9119 78.7182 17.3926 86.6124C14.6432 90.5449 9.45532 95.8163 9.45532 100.964C9.45532 102.406 10.0962 103.481 10.2318 104.831C10.7102 109.597 13.0195 115.999 17.8671 117.206C19.2431 117.549 20.0505 124.478 20.8436 126.058Z" fill="#FEC32C"/>
<path d="M28.0906 132.675C24.193 132.244 22.4544 129.267 20.8436 126.058C20.0505 124.478 19.2431 117.549 17.8671 117.206C13.0195 115.999 10.7102 109.597 10.2318 104.831C10.0962 103.481 9.45532 102.406 9.45532 100.964C9.45532 95.8163 14.6432 90.5449 17.3926 86.6124C22.9119 78.7182 32.9427 72.0294 42.2396 69.4248C44.2467 68.8626 46.7089 69.253 48.7965 69.253C53.9225 69.253 59.7058 68.424 64.7573 69.3389C73.52 70.9259 81.4272 74.3322 89.6906 76.9874C92.4867 77.8858 99.3192 80.7637 100.691 83.6476C102.336 87.1074 104.525 89.8535 106.859 92.843C108.853 95.3965 109.77 99.6322 111.777 102.511C114.088 105.826 114.009 110.045 111.561 113.296C109.296 116.305 111.52 120.532 108.671 123.566C103.89 128.656 100.679 136.918 92.6671 137.273C83.0029 137.701 70.3629 135.999 61.7377 140.582C57.4934 142.836 50.6977 143.515 45.9926 142.343C41.9003 141.324 38.0124 140.301 34.0004 138.906C28.0179 136.825 28.6174 135.106 26.5377 129.581" stroke="black" stroke-width="3" stroke-linecap="round"/>
<path d="M39.332 97.452C42.6085 95.8202 44.4692 95.8309 47.8732 96.6786" stroke="black" stroke-width="3" stroke-linecap="round"/>
<path d="M68.838 94.3584C69.146 91.9039 77.1431 92.366 78.9321 92.8115" stroke="black" stroke-width="3" stroke-linecap="round"/>
<path d="M50.9789 106.733C51.7066 108.546 53.3273 110.515 55.4652 110.601C57.2413 110.671 58.1915 107.938 59.5201 108.452C63.8098 110.114 62.592 107.003 65.7318 105.96" stroke="black" stroke-width="3" stroke-linecap="round"/>
<path d="M57.1909 110.601C57.1909 111.779 56.6526 114.63 57.3203 115.628C58.0274 116.684 61.6143 117.484 62.583 116.358C65.3373 113.158 64.2019 112.966 62.6262 109.827" stroke="black" stroke-width="3" stroke-linecap="round"/>
<path d="M14.6771 99.91C14.5222 101.452 14.1479 102.04 14.6771 103.622" stroke="#100F0F" stroke-linecap="round"/>
<path d="M19.3348 110.581C24.1731 110.581 21.6315 116.828 24.9242 118.468" stroke="#100F0F" stroke-linecap="round"/>
<path d="M45.4185 133.315C47.3425 133.315 47.4813 133.949 49.0412 134.965C49.9331 135.546 51.849 135.171 52.871 135.171" stroke="#100F0F" stroke-linecap="round"/>
<path d="M91.0654 129.604C91.2367 126.703 93.8711 127.748 95.7233 127.748" stroke="#100F0F" stroke-linecap="round"/>
<path d="M100.847 99.4459C99.0862 99.6651 101.896 104.301 102.218 104.781C102.754 105.582 102.35 107.302 103.383 107.333C105.445 107.396 105.039 108.334 105.039 110.117" stroke="#100F0F" stroke-linecap="round"/>
<path d="M30.5135 84.1349C30.7078 82.5868 33.6051 80.0866 34.7056 82.279" stroke="#100F0F" stroke-linecap="round"/>
<path d="M71.5028 77.6395C72.6801 77.6395 73.6484 78.1034 74.7633 78.1034" stroke="#100F0F" stroke-linecap="round"/>
<path d="M75.229 78.1036C75.8058 78.6781 76.4253 79.0527 77.0921 79.4955" stroke="#100F0F" stroke-linecap="round"/>
</svg>
