<svg width="77" height="16" viewBox="0 0 77 16" fill="none" xmlns="http://www.w3.org/2000/svg">
<path d="M6.468 8.786H8.6625V12.2675H6.468V8.786ZM7.5735 0.965C10.8405 0.965 13.2825 2.6315 13.2825 5.1725C13.2825 7.7465 10.8405 9.3965 7.5735 9.3965C4.3065 9.3965 1.8645 7.7465 1.8645 5.1725C1.8645 2.6315 4.3065 0.965 7.5735 0.965ZM7.5735 2.6975C5.478 2.6975 4.026 3.6215 4.026 5.1725C4.026 6.7565 5.478 7.664 7.5735 7.664C9.669 7.664 11.121 6.7565 11.121 5.1725C11.121 3.6215 9.669 2.6975 7.5735 2.6975ZM0.6765 11.921H14.5035V13.703H0.6765V11.921ZM17.5547 3.242H28.0982V4.9745H17.5547V3.242ZM15.8387 5.9645H29.6822V7.697H15.8387V5.9645ZM17.5547 0.3545H19.7327V4.166H17.5547V0.3545ZM17.4062 8.621H28.0487V12.68H19.6172V14.033H17.4227V11.129H25.8542V10.271H17.4062V8.621ZM17.4227 13.637H28.4942V15.3035H17.4227V13.637ZM35.9344 1.196C38.3434 1.196 40.1419 2.7635 40.1419 4.958C40.1419 7.169 38.3434 8.7365 35.9344 8.7365C33.5419 8.7365 31.7104 7.169 31.7104 4.958C31.7104 2.7635 33.5419 1.196 35.9344 1.196ZM35.9344 3.077C34.7629 3.077 33.8719 3.77 33.8719 4.958C33.8719 6.1625 34.7629 6.8555 35.9344 6.8555C37.1059 6.8555 37.9969 6.1625 37.9969 4.958C37.9969 3.77 37.1059 3.077 35.9344 3.077ZM41.5774 0.172999H43.7719V15.5015H41.5774V0.172999ZM31.3474 12.3995L31.0834 10.634C33.7729 10.634 37.5184 10.601 40.7359 10.1225L40.9009 11.7065C37.5844 12.3665 33.9874 12.3995 31.3474 12.3995ZM49.4366 1.559H56.7791V11.8385H49.4366V1.559ZM54.6341 3.275H51.5981V10.106H54.6341V3.275ZM59.1551 0.172999H61.3661V15.5015H59.1551V0.172999ZM71.9248 2.1695H74.9608V3.935H71.9248V2.1695ZM71.9248 5.123H74.9608V6.872H71.9248V5.123ZM67.3543 1.064H69.1198V2.813C69.1198 5.981 67.8328 8.72 64.9453 9.7925L63.7738 8.0765C66.2983 7.1855 67.3543 5.0405 67.3543 2.813V1.064ZM67.8163 1.064H69.5818V2.813C69.5818 4.9085 70.5718 7.004 72.9808 7.9115L71.7763 9.611C69.0703 8.5385 67.8163 5.849 67.8163 2.813V1.064ZM74.4493 0.206H76.6438V11.5085H74.4493V0.206ZM66.5293 13.4555H76.9738V15.2045H66.5293V13.4555ZM66.5293 10.469H68.7403V14.561H66.5293V10.469Z" fill="#572F2D"/>
</svg>
