<svg width="125" height="41" viewBox="0 0 125 41" fill="none" xmlns="http://www.w3.org/2000/svg">
<path d="M62.5 40.5C79.5195 40.5 94.9479 38.3134 106.138 34.7652C111.73 32.992 116.292 30.8701 119.467 28.4903C122.633 26.1171 124.5 23.4223 124.5 20.5C124.5 17.5777 122.633 14.8829 119.467 12.5097C116.292 10.1299 111.73 8.00796 106.138 6.2348C94.9479 2.68665 79.5195 0.5 62.5 0.5C45.4805 0.5 30.0521 2.68665 18.8618 6.2348C13.2695 8.00796 8.70763 10.1299 5.53307 12.5097C2.36725 14.8829 0.5 17.5777 0.5 20.5C0.5 23.4223 2.36725 26.1171 5.53307 28.4903C8.70763 30.8701 13.2695 32.992 18.8618 34.7652C30.0521 38.3134 45.4805 40.5 62.5 40.5Z" fill="#F5F5F5"/>
<path d="M62.5 40.5C79.5195 40.5 94.9479 38.3134 106.138 34.7652C111.73 32.992 116.292 30.8701 119.467 28.4903C122.633 26.1171 124.5 23.4223 124.5 20.5C124.5 17.5777 122.633 14.8829 119.467 12.5097C116.292 10.1299 111.73 8.00796 106.138 6.2348C94.9479 2.68665 79.5195 0.5 62.5 0.5C45.4805 0.5 30.0521 2.68665 18.8618 6.2348C13.2695 8.00796 8.70763 10.1299 5.53307 12.5097C2.36725 14.8829 0.5 17.5777 0.5 20.5C0.5 23.4223 2.36725 26.1171 5.53307 28.4903C8.70763 30.8701 13.2695 32.992 18.8618 34.7652C30.0521 38.3134 45.4805 40.5 62.5 40.5Z" stroke="#B6B0B1" stroke-linejoin="round"/>
<path d="M62.5 40.5C79.5195 40.5 94.9479 38.3134 106.138 34.7652C111.73 32.992 116.292 30.8701 119.467 28.4903C122.633 26.1171 124.5 23.4223 124.5 20.5C124.5 17.5777 122.633 14.8829 119.467 12.5097C116.292 10.1299 111.73 8.00796 106.138 6.2348C94.9479 2.68665 79.5195 0.5 62.5 0.5C45.4805 0.5 30.0521 2.68665 18.8618 6.2348C13.2695 8.00796 8.70763 10.1299 5.53307 12.5097C2.36725 14.8829 0.5 17.5777 0.5 20.5C0.5 23.4223 2.36725 26.1171 5.53307 28.4903C8.70763 30.8701 13.2695 32.992 18.8618 34.7652C30.0521 38.3134 45.4805 40.5 62.5 40.5Z" stroke="white" stroke-opacity="0.2" stroke-linejoin="round"/>
<path d="M11.0585 20.9919C11.2558 22.9647 15.6965 26.658 17.5347 26.8549C18.8591 26.9968 19.7827 28.1861 21.1368 28.2345C22.5989 28.2867 24.0365 28.9834 25.3521 29.5374C27.5469 30.4615 30.4182 30.3064 32.7097 31.0702C33.9861 31.4957 34.7254 31.9731 36.1586 32.0283C36.8893 32.0564 38.2821 32.2912 38.9944 32.5456C40.4088 33.0508 41.9442 33.7527 43.4587 33.7527C44.8473 33.7527 45.966 33.688 47.2525 34.2509C48.2646 34.6936 49.9658 34.6667 51.0846 34.8065C52.8038 35.0214 54.4183 35.1322 56.1621 35.1322C59.5856 35.1322 62.9858 35.4771 66.5087 35.4771C69.6139 35.4771 72.6468 35.1322 75.7057 35.1322C81.2699 35.1322 86.4083 32.227 91.9154 31.7025C94.5991 31.4469 97.3503 30.5335 100.039 29.7865C102.36 29.142 104.78 28.51 106.861 27.1998C107.7 26.6711 108.793 26.6199 109.696 26.0885C110.458 25.6403 111.151 24.944 111.919 24.5174C114.1 23.3055 114.222 21.9654 114.85 19.7656C116.122 15.3152 109.823 13.4679 106.937 12.0248" stroke="#B6B0B1" stroke-linecap="round"/>
<path d="M11.8545 16.0227C11.8545 14.5798 15.9868 12.5695 17.3903 12.0855C19.3747 11.4013 21.2261 10.6246 23.3109 10.1613C24.2219 9.95889 25.4189 10.1133 26.2564 9.74689C26.8716 9.47773 27.8765 8.95579 28.4914 8.84399C29.8294 8.60073 31.2903 8.02991 32.6359 8.02991" stroke="#B6B0B1" stroke-linecap="round"/>
</svg>
