<svg width="123" height="39" viewBox="0 0 123 39" fill="none" xmlns="http://www.w3.org/2000/svg">
<path d="M122.5 19.5C122.5 21.9625 120.925 24.3976 117.867 26.6902C114.818 28.9763 110.373 31.0563 104.836 32.812C93.7677 36.3214 78.446 38.5 61.5 38.5C44.554 38.5 29.2323 36.3214 18.1641 32.812C12.627 31.0563 8.18245 28.9763 5.13288 26.6902C2.07456 24.3976 0.5 21.9625 0.5 19.5C0.5 17.0375 2.07456 14.6024 5.13288 12.3098C8.18245 10.0237 12.627 7.94368 18.1641 6.18803C29.2323 2.67858 44.554 0.5 61.5 0.5C78.446 0.5 93.7677 2.67858 104.836 6.18803C110.373 7.94368 114.818 10.0237 117.867 12.3098C120.925 14.6024 122.5 17.0375 122.5 19.5Z" fill="#FFEB39"/>
<path d="M122.5 19.5C122.5 21.9625 120.925 24.3976 117.867 26.6902C114.818 28.9763 110.373 31.0563 104.836 32.812C93.7677 36.3214 78.446 38.5 61.5 38.5C44.554 38.5 29.2323 36.3214 18.1641 32.812C12.627 31.0563 8.18245 28.9763 5.13288 26.6902C2.07456 24.3976 0.5 21.9625 0.5 19.5C0.5 17.0375 2.07456 14.6024 5.13288 12.3098C8.18245 10.0237 12.627 7.94368 18.1641 6.18803C29.2323 2.67858 44.554 0.5 61.5 0.5C78.446 0.5 93.7677 2.67858 104.836 6.18803C110.373 7.94368 114.818 10.0237 117.867 12.3098C120.925 14.6024 122.5 17.0375 122.5 19.5Z" stroke="black" stroke-linejoin="round"/>
<path d="M122.5 19.5C122.5 21.9625 120.925 24.3976 117.867 26.6902C114.818 28.9763 110.373 31.0563 104.836 32.812C93.7677 36.3214 78.446 38.5 61.5 38.5C44.554 38.5 29.2323 36.3214 18.1641 32.812C12.627 31.0563 8.18245 28.9763 5.13288 26.6902C2.07456 24.3976 0.5 21.9625 0.5 19.5C0.5 17.0375 2.07456 14.6024 5.13288 12.3098C8.18245 10.0237 12.627 7.94368 18.1641 6.18803C29.2323 2.67858 44.554 0.5 61.5 0.5C78.446 0.5 93.7677 2.67858 104.836 6.18803C110.373 7.94368 114.818 10.0237 117.867 12.3098C120.925 14.6024 122.5 17.0375 122.5 19.5Z" stroke="#FFEB39" stroke-linejoin="round"/>
<path d="M10.0585 19.9919C10.2558 21.9647 14.6965 25.658 16.5347 25.8549C17.8591 25.9968 18.7827 27.1861 20.1368 27.2345C21.5989 27.2867 23.0365 27.9834 24.3521 28.5374C26.5469 29.4615 29.4182 29.3064 31.7097 30.0702C32.9861 30.4957 33.7254 30.9731 35.1586 31.0283C35.8893 31.0564 37.2821 31.2912 37.9944 31.5456C39.4088 32.0508 40.9442 32.7527 42.4587 32.7527C43.8473 32.7527 44.966 32.688 46.2525 33.2509C47.2646 33.6936 48.9658 33.6667 50.0846 33.8065C51.8038 34.0214 53.4183 34.1322 55.1621 34.1322C58.5856 34.1322 61.9858 34.4771 65.5087 34.4771C68.6139 34.4771 71.6468 34.1322 74.7057 34.1322C80.2699 34.1322 85.4083 31.227 90.9154 30.7025C93.5991 30.4469 96.3503 29.5335 99.0394 28.7865C101.36 28.142 103.78 27.51 105.861 26.1998C106.7 25.6711 107.793 25.6199 108.696 25.0885C109.458 24.6403 110.151 23.944 110.919 23.5174C113.1 22.3055 113.222 20.9654 113.85 18.7656C115.122 14.3152 108.823 12.4679 105.937 11.0248" stroke="#FFDB28" stroke-linecap="round"/>
<path d="M10.8545 15.0227C10.8545 13.5798 14.9868 11.5695 16.3903 11.0855C18.3747 10.4013 20.2261 9.62462 22.3109 9.16133C23.2219 8.95889 24.4189 9.11327 25.2564 8.74689C25.8716 8.47773 26.8765 7.95579 27.4914 7.84399C28.8294 7.60073 30.2903 7.02991 31.6359 7.02991" stroke="#B6B0B1" stroke-linecap="round"/>
<path d="M10.0585 19.9919C10.2558 21.9647 14.6965 25.658 16.5347 25.8549C17.8591 25.9968 18.7827 27.1861 20.1368 27.2345C21.5989 27.2867 23.0365 27.9834 24.3521 28.5374C26.5469 29.4615 29.4182 29.3064 31.7097 30.0702C32.9861 30.4957 33.7254 30.9731 35.1586 31.0283C35.8893 31.0564 37.2821 31.2912 37.9944 31.5456C39.4088 32.0508 40.9442 32.7527 42.4587 32.7527C43.8473 32.7527 44.966 32.688 46.2525 33.2509C47.2646 33.6936 48.9658 33.6667 50.0846 33.8065C51.8038 34.0214 53.4183 34.1322 55.1621 34.1322C58.5856 34.1322 61.9858 34.4771 65.5087 34.4771C68.6139 34.4771 71.6468 34.1322 74.7057 34.1322C80.2699 34.1322 85.4083 31.227 90.9154 30.7025C93.5991 30.4469 96.3503 29.5335 99.0394 28.7865C101.36 28.142 103.78 27.51 105.861 26.1998C106.7 25.6711 107.793 25.6199 108.696 25.0885C109.458 24.6403 110.151 23.944 110.919 23.5174C113.1 22.3055 113.222 20.9654 113.85 18.7656C115.122 14.3152 108.823 12.4679 105.937 11.0248" stroke="#7C7879" stroke-linecap="round"/>
<path d="M10.8545 15.0227C10.8545 13.5798 14.9868 11.5695 16.3903 11.0855C18.3747 10.4013 20.2261 9.62462 22.3109 9.16133C23.2219 8.95889 24.4189 9.11327 25.2564 8.74689C25.8716 8.47773 26.8765 7.95579 27.4914 7.84399C28.8294 7.60073 30.2903 7.02991 31.6359 7.02991" stroke="#7C7879" stroke-linecap="round"/>
</svg>
