<svg width="140" height="62" viewBox="0 0 140 62" fill="none" xmlns="http://www.w3.org/2000/svg">
<path d="M130.5 33.5C130.5 35.9625 128.925 38.3976 125.867 40.6902C122.818 42.9763 118.373 45.0563 112.836 46.812C101.768 50.3214 86.446 52.5 69.5 52.5C52.554 52.5 37.2323 50.3214 26.1641 46.812C20.627 45.0563 16.1825 42.9763 13.1329 40.6902C10.0746 38.3976 8.5 35.9625 8.5 33.5C8.5 31.0375 10.0746 28.6024 13.1329 26.3098C16.1825 24.0237 20.627 21.9437 26.1641 20.188C37.2323 16.6786 52.554 14.5 69.5 14.5C86.446 14.5 101.768 16.6786 112.836 20.188C118.373 21.9437 122.818 24.0237 125.867 26.3098C128.925 28.6024 130.5 31.0375 130.5 33.5Z" fill="url(#paint0_radial_266_340)"/>
<path d="M130.5 33.5C130.5 35.9625 128.925 38.3976 125.867 40.6902C122.818 42.9763 118.373 45.0563 112.836 46.812C101.768 50.3214 86.446 52.5 69.5 52.5C52.554 52.5 37.2323 50.3214 26.1641 46.812C20.627 45.0563 16.1825 42.9763 13.1329 40.6902C10.0746 38.3976 8.5 35.9625 8.5 33.5C8.5 31.0375 10.0746 28.6024 13.1329 26.3098C16.1825 24.0237 20.627 21.9437 26.1641 20.188C37.2323 16.6786 52.554 14.5 69.5 14.5C86.446 14.5 101.768 16.6786 112.836 20.188C118.373 21.9437 122.818 24.0237 125.867 26.3098C128.925 28.6024 130.5 31.0375 130.5 33.5Z" stroke="black" stroke-linejoin="round"/>
<path d="M130.5 33.5C130.5 35.9625 128.925 38.3976 125.867 40.6902C122.818 42.9763 118.373 45.0563 112.836 46.812C101.768 50.3214 86.446 52.5 69.5 52.5C52.554 52.5 37.2323 50.3214 26.1641 46.812C20.627 45.0563 16.1825 42.9763 13.1329 40.6902C10.0746 38.3976 8.5 35.9625 8.5 33.5C8.5 31.0375 10.0746 28.6024 13.1329 26.3098C16.1825 24.0237 20.627 21.9437 26.1641 20.188C37.2323 16.6786 52.554 14.5 69.5 14.5C86.446 14.5 101.768 16.6786 112.836 20.188C118.373 21.9437 122.818 24.0237 125.867 26.3098C128.925 28.6024 130.5 31.0375 130.5 33.5Z" stroke="#FD94D8" stroke-linejoin="round"/>
<path d="M18.0586 33.9919C18.2559 35.9647 22.6967 39.658 24.5348 39.8549C25.8592 39.9968 26.7828 41.1861 28.137 41.2345C29.599 41.2867 31.0366 41.9834 32.3523 42.5374C34.547 43.4615 37.4183 43.3064 39.7099 44.0702C40.9862 44.4957 41.7255 44.9731 43.1587 45.0283C43.8894 45.0564 45.2822 45.2912 45.9945 45.5456C47.409 46.0508 48.9443 46.7527 50.4589 46.7527C51.8475 46.7527 52.9661 46.688 54.2526 47.2509C55.2647 47.6936 56.9659 47.6667 58.0847 47.8065C59.804 48.0214 61.4184 48.1322 63.1622 48.1322C66.5858 48.1322 69.986 48.4771 73.5088 48.4771C76.614 48.4771 79.6469 48.1322 82.7058 48.1322C88.27 48.1322 93.4085 45.227 98.9155 44.7025C101.599 44.4469 104.35 43.5335 107.04 42.7865C109.36 42.142 111.78 41.51 113.861 40.1998C114.7 39.6711 115.793 39.6199 116.696 39.0885C117.458 38.6403 118.151 37.944 118.919 37.5174C121.1 36.3055 121.222 34.9654 121.851 32.7656C123.122 28.3152 116.824 26.4679 113.937 25.0248" stroke="#F3EEEF" stroke-linecap="round"/>
<path d="M18.8545 29.0227C18.8545 27.5798 22.9868 25.5695 24.3903 25.0855C26.3747 24.4013 28.2261 23.6246 30.3109 23.1613C31.2219 22.9589 32.4189 23.1133 33.2564 22.7469C33.8716 22.4777 34.8765 21.9558 35.4914 21.844C36.8294 21.6007 38.2903 21.0299 39.6359 21.0299" stroke="#F3EEEF" stroke-linecap="round"/>
<g clip-path="url(#clip0_266_340)">
<path d="M13.6939 40.2827C13.1325 40.1891 12.5918 39.5734 12.0453 39.3305C11.7828 39.2138 11.4326 38.2666 11.2431 38.0081C10.1684 36.5427 9.55133 34.9094 8.53652 33.3708C7.08251 31.1664 6.21132 28.384 6.08565 25.7449C6.0283 24.5407 6.05115 22.7331 7.27582 22.0333C7.98837 21.6262 9.24643 21.8746 10.0088 21.8746C10.9513 21.8746 12.1177 21.8049 12.9887 22.192C13.5174 22.427 14.118 22.3952 14.6461 22.6328C15.0761 22.8263 15.4311 23.1121 15.8803 23.2676C16.5323 23.4933 17.1987 24.1031 17.8199 24.4137" stroke="#FE4AA0" stroke-width="2" stroke-linecap="round"/>
<path d="M17.8198 25.5246C18.6718 23.9152 19.3329 22.1687 20.2883 20.6052C20.8796 19.6377 21.3752 18.6034 21.9105 17.5901C22.2309 16.9836 23.1593 15.5718 24.0087 15.5271C24.9678 15.4766 25.775 15.051 26.7594 15.051C27.5161 15.051 28.4069 14.9234 29.1573 15.0598C29.8021 15.1771 30.5214 15.6454 31.1233 15.9062C31.9639 16.2704 32.561 16.7089 33.3009 17.2374C33.9221 17.6812 34.7398 18.4694 35.4344 18.7009" stroke="#FE4AA0" stroke-width="2" stroke-linecap="round"/>
<path d="M36.0693 18.3835C36.5341 18.3319 37.2542 17.4603 37.33 17.0435C37.4873 16.1787 38.6292 15.3108 39.296 14.8218C40.751 13.7548 42.5428 11.9706 44.4887 11.7273C47.0257 11.4102 49.2168 11.7662 51.4094 13.1467C52.8278 14.0398 54.176 15.075 55.1121 16.4792" stroke="#FE4AA0" stroke-width="2" stroke-linecap="round"/>
<path d="M10.9651 28.8142C10.9651 29.4869 10.8657 30.0965 10.6064 30.723C10.4058 31.2075 10.1783 31.6829 9.95655 32.158C9.88867 32.3035 9.7844 32.5679 9.84825 32.1919C10.041 31.0566 10.3775 29.943 10.6605 28.8277C10.7032 28.6596 10.8353 28.167 10.8433 28.3404C10.8604 28.7112 10.8291 29.0812 10.7485 29.4437C10.4785 30.6589 10.0702 31.7699 9.91594 33.0042C9.88153 33.2795 9.79261 33.537 9.69933 33.7961C9.60899 34.0471 9.72229 33.263 9.74671 32.9974C9.88383 31.5063 9.67912 29.9376 9.02921 28.5773C8.7765 28.0483 8.5642 27.4898 8.36585 26.9392C8.08885 26.1702 7.77177 25.3516 7.68896 24.5362C7.66124 24.2633 7.67542 23.9843 7.67542 23.7104C7.67542 23.6846 7.67114 23.508 7.68896 23.6292C7.74766 24.0284 7.79396 24.4287 7.85818 24.8273C7.96663 25.5003 8.07697 26.1748 8.16278 26.8512C8.23264 27.4018 8.2408 27.93 8.37939 28.469C8.67454 29.6168 8.61288 30.8358 8.73814 32.0024C8.74507 32.0668 8.90094 33.0699 8.80583 32.6657C8.53887 31.5311 8.06428 30.4637 7.87172 29.3083C7.65134 27.9861 7.26495 26.636 7.24898 25.2943C7.24556 25.0074 6.87396 23.6179 7.24898 23.4193C7.51137 23.2804 8.12989 23.385 8.3997 23.3923C8.88897 23.4055 9.47 23.5472 9.92948 23.7104C10.0432 23.7508 10.3514 23.8554 10.4168 23.9676C10.5922 24.2682 10.8285 24.5531 10.8568 24.9085C10.9244 25.7565 10.9042 26.6106 10.9042 27.4604C10.9042 27.7592 10.9773 28.1564 10.9042 28.4487C10.8588 28.6304 10.7042 28.1317 10.6131 27.9681C10.2763 27.363 9.94735 26.7569 9.65872 26.1269C9.39243 25.5457 8.97081 24.8509 8.84645 24.2113C8.81922 24.0713 9.32893 24.1168 9.41504 24.0962C10.253 23.8961 10.8087 23.0369 11.7232 23.1012C12.5499 23.1593 13.1492 23.3047 13.8758 23.6495C14.1667 23.7875 14.4003 23.976 14.7151 24.0962C14.9532 24.1872 15.2394 24.2959 15.4868 24.3535C16.2258 24.5253 15.7568 25.207 15.2837 25.45C14.298 25.9564 13.264 26.3561 12.2783 26.8647C11.6961 27.1651 11.1436 27.4918 10.6402 27.9139C10.6367 27.9168 10.2571 28.3584 10.2002 28.1847C10.1002 27.8794 10.1683 27.4427 10.1732 27.1287C10.1799 26.6993 10.249 26.3185 10.383 25.9103C10.5484 25.4062 10.6892 24.8985 10.9516 24.4347C11.1145 24.1467 11.2213 24.1524 11.4051 24.4347C11.9189 25.224 12.6909 26.1387 12.8266 27.0949C12.9067 27.6591 12.9121 28.2958 12.6574 28.8142C12.6536 28.8219 12.4334 29.2673 12.3798 29.2271C12.3146 29.1782 12.3649 28.6997 12.3663 28.6517C12.3966 27.6105 12.7249 26.5414 13.1447 25.5922C13.2111 25.442 13.3131 25.1563 13.4764 25.0845C13.7001 24.9861 13.9329 24.8034 14.1262 25.0574C14.5083 25.5593 14.9051 26.0917 14.5324 26.682C14.3916 26.9049 14.2796 27.309 14.0721 26.973C13.6974 26.3664 13.2211 25.8202 12.8604 25.2063C12.8135 25.1265 12.0374 23.4835 12.7183 23.7104C12.8086 23.7405 12.8923 23.9004 12.9484 23.9609C13.1697 24.199 13.4165 24.4069 13.6795 24.5971C14.0113 24.8372 14.347 25.0184 14.7151 25.1928C15.2441 25.4434 15.8239 25.5665 16.387 25.7072" stroke="#FF3D95" stroke-width="2" stroke-linecap="round"/>
<path d="M9.1377 32.8959C9.2719 32.9126 9.5796 33.4344 9.65552 33.5694C9.75374 33.744 9.78068 33.9529 9.8992 34.1109C10.151 34.4466 10.2306 34.8853 10.4441 35.2244C10.9674 36.0555 11.4532 36.8572 11.7573 37.7695" stroke="#FF3D95" stroke-width="2" stroke-linecap="round"/>
<path d="M19.9204 23.9406C19.9204 23.3713 20.2313 22.6105 20.4619 22.0724C20.7674 21.3596 21.1572 20.5615 21.6126 19.9334C22.0008 19.398 22.2477 18.7574 22.628 18.2141C23.0527 17.6073 23.8207 17.2172 24.4421 16.8603C24.9896 16.5457 25.6797 16.3875 26.3035 16.3391C27.0018 16.2849 27.7152 16.3255 28.4154 16.3255C28.9808 16.3255 29.5238 16.3247 30.0806 16.4338C31.1961 16.6526 32.1885 17.126 33.1909 17.6658C33.3473 17.75 33.9722 18.2537 33.8949 18.4239C33.7407 18.7631 32.9771 18.7722 32.6832 18.8233C32.2755 18.8942 31.9599 19.006 31.5325 19.006C31.2991 19.006 31.0295 19.1173 30.7947 19.1617C30.5955 19.1994 30.3398 19.2234 30.155 19.3106C29.706 19.5227 29.172 19.607 28.6929 19.7236C28.4133 19.7916 28.129 19.8479 27.8536 19.9334C27.7182 19.9754 27.523 19.9496 27.4136 20.0417C26.9838 20.4037 26.1801 20.3711 25.6605 20.4817C25.183 20.5833 24.7225 20.8211 24.283 21.0164C23.9385 21.1695 23.5581 21.3636 23.2101 21.5376C22.9492 21.6681 21.9504 21.796 21.8732 22.1434C21.8442 22.2741 21.6128 22.5811 21.6296 22.2788C21.6614 21.7062 22.0144 21.311 22.3775 20.9013C23.0284 20.167 23.7711 19.6448 24.6722 19.2193C25.2909 18.9271 25.6715 18.3475 26.3441 18.1329C27.3931 17.7981 28.5018 17.7622 29.5932 17.7301C30.0338 17.7171 30.4757 17.7267 30.9165 17.7267C31.0713 17.7267 31.0284 17.9943 30.947 18.0685C30.6809 18.3115 30.2497 18.4291 29.9114 18.5187C29.1816 18.712 28.4338 18.8416 27.6911 18.9722C26.9403 19.1043 26.1852 19.2438 25.4236 19.2971C25.2698 19.3079 24.9709 19.2481 24.855 19.3851C24.4859 19.8213 23.8829 20.1237 23.4538 20.5087C23.1553 20.7766 22.8343 21.1642 22.4926 21.3684C22.1861 21.5515 21.4674 21.9245 21.4434 22.3567C21.4276 22.6419 21.0256 22.9975 21.1659 22.3973C21.2447 22.0604 21.4926 21.7436 21.6533 21.4429C21.9744 20.8417 22.501 20.3442 22.9664 19.8555C23.505 19.29 24.0706 18.7512 24.6079 18.187C24.7146 18.075 24.8368 17.9813 24.9497 17.8756C25.0508 17.7811 24.8075 18.1548 24.7907 18.1836C24.115 19.3378 23.1355 20.4141 22.1948 21.3549C22.0288 21.5208 21.8318 21.6587 21.7209 21.8693C21.6652 21.9752 21.6365 22.1077 21.5619 22.201C21.4749 22.3097 21.3478 22.4368 21.3182 22.5699C21.3016 22.6444 21.0847 22.9466 21.0847 22.7391C21.0847 21.9213 22.0062 21.21 22.54 20.7118" stroke="#FF3D95" stroke-width="2" stroke-linecap="round"/>
<path d="M34.7241 19.006C35.4612 19.006 36.2552 18.7023 36.9782 18.5322C37.3364 18.4479 37.6554 18.3026 37.9834 18.126C38.5191 17.8376 39.1396 17.6235 39.6993 17.3747C40.6229 16.9642 41.5989 16.5586 42.5761 16.2883C43.078 16.1495 43.5394 15.9348 44.0517 15.8381C44.8423 15.689 45.6328 15.57 46.4276 15.4388C46.911 15.359 47.3875 15.3781 47.8728 15.344C48.5007 15.3 49.1217 15.1362 49.7512 15.1105C50.7902 15.0681 51.8332 15.168 52.8547 15.168C52.9066 15.168 53.3518 15.1642 53.2642 15.2289C53.0739 15.3696 52.823 15.3596 52.6076 15.4388C51.6993 15.7729 50.7335 15.6874 49.8188 15.9295C49.2109 16.0905 48.4125 16.0625 47.7746 16.0818C47.0578 16.1036 46.3173 16.1512 45.6086 16.2646C45.0222 16.3584 44.4265 16.3792 43.8419 16.5083C43.1694 16.6567 42.4172 16.5692 41.7334 16.5692C40.8433 16.5692 39.9438 16.6301 39.063 16.6301C38.5766 16.6301 38.9534 16.1779 39.151 15.9803C39.7936 15.3377 40.601 14.9108 41.2426 14.2881C41.592 13.949 42.1481 13.664 42.5795 13.4386C42.967 13.236 43.3356 13.1234 43.7471 12.9749C44.0764 12.856 44.4725 12.6752 44.8301 12.6703C46.0131 12.6541 47.1974 12.6703 48.3804 12.6703C48.9834 12.6703 49.5355 12.6887 50.0761 12.9749C50.2494 13.0667 50.4 13.1001 50.5871 13.1577C50.9962 13.2835 49.9116 13.5681 49.8662 13.5773C48.5645 13.8414 47.1911 13.7749 45.8929 14.0376C44.815 14.2557 43.8138 14.6157 42.7859 14.9785C42.6811 15.0155 42.3012 15.1071 42.5829 15.1071C42.9887 15.1071 43.382 15.0167 43.781 14.9514C45.9031 14.6042 48.0389 14.1324 50.1979 14.1324C50.6345 14.1324 51.0711 14.1324 51.5077 14.1324C52.9126 14.1324 48.683 14.1378 47.3008 14.3896C46.031 14.621 44.7482 14.9753 43.4628 15.1071C43.0378 15.1507 42.6226 15.2792 42.197 15.3372C41.9401 15.3723 41.7321 15.3743 41.4863 15.4726" stroke="#FF3D95" stroke-width="2" stroke-linecap="round"/>
<path d="M57.2646 15.3508C57.669 15.2834 58.1044 14.6823 58.4221 14.4234C58.7284 14.1739 59.0066 13.8733 59.3021 13.6315C59.5163 13.4562 59.7041 13.2545 59.9451 13.1306C60.2432 12.9773 60.6811 12.6983 61.0079 12.6703C61.384 12.638 61.893 12.4105 62.2263 12.2438C62.5232 12.0954 62.8239 11.9214 63.0995 11.7362C63.3969 11.5363 63.7798 11.4656 64.108 11.33C64.4619 11.1839 64.8076 11.0254 65.1978 11.0254C65.8002 11.0254 66.4082 11.0003 67.0085 11.0559C67.4517 11.0969 68.0095 11.0364 68.4334 11.1777C68.6605 11.2534 68.912 11.1821 69.1475 11.2116C69.4379 11.2479 69.7969 11.5076 70.0579 11.6346C71.0601 12.1222 72.2253 12.8034 72.8941 13.7398C72.9653 13.8394 73.4789 14.3762 73.4627 14.3794C73.1348 14.445 72.8254 14.437 72.4846 14.437C71.238 14.437 69.9914 14.437 68.7448 14.437C67.4334 14.437 66.108 14.3769 64.8019 14.5013C63.7554 14.6009 62.711 14.7621 61.6645 14.877C61.3784 14.9084 61.1079 14.9853 60.8183 14.9853C60.6469 14.9853 60.4527 14.959 60.2836 14.9988C60.1118 15.0392 59.9264 15.1003 59.7488 15.1003C59.6535 15.1003 60.1413 14.7221 60.1956 14.6874C60.9904 14.1796 61.9656 13.7754 62.8626 13.4893C63.5578 13.2676 64.2208 12.9817 64.9305 12.8226C65.8939 12.6066 66.8261 12.5484 67.814 12.5484C68.1158 12.5484 68.548 12.4748 68.8395 12.5789C69.1771 12.6995 69.569 12.6416 69.8989 12.8192C70.185 12.9733 70.5425 13.0552 70.8499 13.1577" stroke="#FF3D95" stroke-width="2" stroke-linecap="round"/>
<path d="M7.62988 35.7546C7.62988 36.1298 8.11909 36.4937 8.3098 36.8116C8.51012 37.1455 8.7996 37.3678 8.96808 37.7048C9.06329 37.8952 9.25257 38.0736 9.37911 38.2363C9.4816 38.3681 9.55408 38.6541 9.68817 38.7463C9.81311 38.8322 9.82019 38.9772 9.92305 39.08C10.0471 39.2041 10.2163 39.3534 10.3032 39.5127C10.4111 39.7106 10.6581 39.87 10.7451 40.0659C10.8192 40.2326 11.1435 40.3614 11.1871 40.514C11.2205 40.6309 11.4408 40.8121 11.5487 40.9003C11.7142 41.0358 11.8775 41.22 12.0308 41.3732C12.7847 42.1271 13.6282 42.5644 14.5835 43.0421" stroke="#F3D054" stroke-linecap="round"/>
<path d="M9.57666 38.2579C9.59933 38.5073 9.9465 38.8908 10.1608 39.0337C10.3605 39.1668 10.4941 39.3656 10.6862 39.5096C10.8116 39.6037 10.9124 39.8344 11.023 39.9515C11.2562 40.1984 11.4248 40.4942 11.7029 40.7056C12.0895 40.9994 12.4535 41.5226 12.9144 41.707C13.232 41.834 13.5328 42.0607 13.8354 42.22C14.0327 42.3238 14.428 42.4533 14.5277 42.6526" stroke="#F3D054" stroke-linecap="round"/>
<path d="M10.1328 39.0367C10.442 39.2483 10.5643 39.6742 10.856 39.9144C11.0322 40.0596 11.1833 40.2229 11.3536 40.3718C11.5632 40.5553 11.8339 40.6969 12.0737 40.8385C12.2275 40.9294 12.4676 41.0512 12.5929 41.163C12.7188 41.2754 12.8744 41.2971 12.9699 41.4164C13.0645 41.5347 13.3532 41.698 13.4984 41.7626C13.7714 41.8839 14.0717 42.1077 14.305 42.2632" stroke="#F3D054" stroke-linecap="round"/>
<path d="M6.54199 22.0111C6.81487 21.9838 7.00928 21.7077 7.23182 21.584C7.48261 21.4447 7.7839 21.4376 8.05305 21.303C8.31849 21.1703 8.68484 21.1971 8.97648 21.1241C9.37271 21.0251 9.72389 21.0256 10.1518 21.0256C11.0913 21.0256 11.996 20.9981 12.9147 21.2081C13.1753 21.2677 13.4371 21.2847 13.7031 21.3541C13.9114 21.4084 14.273 21.422 14.4586 21.522C14.8929 21.7558 15.3869 21.875 15.8347 22.0914C15.9759 22.1597 16.165 22.2067 16.2872 22.3067C16.3759 22.3792 16.3658 22.4525 16.4953 22.5002C16.7373 22.5893 17.1773 22.7129 17.3311 22.9308C17.3608 22.9728 17.7514 23.1895 17.7618 23.179C17.8121 23.1287 17.4114 22.8208 17.3421 22.7995C17.1526 22.7412 16.8611 22.6052 16.696 22.5002C16.5141 22.3844 16.3313 22.3164 16.1485 22.2082C15.9631 22.0983 15.8636 21.9867 15.6412 21.9125C15.3204 21.8056 14.9596 21.6036 14.6448 21.5366C14.3005 21.4633 13.905 21.4456 13.5571 21.4198C13.2575 21.3976 12.9672 21.3021 12.6629 21.2847C12.0413 21.2492 11.4396 21.2227 10.816 21.2227C10.2284 21.2227 9.64076 21.2227 9.05313 21.2227C8.6883 21.2227 8.31712 21.204 7.96546 21.3212C7.71762 21.4039 7.5247 21.4855 7.26467 21.4855" stroke="#FF3D95" stroke-linecap="round"/>
<path d="M7.13379 21.814C7.1757 21.4788 7.99618 21.3602 8.18496 21.1242C8.39421 20.8626 9.04878 20.8776 9.33833 20.8249C10.2769 20.6543 11.2757 20.6315 12.2437 20.6315C13.2287 20.6315 14.1869 20.8932 15.0906 21.2629C15.7292 21.5241 16.4228 21.7895 16.9885 22.1936C17.4676 22.5358 17.9841 22.8686 18.5653 23.0623" stroke="#FF3D95" stroke-linecap="round"/>
<path d="M19.4787 22.3612C18.7083 22.3612 18.0155 22.0768 17.2031 22.0768" stroke="#FF3D95" stroke-linecap="round"/>
<path d="M7.33594 21.5239C7.47764 21.5239 7.83633 21.4451 7.91067 21.3369C8.0235 21.1728 8.44234 21.1982 8.61697 21.1188C8.96059 20.9626 9.35218 20.7141 9.73181 20.6653C11.3626 20.4556 13.0659 20.5268 14.714 20.5268C15.3234 20.5268 16.0289 20.7205 16.6217 20.8522C17.4104 21.0275 18.1947 21.2294 18.9587 21.4304C19.1732 21.4869 19.3199 21.5646 19.5334 21.5897C19.691 21.6082 20.1523 21.7003 19.9939 21.7109C19.8729 21.7189 19.7482 21.7109 19.6269 21.7109C19.0387 21.7109 18.4709 21.6385 17.8854 21.5897C17.4591 21.5542 17.0479 21.3993 16.6217 21.3993" stroke="#FF3D95" stroke-linecap="round"/>
<path d="M33.6172 16.5264C33.7569 16.6605 33.8852 16.7825 34.0626 16.8699C34.2337 16.9541 34.4307 16.9869 34.5967 17.0699C34.8595 17.2013 35.1129 17.376 35.4063 17.436C35.5418 17.4637 35.7032 17.4436 35.8404 17.4436C36.0205 17.4436 36.2774 17.4926 36.433 17.3926C36.6418 17.2584 36.8396 17.1619 37.0313 17.0057C37.2905 16.7945 37.4875 16.5567 37.6937 16.2886" stroke="#FF3D95" stroke-linecap="round"/>
<path d="M31.8506 15.6432C32.0684 15.6214 32.1902 15.6771 32.3979 15.7621C32.4887 15.7992 32.6075 15.806 32.6716 15.8828C32.7282 15.9508 32.8684 16.0202 32.9528 16.0508C33.1918 16.1377 33.4411 16.4184 33.6171 16.5943" stroke="#FF3D95" stroke-linecap="round"/>
<path d="M37.0139 16.7641C36.7608 16.8596 36.5967 17.026 36.4024 17.2057C36.367 17.2385 35.9406 17.5318 35.9363 17.5209C35.8996 17.4293 36.4703 16.9605 36.5553 16.9113C36.652 16.8553 36.6988 16.7092 36.778 16.6301C36.8946 16.5135 37.0422 16.3914 37.1762 16.296C37.374 16.1552 37.5492 15.9723 37.7594 15.8506C37.9694 15.7291 38.1211 15.548 38.3388 15.4392" stroke="#FF3D95" stroke-linecap="round"/>
<path d="M36.4366 17.0359C36.3669 17.1753 36.3648 17.1351 36.4064 16.9925C36.4639 16.7954 36.5432 16.6221 36.6555 16.4509C36.7934 16.2408 36.9441 16.0142 37.1141 15.83C37.2974 15.6315 37.5043 15.435 37.6784 15.2279C37.861 15.0109 38.1255 14.8555 38.3579 14.6882C38.9517 14.2606 39.4616 13.7582 40.113 13.4086C40.9505 12.9592 41.8692 12.5163 42.8232 12.4159" stroke="#FF3D95" stroke-linecap="round"/>
<path d="M56.4727 15.3886C56.5122 15.1999 56.5628 15.0164 56.6212 14.8328C56.6672 14.6882 56.7617 14.5854 56.8129 14.4447C56.9022 14.1991 57.119 14.0075 57.2681 13.7906C57.562 13.363 58.0124 13.1504 58.3798 12.7915C58.578 12.5979 58.8792 12.4896 59.1273 12.3699C59.5912 12.1459 60.04 11.9402 60.4737 11.6631C61.11 11.2566 61.7196 10.9228 62.4239 10.688" stroke="#FF3D95" stroke-linecap="round"/>
<path d="M56.6025 14.828C56.6543 14.0515 57.391 13.539 57.8436 12.9928C58.1398 12.6353 58.5538 12.3502 58.8882 12.0249C59.5162 11.4138 60.447 11.2123 61.2385 10.8605C61.5716 10.7124 61.8547 10.505 62.204 10.3885C62.7072 10.2208 63.1674 10.2136 63.6919 10.2136C64.8095 10.2136 66.0726 10.0513 67.1251 10.4724" stroke="#FF3D95" stroke-linecap="round"/>
<path d="M53.9266 16.3733C53.9399 16.2536 54.2806 16.1217 54.3741 16.075C54.4231 16.0505 54.4866 16.0481 54.5302 16.0142C54.5553 15.9946 54.4379 16.0186 54.4238 16.0252C54.3671 16.052 54.3053 16.0783 54.2525 16.1123C54.1704 16.1651 54.4477 16.1269 54.4625 16.1247C54.7204 16.0861 54.9941 16.0501 55.2554 16.0501C55.474 16.0501 55.6 16.0871 55.7167 16.2794C55.7772 16.379 55.6783 16.5295 55.6145 16.604C55.4906 16.7485 55.2024 16.8506 55.0205 16.8844C54.8746 16.9115 54.696 16.9075 54.5481 16.8927C54.478 16.8857 54.2128 16.831 54.1807 16.7587C54.1587 16.7092 54.4722 16.7027 54.4846 16.7021C54.8959 16.6824 55.3011 16.7298 55.7112 16.7435C55.9395 16.7511 56.168 16.7426 56.3963 16.7463C56.4795 16.7476 56.4805 16.809 56.4143 16.8582C56.1631 17.0445 55.6626 16.9813 55.3769 16.9894C55.1384 16.9961 54.8999 16.9949 54.6614 16.9949C54.3575 16.9949 54.0536 16.9949 53.7497 16.9949C53.4335 16.9949 53.1188 17.0198 52.8036 17.0198C52.6735 17.0198 52.5487 17.0664 52.4182 17.0695C52.3771 17.0705 52.127 17.1064 52.24 17.0709C52.9802 16.8378 53.7237 16.7055 54.4804 16.5474C54.6408 16.5139 54.8317 16.4479 54.9957 16.4479" stroke="#FD57AC" stroke-linecap="round"/>
<path d="M56.3857 12.9294C56.5477 12.5083 56.936 12.1368 57.175 11.751C57.464 11.2847 57.8776 10.8401 58.3367 10.5282C58.7153 10.271 59.1042 10.0868 59.5151 9.88895C59.7486 9.77655 60.15 9.6614 60.4128 9.63048C60.8847 9.57496 61.3796 9.6185 61.8552 9.58045C62.1055 9.56043 62.3618 9.52765 62.6112 9.52765C63.1706 9.52765 63.737 9.57767 64.2898 9.57767C64.5383 9.57767 64.8158 9.77052 65.0402 9.86671C65.1828 9.92782 65.4606 9.93106 65.5794 10.039C65.8461 10.2815 66.3506 10.3223 66.5938 10.606C66.7035 10.7339 66.9826 10.8764 67.1385 10.9284C67.3492 10.9986 67.4945 11.217 67.6666 11.3508C67.8629 11.5036 68.3131 11.8424 68.3919 12.079" stroke="#F3D054" stroke-linecap="round"/>
<path d="M52.7954 15.8235C53.2207 15.6345 53.7277 15.5326 54.1827 15.4544C54.6681 15.371 55.1636 15.3217 55.6527 15.2635C55.9005 15.234 56.1418 15.1418 56.3909 15.1362C56.4222 15.1355 56.7194 15.1362 56.6104 15.1362C56.1556 15.1362 55.7657 15.2046 55.3218 15.3017C54.9953 15.3731 54.6629 15.3579 54.3354 15.4226C54.049 15.4792 53.7735 15.5581 53.4827 15.5944" stroke="#FF3D95" stroke-linecap="round"/>
<path d="M37.1025 16.8545C37.1148 16.4271 37.3932 16.0446 37.5894 15.674C37.7375 15.3941 37.9064 15.1342 38.1335 14.9072C38.3887 14.6519 38.6887 14.4383 38.9225 14.1626C39.1539 13.89 39.5776 13.7102 39.8453 13.4499C40.1788 13.1256 40.6185 12.9524 40.9748 12.6735C41.3403 12.3875 41.7687 12.1955 42.203 12.0435C43.2774 11.6675 44.3735 11.6647 45.4899 11.754C45.8535 11.7831 46.2037 11.8279 46.5653 11.8844C47.3045 11.9999 48.0441 11.9863 48.7799 12.1453C49.9755 12.4039 51.2726 12.6465 52.369 13.2208C52.8497 13.4726 53.3047 13.8592 53.8135 14.0354C54.149 14.1515 54.4493 14.3382 54.7426 14.4935C54.8879 14.5705 55.051 14.6754 55.2008 14.7354" stroke="#FF3D95" stroke-linecap="round"/>
<path d="M55.8306 15.1363C56.0457 15.1124 56.3803 14.6653 56.5369 14.5317C56.8421 14.2715 57.1381 14.0342 57.466 13.8063C57.9178 13.4922 58.3205 12.8099 58.866 12.6735" stroke="#FF3D95" stroke-linecap="round"/>
<path d="M55.7163 15.3653C55.7163 14.4341 56.8032 13.4679 57.549 12.9853C58.9509 12.0783 60.4622 10.959 62.185 10.7867C63.2846 10.6767 64.3691 10.6689 65.4782 10.6689C66.1437 10.6689 66.8301 10.8217 67.4 11.1844C67.6211 11.3251 67.8867 11.4134 68.0873 11.5853C68.2454 11.7208 68.4338 11.826 68.6027 11.948C68.7093 12.025 68.75 12.1189 68.8446 12.1899C69.0172 12.3194 69.1978 12.5281 69.3346 12.7053C69.5096 12.9322 69.7601 13.0902 69.92 13.3035" stroke="#FF3D95" stroke-linecap="round"/>
<path d="M62.5317 10.6117C62.5741 10.2728 64.5136 10.4399 64.7368 10.4399C65.1623 10.4399 65.6146 10.3741 65.9968 10.5799C66.1755 10.6761 66.4167 10.7408 66.6109 10.8217C66.911 10.9468 67.183 11.1675 67.4699 11.2863C67.7903 11.4188 68.1248 11.6135 68.3609 11.859C68.641 12.1504 69.0528 12.3424 69.3122 12.6417C69.6933 13.0814 70.1398 13.4661 70.55 13.8763" stroke="#FF3D95" stroke-linecap="round"/>
</g>
<g clip-path="url(#clip1_266_340)">
<path d="M124.696 40.463C125.259 40.3803 125.812 39.7752 126.363 39.543C126.628 39.4314 126.996 38.4911 127.19 38.2364C128.293 36.7921 128.942 35.171 129.986 33.6524C131.483 31.4765 132.408 28.7116 132.585 26.0754C132.665 24.8725 132.677 23.0648 131.466 22.3414C130.762 21.9205 129.499 22.1446 128.737 22.1298C127.795 22.1116 126.63 22.0193 125.752 22.3894C125.218 22.6141 124.619 22.5707 124.086 22.798C123.652 22.9832 123.292 23.262 122.84 23.4088C122.183 23.6218 121.505 24.2186 120.878 24.5171" stroke="#FE4AA0" stroke-width="2" stroke-linecap="round"/>
<path d="M120.857 25.6278C120.036 24.0022 119.409 22.2432 118.484 20.6615C117.911 19.6827 117.436 18.639 116.92 17.6155C116.612 17.003 115.711 15.5734 114.863 15.5123C113.905 15.4432 113.106 15.0021 112.122 14.983C111.365 14.9683 110.477 14.8235 109.724 14.9453C109.077 15.0501 108.349 15.5043 107.742 15.7534C106.894 16.1013 106.289 16.5281 105.539 17.0422C104.909 17.4739 104.076 18.2461 103.378 18.4641" stroke="#FE4AA0" stroke-width="2" stroke-linecap="round"/>
<path d="M102.749 18.1344C102.286 18.0738 101.583 17.1885 101.515 16.7702C101.374 15.9026 100.25 15.0127 99.5922 14.5109C98.1582 13.4159 96.4013 11.5973 94.4605 11.3164C91.9302 10.9502 89.7326 11.2637 87.5136 12.6015C86.0782 13.4669 84.7102 14.4757 83.747 15.8616" stroke="#FE4AA0" stroke-width="2" stroke-linecap="round"/>
<path d="M127.647 29.0495C127.634 29.7221 127.721 30.3335 127.968 30.965C128.159 31.4532 128.378 31.9329 128.59 32.4123C128.655 32.559 128.754 32.8254 128.698 32.4482C128.527 31.3094 128.212 30.1896 127.951 29.069C127.911 28.9 127.789 28.405 127.778 28.5781C127.753 28.9486 127.777 29.3191 127.851 29.6831C128.097 30.9034 128.484 32.022 128.614 33.259C128.643 33.5349 128.727 33.7942 128.816 34.055C128.901 34.3077 128.803 33.5216 128.784 33.2555C128.675 31.7621 128.911 30.1976 129.587 28.8502C129.85 28.3262 130.073 27.7719 130.282 27.2252C130.573 26.4618 130.906 25.6495 131.005 24.8358C131.038 24.5635 131.029 24.2842 131.035 24.0104C131.035 23.9846 131.043 23.8081 131.023 23.929C130.956 24.3269 130.902 24.7263 130.83 25.1236C130.709 25.7943 130.585 26.4666 130.486 27.1412C130.406 27.6903 130.387 28.2183 130.238 28.7545C129.921 29.8963 129.959 31.1163 129.811 32.2802C129.803 32.3446 129.628 33.3445 129.731 32.9422C130.02 31.8129 130.515 30.7549 130.73 29.6035C130.976 28.2857 131.388 26.9435 131.43 25.6023C131.439 25.3155 131.838 23.9335 131.467 23.7277C131.207 23.5837 130.586 23.6763 130.317 23.6783C129.827 23.6821 129.243 23.8125 128.781 23.9668C128.666 24.005 128.356 24.1036 128.289 24.2145C128.107 24.5116 127.866 24.7919 127.83 25.1467C127.746 25.9932 127.75 26.8475 127.734 27.6972C127.728 27.9959 127.647 28.3917 127.715 28.6852C127.756 28.8678 127.921 28.3722 128.015 28.2104C128.363 27.6119 128.704 27.0123 129.005 26.3881C129.282 25.8121 129.717 25.1256 129.854 24.4886C129.884 24.3491 129.373 24.3847 129.288 24.3625C128.454 24.1462 127.915 23.2764 126.999 23.3229C126.172 23.365 125.57 23.4987 124.837 23.8294C124.543 23.9618 124.306 24.1457 123.989 24.2598C123.749 24.3461 123.461 24.4493 123.212 24.502C122.47 24.6596 122.926 25.3502 123.394 25.6023C124.37 26.1277 125.396 26.5474 126.371 27.075C126.948 27.3866 127.494 27.7239 127.989 28.1557C127.992 28.1587 128.363 28.6075 128.423 28.4349C128.529 28.1317 128.47 27.6937 128.471 27.3797C128.473 26.9502 128.411 26.5682 128.285 26.1575C128.129 25.6503 127.998 25.1399 127.745 24.6711C127.588 24.38 127.481 24.3836 127.291 24.6623C126.762 25.4415 125.973 26.3411 125.819 27.2945C125.728 27.857 125.71 28.4935 125.955 29.0167C125.958 29.0245 126.17 29.4741 126.224 29.4349C126.29 29.3873 126.249 28.9079 126.249 28.86C126.239 27.8184 125.931 26.7431 125.53 25.7859C125.466 25.6345 125.37 25.3469 125.208 25.2719C124.986 25.1691 124.757 24.982 124.559 25.2322C124.167 25.7266 123.76 26.2512 124.121 26.8486C124.258 27.0742 124.362 27.4804 124.576 27.1485C124.962 26.5493 125.449 26.0123 125.821 25.4056C125.87 25.3267 126.678 23.699 125.993 23.9127C125.902 23.9411 125.815 24.0994 125.758 24.1587C125.532 24.3925 125.281 24.5956 125.014 24.7807C124.678 25.0142 124.339 25.189 123.967 25.3562C123.434 25.5964 122.852 25.7083 122.286 25.8381" stroke="#FF3D95" stroke-width="2" stroke-linecap="round"/>
<path d="M129.395 33.1658C129.26 33.18 128.942 33.6957 128.864 33.8292C128.762 34.0019 128.731 34.2102 128.61 34.3659C128.351 34.6967 128.263 35.1337 128.043 35.4686C127.504 36.2894 127.003 37.0816 126.681 37.9878" stroke="#FF3D95" stroke-width="2" stroke-linecap="round"/>
<path d="M118.787 24.0034C118.798 23.4342 118.502 22.6675 118.282 22.125C117.99 21.4065 117.616 20.601 117.173 19.9641C116.795 19.4214 116.561 18.776 116.191 18.2255C115.778 17.6106 115.018 17.2057 114.404 16.8368C113.862 16.5117 113.175 16.3401 112.553 16.2796C111.855 16.2119 111.141 16.2387 110.441 16.2252C109.876 16.2142 109.333 16.2028 108.774 16.3012C107.655 16.4983 106.654 16.9524 105.641 17.4727C105.483 17.5538 104.848 18.0453 104.922 18.217C105.07 18.5591 105.833 18.583 106.126 18.6398C106.532 18.7186 106.846 18.8365 107.273 18.8448C107.506 18.8493 107.774 18.9658 108.008 19.0147C108.206 19.0563 108.461 19.0852 108.644 19.176C109.089 19.3967 109.621 19.4914 110.098 19.6172C110.376 19.6906 110.659 19.7524 110.933 19.8432C111.068 19.8879 111.263 19.8658 111.371 19.96C111.794 20.3303 112.598 20.3133 113.115 20.4339C113.591 20.5447 114.046 20.7914 114.482 20.9952C114.824 21.155 115.2 21.3564 115.545 21.5371C115.803 21.6726 116.799 21.8199 116.87 22.1687C116.896 22.2999 117.122 22.6114 117.111 22.3088C117.09 21.7356 116.745 21.3337 116.389 20.9171C115.753 20.1703 115.021 19.6338 114.128 19.1909C113.515 18.8868 113.146 18.2999 112.477 18.0723C111.435 17.7172 110.327 17.6599 109.237 17.6066C108.796 17.5852 108.354 17.5862 107.914 17.5776C107.759 17.5746 107.797 17.8429 107.876 17.9188C108.138 18.1669 108.567 18.2928 108.903 18.3889C109.629 18.5963 110.374 18.7404 111.114 18.8854C111.862 19.032 112.615 19.1861 113.375 19.2541C113.529 19.2679 113.829 19.2139 113.942 19.3531C114.302 19.7964 114.899 20.1105 115.321 20.5037C115.614 20.7773 115.928 21.1711 116.265 21.3818C116.568 21.5709 117.28 21.9577 117.295 22.3902C117.306 22.6757 117.701 23.039 117.572 22.4362C117.5 22.0978 117.258 21.7764 117.103 21.4725C116.794 20.8653 116.277 20.3577 115.821 19.8601C115.293 19.2842 114.738 18.7345 114.212 18.16C114.108 18.046 113.987 17.9499 113.876 17.8421C113.777 17.7456 114.013 18.124 114.029 18.1531C114.683 19.3202 115.641 20.4153 116.563 21.3741C116.726 21.5432 116.92 21.6849 117.027 21.8976C117.081 22.0045 117.107 22.1376 117.18 22.2323C117.265 22.3427 117.389 22.4722 117.416 22.6058C117.431 22.6807 117.642 22.987 117.646 22.7796C117.662 21.9619 116.755 21.2329 116.231 20.7244" stroke="#FF3D95" stroke-width="2" stroke-linecap="round"/>
<path d="M104.082 18.7829C103.345 18.7686 102.557 18.4496 101.838 18.2655C101.481 18.1743 101.165 18.0229 100.841 17.84C100.311 17.5412 99.6944 17.3151 99.1396 17.0555C98.2241 16.6272 97.2561 16.2027 96.2844 15.9136C95.7853 15.765 95.3281 15.5415 94.8177 15.4349C94.0302 15.2705 93.2422 15.1362 92.45 14.9896C91.9683 14.9004 91.4914 14.9103 91.007 14.8669C90.38 14.8106 89.7623 14.6349 89.1335 14.597C88.0955 14.5345 87.0507 14.6142 86.0294 14.5944C85.9775 14.5934 85.5324 14.5809 85.6187 14.6474C85.8063 14.7917 86.0573 14.7865 86.2711 14.8699C87.1729 15.2215 88.1401 15.1548 89.0499 15.4146C89.6546 15.5872 90.4534 15.5747 91.0908 15.6064C91.807 15.642 92.5465 15.704 93.2529 15.8311C93.8373 15.9363 94.4325 15.9686 95.0145 16.109C95.684 16.2705 96.4378 16.1975 97.1215 16.2107C98.0114 16.228 98.9095 16.3063 99.7902 16.3234C100.277 16.3328 99.9085 15.8734 99.7148 15.672C99.0847 15.0171 98.2858 14.5746 97.6563 13.9396C97.3136 13.5937 96.7631 13.2981 96.3362 13.0643C95.9526 12.8542 95.5863 12.7346 95.1777 12.5781C94.8508 12.4529 94.4583 12.2644 94.1008 12.2526C92.9184 12.2135 91.734 12.2067 90.5512 12.1838C89.9483 12.1721 89.396 12.1798 88.85 12.4555C88.6749 12.5439 88.5237 12.5744 88.3355 12.6283C87.924 12.7463 89.0029 13.0518 89.0481 13.0619C90.3445 13.3512 91.7189 13.3112 93.0118 13.5991C94.0852 13.838 95.0793 14.2173 96.0999 14.6C96.204 14.639 96.582 14.7379 96.3005 14.7325C95.8947 14.7246 95.5033 14.6266 95.1056 14.5536C92.9906 14.1653 90.8643 13.6522 88.7057 13.6104C88.2692 13.6019 87.8327 13.5935 87.3962 13.585C85.9915 13.5578 90.2203 13.6451 91.5973 13.9237C92.8624 14.1796 94.1381 14.5587 95.4207 14.7154C95.8448 14.7672 96.2574 14.9038 96.6818 14.97C96.938 15.0101 97.1459 15.0161 97.3898 15.1192" stroke="#FF3D95" stroke-width="2" stroke-linecap="round"/>
<path d="M81.6163 14.6917C81.2133 14.6165 80.7896 14.0071 80.477 13.7421C80.1756 13.4867 79.9033 13.1807 79.6125 12.9333C79.4017 12.7538 79.2179 12.5486 78.9793 12.42C78.6843 12.2609 78.2518 11.9735 77.9257 11.9392C77.5502 11.8997 77.0457 11.6623 76.7158 11.4892C76.4218 11.3351 76.1245 11.1553 75.8526 10.9647C75.5591 10.7591 75.1777 10.6811 74.8521 10.5391C74.5011 10.3861 74.1586 10.221 73.7684 10.2135C73.1661 10.2018 72.5587 10.1649 71.9574 10.2089C71.5135 10.2413 70.957 10.17 70.5305 10.3031C70.302 10.3743 70.0519 10.2982 69.8158 10.3231C69.5248 10.3537 69.1609 10.6065 68.8974 10.7284C67.886 11.1965 66.7078 11.855 66.021 12.7782C65.9479 12.8764 65.4239 13.4032 65.4401 13.4067C65.7667 13.4787 66.0762 13.4766 66.4169 13.4832C67.6633 13.5074 68.9097 13.5315 70.156 13.5557C71.4672 13.5811 72.7935 13.5467 74.097 13.6963C75.1413 13.8163 76.1824 13.9976 77.2265 14.1327C77.5119 14.1697 77.7808 14.2518 78.0703 14.2574C78.2418 14.2607 78.4364 14.2382 78.6047 14.2813C78.7757 14.325 78.9599 14.3897 79.1374 14.3932C79.2327 14.395 78.7524 14.0075 78.6987 13.9717C77.9139 13.4486 76.9467 13.0256 76.0555 12.7222C75.3647 12.487 74.7073 12.1883 74.0009 12.0155C73.0418 11.7809 72.1109 11.7047 71.1232 11.6855C70.8215 11.6797 70.3908 11.5977 70.0973 11.6961C69.7574 11.8101 69.3668 11.7446 69.0335 11.9158C68.7444 12.0643 68.3854 12.1393 68.0761 12.2358" stroke="#FF3D95" stroke-width="2" stroke-linecap="round"/>
<path d="M130.847 36.0533C130.839 36.4284 130.343 36.7828 130.146 37.0969C129.94 37.4268 129.646 37.6435 129.471 37.9771C129.372 38.1656 129.179 38.3404 129.05 38.5006C128.945 38.6304 128.867 38.9149 128.731 39.0045C128.604 39.0879 128.594 39.2328 128.49 39.3336C128.363 39.4553 128.191 39.6012 128.101 39.7589C127.989 39.9546 127.739 40.1092 127.649 40.3034C127.571 40.4686 127.245 40.5911 127.198 40.7429C127.162 40.859 126.938 41.036 126.829 41.1221C126.661 41.2543 126.494 41.4353 126.338 41.5855C125.569 42.3247 124.718 42.7456 123.753 43.2046" stroke="#F3D054" stroke-linecap="round"/>
<path d="M128.852 38.5184C128.824 38.7673 128.47 39.144 128.253 39.2827C128.05 39.412 127.913 39.6081 127.718 39.7484C127.591 39.84 127.486 40.0687 127.373 40.1837C127.135 40.426 126.96 40.7185 126.678 40.9245C126.286 41.2107 125.912 41.7268 125.448 41.9021C125.128 42.023 124.823 42.2439 124.517 42.3972C124.318 42.4972 123.92 42.619 123.816 42.8164" stroke="#F3D054" stroke-linecap="round"/>
<path d="M128.28 39.2863C127.967 39.4918 127.837 39.9153 127.54 40.1498C127.361 40.2915 127.207 40.4519 127.034 40.5975C126.821 40.7769 126.547 40.9132 126.305 41.0501C126.149 41.1381 125.907 41.2552 125.779 41.3645C125.651 41.4745 125.495 41.4931 125.398 41.6106C125.301 41.727 125.009 41.8847 124.863 41.9464C124.587 42.0625 124.283 42.2804 124.046 42.4314" stroke="#F3D054" stroke-linecap="round"/>
<path d="M132.201 22.3334C131.928 22.3008 131.739 22.021 131.519 21.8931C131.271 21.7489 130.97 21.7359 130.704 21.5962C130.441 21.4583 130.074 21.478 129.784 21.3995C129.39 21.2928 129.038 21.2865 128.611 21.2782C127.671 21.26 126.767 21.215 125.845 21.4071C125.583 21.4616 125.321 21.4736 125.054 21.5378C124.844 21.5881 124.482 21.5947 124.295 21.691C123.856 21.9164 123.36 22.026 122.908 22.2337C122.766 22.2992 122.576 22.3426 122.451 22.4402C122.361 22.511 122.37 22.5844 122.24 22.6296C121.996 22.714 121.554 22.829 121.396 23.044C121.365 23.0854 120.971 23.2944 120.96 23.2838C120.911 23.2325 121.318 22.9324 121.387 22.9124C121.578 22.8578 121.872 22.7275 122.039 22.6257C122.223 22.5135 122.407 22.4491 122.592 22.3443C122.78 22.2381 122.881 22.1284 123.105 22.0586C123.428 21.9579 123.792 21.7629 124.109 21.702C124.454 21.6355 124.85 21.6253 125.198 21.6063C125.498 21.5899 125.79 21.5001 126.095 21.4886C126.717 21.4651 127.319 21.4503 127.943 21.4624C128.53 21.4737 129.118 21.4851 129.705 21.4965C130.07 21.5036 130.441 21.4921 130.791 21.6161C131.037 21.7035 131.228 21.7889 131.488 21.7939" stroke="#FF3D95" stroke-linecap="round"/>
<path d="M131.613 22.1249C131.578 21.7889 130.76 21.6544 130.576 21.4148C130.372 21.1493 129.717 21.1515 129.428 21.0933C128.493 20.9045 127.495 20.8623 126.527 20.8436C125.542 20.8245 124.579 21.0676 123.669 21.4197C123.025 21.6685 122.327 21.9204 121.753 22.3135C121.267 22.6464 120.745 22.969 120.16 23.1515" stroke="#FF3D95" stroke-linecap="round"/>
<path d="M119.259 22.4329C120.03 22.4478 120.728 22.1768 121.54 22.1926" stroke="#FF3D95" stroke-linecap="round"/>
<path d="M131.416 21.8309C131.275 21.8282 130.918 21.7424 130.845 21.6328C130.736 21.4666 130.317 21.4838 130.144 21.4011C129.803 21.2383 129.416 20.9822 129.038 20.926C127.411 20.6848 125.707 20.723 124.059 20.691C123.45 20.6792 122.741 20.8592 122.146 20.9795C121.354 21.1394 120.565 21.3261 119.798 21.5123C119.582 21.5645 119.434 21.6394 119.22 21.6604C119.062 21.6759 118.599 21.759 118.757 21.7726C118.878 21.783 119.003 21.7774 119.124 21.7797C119.712 21.7911 120.281 21.7297 120.868 21.6923C121.295 21.665 121.709 21.5181 122.135 21.5264" stroke="#FF3D95" stroke-linecap="round"/>
<path d="M105.237 16.3252C105.095 16.4566 104.964 16.5761 104.785 16.66C104.612 16.741 104.415 16.7699 104.247 16.8497C103.982 16.9759 103.725 17.1457 103.431 17.2C103.295 17.2251 103.134 17.2018 102.997 17.1992C102.816 17.1957 102.559 17.2398 102.405 17.1368C102.199 16.9985 102.003 16.8982 101.814 16.7384C101.559 16.5222 101.367 16.2805 101.166 16.0085" stroke="#FF3D95" stroke-linecap="round"/>
<path d="M107.02 15.4764C106.803 15.4504 106.68 15.5037 106.471 15.5846C106.379 15.62 106.26 15.6245 106.195 15.7001C106.137 15.767 105.995 15.8336 105.911 15.8626C105.67 15.9449 105.415 16.2206 105.236 16.3931" stroke="#FF3D95" stroke-linecap="round"/>
<path d="M101.836 16.497C102.087 16.5974 102.248 16.767 102.439 16.9504C102.474 16.9839 102.894 17.2854 102.899 17.2745C102.937 17.1837 102.376 16.7039 102.292 16.6531C102.196 16.5952 102.152 16.4483 102.075 16.3676C101.96 16.2487 101.815 16.1239 101.683 16.0259C101.488 15.8813 101.316 15.695 101.108 15.5693C100.901 15.4437 100.753 15.2597 100.537 15.1467" stroke="#FF3D95" stroke-linecap="round"/>
<path d="M102.408 16.7801C102.475 16.9207 102.478 16.8806 102.439 16.7372C102.385 16.5391 102.309 16.3642 102.2 16.1909C102.067 15.9781 101.92 15.7487 101.754 15.5612C101.575 15.3592 101.372 15.1587 101.201 14.9483C101.023 14.7278 100.762 14.5673 100.533 14.3955C99.9471 13.9565 99.4471 13.4443 98.8025 13.0822C97.974 12.6167 97.064 12.156 96.1121 12.0371" stroke="#FF3D95" stroke-linecap="round"/>
<path d="M82.4075 14.7449C82.3716 14.5554 82.3246 14.371 82.2697 14.1863C82.2265 14.0408 82.1341 13.9362 82.0856 13.7945C82.0011 13.5473 81.788 13.3514 81.6432 13.1317C81.3575 12.6985 80.9114 12.4772 80.551 12.1113C80.3566 11.9139 80.0576 11.7998 79.8118 11.6752C79.3524 11.4423 78.9076 11.228 78.4793 10.9425C77.8511 10.5238 77.2481 10.1782 76.5484 9.92981" stroke="#FF3D95" stroke-linecap="round"/>
<path d="M82.2889 14.1819C82.2522 13.4045 81.5256 12.8778 81.0837 12.323C80.7945 11.9598 80.386 11.6667 80.058 11.335C79.442 10.7119 78.5152 10.4923 77.7307 10.1253C77.4005 9.97082 77.1215 9.75788 76.7745 9.63468C76.2746 9.45723 75.8147 9.44115 75.2903 9.43099C74.1729 9.40934 72.9132 9.22264 71.8527 9.62318" stroke="#FF3D95" stroke-linecap="round"/>
<path d="M76.9829 6.95581C76.872 7.0778 76.7852 7.21301 76.6896 7.34687" stroke="#F3D054" stroke-linecap="round"/>
<path d="M65.4911 9.67768C65.5195 9.45078 66.1477 10.0159 66.1887 10.0473C66.3782 10.1926 66.535 10.3645 66.7168 10.5059C66.8516 10.6108 66.9489 10.5485 67.0892 10.4503C67.3067 10.298 67.4984 10.1906 67.7312 10.0668C67.8743 9.99065 68.0546 10.0157 68.1675 9.9028C68.2416 9.82867 68.2844 9.77773 68.3926 9.77773" stroke="#F3D054" stroke-linecap="round"/>
<path d="M65.8503 10.4314C65.6401 10.4577 66.1259 11.0021 66.1367 11.0507C66.1559 11.1368 66.325 11.217 66.404 11.2443C66.5173 11.2836 66.6132 11.437 66.7272 11.4972C66.8683 11.5717 66.9687 11.691 67.1176 11.7548C67.2644 11.8177 67.3995 11.89 67.5497 11.9436C67.6567 11.9818 67.7372 12.0653 67.8377 12.1244C67.8655 12.1408 67.9283 12.1496 67.9465 12.1661C68.0066 12.2201 67.9735 12.2559 68.0682 12.2749" stroke="#F3D054" stroke-linecap="round"/>
<path d="M68.2124 12.4477C68.3685 12.1354 68.5348 11.8389 68.7757 11.582C69.0988 11.2372 69.4368 10.8823 69.7966 10.5738C70.0029 10.397 70.1984 10.212 70.4239 10.057C70.5101 9.99769 70.6101 9.88101 70.7055 9.85376C70.8472 9.81327 70.9308 9.67577 71.0639 9.62493C71.4668 9.47112 71.8502 9.27038 72.2833 9.19928C72.5593 9.15396 72.8281 9.08488 73.101 9.02326C73.2845 8.98183 73.4825 8.97435 73.6562 8.90485" stroke="#F3D054" stroke-linecap="round"/>
<path d="M66.081 10.5466C66.3201 10.5466 66.4653 10.7793 66.6747 10.8795C66.8929 10.9838 67.1349 11.114 67.2844 11.2955C67.4105 11.4487 67.5338 11.6877 67.6796 11.8012C67.725 11.8365 67.7391 11.8844 67.758 11.9356C67.7804 11.9959 67.8375 12.0096 67.8653 12.0604C67.8987 12.1217 67.9693 12.167 67.9837 12.2316C68.0035 12.321 68.169 12.4443 68.2189 12.5341C68.2291 12.5525 68.3794 12.6757 68.2781 12.6141C68.1439 12.5324 68.0383 12.4154 67.9373 12.3052C67.7999 12.1554 67.625 12.0562 67.5212 11.8716C67.4961 11.827 67.4165 11.7125 67.3708 11.6924C67.2866 11.6553 67.214 11.5068 67.1468 11.4395" stroke="#F3D054" stroke-linecap="round"/>
<path d="M68.7307 12.7933C68.7307 12.4023 68.9028 12.0589 69.0475 11.7052C69.1141 11.5425 69.2293 11.3422 69.3452 11.2155C69.5202 11.0242 69.6074 10.7841 69.8124 10.6106C70.2286 10.2585 70.6347 9.87593 71.0862 9.56731C71.5864 9.22536 72.1749 9.04221 72.7344 8.81842" stroke="#F3D054" stroke-linecap="round"/>
<path d="M69.0189 12.6205C69.0189 12.3292 69.2446 12.1363 69.3933 11.9132C69.6219 11.5704 69.9017 11.1956 70.1966 10.9099C70.3725 10.7396 70.5021 10.5465 70.6911 10.3851C70.9346 10.1771 71.1669 9.97548 71.432 9.79299C71.784 9.55061 72.1469 9.33522 72.5409 9.16731C72.8514 9.03497 73.1537 8.83413 73.4834 8.76086" stroke="#F3D054" stroke-linecap="round"/>
<path d="M69.0552 12.3845C69.2318 12.3649 69.3858 11.877 69.4489 11.7349C69.5671 11.469 69.8161 11.2413 70.0023 11.024C70.1331 10.8715 70.3262 10.7185 70.4814 10.5909C70.6251 10.4727 70.7693 10.3455 70.9232 10.2409C71.1031 10.1187 71.2266 9.95519 71.3957 9.8253C71.7303 9.56827 72.0889 9.36228 72.4544 9.15596C72.8775 8.91712 73.3555 8.76844 73.8193 8.60474" stroke="#F3D054" stroke-linecap="round"/>
<path d="M69.1734 12.5814C69.4761 12.2787 69.7687 11.9686 70.0702 11.6671C70.1699 11.5674 70.2379 11.4382 70.3371 11.339C70.4749 11.2012 70.6474 11.0784 70.768 10.93C70.9861 10.6615 71.3255 10.4562 71.5751 10.2191C71.7551 10.0481 71.9688 9.97074 72.1657 9.82753C72.3583 9.68747 72.6488 9.5542 72.8766 9.49286C73.3138 9.37515 73.7143 9.23221 74.1716 9.156C74.6989 9.06812 75.169 8.99851 75.7093 8.99851C76.2971 8.99851 76.8913 8.95913 77.4833 8.95913C77.6098 8.95913 78.0336 8.93521 78.1417 9.00726C78.2567 9.08394 78.4803 9.13223 78.6229 9.156" stroke="#F3D054" stroke-linecap="round"/>
<path d="M69.4484 12.5941C69.4752 12.2993 69.894 11.9107 70.128 11.7937C70.4334 11.641 70.7119 11.3337 70.9964 11.1367C71.3579 10.8865 71.9708 10.6883 72.2348 10.3363C72.5119 9.96682 73.1146 9.88422 73.4958 9.64163C73.6443 9.54714 74.0273 9.45093 74.2056 9.4C74.432 9.3353 74.6957 9.3811 74.9116 9.29806C75.4732 9.08206 76.1147 9.12816 76.7163 9.12816C77.635 9.12816 78.5395 9.25892 79.3705 9.53592" stroke="#F3D054" stroke-linecap="round"/>
<path d="M68.6325 12.7301C68.6613 12.5 69.3101 12.9007 69.0403 12.8622C68.9083 12.8433 68.7141 12.477 68.7307 12.6092C68.7449 12.7234 68.9385 12.866 69.0403 12.866" stroke="#F3D054" stroke-linecap="round"/>
<path d="M68.361 11.8466C68.361 12.1771 68.3793 12.529 68.7687 12.647C68.977 12.7101 69.1769 13.0509 69.4143 12.9981C69.6011 12.9566 69.924 12.6282 70.0298 12.4922C70.0663 12.4452 70.2534 12.308 70.2601 12.2846C70.3052 12.1265 70.3535 12.0053 70.4677 11.8843C70.6958 11.6429 70.9144 11.4 71.1473 11.167C71.3314 10.9829 71.5941 10.8414 71.7552 10.6535C72.0235 10.3405 72.4214 10.2412 72.7141 9.97771C73.0642 9.66269 73.822 9.33209 74.2734 9.33209" stroke="#F3D054" stroke-linecap="round"/>
<path d="M82.3345 13.6812C82.437 13.6926 82.5442 13.8684 82.6004 13.9471C82.6576 14.0272 82.7602 14.0746 82.7881 14.1583C82.7981 14.1883 82.9243 14.3148 82.9539 14.3444C83.0257 14.4162 83.0998 14.5293 83.1792 14.5822" stroke="#FF3D95" stroke-linecap="round"/>
<path d="M83.4041 14.6103C83.4502 14.5694 83.5199 14.6041 83.5449 14.554" stroke="#FF3D95" stroke-linecap="round"/>
<path d="M83.7704 14.5822C84.0466 14.391 84.2933 14.1221 84.5181 13.8768C84.6781 13.7022 84.9803 13.6717 85.1907 13.5952C85.6335 13.4342 86.0157 13.1935 86.417 12.9492" stroke="#FF3D95" stroke-linecap="round"/>
<path d="M84.3333 14.3851C84.4365 13.9464 84.8529 13.5958 85.1623 13.3027C85.4091 13.0689 85.6331 12.8478 85.9193 12.6614C86.2085 12.4731 86.4943 12.2709 86.8109 12.1108C87.3683 11.8291 88.0122 11.7479 88.6128 11.5978" stroke="#FF3D95" stroke-linecap="round"/>
<path d="M68.9203 14.1053C69.0179 13.78 69.6184 13.3097 69.8621 13.0776C70.2455 12.7125 70.6035 12.3326 71.0075 11.9862C71.5729 11.5016 72.1872 11.1137 72.8848 10.8408C73.2161 10.7111 73.5466 10.6445 73.8776 10.5226C74.0724 10.4508 74.2559 10.3902 74.463 10.3826C74.6921 10.3741 74.8995 10.2108 75.1344 10.2108C75.9497 10.2108 76.8067 10.1535 77.6385 10.1535C78.0823 10.1535 78.566 10.2558 78.9717 10.443C79.2953 10.5924 79.8348 10.7621 80.0821 11.0094C80.5269 11.4542 81.1274 11.7974 81.5776 12.2726C82.2949 13.0297 82.9454 13.8628 83.4103 14.7926" stroke="#FF3D95" stroke-linecap="round"/>
<path d="M83.525 14.1626C83.9454 14.0224 84.3466 13.734 84.7022 13.4753C85.012 13.25 85.2277 12.9086 85.5327 12.699C86.497 12.036 87.5963 11.5938 88.7241 11.2862C90.2683 10.8651 91.9737 10.6117 93.5796 10.6117C94.6729 10.6117 95.6188 10.9595 96.6373 11.2989C97.1314 11.4636 97.6065 11.766 98.0723 11.999C98.2766 12.1011 98.5075 12.2715 98.645 12.4571C98.8099 12.6797 99.2492 12.9427 99.3323 13.1921C99.4471 13.5364 99.8735 13.6381 100.023 13.9367C100.085 14.0614 100.25 14.0644 100.306 14.1912C100.387 14.3731 100.606 14.4498 100.707 14.6208C100.909 14.965 101.227 15.2881 101.464 15.6199C101.666 15.9024 101.934 16.22 102.094 16.5108C102.208 16.7178 102.445 16.8946 102.54 17.0835" stroke="#FF3D95" stroke-linecap="round"/>
</g>
<path d="M64.7909 9.62768C64.9143 9.62768 64.9835 9.68556 65.0855 9.74996C65.3216 9.89908 65.5969 10.0428 65.8525 10.1557C66.1142 10.2713 66.3381 10.4558 66.5918 10.5893C66.7749 10.6857 66.919 10.8163 67.0809 10.9283C67.1877 11.0023 67.2953 11.0882 67.4033 11.1562C67.482 11.2058 67.5705 11.1711 67.6535 11.2285C67.8839 11.3881 67.975 11.5409 68.2204 11.3397C68.408 11.1859 68.5022 10.9778 68.704 10.8283C68.9243 10.6651 69.0955 10.4019 69.3432 10.278C69.7331 10.0831 70.1135 9.88401 70.5272 9.7444C70.8955 9.6201 71.2629 9.48669 71.6166 9.32752C71.8678 9.21449 72.1438 9.18933 72.3948 9.07739C72.556 9.00552 72.7149 8.9637 72.8895 8.93843C72.9399 8.93113 73.0701 8.92445 73.034 8.88841C72.9583 8.81272 72.65 8.95665 72.5727 8.97734C72.2256 9.07023 71.8986 9.23075 71.5499 9.3164C70.9674 9.45949 70.3444 9.45776 69.7823 9.6777C69.2116 9.90105 68.7916 10.1265 68.3427 10.5281C68.0479 10.7919 67.698 11.1559 67.2922 11.1785C67.1028 11.189 66.9443 11.2538 66.7419 11.2174C66.3701 11.1505 66.7454 11.1482 66.892 11.2785C67.1605 11.5172 67.4744 11.2497 67.709 11.0895C68.0833 10.8341 68.4676 10.6032 68.8041 10.2891C69.2537 9.86947 69.9908 9.62154 70.5438 9.38866C70.6449 9.34611 70.7733 9.36892 70.8829 9.32752C71.0955 9.24721 71.3153 9.18153 71.5444 9.17744C71.9532 9.17014 72.3456 9.08227 72.7505 9.07739C73.3602 9.07005 73.9353 8.89092 74.5348 8.87729C75.0381 8.86585 75.5432 8.87729 76.0467 8.87729C76.4284 8.87729 76.8156 8.85821 77.1973 8.87729C77.3258 8.88372 77.4205 8.97266 77.5586 8.97734C77.739 8.98346 77.8857 9.05088 78.0588 9.08851C78.6348 9.21372 79.1594 9.50745 79.7208 9.6777C80.4677 9.90424 81.1924 10.1887 81.9497 10.3781" stroke="#F3D054" stroke-linecap="round"/>
<path d="M64.4525 10.6117C64.9178 10.6117 65.2437 10.9175 65.6585 11.0731C65.8702 11.1525 66.0628 11.3032 66.2598 11.4135C66.5275 11.5634 66.7606 11.6227 66.9598 11.8717C67.2889 12.283 67.6637 12.7283 68.0353 13.0999C68.3212 13.3858 68.6794 13.7963 68.8626 14.1626" stroke="#FF3D95" stroke-linecap="round"/>
<path d="M64.052 10.3826C64.6413 10.3826 65.2305 10.3687 65.7702 10.6244C66.1906 10.8235 66.5766 11.2264 66.9602 11.5026C67.8321 12.1303 68.6219 12.9629 69.2639 13.8189" stroke="#FF3D95" stroke-linecap="round"/>
<defs>
<radialGradient id="paint0_radial_266_340" cx="0" cy="0" r="1" gradientUnits="userSpaceOnUse" gradientTransform="translate(69.5 33.5) scale(61.5 19.5)">
<stop offset="0.23" stop-color="#FF95DA"/>
<stop offset="0.45" stop-color="#FD93D8"/>
<stop offset="0.695" stop-color="#FC93D7"/>
<stop offset="0.881" stop-color="#FD63B6"/>
<stop offset="1" stop-color="#FF3B93"/>
</radialGradient>
<clipPath id="clip0_266_340">
<rect width="70" height="53" fill="white" transform="translate(4 5)"/>
</clipPath>
<clipPath id="clip1_266_340">
<rect width="70" height="53" fill="white" transform="matrix(-0.999812 -0.0193732 -0.0193732 0.999812 135.072 5.37476)"/>
</clipPath>
</defs>
</svg>
