<svg width="131" height="145" viewBox="0 0 131 145" fill="none" xmlns="http://www.w3.org/2000/svg">
<path d="M96.7646 24.108L69.1781 57.1968L56.9175 24.5053L96.7646 24.108Z" fill="#FFBC3A"/>
<rect x="0.544678" y="0.0912476" width="128.402" height="41.335" rx="20" fill="#FFBC3A"/>
<path d="M25.5411 17.2791C25.5411 16.7582 25.6062 16.2634 25.7365 15.7947C25.8667 15.3259 26.075 14.9158 26.3615 14.5642C26.6479 14.2126 27.0125 13.9327 27.4552 13.7244C27.8979 13.516 28.4318 13.4119 29.0568 13.4119C29.7078 13.4119 30.2547 13.5616 30.6974 13.8611C31.1401 14.1475 31.4917 14.4991 31.7521 14.9158C32.0255 15.3194 32.2143 15.7426 32.3185 16.1853C32.4357 16.628 32.4943 16.9926 32.4943 17.2791C32.4943 17.6306 32.4422 18.0343 32.338 18.49C32.2469 18.9327 32.0711 19.3559 31.8107 19.7595C31.5633 20.1501 31.2117 20.4887 30.756 20.7751C30.3133 21.0486 29.7338 21.1853 29.0177 21.1853C28.3536 21.1853 27.8003 21.0616 27.3575 20.8142C26.9148 20.5668 26.5568 20.2543 26.2833 19.8767C26.0229 19.4861 25.8341 19.0629 25.7169 18.6072C25.5997 18.1384 25.5411 17.6957 25.5411 17.2791ZM26.7911 17.2791C26.7911 17.6957 26.8497 18.0668 26.9669 18.3923C27.0841 18.7048 27.2469 18.9718 27.4552 19.1931C27.6635 19.4145 27.8979 19.5903 28.1583 19.7205C28.4318 19.8507 28.7182 19.9223 29.0177 19.9353C29.6687 19.9353 30.1961 19.6814 30.5997 19.1736C31.0034 18.6658 31.2052 17.9757 31.2052 17.1033C31.2052 16.7908 31.1531 16.4913 31.049 16.2048C30.9448 15.9054 30.795 15.6449 30.5997 15.4236C30.4044 15.1892 30.17 15.0004 29.8966 14.8572C29.6362 14.7139 29.3432 14.6358 29.0177 14.6228C28.6792 14.6228 28.3732 14.7009 28.0997 14.8572C27.8393 15.0004 27.6115 15.1957 27.4161 15.4431C27.2208 15.6775 27.0711 15.9574 26.9669 16.283C26.8628 16.5955 26.8042 16.9275 26.7911 17.2791ZM35.9708 11.9666H37.299V16.1462H40.3458V17.4744H37.299V23.5291H35.8927L35.9708 11.9666ZM30.1505 28.0994V23.5291L31.4786 23.7634V27.3572H38.549L38.6271 28.6072H30.6974L30.1505 28.0994ZM49.9161 20.2087V21.4978H43.2365L42.6505 20.6384V13.3728H44.0177V20.0134L49.9161 20.2087ZM54.6427 12.0837V22.3572H53.3927V18.4509H47.924V17.2009H53.3341V15.4822H47.924V14.2322H53.3146V12.1228L54.6427 12.0837ZM53.2755 26.3806C53.2755 25.8988 53.0476 25.4952 52.5919 25.1697C52.1492 24.8311 51.5307 24.6619 50.7365 24.6619C49.9161 24.6619 49.2846 24.8311 48.8419 25.1697C48.4122 25.4952 48.1974 25.8988 48.1974 26.3806C48.1974 26.8754 48.4122 27.2921 48.8419 27.6306C49.2846 27.9692 49.9161 28.1384 50.7365 28.1384C51.5307 28.1384 52.1492 27.9692 52.5919 27.6306C53.0476 27.2921 53.2755 26.8754 53.2755 26.3806ZM46.8302 26.3806C46.8302 25.99 46.9083 25.6189 47.0646 25.2673C47.2338 24.9158 47.4812 24.6098 47.8068 24.3494C48.1453 24.0759 48.5555 23.8676 49.0372 23.7244C49.519 23.5681 50.0854 23.49 50.7365 23.49C51.3745 23.49 51.9344 23.5681 52.4161 23.7244C52.9109 23.8676 53.3211 24.0759 53.6466 24.3494C53.9851 24.6098 54.2325 24.9158 54.3888 25.2673C54.5581 25.6189 54.6427 25.99 54.6427 26.3806C54.6427 26.7973 54.5581 27.1814 54.3888 27.533C54.2325 27.8845 53.9851 28.1905 53.6466 28.4509C53.3211 28.7244 52.9109 28.9327 52.4161 29.0759C51.9344 29.2322 51.3745 29.3103 50.7365 29.3103C50.0854 29.3103 49.519 29.2322 49.0372 29.0759C48.5555 28.9327 48.1453 28.7244 47.8068 28.4509C47.4812 28.1905 47.2338 27.8845 47.0646 27.533C46.9083 27.1814 46.8302 26.7973 46.8302 26.3806ZM66.088 16.7712L65.9708 17.9431L57.4943 17.2791V16.0681L61.088 16.3025V12.9041L62.4161 13.0212V16.4978L66.088 16.7712ZM64.6818 22.7869C64.6167 23.2426 64.4865 23.6593 64.2911 24.0369C64.1088 24.4014 63.8745 24.7205 63.588 24.9939C63.3146 25.2673 62.9956 25.4822 62.631 25.6384C62.2664 25.7817 61.8823 25.8533 61.4786 25.8533C60.8797 25.8533 60.3719 25.7491 59.9552 25.5408C59.5516 25.3194 59.2195 25.046 58.9591 24.7205C58.6987 24.3819 58.5099 24.0173 58.3927 23.6267C58.2755 23.2231 58.2169 22.8324 58.2169 22.4548C58.2169 21.9731 58.282 21.5173 58.4122 21.0876C58.5555 20.6449 58.7638 20.2608 59.0372 19.9353C59.3107 19.5968 59.6492 19.3298 60.0529 19.1345C60.4565 18.9392 60.9253 18.8416 61.4591 18.8416C62.4487 18.8416 63.2365 19.1606 63.8224 19.7986C64.4083 20.4236 64.7013 21.2634 64.7013 22.3181C64.7013 22.3962 64.7013 22.4744 64.7013 22.5525C64.7013 22.6306 64.6948 22.7087 64.6818 22.7869ZM59.5646 21.8103C59.5125 21.9796 59.4865 22.1879 59.4865 22.4353C59.4865 22.6697 59.519 22.9106 59.5841 23.158C59.6492 23.4054 59.7599 23.6397 59.9161 23.8611C60.0724 24.0694 60.2742 24.2452 60.5216 24.3884C60.769 24.5186 61.0685 24.5837 61.42 24.5837C61.6935 24.5837 61.9539 24.5186 62.2013 24.3884C62.4487 24.2582 62.6635 24.0889 62.8458 23.8806C63.0281 23.6593 63.1713 23.4054 63.2755 23.1189C63.3797 22.8324 63.4318 22.533 63.4318 22.2205C63.4318 21.6345 63.2625 21.1332 62.924 20.7166C62.5984 20.2999 62.1232 20.0916 61.4982 20.0916C60.9904 20.0916 60.5672 20.2543 60.2286 20.5798C59.8901 20.8923 59.6687 21.3025 59.5646 21.8103ZM69.2521 27.3962L67.8068 27.2791V13.2556H69.4083V19.2712H72.3771V20.5212H69.2521V27.3962ZM73.6661 23.3728L76.7521 18.6072V14.2712H78.3146V18.5681L81.713 23.2166L80.8146 24.1931L77.4943 19.9744L74.7208 24.2712L73.6661 23.3728ZM80.0333 19.0369V17.7087H83.7052V13.3728H85.0724V25.6384L83.7833 25.7166V19.0369H80.0333ZM86.9865 12.9041H88.3146V26.1462H86.9865V12.9041ZM93.0802 17.3181C93.0672 17.266 93.0607 17.2139 93.0607 17.1619C93.0607 17.1098 93.0607 17.0577 93.0607 17.0056C93.0607 16.4978 93.1518 16.0421 93.3341 15.6384C93.5164 15.2218 93.7768 14.8702 94.1154 14.5837C94.4669 14.2843 94.8771 14.0564 95.3458 13.9001C95.8276 13.7309 96.3615 13.6462 96.9474 13.6462C97.7026 13.6462 98.3536 13.7439 98.9005 13.9392C99.4604 14.1215 99.9226 14.3754 100.287 14.7009C100.652 15.0134 100.919 15.3845 101.088 15.8142C101.27 16.2309 101.361 16.6671 101.361 17.1228C101.361 17.7348 101.231 18.2621 100.971 18.7048C100.71 19.1475 100.372 19.5186 99.9552 19.8181L100.072 24.7595H104.135V26.1072H90.463V24.5837H94.8771L94.7599 19.8767C94.3172 19.6293 93.9331 19.2973 93.6075 18.8806C93.295 18.4639 93.1193 17.9431 93.0802 17.3181ZM98.6075 20.4041C98.1909 20.5082 97.7937 20.5603 97.4161 20.5603C97.0125 20.5603 96.5893 20.5147 96.1466 20.4236L96.2443 24.7009H98.7052L98.6075 20.4041ZM97.2208 14.8572C96.8562 14.8572 96.5047 14.9028 96.1661 14.9939C95.8276 15.085 95.5281 15.2283 95.2677 15.4236C95.0203 15.6059 94.8185 15.8403 94.6622 16.1267C94.519 16.4132 94.4474 16.7582 94.4474 17.1619C94.4474 17.5264 94.532 17.8389 94.7013 18.0994C94.8706 18.3598 95.0919 18.5746 95.3654 18.7439C95.6518 18.9132 95.9773 19.0369 96.3419 19.115C96.7065 19.1931 97.0776 19.2322 97.4552 19.2322C97.8849 19.2322 98.2625 19.1736 98.588 19.0564C98.9135 18.9262 99.1805 18.7634 99.3888 18.5681C99.5971 18.3598 99.7534 18.1254 99.8575 17.865C99.9617 17.5916 100.014 17.3181 100.014 17.0447C100.014 16.3546 99.7599 15.8272 99.2521 15.4626C98.7573 15.085 98.0802 14.8832 97.2208 14.8572ZM109.643 25.7556L108.588 27.2009L106.947 25.5212L108.041 24.1541L109.643 25.7556ZM109.018 22.9822H107.416V13.0603H109.018V22.9822Z" fill="black"/>
<path d="M20.4977 126.149C22.0515 129.215 23.7228 132.069 27.3 132.694C28.3859 135.937 29.0122 137.354 33.7811 138.997C37.8317 140.393 41.757 141.415 45.8886 142.435C50.6389 143.606 57.5 142.928 61.7851 140.673C70.4932 136.091 83.2548 137.792 93.0119 137.364C101.101 137.009 104.343 128.748 109.17 123.657C112.046 120.623 109.801 116.396 112.088 113.387C114.559 110.137 114.639 105.917 112.305 102.602C110.279 99.7234 109.353 95.4877 107.34 92.9342C104.984 89.9447 102.774 87.1987 101.113 83.7388C99.728 80.855 92.8297 77.9771 90.0068 77.0786C81.6639 74.4234 73.6807 71.0172 64.8337 69.4301C59.7337 68.5153 53.8948 69.3442 48.7195 69.3442C46.6118 69.3442 44.1259 68.9538 42.0995 69.5161C32.7132 72.1207 22.586 78.8094 17.0136 86.7037C14.2377 90.6362 9 95.9075 9 101.055C9 102.497 9.64706 103.572 9.78394 104.923C10.2669 109.688 12.5984 116.09 17.4926 117.298C18.8818 117.64 19.6971 124.569 20.4977 126.149Z" fill="#F6721B"/>
<path d="M27.8145 132.766C23.8794 132.335 22.1241 129.358 20.4977 126.149C19.6971 124.569 18.8818 117.64 17.4926 117.298C12.5984 116.09 10.2669 109.688 9.78394 104.923C9.64706 103.572 9 102.497 9 101.055C9 95.9075 14.2377 90.6362 17.0136 86.7037C22.586 78.8094 32.7132 72.1207 42.0995 69.5161C44.1259 68.9538 46.6118 69.3442 48.7195 69.3442C53.8948 69.3442 59.7337 68.5153 64.8337 69.4301C73.6807 71.0172 81.6639 74.4234 90.0068 77.0786C92.8297 77.9771 99.728 80.855 101.113 83.7388C102.774 87.1987 104.984 89.9447 107.34 92.9342C109.353 95.4877 110.279 99.7234 112.305 102.602C114.639 105.917 114.559 110.137 112.088 113.387C109.801 116.396 112.046 120.623 109.17 123.657C104.343 128.748 101.101 137.009 93.0119 137.364C83.2548 137.792 70.4932 136.091 61.7851 140.673C57.5 142.928 50.6389 143.606 45.8886 142.435C41.757 141.415 37.8317 140.393 33.7811 138.997C27.7411 136.916 28.3463 135.197 26.2466 129.673" stroke="black" stroke-width="3" stroke-linecap="round"/>
<path d="M39.1639 97.5433C42.4719 95.9114 44.3505 95.9221 47.7872 96.7698" stroke="black" stroke-width="3" stroke-linecap="round"/>
<path d="M68.9536 94.4497C69.2646 91.9951 77.3386 92.4573 79.1448 92.9028" stroke="black" stroke-width="3" stroke-linecap="round"/>
<path d="M50.9229 106.825C51.6575 108.637 53.2939 110.607 55.4523 110.692C57.2454 110.763 58.2048 108.029 59.5462 108.543C63.8772 110.205 62.6477 107.094 65.8176 106.051" stroke="black" stroke-width="3" stroke-linecap="round"/>
<path d="M57.1946 110.692C57.1946 111.87 56.6511 114.722 57.3252 115.719C58.0391 116.776 61.6605 117.575 62.6386 116.45C65.4193 113.249 64.273 113.058 62.6821 109.918" stroke="black" stroke-width="3" stroke-linecap="round"/>
<path d="M14.272 100.001C14.1157 101.544 13.7377 102.132 14.272 103.713" stroke="#100F0F" stroke-linecap="round"/>
<path d="M18.9745 110.672C23.8592 110.672 21.2932 116.92 24.6176 118.56" stroke="#100F0F" stroke-linecap="round"/>
<path d="M45.309 133.407C47.2515 133.407 47.3917 134.04 48.9666 135.056C49.8671 135.637 51.8013 135.262 52.8331 135.262" stroke="#100F0F" stroke-linecap="round"/>
<path d="M91.3949 129.695C91.5678 126.795 94.2276 127.839 96.0975 127.839" stroke="#100F0F" stroke-linecap="round"/>
<path d="M101.27 99.5371C99.4927 99.7563 102.33 104.392 102.655 104.873C103.196 105.673 102.788 107.393 103.831 107.425C105.912 107.487 105.503 108.426 105.503 110.208" stroke="#100F0F" stroke-linecap="round"/>
<path d="M30.2606 84.2261C30.4568 82.678 33.3819 80.1779 34.493 82.3703" stroke="#100F0F" stroke-linecap="round"/>
<path d="M71.6442 77.7307C72.8328 77.7307 73.8103 78.1947 74.936 78.1947" stroke="#100F0F" stroke-linecap="round"/>
<path d="M75.4061 78.1948C75.9885 78.7694 76.6139 79.1439 77.2872 79.5867" stroke="#100F0F" stroke-linecap="round"/>
<path d="M31.0806 125.408C31.6269 125.773 32.2979 125.91 32.9457 125.787C33.5935 125.665 34.165 125.293 34.535 124.755C34.9049 124.217 35.0432 123.556 34.919 122.917C34.7948 122.278 34.4183 121.713 33.8719 121.347C33.0987 120.83 32.0057 120.489 31.0133 120.415C30.5184 120.378 30.0612 120.409 29.6898 120.51C29.3164 120.611 29.0529 120.776 28.9066 120.989C28.7602 121.202 28.7025 121.504 28.7453 121.884C28.7879 122.261 28.9279 122.692 29.1456 123.132C29.5819 124.014 30.3073 124.89 31.0806 125.408Z" fill="#FEC32C" stroke="black" stroke-width="0.5"/>
<path d="M98.6893 119.071C98.358 119.633 98.2663 120.302 98.4349 120.931C98.6035 121.561 99.0187 122.098 99.5895 122.426C100.16 122.754 100.839 122.844 101.477 122.678C102.115 122.511 102.659 122.102 102.99 121.54C103.459 120.744 103.729 119.645 103.735 118.664C103.738 118.174 103.675 117.727 103.548 117.368C103.42 117.007 103.235 116.759 103.008 116.628C102.781 116.498 102.471 116.463 102.09 116.531C101.711 116.599 101.285 116.767 100.855 117.011C99.9935 117.501 99.1586 118.275 98.6893 119.071Z" fill="#FEC32C" stroke="black" stroke-width="0.5"/>
<path d="M43.8742 77.4948C43.5429 78.0566 43.4512 78.7256 43.6198 79.3547C43.7884 79.9839 44.2036 80.5217 44.7744 80.8493C45.3452 81.1769 46.0242 81.2672 46.6619 81.1008C47.2996 80.9345 47.8437 80.5252 48.1749 79.9634C48.6443 79.1673 48.9137 78.0686 48.9197 77.0871C48.9227 76.5976 48.86 76.1499 48.7325 75.7911C48.6045 75.4307 48.4195 75.1819 48.1928 75.0518C47.9662 74.9217 47.6555 74.886 47.2747 74.9543C46.8956 75.0224 46.4701 75.1899 46.0403 75.4344C45.1784 75.9246 44.3436 76.6987 43.8742 77.4948Z" fill="#FEC32C" stroke="black" stroke-width="0.5"/>
<path d="M59.5087 134.385C59.3259 134.776 59.3077 135.223 59.4588 135.627C59.6099 136.032 59.9181 136.362 60.316 136.543C60.7138 136.724 61.1679 136.742 61.5782 136.593C61.9884 136.444 62.3212 136.14 62.5041 135.749C62.7689 135.183 62.8808 134.421 62.8208 133.754C62.791 133.422 62.7195 133.125 62.6124 132.896C62.5045 132.665 62.3708 132.522 62.2277 132.457C62.0846 132.392 61.8877 132.384 61.6395 132.453C61.393 132.521 61.1182 132.66 60.8425 132.853C60.289 133.241 59.7735 133.819 59.5087 134.385Z" fill="#FEC32C" stroke="black" stroke-width="0.5"/>
<path d="M83.7615 105.377C83.6104 105.854 83.6573 106.371 83.8929 106.815C84.1286 107.259 84.5337 107.593 85.0197 107.743C85.5056 107.892 86.0314 107.845 86.4813 107.613C86.9312 107.38 87.2683 106.982 87.4194 106.505C87.6364 105.82 87.6489 104.935 87.4804 104.185C87.3965 103.811 87.2702 103.482 87.1121 103.234C86.9531 102.984 86.7746 102.835 86.5921 102.779C86.4096 102.722 86.1767 102.745 85.9018 102.861C85.6286 102.976 85.3352 103.175 85.0504 103.435C84.4787 103.958 83.9785 104.692 83.7615 105.377Z" fill="#FEC32C" stroke="black" stroke-width="0.5"/>
<path d="M18.9279 93.6186C19.0112 94.0384 19.2602 94.409 19.6211 94.6485C19.9822 94.888 20.4257 94.9767 20.854 94.8939C21.2822 94.8112 21.6591 94.564 21.9019 94.2078C22.1446 93.8517 22.2335 93.4158 22.1502 92.996C22.0294 92.3874 21.6693 91.7081 21.2266 91.2044C21.0062 90.9536 20.7736 90.7559 20.5516 90.6324C20.3281 90.508 20.1358 90.4697 19.9817 90.4995C19.8276 90.5292 19.6642 90.6363 19.5047 90.8347C19.3463 91.0316 19.2065 91.3013 19.0983 91.6157C18.8809 92.2469 18.8071 93.01 18.9279 93.6186Z" fill="#FEC32C" stroke="black" stroke-width="0.5"/>
<path d="M88.5144 84.6634C88.5977 85.0832 88.8468 85.4538 89.2077 85.6933C89.5687 85.9328 90.0122 86.0215 90.4405 85.9387C90.8688 85.856 91.2456 85.6088 91.4884 85.2526C91.7311 84.8965 91.8201 84.4606 91.7368 84.0408C91.616 83.4322 91.2558 82.7529 90.8132 82.2492C90.5928 81.9984 90.3602 81.8007 90.1382 81.6772C89.9147 81.5528 89.7224 81.5145 89.5683 81.5443C89.4141 81.574 89.2507 81.6811 89.0912 81.8795C88.9329 82.0764 88.793 82.3461 88.6848 82.6605C88.4674 83.2917 88.3936 84.0548 88.5144 84.6634Z" fill="#FEC32C" stroke="black" stroke-width="0.5"/>
<path d="M58.1638 114.033C58.2722 114.578 58.6009 115.06 59.0806 115.371C59.5605 115.682 60.1523 115.796 60.7255 115.685C61.2986 115.574 61.8031 115.249 62.1287 114.782C62.4541 114.316 62.5744 113.747 62.4661 113.201C62.3112 112.421 61.8446 111.555 61.27 110.913C60.9837 110.594 60.6788 110.339 60.3842 110.179C60.0881 110.019 59.8217 109.964 59.5984 110.007C59.375 110.05 59.1494 110.2 58.9366 110.459C58.7248 110.717 58.5397 111.066 58.3968 111.468C58.1099 112.276 58.0089 113.252 58.1638 114.033Z" fill="#FEC32C" stroke="black" stroke-width="0.5"/>
</svg>
