<svg width="138" height="41" viewBox="0 0 138 41" fill="none" xmlns="http://www.w3.org/2000/svg">
<path d="M122.75 21.5C122.75 24.0775 121.102 26.5774 118.017 28.8902C114.936 31.1998 110.462 33.2902 104.912 35.0503C93.8127 38.5694 78.4644 40.75 61.5 40.75C44.5356 40.75 29.1873 38.5694 18.0885 35.0503C12.5376 33.2902 8.06375 31.1998 4.98293 28.8902C1.89773 26.5774 0.25 24.0775 0.25 21.5C0.25 18.9225 1.89773 16.4226 4.98293 14.1098C8.06375 11.8002 12.5376 9.70975 18.0885 7.94973C29.1873 4.43059 44.5356 2.25 61.5 2.25C78.4644 2.25 93.8127 4.43059 104.912 7.94973C110.462 9.70975 114.936 11.8002 118.017 14.1098C121.102 16.4226 122.75 18.9225 122.75 21.5Z" fill="#FCEDB5"/>
<path d="M122.75 21.5C122.75 24.0775 121.102 26.5774 118.017 28.8902C114.936 31.1998 110.462 33.2902 104.912 35.0503C93.8127 38.5694 78.4644 40.75 61.5 40.75C44.5356 40.75 29.1873 38.5694 18.0885 35.0503C12.5376 33.2902 8.06375 31.1998 4.98293 28.8902C1.89773 26.5774 0.25 24.0775 0.25 21.5C0.25 18.9225 1.89773 16.4226 4.98293 14.1098C8.06375 11.8002 12.5376 9.70975 18.0885 7.94973C29.1873 4.43059 44.5356 2.25 61.5 2.25C78.4644 2.25 93.8127 4.43059 104.912 7.94973C110.462 9.70975 114.936 11.8002 118.017 14.1098C121.102 16.4226 122.75 18.9225 122.75 21.5Z" stroke="black" stroke-width="0.5" stroke-linejoin="round"/>
<path d="M122.75 21.5C122.75 24.0775 121.102 26.5774 118.017 28.8902C114.936 31.1998 110.462 33.2902 104.912 35.0503C93.8127 38.5694 78.4644 40.75 61.5 40.75C44.5356 40.75 29.1873 38.5694 18.0885 35.0503C12.5376 33.2902 8.06375 31.1998 4.98293 28.8902C1.89773 26.5774 0.25 24.0775 0.25 21.5C0.25 18.9225 1.89773 16.4226 4.98293 14.1098C8.06375 11.8002 12.5376 9.70975 18.0885 7.94973C29.1873 4.43059 44.5356 2.25 61.5 2.25C78.4644 2.25 93.8127 4.43059 104.912 7.94973C110.462 9.70975 114.936 11.8002 118.017 14.1098C121.102 16.4226 122.75 18.9225 122.75 21.5Z" stroke="black" stroke-opacity="0.2" stroke-width="0.5" stroke-linejoin="round"/>
<path d="M55.6693 31.61C54.5868 31.6684 55.4342 30.3348 55.8784 29.976C56.8075 29.2256 57.1172 30.8356 56.6576 31.4125C55.7037 32.6097 56.4397 30.6164 56.4601 30.4241C56.6314 28.815 55.5991 30.2938 55.5925 30.8563C55.5862 31.3992 56.2472 33.5062 55.4649 32.8322C54.5787 32.0687 54.9722 30.3141 55.6783 29.5704C57.2317 27.9343 57.0083 32.3631 56.3154 33.2328" stroke="#5F333B" stroke-linecap="round"/>
<path d="M67.6693 31.61C66.5868 31.6684 67.4342 30.3348 67.8784 29.976C68.8075 29.2256 69.1172 30.8356 68.6576 31.4125C67.7037 32.6097 68.4397 30.6164 68.4601 30.4241C68.6314 28.815 67.5991 30.2938 67.5925 30.8563C67.5862 31.3992 68.2472 33.5062 67.4649 32.8322C66.5787 32.0687 66.9722 30.3141 67.6783 29.5704C69.2317 27.9343 69.0083 32.3631 68.3154 33.2328" stroke="#5F333B" stroke-linecap="round"/>
<path d="M8.38818 13.5218C8.38818 11.1713 9.81825 9.27197 10.8677 7.32303C11.4809 6.18419 12.1299 4.73532 12.3 3.45934C12.3865 2.81076 12.8645 2.3013 12.95 1.61777C13.0312 0.967897 13.8508 1.1756 14.286 1.29279C15.1103 1.51469 15.8331 1.98868 16.6211 2.20755C17.3493 2.40985 18.1684 2.31712 18.908 2.5205C19.6829 2.73359 20.1112 3.10546 20.9542 3.12232C21.6387 3.13601 22.4155 3.3725 23.0726 3.55563C24.5193 3.95881 26.0817 3.94078 27.4539 4.59076C28.2354 4.96098 29.4623 4.91409 30.0537 5.50553" stroke="#FCEDB5" stroke-linecap="round"/>
<path d="M95.917 5.72218C95.917 4.82739 97.7649 4.3033 98.5409 4.1093C99.8621 3.779 101.222 3.18158 102.585 3.12231C103.394 3.08714 104.059 2.59379 104.848 2.47235C106.087 2.28171 108.27 2.50457 109.362 1.82238C110.311 1.22891 110.819 1.32057 111.408 2.027C112.467 3.29747 112.35 5.57598 113.033 7.02211C113.702 8.43982 114.101 9.96438 114.501 11.4756C114.626 11.946 114.469 12.4255 114.67 12.8838C114.944 13.5114 115.199 14.1261 115.199 14.8217" stroke="#FCEDB5" stroke-linecap="round"/>
<path d="M97.0239 5.61898C97.6305 5.61898 98.1617 5.26918 98.7266 5.09536C99.2856 4.92335 99.8697 4.91571 100.429 4.72919C101.136 4.49363 101.915 4.37494 102.641 4.18361C103.285 4.01361 104.022 3.88353 104.684 3.83941C105.223 3.80348 105.864 3.59688 106.394 3.47325C107.151 3.29668 107.958 3.27409 108.686 3.0192C109.12 2.86753 109.579 2.87117 110.008 2.77021C110.459 2.66403 110.605 3.51451 110.682 3.89067C110.96 5.24907 111.346 6.60237 111.693 7.95877C111.931 8.89122 112.211 9.81785 112.396 10.7599C112.45 11.0377 112.555 11.3401 112.645 11.6094C112.771 11.9882 112.809 12.0487 112.857 11.6314C112.938 10.9272 113.04 10.2871 113.04 9.57356C113.04 8.74326 112.896 8.17603 112.516 7.43516C112.213 6.84273 111.684 6.36404 111.29 5.83135C110.998 5.43715 110.715 5.0588 110.418 4.65962C110.316 4.5226 110.22 4.39929 110.129 4.25684C110.057 4.14429 109.679 3.71497 109.679 3.8211C109.679 5.00021 109.996 6.25424 110.528 7.31798C110.68 7.62262 110.815 7.96067 110.894 8.29198C110.992 8.69934 111.22 9.14608 111.26 9.55892C111.271 9.67024 111.436 10.2119 111.414 10.0276C111.29 8.96295 110.919 7.88219 110.535 6.88591C110.325 6.34047 110.17 5.77006 109.975 5.22352C109.851 4.87526 109.69 4.57178 109.609 4.20924C109.555 3.96426 109.311 3.78676 109.137 3.65633C108.889 3.47024 107.98 3.83943 107.775 3.87603C107.268 3.96612 106.755 4.00796 106.251 4.10305C104.758 4.38504 103.263 4.59123 101.762 4.8244C101.272 4.90047 99.6764 4.90529 99.5981 5.68855C99.5241 6.4284 100.817 6.6472 101.286 6.77606C102.611 7.13981 103.966 7.25584 105.292 7.58162C105.788 7.70343 106.272 7.79152 106.731 8.02468C107.083 8.20357 107.403 8.43847 107.753 8.62153C108.118 8.81288 108.513 8.92835 108.899 9.07192C109.321 9.22912 109.223 8.83972 109.203 8.50436C109.154 7.70863 108.918 6.83555 108.657 6.08034C108.481 5.57148 108.101 5.76639 107.602 5.74347C106.202 5.6791 104.704 5.43411 103.318 5.75812C102.897 5.85659 102.493 6.01288 102.077 6.13161C102.053 6.13857 101.628 6.25476 101.733 6.27807C102.504 6.44934 103.292 6.56741 104.069 6.71015C104.575 6.80317 105.12 6.9257 105.636 6.93717C106.06 6.94659 106.775 7.25343 107.167 7.0397C107.384 6.92124 107.255 6.16108 107.108 6.01443" stroke="#FCEDB5" stroke-width="2" stroke-linecap="round"/>
<path d="M10.0232 11.3531C8.96279 12.546 11.6011 8.5634 12.1616 7.06897C12.5183 6.11756 12.7104 5.12929 13.1063 4.20555C13.338 3.66487 13.4725 3.04453 13.6775 2.48824C13.7421 2.31272 13.8716 2.12573 14.0766 2.12573C14.2543 2.12573 14.4653 2.28661 14.6149 2.3674C15.2593 2.71555 15.9349 3.09234 16.6361 3.31211C17.1065 3.45955 17.5528 3.6039 18.0349 3.72221C18.4788 3.83118 18.9156 3.96747 19.3677 4.04078C20.0683 4.15439 20.7896 4.13956 21.4805 4.30076C22.2255 4.4746 22.9907 4.50113 23.7434 4.63397C24.7188 4.8061 25.6762 5.01178 26.669 5.02576C26.8375 5.02814 27.0261 5.04879 27.189 5.09533C27.288 5.12363 26.7801 5.27866 26.7423 5.2894C24.5599 5.90828 22.3631 5.96897 20.1183 6.11327C18.5497 6.21411 17.1984 6.33839 15.8086 7.10558C14.9543 7.57716 14.0449 7.93953 13.1905 8.42012C13.0229 8.51437 12.8051 9.19284 12.806 9.19273C13.0983 9.1562 13.6335 8.46878 13.8166 8.25534C14.3625 7.61926 14.7065 6.94345 14.9664 6.15355C15.2159 5.39533 15.46 4.46354 15.4278 3.6563C15.4222 3.51707 15.295 4.08843 15.285 4.125C15.0018 5.15137 14.9796 6.12924 14.9005 7.1898C14.8672 7.63554 14.837 8.07909 14.8346 8.5263C14.8337 8.67682 14.791 9.00049 14.9151 9.13414C15.1475 9.38439 16.4973 8.82904 16.7276 8.76797C17.9184 8.45235 21.3851 7.23648 20.1659 7.41316C19.1585 7.55917 18.1913 7.91158 17.2037 8.14549C16.5034 8.31134 15.4085 8.65053 14.6661 8.43843C14.3803 8.35675 14.5066 7.41053 14.516 7.24473C14.5656 6.3677 14.7965 5.55217 15.3216 4.84268C15.8352 4.14852 16.3323 3.77206 17.1304 4.25315C17.7257 4.61194 19.6828 5.48925 18.7599 6.43184C18.1421 7.0627 16.9081 7.24261 16.0795 7.35458C15.9408 7.37332 14.7687 7.61333 14.7174 7.37654C14.536 6.53937 14.9179 5.24036 15.761 4.86099C15.8775 4.80855 16.2684 4.61506 16.3871 4.6596C16.5394 4.71672 15.3312 5.93777 15.2666 5.99244C14.5069 6.63586 13.6551 7.17238 12.8353 7.73539C12.7495 7.79431 12.6265 8.03186 12.5936 7.93312C12.5304 7.74354 12.6083 7.36778 12.6376 7.18614C12.743 6.53191 13.0839 5.97616 13.2857 5.35531C13.3716 5.09105 13.5106 4.72717 13.7214 4.53144C13.9121 4.35439 14.1012 4.30631 14.3073 4.16894" stroke="#FCEDB5" stroke-width="2" stroke-linecap="round"/>
<path d="M13.5164 8.91443C13.0878 8.9303 12.8102 9.29976 12.6083 9.65408C12.4815 9.87681 12.3673 10.3788 12.1323 10.4963" stroke="#FCEDB5" stroke-width="2" stroke-linecap="round"/>
<path d="M50.7095 35.8621C51.1717 36.3756 51.1577 36.9229 51.7802 37.3446C52.3224 37.7119 52.9245 38.1506 53.5716 38.3124C54.7747 38.6132 56.4528 38.6546 57.5663 38.1271C58.5146 37.6779 59.5882 37.4569 60.5315 36.9328C60.7837 36.7927 61.0875 36.6239 61.3139 36.4592C61.9483 35.9979 62.9666 37.0219 63.5275 37.1902C64.6638 37.5311 65.2757 37.9745 66.4926 38.0962C67.5397 38.2009 68.6426 38.4244 69.7048 38.2609C70.6845 38.1102 71.3805 37.4694 72.2067 37.0564C72.7939 36.7627 73.4443 35.6768 74.0599 35.6768" stroke="#5F333B" stroke-linecap="round"/>
<path d="M66.2495 34.2469C66.7293 34.2469 67.2602 34.3513 67.7214 34.2489C67.8814 34.2133 67.9488 34.1458 68.1006 34.1133C68.1917 34.0937 68.2669 34.0342 68.3561 34.0072C68.4124 33.9901 68.5088 33.9776 68.5565 33.9482C68.7746 33.814 68.9997 33.6322 69.2364 33.5375C69.3468 33.4934 69.4968 33.3705 69.5508 33.2624C69.5535 33.2572 69.1759 33.3947 69.1323 33.4157C68.8922 33.5313 68.6692 33.6208 68.415 33.7085C68.261 33.7616 67.7893 33.8895 67.9473 33.85C68.1528 33.7986 68.3297 33.7708 68.5231 33.6849C68.7325 33.5918 68.0672 33.7309 67.8393 33.7537C67.8186 33.7557 67.5931 33.8046 67.6486 33.8205C67.7831 33.8589 68.2402 33.872 68.3639 33.7792C68.5116 33.6684 68.2609 33.714 68.1831 33.732C68.0707 33.7581 67.7258 33.7871 67.8412 33.7871C68.1913 33.7871 68.8459 33.6196 69.0596 33.3449C69.2674 33.0777 69.6312 32.8599 69.7866 32.5491" stroke="#FCEDB5" stroke-width="0.5" stroke-linecap="round"/>
<path d="M55.6738 33.8225C55.895 33.8225 56.1862 33.8807 56.397 33.8205C56.5171 33.7862 56.6657 33.7056 56.79 33.683C56.8869 33.6653 57.5346 33.2427 57.4778 33.1858" stroke="#FCEDB5" stroke-width="0.5" stroke-linecap="round"/>
<path d="M55.4614 33.8225C55.5671 33.7286 55.771 33.7537 55.9016 33.7518C56.081 33.7492 56.3507 33.7285 56.5049 33.628C56.6887 33.5081 56.8784 33.3877 57.0531 33.2566" stroke="#FCEDB5" stroke-width="0.5" stroke-linecap="round"/>
<path d="M57.4068 32.832C57.1911 32.8455 57.0573 33.2523 56.9116 33.398" stroke="#FCEDB5" stroke-width="0.5" stroke-linecap="round"/>
<path d="M94.9238 6.29022C96.3765 5.74968 97.6721 4.78481 99.1079 4.14868C99.6707 3.89935 100.238 3.61358 100.827 3.42883C101.741 3.14187 102.7 2.99639 103.616 2.69099C104.531 2.38602 105.474 2.10908 106.419 1.94864C107.191 1.81753 107.959 1.64742 108.727 1.50774C109.115 1.43711 109.507 1.26929 109.906 1.26929" stroke="#FCEDB5" stroke-width="0.5" stroke-linecap="round"/>
<path d="M100.269 4.18463C100.589 4.15262 100.922 3.88866 101.204 3.73922C101.568 3.54695 101.965 3.36109 102.347 3.20833C102.794 3.02967 103.266 2.95241 103.715 2.78992C104.465 2.51826 105.237 2.50237 106.018 2.32202" stroke="#FCEDB5" stroke-width="0.5" stroke-linecap="round"/>
<path d="M12.9694 1.26929C12.6637 1.26929 12.4982 2.05627 12.4835 2.32206C12.4482 2.95608 12.0772 3.65897 11.8851 4.25665C11.1572 6.52113 10.3209 8.76338 9.29814 10.9422C9.01644 11.5424 8.67056 12.1067 8.33534 12.6789C8.06982 13.1321 7.88846 13.3514 8.11039 12.6789C8.25656 12.2359 8.51799 11.8444 8.72226 11.4281C9.45301 9.93905 9.97646 8.34772 10.6658 6.84361C11.151 5.78512 11.559 4.73787 12.0785 3.69877C12.3029 3.25007 12.6851 2.81586 12.8074 2.32656C12.8523 2.14699 12.9821 1.93563 13.1313 1.83617" stroke="#FCEDB5" stroke-width="0.5" stroke-linecap="round"/>
<path d="M12.9694 1.26934C12.4352 1.83322 12.2681 2.72749 12.1191 3.44238C11.9984 4.02193 11.7177 4.55654 11.5477 5.12052C11.1842 6.32681 10.7324 7.51252 10.36 8.71976C10.1947 9.25545 9.9717 9.7613 9.8876 10.3079C9.87036 10.42 9.73467 10.7226 9.73013 10.6094C9.69708 9.78291 9.73143 8.90353 9.93259 8.09889C10.0863 7.48386 10.3015 6.81728 10.54 6.22729C10.7242 5.77147 11.0565 5.37302 11.2058 4.91357C11.3497 4.47101 11.6958 4.10907 11.8267 3.66733C11.9327 3.30955 12.1671 2.92596 12.3621 2.60106C12.4913 2.38571 12.6938 2.10834 12.7895 1.88121C12.8602 1.71337 12.764 1.54783 12.5735 1.60227C12.485 1.62755 12.254 1.93326 12.1956 2.01618C11.7909 2.59133 11.5143 3.40057 11.2733 4.06325C10.9905 4.84108 10.7116 5.60345 10.54 6.41625C10.4267 6.95272 10.2528 7.47418 10.1305 8.00891C10.0421 8.39568 9.94328 8.77808 9.83811 9.16067C9.79035 9.33443 9.65085 10.3663 9.46919 10.4654C9.29763 10.559 9.47472 10.0728 9.50968 9.88051C9.60803 9.33959 9.76719 8.8127 9.92809 8.28785C10.1744 7.48442 10.4781 6.69168 10.6659 5.87186C10.8358 5.13044 11.0293 4.48927 11.2688 3.77081C11.4399 3.2574 11.6045 2.7093 11.9797 2.30412C12.0918 2.18299 12.1405 2.05926 12.2046 1.9127C12.2856 1.7276 12.451 1.66859 12.5465 1.51229C12.7874 1.11815 13.5691 1.26934 13.9817 1.26934C14.9749 1.26934 15.9451 1.2185 16.8566 1.67425C17.2601 1.87597 17.5828 1.94813 18.0309 2.04317C18.4841 2.13932 19.0865 2.14162 19.4886 2.35811C19.8656 2.56115 20.4106 2.64211 20.8248 2.79002C21.7757 3.12964 22.816 3.3559 23.8032 3.55485C24.9724 3.79052 26.155 4.01188 27.2809 4.38718C27.5771 4.4859 27.8885 4.53681 28.1942 4.59413C28.4204 4.63655 28.6175 4.82076 28.8421 4.83258C29.2053 4.8517 29.5228 5.11001 29.8949 5.15651" stroke="#FCEDB5" stroke-width="0.5" stroke-linecap="round"/>
<path d="M117.632 14.5914C117.969 12.2341 119.8 10.501 121.476 8.97748C122.624 7.9339 124.734 7.65827 126.219 7.51336C129.113 7.23103 132.026 8.00006 134.123 9.99248C135.752 11.54 135.74 13.5146 135.74 15.5974C135.74 17.1753 135.347 18.4718 133.629 18.4718C131.71 18.4718 130.63 17.7495 130.234 15.9657C130.177 15.7077 129.966 15.5667 129.911 15.319C129.874 15.153 129.659 14.4272 129.56 14.304C129.254 13.9208 129.21 13.3847 128.635 13.289C126.92 13.0031 125.801 13.3861 124.18 14.1064C123.353 14.474 122.623 15.9223 122.195 16.6933C121.857 17.3008 121.674 18.0793 121.674 18.7951" stroke="#FCEDB5" stroke-linecap="round"/>
<path d="M119.249 15.8849C119.32 16.1908 120.844 14.2771 121.081 14.0166C121.669 13.3702 122.253 12.7551 122.895 12.1662C123.116 11.964 124.925 10.6771 123.821 11.3039C122.517 12.044 121.037 13.4189 120.308 14.7442C119.734 15.7878 119.895 17.1281 119.895 18.2742C119.895 18.3523 119.917 17.5573 119.967 17.376C120.075 16.9903 120.341 16.6901 120.506 16.334C120.889 15.5094 122.015 14.5143 122.743 13.9447C123.338 13.4787 123.958 12.983 124.593 12.5704C125.191 12.1819 125.804 12.1224 126.363 11.8429" stroke="#FCEDB5" stroke-width="2" stroke-linecap="round"/>
<path d="M119.895 18.7952C121.155 18.0256 121.825 15.6728 122.446 14.4298C122.611 14.1005 121.36 14.3997 121.261 14.4298C120.516 14.6547 120.012 14.9674 119.392 15.4537C118.798 15.9201 119.118 14.381 119.249 14.0884C119.362 13.8342 119.729 13.5836 119.895 13.3339C120.249 12.8026 121.024 11.526 120.093 12.7231C119.715 13.2086 119.193 13.6533 118.961 14.2322C118.952 14.2546 119.36 13.2197 119.536 12.9207C120.326 11.5756 121.726 10.7489 122.806 9.66915C123.832 8.64252 125.591 8.7467 126.973 8.48349C127.857 8.31522 128.944 8.09649 129.812 8.44756C130.342 8.66222 130.894 9.19174 131.536 9.25596C132.563 9.35867 133.525 10.6201 134.087 11.3937C134.651 12.1691 134.932 13.6265 134.932 14.5914C134.932 15.1723 134.932 15.7532 134.932 16.334C134.932 17.0049 134.038 17.2495 133.548 17.5376C133.323 17.6704 133.525 17.8251 133.153 17.8251C132.565 17.8251 132.441 17.6136 132.075 17.1783C131.417 16.3949 131.078 15.9079 130.926 14.9148C130.866 14.5275 130.77 14.1262 130.728 13.7471C130.681 13.3261 130.312 13.0678 130.243 12.6513C130.212 12.4651 128.745 12.3279 128.5 12.3279C127.556 12.3279 126.449 12.6112 125.877 11.6991C125.723 11.4528 124.814 10.1914 125.267 10.0284C125.561 9.92255 125.865 9.86271 126.165 9.77694C126.911 9.56367 128.023 9.74871 128.716 9.99251C129.268 10.1868 129.823 10.5905 130.207 11.0345C130.423 11.2844 131.754 12.1556 131.231 12.1662C130.677 12.1775 127.462 11.5308 127.889 11.1602C128.277 10.8244 129.36 10.4131 129.83 10.8548C130.344 11.3386 130.983 11.7833 131.429 12.3279C131.946 12.9601 132.245 13.9459 132.596 14.6813C132.65 14.7937 132.984 16.2002 133.243 16.1005C133.533 15.9888 132.27 12.4268 132.021 11.9686C131.769 11.5036 130.586 10.7135 130.926 10.1362C131.329 9.4496 132.127 11.4574 132.183 11.6812" stroke="#FCEDB5" stroke-width="2" stroke-linecap="round"/>
<path d="M134.123 11.0344C134.123 12.0069 134.007 13.4267 134.608 14.268C135.436 15.4266 133.261 11.7567 132.506 10.5493" stroke="#FCEDB5" stroke-width="2" stroke-linecap="round"/>
<path d="M131.775 14.3001C131.51 14.3001 131.081 14.3896 130.877 14.2015C130.654 13.996 130.297 13.8356 130.02 13.7186C129.417 13.4636 128.803 12.8966 128.271 12.4829C127.925 12.2137 127.614 11.821 127.284 11.4912C126.941 11.1481 126.41 10.9632 125.981 10.7488" stroke="#FCEDB5" stroke-width="2" stroke-linecap="round"/>
<path d="M130.747 14.3937C130.322 14.3512 129.891 14.1471 129.501 13.9887C129.214 13.872 129.148 13.7202 128.919 13.5993C128.526 13.3908 128.215 13.1398 127.756 13.0126C126.662 12.7086 125.298 13.2675 124.423 13.9576C123.749 14.4894 122.757 14.9948 122.357 15.7955C122.058 16.3934 121.789 17.0256 121.536 17.6387C121.359 18.0699 121.272 18.5615 121.168 19.0146C121.097 19.3197 120.934 19.5943 120.934 19.9076" stroke="#FCEDB5" stroke-width="2" stroke-linecap="round"/>
<path d="M121.588 19.5337C121.588 18.7454 121.563 18.0623 121.775 17.3115C121.917 16.8118 122.088 16.0732 122.45 15.6812C122.795 15.3073 122.861 14.7513 123.271 14.4144C123.893 13.9021 124.4 13.4553 125.14 13.0852" stroke="#FCEDB5" stroke-width="2" stroke-linecap="round"/>
<path d="M124.988 18.3447V18.1292" stroke="#F3D054" stroke-width="0.5" stroke-linecap="round"/>
<path d="M125.492 16.6919C125.858 15.9806 126.094 15.2311 126.825 14.8076C127.365 14.4951 128.102 14.4637 128.725 14.624C129.278 14.766 129.602 15.513 129.947 15.9015C130.279 16.2749 130.444 16.7836 130.701 17.1949C130.86 17.4486 131.04 17.6583 131.204 17.9135C131.44 18.2805 131.806 18.4595 132.135 18.7359C132.239 18.824 132.624 18.9808 132.502 18.9196C132.254 18.7957 132.072 18.6981 131.839 18.5164C131.466 18.2244 131.148 17.8861 130.785 17.5862C130.606 17.438 130.359 17.351 130.194 17.1949C129.741 16.7654 129.425 16.3184 129.101 15.7737C128.841 15.3384 128.719 14.8332 128.222 14.64C127.429 14.3316 128.122 14.1897 128.57 14.3964C128.814 14.5092 129.08 14.7467 129.268 14.9354C129.416 15.0834 129.549 15.3163 129.695 15.4304C129.989 15.6589 130.314 16.2876 130.382 16.66C130.485 17.2239 130.683 17.8356 130.969 18.3447C131.414 19.1357 129.388 15.093 129.907 15.8376C130.32 16.4298 130.701 17.0325 131.2 17.5463C131.392 17.7433 131.772 18.1208 131.887 18.3806C132.049 18.7456 132.564 18.9815 132.893 19.0992C133.543 19.3314 134.365 19.207 135.049 19.207" stroke="#F3D054" stroke-width="0.5" stroke-linecap="round"/>
<path d="M123.52 17.5726C123.52 16.6685 123.709 16.3748 124.349 15.8359C124.726 15.5173 125.097 15.1868 125.456 14.848C125.667 14.6489 126.003 14.5174 126.261 14.4018C126.631 14.2355 127.215 13.8442 127.623 13.8442C128.158 13.8442 128.909 13.5771 129.36 14.0274C129.65 14.3181 130.28 14.641 130.403 15.071C130.492 15.3799 130.917 15.8051 131.12 16.0669C131.406 16.4343 131.578 16.9182 131.821 17.3137C131.885 17.4177 131.907 17.5711 131.965 17.6842C132.096 17.9414 131.776 17.3419 131.762 17.3217C131.364 16.7576 131.021 16.232 130.69 15.6367C130.491 15.2787 130.187 14.8978 129.885 14.6169C129.658 14.4047 129.414 14.4573 129.145 14.37C128.966 14.3122 128.34 14.0188 128.786 14.2505C129.054 14.3895 129.346 14.6429 129.559 14.8639C129.756 15.0692 129.73 15.3485 129.973 15.5491C130.366 15.8725 130.731 16.4513 131.045 16.8596C131.576 17.5502 132.068 18.3051 132.662 18.8991C133.228 19.4647 134.44 19.5992 135.048 18.9907C135.159 18.8797 135.402 18.7185 135.247 18.7915C134.821 18.992 134.189 18.8632 133.726 18.8632C133.409 18.8632 133.311 18.8107 133.056 18.7358C132.818 18.6658 132.717 18.5047 132.499 18.4171C132.369 18.3651 131.856 17.5944 131.837 17.4292C131.816 17.2392 131.595 17.0543 131.535 16.8556C131.501 16.7457 131.451 16.7037 131.371 16.6325C131.247 16.5216 131.29 16.319 131.224 16.1784C131.179 16.0812 130.988 15.5938 130.937 15.565C130.835 15.5064 130.712 15.2847 130.686 15.1706C130.629 14.9113 130.311 14.7466 130.192 14.5293C130.004 14.1846 129.297 13.5796 128.898 13.5573C128.748 13.549 128.675 13.4204 128.539 13.4139C128.204 13.398 127.854 13.3948 127.519 13.4139C126.785 13.4559 126.097 13.7645 125.472 14.131C125.194 14.2938 124.926 14.48 124.651 14.6488C124.327 14.848 124.176 15.173 123.894 15.4216C123.728 15.5684 123.622 15.7958 123.576 16.0111C123.505 16.3428 123.428 16.3391 123.564 16.0669C124.186 14.8229 125.453 14.0976 126.77 13.9159C127.281 13.8455 127.755 13.7785 128.252 14.0274C128.864 14.3332 129.279 14.8651 129.83 15.2782" stroke="#F3D054" stroke-width="0.5" stroke-linecap="round"/>
<path d="M128.181 14.4178C128.222 14.1679 128.486 14.8225 128.651 15.0153C128.907 15.3163 129.147 15.6454 129.431 15.9196C129.957 16.4274 130.454 16.9677 130.949 17.501C131.253 17.8286 131.726 18.0098 132.053 18.3216C132.403 18.6558 132.819 19.0608 133.271 19.2377C133.473 19.3167 134.611 19.3662 133.833 19.1541C133.548 19.0763 133.211 19.1517 132.969 18.9748C132.689 18.7704 132.305 18.4752 132.124 18.1821C131.899 17.8166 131.67 17.4538 131.479 17.0708C131.39 16.8929 131.133 16.4705 131.447 16.8597C131.573 17.0157 131.713 17.201 131.853 17.3416C132.226 17.7144 132.618 18.1112 133.021 18.4331C133.552 18.8582 134.648 18.7515 135.279 18.7199C136.056 18.6811 136.75 18.0272 137.036 17.3974C137.398 16.6014 137.502 15.788 137.502 14.9197" stroke="#F3D054" stroke-width="0.5" stroke-linecap="round"/>
<path d="M124.727 9.9607C124.623 9.97221 123.9 10.1701 123.877 10.1197C123.787 9.91801 124.139 9.6381 124.277 9.55176" stroke="#FCEDB5" stroke-width="0.5" stroke-linecap="round"/>
<path d="M133.969 9.9197C134.354 9.63963 134.724 10.3179 134.896 10.5513C135.026 10.7289 135.201 10.9122 135.3 11.1056C135.386 11.2728 135.446 11.5577 135.564 11.6963C135.657 11.8057 135.636 11.9522 135.718 12.0689C135.781 12.1575 135.786 12.2261 135.818 12.3234C135.872 12.4859 136.001 12.6599 136.013 12.8323C136.022 12.9414 136.09 13.0001 136.095 13.1095C136.099 13.1873 136.125 13.3188 136.145 13.3957C136.174 13.5066 136.242 13.6201 136.291 13.7229C136.325 13.7959 136.298 13.8889 136.332 13.9683C136.405 14.1405 136.422 14.4379 136.422 14.6226C136.422 14.8407 136.422 15.0588 136.422 15.2769C136.422 15.7501 136.259 16.2016 136.259 16.6673C136.259 16.8238 136.148 16.9719 136.136 17.1262C136.122 17.3136 136.016 17.4619 135.932 17.6261C135.848 17.7893 135.736 17.9361 135.655 18.0986C135.614 18.18 135.605 18.1698 135.532 18.2304C135.225 18.4865 135.165 17.926 135.114 17.7306" stroke="#FCEDB5" stroke-width="0.5" stroke-linecap="round"/>
<path d="M133.723 19.4891C134.055 19.3009 134.545 19.3382 134.848 19.1029C134.938 19.0327 135.177 18.9988 135.291 18.9575C135.39 18.9212 135.525 18.8903 135.622 18.8348C135.722 18.7779 135.809 18.7196 135.922 18.6803C135.997 18.6546 136.345 18.4049 136.209 18.4349C136.041 18.4718 135.837 18.6158 135.695 18.7121C135.543 18.8158 135.382 18.8825 135.214 18.9665C135.165 18.991 134.925 19.0867 135.014 19.0142C135.158 18.8961 135.289 18.825 135.457 18.7348C135.597 18.6591 135.797 18.5604 135.911 18.4463C135.932 18.4256 136.316 18.1601 136.268 18.1464C136.085 18.0941 135.692 18.4289 135.554 18.5394C135.543 18.5481 135.05 18.7263 135.382 18.653C135.77 18.5673 136.157 18.4626 136.545 18.3849" stroke="#F3D054" stroke-width="0.5" stroke-linecap="round"/>
<path d="M129.961 15.3179C129.97 15.1557 130.013 15.0548 130.106 15.2406C130.191 15.4098 130.345 15.7457 130.533 15.8086" stroke="#F3D054" stroke-width="0.5" stroke-linecap="round"/>
<path d="M135.646 19.0392C135.646 18.8802 135.84 18.6473 135.932 18.4985C135.982 18.4161 135.985 18.2723 136.045 18.2122C136.078 18.1799 136.248 18.0254 136.257 17.9941C136.301 17.8399 136.423 17.6749 136.522 17.5466C136.59 17.4596 136.601 17.3603 136.629 17.2626C136.661 17.1516 136.762 17.0295 136.8 16.9036C136.995 16.2432 137.118 15.5635 137.118 14.8475C137.118 14.5891 137.107 14.3507 137.075 14.1091C137.057 13.9805 137.012 13.8579 136.993 13.7229C136.958 13.4789 136.871 13.2627 136.831 13.0277" stroke="#F3D054" stroke-width="0.5" stroke-linecap="round"/>
<path d="M116.639 14.2446C116.704 13.9835 116.957 13.6502 117.161 13.4838C117.266 13.3978 117.32 13.2443 117.397 13.1339C117.468 13.0305 117.561 12.9447 117.621 12.8351C117.803 12.5021 118.182 12.234 118.435 11.9538C118.651 11.7145 118.884 11.5376 119.128 11.3332C119.247 11.2331 119.403 11.0731 119.551 11.0361" stroke="#FCEDB5" stroke-width="0.5" stroke-linecap="round"/>
<path d="M116.877 13.9476C117.094 13.3071 117.552 12.8941 117.894 12.3368C118.044 12.0914 118.415 11.8498 118.656 11.7096C118.984 11.5194 119.389 11.4513 119.699 11.2441" stroke="#FCEDB5" stroke-width="0.5" stroke-linecap="round"/>
<path d="M116.877 13.6802C116.927 13.5287 117.139 13.3855 117.243 13.2692C117.396 13.0983 117.541 12.9218 117.674 12.7344C117.822 12.525 117.977 12.3473 118.125 12.137C118.474 11.6374 118.897 11.2617 119.432 10.9767" stroke="#FCEDB5" stroke-width="0.5" stroke-linecap="round"/>
<path d="M118.986 11.4223C118.857 11.4366 118.676 11.6835 118.585 11.764C118.559 11.7874 118.3 11.9675 118.438 11.901C118.867 11.6943 119.272 11.4281 119.699 11.2144" stroke="#FCEDB5" stroke-width="0.5" stroke-linecap="round"/>
<path d="M108.886 4.08435C108.759 4.35594 108.579 4.79394 108.707 5.10104C108.774 5.25923 108.919 4.87293 108.938 4.83366C109.014 4.67744 109.162 4.48245 109.169 4.30221C109.175 4.17891 109.122 4.55173 109.15 4.67192C109.342 5.49815 109.871 6.26954 110.328 6.96937C110.596 7.37931 110.888 7.78752 110.995 8.27324C111.084 8.67837 111.173 9.10614 111.173 9.52264C111.173 9.66932 111.232 9.84448 111.036 9.84448C110.664 9.84448 110.577 9.33257 110.356 9.11993C110.202 8.97176 110.133 9.55364 110.133 9.65468C110.133 9.69763 110.152 9.76135 110.181 9.67944C110.253 9.48176 110.308 9.27607 110.371 9.07537" stroke="#FCEDB5" stroke-width="0.5" stroke-linecap="round"/>
<path d="M111.411 2.33154C111.573 2.69843 111.743 3.02994 111.812 3.4291C111.869 3.76077 111.928 4.09115 111.952 4.42764C111.967 4.63608 111.975 4.84421 111.975 5.05316C111.975 5.08892 111.979 5.19599 111.975 5.16044C111.957 5.00132 111.936 4.84466 111.907 4.68676C111.844 4.33392 111.766 3.97987 111.678 3.63211C111.667 3.58817 111.648 3.56476 111.648 3.51988" stroke="#FCEDB5" stroke-width="0.5" stroke-linecap="round"/>
<path d="M55.7488 2.25415C55.6033 2.8119 55.0395 3.13851 54.829 3.66495C54.5176 4.44336 54.2243 5.23107 53.9204 6.01252" stroke="#5F333B" stroke-linecap="round"/>
<path d="M61.0309 2.35583C60.8505 3.61858 60.2183 4.80153 60.2183 6.11421" stroke="#5F333B" stroke-linecap="round"/>
<path d="M66.1099 2.25415C65.3237 3.30232 65.5004 5.00687 65.5004 6.21568" stroke="#5F333B" stroke-linecap="round"/>
<path d="M11.6641 9.87255C12.5992 9.37747 13.4076 8.7069 14.3615 8.2981C15.2518 7.91654 16.1023 7.35856 17.0251 7.05095C18.025 6.71765 18.9981 6.56081 20.0329 6.31733C20.4713 6.21418 21.0706 6.28325 21.4663 6.06339C21.9534 5.79278 22.6123 5.97393 23.0859 5.75865C23.1284 5.73934 23.5035 5.69033 23.5035 5.68529C23.5035 5.48624 23.0803 5.37909 22.9618 5.30155C22.5111 5.00686 22.0809 4.92402 21.5735 4.69209C21.0184 4.43832 20.0998 4.48893 19.4968 4.48893C18.873 4.48893 17.9476 4.43717 17.4088 4.06005C16.5559 3.46301 14.4815 2.42939 13.848 3.82304C13.3612 4.8939 13.5295 6.10905 13.1426 7.2146C13.0267 7.54574 13.088 7.71305 12.8266 7.99901C12.632 8.21176 12.4777 8.58164 12.3187 8.8342C12.218 8.99413 12.1112 9.15892 12.0478 9.34209C11.8441 9.93042 11.8672 8.81727 11.8672 8.68748C11.8672 7.50121 12.1881 6.53264 12.5783 5.45956C12.725 5.05606 12.8707 4.67153 13.0636 4.28578C13.1708 4.07138 13.4954 3.51194 13.6956 3.39415C13.7791 3.34502 13.7834 3.2951 13.848 3.2305C13.8869 3.19161 13.7141 3.82504 13.6956 3.87947C13.4513 4.5985 13.1582 5.331 12.8266 6.0126C12.5558 6.56917 12.632 7.2705 12.4541 7.86357C12.3117 8.33815 11.8672 9.7247 11.8672 9.22923C11.8672 8.06987 11.8982 7.21903 12.5218 6.25526C12.7148 5.95702 12.8386 5.60762 13.0354 5.30155C13.2448 4.97575 13.5573 4.7542 13.7351 4.39864C13.9585 3.95179 14.3051 3.42072 14.3051 2.92012C14.3051 2.20988 14.7641 2.40847 15.1177 2.76211C15.4404 3.08484 15.9979 2.98477 16.3366 3.27C16.5631 3.4607 16.8966 3.33786 17.1718 3.39415C17.4883 3.45888 17.8694 3.54847 18.165 3.67631C18.9705 4.0246 19.8915 4.16375 20.7045 4.48893" stroke="#5F333B" stroke-linecap="round"/>
<path d="M14.4939 3.42346C14.383 4.4026 14.1936 5.37769 13.9784 6.33863C13.8612 6.86184 13.7039 7.38437 13.6383 7.91809C13.6111 8.13974 13.746 7.48355 13.8248 7.2746C14.005 6.79695 14.2652 6.36613 14.4939 5.91208C14.6554 5.59134 14.7751 5.2531 14.8948 4.91517C14.952 4.75373 14.9882 4.57442 15.0642 4.42037C15.0941 4.35989 15.1467 4.33578 15.1995 4.2985C15.2382 4.27118 15.3766 4.22432 15.3908 4.17785C15.4189 4.0868 15.3989 3.89424 15.3153 3.83295C15.3045 3.82503 15.2901 3.81896 15.2763 3.8232C15.2113 3.84318 15.394 3.89402 15.4591 3.91339C16.0189 4.07987 16.5964 4.18879 17.175 4.26316C17.576 4.31469 17.9846 4.33485 18.3791 4.42768C18.701 4.50341 19.019 4.58736 19.3444 4.64827C19.8662 4.74596 20.3966 4.89287 20.9238 4.95417C21.0839 4.97279 21.245 5.00091 21.4016 5.04192C21.4791 5.06222 21.5626 5.22709 21.4649 5.26616C21.3182 5.32484 21.1703 5.35463 21.0164 5.38559C20.4643 5.49669 19.906 5.5759 19.3529 5.68296C18.8415 5.78194 18.3525 5.92802 17.8624 6.10098C17.3226 6.29151 16.7613 6.43756 16.2074 6.58115C15.9459 6.64896 15.6831 6.71183 15.425 6.79199C15.3076 6.82842 15.1713 6.85845 15.0667 6.92605C14.9517 7.00028 14.8877 7.13206 14.7961 7.23073C14.6568 7.38075 14.5052 7.51798 14.3671 7.66947C14.2193 7.83155 14.0706 7.9783 13.9138 8.1277C13.8648 8.1743 13.6507 8.44683 13.6603 8.27395C13.6935 7.67665 13.9828 7.10892 14.2843 6.60431C14.6255 6.03312 15.1146 5.64944 15.5932 5.20644C15.779 5.03445 15.9693 4.86189 16.1038 4.64461C16.255 4.40044 15.9328 4.91741 15.9259 4.92979C15.7731 5.20092 15.6547 5.4761 15.5444 5.76583C15.4798 5.93544 15.3779 6.11046 15.3531 6.29232C15.3464 6.34144 15.3028 6.45794 15.3494 6.441C15.3802 6.42981 15.4929 6.33034 15.5005 6.32522C15.686 6.20159 15.8807 6.09268 16.0758 5.9852C16.2554 5.88625 16.5909 5.77234 16.6534 5.54403C16.6833 5.43504 16.7325 5.32815 16.7497 5.21619C16.7563 5.17341 16.7426 5.11537 16.7753 5.08092C16.8182 5.03576 16.8994 5.03321 16.9557 5.02242C17.2082 4.97398 17.4615 4.95693 17.7186 4.96392C18.068 4.97342 18.4144 5.00988 18.7545 5.09188C18.9389 5.13634 19.1191 5.18964 19.3054 5.2235C19.3419 5.23016 19.2478 5.27335 19.2127 5.28566C18.9481 5.37853 18.6746 5.45682 18.4011 5.51843C17.9951 5.60989 17.5808 5.65586 17.175 5.74877C17.072 5.77235 16.8784 5.86011 16.7668 5.8353C16.7369 5.82866 16.7825 5.77168 16.7924 5.7634C16.939 5.64007 17.1433 5.55561 17.3115 5.46603C17.4736 5.37976 17.6525 5.36863 17.8283 5.31003" stroke="#5F333B" stroke-linecap="round"/>
<path d="M22.3473 5.48556C22.1775 5.48556 22.0114 5.48049 21.8428 5.46362" stroke="#5F333B" stroke-linecap="round"/>
<path d="M11.0933 6.31909C11.0933 6.60527 10.9395 6.8691 10.8715 7.14294C10.7977 7.44024 10.7927 7.74684 10.752 8.04845C10.7329 8.19048 10.695 8.26883 10.7204 8.41041C10.7516 8.58475 10.7464 8.75938 10.7752 8.93202C10.8297 9.25869 10.8813 9.5875 10.9519 9.91187C10.9789 10.0358 11.0367 10.4062 11.0482 10.2799C11.0717 10.0213 11.0494 9.75024 11.0494 9.49019C11.0494 9.43129 11.0494 9.37238 11.0494 9.31348C11.0494 9.23638 11.1219 9.48668 11.1372 9.52188C11.1834 9.62885 11.1954 9.76166 11.2639 9.8558C11.3137 9.92426 11.2936 10.0549 11.3297 10.1361C11.377 10.2425 11.3633 10.315 11.4882 10.3774" stroke="#FCEDB5" stroke-width="0.5" stroke-linecap="round"/>
<path d="M12.6948 3.16018C12.8783 3.14183 13.0776 2.92335 13.2213 2.81041C13.307 2.7431 13.4262 2.66287 13.4675 2.55813C13.4893 2.50277 13.5435 2.50886 13.576 2.46673C13.6216 2.40743 13.7021 2.36798 13.7624 2.32414C13.8253 2.27839 13.9293 2.17816 14.0037 2.15108C14.2233 2.07125 14.3953 1.97559 14.635 1.97559C14.6862 1.97559 14.7374 1.97559 14.7886 1.97559C14.847 1.97559 14.8863 2.03002 14.9421 2.04018C15.0175 2.05389 15.1546 2.08864 15.2163 2.14011C15.2433 2.1626 15.3098 2.16188 15.3443 2.16814C15.4262 2.18303 15.4909 2.20186 15.571 2.22908C15.7002 2.27297 15.8334 2.29368 15.9622 2.33876C16.0849 2.38172 16.218 2.42264 16.3363 2.47526C16.4826 2.54025 16.6495 2.55988 16.797 2.61663C16.9073 2.65903 17.0461 2.69515 17.159 2.72022C17.3103 2.75386 17.4697 2.82381 17.6306 2.85306C17.808 2.88532 17.9779 2.95638 18.1571 2.98956C18.4088 3.03616 18.6663 3.07689 18.9151 3.13824C19.2167 3.21258 19.5048 3.34129 19.8121 3.39661C19.9921 3.42901 20.1686 3.52918 20.3484 3.5782C20.4222 3.59833 20.6588 3.64384 20.7018 3.69763C20.7483 3.75573 20.9756 3.78033 21.0528 3.81341C21.0972 3.83244 21.1535 3.82171 21.2015 3.84022C21.264 3.8644 21.3153 3.90979 21.3818 3.92309C21.6529 3.97731 21.908 4.12001 22.1606 4.2229C22.2152 4.24514 22.2739 4.25668 22.33 4.27408C22.4034 4.29687 22.4667 4.34195 22.5396 4.36183C22.6444 4.39041 22.7342 4.46085 22.8309 4.49711C23.0497 4.57915 23.2553 4.65863 23.4536 4.78351C23.594 4.87188 23.7418 4.90962 23.8522 5.037C23.9394 5.13763 24.0593 5.19822 24.1447 5.2978C24.256 5.4277 24.4104 5.60676 24.5627 5.68292" stroke="#FCEDB5" stroke-width="0.5" stroke-linecap="round"/>
<path d="M20.6614 7.11457C21.0898 6.8867 21.5618 6.8577 22.01 6.70831C22.253 6.6273 22.5662 6.51146 22.8183 6.51146C23.1235 6.51146 23.4512 6.45455 23.7398 6.36906C23.9182 6.31618 23.9408 6.34715 23.9408 6.13451C23.9408 6.02771 23.9408 5.92091 23.9408 5.81411C23.9408 5.45038 23.565 5.12174 23.2455 4.98483C23.0146 4.88583 22.815 4.67435 22.5817 4.57228C22.26 4.43153 21.9362 4.27663 21.6121 4.1367C21.459 4.0706 21.2706 4.00928 21.1305 3.92519C20.9905 3.84121 20.8249 3.81707 20.6907 3.743C20.3167 3.53665 19.7987 3.53329 19.3881 3.39118C18.9171 3.22814 20.3787 3.55788 20.8415 3.743C21.4367 3.98108 22.0432 4.16488 22.6131 4.47176C22.8498 4.59923 23.0413 4.7039 23.2414 4.89059C23.4013 5.0399 23.5439 5.18117 23.6769 5.36177C23.716 5.41474 24.0566 5.86118 24.1083 5.82667C24.1253 5.81535 23.5729 5.31417 23.4801 5.23822C23.3156 5.10362 23.0567 4.95467 22.8644 4.8529C22.579 4.70177 22.2376 4.50174 21.922 4.40894C21.7984 4.37258 21.6902 4.30312 21.566 4.26863C21.4463 4.23536 21.3468 4.11795 21.2268 4.099C20.9218 4.05085 20.5144 3.84211 20.23 3.7074C20.0249 3.61024 19.7975 3.5574 19.5892 3.45819C19.4403 3.38733 19.2666 3.19433 19.097 3.19433C18.9992 3.19433 18.8967 3.16396 18.8018 3.13988C18.6818 3.10945 18.291 2.97024 18.607 3.11894C18.8492 3.23289 19.1174 3.26891 19.3672 3.36186C19.8234 3.53163 20.3214 3.57928 20.7744 3.80582C21.0642 3.95069 21.3855 4.12277 21.6875 4.2414C21.9892 4.35994 22.2453 4.64572 22.567 4.70421C22.6644 4.72192 22.7561 4.82531 22.856 4.86127C22.9215 4.88483 23.0065 4.97822 23.055 5.02671C23.2368 5.20849 23.4232 5.38657 23.6036 5.567C23.7099 5.67321 23.8509 5.83389 23.9785 5.91044C24.1309 6.00186 24.2126 6.26281 24.3931 6.32299" stroke="#FCEDB5" stroke-width="0.5" stroke-linecap="round"/>
<path d="M20.6743 6.93743C21.0695 6.92279 21.4548 6.74041 21.8496 6.70751C22.0931 6.68722 22.346 6.60289 22.5864 6.55244C22.7623 6.51553 22.9696 6.49314 23.1361 6.42839C23.2544 6.38237 23.4991 6.41644 23.5617 6.27547C23.5828 6.22799 23.6387 6.19161 23.6387 6.12896C23.6387 6.05838 23.6387 5.9878 23.6387 5.91722C23.6387 5.77933 23.4891 5.62531 23.3842 5.55148C23.2782 5.47689 23.178 5.36972 23.0805 5.28306C22.9428 5.16067 22.833 5.02597 22.6869 4.9077C22.5352 4.78487 22.3927 4.67999 22.2335 4.56976C22.0114 4.41596 21.7372 4.351 21.501 4.2329C21.4706 4.21773 21.2744 4.16553 21.3288 4.16553C21.4493 4.16553 21.5913 4.23718 21.7009 4.28102C21.8517 4.34132 22.021 4.38577 22.1458 4.49277C22.1802 4.52227 22.2352 4.53277 22.2763 4.55051C22.3336 4.57526 22.3704 4.62531 22.4249 4.65532C22.493 4.69273 22.5451 4.77666 22.6174 4.80075C22.6821 4.82231 22.7381 4.91 22.8014 4.94406C22.9121 5.00368 23.008 5.11321 23.0976 5.20285C23.1306 5.23589 23.1723 5.26827 23.1949 5.30979C23.2092 5.33597 23.2379 5.32935 23.2494 5.34829C23.2932 5.41983 23.3298 5.51186 23.3842 5.57501C23.4982 5.70722 23.5443 5.89104 23.6387 6.03271" stroke="#FCEDB5" stroke-width="0.5" stroke-linecap="round"/>
<path d="M23.4375 6.35547C23.4553 6.33961 23.483 6.33037 23.4931 6.30946C23.5015 6.29185 23.5228 6.28133 23.5265 6.25998C23.5313 6.23194 23.541 6.20385 23.5432 6.17535C23.5444 6.1598 23.5508 6.14587 23.5508 6.13021C23.5508 6.11126 23.5508 6.0923 23.5508 6.07335C23.5508 6.03791 23.5508 6.00246 23.5508 5.96701C23.5508 5.86826 23.5156 5.76994 23.4805 5.67969" stroke="#FCEDB5" stroke-width="0.5" stroke-linecap="round"/>
<path d="M13.3365 3.81196C13.3647 3.6573 13.4747 3.49846 13.5427 3.35573C13.5912 3.25379 13.5925 3.16207 13.6542 3.0651C13.7708 2.88185 13.8282 2.66077 13.9769 2.48721C14.0122 2.44612 14.1608 2.34852 14.1054 2.36893C13.92 2.43721 13.8296 2.58077 13.7083 2.73391C13.6314 2.83095 13.5982 2.92053 13.563 3.03637C13.4987 3.24766 13.3757 3.44979 13.2892 3.65312C13.2497 3.74606 13.0555 4.11215 13.198 3.81534C13.3077 3.58674 13.4319 3.38258 13.5478 3.15803C13.6772 2.90722 13.8308 2.68983 13.9769 2.45849C14.2108 2.08827 14.571 2.3039 14.9114 2.35879C15.1608 2.39902 15.4011 2.47642 15.6481 2.53452C16.3139 2.69118 16.9899 2.87817 17.6369 3.09382C17.9616 3.20207 18.3018 3.2657 18.6119 3.41656C18.801 3.50856 19.0229 3.53807 19.2033 3.64467C19.4616 3.79732 19.7438 3.86222 20.0346 3.92686C20.7097 4.07687 21.3461 4.3233 22.0048 4.5115C22.6085 4.68397 23.0945 5.1716 23.7385 5.24316C24.0392 5.27657 24.3408 5.34741 24.6374 5.4172C24.6627 5.42316 24.741 5.42123 24.7152 5.42396C24.617 5.43429 24.5719 5.48648 24.4938 5.53041C24.3943 5.58637 24.2461 5.66218 24.1339 5.66728C24.0409 5.6715 23.8888 5.70953 23.8061 5.75852C23.7188 5.81026 23.6181 5.77471 23.5239 5.80415C23.4136 5.83862 23.3053 5.9106 23.191 5.9106C22.9974 5.9106 22.9991 5.8745 22.9629 5.67911C22.9167 5.4295 22.8916 5.13183 22.6486 4.99477C22.5989 4.96672 21.7847 4.51578 21.7683 4.54868C21.6861 4.71303 23.4374 5.18064 23.7554 5.18064C23.8316 5.18064 23.9713 5.19686 23.8095 5.26512C23.6402 5.33652 23.4343 5.3769 23.2552 5.4172C23.243 5.41995 22.8992 5.48479 23.0457 5.48479C23.508 5.48479 23.9629 5.42396 24.4211 5.42396C24.5242 5.42396 24.6273 5.42396 24.7304 5.42396C25.0442 5.42396 24.7989 5.41187 24.6273 5.33947C24.4659 5.27139 24.3265 5.17097 24.1643 5.1046C24.0308 5.04998 23.8854 5.01212 23.7622 4.93732C23.6587 4.87449 23.5098 4.86085 23.4208 4.78524C23.3666 4.73917 23.2894 4.71558 23.2214 4.70075C23.0936 4.67287 22.9856 4.59783 22.8581 4.57234C22.5269 4.50608 22.1977 4.37693 21.8697 4.28508C21.1978 4.09697 20.5339 3.84256 19.869 3.63623C19.5336 3.53214 19.1723 3.47867 18.8349 3.38615C18.544 3.30638 18.2311 3.14283 17.9292 3.14283" stroke="#5F333B" stroke-width="0.5" stroke-linecap="round"/>
<path d="M23.6172 5.66727C23.7758 5.66727 23.9473 5.68794 24.1038 5.66558C24.2499 5.64472 24.3959 5.56522 24.5482 5.5473C24.7124 5.52799 24.8824 5.53249 25.0467 5.5152C25.2608 5.49266 25.0284 5.42395 24.925 5.42395" stroke="#5F333B" stroke-width="0.5" stroke-linecap="round"/>
<path d="M98.2651 5.81032C98.6795 5.81032 99.2493 6.1694 99.6018 6.35739C100.071 6.60774 100.699 6.69612 101.209 6.8537C101.707 7.00761 102.209 7.19548 102.681 7.42333C103.343 7.74248 104.099 7.77499 104.765 8.06627C104.987 8.16349 105.245 8.16498 105.476 8.27213C105.867 8.45371 106.311 8.49503 106.711 8.65C107.336 8.89213 108.014 9.0119 108.631 9.26193C109.436 9.5875 110.12 10.1474 110.927 10.4322C111.283 10.558 111.616 10.8949 112.021 10.9398C112.18 10.9575 112.297 11.1026 112.452 11.1372C112.569 11.1631 112.645 11.1541 112.757 11.2161C112.851 11.2686 112.998 11.3882 113.104 11.3882C113.162 11.3882 113.159 11.0262 113.109 10.9624C113.006 10.8295 113.037 10.6537 112.957 10.5055C112.877 10.3566 112.816 10.2205 112.743 10.0741C112.567 9.722 112.362 9.29819 112.235 8.9179C112.074 8.43315 111.788 7.90277 111.713 7.38385C111.675 7.1118 111.465 6.87403 111.417 6.60272C111.378 6.37793 111.286 6.19891 111.209 5.98516C111.078 5.62459 110.969 5.2231 110.955 4.83462C110.938 4.36406 110.82 3.89163 110.803 3.41337C110.793 3.15655 110.494 2.76305 110.205 2.92834C110.017 3.03538 109.606 3.05684 109.381 3.06934C109.09 3.08554 108.783 3.22313 108.507 3.31185C108.047 3.45991 107.568 3.65876 107.094 3.77714C106.668 3.88378 106.265 4.0249 105.828 4.08734C105.515 4.1321 105.175 4.22306 104.861 4.29037C104.69 4.327 104.531 4.42111 104.356 4.43701C104.224 4.449 104.097 4.42834 103.967 4.46239C103.353 4.62347 102.652 4.67675 102.061 4.89666C101.578 5.0764 100.963 5.21237 100.448 5.24915C100.129 5.27194 99.7994 5.36022 99.4805 5.42399C99.2495 5.47019 99.0034 5.41788 98.7784 5.48039C98.6997 5.50223 98.3834 5.65804 98.5725 5.65804C98.8343 5.65804 99.0622 5.75878 99.3057 5.83288C100.071 6.06588 100.889 6.13413 101.629 6.42507C102.191 6.64571 102.758 6.76977 103.344 6.90164C103.523 6.94199 103.677 7.03286 103.851 7.07647C104.004 7.1146 104.19 7.11694 104.317 7.22029C104.444 7.32462 104.002 7.12375 103.843 7.07929C103.358 6.94353 102.864 6.84735 102.377 6.72398C101.814 6.58161 101.198 6.5399 100.651 6.35739C100.194 6.20498 99.7317 6.10757 99.2606 5.9626C99.1357 5.92419 98.3799 5.66772 98.392 5.65804C98.6137 5.48071 98.9874 5.55653 99.2803 5.55653" stroke="#5F333B" stroke-width="0.5" stroke-linecap="round"/>
<path d="M110.618 2.87524C110.812 3.06911 110.937 3.39862 111.057 3.64554C111.14 3.81624 111.232 3.99934 111.269 4.18579C111.304 4.35711 111.402 4.51628 111.402 4.69292C111.402 4.81002 111.436 4.91891 111.458 5.03276C111.509 5.30132 111.478 5.59719 111.543 5.85708C111.694 6.46041 111.778 7.07193 111.904 7.68347C112.142 8.84586 112.556 9.95666 112.97 11.0626" stroke="#5F333B" stroke-width="0.5" stroke-linecap="round"/>
<path d="M110.555 2.81255C110.518 2.44174 109.877 2.81247 109.661 2.84566C109.413 2.88382 109.196 3.07695 108.954 3.14367C108.817 3.18112 108.634 3.23595 108.516 3.31446" stroke="#5F333B" stroke-width="0.5" stroke-linecap="round"/>
<path d="M108.234 7.04743C108.004 7.04743 107.997 6.81049 108.016 6.63963C108.055 6.28462 108.688 6.70258 108.76 6.8383C108.817 6.94567 108.941 7.26407 108.791 7.35415C108.665 7.43015 108.426 7.37795 108.3 7.35764C107.807 7.27848 107.363 7.10437 106.93 6.86096C106.605 6.67835 106.385 6.55613 106.353 6.1778C106.326 5.84562 106.913 5.68062 107.146 5.67415C107.61 5.66126 108.09 5.75851 108.537 5.87282C108.783 5.9359 109.045 6.01508 109.248 6.17606C109.479 6.35907 109.548 6.64513 109.548 6.92892C109.548 7.15792 109.394 7.33329 109.171 7.37332C109.014 7.40167 108.874 7.38054 108.727 7.31755C108.298 7.1344 107.821 6.88541 107.495 6.54552C107.149 6.18531 107.265 5.65023 107.819 5.60095C108.487 5.54153 109.162 5.78521 109.593 6.29282C109.824 6.56496 109.945 6.77387 109.734 7.11017C109.399 7.64456 108.676 7.61658 108.122 7.5598C107.544 7.50054 107.081 7.30339 106.575 7.04046C106.237 6.86529 106.061 6.6723 106.074 6.27365C106.086 5.90868 106.277 5.7539 106.583 5.60095C106.79 5.49772 107.004 5.40879 107.233 5.37091C107.807 5.27605 108.451 5.19187 109.032 5.25589C109.37 5.29315 109.678 5.40363 109.907 5.66021C110.031 5.79995 110.094 6.00359 110.165 6.17257C110.256 6.39003 110.368 6.61818 110.393 6.85573C110.409 7.01082 110.444 7.25759 110.297 7.36112C109.93 7.62017 109.272 7.63264 108.844 7.55282C108.182 7.42954 107.494 7.15934 106.92 6.80693C106.544 6.57631 106.024 6.29008 105.823 5.87631C105.708 5.63808 105.98 5.35641 106.155 5.23149C106.6 4.91251 107.188 4.80318 107.721 4.74004C108.019 4.70475 108.322 4.66727 108.621 4.63896C108.707 4.63072 108.876 4.57811 108.96 4.59016C109.05 4.60294 108.808 4.68836 108.727 4.72784C108.478 4.84852 108.218 4.93771 107.948 4.99448C107.444 5.10015 106.929 5.13401 106.421 5.20884C106.12 5.25324 105.81 5.29075 105.504 5.29075C105.345 5.29075 105.221 5.38432 105.069 5.41622C104.605 5.51339 104.127 5.53891 103.668 5.64975C103.49 5.69271 103.289 5.66718 103.106 5.66718C102.898 5.66718 102.702 5.74097 102.493 5.75431C102.286 5.76748 102.079 5.75363 101.873 5.76129C101.705 5.7675 102.084 6.03548 102.232 6.11506C103.912 7.01889 105.721 7.68823 107.498 8.37191C107.96 8.5495 108.392 8.79184 108.852 8.96619C109.206 9.10009 109.561 9.26158 109.896 9.4315C110.143 9.55676 110.416 9.62817 110.663 9.74694C110.749 9.78803 110.809 9.85666 110.89 9.90204C111.006 9.96735 111.202 10.0006 111.283 10.1077C111.346 10.1889 111.668 10.3098 111.759 10.3098C111.908 10.3098 112.022 10.4297 112.179 10.4353C112.25 10.4378 112.323 10.545 112.378 10.5852C112.419 10.6153 112.348 10.4865 112.322 10.4423C112.166 10.1745 111.985 9.93138 111.799 9.6842C111.515 9.30485 111.363 8.79917 111.165 8.37191C111.121 8.27798 111.08 8.14025 111.019 8.05822C110.987 8.01644 110.873 7.95255 110.848 7.93623C110.51 7.71867 110.156 7.52045 109.776 7.38726C109.534 7.30243 109.485 7.38662 109.445 7.63125C109.382 8.01237 109.611 8.37593 109.868 8.63681C109.891 8.6603 110.166 8.88884 110.189 8.82851C110.221 8.74218 109.814 8.49926 109.804 8.49216C109.358 8.18729 108.897 7.89941 108.439 7.61208C108.213 7.47026 107.982 7.33642 107.763 7.18336C107.684 7.12819 107.904 7.31429 107.976 7.37855C108.428 7.78425 108.977 8.02477 109.494 8.33183C109.826 8.52944 110.144 8.73271 110.497 8.89996C110.611 8.95361 110.714 9.00807 110.782 9.11781C110.79 9.13136 110.88 9.23821 110.893 9.19797C110.923 9.10907 110.803 8.94212 110.768 8.88428C110.57 8.55976 110.293 8.26704 110.137 7.9188C110.125 7.89278 110.116 7.82198 110.142 7.83341C110.202 7.85981 110.339 7.99632 110.363 8.01988C110.553 8.2013 110.737 8.38998 110.923 8.57581C111.118 8.77131 111.278 8.94953 111.5 9.11084C111.633 9.2084 111.501 8.6754 111.479 8.59847C111.449 8.49307 111.403 8.39162 111.371 8.28652C111.299 8.05329 111.209 7.82955 111.158 7.58768C111.045 7.05477 110.729 6.58691 110.642 6.04361C110.536 5.38652 110.273 4.71267 110.273 4.04294C110.273 3.88372 110.336 3.57712 110.269 3.42775C110.219 3.3145 109.215 3.63429 109.095 3.65954C108.844 3.71178 108.593 3.78398 108.349 3.85995C108.041 3.95557 107.698 3.96377 107.394 4.06734C107.153 4.14939 106.892 4.18797 106.646 4.25556C106.342 4.33911 106.046 4.43879 105.74 4.5222C104.567 4.84215 103.232 4.71588 102.132 5.30817C101.992 5.38391 101.765 5.53848 101.601 5.5417C101.361 5.54639 101.125 5.66718 100.891 5.66718C100.654 5.66718 101.008 5.89414 101.054 5.92336C101.572 6.25373 102.163 6.49449 102.741 6.69888C103.148 6.84307 103.571 6.92348 103.95 7.13979C104.178 7.27005 104.504 7.35469 104.752 7.44826C104.852 7.4863 105.195 7.65244 105.254 7.47266C105.355 7.16302 105.25 6.76786 105.015 6.54726C104.668 6.22154 104.18 6.06286 103.769 5.83622C103.514 5.69546 103.278 5.51957 103.021 5.38311C102.941 5.34073 102.986 5.37951 103.014 5.39182C103.232 5.48744 103.491 5.53196 103.716 5.59747C104.106 5.71055 104.614 5.78436 104.94 6.05058C105.101 6.18245 105.15 6.53436 105.241 6.72154C105.276 6.79279 105.595 7.28594 105.626 7.15374C105.737 6.68258 105.674 6.25307 106.128 5.91813C106.875 5.36741 107.936 5.22789 108.819 5.05373C109.168 4.98493 109.544 4.95402 109.889 4.85855C109.987 4.83149 110.067 4.69306 110.128 4.61805C110.192 4.54041 110.099 4.53938 110.044 4.53614C109.84 4.52412 109.593 4.4436 109.422 4.32527C109.386 4.30041 109.37 4.16003 109.375 4.20327C109.393 4.34459 109.235 4.52025 109.206 4.66336" stroke="#5F333B" stroke-linecap="round"/>
<path d="M99.6387 5.72979C100.019 5.72979 100.414 5.71581 100.789 5.79079C101.083 5.84961 100.19 5.8239 99.8896 5.8239" stroke="#5F333B" stroke-width="0.5" stroke-linecap="round"/>
<path d="M94.376 5.90759C95.3225 5.90759 96.1829 6.21843 97.1127 6.32175C97.5355 6.36872 97.9836 6.35477 98.4016 6.44765C98.7497 6.52501 99.188 6.55535 99.5181 6.68289C99.9823 6.86222 100.485 6.85346 100.936 7.05398C101.242 7.18986 101.569 7.26426 101.894 7.34554C102.25 7.43467 102.591 7.71712 102.964 7.75638C103.321 7.79396 103.555 8.00052 103.888 8.08108C104.842 8.31129 105.74 8.71856 106.661 8.96241C107.008 9.05415 107.283 9.20269 107.602 9.32024C108.146 9.52 108.688 9.73419 109.193 10.0226C109.466 10.1786 109.753 10.3839 110.081 10.4434C110.189 10.4632 110.408 10.6536 110.541 10.7118C110.805 10.8272 111.159 11.0551 111.433 11.0961C111.893 11.1652 112.205 11.4791 112.619 11.6859C112.919 11.836 113.223 11.9573 113.51 12.1365C113.634 12.2143 113.937 12.3764 113.937 12.5275" stroke="#FCEDB5" stroke-width="0.5" stroke-linecap="round"/>
<path d="M97.2222 6.22456C97.3791 6.18177 97.5089 5.98801 97.6249 5.88451C97.8522 5.68152 98.0718 5.49188 98.3251 5.32074C99.4064 4.59015 100.578 4.02939 101.813 3.60706" stroke="#FCEDB5" stroke-width="0.5" stroke-linecap="round"/>
<path d="M97.061 6.54675C97.443 6.30803 97.6869 5.95419 98.0901 5.74137C98.2516 5.65617 98.524 5.4713 98.6472 5.33867C98.9354 5.02827 99.451 4.8664 99.8463 4.74135C101.407 4.24757 103.011 3.92565 104.551 3.36548" stroke="#FCEDB5" stroke-width="0.5" stroke-linecap="round"/>
<path d="M97.4233 6.06347C97.5914 5.93961 97.8745 5.84636 98.005 5.6921C98.0675 5.61819 98.1493 5.56703 98.2377 5.53102C98.4582 5.44118 98.5809 5.28115 98.8104 5.21558C98.985 5.16569 99.1649 5.04784 99.3384 4.97844C99.6604 4.84964 99.9971 4.74551 100.325 4.63168C100.722 4.49392 101.144 4.29163 101.571 4.29163" stroke="#FCEDB5" stroke-width="0.5" stroke-linecap="round"/>
<path d="M97.5039 6.30513C98.1648 5.87556 98.8433 5.41395 99.5487 5.06126C99.7391 4.96607 99.913 4.85846 100.108 4.7749C100.524 4.59661 101.079 4.41248 101.531 4.41248" stroke="#FCEDB5" stroke-width="0.5" stroke-linecap="round"/>
<path d="M101.37 4.45276C101.243 4.46542 101.116 4.59067 100.992 4.63621C100.908 4.66724 100.807 4.74789 100.724 4.79505C100.485 4.92913 100.226 4.94726 99.9897 5.07246C99.845 5.14905 99.6533 5.16617 99.4953 5.23801C99.3014 5.32614 99.1319 5.44128 98.9539 5.55569C98.6901 5.72529 98.1891 6.29347 98.6989 6.51544C98.8934 6.60015 99.1067 6.64225 99.2984 6.71679C99.4735 6.78486 99.0099 6.47386 98.8868 6.33199C98.7532 6.17804 98.6705 5.97987 98.6004 5.79059C98.5801 5.73577 98.5676 5.6785 98.5333 5.62952C98.4624 5.52828 98.6391 5.85551 98.7168 5.95167C98.9095 6.1904 99.273 6.20987 99.5221 6.36555C99.5915 6.40888 99.753 6.43803 99.8376 6.46622C99.902 6.4877 99.9551 6.54676 100.023 6.54676C100.315 6.54676 100.652 6.77687 100.949 6.83088C101.225 6.88094 101.526 7.03125 101.746 7.20449C102.024 7.42417 102.349 7.51826 102.672 7.64745C103.009 7.78239 103.408 7.76328 103.715 7.95619C103.855 8.04476 104.062 8.11495 104.22 8.15753C104.459 8.22194 104.74 8.38796 104.945 8.5289C105.191 8.69795 105.468 8.81567 105.719 8.98081C105.886 9.09067 106.299 9.2527 106.363 9.44615" stroke="#FCEDB5" stroke-width="0.5" stroke-linecap="round"/>
<path d="M107.571 2.92245C107.841 2.85119 108.181 2.68084 108.457 2.68084C108.778 2.68084 109.091 2.5051 109.404 2.43922C109.559 2.4064 109.705 2.31765 109.862 2.28262C109.946 2.26399 110.069 2.26088 110.149 2.22892C110.351 2.14774 110.731 2.11707 110.954 2.11707" stroke="#FCEDB5" stroke-width="0.5" stroke-linecap="round"/>
<path d="M108.216 2.84198C108.332 2.83751 108.433 2.80025 108.538 2.75249C108.714 2.67237 108.887 2.69523 109.073 2.66077C109.296 2.61946 109.539 2.61774 109.755 2.55115C109.938 2.49471 110.128 2.48424 110.31 2.41915C110.454 2.36761 110.621 2.38445 110.753 2.31848" stroke="#FCEDB5" stroke-width="0.5" stroke-linecap="round"/>
<path d="M110.27 2.39893C109.995 2.47167 109.72 2.53683 109.446 2.60922C109.291 2.65024 108.961 2.64928 108.84 2.74345C108.737 2.82393 108.556 2.83742 108.426 2.84189C108.233 2.84855 107.988 2.95375 107.809 3.02981C107.472 3.17219 107.134 3.29188 106.766 3.36539" stroke="#FCEDB5" stroke-width="0.5" stroke-linecap="round"/>
<path d="M110.39 2.35872C110.602 2.35872 110.703 2.35155 110.873 2.47952" stroke="#FCEDB5" stroke-width="0.5" stroke-linecap="round"/>
<path d="M110.994 2.35876C110.994 2.52422 111.198 2.6614 111.234 2.82186C111.267 2.97128 111.367 3.07978 111.399 3.22455C111.418 3.31189 111.501 3.34198 111.527 3.41471C111.564 3.5217 111.532 3.64541 111.578 3.74582C111.643 3.8894 111.719 4.11541 111.719 4.26932C111.719 4.46378 111.829 4.66421 111.871 4.85546C111.917 5.06404 111.913 5.32926 112.01 5.52214C112.098 5.69902 112.15 6.09874 112.162 6.30515C112.179 6.59908 112.323 6.89812 112.372 7.19108C112.455 7.68795 112.637 8.16411 112.728 8.66314C112.829 9.21812 113.009 9.84515 113.307 10.3142C113.37 10.4129 113.444 10.7351 113.451 10.8556C113.459 11.0242 113.491 11.1666 113.491 11.3388C113.491 11.5187 113.466 11.6839 113.24 11.7012C113.16 11.7074 113.044 11.7343 112.967 11.7616C112.596 11.8941 112.106 11.8402 111.719 11.8623" stroke="#FCEDB5" stroke-width="0.5" stroke-linecap="round"/>
<path d="M111.316 11.1374C111.65 11.4706 112.069 11.6579 112.54 11.6989C112.725 11.7149 112.902 11.7414 113.088 11.7414C113.301 11.7414 113.28 11.5114 113.339 11.379C113.517 10.9785 113.256 10.5477 113.173 10.1754C113.072 9.71949 112.927 9.28783 112.927 8.80176" stroke="#FCEDB5" stroke-width="0.5" stroke-linecap="round"/>
<path d="M135.181 10.8893C135.147 11.5314 134.96 11.9757 134.56 12.4695C134.208 12.9041 133.604 13.3946 133.043 13.5068" stroke="#5F333B" stroke-width="0.5" stroke-linecap="round"/>
<path d="M136.053 12.5907C135.984 13.1061 135.582 13.7566 135.181 14.0837C134.954 14.2689 134.791 14.4477 134.504 14.5321C134.386 14.5669 134.282 14.5453 134.177 14.5975" stroke="#5F333B" stroke-width="0.5" stroke-linecap="round"/>
<path d="M136.62 14.554C136.62 15.3604 135.488 15.7755 134.832 15.7755" stroke="#5F333B" stroke-width="0.5" stroke-linecap="round"/>
</svg>
