<svg width="302" height="169" viewBox="0 0 302 169" fill="none" xmlns="http://www.w3.org/2000/svg">
<rect width="302" height="169" rx="10" fill="#F1E89E"/>
<path d="M60.909 46.015H62.486V50.29H60.909V46.015ZM61.707 37.427C65.336 37.427 67.939 39.194 67.939 41.93C67.939 44.666 65.336 46.433 61.707 46.433C58.078 46.433 55.456 44.666 55.456 41.93C55.456 39.194 58.078 37.427 61.707 37.427ZM61.707 38.681C58.971 38.681 56.976 39.973 56.976 41.93C56.976 43.887 58.971 45.179 61.707 45.179C64.424 45.179 66.419 43.887 66.419 41.93C66.419 39.973 64.424 38.681 61.707 38.681ZM53.955 49.986H69.516V51.297H53.955V49.986ZM73.3335 40.391H84.9805V41.683H73.3335V40.391ZM71.2245 43.336H86.8045V44.628H71.2245V43.336ZM73.3335 36.553H74.8725V40.98H73.3335V36.553ZM73.1625 46.167H84.8285V50.195H74.7585V52.418H73.2005V49.017H83.2515V47.383H73.1625V46.167ZM73.2005 52.019H85.3985V53.254H73.2005V52.019ZM94.0991 37.541C96.7781 37.541 98.6971 39.194 98.6971 41.588C98.6971 44.001 96.7781 45.654 94.0991 45.654C91.4201 45.654 89.4821 44.001 89.4821 41.588C89.4821 39.194 91.4201 37.541 94.0991 37.541ZM94.0991 38.909C92.3131 38.909 91.0211 39.992 91.0211 41.588C91.0211 43.184 92.3131 44.286 94.0991 44.286C95.8661 44.286 97.1581 43.184 97.1581 41.588C97.1581 39.992 95.8661 38.909 94.0991 38.909ZM100.939 36.287H102.516V53.501H100.939V36.287ZM88.8361 49.739L88.6081 48.428C91.7431 48.428 96.0751 48.409 99.8181 47.82L99.9511 48.979C96.0941 49.72 91.8951 49.739 88.8361 49.739ZM110.419 38.111H120.565V39.403H110.419V38.111ZM115.492 40.277C117.924 40.277 119.596 41.493 119.596 43.393C119.596 45.274 117.924 46.471 115.492 46.471C113.022 46.471 111.369 45.274 111.369 43.393C111.369 41.493 113.022 40.277 115.492 40.277ZM115.492 41.512C113.915 41.512 112.87 42.234 112.87 43.393C112.87 44.514 113.915 45.255 115.492 45.255C117.031 45.255 118.095 44.514 118.095 43.393C118.095 42.234 117.031 41.512 115.492 41.512ZM122.123 36.306H123.7V47.041H122.123V36.306ZM123.263 41.037H126.246V42.348H123.263V41.037ZM112.547 47.972H123.7V53.482H122.123V49.264H112.547V47.972ZM114.694 36.211H116.271V38.833H114.694V36.211ZM129.626 46.604H131.184V48.599H139.582V46.604H141.159V53.254H129.626V46.604ZM131.184 49.815V51.981H139.582V49.815H131.184ZM127.65 44.134H143.173V45.407H127.65V44.134ZM134.623 36.496H135.972V37.256C135.972 40.239 132.647 42.386 129.113 42.918L128.543 41.683C131.64 41.265 134.623 39.422 134.623 37.256V36.496ZM134.87 36.496H136.219V37.256C136.219 39.384 139.24 41.265 142.299 41.683L141.71 42.918C138.214 42.386 134.87 40.201 134.87 37.256V36.496ZM157.422 36.287H158.999V53.501H157.422V36.287ZM149.936 37.617C152.482 37.617 154.306 39.954 154.306 43.602C154.306 47.269 152.482 49.606 149.936 49.606C147.409 49.606 145.585 47.269 145.585 43.602C145.585 39.954 147.409 37.617 149.936 37.617ZM149.936 39.042C148.264 39.042 147.086 40.828 147.086 43.602C147.086 46.395 148.264 48.219 149.936 48.219C151.627 48.219 152.786 46.395 152.786 43.602C152.786 40.828 151.627 39.042 149.936 39.042ZM166.787 42.918H182.367V44.191H166.787V42.918ZM168.231 36.971H172.791V38.244H168.231V36.971ZM172.259 36.971H173.798V37.465C173.798 38.415 173.798 40.524 173 43.393L171.461 43.203C172.259 40.353 172.259 38.453 172.259 37.465V36.971ZM174.957 36.971H179.593V38.244H174.957V36.971ZM178.89 36.971H180.429V37.712C180.429 38.833 180.429 40.79 179.745 43.469L178.206 43.241C178.89 40.619 178.89 38.814 178.89 37.712V36.971ZM168.744 45.996H180.467V47.212H170.321V52.361H168.744V45.996ZM168.744 52.038H180.581V53.254H168.744V52.038ZM169.656 48.998H180.03V50.176H169.656V48.998ZM195.837 36.306H197.414V45.92H195.837V36.306ZM196.996 40.372H199.96V41.683H196.996V40.372ZM184.912 37.389H186.489V44.362H184.912V37.389ZM184.912 43.507H186.261C188.731 43.507 191.296 43.336 194.108 42.766L194.298 44.058C191.391 44.647 188.826 44.837 186.261 44.837H184.912V43.507ZM188.218 46.623H189.415V47.858C189.415 50.119 188.028 52.418 185.577 53.349L184.779 52.19C186.926 51.392 188.218 49.53 188.218 47.858V46.623ZM188.579 46.623H189.738V47.858C189.738 49.606 190.745 51.468 192.816 52.323L192.132 53.501C189.662 52.532 188.579 50.138 188.579 47.858V46.623ZM194.545 46.623H195.723V47.858C195.723 49.872 194.602 52.456 192.132 53.501L191.467 52.323C193.538 51.373 194.545 49.34 194.545 47.858V46.623ZM194.868 46.623H196.084V47.858C196.084 49.644 197.338 51.449 199.504 52.19L198.725 53.349C196.236 52.437 194.868 50.233 194.868 47.858V46.623ZM203.34 46.604H204.898V48.599H213.296V46.604H214.873V53.254H203.34V46.604ZM204.898 49.815V51.981H213.296V49.815H204.898ZM201.364 44.134H216.887V45.407H201.364V44.134ZM208.337 36.496H209.686V37.256C209.686 40.239 206.361 42.386 202.827 42.918L202.257 41.683C205.354 41.265 208.337 39.422 208.337 37.256V36.496ZM208.584 36.496H209.933V37.256C209.933 39.384 212.954 41.265 216.013 41.683L215.424 42.918C211.928 42.386 208.584 40.201 208.584 37.256V36.496ZM231.155 36.306H232.732V53.482H231.155V36.306ZM219.755 37.978H221.313V48.618H219.755V37.978ZM219.755 47.687H221.161C223.764 47.687 226.481 47.497 229.388 46.889L229.578 48.238C226.595 48.846 223.878 49.055 221.161 49.055H219.755V47.687ZM247.569 36.287H249.165V53.501H247.569V36.287ZM248.785 43.07H251.977V44.4H248.785V43.07ZM236.682 47.896H238.031C241.204 47.896 243.427 47.782 245.992 47.307L246.163 48.637C243.522 49.131 241.261 49.226 238.031 49.226H236.682V47.896ZM236.682 37.959H244.662V39.251H238.24V48.485H236.682V37.959ZM254.313 47.82V38.7H255.985V47.82H254.313ZM255.149 52.19C254.908 52.19 254.686 52.1267 254.484 52C254.281 51.886 254.116 51.7277 253.99 51.525C253.876 51.3223 253.819 51.1007 253.819 50.86C253.819 50.48 253.945 50.1633 254.199 49.91C254.465 49.6567 254.781 49.53 255.149 49.53C255.516 49.53 255.826 49.6567 256.08 49.91C256.346 50.1633 256.479 50.48 256.479 50.86C256.479 51.1007 256.415 51.3223 256.289 51.525C256.175 51.7277 256.016 51.886 255.814 52C255.624 52.1267 255.402 52.19 255.149 52.19Z" fill="#512525"/>
<rect x="87" y="111" width="127" height="34" rx="8" fill="#FFBC3A"/>
<path d="M141.021 127.235H142.266V129.29H141.021V127.235ZM141.606 122.225C143.571 122.225 144.951 123.305 144.951 124.91C144.951 126.515 143.571 127.58 141.606 127.58C139.656 127.58 138.276 126.515 138.276 124.91C138.276 123.305 139.656 122.225 141.606 122.225ZM141.606 123.185C140.331 123.185 139.446 123.89 139.446 124.91C139.446 125.945 140.331 126.635 141.606 126.635C142.896 126.635 143.781 125.945 143.781 124.91C143.781 123.89 142.896 123.185 141.606 123.185ZM146.781 121.625H148.026V131.99H146.781V121.625ZM147.501 126.2H150.006V127.235H147.501V126.2ZM139.446 133.835H148.506V134.87H139.446V133.835ZM139.446 131.105H140.691V134.285H139.446V131.105ZM137.661 129.98L137.496 128.96C139.881 128.96 143.181 128.93 145.941 128.51L146.031 129.425C143.196 129.95 139.986 129.98 137.661 129.98ZM154.595 129.56H155.825V132.89H154.595V129.56ZM158.93 129.53H160.145V132.875H158.93V129.53ZM151.175 132.47H163.46V133.505H151.175V132.47ZM152.66 122.615H161.945V126.71H153.935V129.44H152.705V125.72H160.715V123.62H152.66V122.615ZM152.705 128.885H162.26V129.905H152.705V128.885Z" fill="#311A1E"/>
</svg>
