<svg width="136" height="151" viewBox="0 0 136 151" fill="none" xmlns="http://www.w3.org/2000/svg">
<path d="M22.2966 131.161C23.8995 134.367 25.6238 137.351 29.3143 138.004C30.4345 141.395 31.0807 142.877 36.0006 144.595C40.1794 146.055 44.229 147.124 48.4914 148.19C53.3922 149.415 60.4706 148.705 64.8913 146.348C73.8752 141.556 87.0408 143.335 97.1068 142.888C105.452 142.517 108.797 133.878 113.776 128.555C116.744 125.383 114.427 120.962 116.787 117.816C119.336 114.417 119.419 110.005 117.011 106.539C114.921 103.529 113.966 99.0994 111.889 96.4293C109.458 93.3033 107.178 90.4319 105.464 86.8141C104.036 83.7985 96.9189 80.7892 94.0066 79.8497C85.3996 77.0733 77.1636 73.5115 68.0364 71.852C62.7749 70.8954 56.7511 71.7622 51.4119 71.7622C49.2376 71.7622 46.673 71.3539 44.5824 71.9419C34.8989 74.6654 24.451 81.6596 18.7021 89.9143C15.8384 94.0263 10.4348 99.5384 10.4348 104.921C10.4348 106.429 11.1024 107.553 11.2436 108.965C11.7419 113.948 14.1472 120.643 19.1964 121.905C20.6296 122.264 21.4706 129.509 22.2966 131.161Z" fill="#FAE392"/>
<path d="M29.845 138.08C25.7853 137.629 23.9745 134.517 22.2966 131.161C21.4706 129.509 20.6296 122.264 19.1964 121.905C14.1472 120.643 11.7419 113.948 11.2436 108.965C11.1024 107.553 10.4348 106.429 10.4348 104.921C10.4348 99.5384 15.8384 94.0263 18.7021 89.9143C24.451 81.6596 34.8989 74.6654 44.5824 71.9419C46.673 71.3539 49.2376 71.7622 51.4119 71.7622C56.7511 71.7622 62.7749 70.8954 68.0364 71.852C77.1636 73.5115 85.3996 77.0733 94.0066 79.8497C96.9189 80.7892 104.036 83.7985 105.464 86.8141C107.178 90.4319 109.458 93.3033 111.889 96.4293C113.966 99.0994 114.921 103.529 117.011 106.539C119.419 110.005 119.336 114.417 116.787 117.816C114.427 120.962 116.744 125.383 113.776 128.555C108.797 133.878 105.452 142.517 97.1068 142.888C87.0408 143.335 73.8752 141.556 64.8913 146.348C60.4706 148.705 53.3922 149.415 48.4914 148.19C44.229 147.124 40.1794 146.055 36.0006 144.595C29.7693 142.419 30.3937 140.622 28.2275 134.845" stroke="black" stroke-width="3" stroke-linecap="round"/>
<path d="M44.3 103.995C47.7128 102.289 49.6509 102.3 53.1964 103.186" stroke="black" stroke-width="3" stroke-linecap="round"/>
<path d="M75.0327 100.76C75.3535 98.1933 83.6832 98.6766 85.5466 99.1424" stroke="black" stroke-width="3" stroke-linecap="round"/>
<path d="M56.4312 113.7C57.1891 115.595 58.8772 117.655 61.104 117.744C62.9539 117.818 63.9437 114.959 65.3275 115.497C69.7957 117.235 68.5272 113.982 71.7976 112.891" stroke="black" stroke-width="3" stroke-linecap="round"/>
<path d="M62.9013 117.744C62.9013 118.976 62.3407 121.958 63.0361 123.001C63.7726 124.106 67.5087 124.942 68.5177 123.765C71.3865 120.418 70.2039 120.218 68.5626 116.935" stroke="black" stroke-width="3" stroke-linecap="round"/>
<path d="M100.518 24.9983L71.8037 59.4395L59.042 25.4118L100.518 24.9983Z" fill="#FFBC3A"/>
<rect x="0.365234" width="133.65" height="43.0244" rx="20" fill="#FFBC3A"/>
<path d="M26.3513 17.5146C26.3513 16.9938 26.4164 16.499 26.5466 16.0303C26.6768 15.5615 26.8852 15.1514 27.1716 14.7998C27.4581 14.4482 27.8227 14.1683 28.2654 13.96C28.7081 13.7516 29.2419 13.6475 29.8669 13.6475C30.518 13.6475 31.0649 13.7972 31.5076 14.0967C31.9503 14.3831 32.3018 14.7347 32.5623 15.1514C32.8357 15.555 33.0245 15.9782 33.1287 16.4209C33.2458 16.8636 33.3044 17.2282 33.3044 17.5146C33.3044 17.8662 33.2524 18.2699 33.1482 18.7256C33.057 19.1683 32.8813 19.5915 32.6208 19.9951C32.3735 20.3857 32.0219 20.7243 31.5662 21.0107C31.1235 21.2842 30.544 21.4209 29.8279 21.4209C29.1638 21.4209 28.6104 21.2972 28.1677 21.0498C27.725 20.8024 27.3669 20.4899 27.0935 20.1123C26.8331 19.7217 26.6443 19.2985 26.5271 18.8428C26.4099 18.374 26.3513 17.9313 26.3513 17.5146ZM27.6013 17.5146C27.6013 17.9313 27.6599 18.3024 27.7771 18.6279C27.8943 18.9404 28.057 19.2074 28.2654 19.4287C28.4737 19.6501 28.7081 19.8258 28.9685 19.9561C29.2419 20.0863 29.5284 20.1579 29.8279 20.1709C30.4789 20.1709 31.0063 19.917 31.4099 19.4092C31.8136 18.9014 32.0154 18.2113 32.0154 17.3389C32.0154 17.0264 31.9633 16.7269 31.8591 16.4404C31.755 16.141 31.6052 15.8805 31.4099 15.6592C31.2146 15.4248 30.9802 15.236 30.7068 15.0928C30.4464 14.9495 30.1534 14.8714 29.8279 14.8584C29.4893 14.8584 29.1833 14.9365 28.9099 15.0928C28.6495 15.236 28.4216 15.4313 28.2263 15.6787C28.031 15.9131 27.8813 16.193 27.7771 16.5186C27.6729 16.8311 27.6143 17.1631 27.6013 17.5146ZM36.781 12.2021H38.1091V16.3818H41.156V17.71H38.1091V23.7646H36.7029L36.781 12.2021ZM30.9607 28.335V23.7646L32.2888 23.999V27.5928H39.3591L39.4373 28.8428H31.5076L30.9607 28.335ZM50.7263 20.4443V21.7334H44.0466L43.4607 20.874V13.6084H44.8279V20.249L50.7263 20.4443ZM55.4529 12.3193V22.5928H54.2029V18.6865H48.7341V17.4365H54.1443V15.7178H48.7341V14.4678H54.1248V12.3584L55.4529 12.3193ZM54.0857 26.6162C54.0857 26.1344 53.8578 25.7308 53.4021 25.4053C52.9594 25.0667 52.3409 24.8975 51.5466 24.8975C50.7263 24.8975 50.0948 25.0667 49.6521 25.4053C49.2224 25.7308 49.0076 26.1344 49.0076 26.6162C49.0076 27.111 49.2224 27.5277 49.6521 27.8662C50.0948 28.2048 50.7263 28.374 51.5466 28.374C52.3409 28.374 52.9594 28.2048 53.4021 27.8662C53.8578 27.5277 54.0857 27.111 54.0857 26.6162ZM47.6404 26.6162C47.6404 26.2256 47.7185 25.8545 47.8748 25.5029C48.044 25.1514 48.2914 24.8454 48.6169 24.585C48.9555 24.3115 49.3656 24.1032 49.8474 23.96C50.3292 23.8037 50.8956 23.7256 51.5466 23.7256C52.1847 23.7256 52.7445 23.8037 53.2263 23.96C53.7211 24.1032 54.1313 24.3115 54.4568 24.585C54.7953 24.8454 55.0427 25.1514 55.199 25.5029C55.3682 25.8545 55.4529 26.2256 55.4529 26.6162C55.4529 27.0329 55.3682 27.417 55.199 27.7686C55.0427 28.1201 54.7953 28.4261 54.4568 28.6865C54.1313 28.96 53.7211 29.1683 53.2263 29.3115C52.7445 29.4678 52.1847 29.5459 51.5466 29.5459C50.8956 29.5459 50.3292 29.4678 49.8474 29.3115C49.3656 29.1683 48.9555 28.96 48.6169 28.6865C48.2914 28.4261 48.044 28.1201 47.8748 27.7686C47.7185 27.417 47.6404 27.0329 47.6404 26.6162ZM66.8982 17.0068L66.781 18.1787L58.3044 17.5146V16.3037L61.8982 16.5381V13.1396L63.2263 13.2568V16.7334L66.8982 17.0068ZM65.4919 23.0225C65.4268 23.4782 65.2966 23.8949 65.1013 24.2725C64.919 24.637 64.6847 24.9561 64.3982 25.2295C64.1248 25.5029 63.8057 25.7178 63.4412 25.874C63.0766 26.0173 62.6925 26.0889 62.2888 26.0889C61.6899 26.0889 61.182 25.9847 60.7654 25.7764C60.3617 25.555 60.0297 25.2816 59.7693 24.9561C59.5089 24.6175 59.3201 24.2529 59.2029 23.8623C59.0857 23.4587 59.0271 23.068 59.0271 22.6904C59.0271 22.2087 59.0922 21.7529 59.2224 21.3232C59.3656 20.8805 59.574 20.4964 59.8474 20.1709C60.1208 19.8324 60.4594 19.5654 60.863 19.3701C61.2667 19.1748 61.7354 19.0771 62.2693 19.0771C63.2589 19.0771 64.0466 19.3962 64.6326 20.0342C65.2185 20.6592 65.5115 21.499 65.5115 22.5537C65.5115 22.6318 65.5115 22.71 65.5115 22.7881C65.5115 22.8662 65.505 22.9443 65.4919 23.0225ZM60.3748 22.0459C60.3227 22.2152 60.2966 22.4235 60.2966 22.6709C60.2966 22.9053 60.3292 23.1462 60.3943 23.3936C60.4594 23.641 60.5701 23.8753 60.7263 24.0967C60.8826 24.305 61.0844 24.4808 61.3318 24.624C61.5792 24.7542 61.8787 24.8193 62.2302 24.8193C62.5037 24.8193 62.7641 24.7542 63.0115 24.624C63.2589 24.4938 63.4737 24.3245 63.656 24.1162C63.8383 23.8949 63.9815 23.641 64.0857 23.3545C64.1899 23.068 64.2419 22.7686 64.2419 22.4561C64.2419 21.8701 64.0727 21.3688 63.7341 20.9521C63.4086 20.5355 62.9333 20.3271 62.3083 20.3271C61.8005 20.3271 61.3774 20.4899 61.0388 20.8154C60.7003 21.1279 60.4789 21.5381 60.3748 22.0459ZM70.0623 27.6318L68.6169 27.5146V13.4912H70.2185V19.5068H73.1873V20.7568H70.0623V27.6318ZM74.4763 23.6084L77.5623 18.8428V14.5068H79.1248V18.8037L82.5232 23.4521L81.6248 24.4287L78.3044 20.21L75.531 24.5068L74.4763 23.6084ZM80.8435 19.2725V17.9443H84.5154V13.6084H85.8826V25.874L84.5935 25.9521V19.2725H80.8435ZM87.7966 13.1396H89.1248V26.3818H87.7966V13.1396ZM93.8904 17.5537C93.8774 17.5016 93.8708 17.4495 93.8708 17.3975C93.8708 17.3454 93.8708 17.2933 93.8708 17.2412C93.8708 16.7334 93.962 16.2777 94.1443 15.874C94.3266 15.4574 94.587 15.1058 94.9255 14.8193C95.2771 14.5199 95.6873 14.292 96.156 14.1357C96.6378 13.9665 97.1716 13.8818 97.7576 13.8818C98.5128 13.8818 99.1638 13.9795 99.7107 14.1748C100.271 14.3571 100.733 14.611 101.097 14.9365C101.462 15.249 101.729 15.6201 101.898 16.0498C102.08 16.4665 102.172 16.9027 102.172 17.3584C102.172 17.9704 102.041 18.4977 101.781 18.9404C101.521 19.3831 101.182 19.7542 100.765 20.0537L100.883 24.9951H104.945V26.3428H91.2732V24.8193H95.6873L95.5701 20.1123C95.1274 19.8649 94.7432 19.5329 94.4177 19.1162C94.1052 18.6995 93.9294 18.1787 93.8904 17.5537ZM99.4177 20.6396C99.0011 20.7438 98.6039 20.7959 98.2263 20.7959C97.8227 20.7959 97.3995 20.7503 96.9568 20.6592L97.0544 24.9365H99.5154L99.4177 20.6396ZM98.031 15.0928C97.6664 15.0928 97.3149 15.1383 96.9763 15.2295C96.6378 15.3206 96.3383 15.4639 96.0779 15.6592C95.8305 15.8415 95.6287 16.0758 95.4724 16.3623C95.3292 16.6488 95.2576 16.9938 95.2576 17.3975C95.2576 17.762 95.3422 18.0745 95.5115 18.335C95.6807 18.5954 95.9021 18.8102 96.1755 18.9795C96.462 19.1488 96.7875 19.2725 97.1521 19.3506C97.5167 19.4287 97.8878 19.4678 98.2654 19.4678C98.6951 19.4678 99.0727 19.4092 99.3982 19.292C99.7237 19.1618 99.9906 18.999 100.199 18.8037C100.407 18.5954 100.564 18.361 100.668 18.1006C100.772 17.8271 100.824 17.5537 100.824 17.2803C100.824 16.5902 100.57 16.0628 100.062 15.6982C99.5675 15.3206 98.8904 15.1188 98.031 15.0928ZM110.453 25.9912L109.398 27.4365L107.758 25.7568L108.851 24.3896L110.453 25.9912ZM109.828 23.2178H108.226V13.2959H109.828V23.2178Z" fill="black"/>
</svg>
