<svg width="324" height="456" viewBox="0 0 324 456" fill="none" xmlns="http://www.w3.org/2000/svg">
<rect x="2" width="322" height="321" rx="14" fill="#F5E19A"/>
<path d="M97.0245 354.111L77.814 236.148L199.1 266.76L97.0245 354.111Z" fill="#F5E19A"/>
<path d="M14.9579 434.281C16.7089 437.783 18.5925 441.042 22.624 441.756C23.8478 445.461 24.5536 447.08 29.9281 448.957C34.4931 450.551 38.9169 451.719 43.5732 452.883C48.9268 454.222 56.6592 453.446 61.4884 450.871C71.3025 445.637 85.6847 447.58 96.6808 447.091C105.798 446.686 109.451 437.249 114.891 431.434C118.133 427.968 115.602 423.14 118.179 419.703C120.964 415.99 121.054 411.17 118.425 407.383C116.141 404.095 115.098 399.257 112.829 396.34C110.173 392.925 107.682 389.788 105.81 385.836C104.25 382.542 96.4756 379.254 93.2941 378.228C83.8918 375.195 74.8947 371.304 64.9242 369.491C59.1765 368.446 52.5961 369.393 46.7636 369.393C44.3883 369.393 41.5867 368.947 39.303 369.59C28.7246 372.565 17.3113 380.205 11.0312 389.223C7.9029 393.715 2 399.736 2 405.616C2 407.264 2.72923 408.491 2.88349 410.034C3.42783 415.477 6.05543 422.791 11.5712 424.17C13.1368 424.561 14.0556 432.476 14.9579 434.281Z" fill="#FAE392"/>
<path d="M23.2038 441.839C18.769 441.347 16.7908 437.947 14.9579 434.281C14.0556 432.476 13.1368 424.561 11.5712 424.17C6.05543 422.791 3.42783 415.477 2.88349 410.034C2.72923 408.491 2 407.264 2 405.616C2 399.736 7.9029 393.715 11.0312 389.223C17.3113 380.205 28.7246 372.565 39.303 369.59C41.5867 368.947 44.3883 369.393 46.7636 369.393C52.5961 369.393 59.1765 368.446 64.9242 369.491C74.8947 371.304 83.8918 375.195 93.2941 378.228C96.4756 379.254 104.25 382.542 105.81 385.836C107.682 389.788 110.173 392.925 112.829 396.34C115.098 399.257 116.141 404.095 118.425 407.383C121.054 411.17 120.964 415.99 118.179 419.703C115.602 423.14 118.133 427.968 114.891 431.434C109.451 437.249 105.798 446.686 96.6808 447.091C85.6847 447.58 71.3025 445.637 61.4884 450.871C56.6592 453.446 48.9268 454.222 43.5732 452.883C38.9169 451.719 34.4931 450.551 29.9281 448.957C23.1211 446.579 23.8032 444.616 21.4368 438.306" stroke="black" stroke-width="3" stroke-linecap="round"/>
<path d="M38.9946 404.605C42.7227 402.741 44.8399 402.753 48.713 403.721" stroke="black" stroke-width="3" stroke-linecap="round"/>
<path d="M72.5671 401.071C72.9176 398.267 82.017 398.795 84.0525 399.304" stroke="black" stroke-width="3" stroke-linecap="round"/>
<path d="M52.2468 415.206C53.0748 417.276 54.9189 419.527 57.3514 419.624C59.3723 419.705 60.4535 416.582 61.9652 417.17C66.8463 419.068 65.4606 415.514 69.0332 414.323" stroke="black" stroke-width="3" stroke-linecap="round"/>
<path d="M59.3148 419.624C59.3148 420.97 58.7024 424.227 59.4621 425.367C60.2667 426.574 64.3479 427.487 65.4502 426.201C68.5841 422.545 67.2922 422.326 65.4993 418.74" stroke="black" stroke-width="3" stroke-linecap="round"/>
<path fill-rule="evenodd" clip-rule="evenodd" d="M123.793 381.032C123.252 380.68 122.785 380.262 122.494 379.873C122.204 379.483 122.113 379.152 122.243 378.953L132.998 362.463C133.128 362.264 133.467 362.213 133.941 362.322C134.415 362.431 134.985 362.69 135.526 363.043C136.067 363.395 136.534 363.813 136.824 364.203C137.115 364.593 137.206 364.923 137.076 365.122L126.32 381.613C126.191 381.811 125.852 381.862 125.378 381.753C124.904 381.644 124.334 381.385 123.793 381.032Z" fill="#C32541"/>
<path fill-rule="evenodd" clip-rule="evenodd" d="M130.29 393.605C130.326 392.961 130.455 392.348 130.648 391.901C130.841 391.455 131.083 391.212 131.32 391.225L150.977 392.327C151.214 392.34 151.427 392.609 151.569 393.074C151.711 393.539 151.77 394.163 151.734 394.807C151.698 395.452 151.569 396.065 151.376 396.511C151.183 396.957 150.941 397.201 150.704 397.188L131.047 396.086C130.81 396.072 130.597 395.804 130.455 395.338C130.313 394.873 130.254 394.25 130.29 393.605Z" fill="#C32541"/>
<path fill-rule="evenodd" clip-rule="evenodd" d="M127.641 386.965C127.358 386.385 127.172 385.787 127.123 385.303C127.073 384.819 127.166 384.489 127.379 384.385L145.076 375.758C145.29 375.654 145.606 375.785 145.957 376.122C146.308 376.458 146.664 376.974 146.947 377.554C147.23 378.134 147.417 378.732 147.466 379.216C147.515 379.7 147.423 380.03 147.209 380.134L129.512 388.761C129.299 388.865 128.982 388.734 128.631 388.398C128.28 388.061 127.924 387.546 127.641 386.965Z" fill="#C32541"/>
</svg>
