<svg width="188" height="146" viewBox="0 0 188 146" fill="none" xmlns="http://www.w3.org/2000/svg">
<path d="M143.941 47.6479L95.7989 126.322L51.7871 43.7931L143.941 47.6479Z" fill="#FFF455"/>
<rect y="7" width="188" height="93" rx="40" fill="#FFF455"/>
<path d="M60.8885 50.344H64.5605V51.586H60.8885V50.344ZM64.0925 46.132H65.5865V55.834H64.0925V46.132ZM60.2405 56.32C63.5885 56.32 65.6585 57.454 65.6585 59.362C65.6585 61.288 63.5885 62.386 60.2405 62.386C56.8745 62.386 54.8045 61.288 54.8045 59.362C54.8045 57.454 56.8745 56.32 60.2405 56.32ZM60.2405 57.49C57.7925 57.49 56.2985 58.174 56.2985 59.362C56.2985 60.532 57.7925 61.216 60.2405 61.216C62.6885 61.216 64.1825 60.532 64.1825 59.362C64.1825 58.174 62.6885 57.49 60.2405 57.49ZM56.3525 47.77H57.5765V49.084C57.5765 52.09 55.7405 54.664 53.0405 55.672L52.2665 54.484C54.6785 53.602 56.3525 51.424 56.3525 49.084V47.77ZM56.6405 47.77H57.8465V49.084C57.8465 51.19 59.4305 53.206 61.7885 54.034L61.0325 55.222C58.3865 54.268 56.6405 51.82 56.6405 49.084V47.77ZM52.7165 47.32H61.4105V48.544H52.7165V47.32ZM79.8951 46.132H81.3891V54.808H79.8951V46.132ZM80.9751 49.93H83.8011V51.172H80.9751V49.93ZM69.5091 53.026H70.7691C74.1171 53.026 76.0071 52.918 78.1851 52.486L78.3471 53.692C76.1151 54.16 74.1891 54.268 70.7691 54.268H69.5091V53.026ZM69.5091 47.194H76.6731V48.418H70.9851V53.872H69.5091V47.194ZM71.1291 55.69H72.6051V57.688H79.9131V55.69H81.3891V62.134H71.1291V55.69ZM72.6051 58.876V60.91H79.9131V58.876H72.6051ZM97.1557 46.132H98.6677V54.862H97.1557V46.132ZM88.1737 55.672H89.6497V57.652H97.1917V55.672H98.6677V62.188H88.1737V55.672ZM89.6497 58.84V60.982H97.1917V58.84H89.6497ZM89.9377 46.906C92.4037 46.906 94.1677 48.436 94.1677 50.65C94.1677 52.882 92.4037 54.412 89.9377 54.412C87.4717 54.412 85.6897 52.882 85.6897 50.65C85.6897 48.436 87.4717 46.906 89.9377 46.906ZM89.9377 48.148C88.3177 48.148 87.1477 49.174 87.1477 50.65C87.1477 52.126 88.3177 53.152 89.9377 53.152C91.5577 53.152 92.7277 52.126 92.7277 50.65C92.7277 49.174 91.5577 48.148 89.9377 48.148ZM113.714 46.132H115.208V62.404H113.714V46.132ZM102.914 47.716H104.39V57.796H102.914V47.716ZM102.914 56.914H104.246C106.712 56.914 109.286 56.734 112.04 56.158L112.22 57.436C109.394 58.012 106.82 58.21 104.246 58.21H102.914V56.914ZM129.445 46.114H130.957V62.422H129.445V46.114ZM130.597 52.54H133.621V53.8H130.597V52.54ZM119.131 57.112H120.409C123.415 57.112 125.521 57.004 127.951 56.554L128.113 57.814C125.611 58.282 123.469 58.372 120.409 58.372H119.131V57.112ZM119.131 47.698H126.691V48.922H120.607V57.67H119.131V47.698ZM137.8 47.9091L137.634 57.2351H135.863L135.697 47.9091H137.8ZM136.752 61.1214C136.398 61.1214 136.096 60.9979 135.844 60.7507C135.593 60.4993 135.469 60.1967 135.473 59.843C135.469 59.4936 135.593 59.1953 135.844 58.9482C136.096 58.6967 136.398 58.571 136.752 58.571C137.097 58.571 137.395 58.6967 137.647 58.9482C137.898 59.1953 138.026 59.4936 138.03 59.843C138.026 60.0774 137.964 60.2926 137.845 60.4886C137.73 60.6804 137.576 60.8338 137.385 60.9489C137.193 61.0639 136.982 61.1214 136.752 61.1214ZM143.091 47.9091L142.925 57.2351H141.154L140.988 47.9091H143.091ZM142.043 61.1214C141.689 61.1214 141.387 60.9979 141.135 60.7507C140.884 60.4993 140.76 60.1967 140.764 59.843C140.76 59.4936 140.884 59.1953 141.135 58.9482C141.387 58.6967 141.689 58.571 142.043 58.571C142.388 58.571 142.686 58.6967 142.938 58.9482C143.189 59.1953 143.317 59.4936 143.321 59.843C143.317 60.0774 143.255 60.2926 143.136 60.4886C143.021 60.6804 142.867 60.8338 142.676 60.9489C142.484 61.0639 142.273 61.1214 142.043 61.1214Z" fill="black"/>
</svg>
