<svg width="188" height="146" viewBox="0 0 188 146" fill="none" xmlns="http://www.w3.org/2000/svg">
<path d="M143.941 47.6479L95.7989 126.322L51.7871 43.7931L143.941 47.6479Z" fill="#FFBB5C"/>
<rect y="7" width="188" height="93" rx="40" fill="#FFBB5C"/>
<path d="M40.9891 51.352H52.0231V52.432H40.9891V51.352ZM40.9891 46.546H51.9511V47.626H42.4651V51.856H40.9891V46.546ZM42.0331 48.922H51.5191V49.966H42.0331V48.922ZM39.0631 53.638H53.7511V54.79H39.0631V53.638ZM40.8271 56.032H51.8791V59.596H42.3391V61.612H40.8631V58.534H50.4031V57.13H40.8271V56.032ZM40.8631 61.126H52.3651V62.224H40.8631V61.126ZM56.2877 53.908H57.4577C60.6077 53.908 62.2097 53.872 64.1897 53.53L64.3517 54.736C62.2997 55.096 60.6617 55.132 57.4577 55.132H56.2877V53.908ZM56.2517 46.96H63.2717V51.55H57.7637V54.826H56.2877V50.38H61.7957V48.184H56.2517V46.96ZM67.5017 46.15H68.9957V55.888H67.5017V46.15ZM64.3517 48.4H67.8617V49.606H64.3517V48.4ZM64.3517 51.784H67.8617V53.008H64.3517V51.784ZM59.7077 56.32H60.8777V57.22C60.8777 59.362 59.5457 61.54 57.1877 62.44L56.4497 61.324C58.5017 60.568 59.7077 58.804 59.7077 57.22V56.32ZM60.0497 56.32H61.1477V57.22C61.1477 58.876 62.1197 60.64 64.0817 61.45L63.4337 62.566C61.0937 61.648 60.0497 59.398 60.0497 57.22V56.32ZM65.7197 56.32H66.8357V57.22C66.8357 59.164 65.7557 61.594 63.4337 62.566L62.8037 61.45C64.7477 60.568 65.7197 58.642 65.7197 57.22V56.32ZM66.0257 56.32H67.1777V57.22C67.1777 58.912 68.3837 60.622 70.4537 61.324L69.6977 62.44C67.3217 61.576 66.0257 59.488 66.0257 57.22V56.32ZM74.0343 55.888H75.5103V57.778H83.4663V55.888H84.9603V62.188H74.0343V55.888ZM75.5103 58.93V60.982H83.4663V58.93H75.5103ZM72.1623 53.548H86.8683V54.754H72.1623V53.548ZM78.7683 46.312H80.0463V47.032C80.0463 49.858 76.8963 51.892 73.5483 52.396L73.0083 51.226C75.9423 50.83 78.7683 49.084 78.7683 47.032V46.312ZM79.0023 46.312H80.2803V47.032C80.2803 49.048 83.1423 50.83 86.0403 51.226L85.4823 52.396C82.1703 51.892 79.0023 49.822 79.0023 47.032V46.312ZM100.565 46.132H102.059V62.404H100.565V46.132ZM89.7649 47.716H91.2409V57.796H89.7649V47.716ZM89.7649 56.914H91.0969C93.5629 56.914 96.1369 56.734 98.8909 56.158L99.0709 57.436C96.2449 58.012 93.6709 58.21 91.0969 58.21H89.7649V56.914ZM116.295 46.114H117.807V62.422H116.295V46.114ZM117.447 52.54H120.471V53.8H117.447V52.54ZM105.981 57.112H107.259C110.265 57.112 112.371 57.004 114.801 56.554L114.963 57.814C112.461 58.282 110.319 58.372 107.259 58.372H105.981V57.112ZM105.981 47.698H113.541V48.922H107.457V57.67H105.981V47.698ZM126.746 51.658H141.398V52.9H126.746V51.658ZM133.316 52.45H134.81V59.866H133.316V52.45ZM143.304 51.658H157.956V52.9H143.304V51.658ZM149.874 52.45H151.368V59.866H149.874V52.45Z" fill="black"/>
</svg>
