<svg width="375" height="41" viewBox="0 0 375 41" fill="none" xmlns="http://www.w3.org/2000/svg">
<rect x="-23" width="411" height="42" rx="8" fill="#5F333B"/>
<path fill-rule="evenodd" clip-rule="evenodd" d="M39 22V11.5H40.5V20.6755L43.1145 19.105C43.231 19.0352 43.3642 18.9983 43.5 18.9983C43.6358 18.9983 43.769 19.0352 43.8855 19.105L46.5 20.6755V11.5H48V22C48 22.1327 47.9649 22.263 47.8981 22.3777C47.8313 22.4923 47.7352 22.5872 47.6198 22.6527C47.5043 22.7181 47.3736 22.7517 47.2409 22.7501C47.1082 22.7485 46.9783 22.7117 46.8645 22.6435L43.5 20.6245L40.1355 22.645C40.0216 22.7133 39.8915 22.7501 39.7587 22.7516C39.6259 22.7532 39.4951 22.7194 39.3796 22.6538C39.2641 22.5882 39.1681 22.4931 39.1014 22.3782C39.0347 22.2633 38.9997 22.1328 39 22Z" fill="#FFE607"/>
<path d="M34.5 10H49.5C50.2956 10 51.0587 10.3161 51.6213 10.8787C52.1839 11.4413 52.5 12.2044 52.5 13V31C52.5 31.7956 52.1839 32.5587 51.6213 33.1213C51.0587 33.6839 50.2956 34 49.5 34H34.5C33.7044 34 32.9413 33.6839 32.3787 33.1213C31.8161 32.5587 31.5 31.7956 31.5 31V29.5H33V31C33 31.3978 33.158 31.7794 33.4393 32.0607C33.7206 32.342 34.1022 32.5 34.5 32.5H49.5C49.8978 32.5 50.2794 32.342 50.5607 32.0607C50.842 31.7794 51 31.3978 51 31V13C51 12.6022 50.842 12.2206 50.5607 11.9393C50.2794 11.658 49.8978 11.5 49.5 11.5H34.5C34.1022 11.5 33.7206 11.658 33.4393 11.9393C33.158 12.2206 33 12.6022 33 13V14.5H31.5V13C31.5 12.2044 31.8161 11.4413 32.3787 10.8787C32.9413 10.3161 33.7044 10 34.5 10Z" fill="#FFE607"/>
<path d="M31.5 16.6111V15.8611C31.5 15.6622 31.579 15.4714 31.7197 15.3308C31.8603 15.1901 32.0511 15.1111 32.25 15.1111C32.4489 15.1111 32.6397 15.1901 32.7803 15.3308C32.921 15.4714 33 15.6622 33 15.8611V16.6111H33.75C33.9489 16.6111 34.1397 16.6901 34.2803 16.8308C34.421 16.9714 34.5 17.1622 34.5 17.3611C34.5 17.56 34.421 17.7508 34.2803 17.8914C34.1397 18.0321 33.9489 18.1111 33.75 18.1111H30.75C30.5511 18.1111 30.3603 18.0321 30.2197 17.8914C30.079 17.7508 30 17.56 30 17.3611C30 17.1622 30.079 16.9714 30.2197 16.8308C30.3603 16.6901 30.5511 16.6111 30.75 16.6111H31.5ZM31.5 21.1111V20.3611C31.5 20.1622 31.579 19.9714 31.7197 19.8308C31.8603 19.6901 32.0511 19.6111 32.25 19.6111C32.4489 19.6111 32.6397 19.6901 32.7803 19.8308C32.921 19.9714 33 20.1622 33 20.3611V21.1111H33.75C33.9489 21.1111 34.1397 21.1901 34.2803 21.3308C34.421 21.4714 34.5 21.6622 34.5 21.8611C34.5 22.06 34.421 22.2508 34.2803 22.3914C34.1397 22.5321 33.9489 22.6111 33.75 22.6111H30.75C30.5511 22.6111 30.3603 22.5321 30.2197 22.3914C30.079 22.2508 30 22.06 30 21.8611C30 21.6622 30.079 21.4714 30.2197 21.3308C30.3603 21.1901 30.5511 21.1111 30.75 21.1111H31.5ZM31.5 25.6111V24.8611C31.5 24.6622 31.579 24.4714 31.7197 24.3308C31.8603 24.1901 32.0511 24.1111 32.25 24.1111C32.4489 24.1111 32.6397 24.1901 32.7803 24.3308C32.921 24.4714 33 24.6622 33 24.8611V25.6111H33.75C33.9489 25.6111 34.1397 25.6901 34.2803 25.8308C34.421 25.9714 34.5 26.1622 34.5 26.3611C34.5 26.56 34.421 26.7508 34.2803 26.8914C34.1397 27.0321 33.9489 27.1111 33.75 27.1111H30.75C30.5511 27.1111 30.3603 27.0321 30.2197 26.8914C30.079 26.7508 30 26.56 30 26.3611C30 26.1622 30.079 25.9714 30.2197 25.8308C30.3603 25.6901 30.5511 25.6111 30.75 25.6111H31.5Z" fill="#FFE607"/>
<path d="M253.455 10.56C253.596 10.3844 253.771 10.2434 253.967 10.1467C254.164 10.05 254.378 9.99998 254.595 10H267.405C267.622 9.99998 267.836 10.05 268.033 10.1467C268.229 10.2434 268.404 10.3844 268.545 10.56L272.459 15.4304C272.808 15.8653 273 16.4192 273 16.992V17.4C273 18.192 272.768 18.9642 272.337 19.6087C271.905 20.2532 271.296 20.7378 270.594 20.9948C269.891 21.2518 269.131 21.2683 268.42 21.042C267.708 20.8158 267.081 20.358 266.625 19.7328C266.292 20.1901 265.866 20.5601 265.378 20.8144C264.891 21.0688 264.355 21.2006 263.812 21.2C263.27 21.2006 262.734 21.0688 262.247 20.8144C261.759 20.5601 261.333 20.1901 261 19.7328C260.667 20.1901 260.241 20.5601 259.753 20.8144C259.266 21.0688 258.73 21.2006 258.188 21.2C257.645 21.2006 257.109 21.0688 256.622 20.8144C256.134 20.5601 255.708 20.1901 255.375 19.7328C254.919 20.358 254.292 20.8158 253.58 21.042C252.869 21.2683 252.109 21.2518 251.406 20.9948C250.704 20.7378 250.095 20.2532 249.663 19.6087C249.232 18.9642 249 18.192 249 17.4V16.992C249 16.4192 249.192 15.8653 249.542 15.4304L253.455 10.56ZM256.125 17.4C256.125 17.9835 256.342 18.5431 256.729 18.9556C257.116 19.3682 257.64 19.6 258.188 19.6C258.735 19.6 259.259 19.3682 259.646 18.9556C260.033 18.5431 260.25 17.9835 260.25 17.4C260.25 17.1878 260.329 16.9843 260.47 16.8343C260.61 16.6843 260.801 16.6 261 16.6C261.199 16.6 261.39 16.6843 261.53 16.8343C261.671 16.9843 261.75 17.1878 261.75 17.4C261.75 17.9835 261.967 18.5431 262.354 18.9556C262.741 19.3682 263.265 19.6 263.812 19.6C264.36 19.6 264.884 19.3682 265.271 18.9556C265.658 18.5431 265.875 17.9835 265.875 17.4C265.875 17.1878 265.954 16.9843 266.095 16.8343C266.235 16.6843 266.426 16.6 266.625 16.6C266.824 16.6 267.015 16.6843 267.155 16.8343C267.296 16.9843 267.375 17.1878 267.375 17.4C267.375 17.9835 267.592 18.5431 267.979 18.9556C268.366 19.3682 268.89 19.6 269.438 19.6C269.985 19.6 270.509 19.3682 270.896 18.9556C271.283 18.5431 271.5 17.9835 271.5 17.4V16.992C271.5 16.8013 271.436 16.6169 271.32 16.472L267.405 11.6H254.595L250.68 16.472C250.564 16.6169 250.5 16.8013 250.5 16.992V17.4C250.5 17.9835 250.717 18.5431 251.104 18.9556C251.491 19.3682 252.015 19.6 252.562 19.6C253.11 19.6 253.634 19.3682 254.021 18.9556C254.408 18.5431 254.625 17.9835 254.625 17.4C254.625 17.1878 254.704 16.9843 254.845 16.8343C254.985 16.6843 255.176 16.6 255.375 16.6C255.574 16.6 255.765 16.6843 255.905 16.8343C256.046 16.9843 256.125 17.1878 256.125 17.4ZM251.25 22C251.449 22 251.64 22.0843 251.78 22.2343C251.921 22.3843 252 22.5878 252 22.8V32.4H270V22.8C270 22.5878 270.079 22.3843 270.22 22.2343C270.36 22.0843 270.551 22 270.75 22C270.949 22 271.14 22.0843 271.28 22.2343C271.421 22.3843 271.5 22.5878 271.5 22.8V32.4H272.25C272.449 32.4 272.64 32.4843 272.78 32.6343C272.921 32.7843 273 32.9878 273 33.2C273 33.4122 272.921 33.6157 272.78 33.7657C272.64 33.9157 272.449 34 272.25 34H249.75C249.551 34 249.36 33.9157 249.22 33.7657C249.079 33.6157 249 33.4122 249 33.2C249 32.9878 249.079 32.7843 249.22 32.6343C249.36 32.4843 249.551 32.4 249.75 32.4H250.5V22.8C250.5 22.5878 250.579 22.3843 250.72 22.2343C250.86 22.0843 251.051 22 251.25 22ZM254.25 22.8C254.449 22.8 254.64 22.8843 254.78 23.0343C254.921 23.1843 255 23.3878 255 23.6V29.2H267V23.6C267 23.3878 267.079 23.1843 267.22 23.0343C267.36 22.8843 267.551 22.8 267.75 22.8C267.949 22.8 268.14 22.8843 268.28 23.0343C268.421 23.1843 268.5 23.3878 268.5 23.6V29.2C268.5 29.6243 268.342 30.0313 268.061 30.3314C267.779 30.6314 267.398 30.8 267 30.8H255C254.602 30.8 254.221 30.6314 253.939 30.3314C253.658 30.0313 253.5 29.6243 253.5 29.2V23.6C253.5 23.3878 253.579 23.1843 253.72 23.0343C253.86 22.8843 254.051 22.8 254.25 22.8Z" fill="#FFE607"/>
<path d="M188.654 8.27279C188.568 8.18632 188.466 8.11771 188.354 8.0709C188.242 8.02409 188.121 8 188 8C187.879 8 187.758 8.02409 187.646 8.0709C187.534 8.11771 187.432 8.18632 187.346 8.27279L176.27 19.4149C176.184 19.5013 176.116 19.6038 176.07 19.7166C176.023 19.8294 176 19.9503 176 20.0723V33.0715C176 33.3177 176.097 33.5539 176.27 33.728C176.443 33.9022 176.678 34 176.923 34H185.231C185.476 34 185.71 33.9022 185.883 33.728C186.057 33.5539 186.154 33.3177 186.154 33.0715V25.6434H189.846V33.0715C189.846 33.3177 189.943 33.5539 190.117 33.728C190.29 33.9022 190.524 34 190.769 34H199.077C199.322 34 199.557 33.9022 199.73 33.728C199.903 33.5539 200 33.3177 200 33.0715V20.0723C200 19.9503 199.977 19.8294 199.93 19.7166C199.884 19.6038 199.816 19.5013 199.73 19.4149L197.231 16.9024V10.7872C197.231 10.5409 197.134 10.3048 196.96 10.1306C196.787 9.95651 196.553 9.85868 196.308 9.85868H194.462C194.217 9.85868 193.982 9.95651 193.809 10.1306C193.636 10.3048 193.538 10.5409 193.538 10.7872V13.1883L188.654 8.27279ZM177.846 32.143V20.4567L188 10.2431L198.154 20.4567V32.143H191.692V24.7149C191.692 24.4686 191.595 24.2325 191.422 24.0583C191.249 23.8842 191.014 23.7864 190.769 23.7864H185.231C184.986 23.7864 184.751 23.8842 184.578 24.0583C184.405 24.2325 184.308 24.4686 184.308 24.7149V32.143H177.846Z" fill="#FFE607"/>
<path d="M104.5 14.9489C105.827 14.3842 107.731 13.7752 109.582 13.586C111.577 13.3815 113.269 13.6821 114.25 14.7337V29.6086C112.847 28.7997 111.07 28.6882 109.431 28.8561C107.661 29.0393 105.875 29.5597 104.5 30.0939V14.9489ZM115.75 14.7337C116.731 13.6821 118.423 13.3815 120.418 13.586C122.269 13.7752 124.173 14.3842 125.5 14.9489V30.0939C124.123 29.5597 122.34 29.0378 120.57 28.8577C118.929 28.6882 117.153 28.7981 115.75 29.6086V14.7337ZM115 13.354C113.522 12.0612 111.381 11.8689 109.431 12.0674C107.16 12.3009 104.868 13.093 103.44 13.7539C103.308 13.8145 103.197 13.9122 103.119 14.0354C103.042 14.1585 103 14.3018 103 14.4483V31.2371C103 31.3648 103.032 31.4904 103.092 31.6025C103.152 31.7146 103.239 31.8095 103.344 31.8786C103.45 31.9477 103.571 31.9887 103.696 31.998C103.821 32.0072 103.946 31.9844 104.061 31.9315C105.384 31.321 107.515 30.5869 109.581 30.3748C111.694 30.158 113.466 30.5075 114.415 31.7133C114.485 31.8024 114.574 31.8743 114.676 31.9238C114.777 31.9732 114.888 31.9989 115 31.9989C115.112 31.9989 115.223 31.9732 115.324 31.9238C115.426 31.8743 115.515 31.8024 115.585 31.7133C116.535 30.5075 118.306 30.158 120.418 30.3748C122.485 30.5869 124.618 31.321 125.94 31.9315C126.054 31.9844 126.179 32.0072 126.304 31.998C126.429 31.9887 126.55 31.9477 126.656 31.8786C126.761 31.8095 126.848 31.7146 126.908 31.6025C126.968 31.4904 127 31.3648 127 31.2371V14.4483C127 14.3018 126.958 14.1585 126.881 14.0354C126.803 13.9122 126.692 13.8145 126.56 13.7539C125.132 13.093 122.841 12.3009 120.57 12.0674C118.62 11.8674 116.478 12.0612 115 13.354Z" fill="#FFE607"/>
</svg>
