<svg width="337" height="110" viewBox="0 0 337 110" fill="none" xmlns="http://www.w3.org/2000/svg">
<path d="M323.304 83.436H324.424V96.092H323.304V83.436ZM321.26 88.518H323.682V89.47H321.26V88.518ZM317.984 85.06H319.104C319.104 88.322 317.984 91.346 314.372 93.376L313.686 92.55C316.864 90.772 317.984 88.21 317.984 85.284V85.06ZM314.176 85.06H318.376V86.026H314.176V85.06ZM320.49 83.772H321.596V95.476H320.49V83.772Z" fill="black"/>
<path d="M323.304 36.436H324.424V49.092H323.304V36.436ZM321.26 41.518H323.682V42.47H321.26V41.518ZM317.984 38.06H319.104C319.104 41.322 317.984 44.346 314.372 46.376L313.686 45.55C316.864 43.772 317.984 41.21 317.984 38.284V38.06ZM314.176 38.06H318.376V39.026H314.176V38.06ZM320.49 36.772H321.596V48.476H320.49V36.772Z" fill="black"/>
<line y1="59" x2="337.001" y2="59" stroke="#9B6871"/>
<line y1="109" x2="337.001" y2="109" stroke="#9B6871"/>
<path d="M22.913 37.151H24.052V39.65C24.052 42.897 22.097 46.161 19.649 47.368L18.833 46.246C21.06 45.192 22.913 42.302 22.913 39.65V37.151ZM23.185 37.151H24.324V39.65C24.324 42.251 26.177 44.903 28.438 45.872L27.639 46.994C25.157 45.838 23.185 42.846 23.185 39.65V37.151ZM19.343 36.522H27.928V37.712H19.343V36.522ZM30.002 34.958H31.413V50.326H30.002V34.958ZM38.4837 35.689H39.6567V37.185C39.6567 40.092 37.9227 42.591 35.3217 43.577L34.6077 42.455C36.9367 41.605 38.4837 39.48 38.4837 37.185V35.689ZM38.7387 35.689H39.8947V37.185C39.8947 39.395 41.4757 41.384 43.7537 42.183L43.0397 43.288C40.4727 42.353 38.7387 40.007 38.7387 37.185V35.689ZM36.8177 44.988H47.0857V50.326H45.6577V46.144H36.8177V44.988ZM45.6577 34.958H47.0857V44.206H45.6577V34.958ZM58.889 35.502H60.13V36.352C60.13 39.293 57.138 41.401 53.942 41.945L53.381 40.806C56.186 40.381 58.889 38.545 58.889 36.352V35.502ZM59.144 35.502H60.368V36.352C60.368 38.494 63.105 40.381 65.876 40.806L65.315 41.945C62.153 41.401 59.144 39.259 59.144 36.352V35.502ZM58.889 44.478H60.283V50.326H58.889V44.478ZM52.684 43.611H66.573V44.784H52.684V43.611Z" fill="black"/>
<path d="M17.85 97.198H31.773V98.371H17.85V97.198ZM24.072 93.526H25.483V97.538H24.072V93.526ZM19.482 86.046H20.876V88.783H28.713V86.046H30.107V93.9H19.482V86.046ZM20.876 89.922V92.744H28.713V89.922H20.876ZM37.0417 94.461H38.4867V100.326H37.0417V94.461ZM42.3287 94.461H43.7737V100.326H42.3287V94.461ZM33.4717 93.696H47.4117V94.869H33.4717V93.696ZM40.4077 85.57C43.6207 85.57 45.7797 86.862 45.7797 88.919C45.7797 90.959 43.6207 92.268 40.4077 92.268C37.2117 92.268 35.0357 90.959 35.0357 88.919C35.0357 86.862 37.2117 85.57 40.4077 85.57ZM40.4077 86.709C38.0617 86.709 36.4637 87.576 36.4637 88.919C36.4637 90.262 38.0617 91.129 40.4077 91.129C42.7537 91.129 44.3347 90.262 44.3347 88.919C44.3347 87.576 42.7537 86.709 40.4077 86.709ZM59.878 88.681H63.295V89.837H59.878V88.681ZM62.904 84.958H64.315V93.305H62.904V84.958ZM54.472 94.053H55.866V95.923H62.921V94.053H64.315V100.122H54.472V94.053ZM55.866 97.062V98.966H62.921V97.062H55.866ZM55.594 86.165H56.75V87.423C56.75 90.211 55.016 92.625 52.449 93.577L51.718 92.438C54.013 91.639 55.594 89.599 55.594 87.423V86.165ZM55.866 86.165H57.005V87.406C57.005 89.395 58.501 91.316 60.728 92.098L60.014 93.203C57.515 92.302 55.866 89.99 55.866 87.406V86.165ZM52.16 85.876H60.371V87.015H52.16V85.876ZM71.3687 86.284H72.5247V89.038C72.5247 92.574 70.6207 95.855 68.1047 97.13L67.2377 95.974C69.5157 94.886 71.3687 91.945 71.3687 89.038V86.284ZM71.6067 86.284H72.7627V89.038C72.7627 91.843 74.5987 94.665 76.8767 95.719L76.0267 96.841C73.5277 95.617 71.6067 92.455 71.6067 89.038V86.284ZM78.4747 84.941H79.8857V100.343H78.4747V84.941Z" fill="black"/>
<path d="M10.304 1.436H11.424V14.092H10.304V1.436ZM8.176 6.588H10.612V7.54H8.176V6.588ZM7.434 1.716H8.526V13.448H7.434V1.716ZM1.302 2.962H2.464V10.27H1.302V2.962ZM1.302 9.808H2.114C3.416 9.808 4.872 9.724 6.524 9.402L6.65 10.41C4.928 10.746 3.472 10.816 2.114 10.816H1.302V9.808ZM22.4324 4.712H25.2884V5.678H22.4324V4.712ZM24.9244 1.436H26.0864V8.982H24.9244V1.436ZM21.9284 9.36C24.5324 9.36 26.1424 10.242 26.1424 11.726C26.1424 13.224 24.5324 14.078 21.9284 14.078C19.3104 14.078 17.7004 13.224 17.7004 11.726C17.7004 10.242 19.3104 9.36 21.9284 9.36ZM21.9284 10.27C20.0244 10.27 18.8624 10.802 18.8624 11.726C18.8624 12.636 20.0244 13.168 21.9284 13.168C23.8324 13.168 24.9944 12.636 24.9944 11.726C24.9944 10.802 23.8324 10.27 21.9284 10.27ZM18.9044 2.71H19.8564V3.732C19.8564 6.07 18.4284 8.072 16.3284 8.856L15.7264 7.932C17.6024 7.246 18.9044 5.552 18.9044 3.732V2.71ZM19.1284 2.71H20.0664V3.732C20.0664 5.37 21.2984 6.938 23.1324 7.582L22.5444 8.506C20.4864 7.764 19.1284 5.86 19.1284 3.732V2.71ZM16.0764 2.36H22.8384V3.312H16.0764V2.36ZM28.5633 11.516H40.0293V12.482H28.5633V11.516ZM33.6873 8.492H34.8493V11.796H33.6873V8.492ZM29.9073 2.332H31.0553V4.586H37.5093V2.332H38.6573V8.8H29.9073V2.332ZM31.0553 5.524V7.848H37.5093V5.524H31.0553Z" fill="#75414B"/>
</svg>
