<svg width="313" height="22" viewBox="0 0 313 22" fill="none" xmlns="http://www.w3.org/2000/svg">
<path d="M34.641 4.151H35.763V6.65C35.763 9.846 33.808 13.144 31.411 14.368L30.595 13.246C32.788 12.175 34.641 9.251 34.641 6.65V4.151ZM34.896 4.151H36.018V6.65C36.018 9.081 37.752 11.818 39.979 12.872L39.18 13.994C36.749 12.787 34.896 9.693 34.896 6.65V4.151ZM31.139 3.522H39.418V4.712H31.139V3.522ZM41.237 1.958H42.665V17.326H41.237V1.958ZM42.325 8.163H45.181V9.353H42.325V8.163ZM52.6427 3.471H53.8667V4.117C53.8667 6.871 50.9427 8.894 47.8487 9.421L47.3047 8.299C50.0077 7.908 52.6427 6.14 52.6427 4.117V3.471ZM52.9997 3.471H54.2067V4.117C54.2067 6.14 56.8587 7.908 59.5447 8.299L59.0177 9.421C55.9067 8.894 52.9997 6.871 52.9997 4.117V3.471ZM52.6937 11.461H54.0877V17.326H52.6937V11.461ZM46.4887 10.713H60.3777V11.869H46.4887V10.713ZM47.7807 2.91H59.0347V4.049H47.7807V2.91ZM66.384 15.983H77.043V17.122H66.384V15.983ZM66.384 12.141H76.89V13.297H67.778V16.748H66.384V12.141ZM70.906 9.965H72.3V12.566H70.906V9.965ZM66.452 2.553H76.788V7.687H66.452V2.553ZM75.394 3.692H67.829V6.548H75.394V3.692ZM64.667 9.166H78.556V10.305H64.667V9.166ZM82.1927 6.565H92.6307V7.721H82.1927V6.565ZM80.3057 9.778H94.2457V10.934H80.3057V9.778ZM82.1927 2.519H83.5867V7.143H82.1927V2.519ZM82.0907 15.796H92.7157V16.952H82.0907V15.796ZM82.0907 12.464H83.4847V16.102H82.0907V12.464ZM109.687 1.958H111.098V9.914H109.687V1.958ZM101.17 10.662H111.115V14.351H102.581V16.544H101.204V13.331H109.721V11.784H101.17V10.662ZM101.204 16.034H111.625V17.156H101.204V16.034ZM102.598 3.318H103.754V4.117C103.754 6.837 101.986 9.081 99.385 9.948L98.722 8.843C101.017 8.095 102.598 6.208 102.598 4.117V3.318ZM102.887 3.318H104.043V4.117C104.043 6.072 105.641 7.84 107.919 8.537L107.256 9.625C104.672 8.826 102.887 6.701 102.887 4.117V3.318ZM99.096 2.825H107.511V3.964H99.096V2.825ZM114.14 9.812H128.063V10.968H114.14V9.812ZM120.498 10.526H121.909V14.062H120.498V10.526ZM115.925 2.672H126.261V8.078H115.925V2.672ZM124.867 3.811H117.302V6.939H124.867V3.811ZM115.908 15.83H126.516V16.986H115.908V15.83ZM115.908 12.583H117.302V16.238H115.908V12.583Z" fill="black"/>
<path d="M6.25 11C6.25 11.3315 6.1183 11.6495 5.88388 11.8839C5.64946 12.1183 5.33152 12.25 5 12.25C4.66848 12.25 4.35054 12.1183 4.11612 11.8839C3.8817 11.6495 3.75 11.3315 3.75 11C3.75 10.6685 3.8817 10.3505 4.11612 10.1161C4.35054 9.8817 4.66848 9.75 5 9.75C5.33152 9.75 5.64946 9.8817 5.88388 10.1161C6.1183 10.3505 6.25 10.6685 6.25 11ZM11.25 11C11.25 11.3315 11.1183 11.6495 10.8839 11.8839C10.6495 12.1183 10.3315 12.25 10 12.25C9.66848 12.25 9.35054 12.1183 9.11612 11.8839C8.8817 11.6495 8.75 11.3315 8.75 11C8.75 10.6685 8.8817 10.3505 9.11612 10.1161C9.35054 9.8817 9.66848 9.75 10 9.75C10.3315 9.75 10.6495 9.8817 10.8839 10.1161C11.1183 10.3505 11.25 10.6685 11.25 11ZM15 12.25C15.3315 12.25 15.6495 12.1183 15.8839 11.8839C16.1183 11.6495 16.25 11.3315 16.25 11C16.25 10.6685 16.1183 10.3505 15.8839 10.1161C15.6495 9.8817 15.3315 9.75 15 9.75C14.6685 9.75 14.3505 9.8817 14.1161 10.1161C13.8817 10.3505 13.75 10.6685 13.75 11C13.75 11.3315 13.8817 11.6495 14.1161 11.8839C14.3505 12.1183 14.6685 12.25 15 12.25Z" fill="black"/>
<path d="M2.70625 20.7537L2.73125 20.7487C5.01875 20.295 6.41625 19.6962 7.06625 19.3675C8.02306 19.6236 9.00951 19.7522 10 19.75C15.5225 19.75 20 15.8325 20 11C20 6.1675 15.5225 2.25 10 2.25C4.4775 2.25 0 6.1675 0 11C0 13.2 0.92875 15.2125 2.4625 16.75C2.3556 17.7377 2.13583 18.7099 1.8075 19.6475L1.80375 19.6612C1.71034 19.9298 1.60862 20.1953 1.49875 20.4575C1.4 20.69 1.59125 20.95 1.84 20.91C2.12957 20.8625 2.41835 20.8104 2.70625 20.7537ZM3.70625 16.8687C3.72376 16.6857 3.70069 16.5011 3.63868 16.3281C3.57667 16.155 3.47725 15.9977 3.3475 15.8675C2.0225 14.5375 1.25 12.835 1.25 11C1.25 7.01 5.005 3.5 10 3.5C14.995 3.5 18.75 7.01 18.75 11C18.75 14.99 14.995 18.5 10 18.5C9.11882 18.5022 8.24122 18.3878 7.39 18.16C7.09247 18.0803 6.77598 18.1132 6.50125 18.2525C6.0175 18.4975 4.95125 18.965 3.20875 19.3687C3.45164 18.5526 3.61818 17.7157 3.70625 16.8687Z" fill="black"/>
<path d="M305.272 14.1672L299.43 8.32546C299.267 8.16274 299.267 7.89892 299.43 7.7362L299.901 7.2648C300.064 7.10208 300.328 7.10208 300.491 7.2648L307.098 13.8725C307.261 14.0353 307.261 14.2991 307.098 14.4618L300.491 21.0695C300.328 21.2323 300.064 21.2323 299.901 21.0695L299.43 20.5981C299.267 20.4354 299.267 20.1716 299.43 20.0089L305.272 14.1672Z" fill="#988234"/>
</svg>
