<svg width="118" height="157" viewBox="0 0 118 157" fill="none" xmlns="http://www.w3.org/2000/svg">
<rect x="4.25" y="127.25" width="110.5" height="29.5" rx="14.75" fill="#FFB422" stroke="black" stroke-width="0.5"/>
<path d="M30.1909 146.632C30.2149 146.692 30.2269 146.782 30.2269 146.902C30.2269 147.01 30.2269 147.1 30.2269 147.172C30.2269 147.268 30.2089 147.358 30.1729 147.442C30.1369 147.526 30.0889 147.604 30.0289 147.676C29.9209 147.82 29.7649 147.928 29.5609 148C29.2729 148.096 29.0029 148.144 28.7509 148.144C28.6189 148.156 28.4809 148.162 28.3369 148.162C28.1929 148.162 28.0489 148.174 27.9049 148.198H27.8329C26.9089 148.21 25.9549 148.21 24.9709 148.198C24.7309 148.186 24.4609 148.186 24.1609 148.198C23.8609 148.222 23.5669 148.216 23.2789 148.18C22.9909 148.156 22.7269 148.09 22.4869 147.982C22.2589 147.862 22.0969 147.676 22.0009 147.424C21.9769 147.364 21.9589 147.31 21.9469 147.262C21.9349 147.202 21.9289 147.142 21.9289 147.082C21.8809 146.674 21.8629 146.272 21.8749 145.876C21.8869 145.48 21.8929 145.09 21.8929 144.706L21.9289 142.096V139.684C21.9289 139.252 21.9289 138.868 21.9289 138.532C21.9409 138.196 21.9529 137.824 21.9649 137.416V137.326C21.9769 137.206 21.9829 137.086 21.9829 136.966C21.9949 136.846 22.0009 136.726 22.0009 136.606C22.0249 136.33 22.0909 136.096 22.1989 135.904C22.2709 135.724 22.3969 135.58 22.5769 135.472C22.7329 135.364 22.9189 135.31 23.1349 135.31C23.2189 135.31 23.2969 135.316 23.3689 135.328C23.4529 135.328 23.5309 135.334 23.6029 135.346C23.6749 135.358 23.7409 135.382 23.8009 135.418C23.8729 135.454 23.9449 135.502 24.0169 135.562C24.0889 135.646 24.1549 135.748 24.2149 135.868C24.2629 136 24.2929 136.132 24.3049 136.264C24.3169 136.348 24.3289 136.426 24.3409 136.498C24.3529 136.57 24.3589 136.642 24.3589 136.714C24.3349 136.786 24.3229 136.858 24.3229 136.93C24.3229 137.002 24.3229 137.068 24.3229 137.128V137.452L24.2509 145.93L27.8149 145.966H28.6609C28.7329 145.966 28.8109 145.972 28.8949 145.984C28.9789 145.984 29.0629 145.99 29.1469 146.002C29.2429 146.014 29.3269 146.026 29.3989 146.038C29.4709 146.05 29.5429 146.068 29.6149 146.092C29.7469 146.128 29.8549 146.188 29.9389 146.272C30.0709 146.392 30.1549 146.512 30.1909 146.632ZM39.6103 136.12C39.6703 136.396 39.6763 136.678 39.6283 136.966C39.5923 137.242 39.5383 137.494 39.4663 137.722C39.3223 138.19 39.1543 138.712 38.9623 139.288C38.7703 139.864 38.5783 140.44 38.3863 141.016C38.1943 141.592 38.0083 142.138 37.8283 142.654C37.6483 143.158 37.4983 143.578 37.3783 143.914C37.2583 144.226 37.1323 144.58 37.0003 144.976C36.8683 145.372 36.7063 145.762 36.5143 146.146C36.3343 146.518 36.1183 146.86 35.8663 147.172C35.6263 147.484 35.3323 147.712 34.9843 147.856C34.6363 148 34.3183 148.036 34.0303 147.964C33.7423 147.88 33.4843 147.736 33.2563 147.532C33.0283 147.316 32.8183 147.052 32.6263 146.74C32.4463 146.416 32.2843 146.086 32.1403 145.75C31.9963 145.414 31.8643 145.09 31.7443 144.778C31.6243 144.454 31.5163 144.178 31.4203 143.95C31.0483 143.134 30.7123 142.27 30.4123 141.358C30.1123 140.446 29.8063 139.576 29.4943 138.748C29.4103 138.508 29.3143 138.22 29.2063 137.884C29.0983 137.536 29.0263 137.194 28.9903 136.858C28.9663 136.51 29.0083 136.198 29.1163 135.922C29.2243 135.634 29.4523 135.436 29.8003 135.328C29.8723 135.304 29.9443 135.286 30.0163 135.274C30.1003 135.25 30.1783 135.232 30.2503 135.22C30.3343 135.22 30.4123 135.226 30.4843 135.238C30.5563 135.25 30.6343 135.28 30.7183 135.328C30.7783 135.352 30.8383 135.382 30.8983 135.418C30.9583 135.442 31.0123 135.478 31.0603 135.526C31.1083 135.586 31.1503 135.646 31.1863 135.706C31.2343 135.766 31.2823 135.826 31.3303 135.886C31.3663 135.97 31.3963 136.048 31.4203 136.12C31.4563 136.18 31.4863 136.24 31.5103 136.3C31.5343 136.384 31.5643 136.462 31.6003 136.534C31.6363 136.594 31.6663 136.654 31.6903 136.714L31.7983 137.02L34.3903 144.418L36.9463 137.038L37.0723 136.732C37.0963 136.672 37.1203 136.612 37.1443 136.552C37.1683 136.48 37.1923 136.402 37.2163 136.318C37.2403 136.258 37.2643 136.198 37.2883 136.138C37.3243 136.066 37.3663 135.994 37.4143 135.922C37.4503 135.862 37.4863 135.802 37.5223 135.742C37.5703 135.67 37.6183 135.604 37.6663 135.544C37.7023 135.496 37.7443 135.454 37.7923 135.418C37.8523 135.382 37.9063 135.352 37.9543 135.328C38.0503 135.28 38.1343 135.25 38.2063 135.238C38.2903 135.226 38.3623 135.22 38.4223 135.22C38.4943 135.232 38.5663 135.25 38.6383 135.274C38.7223 135.286 38.8003 135.304 38.8723 135.328C39.1003 135.388 39.2683 135.49 39.3763 135.634C39.4963 135.778 39.5743 135.94 39.6103 136.12ZM43.1352 148C43.1352 148.312 43.0212 148.576 42.7932 148.792C42.5772 149.02 42.3132 149.134 42.0012 149.134C41.6892 149.134 41.4192 149.02 41.1912 148.792C40.9752 148.576 40.8672 148.312 40.8672 148C40.8672 147.688 40.9752 147.418 41.1912 147.19C41.4192 146.962 41.6892 146.848 42.0012 146.848C42.3132 146.848 42.5772 146.962 42.7932 147.19C43.0212 147.418 43.1352 147.688 43.1352 148ZM47.3687 135.004C47.4527 134.98 47.5307 134.962 47.6027 134.95C47.6747 134.926 47.7467 134.908 47.8187 134.896C47.9027 134.872 48.0047 134.86 48.1247 134.86C48.2567 134.848 48.3767 134.854 48.4847 134.878C48.6047 134.89 48.7127 134.926 48.8087 134.986C48.9167 135.034 48.9947 135.112 49.0427 135.22C49.0907 135.34 49.1207 135.484 49.1327 135.652C49.1567 135.808 49.1687 135.97 49.1687 136.138C49.1687 136.306 49.1627 136.474 49.1507 136.642C49.1507 136.798 49.1507 136.942 49.1507 137.074V146.272C49.1507 146.404 49.1507 146.542 49.1507 146.686C49.1627 146.818 49.1627 146.956 49.1507 147.1C49.1387 147.244 49.1027 147.382 49.0427 147.514C48.9827 147.634 48.8927 147.736 48.7727 147.82C48.6047 147.952 48.3767 148.018 48.0887 148.018C47.8127 148.03 47.5727 148 47.3687 147.928C47.1527 147.856 47.0207 147.718 46.9727 147.514C46.9367 147.31 46.9187 147.106 46.9187 146.902C46.8347 145.318 46.7927 143.77 46.7927 142.258C46.8047 140.734 46.8107 139.168 46.8107 137.56C46.7867 137.62 46.7027 137.674 46.5587 137.722C46.4267 137.77 46.2707 137.812 46.0907 137.848C45.9227 137.884 45.7607 137.914 45.6047 137.938C45.4487 137.962 45.3467 137.974 45.2987 137.974C44.9867 138.01 44.6987 137.98 44.4347 137.884C44.1827 137.776 44.0387 137.536 44.0027 137.164C43.9547 136.78 44.0387 136.48 44.2547 136.264C44.4827 136.048 44.7707 135.886 45.1187 135.778C45.5027 135.646 45.8747 135.514 46.2347 135.382C46.6067 135.238 46.9847 135.112 47.3687 135.004Z" fill="#C32541"/>
<path d="M64.3278 135.157H66.6678V142.771H59.2338V135.157H61.5558V137.497H64.3278V135.157ZM61.5558 140.881H64.3278V139.405H61.5558V140.881ZM70.9338 138.757H72.6978V140.773H70.9338V144.409H68.6838V134.527H70.9338V138.757ZM71.2758 149.161H60.5118V144.355H62.7798V147.055H71.2758V149.161ZM87.217 142.951H81.673V144.409H86.047V146.695C86.047 147.151 86.005 147.571 85.921 147.955C85.837 148.339 85.747 148.669 85.651 148.945C85.531 149.269 85.405 149.569 85.273 149.845H83.041C83.245 149.449 83.401 149.047 83.509 148.639C83.617 148.243 83.689 147.889 83.725 147.577C83.773 147.205 83.791 146.851 83.779 146.515H74.959V144.409H79.333V142.951H73.771V141.241H87.217V142.951ZM75.247 134.545H85.741V136.363H81.997C82.213 136.699 82.465 136.999 82.753 137.263C83.053 137.527 83.365 137.761 83.689 137.965C84.013 138.169 84.343 138.343 84.679 138.487C85.027 138.631 85.357 138.745 85.669 138.829V140.467C84.469 140.335 83.455 140.035 82.627 139.567C81.811 139.099 81.103 138.523 80.503 137.839C80.191 138.223 79.819 138.571 79.387 138.883C78.955 139.183 78.499 139.453 78.019 139.693C77.551 139.933 77.077 140.137 76.597 140.305C76.129 140.473 75.703 140.605 75.319 140.701V138.919C75.727 138.787 76.135 138.613 76.543 138.397C76.951 138.181 77.317 137.953 77.641 137.713C77.977 137.461 78.253 137.215 78.469 136.975C78.697 136.735 78.835 136.531 78.883 136.363H75.247V134.545ZM93.9785 146.497H91.0625C90.7385 146.497 90.4145 146.443 90.0905 146.335C89.7665 146.215 89.4665 146.035 89.1905 145.795C88.9265 145.543 88.7105 145.219 88.5425 144.823C88.3745 144.415 88.2905 143.923 88.2905 143.347V139.063C88.2905 138.595 88.3625 138.163 88.5065 137.767C88.6625 137.359 88.8785 137.005 89.1545 136.705C89.4425 136.405 89.7905 136.171 90.1985 136.003C90.6065 135.835 91.0745 135.751 91.6025 135.751H93.2045C93.7085 135.751 94.1585 135.841 94.5545 136.021C94.9505 136.189 95.2865 136.429 95.5625 136.741C95.8505 137.041 96.0665 137.395 96.2105 137.803C96.3665 138.211 96.4445 138.649 96.4445 139.117V143.455C96.4445 143.911 96.3725 144.325 96.2285 144.697C96.0965 145.069 95.9165 145.393 95.6885 145.669C95.4605 145.933 95.1965 146.137 94.8965 146.281C94.5965 146.425 94.2905 146.497 93.9785 146.497ZM100.368 149.701V134.563H97.9565V149.701H100.368ZM91.9625 144.643H92.8625C93.0905 144.643 93.2825 144.595 93.4385 144.499C93.6065 144.403 93.7445 144.283 93.8525 144.139C93.9605 143.983 94.0385 143.815 94.0865 143.635C94.1465 143.443 94.1765 143.263 94.1765 143.095V139.279C94.1765 139.087 94.1405 138.907 94.0685 138.739C93.9965 138.559 93.9005 138.403 93.7805 138.271C93.6725 138.127 93.5345 138.019 93.3665 137.947C93.2105 137.863 93.0425 137.821 92.8625 137.821H91.9625C91.7825 137.821 91.6085 137.863 91.4405 137.947C91.2725 138.019 91.1225 138.127 90.9905 138.271C90.8705 138.403 90.7685 138.559 90.6845 138.739C90.6125 138.907 90.5765 139.087 90.5765 139.279V143.095C90.5765 143.683 90.6905 144.091 90.9185 144.319C91.1585 144.535 91.5065 144.643 91.9625 144.643Z" fill="#6A0C1D"/>
<path d="M117.75 56C117.75 86.7777 91.4592 111.75 59 111.75C26.5408 111.75 0.25 86.7777 0.25 56C0.25 25.2223 26.5408 0.25 59 0.25C91.4592 0.25 117.75 25.2223 117.75 56Z" fill="#FFBF44" stroke="black" stroke-width="0.5"/>
<path d="M21.9694 75.4419C23.3786 78.2602 24.8944 80.8834 28.1387 81.4579C29.1236 84.439 29.6916 85.7419 34.0168 87.2523C37.6905 88.5352 41.2505 89.4755 44.9977 90.4123C49.306 91.4893 55.5287 90.8655 59.4151 88.7928C67.3129 84.5806 78.8871 86.1446 87.7363 85.7513C95.073 85.4252 98.0129 77.8306 102.391 73.1509C105 70.362 102.963 66.4761 105.037 63.7105C107.278 60.7222 107.351 56.8436 105.235 53.7961C103.397 51.1497 102.557 47.256 100.732 44.9087C98.5943 42.1606 96.5898 39.6363 95.0832 36.4558C93.8275 33.8048 87.5711 31.1592 85.0108 30.3333C77.4443 27.8925 70.2038 24.7613 62.18 23.3024C57.5545 22.4614 52.2589 23.2234 47.5652 23.2234C45.6536 23.2234 43.399 22.8645 41.5612 23.3814C33.0483 25.7757 23.8633 31.9244 18.8094 39.1813C16.2919 42.7962 11.5415 47.642 11.5415 52.3741C11.5415 53.6998 12.1284 54.6877 12.2525 55.9291C12.6906 60.3097 14.8051 66.1953 19.2439 67.305C20.5039 67.62 21.2433 73.9896 21.9694 75.4419Z" fill="#FAE392"/>
<path d="M28.6053 81.5249C25.0364 81.1283 23.4444 78.392 21.9694 75.4419C21.2433 73.9896 20.5039 67.62 19.2439 67.305C14.8051 66.1953 12.6906 60.3097 12.2525 55.9291C12.1284 54.6877 11.5415 53.6998 11.5415 52.3741C11.5415 47.642 16.2919 42.7962 18.8094 39.1813C23.8633 31.9244 33.0483 25.7757 41.5612 23.3814C43.3991 22.8645 45.6536 23.2234 47.5652 23.2234C52.2589 23.2234 57.5545 22.4614 62.18 23.3024C70.2038 24.7613 77.4443 27.8925 85.0108 30.3333C87.5711 31.1592 93.8275 33.8048 95.0832 36.4558C96.5898 39.6363 98.5943 42.1606 100.732 44.9087C102.557 47.256 103.397 51.1497 105.235 53.7961C107.351 56.8436 107.278 60.7222 105.037 63.7105C102.963 66.4761 105 70.362 102.391 73.1509C98.0129 77.8306 95.073 85.4252 87.7363 85.7513C78.8871 86.1446 67.3129 84.5806 59.4151 88.7928C55.5287 90.8655 49.306 91.4893 44.9977 90.4123C41.2505 89.4755 37.6905 88.5352 34.0168 87.2523C28.5388 85.3393 29.0877 83.7591 27.1834 78.6809" stroke="black" stroke-width="2" stroke-linecap="round"/>
<path d="M41.313 51.5598C44.3132 50.0597 46.017 50.0696 49.1339 50.8488" stroke="black" stroke-width="2" stroke-linecap="round"/>
<path d="M68.3308 48.7159C68.6129 46.4595 75.9356 46.8844 77.5737 47.2939" stroke="black" stroke-width="2" stroke-linecap="round"/>
<path d="M51.9778 60.0919C52.6441 61.7577 54.1282 63.5686 56.0857 63.6469C57.7121 63.7119 58.5822 61.1988 59.7987 61.6719C63.7268 63.1995 62.6116 60.3393 65.4867 59.3809" stroke="black" stroke-width="2" stroke-linecap="round"/>
<path d="M57.6658 63.647C57.6658 64.7301 57.1729 67.3514 57.7843 68.2684C58.4318 69.2396 61.7162 69.9748 62.6032 68.9399C65.1252 65.9976 64.0856 65.8217 62.6427 62.936" stroke="black" stroke-width="2" stroke-linecap="round"/>
</svg>
