<svg width="118" height="161" viewBox="0 0 118 161" fill="none" xmlns="http://www.w3.org/2000/svg">
<rect x="4.25" y="127.25" width="110.5" height="29.5" rx="14.75" fill="#FFC759" stroke="black" stroke-width="0.5"/>
<path d="M71.4378 134.545V149.701H68.9178V141.565H65.3538V139.045H68.9178V134.545H71.4378ZM67.2798 143.887V146.155H59.2338V136.219H61.7178V143.887H67.2798ZM79.1829 135.157V137.029C79.1709 138.001 79.0689 138.829 78.8769 139.513C78.6969 140.197 78.4869 140.761 78.2469 141.205C77.9709 141.721 77.6649 142.153 77.3289 142.501H74.8989C75.3069 142.069 75.6309 141.601 75.8709 141.097C76.1229 140.581 76.3089 140.071 76.4289 139.567C76.5609 139.063 76.6449 138.595 76.6809 138.163C76.7169 137.731 76.7349 137.383 76.7349 137.119H72.5229V135.157H79.1829ZM81.1629 138.055V134.527H83.1609V144.103H81.1629V140.251H79.4889V138.055H81.1629ZM84.2589 134.527H86.2929V144.103H84.2589V134.527ZM80.1909 144.661L82.3329 144.679C82.5249 145.087 82.7649 145.513 83.0529 145.957C83.3529 146.401 83.6649 146.845 83.9889 147.289C84.3129 147.721 84.6429 148.141 84.9789 148.549C85.3269 148.969 85.6449 149.347 85.9329 149.683H83.2689C82.8729 149.203 82.5069 148.753 82.1709 148.333C81.8349 147.925 81.5109 147.487 81.1989 147.019C80.8989 147.439 80.5689 147.889 80.2089 148.369C79.8489 148.861 79.4829 149.299 79.1109 149.683H76.3209C76.9329 149.035 77.4729 148.405 77.9409 147.793C78.4209 147.193 78.8289 146.659 79.1649 146.191C79.5609 145.639 79.9029 145.129 80.1909 144.661ZM93.0644 146.497H90.1484C89.8244 146.497 89.5004 146.443 89.1764 146.335C88.8524 146.215 88.5524 146.035 88.2764 145.795C88.0124 145.543 87.7964 145.219 87.6284 144.823C87.4604 144.415 87.3764 143.923 87.3764 143.347V139.063C87.3764 138.595 87.4484 138.163 87.5924 137.767C87.7484 137.359 87.9644 137.005 88.2404 136.705C88.5284 136.405 88.8764 136.171 89.2844 136.003C89.6924 135.835 90.1604 135.751 90.6884 135.751H92.2904C92.7944 135.751 93.2444 135.841 93.6404 136.021C94.0364 136.189 94.3724 136.429 94.6484 136.741C94.9364 137.041 95.1524 137.395 95.2964 137.803C95.4524 138.211 95.5304 138.649 95.5304 139.117V143.455C95.5304 143.911 95.4584 144.325 95.3144 144.697C95.1824 145.069 95.0024 145.393 94.7744 145.669C94.5464 145.933 94.2824 146.137 93.9824 146.281C93.6824 146.425 93.3764 146.497 93.0644 146.497ZM99.4544 149.701V134.563H97.0424V149.701H99.4544ZM91.0484 144.643H91.9484C92.1764 144.643 92.3684 144.595 92.5244 144.499C92.6924 144.403 92.8304 144.283 92.9384 144.139C93.0464 143.983 93.1244 143.815 93.1724 143.635C93.2324 143.443 93.2624 143.263 93.2624 143.095V139.279C93.2624 139.087 93.2264 138.907 93.1544 138.739C93.0824 138.559 92.9864 138.403 92.8664 138.271C92.7584 138.127 92.6204 138.019 92.4524 137.947C92.2964 137.863 92.1284 137.821 91.9484 137.821H91.0484C90.8684 137.821 90.6944 137.863 90.5264 137.947C90.3584 138.019 90.2084 138.127 90.0764 138.271C89.9564 138.403 89.8544 138.559 89.7704 138.739C89.6984 138.907 89.6624 139.087 89.6624 139.279V143.095C89.6624 143.683 89.7764 144.091 90.0044 144.319C90.2444 144.535 90.5924 144.643 91.0484 144.643Z" fill="#6A0C1D"/>
<path d="M117.75 56C117.75 86.7777 91.4592 111.75 59 111.75C26.5408 111.75 0.25 86.7777 0.25 56C0.25 25.2223 26.5408 0.25 59 0.25C91.4592 0.25 117.75 25.2223 117.75 56Z" fill="#FFBF44" stroke="black" stroke-width="0.5"/>
<path d="M24.0742 74.6158C25.4356 77.3384 26.9 79.8725 30.0343 80.4275C30.9857 83.3073 31.5345 84.5661 35.713 86.0252C39.262 87.2645 42.7014 88.1729 46.3214 89.0778C50.4836 90.1183 56.4953 89.5157 60.2498 87.5133C67.8798 83.4442 79.0613 84.9551 87.6104 84.5751C94.6982 84.2601 97.5385 76.9233 101.768 72.4026C104.288 69.7083 102.321 65.9544 104.324 63.2827C106.49 60.3958 106.56 56.649 104.515 53.7049C102.74 51.1484 101.929 47.3869 100.165 45.1193C98.1001 42.4645 96.1636 40.0259 94.7081 36.9534C93.495 34.3924 87.4508 31.8367 84.9774 31.0388C77.6675 28.6809 70.6726 25.656 62.921 24.2466C58.4523 23.4342 53.3364 24.1703 48.8018 24.1703C46.9551 24.1703 44.777 23.8236 43.0015 24.3229C34.7773 26.6359 25.9039 32.5758 21.0214 39.5863C18.5893 43.0785 14 47.7598 14 52.3312C14 53.6119 14.5669 54.5663 14.6869 55.7655C15.1101 59.9973 17.1529 65.6831 21.4412 66.7551C22.6584 67.0594 23.3727 73.2128 24.0742 74.6158Z" fill="#FEC32C"/>
<path d="M30.4851 80.4922C27.0372 80.1091 25.4992 77.4657 24.0742 74.6158C23.3727 73.2128 22.6584 67.0594 21.4412 66.7551C17.1529 65.6831 15.1101 59.9973 14.6869 55.7655C14.5669 54.5663 14 53.6119 14 52.3312C14 47.7598 18.5893 43.0785 21.0214 39.5863C25.9039 32.5758 34.7773 26.6359 43.0015 24.3229C44.777 23.8236 46.9551 24.1703 48.8018 24.1703C53.3364 24.1703 58.4523 23.4342 62.921 24.2466C70.6726 25.656 77.6675 28.6809 84.9774 31.0388C87.4508 31.8367 93.495 34.3924 94.7081 36.9534C96.1636 40.0259 98.1001 42.4645 100.165 45.1193C101.929 47.3869 102.74 51.1484 104.515 53.7049C106.56 56.649 106.49 60.3958 104.324 63.2827C102.321 65.9544 104.288 69.7083 101.768 72.4026C97.5385 76.9233 94.6982 84.2601 87.6104 84.5751C79.0614 84.9551 67.8798 83.4442 60.2498 87.5133C56.4953 89.5157 50.4836 90.1183 46.3214 89.0778C42.7014 88.1729 39.262 87.2645 35.713 86.0252C30.4208 84.1772 30.9511 82.6506 29.1113 77.7448" stroke="black" stroke-width="3" stroke-linecap="round"/>
<path d="M40.4294 49.2122C43.3279 47.7631 44.9739 47.7726 47.9851 48.5254" stroke="black" stroke-width="3" stroke-linecap="round"/>
<path d="M66.5308 46.4651C66.8032 44.2854 73.8776 44.6958 75.4602 45.0914" stroke="black" stroke-width="3" stroke-linecap="round"/>
<path d="M50.7324 57.4548C51.3761 59.0641 52.8099 60.8134 54.701 60.8891C56.2722 60.9519 57.1128 58.5241 58.2881 58.9811C62.0829 60.4568 61.0056 57.6937 63.7831 56.7679" stroke="black" stroke-width="3" stroke-linecap="round"/>
<path d="M56.2275 60.8889C56.2275 61.9352 55.7514 64.4675 56.342 65.3534C56.9675 66.2917 60.1406 67.0019 60.9975 66.0021C63.434 63.1597 62.4296 62.9898 61.0357 60.202" stroke="black" stroke-width="3" stroke-linecap="round"/>
<path d="M18.6192 51.395C18.4822 52.7647 18.151 53.2869 18.6192 54.6912" stroke="#100F0F" stroke-linecap="round"/>
<path d="M22.7395 60.8715C27.0195 60.8715 24.7711 66.4195 27.684 67.8759" stroke="#100F0F" stroke-linecap="round"/>
<path d="M45.8135 81.0605C47.5156 81.0605 47.6383 81.6233 49.0182 82.5255C49.8072 83.0414 51.502 82.7086 52.4061 82.7086" stroke="#100F0F" stroke-linecap="round"/>
<path d="M86.1936 77.7645C86.3451 75.189 88.6755 76.1164 90.314 76.1164" stroke="#100F0F" stroke-linecap="round"/>
<path d="M94.8463 50.9832C93.2888 51.1778 95.7748 55.2943 96.0596 55.7214C96.5336 56.4325 96.1762 57.9599 97.0897 57.9876C98.9136 58.0428 98.5547 58.8765 98.5547 60.4597" stroke="#100F0F" stroke-linecap="round"/>
<path d="M32.6282 37.3861C32.8 36.0113 35.363 33.7911 36.3365 35.738" stroke="#100F0F" stroke-linecap="round"/>
<path d="M68.8882 31.6179C69.9297 31.6179 70.7862 32.0299 71.7725 32.0299" stroke="#100F0F" stroke-linecap="round"/>
<path d="M72.1843 32.0298C72.6946 32.54 73.2426 32.8726 73.8325 33.2659" stroke="#100F0F" stroke-linecap="round"/>
<path d="M28.3524 147.199C28.3764 147.259 28.3884 147.349 28.3884 147.469C28.3884 147.577 28.3884 147.667 28.3884 147.739C28.3884 147.835 28.3704 147.925 28.3344 148.009C28.2984 148.093 28.2504 148.171 28.1904 148.243C28.0824 148.387 27.9264 148.495 27.7224 148.567C27.4344 148.663 27.1644 148.711 26.9124 148.711C26.7804 148.723 26.6424 148.729 26.4984 148.729C26.3544 148.729 26.2104 148.741 26.0664 148.765H25.9944C25.0704 148.777 24.1164 148.777 23.1324 148.765C22.8924 148.753 22.6224 148.753 22.3224 148.765C22.0224 148.789 21.7284 148.783 21.4404 148.747C21.1524 148.723 20.8884 148.657 20.6484 148.549C20.4204 148.429 20.2584 148.243 20.1624 147.991C20.1384 147.931 20.1204 147.877 20.1084 147.829C20.0964 147.769 20.0904 147.709 20.0904 147.649C20.0424 147.241 20.0244 146.839 20.0364 146.443C20.0484 146.047 20.0544 145.657 20.0544 145.273L20.0904 142.663V140.251C20.0904 139.819 20.0904 139.435 20.0904 139.099C20.1024 138.763 20.1144 138.391 20.1264 137.983V137.893C20.1384 137.773 20.1444 137.653 20.1444 137.533C20.1564 137.413 20.1624 137.293 20.1624 137.173C20.1864 136.897 20.2524 136.663 20.3604 136.471C20.4324 136.291 20.5584 136.147 20.7384 136.039C20.8944 135.931 21.0804 135.877 21.2964 135.877C21.3804 135.877 21.4584 135.883 21.5304 135.895C21.6144 135.895 21.6924 135.901 21.7644 135.913C21.8364 135.925 21.9024 135.949 21.9624 135.985C22.0344 136.021 22.1064 136.069 22.1784 136.129C22.2504 136.213 22.3164 136.315 22.3764 136.435C22.4244 136.567 22.4544 136.699 22.4664 136.831C22.4784 136.915 22.4904 136.993 22.5024 137.065C22.5144 137.137 22.5204 137.209 22.5204 137.281C22.4964 137.353 22.4844 137.425 22.4844 137.497C22.4844 137.569 22.4844 137.635 22.4844 137.695V138.019L22.4124 146.497L25.9764 146.533H26.8224C26.8944 146.533 26.9724 146.539 27.0564 146.551C27.1404 146.551 27.2244 146.557 27.3084 146.569C27.4044 146.581 27.4884 146.593 27.5604 146.605C27.6324 146.617 27.7044 146.635 27.7764 146.659C27.9084 146.695 28.0164 146.755 28.1004 146.839C28.2324 146.959 28.3164 147.079 28.3524 147.199ZM38.1424 140.245C38.193 140.397 38.2057 140.568 38.1804 140.758C38.155 140.948 38.1107 141.144 38.0474 141.347C37.984 141.537 37.908 141.727 37.8194 141.917C37.7434 142.094 37.6737 142.252 37.6104 142.392C37.281 143.063 36.9707 143.722 36.6794 144.368C36.388 145.014 36.046 145.717 35.6534 146.477C35.5774 146.629 35.4887 146.812 35.3874 147.028C35.2987 147.23 35.1974 147.433 35.0834 147.636C34.9694 147.826 34.8427 148.003 34.7034 148.168C34.5767 148.332 34.4374 148.453 34.2854 148.529C34.1587 148.605 34.032 148.636 33.9054 148.624C33.804 148.649 33.69 148.617 33.5634 148.529C33.4114 148.453 33.2657 148.332 33.1264 148.168C32.9997 148.003 32.8794 147.826 32.7654 147.636C32.6514 147.433 32.5437 147.23 32.4424 147.028C32.3537 146.812 32.2714 146.629 32.1954 146.477C32.0434 146.185 31.8977 145.913 31.7584 145.66C31.6317 145.406 31.4924 145.134 31.3404 144.843C31.201 144.539 31.0427 144.197 30.8654 143.817C30.688 143.424 30.479 142.949 30.2384 142.392C30.175 142.24 30.1054 142.081 30.0294 141.917C29.9534 141.752 29.8837 141.575 29.8204 141.385C29.7697 141.195 29.7317 141.005 29.7064 140.815C29.6937 140.612 29.7064 140.409 29.7444 140.207C29.7824 140.017 29.8774 139.865 30.0294 139.751C30.1814 139.637 30.3524 139.561 30.5424 139.523C30.7324 139.485 30.9224 139.491 31.1124 139.542C31.3024 139.58 31.4544 139.662 31.5684 139.789C31.6824 139.903 31.79 140.055 31.8914 140.245C31.9927 140.435 32.0877 140.637 32.1764 140.853C32.2777 141.055 32.3664 141.264 32.4424 141.48C32.531 141.682 32.6134 141.86 32.6894 142.012C32.8667 142.379 33.063 142.778 33.2784 143.209C33.5064 143.639 33.709 144.038 33.8864 144.406C34.013 144.114 34.127 143.874 34.2284 143.684C34.3297 143.481 34.4247 143.285 34.5134 143.095C34.6147 142.905 34.716 142.696 34.8174 142.468C34.9314 142.24 35.0707 141.948 35.2354 141.594C35.3874 141.264 35.5394 140.941 35.6914 140.625C35.856 140.308 36.0524 140.029 36.2804 139.789C36.3944 139.662 36.54 139.58 36.7174 139.542C36.8947 139.491 37.0784 139.485 37.2684 139.523C37.4584 139.561 37.6294 139.643 37.7814 139.77C37.946 139.884 38.0664 140.042 38.1424 140.245ZM41.8725 148.567C41.8725 148.896 41.7521 149.175 41.5115 149.403C41.2835 149.643 41.0048 149.764 40.6755 149.764C40.3461 149.764 40.0611 149.643 39.8205 149.403C39.5925 149.175 39.4785 148.896 39.4785 148.567C39.4785 148.237 39.5925 147.952 39.8205 147.712C40.0611 147.471 40.3461 147.351 40.6755 147.351C41.0048 147.351 41.2835 147.471 41.5115 147.712C41.7521 147.952 41.8725 148.237 41.8725 148.567ZM45.3912 139.314C45.2012 139.605 44.9732 139.782 44.7072 139.846C44.4538 139.909 44.2068 139.89 43.9662 139.789C43.7255 139.687 43.5228 139.523 43.3582 139.295C43.2062 139.054 43.1428 138.782 43.1682 138.478C43.1808 138.275 43.2315 138.053 43.3202 137.813C43.4088 137.572 43.5165 137.344 43.6432 137.129C43.7825 136.901 43.9282 136.692 44.0802 136.502C44.2448 136.299 44.4095 136.128 44.5742 135.989C44.8782 135.748 45.2202 135.539 45.6002 135.362C45.9928 135.184 46.3982 135.051 46.8162 134.963C47.2468 134.874 47.6712 134.836 48.0892 134.849C48.5198 134.861 48.9188 134.925 49.2862 135.039C50.2995 135.355 51.0848 135.856 51.6422 136.54C52.1995 137.224 52.4782 138.11 52.4782 139.2C52.4782 139.719 52.4275 140.188 52.3262 140.606C52.2375 141.011 52.0728 141.404 51.8322 141.784C51.6042 142.164 51.2938 142.55 50.9012 142.943C50.5212 143.335 50.0462 143.766 49.4762 144.235C49.2862 144.399 49.0898 144.564 48.8872 144.729C48.6845 144.893 48.4818 145.058 48.2792 145.223C48.2158 145.273 48.0955 145.349 47.9182 145.451C47.7408 145.552 47.5825 145.653 47.4432 145.755C47.3038 145.856 47.2215 145.951 47.1962 146.04C47.1708 146.128 47.2722 146.179 47.5002 146.192C47.7788 146.217 48.0005 146.223 48.1652 146.211C48.3298 146.198 48.5515 146.192 48.8302 146.192C49.1595 146.192 49.4825 146.185 49.7992 146.173C50.1158 146.16 50.4325 146.166 50.7492 146.192C50.8758 146.204 51.0152 146.211 51.1672 146.211C51.3192 146.198 51.4712 146.198 51.6232 146.211C51.7752 146.211 51.9208 146.23 52.0602 146.268C52.1995 146.293 52.3198 146.35 52.4212 146.439C52.5225 146.527 52.5985 146.648 52.6492 146.8C52.6998 146.952 52.7252 147.116 52.7252 147.294C52.7378 147.458 52.7252 147.623 52.6872 147.788C52.6492 147.94 52.5858 148.06 52.4972 148.149C52.3325 148.339 52.1298 148.434 51.8892 148.434C51.6485 148.421 51.4205 148.415 51.2052 148.415H44.3842C44.2575 148.415 44.1182 148.421 43.9662 148.434C43.8268 148.446 43.7002 148.434 43.5862 148.396C43.3582 148.332 43.2442 148.212 43.2442 148.035C43.2568 147.857 43.2632 147.674 43.2632 147.484C43.2632 147.167 43.3392 146.876 43.4912 146.61C43.6432 146.331 43.8332 146.078 44.0612 145.85C44.3018 145.609 44.5552 145.387 44.8212 145.185C45.0872 144.982 45.3342 144.786 45.5622 144.596C45.8915 144.304 46.2462 144.013 46.6262 143.722C47.0062 143.43 47.3672 143.139 47.7092 142.848C48.1525 142.48 48.5262 142.145 48.8302 141.841C49.1468 141.537 49.4002 141.252 49.5902 140.986C49.7802 140.72 49.9195 140.46 50.0082 140.207C50.0968 139.941 50.1412 139.662 50.1412 139.371C50.1412 138.725 49.9448 138.231 49.5522 137.889C49.1595 137.534 48.6592 137.357 48.0512 137.357C47.6078 137.357 47.1898 137.452 46.7972 137.642C46.4172 137.832 46.1005 138.11 45.8472 138.478C45.7712 138.617 45.6952 138.763 45.6192 138.915C45.5558 139.054 45.4798 139.187 45.3912 139.314Z" fill="#C32541"/>
</svg>
