<svg width="313" height="22" viewBox="0 0 313 22" fill="none" xmlns="http://www.w3.org/2000/svg">
<path d="M38.735 11.648C41.999 11.648 44.09 12.719 44.09 14.487C44.09 16.238 41.999 17.292 38.735 17.292C35.454 17.292 33.38 16.238 33.38 14.487C33.38 12.719 35.454 11.648 38.735 11.648ZM38.735 12.753C36.321 12.753 34.774 13.416 34.774 14.487C34.774 15.541 36.321 16.204 38.735 16.204C41.149 16.204 42.679 15.541 42.679 14.487C42.679 13.416 41.149 12.753 38.735 12.753ZM33.499 2.723H43.393V3.879H33.499V2.723ZM31.85 9.115H45.722V10.254H31.85V9.115ZM37.545 6.157H38.939V9.438H37.545V6.157ZM42.577 2.723H43.954V4.032C43.954 5.273 43.954 6.514 43.546 8.112L42.152 7.942C42.577 6.361 42.577 5.239 42.577 4.032V2.723ZM51.5517 4.151H52.6907V6.65C52.6907 9.897 50.7357 13.161 48.2877 14.368L47.4717 13.246C49.6987 12.192 51.5517 9.302 51.5517 6.65V4.151ZM51.8237 4.151H52.9627V6.65C52.9627 9.251 54.8157 11.903 57.0767 12.872L56.2777 13.994C53.7957 12.838 51.8237 9.846 51.8237 6.65V4.151ZM47.9817 3.522H56.5667V4.712H47.9817V3.522ZM58.6407 1.958H60.0517V17.326H58.6407V1.958ZM66.8843 3.284H68.0403V6.038C68.0403 9.438 66.2043 12.753 63.7733 14.045L62.9063 12.923C65.1333 11.801 66.8843 8.843 66.8843 6.038V3.284ZM67.1393 3.284H68.2783V6.038C68.2783 8.741 69.9953 11.546 72.1713 12.634L71.3043 13.756C68.9243 12.481 67.1393 9.336 67.1393 6.038V3.284ZM73.5143 1.958H74.9423V17.326H73.5143V1.958ZM74.6023 8.18H77.4583V9.37H74.6023V8.18ZM89.272 1.958H90.683V11.852H89.272V1.958ZM90.292 6.225H92.961V7.398H90.292V6.225ZM85.855 11.988C88.966 11.988 90.853 12.957 90.853 14.64C90.853 16.323 88.966 17.292 85.855 17.292C82.761 17.292 80.857 16.323 80.857 14.64C80.857 12.957 82.761 11.988 85.855 11.988ZM85.855 13.076C83.611 13.076 82.251 13.654 82.251 14.64C82.251 15.643 83.611 16.204 85.855 16.204C88.116 16.204 89.476 15.643 89.476 14.64C89.476 13.654 88.116 13.076 85.855 13.076ZM78.8 3.692H87.878V4.814H78.8V3.692ZM83.339 5.596C85.532 5.596 87.011 6.65 87.011 8.299C87.011 9.965 85.532 11.019 83.339 11.019C81.129 11.019 79.65 9.965 79.65 8.299C79.65 6.65 81.129 5.596 83.339 5.596ZM83.339 6.667C81.928 6.667 80.993 7.313 80.993 8.299C80.993 9.302 81.928 9.948 83.339 9.948C84.716 9.948 85.668 9.302 85.668 8.299C85.668 7.313 84.716 6.667 83.339 6.667ZM82.625 1.822H84.036V4.321H82.625V1.822Z" fill="black"/>
<path d="M16.25 2.875C16.25 2.37772 16.4475 1.90081 16.7992 1.54917C17.1508 1.19754 17.6277 1 18.125 1C18.6223 1 19.0992 1.19754 19.4508 1.54917C19.8025 1.90081 20 2.37772 20 2.875V16.625C20 17.1223 19.8025 17.5992 19.4508 17.9508C19.0992 18.3025 18.6223 18.5 18.125 18.5C17.6277 18.5 17.1508 18.3025 16.7992 17.9508C16.4475 17.5992 16.25 17.1223 16.25 16.625V16.3575C13.5475 14.8063 10.6375 14.0538 7.61 13.7537L8.11625 17.1437C8.15025 17.3244 8.14401 17.5102 8.09797 17.6881C8.05193 17.8661 7.96723 18.0316 7.8499 18.1731C7.73257 18.3145 7.58549 18.4283 7.41914 18.5065C7.2528 18.5846 7.07127 18.625 6.8875 18.625H6.2025C5.95953 18.625 5.72183 18.5541 5.51847 18.4212C5.31512 18.2882 5.15493 18.0988 5.0575 17.8763L2.745 13.5138L2.4925 13.51C1.83046 13.5034 1.19765 13.2363 0.731131 12.7665C0.264613 12.2967 0.00193981 11.6621 0 11L0 8.5C0.00223098 7.83786 0.264462 7.2031 0.730204 6.73245C1.19595 6.2618 1.82792 5.99292 2.49 5.98375C3.52503 5.96964 4.55975 5.93838 5.59375 5.89C9.3975 5.6975 13.2787 4.82875 16.25 3.14125V2.875ZM17.5 2.875V16.625C17.5 16.7908 17.5658 16.9497 17.6831 17.0669C17.8003 17.1842 17.9592 17.25 18.125 17.25C18.2908 17.25 18.4497 17.1842 18.5669 17.0669C18.6842 16.9497 18.75 16.7908 18.75 16.625V2.875C18.75 2.70924 18.6842 2.55027 18.5669 2.43306C18.4497 2.31585 18.2908 2.25 18.125 2.25C17.9592 2.25 17.8003 2.31585 17.6831 2.43306C17.5658 2.55027 17.5 2.70924 17.5 2.875ZM16.25 4.5625C13.32 6.06875 9.73875 6.865 6.25 7.10375V12.395C6.475 12.4075 6.69875 12.4225 6.92125 12.44C10.1313 12.6763 13.2875 13.37 16.25 14.9313V4.5625ZM5 12.3312V7.16875C4.17025 7.19912 3.3402 7.22079 2.51 7.23375C2.17596 7.23767 1.85681 7.37254 1.62118 7.60933C1.38555 7.84613 1.25227 8.16595 1.25 8.5V11C1.25 11.6875 1.81 12.2525 2.5075 12.2612C3.33866 12.271 4.1696 12.2943 5 12.3312ZM4.17875 13.55L6.19 17.3462L6.2025 17.3762H6.8875L6.885 17.3587L6.33125 13.6513C5.61421 13.608 4.89665 13.5738 4.17875 13.5487V13.55Z" fill="black"/>
<path d="M305.272 14.1672L299.43 8.32546C299.267 8.16274 299.267 7.89892 299.43 7.7362L299.901 7.2648C300.064 7.10208 300.328 7.10208 300.491 7.2648L307.098 13.8725C307.261 14.0353 307.261 14.2991 307.098 14.4618L300.491 21.0695C300.328 21.2323 300.064 21.2323 299.901 21.0695L299.43 20.5981C299.267 20.4354 299.267 20.1716 299.43 20.0089L305.272 14.1672Z" fill="#988234"/>
</svg>
