<svg width="50" height="14" viewBox="0 0 50 14" fill="none" xmlns="http://www.w3.org/2000/svg">
<path d="M1.904 1.696H10.052V2.662H1.904V1.696ZM0.7 10.362H12.138V11.328H0.7V10.362ZM5.138 5.84H6.3V10.838H5.138V5.84ZM9.618 1.696H10.766V2.956C10.766 4.524 10.766 6.26 10.304 8.822L9.142 8.668C9.618 6.246 9.618 4.468 9.618 2.956V1.696ZM23.1269 0.436H24.2329V7.898H23.1269V0.436ZM21.1109 3.614H23.5049V4.58H21.1109V3.614ZM20.3689 0.674H21.4609V7.828H20.3689V0.674ZM15.7349 8.5H24.2329V13.092H23.0849V9.452H15.7349V8.5ZM17.9049 1.374H19.0809C19.0809 4.398 17.4009 6.68 14.2089 8.024L13.6349 7.17C16.4489 6.022 17.9049 4.132 17.9049 1.766V1.374ZM14.1389 1.374H18.3249V2.326H14.1389V1.374ZM31.5678 3.628H33.9618V4.58H31.5678V3.628ZM36.0058 0.436H37.1118V9.928H36.0058V0.436ZM33.5278 0.688H34.6338V9.564H33.5278V0.688ZM28.8658 11.86H37.5038V12.812H28.8658V11.86ZM28.8658 8.766H30.0278V12.392H28.8658V8.766ZM29.0758 1.332H29.9998V3.194C29.9998 5.154 28.9498 7.226 27.1158 8.122L26.4718 7.226C28.1098 6.428 29.0758 4.692 29.0758 3.194V1.332ZM29.2858 1.332H30.1958V3.194C30.1958 4.678 31.0918 6.19 32.6738 6.904L32.0158 7.786C30.2518 6.988 29.2858 5.126 29.2858 3.194V1.332ZM48.6047 0.422H49.7527V13.106H48.6047V0.422ZM45.9727 5.196H48.7727V6.162H45.9727V5.196ZM39.9107 9.102H40.8767C43.2567 9.102 44.7547 9.06 46.5327 8.724L46.6447 9.676C44.8247 9.998 43.2847 10.068 40.8767 10.068H39.9107V9.102ZM39.9107 1.584H45.7627V2.55H41.0587V9.438H39.9107V1.584ZM40.7647 5.14H45.2167V6.078H40.7647V5.14Z" fill="#75414B"/>
</svg>
