<svg width="313" height="22" viewBox="0 0 313 22" fill="none" xmlns="http://www.w3.org/2000/svg">
<path d="M31.833 9.812H45.756V10.968H31.833V9.812ZM38.191 10.526H39.602V14.062H38.191V10.526ZM33.618 2.672H43.954V8.078H33.618V2.672ZM42.56 3.811H34.995V6.939H42.56V3.811ZM33.601 15.83H44.209V16.986H33.601V15.83ZM33.601 12.583H34.995V16.238H33.601V12.583ZM52.4697 3.063C54.8667 3.063 56.5837 4.542 56.5837 6.684C56.5837 8.843 54.8667 10.322 52.4697 10.322C50.0727 10.322 48.3387 8.843 48.3387 6.684C48.3387 4.542 50.0727 3.063 52.4697 3.063ZM52.4697 4.287C50.8717 4.287 49.7157 5.256 49.7157 6.684C49.7157 8.112 50.8717 9.098 52.4697 9.098C54.0507 9.098 55.2067 8.112 55.2067 6.684C55.2067 5.256 54.0507 4.287 52.4697 4.287ZM58.5897 1.941H60.0007V17.343H58.5897V1.941ZM47.7607 13.977L47.5567 12.804C50.3617 12.804 54.2377 12.787 57.5867 12.26L57.7057 13.297C54.2547 13.96 50.4977 13.977 47.7607 13.977ZM73.5313 1.958H74.9423V17.326H73.5313V1.958ZM74.6023 8.265H77.4583V9.455H74.6023V8.265ZM63.0423 4.406H72.1033V5.562H63.0423V4.406ZM67.6323 6.837C69.8083 6.837 71.3723 8.299 71.3723 10.373C71.3723 12.447 69.8083 13.909 67.6323 13.909C65.4733 13.909 63.8923 12.447 63.8923 10.373C63.8923 8.299 65.4733 6.837 67.6323 6.837ZM67.6323 8.01C66.2383 8.01 65.2353 8.979 65.2353 10.373C65.2353 11.75 66.2383 12.736 67.6323 12.736C69.0263 12.736 70.0293 11.75 70.0293 10.373C70.0293 8.979 69.0263 8.01 67.6323 8.01ZM66.9013 2.145H68.3123V4.933H66.9013V2.145ZM89.952 1.958H91.363V17.326H89.952V1.958ZM85.447 3.607H86.841C86.841 8.061 84.835 11.954 79.701 14.47L78.953 13.331C83.39 11.189 85.447 7.925 85.447 3.845V3.607ZM79.65 3.607H86.059V4.763H79.65V3.607Z" fill="black"/>
<g clip-path="url(#clip0_47_134)">
<path d="M10 1.25C8.3424 1.25 6.75269 1.90848 5.58058 3.08058C4.40848 4.25269 3.75 5.8424 3.75 7.5V8.75H5C5.33152 8.75 5.64946 8.8817 5.88388 9.11612C6.1183 9.35054 6.25 9.66848 6.25 10V13.75C6.25 14.0815 6.1183 14.3995 5.88388 14.6339C5.64946 14.8683 5.33152 15 5 15H3.75C3.41848 15 3.10054 14.8683 2.86612 14.6339C2.6317 14.3995 2.5 14.0815 2.5 13.75V7.5C2.5 6.51509 2.69399 5.53982 3.0709 4.62987C3.44781 3.71993 4.00026 2.89314 4.6967 2.1967C5.39314 1.50026 6.21993 0.947814 7.12987 0.570904C8.03982 0.193993 9.01509 0 10 0C10.9849 0 11.9602 0.193993 12.8701 0.570904C13.7801 0.947814 14.6069 1.50026 15.3033 2.1967C15.9997 2.89314 16.5522 3.71993 16.9291 4.62987C17.306 5.53982 17.5 6.51509 17.5 7.5V15C17.5 15.8288 17.1708 16.6237 16.5847 17.2097C15.9987 17.7958 15.2038 18.125 14.375 18.125H11.7075C11.5978 18.315 11.44 18.4728 11.25 18.5825C11.06 18.6922 10.8444 18.75 10.625 18.75H9.375C9.04348 18.75 8.72554 18.6183 8.49112 18.3839C8.2567 18.1495 8.125 17.8315 8.125 17.5C8.125 17.1685 8.2567 16.8505 8.49112 16.6161C8.72554 16.3817 9.04348 16.25 9.375 16.25H10.625C10.8444 16.25 11.06 16.3078 11.25 16.4175C11.44 16.5272 11.5978 16.685 11.7075 16.875H14.375C14.8723 16.875 15.3492 16.6775 15.7008 16.3258C16.0525 15.9742 16.25 15.4973 16.25 15H15C14.6685 15 14.3505 14.8683 14.1161 14.6339C13.8817 14.3995 13.75 14.0815 13.75 13.75V10C13.75 9.66848 13.8817 9.35054 14.1161 9.11612C14.3505 8.8817 14.6685 8.75 15 8.75H16.25V7.5C16.25 6.67924 16.0883 5.86651 15.7742 5.10823C15.4602 4.34994 14.9998 3.66095 14.4194 3.08058C13.8391 2.50022 13.1501 2.03984 12.3918 1.72575C11.6335 1.41166 10.8208 1.25 10 1.25Z" fill="black"/>
</g>
<path d="M305.272 14.1672L299.43 8.32546C299.267 8.16274 299.267 7.89892 299.43 7.7362L299.901 7.2648C300.064 7.10208 300.328 7.10208 300.491 7.2648L307.098 13.8725C307.261 14.0353 307.261 14.2991 307.098 14.4618L300.491 21.0695C300.328 21.2323 300.064 21.2323 299.901 21.0695L299.43 20.5981C299.267 20.4354 299.267 20.1716 299.43 20.0089L305.272 14.1672Z" fill="#988234"/>
<defs>
<clipPath id="clip0_47_134">
<rect width="20" height="20" fill="white"/>
</clipPath>
</defs>
</svg>
