<svg width="24" height="24" viewBox="0 0 24 24" fill="none" xmlns="http://www.w3.org/2000/svg">
<path fill-rule="evenodd" clip-rule="evenodd" d="M9 12V1.5H10.5V10.6755L13.1145 9.105C13.231 9.03521 13.3642 8.99834 13.5 8.99834C13.6358 8.99834 13.769 9.03521 13.8855 9.105L16.5 10.6755V1.5H18V12C18 12.1327 17.9649 12.263 17.8981 12.3777C17.8313 12.4923 17.7352 12.5872 17.6198 12.6527C17.5043 12.7181 17.3736 12.7517 17.2409 12.7501C17.1082 12.7485 16.9783 12.7117 16.8645 12.6435L13.5 10.6245L10.1355 12.645C10.0216 12.7133 9.89154 12.7501 9.75872 12.7516C9.62591 12.7532 9.49506 12.7194 9.37957 12.6538C9.26407 12.5882 9.16807 12.4931 9.10138 12.3782C9.03469 12.2633 8.99971 12.1328 9 12Z" fill="#FFE607"/>
<path d="M4.5 0H19.5C20.2956 0 21.0587 0.316071 21.6213 0.87868C22.1839 1.44129 22.5 2.20435 22.5 3V21C22.5 21.7956 22.1839 22.5587 21.6213 23.1213C21.0587 23.6839 20.2956 24 19.5 24H4.5C3.70435 24 2.94129 23.6839 2.37868 23.1213C1.81607 22.5587 1.5 21.7956 1.5 21V19.5H3V21C3 21.3978 3.15804 21.7794 3.43934 22.0607C3.72064 22.342 4.10218 22.5 4.5 22.5H19.5C19.8978 22.5 20.2794 22.342 20.5607 22.0607C20.842 21.7794 21 21.3978 21 21V3C21 2.60218 20.842 2.22064 20.5607 1.93934C20.2794 1.65804 19.8978 1.5 19.5 1.5H4.5C4.10218 1.5 3.72064 1.65804 3.43934 1.93934C3.15804 2.22064 3 2.60218 3 3V4.5H1.5V3C1.5 2.20435 1.81607 1.44129 2.37868 0.87868C2.94129 0.316071 3.70435 0 4.5 0Z" fill="#FFE607"/>
<path d="M1.5 6.61108V5.86108C1.5 5.66217 1.57902 5.47141 1.71967 5.33075C1.86032 5.1901 2.05109 5.11108 2.25 5.11108C2.44891 5.11108 2.63968 5.1901 2.78033 5.33075C2.92098 5.47141 3 5.66217 3 5.86108V6.61108H3.75C3.94891 6.61108 4.13968 6.6901 4.28033 6.83075C4.42098 6.97141 4.5 7.16217 4.5 7.36108C4.5 7.56 4.42098 7.75076 4.28033 7.89141C4.13968 8.03207 3.94891 8.11108 3.75 8.11108H0.75C0.551088 8.11108 0.360322 8.03207 0.21967 7.89141C0.0790176 7.75076 0 7.56 0 7.36108C0 7.16217 0.0790176 6.97141 0.21967 6.83075C0.360322 6.6901 0.551088 6.61108 0.75 6.61108H1.5ZM1.5 11.1111V10.3611C1.5 10.1622 1.57902 9.97141 1.71967 9.83075C1.86032 9.6901 2.05109 9.61108 2.25 9.61108C2.44891 9.61108 2.63968 9.6901 2.78033 9.83075C2.92098 9.97141 3 10.1622 3 10.3611V11.1111H3.75C3.94891 11.1111 4.13968 11.1901 4.28033 11.3308C4.42098 11.4714 4.5 11.6622 4.5 11.8611C4.5 12.06 4.42098 12.2508 4.28033 12.3914C4.13968 12.5321 3.94891 12.6111 3.75 12.6111H0.75C0.551088 12.6111 0.360322 12.5321 0.21967 12.3914C0.0790176 12.2508 0 12.06 0 11.8611C0 11.6622 0.0790176 11.4714 0.21967 11.3308C0.360322 11.1901 0.551088 11.1111 0.75 11.1111H1.5ZM1.5 15.6111V14.8611C1.5 14.6622 1.57902 14.4714 1.71967 14.3308C1.86032 14.1901 2.05109 14.1111 2.25 14.1111C2.44891 14.1111 2.63968 14.1901 2.78033 14.3308C2.92098 14.4714 3 14.6622 3 14.8611V15.6111H3.75C3.94891 15.6111 4.13968 15.6901 4.28033 15.8308C4.42098 15.9714 4.5 16.1622 4.5 16.3611C4.5 16.56 4.42098 16.7508 4.28033 16.8914C4.13968 17.0321 3.94891 17.1111 3.75 17.1111H0.75C0.551088 17.1111 0.360322 17.0321 0.21967 16.8914C0.0790176 16.7508 0 16.56 0 16.3611C0 16.1622 0.0790176 15.9714 0.21967 15.8308C0.360322 15.6901 0.551088 15.6111 0.75 15.6111H1.5Z" fill="#FFE607"/>
</svg>
