<svg width="147" height="42" viewBox="0 0 147 42" fill="none" xmlns="http://www.w3.org/2000/svg">
<rect width="147" height="42" rx="8" fill="#FFF7B3"/>
<path d="M62.2613 20.882H63.7553V23.348H62.2613V20.882ZM62.9633 14.87C65.3213 14.87 66.9773 16.166 66.9773 18.092C66.9773 20.018 65.3213 21.296 62.9633 21.296C60.6233 21.296 58.9673 20.018 58.9673 18.092C58.9673 16.166 60.6233 14.87 62.9633 14.87ZM62.9633 16.022C61.4333 16.022 60.3713 16.868 60.3713 18.092C60.3713 19.334 61.4333 20.162 62.9633 20.162C64.5113 20.162 65.5733 19.334 65.5733 18.092C65.5733 16.868 64.5113 16.022 62.9633 16.022ZM69.1733 14.15H70.6673V26.588H69.1733V14.15ZM70.0373 19.64H73.0433V20.882H70.0373V19.64ZM60.3713 28.802H71.2433V30.044H60.3713V28.802ZM60.3713 25.526H61.8653V29.342H60.3713V25.526ZM58.2293 24.176L58.0313 22.952C60.8933 22.952 64.8533 22.916 68.1653 22.412L68.2733 23.51C64.8713 24.14 61.0193 24.176 58.2293 24.176ZM78.5499 23.672H80.0259V27.668H78.5499V23.672ZM83.7519 23.636H85.2099V27.65H83.7519V23.636ZM74.4459 27.164H89.1879V28.406H74.4459V27.164ZM76.2279 15.338H87.3699V20.252H77.7579V23.528H76.2819V19.064H85.8939V16.544H76.2279V15.338ZM76.2819 22.862H87.7479V24.086H76.2819V22.862Z" fill="#311A1E"/>
</svg>
