<svg width="375" height="44" viewBox="0 0 375 44" fill="none" xmlns="http://www.w3.org/2000/svg">
<path opacity="0.35" d="M336.5 20C336.5 18.8034 337.47 17.8334 338.667 17.8334H355.333C356.53 17.8334 357.5 18.8034 357.5 20V26C357.5 27.1967 356.53 28.1667 355.333 28.1667H338.667C337.47 28.1667 336.5 27.1967 336.5 26V20Z" stroke="black"/>
<path opacity="0.4" d="M359 21V25C359.805 24.6613 360.328 23.8732 360.328 23C360.328 22.1269 359.805 21.3388 359 21Z" fill="black"/>
<path d="M338 20.6667C338 19.9303 338.597 19.3334 339.333 19.3334H354.667C355.403 19.3334 356 19.9303 356 20.6667V25.3334C356 26.0698 355.403 26.6667 354.667 26.6667H339.333C338.597 26.6667 338 26.0698 338 25.3334V20.6667Z" fill="black"/>
<path fill-rule="evenodd" clip-rule="evenodd" d="M323.33 19.608C325.546 19.6081 327.678 20.4596 329.283 21.9863C329.404 22.1042 329.598 22.1027 329.717 21.983L330.873 20.8163C330.933 20.7556 330.967 20.6734 330.966 20.5878C330.966 20.5022 330.931 20.4204 330.87 20.3603C326.655 16.3208 320.005 16.3208 315.79 20.3603C315.729 20.4203 315.694 20.5021 315.694 20.5877C315.693 20.6733 315.727 20.7556 315.787 20.8163L316.943 21.983C317.062 22.1029 317.256 22.1044 317.377 21.9863C318.983 20.4595 321.114 19.608 323.33 19.608ZM323.33 23.4037C324.548 23.4036 325.722 23.8561 326.624 24.6733C326.747 24.7893 326.939 24.7868 327.058 24.6677L328.212 23.501C328.273 23.4398 328.307 23.3568 328.306 23.2705C328.305 23.1843 328.27 23.102 328.208 23.042C325.46 20.4856 321.204 20.4856 318.455 23.042C318.393 23.102 318.358 23.1843 318.357 23.2706C318.356 23.3569 318.39 23.4399 318.451 23.501L319.605 24.6677C319.724 24.7868 319.917 24.7893 320.039 24.6733C320.941 23.8567 322.114 23.4042 323.33 23.4037ZM325.643 25.9575C325.645 26.044 325.611 26.1274 325.549 26.188L323.552 28.2037C323.494 28.2629 323.414 28.2963 323.33 28.2963C323.247 28.2963 323.167 28.2629 323.109 28.2037L321.111 26.188C321.049 26.1274 321.015 26.0439 321.017 25.9574C321.019 25.8709 321.057 25.789 321.121 25.731C322.396 24.6521 324.265 24.6521 325.54 25.731C325.604 25.7891 325.642 25.871 325.643 25.9575Z" fill="black"/>
<path fill-rule="evenodd" clip-rule="evenodd" d="M309.667 17.6666H308.667C308.114 17.6666 307.667 18.1143 307.667 18.6666V27.3333C307.667 27.8856 308.114 28.3333 308.667 28.3333H309.667C310.219 28.3333 310.667 27.8856 310.667 27.3333V18.6666C310.667 18.1143 310.219 17.6666 309.667 17.6666ZM304 20H305C305.552 20 306 20.4477 306 21V27.3333C306 27.8856 305.552 28.3333 305 28.3333H304C303.448 28.3333 303 27.8856 303 27.3333V21C303 20.4477 303.448 20 304 20ZM300.333 22.3333H299.333C298.781 22.3333 298.333 22.781 298.333 23.3333V27.3333C298.333 27.8856 298.781 28.3333 299.333 28.3333H300.333C300.886 28.3333 301.333 27.8856 301.333 27.3333V23.3333C301.333 22.781 300.886 22.3333 300.333 22.3333ZM295.667 24.3333H294.667C294.114 24.3333 293.667 24.781 293.667 25.3333V27.3333C293.667 27.8856 294.114 28.3333 294.667 28.3333H295.667C296.219 28.3333 296.667 27.8856 296.667 27.3333V25.3333C296.667 24.781 296.219 24.3333 295.667 24.3333Z" fill="black"/>
<path d="M37.3208 28.2563C40.0088 28.2563 41.6055 26.1543 41.6055 22.5947C41.6055 21.2544 41.3491 20.1265 40.8584 19.2549C40.1479 17.8999 38.9248 17.1675 37.3794 17.1675C35.0796 17.1675 33.4536 18.7129 33.4536 20.8809C33.4536 22.917 34.9185 24.3965 36.9326 24.3965C38.1704 24.3965 39.1738 23.8179 39.6719 22.8145H39.6938C39.6938 22.8145 39.7231 22.8145 39.7305 22.8145C39.7451 22.8145 39.7964 22.8145 39.7964 22.8145C39.7964 25.2314 38.8809 26.6743 37.3354 26.6743C36.4272 26.6743 35.7241 26.1763 35.4824 25.3779H33.6001C33.915 27.1138 35.3872 28.2563 37.3208 28.2563ZM37.3867 22.895C36.1709 22.895 35.3066 22.0308 35.3066 20.8223C35.3066 19.6431 36.2148 18.7422 37.394 18.7422C38.5732 18.7422 39.4814 19.6577 39.4814 20.8516C39.4814 22.0308 38.5952 22.895 37.3867 22.895Z" fill="black"/>
<path d="M44.6966 28.1538C45.3924 28.1538 45.8685 27.6558 45.8685 26.9966C45.8685 26.3301 45.3924 25.8394 44.6966 25.8394C44.0081 25.8394 43.5247 26.3301 43.5247 26.9966C43.5247 27.6558 44.0081 28.1538 44.6966 28.1538ZM44.6966 22.6606C45.3924 22.6606 45.8685 22.1699 45.8685 21.5107C45.8685 20.8442 45.3924 20.3535 44.6966 20.3535C44.0081 20.3535 43.5247 20.8442 43.5247 21.5107C43.5247 22.1699 44.0081 22.6606 44.6966 22.6606Z" fill="black"/>
<path d="M52.7242 28H54.5333V26.0298H55.9615V24.4331H54.5333V17.4312H51.8673C49.9996 20.2437 48.5128 22.5947 47.5606 24.3452V26.0298H52.7242V28ZM49.3111 24.3672C50.5416 22.1992 51.6402 20.4634 52.651 18.9692H52.7535V24.4771H49.3111V24.3672Z" fill="black"/>
<path d="M59.9901 28H61.8798V17.4312H59.9975L57.2362 19.3647V21.1812L59.8656 19.3354H59.9901V28Z" fill="black"/>
<path d="M146.126 21.1301C146.178 20.9016 146.244 20.6599 146.324 20.405C146.403 20.1413 146.508 19.904 146.64 19.6931C146.772 19.4734 146.943 19.2932 147.154 19.1526C147.365 19.0031 147.633 18.9284 147.958 18.9284C148.266 18.9284 148.538 19.0163 148.776 19.1921C149.022 19.3591 149.241 19.5305 149.435 19.7063C149.663 19.8557 149.883 20.1589 150.094 20.6159C150.305 21.073 150.52 21.6355 150.74 22.3034C150.969 22.9714 151.21 23.7273 151.465 24.571C151.729 25.4148 152.014 26.2981 152.322 27.2209C152.638 28.1438 152.99 29.0886 153.377 30.0554C153.763 31.0134 154.203 31.9494 154.695 32.8635C154.774 33.0041 154.866 33.1711 154.972 33.3645C155.077 33.549 155.183 33.7248 155.288 33.8918C155.403 34.0588 155.504 34.1994 155.592 34.3137C155.688 34.4279 155.759 34.4851 155.803 34.4851C155.829 34.4851 155.86 34.4192 155.895 34.2873C155.93 34.1555 155.97 33.9973 156.013 33.8127C156.057 33.6281 156.101 33.4392 156.145 33.2458C156.198 33.0525 156.246 32.8943 156.29 32.7712C156.457 32.3669 156.637 31.9055 156.831 31.3869C157.033 30.8596 157.253 30.2268 157.49 29.4885C157.736 28.7414 158.004 27.8581 158.294 26.8386C158.584 25.8191 158.905 24.6106 159.257 23.2131C159.345 22.8703 159.437 22.4836 159.533 22.0529C159.639 21.6135 159.736 21.1696 159.824 20.7214C159.92 20.2644 160.004 19.8205 160.074 19.3899C160.144 18.9592 160.193 18.5857 160.219 18.2693C160.219 18.2165 160.223 18.1242 160.232 17.9924C160.241 17.8606 160.254 17.7112 160.272 17.5442C160.298 17.3772 160.329 17.2058 160.364 17.03C160.399 16.8454 160.443 16.6784 160.496 16.529C160.557 16.3796 160.632 16.2566 160.72 16.1599C160.808 16.0632 160.913 16.0149 161.036 16.0149C161.159 16.0149 161.309 16.0324 161.485 16.0676C161.669 16.1028 161.836 16.1555 161.986 16.2258C162.153 16.4543 162.302 16.7312 162.434 17.0564C162.574 17.3728 162.645 17.8034 162.645 18.3484C162.645 18.6911 162.61 19.1042 162.539 19.5876C162.469 20.0622 162.377 20.5764 162.262 21.1301C162.157 21.675 162.034 22.2375 161.893 22.8176C161.762 23.3977 161.625 23.9558 161.485 24.4919C161.344 25.0193 161.208 25.507 161.076 25.9553C160.953 26.3947 160.847 26.7595 160.76 27.0495C160.601 27.5593 160.434 28.0866 160.259 28.6316C160.092 29.1677 159.903 29.7346 159.692 30.3322C159.49 30.9211 159.265 31.5495 159.019 32.2175C158.782 32.8767 158.514 33.5842 158.215 34.3401C158.083 34.6828 157.929 35.0256 157.754 35.3684C157.587 35.7112 157.393 36.0232 157.174 36.3044C156.954 36.5769 156.703 36.801 156.422 36.9768C156.15 37.1438 155.842 37.2273 155.499 37.2273C155.297 37.2273 155.086 37.1965 154.866 37.135C154.656 37.0822 154.475 36.968 154.326 36.7922C153.605 35.9572 152.964 35.0124 152.401 33.9577C151.839 32.8943 151.333 31.7868 150.885 30.6355C150.446 29.4753 150.054 28.3064 149.712 27.1286C149.369 25.9421 149.057 24.8083 148.776 23.7273L148.697 23.424C148.661 23.301 148.626 23.1779 148.591 23.0549C148.565 22.9231 148.534 22.8044 148.499 22.6989C148.472 22.5935 148.437 22.51 148.393 22.4485C148.358 22.3781 148.314 22.343 148.262 22.343C148.209 22.343 148.143 22.4397 148.064 22.633C147.985 22.8264 147.906 23.0461 147.826 23.2922C147.747 23.5295 147.673 23.7624 147.602 23.9909C147.541 24.2195 147.501 24.3645 147.484 24.426C147.422 24.6545 147.33 24.9841 147.207 25.4148C147.084 25.8366 146.943 26.3156 146.785 26.8518C146.636 27.3879 146.469 27.9548 146.284 28.5525C146.108 29.1501 145.937 29.7302 145.77 30.2927C145.603 30.8464 145.445 31.3606 145.295 31.8352C145.146 32.3098 145.023 32.6921 144.926 32.9821C144.847 33.2107 144.75 33.5051 144.636 33.8654C144.522 34.2258 144.407 34.5905 144.293 34.9597C144.179 35.32 144.074 35.6496 143.977 35.9485C143.88 36.2473 143.819 36.445 143.792 36.5417C143.687 36.8757 143.529 37.1262 143.318 37.2932C143.116 37.469 142.909 37.5569 142.698 37.5569C142.566 37.5569 142.434 37.5085 142.303 37.4118C142.171 37.3239 142.052 37.2141 141.947 37.0822C141.85 36.9504 141.766 36.8098 141.696 36.6604C141.635 36.5022 141.604 36.3615 141.604 36.2385C141.604 36.1682 141.626 36.0583 141.67 35.9089C141.714 35.7507 141.784 35.487 141.881 35.1179L142.223 33.76L146.126 21.1301ZM165.157 25.3488C165.192 25.2082 165.24 25.0896 165.302 24.9929C165.372 24.8874 165.442 24.8039 165.512 24.7424C165.592 24.6809 165.662 24.6369 165.723 24.6106C165.785 24.5842 165.833 24.571 165.868 24.571C165.965 24.571 166.079 24.5842 166.211 24.6106C166.343 24.6281 166.471 24.6457 166.594 24.6633C166.734 24.6897 166.87 24.716 167.002 24.7424C167.231 24.7512 167.393 24.8435 167.49 25.0193C167.596 25.195 167.648 25.406 167.648 25.6521C167.648 25.8454 167.622 26.0256 167.569 26.1926C167.27 27.2912 166.998 28.2492 166.752 29.0666C166.506 29.8752 166.295 30.5652 166.119 31.1364C165.952 31.7077 165.82 32.1736 165.723 32.5339C165.636 32.8943 165.592 33.1667 165.592 33.3513C165.592 33.5359 165.614 33.7424 165.658 33.9709C165.71 34.1994 165.785 34.4148 165.882 34.6169C165.978 34.8103 166.101 34.9729 166.251 35.1047C166.4 35.2365 166.58 35.3025 166.791 35.3025C167.16 35.3025 167.534 35.1882 167.912 34.9597C168.29 34.7312 168.65 34.4543 168.993 34.1291C169.336 33.7951 169.643 33.4436 169.916 33.0744C170.197 32.6965 170.426 32.3625 170.601 32.0725L170.944 31.4792C171.155 31.1101 171.348 30.6882 171.524 30.2136C171.709 29.7302 171.867 29.2468 171.999 28.7634C172.139 28.28 172.258 27.8274 172.355 27.4055C172.451 26.9748 172.526 26.632 172.579 26.3772L172.922 24.6237C172.992 24.2898 173.097 24.0612 173.238 23.9382C173.387 23.8064 173.634 23.7404 173.976 23.7404C174.196 23.7404 174.394 23.7668 174.57 23.8195C174.745 23.8635 174.895 23.947 175.018 24.07C175.141 24.1931 175.233 24.3601 175.295 24.571C175.356 24.7732 175.387 25.0368 175.387 25.362C175.387 25.74 175.325 26.2058 175.202 26.7595C175.088 27.3044 174.961 27.8537 174.82 28.4074C174.741 28.7326 174.658 29.0798 174.57 29.4489C174.491 29.8093 174.416 30.174 174.346 30.5432C174.284 30.9035 174.231 31.2507 174.187 31.5847C174.152 31.9099 174.135 32.2043 174.135 32.468C174.135 32.9162 174.148 33.3645 174.174 33.8127C174.209 34.261 174.227 34.7356 174.227 35.2365C174.227 35.4651 174.218 35.6672 174.2 35.843C174.192 36.0188 174.174 36.1506 174.148 36.2385C174.051 36.5813 173.924 36.8362 173.765 37.0031C173.616 37.1701 173.357 37.2536 172.988 37.2536C172.733 37.2536 172.531 37.2229 172.381 37.1613C172.232 37.1086 172.113 37.0339 172.025 36.9372C171.946 36.8405 171.893 36.7351 171.867 36.6208C171.841 36.4978 171.823 36.3747 171.814 36.2517L171.669 33.76L171.551 33.7995C171.261 34.1687 170.944 34.5818 170.601 35.0388C170.259 35.4958 169.881 35.9221 169.468 36.3176C169.054 36.7131 168.602 37.0427 168.11 37.3064C167.626 37.5788 167.099 37.7151 166.528 37.7151C166.413 37.7151 166.264 37.6843 166.079 37.6228C165.904 37.57 165.719 37.4997 165.526 37.4118C165.332 37.3239 165.148 37.2229 164.972 37.1086C164.796 37.0031 164.656 36.9021 164.55 36.8054C164.067 36.3571 163.724 35.8518 163.522 35.2893C163.32 34.7268 163.219 34.1555 163.219 33.5754C163.219 33.2502 163.245 32.925 163.298 32.5998C163.35 32.2746 163.412 31.9626 163.482 31.6638C163.553 31.3562 163.627 31.0705 163.706 30.8069C163.794 30.5344 163.865 30.2927 163.917 30.0818C164.084 29.4226 164.234 28.8425 164.366 28.3415C164.497 27.8405 164.612 27.4011 164.708 27.0232C164.814 26.6452 164.902 26.3244 164.972 26.0608C165.042 25.7883 165.104 25.551 165.157 25.3488ZM178.307 43.1731C178.237 43.1731 178.158 43.1555 178.07 43.1203C177.982 43.094 177.899 43.0456 177.82 42.9753C177.749 42.9138 177.688 42.8303 177.635 42.7248C177.582 42.6281 177.556 42.5095 177.556 42.3689C177.556 42.2722 177.569 42.1711 177.596 42.0656C177.666 41.7756 177.741 41.5383 177.82 41.3537C177.899 41.1779 178.013 41.0285 178.162 40.9055C178.312 40.7824 178.514 40.677 178.769 40.5891C179.024 40.51 179.358 40.4265 179.771 40.3386C180.034 40.2859 180.281 40.2243 180.509 40.154C180.746 40.0925 180.94 40.0134 181.089 39.9167C181.537 39.5212 181.915 39.1125 182.223 38.6906C182.539 38.2688 182.803 37.8293 183.014 37.3723C183.234 36.924 183.414 36.4626 183.555 35.988C183.704 35.5134 183.845 35.03 183.976 34.5378C184.029 34.3708 184.073 34.1994 184.108 34.0237C184.152 33.8391 184.205 33.6325 184.266 33.404C183.932 33.6941 183.585 33.9841 183.225 34.2741C182.865 34.5642 182.495 34.8235 182.117 35.052C181.74 35.2805 181.353 35.4695 180.957 35.6189C180.571 35.7595 180.184 35.8298 179.797 35.8298C179.569 35.8298 179.309 35.7595 179.019 35.6189C178.738 35.4782 178.47 35.2937 178.215 35.0652C177.96 34.8366 177.745 34.573 177.569 34.2741C177.393 33.9665 177.305 33.6457 177.305 33.3117C177.305 33.1008 177.332 32.8723 177.385 32.6262C177.437 32.3801 177.486 32.1604 177.53 31.967C177.67 31.3869 177.877 30.8244 178.149 30.2795C178.422 29.7346 178.738 29.216 179.098 28.7238C179.459 28.2317 179.854 27.7658 180.285 27.3264C180.716 26.8781 181.164 26.4651 181.63 26.0871C182.21 25.6125 182.79 25.2697 183.37 25.0588C183.95 24.8479 184.565 24.7424 185.216 24.7424C185.488 24.7424 185.747 24.7556 185.993 24.782C186.248 24.8083 186.486 24.8654 186.705 24.9533C186.934 25.0324 187.145 25.1555 187.338 25.3225C187.532 25.4807 187.707 25.6916 187.866 25.9553C187.901 26.0168 187.927 26.0915 187.945 26.1794C187.971 26.2585 187.984 26.3288 187.984 26.3904C187.984 26.4607 187.962 26.6364 187.918 26.9177C187.883 27.1902 187.83 27.5329 187.76 27.946C187.699 28.3503 187.619 28.8073 187.523 29.3171C187.435 29.8181 187.343 30.3279 187.246 30.8464C187.149 31.3562 187.053 31.8615 186.956 32.3625C186.859 32.8547 186.767 33.2986 186.679 33.6941C186.53 34.3884 186.341 35.1047 186.112 35.843C185.892 36.5813 185.62 37.302 185.295 38.0051C184.978 38.7082 184.605 39.3718 184.174 39.9958C183.743 40.6198 183.242 41.1648 182.671 41.6306C182.1 42.1052 181.454 42.4787 180.733 42.7512C180.013 43.0324 179.204 43.1731 178.307 43.1731ZM179.613 32.257C179.586 32.3625 179.56 32.4724 179.534 32.5866C179.516 32.6921 179.507 32.7976 179.507 32.903C179.507 33.0964 179.542 33.2634 179.613 33.404C179.683 33.5446 179.81 33.615 179.995 33.615C180.285 33.615 180.623 33.5139 181.01 33.3117C181.406 33.1008 181.797 32.8371 182.183 32.5207C182.579 32.2043 182.948 31.8615 183.291 31.4924C183.642 31.1233 183.919 30.7717 184.121 30.4377C184.209 30.2971 184.324 30.1037 184.464 29.8576C184.614 29.6115 184.759 29.3479 184.899 29.0666C185.049 28.7766 185.18 28.4909 185.295 28.2097C185.409 27.9196 185.479 27.6648 185.506 27.445C185.506 27.2956 185.475 27.1594 185.413 27.0363C185.352 26.9045 185.299 26.7243 185.255 26.4958H185.137C184.926 26.4958 184.684 26.5661 184.411 26.7068C184.139 26.8386 183.849 27.0144 183.541 27.2341C183.242 27.4538 182.939 27.7043 182.632 27.9856C182.324 28.258 182.034 28.5393 181.762 28.8293C181.489 29.1106 181.239 29.3874 181.01 29.6599C180.79 29.9236 180.619 30.1565 180.496 30.3586C180.311 30.6487 180.14 30.9431 179.982 31.2419C179.832 31.532 179.709 31.8703 179.613 32.257ZM190.826 43.1731C190.755 43.1731 190.676 43.1555 190.588 43.1203C190.5 43.094 190.417 43.0456 190.338 42.9753C190.267 42.9138 190.206 42.8303 190.153 42.7248C190.1 42.6281 190.074 42.5095 190.074 42.3689C190.074 42.2722 190.087 42.1711 190.114 42.0656C190.184 41.7756 190.259 41.5383 190.338 41.3537C190.417 41.1779 190.531 41.0285 190.681 40.9055C190.83 40.7824 191.032 40.677 191.287 40.5891C191.542 40.51 191.876 40.4265 192.289 40.3386C192.553 40.2859 192.799 40.2243 193.027 40.154C193.264 40.0925 193.458 40.0134 193.607 39.9167C194.056 39.5212 194.433 39.1125 194.741 38.6906C195.057 38.2688 195.321 37.8293 195.532 37.3723C195.752 36.924 195.932 36.4626 196.073 35.988C196.222 35.5134 196.363 35.03 196.494 34.5378C196.547 34.3708 196.591 34.1994 196.626 34.0237C196.67 33.8391 196.723 33.6325 196.785 33.404C196.451 33.6941 196.103 33.9841 195.743 34.2741C195.383 34.5642 195.014 34.8235 194.636 35.052C194.258 35.2805 193.871 35.4695 193.475 35.6189C193.089 35.7595 192.702 35.8298 192.315 35.8298C192.087 35.8298 191.827 35.7595 191.537 35.6189C191.256 35.4782 190.988 35.2937 190.733 35.0652C190.478 34.8366 190.263 34.573 190.087 34.2741C189.911 33.9665 189.824 33.6457 189.824 33.3117C189.824 33.1008 189.85 32.8723 189.903 32.6262C189.955 32.3801 190.004 32.1604 190.048 31.967C190.188 31.3869 190.395 30.8244 190.667 30.2795C190.94 29.7346 191.256 29.216 191.617 28.7238C191.977 28.2317 192.372 27.7658 192.803 27.3264C193.234 26.8781 193.682 26.4651 194.148 26.0871C194.728 25.6125 195.308 25.2697 195.888 25.0588C196.468 24.8479 197.083 24.7424 197.734 24.7424C198.006 24.7424 198.265 24.7556 198.512 24.782C198.766 24.8083 199.004 24.8654 199.223 24.9533C199.452 25.0324 199.663 25.1555 199.856 25.3225C200.05 25.4807 200.225 25.6916 200.384 25.9553C200.419 26.0168 200.445 26.0915 200.463 26.1794C200.489 26.2585 200.502 26.3288 200.502 26.3904C200.502 26.4607 200.48 26.6364 200.436 26.9177C200.401 27.1902 200.348 27.5329 200.278 27.946C200.217 28.3503 200.138 28.8073 200.041 29.3171C199.953 29.8181 199.861 30.3279 199.764 30.8464C199.667 31.3562 199.571 31.8615 199.474 32.3625C199.377 32.8547 199.285 33.2986 199.197 33.6941C199.048 34.3884 198.859 35.1047 198.63 35.843C198.41 36.5813 198.138 37.302 197.813 38.0051C197.496 38.7082 197.123 39.3718 196.692 39.9958C196.262 40.6198 195.761 41.1648 195.189 41.6306C194.618 42.1052 193.972 42.4787 193.251 42.7512C192.531 43.0324 191.722 43.1731 190.826 43.1731ZM192.131 32.257C192.104 32.3625 192.078 32.4724 192.052 32.5866C192.034 32.6921 192.025 32.7976 192.025 32.903C192.025 33.0964 192.06 33.2634 192.131 33.404C192.201 33.5446 192.328 33.615 192.513 33.615C192.803 33.615 193.141 33.5139 193.528 33.3117C193.924 33.1008 194.315 32.8371 194.701 32.5207C195.097 32.2043 195.466 31.8615 195.809 31.4924C196.16 31.1233 196.437 30.7717 196.639 30.4377C196.727 30.2971 196.842 30.1037 196.982 29.8576C197.132 29.6115 197.277 29.3479 197.417 29.0666C197.567 28.7766 197.699 28.4909 197.813 28.2097C197.927 27.9196 197.997 27.6648 198.024 27.445C198.024 27.2956 197.993 27.1594 197.931 27.0363C197.87 26.9045 197.817 26.7243 197.773 26.4958H197.655C197.444 26.4958 197.202 26.5661 196.93 26.7068C196.657 26.8386 196.367 27.0144 196.059 27.2341C195.761 27.4538 195.457 27.7043 195.15 27.9856C194.842 28.258 194.552 28.5393 194.28 28.8293C194.007 29.1106 193.757 29.3874 193.528 29.6599C193.308 29.9236 193.137 30.1565 193.014 30.3586C192.829 30.6487 192.658 30.9431 192.5 31.2419C192.35 31.532 192.227 31.8703 192.131 32.257ZM202.421 31.9934C202.421 31.6154 202.522 31.2946 202.724 31.031C202.926 30.7673 203.194 30.5915 203.528 30.5036C203.625 30.3103 203.774 30.051 203.976 29.7258C204.179 29.3918 204.429 29.0315 204.728 28.6447C205.027 28.258 205.365 27.8713 205.743 27.4846C206.13 27.0891 206.552 26.7331 207.009 26.4167C207.474 26.0915 207.971 25.8279 208.498 25.6257C209.035 25.4236 209.601 25.3225 210.199 25.3225C210.709 25.3225 211.153 25.384 211.531 25.507C211.909 25.6301 212.221 25.8015 212.467 26.0212C212.713 26.2409 212.897 26.5046 213.02 26.8122C213.143 27.1111 213.205 27.4362 213.205 27.7878C213.205 28.0866 213.165 28.3723 213.086 28.6447C212.963 29.1369 212.735 29.5676 212.401 29.9367C212.067 30.3059 211.671 30.6311 211.214 30.9123C210.766 31.1848 210.274 31.4133 209.738 31.5979C209.21 31.7824 208.679 31.9362 208.142 32.0593C207.615 32.1823 207.105 32.279 206.613 32.3493C206.121 32.4109 205.695 32.4592 205.334 32.4944C205.255 32.6526 205.185 32.8547 205.123 33.1008C205.071 33.3381 205.044 33.571 205.044 33.7995C205.044 34.3093 205.246 34.7048 205.651 34.9861C206.055 35.2673 206.613 35.4079 207.325 35.4079C207.738 35.4079 208.134 35.364 208.512 35.2761C208.89 35.1794 209.245 35.0608 209.579 34.9201C209.922 34.7707 210.243 34.6125 210.542 34.4455C210.841 34.2697 211.113 34.0984 211.359 33.9314C211.676 33.7204 211.974 33.5446 212.256 33.404C212.546 33.2546 212.801 33.1799 213.02 33.1799C213.24 33.1799 213.381 33.237 213.442 33.3513C213.504 33.4568 213.535 33.571 213.535 33.6941C213.535 33.7644 213.53 33.8347 213.521 33.905C213.521 33.9665 213.517 34.0193 213.508 34.0632C213.464 34.2917 213.376 34.5202 213.244 34.7487C213.113 34.9773 212.946 35.175 212.744 35.342C211.829 36.0627 210.889 36.5769 209.922 36.8845C208.964 37.1921 207.94 37.3459 206.85 37.3459C206.64 37.3459 206.389 37.3327 206.099 37.3064C205.818 37.28 205.523 37.2273 205.216 37.1482C204.908 37.0691 204.605 36.9548 204.306 36.8054C204.007 36.656 203.739 36.4582 203.502 36.2121C203.273 35.966 203.084 35.6628 202.935 35.3025C202.794 34.9421 202.724 34.507 202.724 33.9973C202.724 33.5842 202.781 33.1228 202.895 32.613C202.781 32.5954 202.671 32.5383 202.566 32.4416C202.469 32.3362 202.421 32.1867 202.421 31.9934ZM210.674 28.3415C210.691 28.2976 210.7 28.258 210.7 28.2229C210.7 28.1877 210.7 28.1482 210.7 28.1042C210.7 27.8669 210.612 27.6911 210.436 27.5769C210.261 27.4538 210.05 27.3923 209.804 27.3923C209.417 27.3923 209.035 27.4934 208.657 27.6955C208.287 27.8977 207.936 28.1526 207.602 28.4602C207.277 28.759 206.987 29.0842 206.732 29.4358C206.477 29.7785 206.279 30.0905 206.139 30.3718C206.771 30.3191 207.351 30.2356 207.879 30.1213C208.406 29.9983 208.863 29.8488 209.25 29.6731C209.645 29.4885 209.962 29.2863 210.199 29.0666C210.445 28.8381 210.603 28.5964 210.674 28.3415ZM217.562 32.9821C217.562 32.2439 217.646 31.4792 217.813 30.6882C217.98 29.8884 218.156 29.1237 218.34 28.3943C218.112 28.3855 217.879 28.3503 217.641 28.2888C217.404 28.2273 217.189 28.1438 216.995 28.0383C216.802 27.9328 216.644 27.8054 216.521 27.656C216.398 27.4978 216.336 27.3176 216.336 27.1154C216.336 27.0363 216.354 26.9353 216.389 26.8122C216.424 26.6892 216.473 26.5705 216.534 26.4563C216.604 26.3332 216.692 26.2321 216.798 26.153C216.903 26.0652 217.022 26.0212 217.154 26.0212H218.92C219.087 26.0212 219.202 25.9509 219.263 25.8103C219.325 25.6609 219.373 25.5158 219.408 25.3752C219.522 24.8654 219.628 24.426 219.724 24.0569C219.83 23.6789 219.918 23.3625 219.988 23.1076C220.058 22.844 220.111 22.633 220.146 22.4748C220.19 22.3078 220.212 22.176 220.212 22.0793C220.212 21.9651 220.208 21.8552 220.199 21.7497C220.19 21.6443 220.186 21.4992 220.186 21.3147V21.1828C220.186 21.1125 220.19 21.0202 220.199 20.906C220.217 20.7917 220.261 20.6291 220.331 20.4182C220.384 20.2512 220.48 20.093 220.621 19.9436C220.762 19.7942 220.968 19.7195 221.241 19.7195C221.478 19.7195 221.68 19.7678 221.847 19.8645C222.014 19.9612 222.15 20.0886 222.256 20.2468C222.361 20.405 222.44 20.5852 222.493 20.7873C222.546 20.9895 222.572 21.1916 222.572 21.3938C222.572 21.6135 222.55 21.8112 222.506 21.987L221.544 25.6784C222.018 25.5993 222.44 25.5246 222.809 25.4543C223.179 25.384 223.548 25.3137 223.917 25.2434C224.321 25.1643 224.668 25.0896 224.958 25.0193C225.257 24.9489 225.512 24.8918 225.723 24.8479C225.934 24.7951 226.11 24.7556 226.25 24.7292C226.4 24.6941 226.523 24.6765 226.62 24.6765C226.76 24.6765 226.901 24.6897 227.041 24.716C227.191 24.7336 227.318 24.7688 227.424 24.8215C227.538 24.8742 227.63 24.9489 227.701 25.0456C227.771 25.1423 227.806 25.2697 227.806 25.4279C227.806 25.6389 227.762 25.8279 227.674 25.9948C227.595 26.153 227.49 26.2937 227.358 26.4167C227.226 26.531 227.077 26.6277 226.91 26.7068C226.743 26.7771 226.576 26.8298 226.409 26.865C226.268 26.8913 226.083 26.9309 225.855 26.9836C225.635 27.0363 225.389 27.0935 225.117 27.155C224.853 27.2165 224.576 27.2824 224.286 27.3528C223.996 27.4231 223.715 27.4934 223.442 27.5637C223.038 27.6692 222.691 27.757 222.401 27.8274C222.12 27.8977 221.878 27.9504 221.676 27.9856C221.474 28.0207 221.307 28.0471 221.175 28.0647C221.052 28.0822 220.951 28.091 220.871 28.091C220.704 28.592 220.559 29.0842 220.436 29.5676C220.313 30.051 220.208 30.5036 220.12 30.9255C220.041 31.3386 219.979 31.7121 219.935 32.0461C219.9 32.3713 219.883 32.6262 219.883 32.8108C219.883 33.0481 219.905 33.2766 219.949 33.4963C219.993 33.7072 220.067 33.8918 220.173 34.05C220.278 34.2082 220.419 34.3357 220.595 34.4323C220.779 34.5202 221.008 34.5642 221.28 34.5642C221.746 34.5642 222.203 34.4367 222.651 34.1819C223.099 33.927 223.526 33.6062 223.93 33.2195C224.343 32.8239 224.73 32.3933 225.09 31.9275C225.459 31.4616 225.798 31.0178 226.105 30.5959C226.211 30.4377 226.347 30.3586 226.514 30.3586C226.567 30.3586 226.628 30.3674 226.699 30.385C226.778 30.4026 226.852 30.4333 226.923 30.4773C226.993 30.5212 227.05 30.5783 227.094 30.6487C227.147 30.719 227.173 30.8025 227.173 30.8991C227.173 30.9695 227.169 31.0222 227.16 31.0573C227.019 31.6023 226.8 32.1516 226.501 32.7053C226.211 33.2502 225.912 33.7995 225.604 34.3532C225.499 34.5466 225.358 34.7356 225.182 34.9201C225.016 35.1047 224.831 35.2849 224.629 35.4607C224.427 35.6277 224.216 35.7903 223.996 35.9485C223.776 36.0979 223.57 36.2341 223.376 36.3571C223.042 36.5681 222.678 36.7131 222.282 36.7922C221.887 36.8713 221.504 36.9109 221.135 36.9109C220.564 36.9109 220.054 36.8098 219.606 36.6076C219.166 36.3967 218.793 36.1154 218.485 35.7639C218.186 35.4035 217.958 34.9861 217.8 34.5114C217.641 34.0368 217.562 33.5271 217.562 32.9821Z" fill="black"/>
<path d="M198.493 16.5789C200.451 12.6978 201.574 10.067 206.007 8.93715C209.092 8.15097 211.528 5.79816 214.254 7.82474C217.068 9.91655 223.031 7.05825 226.404 7.00253C230.065 6.94205 230.262 7.97777 233.138 8.79205C234.173 9.08512 239.278 16.3104 240.067 17.3527C242.392 20.4255 240.08 19.2347 239.042 21.4638C238.458 22.7187 239.577 24.8752 238.7 25.9618C237.897 26.9577 238.233 29.1413 236.651 29.5892C235.017 30.052 232.691 29.6376 230.991 29.6376" stroke="black" stroke-width="2.0087" stroke-linecap="round"/>
<path d="M199 17.137C198.132 17.137 196.99 17.6348 196.99 18.4379C196.99 19.0823 196.817 20.3769 197.564 20.6849" stroke="black" stroke-width="2.0087" stroke-linecap="round"/>
<path d="M211.671 18.6575H212.178" stroke="black" stroke-width="2.0087" stroke-linecap="round"/>
<path d="M233.466 18.1507C233.745 18.2128 233.832 18.7423 233.973 19.1644" stroke="black" stroke-width="2.0087" stroke-linecap="round"/>
<path d="M233.973 23.726C234.261 23.7741 234.321 24.423 234.48 24.7397" stroke="black" stroke-width="2.0087" stroke-linecap="round"/>
<path d="M217.247 13.5891C217.596 13.4039 217.893 13.2046 218.26 13.0822" stroke="black" stroke-width="2.0087" stroke-linecap="round"/>
<path d="M203.055 16.6301H204.068" stroke="black" stroke-width="2.0087" stroke-linecap="round"/>
<path d="M219.781 20.178H221.301" stroke="black" stroke-width="2.0087" stroke-linecap="round"/>
<path d="M227.891 10.548C228.788 10.6602 229.23 12.357 229.411 13.0823" stroke="black" stroke-width="2.0087" stroke-linecap="round"/>
</svg>
