<svg width="26" height="29" viewBox="0 0 26 29" fill="none" xmlns="http://www.w3.org/2000/svg">
<path d="M10 27.9644V20.7045C10 20.197 10.5 19.6792 11 19.6792H15C15.5 19.6792 16 20.197 16 20.7148V27.9644C16 28.239 16.1054 28.5024 16.2929 28.6967C16.4804 28.8909 16.7348 29 17 29H25C25.2652 29 25.5196 28.8909 25.7071 28.6967C25.8946 28.5024 26 28.239 26 27.9644V13.4653C26.0002 13.3292 25.9746 13.1944 25.9245 13.0686C25.8744 12.9427 25.8008 12.8284 25.708 12.732L23 9.92957V3.1088C23 2.83413 22.8946 2.5707 22.7071 2.37648C22.5196 2.18226 22.2652 2.07315 22 2.07315H20C19.7348 2.07315 19.4804 2.18226 19.2929 2.37648C19.1054 2.5707 19 2.83413 19 3.1088V5.78698L13.708 0.304261C13.6151 0.207814 13.5048 0.131295 13.3833 0.0790847C13.2618 0.0268747 13.1315 0 13 0C12.8685 0 12.7382 0.0268747 12.6167 0.0790847C12.4952 0.131295 12.3849 0.207814 12.292 0.304261L0.292002 12.732C0.199198 12.8284 0.125642 12.9427 0.0755383 13.0686C0.0254349 13.1944 -0.000233099 13.3292 1.59499e-06 13.4653V27.9644C1.59499e-06 28.239 0.105358 28.5024 0.292895 28.6967C0.480431 28.8909 0.734785 29 1 29H9C9.26522 29 9.51957 28.8909 9.70711 28.6967C9.89464 28.5024 10 28.239 10 27.9644Z" fill="#FFE607"/>
</svg>
