<svg width="24" height="20" viewBox="0 0 24 20" fill="none" xmlns="http://www.w3.org/2000/svg">
<path d="M1.5 2.94892C2.8275 2.3842 4.731 1.77523 6.582 1.58597C8.577 1.38146 10.269 1.68213 11.25 2.73372V17.6086C9.8475 16.7997 8.07 16.6882 6.4305 16.8561C4.6605 17.0393 2.8755 17.5597 1.5 18.0939V2.94892ZM12.75 2.73372C13.731 1.68213 15.423 1.38146 17.418 1.58597C19.269 1.77523 21.1725 2.3842 22.5 2.94892V18.0939C21.123 17.5597 19.3395 17.0378 17.5695 16.8577C15.9285 16.6882 14.1525 16.7981 12.75 17.6086V2.73372ZM12 1.35398C10.5225 0.0612467 8.3805 -0.131061 6.4305 0.0673518C4.1595 0.300868 1.8675 1.09299 0.4395 1.75386C0.308474 1.8145 0.197363 1.91221 0.119432 2.03535C0.0415 2.15849 3.98571e-05 2.30185 0 2.44831L0 19.2371C3.4743e-05 19.3648 0.0315557 19.4904 0.0916756 19.6025C0.151796 19.7146 0.238593 19.8095 0.344116 19.8786C0.44964 19.9477 0.570517 19.9887 0.695675 19.998C0.820833 20.0072 0.946271 19.9844 1.0605 19.9315C2.3835 19.321 4.515 18.5869 6.5805 18.3748C8.694 18.158 10.4655 18.5075 11.415 19.7133C11.4853 19.8024 11.5743 19.8743 11.6756 19.9238C11.7768 19.9732 11.8877 19.9989 12 19.9989C12.1123 19.9989 12.2232 19.9732 12.3244 19.9238C12.4257 19.8743 12.5147 19.8024 12.585 19.7133C13.5345 18.5075 15.306 18.158 17.418 18.3748C19.485 18.5869 21.618 19.321 22.9395 19.9315C23.0537 19.9844 23.1792 20.0072 23.3043 19.998C23.4295 19.9887 23.5504 19.9477 23.6559 19.8786C23.7614 19.8095 23.8482 19.7146 23.9083 19.6025C23.9684 19.4904 24 19.3648 24 19.2371V2.44831C24 2.30185 23.9585 2.15849 23.8806 2.03535C23.8026 1.91221 23.6915 1.8145 23.5605 1.75386C22.1325 1.09299 19.8405 0.300868 17.5695 0.0673518C15.6195 -0.132587 13.4775 0.0612467 12 1.35398Z" fill="#FFE607"/>
</svg>
