<svg width="15" height="25" viewBox="0 0 15 25" fill="none" xmlns="http://www.w3.org/2000/svg">
<path d="M13.6237 14.1219L3.18927 24.4624C1.95968 25.6827 0.033448 24.6909 0.033448 22.8389V2.15791C0.0331342 1.74342 0.138301 1.33761 0.336355 0.989085C0.534409 0.640557 0.816954 0.364083 1.15015 0.192771C1.48335 0.0214589 1.85309 -0.0374284 2.21507 0.0231609C2.57706 0.0837502 2.91595 0.261247 3.19117 0.534397L13.6218 10.8749C13.8262 11.0772 13.9901 11.3268 14.1023 11.6068C14.2146 11.8869 14.2727 12.1908 14.2727 12.4984C14.2727 12.8059 14.2146 13.1099 14.1023 13.3899C13.9901 13.67 13.8262 13.9195 13.6218 14.1219H13.6237Z" fill="#5F333B"/>
</svg>
