<svg width="155" height="51" viewBox="0 0 155 51" fill="none" xmlns="http://www.w3.org/2000/svg">
<path d="M26.3138 20.2772C26.3857 19.9655 26.4756 19.6358 26.5835 19.2882C26.6914 18.9286 26.8352 18.6049 27.0151 18.3172C27.1949 18.0175 27.4286 17.7718 27.7163 17.58C28.004 17.3762 28.3697 17.2743 28.8132 17.2743C29.2328 17.2743 29.6044 17.3942 29.9281 17.6339C30.2637 17.8617 30.5634 18.0954 30.8271 18.3352C31.1388 18.539 31.4385 18.9526 31.7262 19.5759C32.0139 20.1993 32.3076 20.9665 32.6073 21.8775C32.919 22.7886 33.2486 23.8195 33.5963 24.9704C33.9559 26.1212 34.3455 27.3259 34.7651 28.5846C35.1966 29.8433 35.6761 31.132 36.2036 32.4507C36.7311 33.7573 37.3304 35.034 38.0017 36.2807C38.1096 36.4725 38.2355 36.7003 38.3794 36.964C38.5232 37.2158 38.6671 37.4555 38.8109 37.6833C38.9668 37.911 39.1046 38.1028 39.2245 38.2587C39.3564 38.4145 39.4523 38.4924 39.5122 38.4924C39.5482 38.4924 39.5901 38.4025 39.6381 38.2227C39.686 38.0429 39.74 37.8271 39.7999 37.5754C39.8598 37.3236 39.9198 37.0659 39.9797 36.8022C40.0516 36.5384 40.1176 36.3227 40.1775 36.1548C40.4053 35.6034 40.651 34.9741 40.9147 34.2668C41.1905 33.5475 41.4902 32.6844 41.8138 31.6775C42.1495 30.6585 42.5151 29.4537 42.9107 28.0632C43.3063 26.6726 43.7438 25.0243 44.2233 23.1183C44.3432 22.6507 44.4691 22.1233 44.601 21.5359C44.7448 20.9365 44.8767 20.3311 44.9965 19.7198C45.1284 19.0964 45.2423 18.491 45.3382 17.9036C45.4341 17.3162 45.5 16.8068 45.536 16.3752C45.536 16.3033 45.542 16.1774 45.554 15.9976C45.566 15.8178 45.5839 15.614 45.6079 15.3862C45.6439 15.1585 45.6858 14.9247 45.7338 14.6849C45.7817 14.4332 45.8417 14.2054 45.9136 14.0016C45.9975 13.7979 46.0994 13.63 46.2193 13.4982C46.3392 13.3663 46.483 13.3004 46.6508 13.3004C46.8187 13.3004 47.0225 13.3243 47.2622 13.3723C47.514 13.4202 47.7417 13.4922 47.9455 13.5881C48.1733 13.8998 48.3771 14.2774 48.5569 14.7209C48.7487 15.1525 48.8446 15.7399 48.8446 16.4831C48.8446 16.9506 48.7966 17.514 48.7007 18.1734C48.6048 18.8207 48.479 19.522 48.3231 20.2772C48.1793 21.0204 48.0114 21.7876 47.8196 22.5788C47.6398 23.37 47.454 24.1312 47.2622 24.8625C47.0704 25.5817 46.8846 26.247 46.7048 26.8584C46.537 27.4578 46.3931 27.9553 46.2732 28.3509C46.0575 29.0462 45.8297 29.7654 45.5899 30.5087C45.3622 31.2399 45.1044 32.0131 44.8167 32.8283C44.541 33.6314 44.2353 34.4886 43.8997 35.3996C43.576 36.2987 43.2104 37.2637 42.8028 38.2946C42.623 38.7622 42.4132 39.2297 42.1735 39.6972C41.9457 40.1647 41.682 40.5903 41.3823 40.9739C41.0826 41.3455 40.7409 41.6512 40.3573 41.8909C39.9857 42.1187 39.5661 42.2326 39.0986 42.2326C38.8229 42.2326 38.5352 42.1906 38.2355 42.1067C37.9478 42.0348 37.7021 41.879 37.4983 41.6392C36.5153 40.5004 35.6402 39.2117 34.873 37.7732C34.1058 36.3227 33.4165 34.8122 32.8051 33.2418C32.2057 31.6595 31.6723 30.0651 31.2047 28.4588C30.7372 26.8404 30.3117 25.294 29.9281 23.8195L29.8202 23.406C29.7722 23.2381 29.7243 23.0703 29.6763 22.9025C29.6404 22.7227 29.5984 22.5608 29.5504 22.417C29.5145 22.2731 29.4665 22.1593 29.4066 22.0753C29.3586 21.9794 29.2987 21.9315 29.2268 21.9315C29.1549 21.9315 29.0649 22.0634 28.9571 22.3271C28.8492 22.5908 28.7413 22.8905 28.6334 23.2262C28.5255 23.5498 28.4236 23.8675 28.3277 24.1792C28.2438 24.4909 28.1898 24.6886 28.1659 24.7726C28.082 25.0842 27.9561 25.5338 27.7883 26.1212C27.6204 26.6966 27.4286 27.3499 27.2129 28.0812C27.0091 28.8124 26.7813 29.5856 26.5296 30.4008C26.2898 31.2159 26.056 32.0071 25.8283 32.7743C25.6005 33.5295 25.3847 34.2308 25.1809 34.8782C24.9772 35.5255 24.8093 36.047 24.6775 36.4425C24.5696 36.7542 24.4377 37.1558 24.2819 37.6473C24.126 38.1388 23.9702 38.6363 23.8144 39.1398C23.6585 39.6313 23.5147 40.0808 23.3828 40.4884C23.2509 40.896 23.167 41.1657 23.1311 41.2975C22.9872 41.7531 22.7714 42.0947 22.4837 42.3225C22.208 42.5622 21.9263 42.6821 21.6386 42.6821C21.4588 42.6821 21.279 42.6162 21.0991 42.4843C20.9193 42.3645 20.7575 42.2146 20.6136 42.0348C20.4818 41.855 20.3679 41.6632 20.272 41.4594C20.1881 41.2436 20.1461 41.0518 20.1461 40.884C20.1461 40.7881 20.1761 40.6382 20.236 40.4344C20.296 40.2187 20.3919 39.859 20.5237 39.3555L20.9913 37.5035L26.3138 20.2772ZM52.2704 26.0313C52.3184 25.8395 52.3843 25.6776 52.4682 25.5458C52.5641 25.4019 52.66 25.288 52.7559 25.2041C52.8638 25.1202 52.9597 25.0603 53.0436 25.0243C53.1275 24.9883 53.1935 24.9704 53.2414 24.9704C53.3733 24.9704 53.5291 24.9883 53.7089 25.0243C53.8887 25.0483 54.0626 25.0723 54.2304 25.0962C54.4222 25.1322 54.608 25.1682 54.7878 25.2041C55.0995 25.2161 55.3213 25.342 55.4531 25.5817C55.597 25.8215 55.6689 26.1092 55.6689 26.4448C55.6689 26.7086 55.633 26.9543 55.561 27.1821C55.1534 28.6805 54.7818 29.9872 54.4462 31.102C54.1105 32.2049 53.8228 33.1459 53.5831 33.9251C53.3553 34.7043 53.1755 35.3397 53.0436 35.8312C52.9237 36.3227 52.8638 36.6943 52.8638 36.946C52.8638 37.1978 52.8938 37.4795 52.9537 37.7912C53.0256 38.1028 53.1275 38.3965 53.2594 38.6723C53.3913 38.936 53.5591 39.1578 53.7629 39.3376C53.9667 39.5174 54.2124 39.6073 54.5001 39.6073C55.0036 39.6073 55.5131 39.4514 56.0285 39.1398C56.544 38.8281 57.0355 38.4505 57.503 38.0069C57.9705 37.5514 58.3901 37.0719 58.7617 36.5684C59.1453 36.0529 59.457 35.5974 59.6968 35.2018L60.1643 34.3927C60.452 33.8892 60.7157 33.3138 60.9555 32.6664C61.2072 32.0071 61.423 31.3478 61.6028 30.6885C61.7946 30.0291 61.9564 29.4118 62.0883 28.8364C62.2202 28.249 62.3221 27.7815 62.394 27.4338L62.8615 25.0423C62.9574 24.5868 63.1013 24.2751 63.2931 24.1072C63.4969 23.9274 63.8325 23.8375 64.3 23.8375C64.5997 23.8375 64.8694 23.8735 65.1092 23.9454C65.349 24.0054 65.5527 24.1192 65.7206 24.2871C65.8884 24.4549 66.0143 24.6827 66.0982 24.9704C66.1821 25.2461 66.224 25.6057 66.224 26.0492C66.224 26.5647 66.1401 27.2001 65.9723 27.9553C65.8165 28.6985 65.6426 29.4477 65.4508 30.203C65.343 30.6465 65.2291 31.12 65.1092 31.6235C65.0013 32.115 64.8994 32.6125 64.8035 33.116C64.7196 33.6075 64.6477 34.081 64.5877 34.5365C64.5398 34.9801 64.5158 35.3816 64.5158 35.7413C64.5158 36.3526 64.5338 36.964 64.5698 37.5754C64.6177 38.1868 64.6417 38.8341 64.6417 39.5174C64.6417 39.8291 64.6297 40.1048 64.6057 40.3445C64.5937 40.5843 64.5698 40.7641 64.5338 40.884C64.4019 41.3515 64.2281 41.6991 64.0123 41.9269C63.8085 42.1547 63.4549 42.2685 62.9514 42.2685C62.6038 42.2685 62.3281 42.2266 62.1243 42.1427C61.9205 42.0708 61.7586 41.9689 61.6388 41.837C61.5309 41.7051 61.459 41.5613 61.423 41.4054C61.387 41.2376 61.3631 41.0698 61.3511 40.902L61.1533 37.5035L60.9914 37.5574C60.5958 38.0609 60.1643 38.6243 59.6968 39.2477C59.2293 39.871 58.7138 40.4524 58.1504 40.9919C57.5869 41.5313 56.9696 41.9808 56.2983 42.3405C55.6389 42.7121 54.9197 42.8979 54.1405 42.8979C53.9846 42.8979 53.7809 42.8559 53.5291 42.772C53.2894 42.7001 53.0376 42.6042 52.7739 42.4843C52.5102 42.3645 52.2584 42.2266 52.0187 42.0708C51.7789 41.9269 51.5871 41.789 51.4433 41.6572C50.7839 41.0458 50.3164 40.3565 50.0407 39.5893C49.765 38.8221 49.6271 38.0429 49.6271 37.2517C49.6271 36.8082 49.6631 36.3646 49.735 35.9211C49.807 35.4775 49.8909 35.052 49.9868 34.6444C50.0827 34.2248 50.1846 33.8352 50.2925 33.4756C50.4123 33.104 50.5082 32.7743 50.5802 32.4866C50.8079 31.5875 51.0117 30.7964 51.1915 30.1131C51.3713 29.4298 51.5272 28.8304 51.659 28.3149C51.8029 27.7994 51.9228 27.3619 52.0187 27.0023C52.1146 26.6306 52.1985 26.307 52.2704 26.0313ZM70.2073 50.3422C70.1114 50.3422 70.0035 50.3183 69.8836 50.2703C69.7638 50.2343 69.6499 50.1684 69.542 50.0725C69.4461 49.9886 69.3622 49.8747 69.2903 49.7309C69.2183 49.599 69.1824 49.4372 69.1824 49.2454C69.1824 49.1135 69.2004 48.9756 69.2363 48.8318C69.3322 48.4362 69.4341 48.1125 69.542 47.8608C69.6499 47.621 69.8057 47.4172 70.0095 47.2494C70.2133 47.0816 70.489 46.9377 70.8367 46.8179C71.1843 46.71 71.6398 46.5961 72.2033 46.4762C72.5629 46.4043 72.8985 46.3204 73.2102 46.2245C73.5339 46.1406 73.7976 46.0327 74.0014 45.9008C74.6128 45.3614 75.1282 44.8039 75.5478 44.2285C75.9794 43.6531 76.339 43.0537 76.6267 42.4304C76.9264 41.819 77.1721 41.1897 77.3639 40.5423C77.5677 39.895 77.7595 39.2357 77.9394 38.5644C78.0113 38.3366 78.0712 38.1028 78.1192 37.8631C78.1791 37.6113 78.251 37.3296 78.3349 37.018C77.8794 37.4135 77.4059 37.8091 76.9144 38.2047C76.4229 38.6003 75.9194 38.954 75.404 39.2656C74.8885 39.5773 74.361 39.8351 73.8216 40.0388C73.2941 40.2306 72.7667 40.3265 72.2392 40.3265C71.9275 40.3265 71.5739 40.2306 71.1783 40.0388C70.7947 39.847 70.4291 39.5953 70.0814 39.2836C69.7338 38.9719 69.4401 38.6123 69.2004 38.2047C68.9606 37.7852 68.8407 37.3476 68.8407 36.8921C68.8407 36.6044 68.8767 36.2927 68.9486 35.957C69.0205 35.6214 69.0865 35.3217 69.1464 35.058C69.3382 34.2668 69.6199 33.4996 69.9915 32.7563C70.3632 32.0131 70.7947 31.3058 71.2862 30.6345C71.7777 29.9632 72.3171 29.3279 72.9045 28.7285C73.4919 28.1171 74.1033 27.5537 74.7386 27.0382C75.5298 26.3909 76.321 25.9234 77.1122 25.6357C77.9034 25.348 78.7425 25.2041 79.6296 25.2041C80.0012 25.2041 80.3549 25.2221 80.6905 25.2581C81.0382 25.294 81.3618 25.3719 81.6615 25.4918C81.9732 25.5997 82.2609 25.7675 82.5246 25.9953C82.7884 26.2111 83.0281 26.4988 83.2439 26.8584C83.2918 26.9423 83.3278 27.0442 83.3518 27.1641C83.3877 27.272 83.4057 27.3679 83.4057 27.4518C83.4057 27.5477 83.3758 27.7875 83.3158 28.1711C83.2679 28.5427 83.1959 29.0102 83.1 29.5736C83.0161 30.1251 82.9082 30.7484 82.7764 31.4437C82.6565 32.127 82.5306 32.8223 82.3988 33.5295C82.2669 34.2248 82.135 34.9141 82.0032 35.5974C81.8713 36.2687 81.7454 36.8741 81.6256 37.4135C81.4218 38.3606 81.164 39.3376 80.8524 40.3445C80.5527 41.3515 80.181 42.3345 79.7375 43.2935C79.3059 44.2525 78.7965 45.1576 78.2091 46.0087C77.6217 46.8598 76.9384 47.6031 76.1592 48.2384C75.38 48.8857 74.4989 49.3952 73.5159 49.7668C72.5329 50.1504 71.4301 50.3422 70.2073 50.3422ZM71.9875 35.4536C71.9515 35.5974 71.9156 35.7473 71.8796 35.9031C71.8556 36.047 71.8436 36.1908 71.8436 36.3347C71.8436 36.5984 71.8916 36.8262 71.9875 37.018C72.0834 37.2098 72.2572 37.3057 72.5089 37.3057C72.9045 37.3057 73.3661 37.1678 73.8935 36.8921C74.433 36.6044 74.9664 36.2448 75.4939 35.8132C76.0333 35.3816 76.5368 34.9141 77.0043 34.4106C77.4838 33.9072 77.8614 33.4277 78.1372 32.9721C78.257 32.7803 78.4129 32.5166 78.6047 32.1809C78.8085 31.8453 79.0063 31.4857 79.1981 31.102C79.4018 30.7065 79.5817 30.3169 79.7375 29.9332C79.8933 29.5377 79.9892 29.19 80.0252 28.8903C80.0252 28.6865 79.9833 28.5007 79.8993 28.3329C79.8154 28.1531 79.7435 27.9073 79.6836 27.5957H79.5217C79.234 27.5957 78.9044 27.6916 78.5327 27.8834C78.1611 28.0632 77.7655 28.3029 77.346 28.6026C76.9384 28.9023 76.5248 29.244 76.1052 29.6276C75.6857 29.9992 75.2901 30.3828 74.9185 30.7784C74.5468 31.162 74.2052 31.5396 73.8935 31.9112C73.5938 32.2708 73.3601 32.5885 73.1922 32.8642C72.9405 33.2598 72.7067 33.6614 72.491 34.069C72.2872 34.4646 72.1193 34.9261 71.9875 35.4536ZM87.2811 50.3422C87.1852 50.3422 87.0773 50.3183 86.9574 50.2703C86.8375 50.2343 86.7237 50.1684 86.6158 50.0725C86.5199 49.9886 86.436 49.8747 86.364 49.7309C86.2921 49.599 86.2561 49.4372 86.2561 49.2454C86.2561 49.1135 86.2741 48.9756 86.3101 48.8318C86.406 48.4362 86.5079 48.1125 86.6158 47.8608C86.7237 47.621 86.8795 47.4172 87.0833 47.2494C87.2871 47.0816 87.5628 46.9377 87.9104 46.8179C88.2581 46.71 88.7136 46.5961 89.277 46.4762C89.6367 46.4043 89.9723 46.3204 90.284 46.2245C90.6077 46.1406 90.8714 46.0327 91.0752 45.9008C91.6866 45.3614 92.202 44.8039 92.6216 44.2285C93.0531 43.6531 93.4128 43.0537 93.7005 42.4304C94.0002 41.819 94.2459 41.1897 94.4377 40.5423C94.6415 39.895 94.8333 39.2357 95.0131 38.5644C95.0851 38.3366 95.145 38.1028 95.1929 37.8631C95.2529 37.6113 95.3248 37.3296 95.4087 37.018C94.9532 37.4135 94.4797 37.8091 93.9882 38.2047C93.4967 38.6003 92.9932 38.954 92.4777 39.2656C91.9623 39.5773 91.4348 39.8351 90.8954 40.0388C90.3679 40.2306 89.8405 40.3265 89.313 40.3265C89.0013 40.3265 88.6477 40.2306 88.2521 40.0388C87.8685 39.847 87.5029 39.5953 87.1552 39.2836C86.8076 38.9719 86.5139 38.6123 86.2741 38.2047C86.0344 37.7852 85.9145 37.3476 85.9145 36.8921C85.9145 36.6044 85.9505 36.2927 86.0224 35.957C86.0943 35.6214 86.1602 35.3217 86.2202 35.058C86.412 34.2668 86.6937 33.4996 87.0653 32.7563C87.4369 32.0131 87.8685 31.3058 88.36 30.6345C88.8515 29.9632 89.3909 29.3279 89.9783 28.7285C90.5657 28.1171 91.1771 27.5537 91.8124 27.0382C92.6036 26.3909 93.3948 25.9234 94.186 25.6357C94.9772 25.348 95.8163 25.2041 96.7034 25.2041C97.075 25.2041 97.4286 25.2221 97.7643 25.2581C98.1119 25.294 98.4356 25.3719 98.7353 25.4918C99.047 25.5997 99.3347 25.7675 99.5984 25.9953C99.8621 26.2111 100.102 26.4988 100.318 26.8584C100.366 26.9423 100.402 27.0442 100.426 27.1641C100.462 27.272 100.48 27.3679 100.48 27.4518C100.48 27.5477 100.45 27.7875 100.39 28.1711C100.342 28.5427 100.27 29.0102 100.174 29.5736C100.09 30.1251 99.982 30.7484 99.8502 31.4437C99.7303 32.127 99.6044 32.8223 99.4725 33.5295C99.3407 34.2248 99.2088 34.9141 99.0769 35.5974C98.9451 36.2687 98.8192 36.8741 98.6993 37.4135C98.4955 38.3606 98.2378 39.3376 97.9261 40.3445C97.6264 41.3515 97.2548 42.3345 96.8113 43.2935C96.3797 44.2525 95.8702 45.1576 95.2829 46.0087C94.6955 46.8598 94.0122 47.6031 93.233 48.2384C92.4538 48.8857 91.5727 49.3952 90.5897 49.7668C89.6067 50.1504 88.5038 50.3422 87.2811 50.3422ZM89.0613 35.4536C89.0253 35.5974 88.9893 35.7473 88.9534 35.9031C88.9294 36.047 88.9174 36.1908 88.9174 36.3347C88.9174 36.5984 88.9654 36.8262 89.0613 37.018C89.1572 37.2098 89.331 37.3057 89.5827 37.3057C89.9783 37.3057 90.4398 37.1678 90.9673 36.8921C91.5067 36.6044 92.0402 36.2448 92.5676 35.8132C93.1071 35.3816 93.6106 34.9141 94.0781 34.4106C94.5576 33.9072 94.9352 33.4277 95.2109 32.9721C95.3308 32.7803 95.4866 32.5166 95.6784 32.1809C95.8822 31.8453 96.08 31.4857 96.2718 31.102C96.4756 30.7065 96.6554 30.3169 96.8113 29.9332C96.9671 29.5377 97.063 29.19 97.099 28.8903C97.099 28.6865 97.057 28.5007 96.9731 28.3329C96.8892 28.1531 96.8173 27.9073 96.7573 27.5957H96.5955C96.3078 27.5957 95.9781 27.6916 95.6065 27.8834C95.2349 28.0632 94.8393 28.3029 94.4197 28.6026C94.0122 28.9023 93.5986 29.244 93.179 29.6276C92.7595 29.9992 92.3639 30.3828 91.9922 30.7784C91.6206 31.162 91.279 31.5396 90.9673 31.9112C90.6676 32.2708 90.4338 32.5885 90.266 32.8642C90.0143 33.2598 89.7805 33.6614 89.5647 34.069C89.3609 34.4646 89.1931 34.9261 89.0613 35.4536ZM103.096 35.0939C103.096 34.5785 103.234 34.1409 103.51 33.7813C103.785 33.4217 104.151 33.1819 104.607 33.062C104.738 32.7983 104.942 32.4447 105.218 32.0011C105.494 31.5456 105.835 31.0541 106.243 30.5266C106.651 29.9992 107.112 29.4717 107.628 28.9443C108.155 28.4048 108.73 27.9193 109.354 27.4878C109.989 27.0442 110.666 26.6846 111.386 26.4089C112.117 26.1332 112.89 25.9953 113.705 25.9953C114.401 25.9953 115.006 26.0792 115.521 26.247C116.037 26.4149 116.462 26.6486 116.798 26.9483C117.134 27.248 117.385 27.6076 117.553 28.0272C117.721 28.4348 117.805 28.8783 117.805 29.3578C117.805 29.7654 117.751 30.155 117.643 30.5266C117.475 31.1979 117.164 31.7853 116.708 32.2888C116.253 32.7923 115.713 33.2358 115.09 33.6195C114.478 33.9911 113.807 34.3028 113.076 34.5545C112.357 34.8062 111.631 35.016 110.9 35.1838C110.181 35.3517 109.486 35.4835 108.814 35.5794C108.143 35.6633 107.562 35.7293 107.07 35.7772C106.962 35.993 106.866 36.2687 106.782 36.6044C106.71 36.928 106.674 37.2457 106.674 37.5574C106.674 38.2527 106.95 38.7921 107.502 39.1757C108.053 39.5593 108.814 39.7511 109.785 39.7511C110.349 39.7511 110.888 39.6912 111.404 39.5713C111.919 39.4395 112.405 39.2776 112.86 39.0858C113.328 38.882 113.765 38.6663 114.173 38.4385C114.58 38.1987 114.952 37.965 115.288 37.7372C115.719 37.4495 116.127 37.2098 116.51 37.018C116.906 36.8142 117.254 36.7123 117.553 36.7123C117.853 36.7123 118.045 36.7902 118.129 36.946C118.213 37.0899 118.255 37.2457 118.255 37.4135C118.255 37.5094 118.249 37.6054 118.237 37.7013C118.237 37.7852 118.231 37.8571 118.219 37.917C118.159 38.2287 118.039 38.5404 117.859 38.8521C117.679 39.1637 117.451 39.4335 117.176 39.6612C115.929 40.6442 114.646 41.3455 113.328 41.7651C112.021 42.1846 110.624 42.3944 109.138 42.3944C108.85 42.3944 108.509 42.3764 108.113 42.3405C107.729 42.3045 107.328 42.2326 106.908 42.1247C106.489 42.0168 106.075 41.861 105.668 41.6572C105.26 41.4534 104.894 41.1837 104.571 40.848C104.259 40.5124 104.001 40.0988 103.797 39.6073C103.606 39.1158 103.51 38.5224 103.51 37.8271C103.51 37.2637 103.588 36.6343 103.744 35.9391C103.588 35.9151 103.438 35.8372 103.294 35.7053C103.162 35.5615 103.096 35.3577 103.096 35.0939ZM114.353 30.1131C114.377 30.0531 114.389 29.9992 114.389 29.9512C114.389 29.9033 114.389 29.8493 114.389 29.7894C114.389 29.4657 114.269 29.226 114.029 29.0701C113.789 28.9023 113.501 28.8184 113.166 28.8184C112.638 28.8184 112.117 28.9563 111.601 29.232C111.098 29.5077 110.618 29.8553 110.163 30.2749C109.719 30.6825 109.324 31.126 108.976 31.6055C108.628 32.073 108.359 32.4986 108.167 32.8822C109.03 32.8103 109.821 32.6964 110.541 32.5406C111.26 32.3727 111.883 32.1689 112.411 31.9292C112.95 31.6775 113.382 31.4017 113.705 31.102C114.041 30.7904 114.257 30.4607 114.353 30.1131ZM123.748 36.4425C123.748 35.4356 123.862 34.3927 124.09 33.3138C124.318 32.2229 124.557 31.18 124.809 30.185C124.498 30.173 124.18 30.1251 123.856 30.0411C123.532 29.9572 123.239 29.8433 122.975 29.6995C122.711 29.5556 122.496 29.3818 122.328 29.178C122.16 28.9622 122.076 28.7165 122.076 28.4408C122.076 28.3329 122.1 28.195 122.148 28.0272C122.196 27.8594 122.262 27.6976 122.346 27.5417C122.442 27.3739 122.561 27.236 122.705 27.1281C122.849 27.0083 123.011 26.9483 123.191 26.9483H125.6C125.828 26.9483 125.984 26.8524 126.068 26.6606C126.152 26.4568 126.218 26.259 126.266 26.0672C126.422 25.3719 126.565 24.7726 126.697 24.2691C126.841 23.7536 126.961 23.3221 127.057 22.9744C127.153 22.6148 127.225 22.3271 127.273 22.1113C127.333 21.8835 127.363 21.7037 127.363 21.5719C127.363 21.416 127.357 21.2662 127.345 21.1223C127.333 20.9785 127.327 20.7807 127.327 20.5289V20.3491C127.327 20.2532 127.333 20.1273 127.345 19.9715C127.369 19.8157 127.428 19.5939 127.524 19.3062C127.596 19.0784 127.728 18.8626 127.92 18.6589C128.112 18.4551 128.393 18.3532 128.765 18.3532C129.089 18.3532 129.364 18.4191 129.592 18.551C129.82 18.6828 130.006 18.8567 130.15 19.0724C130.294 19.2882 130.401 19.534 130.473 19.8097C130.545 20.0854 130.581 20.3611 130.581 20.6368C130.581 20.9365 130.551 21.2062 130.491 21.446L129.179 26.4808C129.826 26.3729 130.401 26.271 130.905 26.1751C131.408 26.0792 131.912 25.9833 132.415 25.8874C132.967 25.7795 133.44 25.6776 133.836 25.5817C134.243 25.4858 134.591 25.4079 134.879 25.348C135.167 25.276 135.406 25.2221 135.598 25.1861C135.802 25.1382 135.97 25.1142 136.102 25.1142C136.293 25.1142 136.485 25.1322 136.677 25.1682C136.881 25.1921 137.055 25.2401 137.198 25.312C137.354 25.3839 137.48 25.4858 137.576 25.6177C137.672 25.7496 137.72 25.9234 137.72 26.1392C137.72 26.4269 137.66 26.6846 137.54 26.9124C137.432 27.1281 137.288 27.3199 137.109 27.4878C136.929 27.6436 136.725 27.7755 136.497 27.8834C136.269 27.9793 136.042 28.0512 135.814 28.0991C135.622 28.1351 135.37 28.189 135.059 28.261C134.759 28.3329 134.423 28.4108 134.052 28.4947C133.692 28.5786 133.314 28.6686 132.919 28.7645C132.523 28.8604 132.14 28.9563 131.768 29.0522C131.217 29.196 130.743 29.3159 130.347 29.4118C129.964 29.5077 129.634 29.5796 129.358 29.6276C129.083 29.6755 128.855 29.7115 128.675 29.7355C128.507 29.7594 128.37 29.7714 128.262 29.7714C128.034 30.4547 127.836 31.126 127.668 31.7853C127.5 32.4447 127.357 33.062 127.237 33.6374C127.129 34.2009 127.045 34.7103 126.985 35.1659C126.937 35.6094 126.913 35.957 126.913 36.2088C126.913 36.5325 126.943 36.8441 127.003 37.1438C127.063 37.4315 127.165 37.6833 127.309 37.899C127.452 38.1148 127.644 38.2886 127.884 38.4205C128.136 38.5404 128.447 38.6003 128.819 38.6003C129.454 38.6003 130.078 38.4265 130.689 38.0789C131.3 37.7312 131.882 37.2937 132.433 36.7662C132.997 36.2268 133.524 35.6394 134.016 35.004C134.519 34.3687 134.981 33.7633 135.4 33.1879C135.544 32.9721 135.73 32.8642 135.958 32.8642C136.03 32.8642 136.114 32.8762 136.209 32.9002C136.317 32.9242 136.419 32.9661 136.515 33.0261C136.611 33.086 136.689 33.1639 136.749 33.2598C136.821 33.3557 136.857 33.4696 136.857 33.6015C136.857 33.6974 136.851 33.7693 136.839 33.8172C136.647 34.5605 136.347 35.3097 135.94 36.0649C135.544 36.8082 135.137 37.5574 134.717 38.3126C134.573 38.5764 134.381 38.8341 134.142 39.0858C133.914 39.3376 133.662 39.5833 133.386 39.8231C133.111 40.0508 132.823 40.2726 132.523 40.4884C132.224 40.6922 131.942 40.878 131.678 41.0458C131.223 41.3335 130.725 41.5313 130.186 41.6392C129.646 41.7471 129.125 41.801 128.621 41.801C127.842 41.801 127.147 41.6632 126.535 41.3875C125.936 41.0998 125.427 40.7161 125.007 40.2366C124.599 39.7451 124.288 39.1757 124.072 38.5284C123.856 37.8811 123.748 37.1858 123.748 36.4425Z" fill="black"/>
<path d="M97.0869 13.6541C99.6732 8.52698 101.158 5.05166 107.014 3.55904C111.089 2.52047 114.306 -0.587668 117.908 2.08952C121.625 4.85286 129.502 1.07696 133.958 1.00334C138.795 0.923442 139.055 2.29166 142.854 3.36736C144.221 3.75451 150.965 13.2993 152.007 14.6763C155.079 18.7355 152.025 17.1625 150.654 20.1072C149.882 21.7649 151.361 24.6137 150.202 26.0492C149.14 27.3648 149.584 30.2494 147.495 30.8411C145.336 31.4524 142.264 30.905 140.018 30.905" stroke="black" stroke-width="2.0087" stroke-linecap="round"/>
<path d="M97.7566 14.3912C96.6101 14.3912 95.1014 15.0489 95.1014 16.1098C95.1014 16.9611 94.8722 18.6713 95.86 19.0782" stroke="black" stroke-width="2.0087" stroke-linecap="round"/>
<path d="M114.496 16.4H115.165" stroke="black" stroke-width="2.0087" stroke-linecap="round"/>
<path d="M143.287 15.7303C143.656 15.8124 143.771 16.512 143.956 17.0695" stroke="black" stroke-width="2.0087" stroke-linecap="round"/>
<path d="M143.957 23.0957C144.338 23.1592 144.417 24.0164 144.626 24.4348" stroke="black" stroke-width="2.0087" stroke-linecap="round"/>
<path d="M121.861 9.70436C122.323 9.4597 122.715 9.19641 123.2 9.03479" stroke="black" stroke-width="2.0087" stroke-linecap="round"/>
<path d="M103.113 13.7217H104.452" stroke="black" stroke-width="2.0087" stroke-linecap="round"/>
<path d="M125.209 18.4087H127.217" stroke="black" stroke-width="2.0087" stroke-linecap="round"/>
<path d="M135.922 5.68701C137.107 5.83512 137.691 8.07666 137.931 9.03484" stroke="black" stroke-width="2.0087" stroke-linecap="round"/>
</svg>
