<svg width="24" height="24" viewBox="0 0 24 24" fill="none" xmlns="http://www.w3.org/2000/svg">
<path d="M4.455 0.56C4.59583 0.384375 4.77066 0.243377 4.96745 0.146706C5.16425 0.0500345 5.37834 -1.52011e-05 5.595 3.46317e-09H18.405C18.6217 -1.52011e-05 18.8358 0.0500345 19.0325 0.146706C19.2293 0.243377 19.4042 0.384375 19.545 0.56L23.4585 5.4304C23.8079 5.86533 24 6.41922 24 6.992V7.4C24.0001 8.19196 23.7682 8.96416 23.3367 9.60867C22.9053 10.2532 22.2958 10.7378 21.5935 10.9948C20.8912 11.2518 20.1312 11.2683 19.4197 11.042C18.7082 10.8158 18.0807 10.358 17.625 9.7328C17.2923 10.1901 16.8658 10.5601 16.3783 10.8144C15.8908 11.0688 15.3552 11.2006 14.8125 11.2C14.2698 11.2006 13.7342 11.0688 13.2467 10.8144C12.7592 10.5601 12.3327 10.1901 12 9.7328C11.6673 10.1901 11.2408 10.5601 10.7533 10.8144C10.2658 11.0688 9.73019 11.2006 9.1875 11.2C8.64481 11.2006 8.10919 11.0688 7.62168 10.8144C7.13416 10.5601 6.70771 10.1901 6.375 9.7328C5.91929 10.358 5.29182 10.8158 4.58031 11.042C3.86879 11.2683 3.10877 11.2518 2.40649 10.9948C1.7042 10.7378 1.09473 10.2532 0.663273 9.60867C0.231813 8.96416 -8.18979e-05 8.19196 2.16968e-08 7.4V6.992C1.89113e-05 6.41922 0.192085 5.86533 0.5415 5.4304L4.455 0.56ZM7.125 7.4C7.125 7.98348 7.3423 8.54306 7.72909 8.95564C8.11589 9.36822 8.64049 9.6 9.1875 9.6C9.73451 9.6 10.2591 9.36822 10.6459 8.95564C11.0327 8.54306 11.25 7.98348 11.25 7.4C11.25 7.18783 11.329 6.98434 11.4697 6.83431C11.6103 6.68429 11.8011 6.6 12 6.6C12.1989 6.6 12.3897 6.68429 12.5303 6.83431C12.671 6.98434 12.75 7.18783 12.75 7.4C12.75 7.98348 12.9673 8.54306 13.3541 8.95564C13.7409 9.36822 14.2655 9.6 14.8125 9.6C15.3595 9.6 15.8841 9.36822 16.2709 8.95564C16.6577 8.54306 16.875 7.98348 16.875 7.4C16.875 7.18783 16.954 6.98434 17.0947 6.83431C17.2353 6.68429 17.4261 6.6 17.625 6.6C17.8239 6.6 18.0147 6.68429 18.1553 6.83431C18.296 6.98434 18.375 7.18783 18.375 7.4C18.375 7.98348 18.5923 8.54306 18.9791 8.95564C19.3659 9.36822 19.8905 9.6 20.4375 9.6C20.9845 9.6 21.5091 9.36822 21.8959 8.95564C22.2827 8.54306 22.5 7.98348 22.5 7.4V6.992C22.5 6.80132 22.4362 6.61691 22.32 6.472L18.405 1.6H5.595L1.68 6.472C1.56382 6.61691 1.49999 6.80132 1.5 6.992V7.4C1.5 7.98348 1.7173 8.54306 2.10409 8.95564C2.49089 9.36822 3.01549 9.6 3.5625 9.6C4.10951 9.6 4.63411 9.36822 5.02091 8.95564C5.4077 8.54306 5.625 7.98348 5.625 7.4C5.625 7.18783 5.70402 6.98434 5.84467 6.83431C5.98532 6.68429 6.17609 6.6 6.375 6.6C6.57391 6.6 6.76468 6.68429 6.90533 6.83431C7.04598 6.98434 7.125 7.18783 7.125 7.4ZM2.25 12C2.44891 12 2.63968 12.0843 2.78033 12.2343C2.92098 12.3843 3 12.5878 3 12.8V22.4H21V12.8C21 12.5878 21.079 12.3843 21.2197 12.2343C21.3603 12.0843 21.5511 12 21.75 12C21.9489 12 22.1397 12.0843 22.2803 12.2343C22.421 12.3843 22.5 12.5878 22.5 12.8V22.4H23.25C23.4489 22.4 23.6397 22.4843 23.7803 22.6343C23.921 22.7843 24 22.9878 24 23.2C24 23.4122 23.921 23.6157 23.7803 23.7657C23.6397 23.9157 23.4489 24 23.25 24H0.75C0.551088 24 0.360322 23.9157 0.21967 23.7657C0.0790177 23.6157 2.16968e-08 23.4122 2.16968e-08 23.2C2.16968e-08 22.9878 0.0790177 22.7843 0.21967 22.6343C0.360322 22.4843 0.551088 22.4 0.75 22.4H1.5V12.8C1.5 12.5878 1.57902 12.3843 1.71967 12.2343C1.86032 12.0843 2.05109 12 2.25 12ZM5.25 12.8C5.44891 12.8 5.63968 12.8843 5.78033 13.0343C5.92098 13.1843 6 13.3878 6 13.6V19.2H18V13.6C18 13.3878 18.079 13.1843 18.2197 13.0343C18.3603 12.8843 18.5511 12.8 18.75 12.8C18.9489 12.8 19.1397 12.8843 19.2803 13.0343C19.421 13.1843 19.5 13.3878 19.5 13.6V19.2C19.5 19.6243 19.342 20.0313 19.0607 20.3314C18.7794 20.6314 18.3978 20.8 18 20.8H6C5.60218 20.8 5.22064 20.6314 4.93934 20.3314C4.65804 20.0313 4.5 19.6243 4.5 19.2V13.6C4.5 13.3878 4.57902 13.1843 4.71967 13.0343C4.86032 12.8843 5.05109 12.8 5.25 12.8Z" fill="#FFE607"/>
</svg>
