<svg width="320" height="169" viewBox="0 0 320 169" fill="none" xmlns="http://www.w3.org/2000/svg">
<rect width="320" height="169" rx="10" fill="#F1E89E"/>
<path d="M28.658 43.617C31.185 43.617 32.971 45.954 32.971 49.602C32.971 53.269 31.185 55.606 28.658 55.606C26.131 55.606 24.345 53.269 24.345 49.602C24.345 45.954 26.131 43.617 28.658 43.617ZM28.658 45.042C26.986 45.042 25.846 46.828 25.846 49.602C25.846 52.395 26.986 54.219 28.658 54.219C30.311 54.219 31.47 52.395 31.47 49.602C31.47 46.828 30.311 45.042 28.658 45.042ZM35.707 42.306H37.303V59.482H35.707V42.306ZM36.923 49.165H40.115V50.495H36.923V49.165ZM53.8505 42.287H55.4275V59.501H53.8505V42.287ZM46.3645 43.617C48.9105 43.617 50.7345 45.954 50.7345 49.602C50.7345 53.269 48.9105 55.606 46.3645 55.606C43.8375 55.606 42.0135 53.269 42.0135 49.602C42.0135 45.954 43.8375 43.617 46.3645 43.617ZM46.3645 45.042C44.6925 45.042 43.5145 46.828 43.5145 49.602C43.5145 52.395 44.6925 54.219 46.3645 54.219C48.0555 54.219 49.2145 52.395 49.2145 49.602C49.2145 46.828 48.0555 45.042 46.3645 45.042ZM71.139 42.306H72.716V59.52H71.139V42.306ZM59.777 53.915H61.164C64.565 53.915 66.769 53.801 69.315 53.326L69.486 54.656C66.864 55.15 64.622 55.245 61.164 55.245H59.777V53.915ZM59.777 43.94H67.89V45.251H61.335V54.409H59.777V43.94ZM81.3215 43.769H95.1345V45.004H81.3215V43.769ZM88.2755 45.707C91.8095 45.707 93.8235 46.562 93.8235 48.196C93.8235 49.83 91.8095 50.685 88.2755 50.685C84.7415 50.685 82.7275 49.83 82.7275 48.196C82.7275 46.562 84.7415 45.707 88.2755 45.707ZM88.2755 46.809C85.7485 46.809 84.3425 47.303 84.3425 48.196C84.3425 49.07 85.7485 49.545 88.2755 49.545C90.8025 49.545 92.2085 49.07 92.2085 48.196C92.2085 47.303 90.8025 46.809 88.2755 46.809ZM87.4965 42.04H89.0545V44.51H87.4965V42.04ZM80.5045 52.053H96.0275V53.326H80.5045V52.053ZM87.4965 50.248H89.0545V52.642H87.4965V50.248ZM82.1955 54.694H93.9755V59.482H92.4175V55.929H82.1955V54.694ZM97.7931 51.331H113.316V52.623H97.7931V51.331ZM99.8071 57.81H111.606V59.102H99.8071V57.81ZM99.8071 54.124H101.384V58.209H99.8071V54.124ZM105.564 42.876C109.231 42.876 111.606 44.168 111.606 46.315C111.606 48.443 109.231 49.735 105.564 49.735C101.878 49.735 99.5221 48.443 99.5221 46.315C99.5221 44.168 101.878 42.876 105.564 42.876ZM105.564 44.168C102.866 44.168 101.137 44.966 101.137 46.315C101.137 47.664 102.866 48.462 105.564 48.462C108.262 48.462 109.991 47.664 109.991 46.315C109.991 44.966 108.262 44.168 105.564 44.168ZM132.125 42.287H133.702V59.501H132.125V42.287ZM120.63 43.75H122.188V48.291H127.147V43.75H128.724V55.359H120.63V43.75ZM122.188 49.545V54.067H127.147V49.545H122.188ZM137.842 43.256H145.841V50.286H137.842V43.256ZM144.321 44.51H139.362V49.013H144.321V44.51ZM149.432 42.306H151.009V51.141H149.432V42.306ZM139.894 51.996H151.009V56.157H141.471V58.57H139.932V54.979H149.451V53.25H139.894V51.996ZM139.932 58.038H151.598V59.292H139.932V58.038ZM162.332 47.151H167.272V48.443H162.332V47.151ZM166.778 42.325H168.355V55.036H166.778V42.325ZM157.316 57.81H168.773V59.102H157.316V57.81ZM157.316 53.801H158.893V58.475H157.316V53.801ZM155.074 43.446H156.632V46.486H161.287V43.446H162.826V52.11H155.074V43.446ZM156.632 47.721V50.818H161.287V47.721H156.632ZM172.286 44.814H186.232V46.106H172.286V44.814ZM171.526 56.176H187.087V57.487H171.526V56.176ZM178.499 53.459H180.057V56.689H178.499V53.459ZM179.259 47.265C182.736 47.265 184.883 48.462 184.883 50.533C184.883 52.604 182.736 53.801 179.259 53.801C175.801 53.801 173.654 52.604 173.654 50.533C173.654 48.462 175.801 47.265 179.259 47.265ZM179.259 48.5C176.77 48.5 175.231 49.26 175.231 50.533C175.231 51.806 176.77 52.547 179.259 52.547C181.767 52.547 183.287 51.806 183.287 50.533C183.287 49.26 181.767 48.5 179.259 48.5ZM178.499 42.591H180.057V45.612H178.499V42.591ZM200.424 42.287H202.02V59.482H200.424V42.287ZM201.583 49.26H204.756V50.571H201.583V49.26ZM196.035 44.149H197.574C197.574 49.032 195.332 53.44 189.784 56.233L188.91 55.017C193.66 52.604 196.035 48.937 196.035 44.396V44.149ZM189.708 44.149H196.852V45.441H189.708V44.149ZM212.696 47.816H224.343V48.956H212.696V47.816ZM212.696 42.743H224.267V43.883H214.254V48.348H212.696V42.743ZM213.798 45.251H223.811V46.353H213.798V45.251ZM210.663 50.229H226.167V51.445H210.663V50.229ZM212.525 52.756H224.191V56.518H214.121V58.646H212.563V55.397H222.633V53.915H212.525V52.756ZM212.563 58.133H224.704V59.292H212.563V58.133ZM228.655 50.514H229.89C233.215 50.514 234.906 50.476 236.996 50.115L237.167 51.388C235.001 51.768 233.272 51.806 229.89 51.806H228.655V50.514ZM228.617 43.18H236.027V48.025H230.213V51.483H228.655V46.79H234.469V44.472H228.617V43.18ZM240.492 42.325H242.069V52.604H240.492V42.325ZM237.167 44.7H240.872V45.973H237.167V44.7ZM237.167 48.272H240.872V49.564H237.167V48.272ZM232.265 53.06H233.5V54.01C233.5 56.271 232.094 58.57 229.605 59.52L228.826 58.342C230.992 57.544 232.265 55.682 232.265 54.01V53.06ZM232.626 53.06H233.785V54.01C233.785 55.758 234.811 57.62 236.882 58.475L236.198 59.653C233.728 58.684 232.626 56.309 232.626 54.01V53.06ZM238.611 53.06H239.789V54.01C239.789 56.062 238.649 58.627 236.198 59.653L235.533 58.475C237.585 57.544 238.611 55.511 238.611 54.01V53.06ZM238.934 53.06H240.15V54.01C240.15 55.796 241.423 57.601 243.608 58.342L242.81 59.52C240.302 58.608 238.934 56.404 238.934 54.01V53.06ZM247.197 52.604H248.755V54.599H257.153V52.604H258.73V59.254H247.197V52.604ZM248.755 55.815V57.981H257.153V55.815H248.755ZM245.221 50.134H260.744V51.407H245.221V50.134ZM252.194 42.496H253.543V43.256C253.543 46.239 250.218 48.386 246.684 48.918L246.114 47.683C249.211 47.265 252.194 45.422 252.194 43.256V42.496ZM252.441 42.496H253.79V43.256C253.79 45.384 256.811 47.265 259.87 47.683L259.281 48.918C255.785 48.386 252.441 46.201 252.441 43.256V42.496ZM275.012 42.306H276.589V59.482H275.012V42.306ZM263.612 43.978H265.17V54.618H263.612V43.978ZM263.612 53.687H265.018C267.621 53.687 270.338 53.497 273.245 52.889L273.435 54.238C270.452 54.846 267.735 55.055 265.018 55.055H263.612V53.687ZM291.426 42.287H293.022V59.501H291.426V42.287ZM292.642 49.07H295.834V50.4H292.642V49.07ZM280.539 53.896H281.888C285.061 53.896 287.284 53.782 289.849 53.307L290.02 54.637C287.379 55.131 285.118 55.226 281.888 55.226H280.539V53.896ZM280.539 43.959H288.519V45.251H282.097V54.485H280.539V43.959ZM298.17 53.82V44.7H299.842V53.82H298.17ZM299.006 58.19C298.765 58.19 298.543 58.1267 298.341 58C298.138 57.886 297.973 57.7277 297.847 57.525C297.733 57.3223 297.676 57.1007 297.676 56.86C297.676 56.48 297.802 56.1633 298.056 55.91C298.322 55.6567 298.638 55.53 299.006 55.53C299.373 55.53 299.683 55.6567 299.937 55.91C300.203 56.1633 300.336 56.48 300.336 56.86C300.336 57.1007 300.272 57.3223 300.146 57.525C300.032 57.7277 299.873 57.886 299.671 58C299.481 58.1267 299.259 58.19 299.006 58.19Z" fill="#512525"/>
<rect x="97" y="108" width="127" height="34" rx="8" fill="#FFBC3A"/>
<path d="M151.021 124.235H152.266V126.29H151.021V124.235ZM151.606 119.225C153.571 119.225 154.951 120.305 154.951 121.91C154.951 123.515 153.571 124.58 151.606 124.58C149.656 124.58 148.276 123.515 148.276 121.91C148.276 120.305 149.656 119.225 151.606 119.225ZM151.606 120.185C150.331 120.185 149.446 120.89 149.446 121.91C149.446 122.945 150.331 123.635 151.606 123.635C152.896 123.635 153.781 122.945 153.781 121.91C153.781 120.89 152.896 120.185 151.606 120.185ZM156.781 118.625H158.026V128.99H156.781V118.625ZM157.501 123.2H160.006V124.235H157.501V123.2ZM149.446 130.835H158.506V131.87H149.446V130.835ZM149.446 128.105H150.691V131.285H149.446V128.105ZM147.661 126.98L147.496 125.96C149.881 125.96 153.181 125.93 155.941 125.51L156.031 126.425C153.196 126.95 149.986 126.98 147.661 126.98ZM164.595 126.56H165.825V129.89H164.595V126.56ZM168.93 126.53H170.145V129.875H168.93V126.53ZM161.175 129.47H173.46V130.505H161.175V129.47ZM162.66 119.615H171.945V123.71H163.935V126.44H162.705V122.72H170.715V120.62H162.66V119.615ZM162.705 125.885H172.26V126.905H162.705V125.885Z" fill="#311A1E"/>
</svg>
