<svg width="240" height="79" viewBox="0 0 240 79" fill="none" xmlns="http://www.w3.org/2000/svg">
<path d="M40.9149 31.6626C41.0267 31.178 41.1665 30.6654 41.3343 30.1249C41.502 29.5657 41.7257 29.0624 42.0053 28.6151C42.2849 28.1491 42.6483 27.767 43.0957 27.4688C43.543 27.1519 44.1115 26.9935 44.8012 26.9935C45.4536 26.9935 46.0314 27.1799 46.5347 27.5526C47.0566 27.9068 47.5225 28.2703 47.9326 28.643C48.4172 28.9599 48.8832 29.603 49.3306 30.5722C49.7779 31.5415 50.2346 32.7344 50.7006 34.151C51.1852 35.5676 51.6978 37.1706 52.2383 38.96C52.7975 40.7493 53.4033 42.6226 54.0557 44.5797C54.7267 46.5369 55.4722 48.5406 56.2924 50.591C57.1125 52.6227 58.0445 54.6077 59.0883 56.5462C59.256 56.8445 59.4518 57.1986 59.6754 57.6087C59.8991 58.0001 60.1228 58.3729 60.3465 58.7271C60.5888 59.0812 60.8031 59.3794 60.9895 59.6217C61.1945 59.8641 61.3437 59.9852 61.4369 59.9852C61.4928 59.9852 61.558 59.8454 61.6326 59.5658C61.7071 59.2862 61.791 58.9507 61.8842 58.5593C61.9774 58.1679 62.0706 57.7671 62.1638 57.3571C62.2756 56.947 62.3782 56.6115 62.4713 56.3505C62.8255 55.4931 63.2076 54.5146 63.6177 53.4148C64.0464 52.2965 64.5124 50.9544 65.0156 49.3887C65.5375 47.8044 66.106 45.9311 66.7211 43.7689C67.3362 41.6068 68.0166 39.0438 68.7621 36.0802C68.9485 35.3532 69.1443 34.5331 69.3493 33.6198C69.573 32.6878 69.778 31.7465 69.9644 30.7959C70.1694 29.8266 70.3465 28.8854 70.4956 27.972C70.6447 27.0587 70.7472 26.2665 70.8032 25.5955C70.8032 25.4837 70.8125 25.288 70.8311 25.0084C70.8498 24.7288 70.8777 24.4119 70.915 24.0578C70.9709 23.7036 71.0362 23.3401 71.1107 22.9673C71.1853 22.5759 71.2785 22.2218 71.3903 21.9049C71.5208 21.588 71.6792 21.3271 71.8656 21.122C72.052 20.917 72.2757 20.8145 72.5366 20.8145C72.7976 20.8145 73.1145 20.8518 73.4872 20.9263C73.8787 21.0009 74.2328 21.1127 74.5497 21.2618C74.9038 21.7465 75.2207 22.3336 75.5003 23.0233C75.7985 23.6943 75.9476 24.6076 75.9476 25.7633C75.9476 26.4902 75.8731 27.3662 75.724 28.3914C75.5749 29.3979 75.3791 30.4883 75.1368 31.6626C74.9132 32.8183 74.6522 34.0112 74.354 35.2414C74.0744 36.4716 73.7855 37.6552 73.4872 38.7922C73.189 39.9106 72.9001 40.9451 72.6205 41.8957C72.3596 42.8276 72.1359 43.6012 71.9495 44.2163C71.614 45.2974 71.2598 46.4157 70.887 47.5714C70.5329 48.7084 70.1321 49.9106 69.6848 51.1781C69.2561 52.4269 68.7808 53.7597 68.2589 55.1762C67.7556 56.5742 67.1871 58.0747 66.5534 59.6777C66.2738 60.4046 65.9476 61.1315 65.5748 61.8585C65.2207 62.5854 64.8106 63.2471 64.3446 63.8436C63.8786 64.4214 63.3474 64.8967 62.7509 65.2695C62.1731 65.6236 61.5207 65.8007 60.7938 65.8007C60.3651 65.8007 59.9177 65.7355 59.4518 65.605C59.0044 65.4932 58.6223 65.2509 58.3054 64.8781C56.777 63.1073 55.4163 61.1036 54.2234 58.8669C53.0305 56.6115 51.9587 54.2629 51.0081 51.8212C50.0761 49.3608 49.2467 46.8817 48.5197 44.384C47.7928 41.8677 47.1311 39.4632 46.5347 37.1706L46.3669 36.5275C46.2923 36.2666 46.2178 36.0056 46.1432 35.7447C46.0873 35.4651 46.0221 35.2134 45.9475 34.9898C45.8916 34.7661 45.817 34.589 45.7238 34.4585C45.6493 34.3094 45.5561 34.2349 45.4442 34.2349C45.3324 34.2349 45.1926 34.4399 45.0249 34.85C44.8571 35.26 44.6893 35.726 44.5216 36.2479C44.3538 36.7512 44.1954 37.2451 44.0463 37.7298C43.9158 38.2144 43.8319 38.5219 43.7947 38.6524C43.6642 39.137 43.4685 39.836 43.2075 40.7493C42.9466 41.644 42.6483 42.6599 42.3128 43.7969C41.996 44.9339 41.6418 46.1361 41.2504 47.4036C40.8776 48.6711 40.5141 49.9013 40.16 51.0942C39.8058 52.2685 39.4703 53.3589 39.1534 54.3654C38.8366 55.372 38.5756 56.1828 38.3706 56.7979C38.2028 57.2825 37.9978 57.9069 37.7555 58.6711C37.5132 59.4354 37.2709 60.2089 37.0286 60.9917C36.7862 61.756 36.5626 62.4549 36.3575 63.0887C36.1525 63.7224 36.022 64.1418 35.9661 64.3468C35.7424 65.0551 35.4069 65.5864 34.9596 65.9405C34.5309 66.3133 34.0928 66.4997 33.6455 66.4997C33.3659 66.4997 33.0863 66.3972 32.8067 66.1921C32.5271 66.0057 32.2755 65.7728 32.0518 65.4932C31.8468 65.2136 31.6697 64.9153 31.5206 64.5985C31.3901 64.263 31.3249 63.9647 31.3249 63.7038C31.3249 63.5547 31.3715 63.3217 31.4647 63.0048C31.5579 62.6693 31.707 62.1101 31.912 61.3273L32.639 58.4475L40.9149 31.6626ZM81.2744 40.6095C81.349 40.3113 81.4515 40.0597 81.582 39.8547C81.7311 39.631 81.8802 39.4539 82.0293 39.3234C82.1971 39.193 82.3462 39.0998 82.4767 39.0438C82.6071 38.9879 82.7097 38.96 82.7842 38.96C82.9892 38.96 83.2316 38.9879 83.5111 39.0438C83.7907 39.0811 84.061 39.1184 84.322 39.1557C84.6202 39.2116 84.9091 39.2675 85.1887 39.3234C85.6733 39.3421 86.0181 39.5378 86.2232 39.9106C86.4469 40.2834 86.5587 40.7307 86.5587 41.2526C86.5587 41.6627 86.5028 42.0448 86.3909 42.3989C85.7572 44.7289 85.1794 46.7606 84.6575 48.494C84.1356 50.2088 83.6882 51.672 83.3154 52.8836C82.9613 54.0952 82.6817 55.0831 82.4767 55.8473C82.2903 56.6115 82.1971 57.1893 82.1971 57.5807C82.1971 57.9722 82.2437 58.4102 82.3369 58.8948C82.4487 59.3794 82.6071 59.8361 82.8122 60.2648C83.0172 60.6749 83.2782 61.0197 83.595 61.2993C83.9119 61.5789 84.294 61.7187 84.7413 61.7187C85.5242 61.7187 86.3164 61.4764 87.1179 60.9917C87.9194 60.5071 88.6836 59.92 89.4105 59.2303C90.1375 58.522 90.7898 57.7764 91.3677 56.9936C91.9641 56.1921 92.4487 55.4838 92.8215 54.8687L93.5485 53.6105C93.9958 52.8277 94.4059 51.933 94.7787 50.9265C95.1701 49.9013 95.5056 48.8761 95.7852 47.851C96.0834 46.8258 96.3351 45.8659 96.5401 44.9712C96.7451 44.0578 96.9036 43.3309 97.0154 42.7904L97.7423 39.0718C97.8915 38.3635 98.1151 37.8789 98.4134 37.6179C98.7302 37.3383 99.2521 37.1985 99.9791 37.1985C100.445 37.1985 100.864 37.2545 101.237 37.3663C101.61 37.4595 101.927 37.6366 102.188 37.8975C102.449 38.1585 102.645 38.5126 102.775 38.96C102.905 39.3887 102.971 39.9479 102.971 40.6375C102.971 41.439 102.84 42.4269 102.579 43.6012C102.337 44.7568 102.067 45.9218 101.768 47.0961C101.601 47.7857 101.424 48.522 101.237 49.3048C101.069 50.0691 100.911 50.8426 100.762 51.6254C100.631 52.3897 100.52 53.1259 100.426 53.8342C100.352 54.5239 100.315 55.1483 100.315 55.7075C100.315 56.6581 100.343 57.6087 100.398 58.5593C100.473 59.5099 100.51 60.5164 100.51 61.5789C100.51 62.0635 100.492 62.4922 100.454 62.865C100.436 63.2378 100.398 63.5174 100.343 63.7038C100.138 64.4307 99.8672 64.9713 99.5317 65.3254C99.2148 65.6796 98.665 65.8566 97.8821 65.8566C97.3416 65.8566 96.9129 65.7914 96.596 65.6609C96.2791 65.5491 96.0275 65.3906 95.8411 65.1856C95.6734 64.9806 95.5615 64.7569 95.5056 64.5146C95.4497 64.2536 95.4124 63.9927 95.3938 63.7317L95.0862 58.4475L94.8346 58.5313C94.2195 59.3142 93.5485 60.1903 92.8215 61.1595C92.0946 62.1288 91.2931 63.0328 90.417 63.8715C89.541 64.7103 88.5811 65.4093 87.5373 65.9685C86.5121 66.5463 85.3937 66.8352 84.1822 66.8352C83.9399 66.8352 83.623 66.77 83.2316 66.6395C82.8588 66.5277 82.4673 66.3785 82.0573 66.1921C81.6472 66.0057 81.2558 65.7914 80.883 65.5491C80.5102 65.3254 80.212 65.1111 79.9883 64.906C78.9631 63.9554 78.2362 62.8836 77.8075 61.6907C77.3788 60.4978 77.1644 59.2862 77.1644 58.056C77.1644 57.3664 77.2203 56.6767 77.3322 55.9871C77.444 55.2974 77.5745 54.6357 77.7236 54.002C77.8727 53.3496 78.0312 52.7438 78.1989 52.1846C78.3853 51.6068 78.5344 51.0942 78.6463 50.6469C79.0004 49.2489 79.3173 48.0187 79.5969 46.9563C79.8765 45.8938 80.1188 44.9619 80.3238 44.1604C80.5475 43.3589 80.7339 42.6785 80.883 42.1193C81.0321 41.5415 81.1626 41.0383 81.2744 40.6095ZM109.164 78.4103C109.015 78.4103 108.847 78.373 108.661 78.2984C108.475 78.2425 108.297 78.14 108.13 77.9909C107.981 77.8604 107.85 77.6833 107.738 77.4597C107.626 77.2546 107.571 77.003 107.571 76.7048C107.571 76.4997 107.598 76.2854 107.654 76.0617C107.804 75.4466 107.962 74.9433 108.13 74.5519C108.297 74.1791 108.54 73.8623 108.857 73.6013C109.174 73.3404 109.602 73.1167 110.143 72.9303C110.683 72.7625 111.392 72.5855 112.268 72.3991C112.827 72.2872 113.349 72.1568 113.833 72.0076C114.337 71.8772 114.747 71.7094 115.064 71.5044C116.014 70.6656 116.816 69.7989 117.468 68.9042C118.139 68.0095 118.698 67.0775 119.146 66.1083C119.612 65.1577 119.994 64.1791 120.292 63.1726C120.609 62.166 120.907 61.1409 121.187 60.0971C121.298 59.7429 121.392 59.3794 121.466 59.0066C121.559 58.6152 121.671 58.1772 121.802 57.6926C121.093 58.3077 120.357 58.9228 119.593 59.5379C118.829 60.153 118.046 60.7028 117.244 61.1875C116.443 61.6721 115.623 62.0728 114.784 62.3897C113.964 62.6879 113.144 62.837 112.324 62.837C111.839 62.837 111.289 62.6879 110.674 62.3897C110.078 62.0915 109.509 61.7 108.968 61.2154C108.428 60.7308 107.971 60.1716 107.598 59.5379C107.226 58.8855 107.039 58.2052 107.039 57.4969C107.039 57.0495 107.095 56.5649 107.207 56.043C107.319 55.5211 107.421 55.0551 107.515 54.645C107.813 53.4148 108.251 52.2219 108.829 51.0663C109.407 49.9106 110.078 48.8109 110.842 47.7671C111.606 46.7233 112.445 45.7354 113.358 44.8034C114.271 43.8528 115.222 42.9768 116.21 42.1753C117.44 41.1687 118.67 40.4418 119.9 39.9944C121.131 39.5471 122.435 39.3234 123.815 39.3234C124.393 39.3234 124.942 39.3514 125.464 39.4073C126.005 39.4632 126.508 39.5844 126.974 39.7708C127.459 39.9385 127.906 40.1995 128.316 40.5536C128.726 40.8891 129.099 41.3365 129.435 41.8957C129.509 42.0261 129.565 42.1846 129.602 42.371C129.658 42.5387 129.686 42.6878 129.686 42.8183C129.686 42.9674 129.64 43.3402 129.546 43.9367C129.472 44.5145 129.36 45.2414 129.211 46.1175C129.08 46.9749 128.913 47.9442 128.708 49.0252C128.521 50.0877 128.326 51.1688 128.12 52.2685C127.915 53.3496 127.71 54.4214 127.505 55.4838C127.3 56.5276 127.105 57.4689 126.918 58.3077C126.601 59.7802 126.201 61.2993 125.716 62.865C125.25 64.4307 124.672 65.9591 123.983 67.4503C123.312 68.9415 122.519 70.3487 121.606 71.6721C120.693 72.9955 119.63 74.1512 118.419 75.1391C117.207 76.1456 115.837 76.9378 114.309 77.5156C112.78 78.112 111.065 78.4103 109.164 78.4103ZM111.932 55.2601C111.876 55.4838 111.82 55.7168 111.764 55.9591C111.727 56.1828 111.708 56.4065 111.708 56.6301C111.708 57.0402 111.783 57.3943 111.932 57.6926C112.081 57.9908 112.352 58.1399 112.743 58.1399C113.358 58.1399 114.076 57.9256 114.896 57.4969C115.735 57.0495 116.564 56.4903 117.384 55.8193C118.223 55.1483 119.006 54.4214 119.733 53.6385C120.478 52.8556 121.065 52.1101 121.494 51.4018C121.681 51.1035 121.923 50.6935 122.221 50.1716C122.538 49.6497 122.846 49.0905 123.144 48.494C123.461 47.8789 123.74 47.2731 123.983 46.6767C124.225 46.0616 124.374 45.521 124.43 45.055C124.43 44.7382 124.365 44.4493 124.234 44.1883C124.104 43.9087 123.992 43.5266 123.899 43.042H123.647C123.2 43.042 122.687 43.1911 122.109 43.4893C121.531 43.7689 120.916 44.1417 120.264 44.6077C119.63 45.0737 118.987 45.6049 118.335 46.2014C117.682 46.7792 117.067 47.3757 116.489 47.9908C115.912 48.5872 115.38 49.1744 114.896 49.7522C114.43 50.3114 114.066 50.8053 113.805 51.234C113.414 51.8491 113.051 52.4735 112.715 53.1073C112.398 53.7224 112.137 54.44 111.932 55.2601ZM135.712 78.4103C135.563 78.4103 135.395 78.373 135.209 78.2984C135.022 78.2425 134.845 78.14 134.677 77.9909C134.528 77.8604 134.398 77.6833 134.286 77.4597C134.174 77.2546 134.118 77.003 134.118 76.7048C134.118 76.4997 134.146 76.2854 134.202 76.0617C134.351 75.4466 134.51 74.9433 134.677 74.5519C134.845 74.1791 135.088 73.8623 135.404 73.6013C135.721 73.3404 136.15 73.1167 136.69 72.9303C137.231 72.7625 137.939 72.5855 138.815 72.3991C139.375 72.2872 139.896 72.1568 140.381 72.0076C140.884 71.8772 141.294 71.7094 141.611 71.5044C142.562 70.6656 143.363 69.7989 144.016 68.9042C144.687 68.0095 145.246 67.0775 145.693 66.1083C146.159 65.1577 146.541 64.1791 146.84 63.1726C147.157 62.166 147.455 61.1409 147.734 60.0971C147.846 59.7429 147.939 59.3794 148.014 59.0066C148.107 58.6152 148.219 58.1772 148.349 57.6926C147.641 58.3077 146.905 58.9228 146.141 59.5379C145.376 60.153 144.594 60.7028 143.792 61.1875C142.991 61.6721 142.17 62.0728 141.332 62.3897C140.512 62.6879 139.691 62.837 138.871 62.837C138.387 62.837 137.837 62.6879 137.222 62.3897C136.625 62.0915 136.057 61.7 135.516 61.2154C134.976 60.7308 134.519 60.1716 134.146 59.5379C133.773 58.8855 133.587 58.2052 133.587 57.4969C133.587 57.0495 133.643 56.5649 133.755 56.043C133.867 55.5211 133.969 55.0551 134.062 54.645C134.361 53.4148 134.799 52.2219 135.376 51.0663C135.954 49.9106 136.625 48.8109 137.389 47.7671C138.154 46.7233 138.992 45.7354 139.906 44.8034C140.819 43.8528 141.77 42.9768 142.758 42.1753C143.988 41.1687 145.218 40.4418 146.448 39.9944C147.678 39.5471 148.983 39.3234 150.363 39.3234C150.94 39.3234 151.49 39.3514 152.012 39.4073C152.553 39.4632 153.056 39.5844 153.522 39.7708C154.007 39.9385 154.454 40.1995 154.864 40.5536C155.274 40.8891 155.647 41.3365 155.982 41.8957C156.057 42.0261 156.113 42.1846 156.15 42.371C156.206 42.5387 156.234 42.6878 156.234 42.8183C156.234 42.9674 156.187 43.3402 156.094 43.9367C156.02 44.5145 155.908 45.2414 155.759 46.1175C155.628 46.9749 155.46 47.9442 155.255 49.0252C155.069 50.0877 154.873 51.1688 154.668 52.2685C154.463 53.3496 154.258 54.4214 154.053 55.4838C153.848 56.5276 153.652 57.4689 153.466 58.3077C153.149 59.7802 152.748 61.2993 152.264 62.865C151.798 64.4307 151.22 65.9591 150.53 67.4503C149.859 68.9415 149.067 70.3487 148.154 71.6721C147.24 72.9955 146.178 74.1512 144.966 75.1391C143.755 76.1456 142.385 76.9378 140.856 77.5156C139.328 78.112 137.613 78.4103 135.712 78.4103ZM138.48 55.2601C138.424 55.4838 138.368 55.7168 138.312 55.9591C138.275 56.1828 138.256 56.4065 138.256 56.6301C138.256 57.0402 138.331 57.3943 138.48 57.6926C138.629 57.9908 138.899 58.1399 139.291 58.1399C139.906 58.1399 140.623 57.9256 141.444 57.4969C142.282 57.0495 143.112 56.4903 143.932 55.8193C144.771 55.1483 145.554 54.4214 146.28 53.6385C147.026 52.8556 147.613 52.1101 148.042 51.4018C148.228 51.1035 148.471 50.6935 148.769 50.1716C149.086 49.6497 149.393 49.0905 149.691 48.494C150.008 47.8789 150.288 47.2731 150.53 46.6767C150.773 46.0616 150.922 45.521 150.978 45.055C150.978 44.7382 150.912 44.4493 150.782 44.1883C150.651 43.9087 150.54 43.5266 150.446 43.042H150.195C149.747 43.042 149.235 43.1911 148.657 43.4893C148.079 43.7689 147.464 44.1417 146.812 44.6077C146.178 45.0737 145.535 45.6049 144.883 46.2014C144.23 46.7792 143.615 47.3757 143.037 47.9908C142.459 48.5872 141.928 49.1744 141.444 49.7522C140.978 50.3114 140.614 50.8053 140.353 51.234C139.962 51.8491 139.598 52.4735 139.263 53.1073C138.946 53.7224 138.685 54.44 138.48 55.2601ZM160.303 54.7009C160.303 53.8994 160.517 53.2191 160.946 52.6599C161.374 52.1007 161.943 51.728 162.651 51.5416C162.856 51.1315 163.173 50.5816 163.602 49.892C164.03 49.1837 164.562 48.4195 165.195 47.5993C165.829 46.7792 166.547 45.9591 167.348 45.1389C168.168 44.3002 169.063 43.5453 170.032 42.8742C171.02 42.1846 172.073 41.6254 173.192 41.1967C174.329 40.768 175.531 40.5536 176.798 40.5536C177.88 40.5536 178.821 40.6841 179.622 40.9451C180.424 41.206 181.085 41.5695 181.607 42.0355C182.129 42.5014 182.521 43.0606 182.782 43.713C183.043 44.3468 183.173 45.0364 183.173 45.782C183.173 46.4157 183.089 47.0215 182.921 47.5993C182.661 48.6431 182.176 49.5565 181.468 50.3393C180.759 51.1222 179.921 51.8118 178.951 52.4083C178.001 52.9861 176.957 53.4707 175.82 53.8622C174.701 54.2536 173.574 54.5798 172.437 54.8407C171.318 55.1017 170.237 55.3067 169.194 55.4558C168.15 55.5863 167.246 55.6888 166.482 55.7634C166.314 56.0989 166.165 56.5276 166.034 57.0495C165.922 57.5528 165.866 58.0467 165.866 58.5313C165.866 59.6124 166.295 60.4512 167.153 61.0477C168.01 61.6441 169.194 61.9424 170.703 61.9424C171.579 61.9424 172.418 61.8492 173.22 61.6628C174.021 61.4577 174.776 61.2061 175.484 60.9079C176.211 60.591 176.892 60.2555 177.525 59.9013C178.159 59.5286 178.737 59.1651 179.259 58.8109C179.93 58.3636 180.564 57.9908 181.16 57.6926C181.775 57.3757 182.316 57.2173 182.782 57.2173C183.248 57.2173 183.546 57.3384 183.676 57.5807C183.807 57.8044 183.872 58.0467 183.872 58.3077C183.872 58.4568 183.863 58.6059 183.844 58.755C183.844 58.8855 183.835 58.9973 183.816 59.0905C183.723 59.5752 183.537 60.0598 183.257 60.5444C182.977 61.029 182.623 61.4484 182.195 61.8026C180.256 63.331 178.262 64.4214 176.211 65.0738C174.18 65.7262 172.008 66.0523 169.697 66.0523C169.249 66.0523 168.718 66.0244 168.103 65.9685C167.507 65.9126 166.882 65.8007 166.23 65.633C165.578 65.4652 164.934 65.2229 164.301 64.906C163.667 64.5892 163.098 64.1698 162.595 63.6479C162.111 63.126 161.71 62.4829 161.393 61.7187C161.095 60.9545 160.946 60.0318 160.946 58.9507C160.946 58.0747 161.067 57.0961 161.309 56.015C161.067 55.9777 160.834 55.8566 160.61 55.6516C160.405 55.4279 160.303 55.111 160.303 54.7009ZM177.805 46.9563C177.842 46.8631 177.861 46.7792 177.861 46.7046C177.861 46.6301 177.861 46.5462 177.861 46.453C177.861 45.9497 177.674 45.577 177.302 45.3346C176.929 45.0737 176.482 44.9432 175.96 44.9432C175.14 44.9432 174.329 45.1576 173.527 45.5863C172.744 46.015 171.999 46.5555 171.29 47.2079C170.601 47.8416 169.986 48.5313 169.445 49.2769C168.905 50.0038 168.485 50.6655 168.187 51.262C169.529 51.1501 170.759 50.9731 171.878 50.7307C172.996 50.4698 173.965 50.1529 174.785 49.7801C175.624 49.3887 176.295 48.96 176.798 48.494C177.32 48.0094 177.656 47.4968 177.805 46.9563ZM192.414 56.7979C192.414 55.2322 192.591 53.6105 192.945 51.933C193.3 50.2368 193.672 48.6152 194.064 47.0681C193.579 47.0495 193.085 46.9749 192.582 46.8444C192.079 46.714 191.622 46.5369 191.212 46.3132C190.802 46.0895 190.466 45.8193 190.205 45.5024C189.944 45.1669 189.814 44.7848 189.814 44.3561C189.814 44.1883 189.851 43.974 189.926 43.713C190 43.4521 190.103 43.2004 190.233 42.9581C190.382 42.6972 190.569 42.4828 190.793 42.3151C191.016 42.1287 191.268 42.0355 191.547 42.0355H195.294C195.648 42.0355 195.89 41.8863 196.021 41.5881C196.151 41.2712 196.254 40.9637 196.328 40.6655C196.571 39.5844 196.794 38.6524 196.999 37.8696C197.223 37.0681 197.41 36.397 197.559 35.8565C197.708 35.2973 197.82 34.85 197.894 34.5145C197.987 34.1603 198.034 33.8807 198.034 33.6757C198.034 33.4334 198.025 33.2004 198.006 32.9767C197.987 32.753 197.978 32.4455 197.978 32.0541V31.7745C197.978 31.6254 197.987 31.4296 198.006 31.1873C198.043 30.945 198.136 30.6002 198.286 30.1528C198.397 29.7987 198.602 29.4632 198.901 29.1463C199.199 28.8294 199.637 28.671 200.215 28.671C200.718 28.671 201.147 28.7735 201.501 28.9786C201.855 29.1836 202.144 29.4539 202.368 29.7894C202.591 30.1249 202.759 30.507 202.871 30.9357C202.983 31.3644 203.039 31.7931 203.039 32.2218C203.039 32.6878 202.992 33.1072 202.899 33.48L200.858 41.3085C201.864 41.1408 202.759 40.9823 203.542 40.8332C204.325 40.6841 205.108 40.535 205.89 40.3859C206.748 40.2181 207.484 40.0597 208.099 39.9106C208.733 39.7615 209.273 39.6403 209.721 39.5471C210.168 39.4353 210.541 39.3514 210.839 39.2955C211.156 39.2209 211.417 39.1836 211.622 39.1836C211.92 39.1836 212.219 39.2116 212.517 39.2675C212.834 39.3048 213.104 39.3793 213.328 39.4912C213.57 39.603 213.766 39.7615 213.915 39.9665C214.064 40.1715 214.138 40.4418 214.138 40.7773C214.138 41.2246 214.045 41.6254 213.859 41.9795C213.691 42.3151 213.467 42.6133 213.188 42.8742C212.908 43.1166 212.591 43.3216 212.237 43.4893C211.883 43.6385 211.529 43.7503 211.175 43.8248C210.876 43.8808 210.485 43.9646 210 44.0765C209.534 44.1883 209.013 44.3095 208.435 44.4399C207.876 44.5704 207.288 44.7102 206.673 44.8593C206.058 45.0085 205.462 45.1576 204.884 45.3067C204.026 45.5304 203.29 45.7167 202.675 45.8659C202.079 46.015 201.566 46.1268 201.137 46.2014C200.709 46.2759 200.355 46.3318 200.075 46.3691C199.814 46.4064 199.6 46.425 199.432 46.425C199.078 47.4875 198.77 48.5313 198.509 49.5565C198.248 50.5816 198.025 51.5416 197.838 52.4363C197.67 53.3123 197.54 54.1045 197.447 54.8128C197.372 55.5024 197.335 56.043 197.335 56.4344C197.335 56.9377 197.382 57.4223 197.475 57.8883C197.568 58.3356 197.726 58.7271 197.95 59.0626C198.174 59.3981 198.472 59.6683 198.845 59.8734C199.236 60.0598 199.721 60.153 200.299 60.153C201.287 60.153 202.256 59.8827 203.206 59.3422C204.157 58.8016 205.061 58.1213 205.918 57.3011C206.794 56.4624 207.615 55.549 208.379 54.5611C209.162 53.5733 209.879 52.632 210.532 51.7373C210.755 51.4018 211.044 51.234 211.398 51.234C211.51 51.234 211.641 51.2527 211.79 51.2899C211.958 51.3272 212.116 51.3924 212.265 51.4856C212.414 51.5788 212.535 51.7 212.629 51.8491C212.74 51.9982 212.796 52.1753 212.796 52.3803C212.796 52.5295 212.787 52.6413 212.768 52.7158C212.47 53.8715 212.004 55.0365 211.37 56.2107C210.755 57.3664 210.122 58.5313 209.469 59.7056C209.246 60.1157 208.947 60.5164 208.575 60.9079C208.22 61.2993 207.829 61.6814 207.4 62.0542C206.972 62.4083 206.524 62.7532 206.058 63.0887C205.592 63.4055 205.154 63.6945 204.744 63.9554C204.036 64.4028 203.262 64.7103 202.424 64.8781C201.585 65.0458 200.774 65.1297 199.991 65.1297C198.78 65.1297 197.698 64.9153 196.748 64.4866C195.816 64.0393 195.024 63.4428 194.371 62.6973C193.738 61.933 193.253 61.0477 192.917 60.0411C192.582 59.0346 192.414 57.9535 192.414 56.7979Z" fill="black"/>
<path d="M150.959 21.6756C154.98 13.7036 157.288 8.29986 166.394 5.97901C172.73 4.36415 177.733 -0.468638 183.333 3.69407C189.113 7.99074 201.361 2.11966 208.29 2.0052C215.81 1.88096 216.215 4.00839 222.121 5.68098C224.247 6.28295 234.734 21.1241 236.354 23.2651C241.129 29.5766 236.381 27.1308 234.249 31.7095C233.049 34.287 235.349 38.7166 233.547 40.9486C231.896 42.9942 232.586 47.4794 229.338 48.3995C225.981 49.35 221.205 48.4988 217.711 48.4988" stroke="black" stroke-width="3.12329" stroke-linecap="round"/>
<path d="M152 22.8219C150.217 22.8219 147.871 23.8446 147.871 25.4941C147.871 26.8178 147.515 29.477 149.051 30.1096" stroke="black" stroke-width="3.12329" stroke-linecap="round"/>
<path d="M178.027 25.9452H179.068" stroke="black" stroke-width="3.12329" stroke-linecap="round"/>
<path d="M222.794 24.9041C223.368 25.0317 223.547 26.1195 223.836 26.9863" stroke="black" stroke-width="3.12329" stroke-linecap="round"/>
<path d="M223.836 36.3562C224.429 36.455 224.551 37.7878 224.877 38.4384" stroke="black" stroke-width="3.12329" stroke-linecap="round"/>
<path d="M189.479 15.5343C190.198 15.1539 190.808 14.7445 191.562 14.4932" stroke="black" stroke-width="3.12329" stroke-linecap="round"/>
<path d="M160.329 21.7808H162.411" stroke="black" stroke-width="3.12329" stroke-linecap="round"/>
<path d="M194.685 29.0685H197.808" stroke="black" stroke-width="3.12329" stroke-linecap="round"/>
<path d="M211.343 9.28766C213.185 9.51795 214.093 13.0033 214.466 14.4931" stroke="black" stroke-width="3.12329" stroke-linecap="round"/>
</svg>
