<svg width="375" height="812" viewBox="0 0 375 812" fill="none" xmlns="http://www.w3.org/2000/svg">
<rect width="375" height="812" fill="#FBD962"/>
<path d="M38.1023 270.96H54.4823V272.34H38.1023V270.96ZM45.4223 267.08H47.0823V271.54H45.4223V267.08ZM40.0823 257.82H52.4623V263.3H41.7823V266.92H40.1423V261.96H50.8223V259.16H40.0823V257.82ZM40.1423 266.22H52.8823V267.58H40.1423V266.22ZM58.0608 258.4H69.7008V259.74H58.0608V258.4ZM56.3008 270.54H72.6408V271.92H56.3008V270.54ZM68.8208 258.4H70.4408V260.2C70.4408 262.52 70.4408 265.1 69.7608 269L68.1008 268.84C68.8208 265.14 68.8208 262.44 68.8208 260.2V258.4ZM87.6392 256.5H89.3192V269.7H87.6392V256.5ZM77.6992 272.8H89.8592V274.16H77.6992V272.8ZM77.6992 268.34H79.3392V273.26H77.6992V268.34ZM79.6192 257.74C82.3192 257.74 84.3192 259.58 84.3192 262.2C84.3192 264.8 82.3192 266.66 79.6192 266.66C76.9192 266.66 74.8992 264.8 74.8992 262.2C74.8992 259.58 76.9192 257.74 79.6192 257.74ZM79.6192 259.18C77.8592 259.18 76.5192 260.42 76.5192 262.2C76.5192 263.96 77.8592 265.2 79.6192 265.2C81.3792 265.2 82.7192 263.96 82.7192 262.2C82.7192 260.42 81.3792 259.18 79.6192 259.18Z" fill="black"/>
<path opacity="0.35" d="M338.667 17.8333H355.333C356.53 17.8333 357.5 18.8033 357.5 19.9999V25.9999C357.5 27.1965 356.53 28.1666 355.333 28.1666H338.667C337.47 28.1666 336.5 27.1965 336.5 25.9999V19.9999C336.5 18.8033 337.47 17.8333 338.667 17.8333Z" stroke="black"/>
<path opacity="0.4" d="M359 21V25C359.805 24.6612 360.328 23.8731 360.328 23C360.328 22.1269 359.805 21.3388 359 21" fill="black"/>
<path d="M338 20.6666C338 19.9302 338.597 19.3333 339.333 19.3333H354.667C355.403 19.3333 356 19.9302 356 20.6666V25.3333C356 26.0696 355.403 26.6666 354.667 26.6666H339.333C338.597 26.6666 338 26.0696 338 25.3333V20.6666Z" fill="black"/>
<path fill-rule="evenodd" clip-rule="evenodd" d="M323.33 19.6079C325.546 19.608 327.678 20.4594 329.283 21.9862C329.404 22.1041 329.598 22.1026 329.717 21.9829L330.873 20.8162C330.933 20.7555 330.967 20.6733 330.966 20.5877C330.966 20.5021 330.931 20.4202 330.87 20.3602C326.655 16.3207 320.005 16.3207 315.79 20.3602C315.729 20.4202 315.694 20.502 315.694 20.5876C315.693 20.6732 315.727 20.7555 315.787 20.8162L316.943 21.9829C317.062 22.1028 317.256 22.1043 317.377 21.9862C318.983 20.4593 321.114 19.6079 323.33 19.6079ZM323.33 23.4036C324.548 23.4035 325.722 23.856 326.624 24.6732C326.747 24.7892 326.939 24.7867 327.058 24.6676L328.212 23.5009C328.273 23.4397 328.307 23.3567 328.306 23.2704C328.305 23.1842 328.27 23.1018 328.208 23.0419C325.46 20.4855 321.204 20.4855 318.455 23.0419C318.393 23.1018 318.358 23.1842 318.357 23.2705C318.356 23.3568 318.39 23.4398 318.451 23.5009L319.605 24.6676C319.724 24.7867 319.917 24.7892 320.039 24.6732C320.941 23.8566 322.114 23.4041 323.33 23.4036ZM325.643 25.9574C325.645 26.0439 325.611 26.1273 325.549 26.1879L323.552 28.2036C323.494 28.2628 323.414 28.2961 323.33 28.2961C323.247 28.2961 323.167 28.2628 323.109 28.2036L321.111 26.1879C321.049 26.1272 321.015 26.0438 321.017 25.9573C321.019 25.8708 321.057 25.7889 321.121 25.7309C322.396 24.652 324.265 24.652 325.54 25.7309C325.604 25.7889 325.642 25.8709 325.643 25.9574Z" fill="black"/>
<path fill-rule="evenodd" clip-rule="evenodd" d="M309.667 17.6665H308.667C308.114 17.6665 307.667 18.1142 307.667 18.6665V27.3332C307.667 27.8855 308.114 28.3332 308.667 28.3332H309.667C310.219 28.3332 310.667 27.8855 310.667 27.3332V18.6665C310.667 18.1142 310.219 17.6665 309.667 17.6665ZM304 19.9998H305C305.552 19.9998 306 20.4476 306 20.9998V27.3332C306 27.8855 305.552 28.3332 305 28.3332H304C303.448 28.3332 303 27.8855 303 27.3332V20.9998C303 20.4476 303.448 19.9998 304 19.9998ZM300.333 22.3332H299.333C298.781 22.3332 298.333 22.7809 298.333 23.3332V27.3332C298.333 27.8855 298.781 28.3332 299.333 28.3332H300.333C300.886 28.3332 301.333 27.8855 301.333 27.3332V23.3332C301.333 22.7809 300.886 22.3332 300.333 22.3332ZM295.667 24.3332H294.667C294.114 24.3332 293.667 24.7809 293.667 25.3332V27.3332C293.667 27.8855 294.114 28.3332 294.667 28.3332H295.667C296.219 28.3332 296.667 27.8855 296.667 27.3332V25.3332C296.667 24.7809 296.219 24.3332 295.667 24.3332Z" fill="black"/>
<path d="M37.3208 28.2563C40.0088 28.2563 41.6055 26.1543 41.6055 22.5947C41.6055 21.2544 41.3491 20.1265 40.8584 19.2549C40.1479 17.8999 38.9248 17.1675 37.3794 17.1675C35.0796 17.1675 33.4536 18.7129 33.4536 20.8809C33.4536 22.917 34.9185 24.3965 36.9326 24.3965C38.1704 24.3965 39.1738 23.8179 39.6719 22.8145H39.6938C39.6938 22.8145 39.7231 22.8145 39.7305 22.8145C39.7451 22.8145 39.7964 22.8145 39.7964 22.8145C39.7964 25.2314 38.8809 26.6743 37.3354 26.6743C36.4272 26.6743 35.7241 26.1763 35.4824 25.3779H33.6001C33.915 27.1138 35.3872 28.2563 37.3208 28.2563ZM37.3867 22.895C36.1709 22.895 35.3066 22.0308 35.3066 20.8223C35.3066 19.6431 36.2148 18.7422 37.394 18.7422C38.5732 18.7422 39.4814 19.6577 39.4814 20.8516C39.4814 22.0308 38.5952 22.895 37.3867 22.895Z" fill="black"/>
<path d="M44.6966 28.1538C45.3924 28.1538 45.8685 27.6558 45.8685 26.9966C45.8685 26.3301 45.3924 25.8394 44.6966 25.8394C44.0081 25.8394 43.5247 26.3301 43.5247 26.9966C43.5247 27.6558 44.0081 28.1538 44.6966 28.1538ZM44.6966 22.6606C45.3924 22.6606 45.8685 22.1699 45.8685 21.5107C45.8685 20.8442 45.3924 20.3535 44.6966 20.3535C44.0081 20.3535 43.5247 20.8442 43.5247 21.5107C43.5247 22.1699 44.0081 22.6606 44.6966 22.6606Z" fill="black"/>
<path d="M52.7242 28H54.5333V26.0298H55.9615V24.4331H54.5333V17.4312H51.8673C49.9996 20.2437 48.5128 22.5947 47.5606 24.3452V26.0298H52.7242V28ZM49.3111 24.3672C50.5416 22.1992 51.6402 20.4634 52.651 18.9692H52.7535V24.4771H49.3111V24.3672Z" fill="black"/>
<path d="M59.9901 28H61.8798V17.4312H59.9975L57.2362 19.3647V21.1812L59.8656 19.3354H59.9901V28Z" fill="black"/>
<line x1="136.5" y1="595" x2="136.5" y2="607" stroke="#828282"/>
<line x1="242.5" y1="595" x2="242.5" y2="607" stroke="#828282"/>
</svg>
