<svg width="375" height="812" viewBox="0 0 375 812" fill="none" xmlns="http://www.w3.org/2000/svg">
<rect width="375" height="812" fill="#FBD962"/>
<path d="M38.1023 270.96H54.4823V272.34H38.1023V270.96ZM45.4223 267.08H47.0823V271.54H45.4223V267.08ZM40.0823 257.82H52.4623V263.3H41.7823V266.92H40.1423V261.96H50.8223V259.16H40.0823V257.82ZM40.1423 266.22H52.8823V267.58H40.1423V266.22ZM58.0608 258.4H69.7008V259.74H58.0608V258.4ZM56.3008 270.54H72.6408V271.92H56.3008V270.54ZM68.8208 258.4H70.4408V260.2C70.4408 262.52 70.4408 265.1 69.7608 269L68.1008 268.84C68.8208 265.14 68.8208 262.44 68.8208 260.2V258.4ZM87.6392 256.5H89.3192V269.7H87.6392V256.5ZM77.6992 272.8H89.8592V274.16H77.6992V272.8ZM77.6992 268.34H79.3392V273.26H77.6992V268.34ZM79.6192 257.74C82.3192 257.74 84.3192 259.58 84.3192 262.2C84.3192 264.8 82.3192 266.66 79.6192 266.66C76.9192 266.66 74.8992 264.8 74.8992 262.2C74.8992 259.58 76.9192 257.74 79.6192 257.74ZM79.6192 259.18C77.8592 259.18 76.5192 260.42 76.5192 262.2C76.5192 263.96 77.8592 265.2 79.6192 265.2C81.3792 265.2 82.7192 263.96 82.7192 262.2C82.7192 260.42 81.3792 259.18 79.6192 259.18Z" fill="black"/>
<line x1="136.5" y1="595" x2="136.5" y2="607" stroke="#828282"/>
<line x1="243.5" y1="595" x2="243.5" y2="607" stroke="#828282"/>
</svg>
