<svg width="302" height="169" viewBox="0 0 302 169" fill="none" xmlns="http://www.w3.org/2000/svg">
<rect width="302" height="169" rx="10" fill="#F1E89E"/>
<path d="M49.0368 37.921H50.4428V38.434C50.4428 41.341 47.3458 43.393 43.8308 43.925L43.2418 42.652C46.2818 42.253 49.0368 40.543 49.0368 38.434V37.921ZM49.7018 37.921H51.0888V38.434C51.0888 40.524 53.8628 42.253 56.9028 42.652L56.2948 43.925C52.7988 43.393 49.7018 41.341 49.7018 38.434V37.921ZM43.7168 37.142H56.4278V38.415H43.7168V37.142ZM44.3058 51.81H56.1048V53.102H44.3058V51.81ZM44.3058 48.257H45.8828V52.323H44.3058V48.257ZM42.2918 45.578H57.8718V46.851H42.2918V45.578ZM49.2648 42.728H50.8228V46.091H49.2648V42.728ZM72.7283 36.306H74.2293V53.482H72.7283V36.306ZM70.0113 43.222H73.3173V44.552H70.0113V43.222ZM68.9853 36.667H70.4673V52.627H68.9853V36.667ZM63.1333 38.966H64.3683V40.942C64.3683 45.065 63.0193 48.371 60.3783 49.948L59.4093 48.732C61.8793 47.364 63.1333 44.438 63.1333 40.942V38.966ZM63.4183 38.966H64.6533V40.942C64.6533 44.096 65.9263 46.889 68.3393 48.124L67.4083 49.34C64.7863 47.896 63.4183 44.723 63.4183 40.942V38.966ZM59.8083 38.32H67.7883V39.631H59.8083V38.32ZM88.5158 36.306H90.0928V53.482H88.5158V36.306ZM89.7128 43.355H92.9048V44.685H89.7128V43.355ZM76.7928 39.042H86.9198V40.334H76.7928V39.042ZM81.9228 41.759C84.3548 41.759 86.1028 43.393 86.1028 45.711C86.1028 48.029 84.3548 49.663 81.9228 49.663C79.5098 49.663 77.7428 48.029 77.7428 45.711C77.7428 43.393 79.5098 41.759 81.9228 41.759ZM81.9228 43.07C80.3648 43.07 79.2438 44.153 79.2438 45.711C79.2438 47.25 80.3648 48.352 81.9228 48.352C83.4808 48.352 84.6018 47.25 84.6018 45.711C84.6018 44.153 83.4808 43.07 81.9228 43.07ZM81.1058 36.515H82.6828V39.631H81.1058V36.515ZM98.7173 38.757H99.9903V41.55C99.9903 45.179 97.8053 48.827 95.0693 50.176L94.1573 48.922C96.6463 47.744 98.7173 44.514 98.7173 41.55V38.757ZM99.0213 38.757H100.294V41.55C100.294 44.457 102.365 47.421 104.892 48.504L103.999 49.758C101.225 48.466 99.0213 45.122 99.0213 41.55V38.757ZM94.7273 38.054H104.322V39.384H94.7273V38.054ZM106.64 36.306H108.217V53.482H106.64V36.306ZM120.756 37.275C123.321 37.275 125.202 38.909 125.202 41.246C125.202 43.583 123.321 45.217 120.756 45.217C118.21 45.217 116.329 43.583 116.329 41.246C116.329 38.909 118.21 37.275 120.756 37.275ZM120.756 38.567C119.122 38.567 117.868 39.688 117.868 41.246C117.868 42.804 119.122 43.925 120.756 43.925C122.428 43.925 123.682 42.804 123.682 41.246C123.682 39.688 122.428 38.567 120.756 38.567ZM127.767 36.306H129.344V44.856H127.767V36.306ZM128.66 40.163H131.89V41.455H128.66V40.163ZM117.811 51.734H118.628C119.654 51.734 121.307 51.639 122.77 51.145L123.036 52.418C121.383 52.95 119.806 53.026 118.628 53.026H117.811V51.734ZM117.811 46.718H119.35V52.19H117.811V46.718ZM122.409 46.832H131.035V48.01H122.409V46.832ZM126.741 48.618C128.603 48.618 129.914 49.549 129.914 51.031C129.914 52.532 128.603 53.463 126.741 53.463C124.86 53.463 123.549 52.532 123.549 51.031C123.549 49.549 124.86 48.618 126.741 48.618ZM126.741 49.739C125.677 49.739 124.955 50.252 124.955 51.031C124.955 51.829 125.677 52.342 126.741 52.342C127.767 52.342 128.508 51.829 128.508 51.031C128.508 50.252 127.767 49.739 126.741 49.739ZM125.962 45.293H127.501V47.744H125.962V45.293ZM135.403 41.455H147.069V42.747H135.403V41.455ZM133.294 45.046H148.874V46.338H133.294V45.046ZM135.403 36.933H136.961V42.101H135.403V36.933ZM135.289 51.772H147.164V53.064H135.289V51.772ZM135.289 48.048H136.847V52.114H135.289V48.048ZM159.722 37.617C162.249 37.617 164.035 39.954 164.035 43.602C164.035 47.269 162.249 49.606 159.722 49.606C157.195 49.606 155.409 47.269 155.409 43.602C155.409 39.954 157.195 37.617 159.722 37.617ZM159.722 39.042C158.05 39.042 156.91 40.828 156.91 43.602C156.91 46.395 158.05 48.219 159.722 48.219C161.375 48.219 162.534 46.395 162.534 43.602C162.534 40.828 161.375 39.042 159.722 39.042ZM166.771 36.306H168.367V53.482H166.771V36.306ZM167.987 43.165H171.179V44.495H167.987V43.165ZM184.914 36.287H186.491V53.501H184.914V36.287ZM177.428 37.617C179.974 37.617 181.798 39.954 181.798 43.602C181.798 47.269 179.974 49.606 177.428 49.606C174.901 49.606 173.077 47.269 173.077 43.602C173.077 39.954 174.901 37.617 177.428 37.617ZM177.428 39.042C175.756 39.042 174.578 40.828 174.578 43.602C174.578 46.395 175.756 48.219 177.428 48.219C179.119 48.219 180.278 46.395 180.278 43.602C180.278 40.828 179.119 39.042 177.428 39.042ZM202.203 36.306H203.78V53.52H202.203V36.306ZM190.841 47.915H192.228C195.629 47.915 197.833 47.801 200.379 47.326L200.55 48.656C197.928 49.15 195.686 49.245 192.228 49.245H190.841V47.915ZM190.841 37.94H198.954V39.251H192.399V48.409H190.841V37.94ZM219.51 36.306H221.106V45.521H219.51V36.306ZM210.029 46.376H211.587V48.466H219.548V46.376H221.106V53.254H210.029V46.376ZM211.587 49.72V51.981H219.548V49.72H211.587ZM211.891 37.123C214.494 37.123 216.356 38.738 216.356 41.075C216.356 43.431 214.494 45.046 211.891 45.046C209.288 45.046 207.407 43.431 207.407 41.075C207.407 38.738 209.288 37.123 211.891 37.123ZM211.891 38.434C210.181 38.434 208.946 39.517 208.946 41.075C208.946 42.633 210.181 43.716 211.891 43.716C213.601 43.716 214.836 42.633 214.836 41.075C214.836 39.517 213.601 38.434 211.891 38.434ZM236.799 36.306H238.376V53.482H236.799V36.306ZM225.399 37.978H226.957V48.618H225.399V37.978ZM225.399 47.687H226.805C229.408 47.687 232.125 47.497 235.032 46.889L235.222 48.238C232.239 48.846 229.522 49.055 226.805 49.055H225.399V47.687ZM253.213 36.287H254.809V53.501H253.213V36.287ZM254.429 43.07H257.621V44.4H254.429V43.07ZM242.326 47.896H243.675C246.848 47.896 249.071 47.782 251.636 47.307L251.807 48.637C249.166 49.131 246.905 49.226 243.675 49.226H242.326V47.896ZM242.326 37.959H250.306V39.251H243.884V48.485H242.326V37.959ZM259.957 47.82V38.7H261.629V47.82H259.957ZM260.793 52.19C260.552 52.19 260.331 52.1267 260.128 52C259.925 51.886 259.761 51.7277 259.634 51.525C259.52 51.3223 259.463 51.1007 259.463 50.86C259.463 50.48 259.59 50.1633 259.843 49.91C260.109 49.6567 260.426 49.53 260.793 49.53C261.16 49.53 261.471 49.6567 261.724 49.91C261.99 50.1633 262.123 50.48 262.123 50.86C262.123 51.1007 262.06 51.3223 261.933 51.525C261.819 51.7277 261.661 51.886 261.458 52C261.268 52.1267 261.046 52.19 260.793 52.19Z" fill="#512525"/>
<rect x="87" y="111" width="127" height="34" rx="8" fill="#FFBC3A"/>
<path d="M141.021 127.235H142.266V129.29H141.021V127.235ZM141.606 122.225C143.571 122.225 144.951 123.305 144.951 124.91C144.951 126.515 143.571 127.58 141.606 127.58C139.656 127.58 138.276 126.515 138.276 124.91C138.276 123.305 139.656 122.225 141.606 122.225ZM141.606 123.185C140.331 123.185 139.446 123.89 139.446 124.91C139.446 125.945 140.331 126.635 141.606 126.635C142.896 126.635 143.781 125.945 143.781 124.91C143.781 123.89 142.896 123.185 141.606 123.185ZM146.781 121.625H148.026V131.99H146.781V121.625ZM147.501 126.2H150.006V127.235H147.501V126.2ZM139.446 133.835H148.506V134.87H139.446V133.835ZM139.446 131.105H140.691V134.285H139.446V131.105ZM137.661 129.98L137.496 128.96C139.881 128.96 143.181 128.93 145.941 128.51L146.031 129.425C143.196 129.95 139.986 129.98 137.661 129.98ZM154.595 129.56H155.825V132.89H154.595V129.56ZM158.93 129.53H160.145V132.875H158.93V129.53ZM151.175 132.47H163.46V133.505H151.175V132.47ZM152.66 122.615H161.945V126.71H153.935V129.44H152.705V125.72H160.715V123.62H152.66V122.615ZM152.705 128.885H162.26V129.905H152.705V128.885Z" fill="#311A1E"/>
</svg>
