<svg width="302" height="169" viewBox="0 0 302 169" fill="none" xmlns="http://www.w3.org/2000/svg">
<rect width="302" height="169" rx="10" fill="#F1E89E"/>
<path d="M73.8433 36.287H75.4203V53.501H73.8433V36.287ZM62.3483 37.75H63.9063V42.291H68.8653V37.75H70.4423V49.359H62.3483V37.75ZM63.9063 43.545V48.067H68.8653V43.545H63.9063ZM79.5608 37.256H87.5598V44.286H79.5608V37.256ZM86.0398 38.51H81.0808V43.013H86.0398V38.51ZM91.1508 36.306H92.7278V45.141H91.1508V36.306ZM81.6128 45.996H92.7278V50.157H83.1898V52.57H81.6508V48.979H91.1698V47.25H81.6128V45.996ZM81.6508 52.038H93.3168V53.292H81.6508V52.038ZM104.05 41.151H108.99V42.443H104.05V41.151ZM108.496 36.325H110.073V49.036H108.496V36.325ZM99.0343 51.81H110.491V53.102H99.0343V51.81ZM99.0343 47.801H100.611V52.475H99.0343V47.801ZM96.7923 37.446H98.3503V40.486H103.005V37.446H104.544V46.11H96.7923V37.446ZM98.3503 41.721V44.818H103.005V41.721H98.3503ZM114.005 38.814H127.951V40.106H114.005V38.814ZM113.245 50.176H128.806V51.487H113.245V50.176ZM120.218 47.459H121.776V50.689H120.218V47.459ZM120.978 41.265C124.455 41.265 126.602 42.462 126.602 44.533C126.602 46.604 124.455 47.801 120.978 47.801C117.52 47.801 115.373 46.604 115.373 44.533C115.373 42.462 117.52 41.265 120.978 41.265ZM120.978 42.5C118.489 42.5 116.95 43.26 116.95 44.533C116.95 45.806 118.489 46.547 120.978 46.547C123.486 46.547 125.006 45.806 125.006 44.533C125.006 43.26 123.486 42.5 120.978 42.5ZM120.218 36.591H121.776V39.612H120.218V36.591ZM142.142 36.287H143.738V53.482H142.142V36.287ZM143.301 43.26H146.474V44.571H143.301V43.26ZM137.753 38.149H139.292C139.292 43.032 137.05 47.44 131.502 50.233L130.628 49.017C135.378 46.604 137.753 42.937 137.753 38.396V38.149ZM131.426 38.149H138.57V39.441H131.426V38.149ZM154.415 41.816H166.062V42.956H154.415V41.816ZM154.415 36.743H165.986V37.883H155.973V42.348H154.415V36.743ZM155.517 39.251H165.53V40.353H155.517V39.251ZM152.382 44.229H167.886V45.445H152.382V44.229ZM154.244 46.756H165.91V50.518H155.84V52.646H154.282V49.397H164.352V47.915H154.244V46.756ZM154.282 52.133H166.423V53.292H154.282V52.133ZM170.373 44.514H171.608C174.933 44.514 176.624 44.476 178.714 44.115L178.885 45.388C176.719 45.768 174.99 45.806 171.608 45.806H170.373V44.514ZM170.335 37.18H177.745V42.025H171.931V45.483H170.373V40.79H176.187V38.472H170.335V37.18ZM182.21 36.325H183.787V46.604H182.21V36.325ZM178.885 38.7H182.59V39.973H178.885V38.7ZM178.885 42.272H182.59V43.564H178.885V42.272ZM173.983 47.06H175.218V48.01C175.218 50.271 173.812 52.57 171.323 53.52L170.544 52.342C172.71 51.544 173.983 49.682 173.983 48.01V47.06ZM174.344 47.06H175.503V48.01C175.503 49.758 176.529 51.62 178.6 52.475L177.916 53.653C175.446 52.684 174.344 50.309 174.344 48.01V47.06ZM180.329 47.06H181.507V48.01C181.507 50.062 180.367 52.627 177.916 53.653L177.251 52.475C179.303 51.544 180.329 49.511 180.329 48.01V47.06ZM180.652 47.06H181.868V48.01C181.868 49.796 183.141 51.601 185.326 52.342L184.528 53.52C182.02 52.608 180.652 50.404 180.652 48.01V47.06ZM188.916 46.604H190.474V48.599H198.872V46.604H200.449V53.254H188.916V46.604ZM190.474 49.815V51.981H198.872V49.815H190.474ZM186.94 44.134H202.463V45.407H186.94V44.134ZM193.913 36.496H195.262V37.256C195.262 40.239 191.937 42.386 188.403 42.918L187.833 41.683C190.93 41.265 193.913 39.422 193.913 37.256V36.496ZM194.16 36.496H195.509V37.256C195.509 39.384 198.53 41.265 201.589 41.683L201 42.918C197.504 42.386 194.16 40.201 194.16 37.256V36.496ZM216.73 36.306H218.307V53.482H216.73V36.306ZM205.33 37.978H206.888V48.618H205.33V37.978ZM205.33 47.687H206.736C209.339 47.687 212.056 47.497 214.963 46.889L215.153 48.238C212.17 48.846 209.453 49.055 206.736 49.055H205.33V47.687ZM233.145 36.287H234.741V53.501H233.145V36.287ZM234.361 43.07H237.553V44.4H234.361V43.07ZM222.258 47.896H223.607C226.78 47.896 229.003 47.782 231.568 47.307L231.739 48.637C229.098 49.131 226.837 49.226 223.607 49.226H222.258V47.896ZM222.258 37.959H230.238V39.251H223.816V48.485H222.258V37.959ZM239.888 47.82V38.7H241.56V47.82H239.888ZM240.724 52.19C240.484 52.19 240.262 52.1267 240.059 52C239.857 51.886 239.692 51.7277 239.565 51.525C239.451 51.3223 239.394 51.1007 239.394 50.86C239.394 50.48 239.521 50.1633 239.774 49.91C240.04 49.6567 240.357 49.53 240.724 49.53C241.092 49.53 241.402 49.6567 241.655 49.91C241.921 50.1633 242.054 50.48 242.054 50.86C242.054 51.1007 241.991 51.3223 241.864 51.525C241.75 51.7277 241.592 51.886 241.389 52C241.199 52.1267 240.978 52.19 240.724 52.19Z" fill="#512525"/>
<rect x="87" y="111" width="127" height="34" rx="8" fill="#FFBC3A"/>
<path d="M141.021 127.235H142.266V129.29H141.021V127.235ZM141.606 122.225C143.571 122.225 144.951 123.305 144.951 124.91C144.951 126.515 143.571 127.58 141.606 127.58C139.656 127.58 138.276 126.515 138.276 124.91C138.276 123.305 139.656 122.225 141.606 122.225ZM141.606 123.185C140.331 123.185 139.446 123.89 139.446 124.91C139.446 125.945 140.331 126.635 141.606 126.635C142.896 126.635 143.781 125.945 143.781 124.91C143.781 123.89 142.896 123.185 141.606 123.185ZM146.781 121.625H148.026V131.99H146.781V121.625ZM147.501 126.2H150.006V127.235H147.501V126.2ZM139.446 133.835H148.506V134.87H139.446V133.835ZM139.446 131.105H140.691V134.285H139.446V131.105ZM137.661 129.98L137.496 128.96C139.881 128.96 143.181 128.93 145.941 128.51L146.031 129.425C143.196 129.95 139.986 129.98 137.661 129.98ZM154.595 129.56H155.825V132.89H154.595V129.56ZM158.93 129.53H160.145V132.875H158.93V129.53ZM151.175 132.47H163.46V133.505H151.175V132.47ZM152.66 122.615H161.945V126.71H153.935V129.44H152.705V125.72H160.715V123.62H152.66V122.615ZM152.705 128.885H162.26V129.905H152.705V128.885Z" fill="#311A1E"/>
</svg>
