<svg width="73" height="54" viewBox="0 0 73 54" fill="none" xmlns="http://www.w3.org/2000/svg">
<path d="M9.60055 40.29C10.6276 42.3441 11.7325 44.256 14.0972 44.6747C14.815 46.8475 15.229 47.7971 18.3815 48.898C21.0591 49.833 23.6539 50.5184 26.3851 51.2011C29.5253 51.9862 34.0608 51.5315 36.8934 50.0208C42.6499 46.9507 51.086 48.0906 57.5358 47.804C62.8833 47.5663 65.0261 42.031 68.2169 38.6202C70.1186 36.5875 68.634 33.7553 70.1459 31.7396C71.7794 29.5616 71.8323 26.7347 70.2898 24.5135C68.9503 22.5847 68.3384 19.7468 67.0077 18.0359C65.4499 16.033 63.9888 14.1931 62.8908 11.875C61.9755 9.94283 57.4154 8.01464 55.5493 7.41269C50.0343 5.63369 44.757 3.3515 38.9087 2.2882C35.5374 1.67524 31.6776 2.23062 28.2565 2.23062C26.8632 2.23062 25.2199 1.96904 23.8804 2.34578C17.6756 4.09084 10.981 8.57231 7.29735 13.8615C5.4624 16.4962 2 20.0281 2 23.4771C2 24.4433 2.42774 25.1633 2.51822 26.0681C2.8375 29.2609 4.37875 33.5506 7.61404 34.3594C8.53237 34.589 9.07129 39.2315 9.60055 40.29Z" fill="#FEC32C"/>
<path d="M14.4373 44.7235C11.836 44.4345 10.6757 42.4402 9.60055 40.29C9.07129 39.2315 8.53237 34.589 7.61404 34.3594C4.37875 33.5506 2.8375 29.2609 2.51822 26.0681C2.42774 25.1633 2 24.4433 2 23.4771C2 20.0281 5.4624 16.4962 7.29735 13.8615C10.981 8.57231 17.6756 4.09084 23.8804 2.34578C25.2199 1.96904 26.8632 2.23062 28.2565 2.23062C31.6776 2.23062 35.5374 1.67524 38.9087 2.2882C44.757 3.3515 50.0343 5.63369 55.5493 7.41269C57.4154 8.01464 61.9755 9.94283 62.8908 11.875C63.9888 14.1931 65.4499 16.033 67.0077 18.0359C68.3384 19.7468 68.9503 22.5847 70.2898 24.5135C71.8323 26.7347 71.7794 29.5616 70.1459 31.7396C68.634 33.7553 70.1186 36.5875 68.2169 38.6202C65.0261 42.031 62.8833 47.5663 57.5358 47.804C51.086 48.0906 42.6499 46.9507 36.8934 50.0208C34.0608 51.5315 29.5253 51.9862 26.3851 51.2011C23.6539 50.5184 21.0591 49.833 18.3815 48.898C14.3888 47.5037 14.7888 46.352 13.4008 42.6507" stroke="black" stroke-width="3" stroke-linecap="round"/>
<path d="M21.9398 21.124C24.1265 20.0307 25.3684 20.0379 27.6402 20.6058" stroke="black" stroke-width="3" stroke-linecap="round"/>
<path d="M41.6322 19.0513C41.8378 17.4067 47.1751 17.7164 48.3691 18.0148" stroke="black" stroke-width="3" stroke-linecap="round"/>
<path d="M29.713 27.3425C30.1987 28.5567 31.2804 29.8765 32.7072 29.9336C33.8925 29.981 34.5267 28.1493 35.4134 28.4941C38.2765 29.6075 37.4637 27.5228 39.5592 26.8243" stroke="black" stroke-width="3" stroke-linecap="round"/>
<path d="M33.8589 29.9336C33.8589 30.723 33.4997 32.6335 33.9453 33.3019C34.4172 34.0098 36.8111 34.5456 37.4576 33.7913C39.2958 31.6468 38.5381 31.5186 37.4864 29.4154" stroke="black" stroke-width="3" stroke-linecap="round"/>
<path d="M5.48504 22.7708C5.3817 23.8042 5.13186 24.1981 5.48504 25.2576" stroke="#100F0F" stroke-linecap="round"/>
<path d="M8.59363 29.9203C11.8227 29.9203 10.1264 34.1061 12.324 35.2049" stroke="#100F0F" stroke-linecap="round"/>
<path d="M26.002 45.1524C27.2861 45.1524 27.3787 45.577 28.4198 46.2577C29.0151 46.6469 30.2937 46.3958 30.9758 46.3958" stroke="#100F0F" stroke-linecap="round"/>
<path d="M56.4669 42.6657C56.5812 40.7225 58.3394 41.4222 59.5756 41.4222" stroke="#100F0F" stroke-linecap="round"/>
<path d="M62.9951 22.4599C61.82 22.6067 63.6956 25.7125 63.9104 26.0347C64.2681 26.5712 63.9984 27.7236 64.6876 27.7444C66.0637 27.7861 65.7929 28.4152 65.7929 29.6096" stroke="#100F0F" stroke-linecap="round"/>
<path d="M16.0543 12.2015C16.184 11.1643 18.1176 9.48917 18.8521 10.9581" stroke="#100F0F" stroke-linecap="round"/>
<path d="M43.4108 7.84958C44.1965 7.84958 44.8427 8.16044 45.5868 8.16044" stroke="#100F0F" stroke-linecap="round"/>
<path d="M45.8976 8.16052C46.2825 8.54546 46.696 8.7964 47.141 9.0931" stroke="#100F0F" stroke-linecap="round"/>
</svg>
