<svg width="302" height="307" viewBox="0 0 302 307" fill="none" xmlns="http://www.w3.org/2000/svg">
<rect x="0.5" y="0.5" width="301" height="306" rx="9.5" fill="#F1E89E" stroke="black"/>
<path d="M105.119 107.092C106.892 110.638 108.799 113.938 112.88 114.661C114.119 118.411 114.834 120.05 120.275 121.95C124.897 123.564 129.376 124.747 134.09 125.926C139.51 127.281 147.339 126.496 152.228 123.888C162.164 118.589 176.725 120.557 187.858 120.062C197.088 119.652 200.786 110.097 206.294 104.21C209.576 100.701 207.014 95.8127 209.623 92.3334C212.443 88.5739 212.534 83.6944 209.872 79.8605C207.56 76.5312 206.504 71.6326 204.207 68.6795C201.518 65.2223 198.996 62.0465 197.101 58.0452C195.521 54.7101 187.65 51.3818 184.429 50.3428C174.91 47.2721 165.801 43.3328 155.706 41.4975C149.887 40.4394 143.225 41.3981 137.32 41.3981C134.915 41.3981 132.079 40.9466 129.767 41.5968C119.057 44.609 107.502 52.3444 101.144 61.4741C97.9763 66.0219 92 72.1182 92 78.0715C92 79.7393 92.7383 80.9822 92.8945 82.5439C93.4456 88.0549 96.1058 95.4594 101.69 96.8555C103.275 97.2518 104.205 105.265 105.119 107.092Z" fill="#F3D054"/>
<path d="M113.467 114.745C108.977 114.246 106.975 110.804 105.119 107.092C104.205 105.265 103.275 97.2518 101.69 96.8555C96.1058 95.4594 93.4456 88.0549 92.8945 82.5439C92.7383 80.9821 92 79.7393 92 78.0715C92 72.1182 97.9763 66.0219 101.144 61.4741C107.502 52.3444 119.057 44.609 129.767 41.5968C132.079 40.9466 134.915 41.3981 137.32 41.3981C143.225 41.3981 149.887 40.4394 155.706 41.4975C165.801 43.3328 174.91 47.2721 184.429 50.3428C187.65 51.3818 195.521 54.7101 197.101 58.0452C198.996 62.0465 201.518 65.2223 204.207 68.6795C206.504 71.6326 207.56 76.5312 209.872 79.8605C212.534 83.6944 212.443 88.5739 209.623 92.3334C207.014 95.8127 209.576 100.701 206.294 104.21C200.786 110.097 197.088 119.652 187.858 120.062C176.725 120.557 162.164 118.589 152.228 123.888C147.339 126.496 139.51 127.281 134.09 125.926C129.376 124.747 124.897 123.564 120.275 121.95C113.384 119.544 114.074 117.556 111.678 111.167" stroke="black" stroke-width="3" stroke-linecap="round"/>
<path d="M126.417 74.01C130.191 72.1228 132.335 72.1352 136.256 73.1155" stroke="black" stroke-width="3" stroke-linecap="round"/>
<path d="M160.407 70.4318C160.762 67.5932 169.975 68.1277 172.036 68.6429" stroke="black" stroke-width="3" stroke-linecap="round"/>
<path d="M139.834 84.7438C140.672 86.8395 142.539 89.1177 145.002 89.2162C147.048 89.2981 148.143 86.1364 149.673 86.7316C154.615 88.6533 153.212 85.055 156.829 83.8494" stroke="black" stroke-width="3" stroke-linecap="round"/>
<path d="M146.99 89.216C146.99 90.5786 146.37 93.8764 147.139 95.0301C147.954 96.252 152.086 97.1768 153.202 95.8749C156.375 92.1732 155.067 91.9519 153.252 88.3215" stroke="black" stroke-width="3" stroke-linecap="round"/>
<rect x="87" y="245" width="127" height="34" rx="8" fill="#FFBC3A"/>
<path d="M141.021 261.235H142.266V263.29H141.021V261.235ZM141.606 256.225C143.571 256.225 144.951 257.305 144.951 258.91C144.951 260.515 143.571 261.58 141.606 261.58C139.656 261.58 138.276 260.515 138.276 258.91C138.276 257.305 139.656 256.225 141.606 256.225ZM141.606 257.185C140.331 257.185 139.446 257.89 139.446 258.91C139.446 259.945 140.331 260.635 141.606 260.635C142.896 260.635 143.781 259.945 143.781 258.91C143.781 257.89 142.896 257.185 141.606 257.185ZM146.781 255.625H148.026V265.99H146.781V255.625ZM147.501 260.2H150.006V261.235H147.501V260.2ZM139.446 267.835H148.506V268.87H139.446V267.835ZM139.446 265.105H140.691V268.285H139.446V265.105ZM137.661 263.98L137.496 262.96C139.881 262.96 143.181 262.93 145.941 262.51L146.031 263.425C143.196 263.95 139.986 263.98 137.661 263.98ZM154.595 263.56H155.825V266.89H154.595V263.56ZM158.93 263.53H160.145V266.875H158.93V263.53ZM151.175 266.47H163.46V267.505H151.175V266.47ZM152.66 256.615H161.945V260.71H153.935V263.44H152.705V259.72H160.715V257.62H152.66V256.615ZM152.705 262.885H162.26V263.905H152.705V262.885Z" fill="#311A1E"/>
<path d="M111.063 156.598C111.051 156.526 111.075 156.484 111.135 156.472C111.447 156.388 111.783 156.268 112.143 156.112C112.515 155.944 112.857 155.764 113.169 155.572C113.493 155.38 113.721 155.206 113.853 155.05H114.915C114.987 155.05 115.023 155.086 115.023 155.158V167.452C115.023 167.524 114.987 167.56 114.915 167.56H113.961C113.889 167.56 113.853 167.524 113.853 167.452V156.346C113.493 156.562 113.085 156.772 112.629 156.976C112.185 157.18 111.789 157.324 111.441 157.408C111.381 157.432 111.339 157.408 111.315 157.336L111.063 156.598ZM121.337 168.28C121.049 168.28 120.809 168.184 120.617 167.992C120.425 167.8 120.329 167.56 120.329 167.272C120.329 166.996 120.425 166.768 120.617 166.588C120.809 166.396 121.049 166.3 121.337 166.3C121.613 166.3 121.841 166.396 122.021 166.588C122.213 166.768 122.309 166.996 122.309 167.272C122.309 167.56 122.213 167.8 122.021 167.992C121.841 168.184 121.613 168.28 121.337 168.28ZM132.018 163.024C131.994 163.024 131.964 163.018 131.928 163.006C131.892 162.994 131.874 162.958 131.874 162.898L131.856 157.246C131.856 156.922 131.832 156.592 131.784 156.256C131.736 155.92 131.694 155.692 131.658 155.572C131.622 155.452 131.664 155.392 131.784 155.392C131.844 155.392 131.958 155.398 132.126 155.41C132.294 155.41 132.456 155.416 132.612 155.428C132.78 155.428 132.876 155.428 132.9 155.428C132.96 155.44 132.99 155.5 132.99 155.608C132.978 155.92 132.972 156.244 132.972 156.58C132.972 156.904 132.972 157.222 132.972 157.534V158.11C133.2 158.11 133.512 158.11 133.908 158.11C134.316 158.11 134.754 158.104 135.222 158.092C135.69 158.08 136.14 158.068 136.572 158.056C137.016 158.044 137.388 158.026 137.688 158.002L137.706 157.03C137.718 156.574 137.7 156.208 137.652 155.932C137.616 155.644 137.568 155.44 137.508 155.32C137.484 155.26 137.484 155.218 137.508 155.194C137.544 155.158 137.586 155.14 137.634 155.14L138.786 155.158C138.846 155.17 138.876 155.23 138.876 155.338C138.864 155.734 138.852 156.088 138.84 156.4C138.828 156.7 138.822 157.06 138.822 157.48L138.786 162.592C138.786 162.748 138.702 162.826 138.534 162.826L133.026 162.934C132.954 162.934 132.84 162.94 132.684 162.952C132.54 162.964 132.396 162.982 132.252 163.006C132.12 163.018 132.042 163.024 132.018 163.024ZM141.846 165.67C141.798 165.67 141.774 165.64 141.774 165.58V156.076C141.774 155.62 141.756 155.2 141.72 154.816C141.696 154.432 141.654 154.18 141.594 154.06C141.57 154 141.57 153.958 141.594 153.934C141.63 153.898 141.672 153.88 141.72 153.88C141.888 153.88 142.086 153.88 142.314 153.88C142.542 153.88 142.734 153.886 142.89 153.898C142.95 153.898 142.98 153.946 142.98 154.042C142.944 154.486 142.92 154.876 142.908 155.212C142.908 155.536 142.908 155.914 142.908 156.346V159.064C143.244 159.064 143.604 159.052 143.988 159.028C144.372 159.004 144.726 158.974 145.05 158.938C145.386 158.902 145.632 158.86 145.788 158.812C145.896 158.8 145.956 158.836 145.968 158.92C145.992 159.076 146.004 159.232 146.004 159.388C146.016 159.544 146.028 159.7 146.04 159.856C146.04 159.988 145.986 160.054 145.878 160.054C145.71 160.03 145.452 160.018 145.104 160.018C144.768 160.006 144.402 160 144.006 160C143.61 160 143.244 160.012 142.908 160.036V165.22C142.908 165.4 142.896 165.508 142.872 165.544C142.86 165.58 142.824 165.604 142.764 165.616L141.846 165.67ZM132.99 161.998C133.23 162.01 133.56 162.016 133.98 162.016C134.412 162.016 134.868 162.01 135.348 161.998C135.828 161.986 136.278 161.968 136.698 161.944C137.118 161.92 137.442 161.896 137.67 161.872L137.688 158.938C137.388 158.938 137.016 158.938 136.572 158.938C136.14 158.938 135.684 158.944 135.204 158.956C134.736 158.956 134.298 158.962 133.89 158.974C133.494 158.986 133.188 158.998 132.972 159.01L132.99 161.998ZM136.14 169.9C135.756 169.9 135.462 169.756 135.258 169.468C135.066 169.192 134.97 168.796 134.97 168.28V166.858C134.97 166.438 134.952 166.09 134.916 165.814C134.88 165.538 134.844 165.34 134.808 165.22C134.772 165.1 134.814 165.04 134.934 165.04C135.006 165.04 135.126 165.046 135.294 165.058C135.474 165.058 135.642 165.064 135.798 165.076C135.966 165.088 136.056 165.094 136.068 165.094C136.128 165.094 136.158 165.154 136.158 165.274C136.134 165.55 136.116 165.796 136.104 166.012C136.104 166.216 136.104 166.474 136.104 166.786V168.172C136.104 168.472 136.14 168.682 136.212 168.802C136.296 168.91 136.428 168.97 136.608 168.982C136.944 168.994 137.352 169 137.832 169C138.324 169.012 138.834 169.012 139.362 169C139.902 168.976 140.412 168.952 140.892 168.928C141.396 168.904 141.918 168.862 142.458 168.802C142.998 168.73 143.412 168.658 143.7 168.586C143.82 168.562 143.898 168.568 143.934 168.604C143.97 168.64 143.994 168.688 144.006 168.748L144.15 169.594C144.15 169.654 144.132 169.702 144.096 169.738C144.072 169.774 143.976 169.792 143.808 169.792C142.62 169.792 141.396 169.81 140.136 169.846C138.876 169.882 137.544 169.9 136.14 169.9ZM158.459 170.44C158.411 170.44 158.387 170.41 158.387 170.35V166.102C158.387 165.97 158.315 165.904 158.171 165.904C157.907 165.904 157.517 165.91 157.001 165.922C156.497 165.934 155.957 165.952 155.381 165.976C154.817 166 154.283 166.024 153.779 166.048C153.287 166.06 152.915 166.072 152.663 166.084C152.363 166.108 152.033 166.132 151.673 166.156C151.325 166.168 151.001 166.186 150.701 166.21C150.569 166.222 150.485 166.204 150.449 166.156C150.413 166.108 150.383 166.048 150.359 165.976L150.179 165.22C150.167 165.196 150.173 165.166 150.197 165.13C150.221 165.094 150.263 165.082 150.323 165.094C150.503 165.118 150.803 165.136 151.223 165.148C151.643 165.16 152.135 165.166 152.699 165.166C153.275 165.166 153.857 165.16 154.445 165.148C154.433 165.016 154.427 164.896 154.427 164.788C154.427 164.668 154.427 164.548 154.427 164.428L154.409 162.448C154.217 162.46 154.031 162.472 153.851 162.484C153.683 162.484 153.521 162.484 153.365 162.484C152.153 162.52 151.061 162.562 150.089 162.61C149.117 162.658 148.367 162.712 147.839 162.772C147.707 162.784 147.617 162.772 147.569 162.736C147.521 162.7 147.485 162.646 147.461 162.574C147.413 162.442 147.371 162.31 147.335 162.178C147.299 162.046 147.257 161.878 147.209 161.674C147.197 161.65 147.203 161.62 147.227 161.584C147.251 161.536 147.293 161.518 147.353 161.53C147.809 161.59 148.433 161.638 149.225 161.674C150.017 161.698 150.887 161.704 151.835 161.692C152.567 161.692 153.347 161.686 154.175 161.674C155.003 161.65 155.825 161.626 156.641 161.602C157.469 161.566 158.249 161.53 158.981 161.494C159.725 161.458 160.379 161.416 160.943 161.368C161.519 161.32 161.963 161.266 162.275 161.206C162.395 161.182 162.473 161.188 162.509 161.224C162.545 161.26 162.569 161.308 162.581 161.368L162.689 162.16C162.701 162.328 162.587 162.406 162.347 162.394C161.975 162.37 161.471 162.358 160.835 162.358C160.211 162.358 159.533 162.364 158.801 162.376L155.561 162.43V164.248C155.561 164.572 155.543 164.86 155.507 165.112C156.119 165.088 156.677 165.058 157.181 165.022C157.685 164.974 158.051 164.926 158.279 164.878C158.291 164.878 158.309 164.872 158.333 164.86C158.357 164.86 158.381 164.86 158.405 164.86C158.429 164.848 158.471 164.848 158.531 164.86C158.687 164.884 158.849 164.908 159.017 164.932C159.185 164.956 159.353 164.986 159.521 165.022C159.593 165.034 159.629 165.088 159.629 165.184C159.605 165.532 159.581 165.886 159.557 166.246C159.545 166.594 159.539 166.912 159.539 167.2L159.521 170.08C159.521 170.188 159.503 170.26 159.467 170.296C159.431 170.332 159.365 170.362 159.269 170.386C159.209 170.386 159.071 170.392 158.855 170.404C158.651 170.428 158.519 170.44 158.459 170.44ZM150.269 160.198C150.185 160.222 150.083 160.246 149.963 160.27C149.855 160.282 149.759 160.222 149.675 160.09L149.315 159.568C149.279 159.508 149.273 159.472 149.297 159.46C149.333 159.436 149.369 159.418 149.405 159.406C149.417 159.406 149.423 159.406 149.423 159.406C150.263 159.19 151.055 158.884 151.799 158.488C152.555 158.08 153.185 157.612 153.689 157.084C154.205 156.544 154.523 155.968 154.643 155.356L153.257 155.41C153.065 155.422 152.789 155.44 152.429 155.464C152.069 155.488 151.709 155.512 151.349 155.536C151.001 155.548 150.725 155.566 150.521 155.59C150.389 155.614 150.305 155.602 150.269 155.554C150.233 155.506 150.197 155.446 150.161 155.374C150.161 155.362 150.161 155.356 150.161 155.356C150.113 155.224 150.077 155.11 150.053 155.014C150.029 154.918 149.993 154.768 149.945 154.564C149.933 154.54 149.939 154.51 149.963 154.474C149.987 154.438 150.029 154.426 150.089 154.438C150.389 154.462 150.821 154.486 151.385 154.51C151.949 154.522 152.585 154.528 153.293 154.528C154.001 154.516 154.727 154.498 155.471 154.474C156.227 154.45 156.947 154.414 157.631 154.366C158.315 154.306 158.903 154.234 159.395 154.15C159.431 154.138 159.473 154.144 159.521 154.168C159.569 154.18 159.599 154.216 159.611 154.276C159.659 154.552 159.695 154.846 159.719 155.158C159.719 155.29 159.647 155.356 159.503 155.356L157.289 155.338H155.975C155.891 155.602 155.789 155.86 155.669 156.112C155.561 156.352 155.435 156.586 155.291 156.814C156.167 157.042 157.019 157.312 157.847 157.624C158.675 157.936 159.395 158.23 160.007 158.506C160.007 158.506 160.013 158.512 160.025 158.524C160.085 158.56 160.145 158.602 160.205 158.65C160.265 158.698 160.283 158.77 160.259 158.866C160.139 159.166 159.995 159.466 159.827 159.766C159.791 159.85 159.737 159.868 159.665 159.82C159.413 159.64 159.089 159.442 158.693 159.226C158.297 159.01 157.865 158.788 157.397 158.56C156.941 158.332 156.479 158.128 156.011 157.948C155.555 157.756 155.135 157.606 154.751 157.498C154.223 158.098 153.575 158.62 152.807 159.064C152.051 159.496 151.205 159.874 150.269 160.198ZM168.7 163.6C167.968 163.612 167.296 163.462 166.684 163.15C166.072 162.838 165.58 162.394 165.208 161.818C164.848 161.23 164.668 160.558 164.668 159.802C164.668 159.07 164.848 158.416 165.208 157.84C165.568 157.252 166.054 156.784 166.666 156.436C167.29 156.076 167.974 155.89 168.718 155.878C169.462 155.854 170.134 155.986 170.734 156.274C171.346 156.562 171.832 156.988 172.192 157.552C172.552 158.116 172.732 158.812 172.732 159.64C172.732 160.384 172.552 161.05 172.192 161.638C171.832 162.226 171.346 162.694 170.734 163.042C170.122 163.39 169.444 163.576 168.7 163.6ZM168.718 162.574C169.246 162.55 169.726 162.418 170.158 162.178C170.59 161.926 170.932 161.584 171.184 161.152C171.448 160.708 171.58 160.21 171.58 159.658C171.58 159.046 171.448 158.524 171.184 158.092C170.932 157.66 170.59 157.336 170.158 157.12C169.726 156.892 169.246 156.79 168.718 156.814C168.19 156.826 167.704 156.964 167.26 157.228C166.816 157.48 166.462 157.828 166.198 158.272C165.934 158.704 165.802 159.208 165.802 159.784C165.802 160.384 165.934 160.894 166.198 161.314C166.474 161.734 166.834 162.052 167.278 162.268C167.722 162.484 168.202 162.586 168.718 162.574ZM175.774 169.18C175.726 169.18 175.702 169.15 175.702 169.09V156.094C175.702 155.638 175.684 155.218 175.648 154.834C175.624 154.438 175.582 154.18 175.522 154.06C175.498 154 175.498 153.958 175.522 153.934C175.558 153.898 175.6 153.88 175.648 153.88C175.72 153.88 175.84 153.886 176.008 153.898C176.188 153.898 176.362 153.904 176.53 153.916C176.698 153.916 176.794 153.916 176.818 153.916C176.878 153.916 176.908 153.964 176.908 154.06C176.872 154.504 176.848 154.894 176.836 155.23C176.836 155.554 176.836 155.932 176.836 156.364V168.73C176.836 168.91 176.824 169.018 176.8 169.054C176.788 169.09 176.752 169.114 176.692 169.126L175.774 169.18Z" fill="#FF6600"/>
<path d="M48.2559 188.2C47.6052 188.211 47.0079 188.077 46.4639 187.8C45.9199 187.523 45.4825 187.128 45.1519 186.616C44.8319 186.093 44.6719 185.496 44.6719 184.824C44.6719 184.173 44.8319 183.592 45.1519 183.08C45.4719 182.557 45.9039 182.141 46.4479 181.832C47.0025 181.512 47.6105 181.347 48.2719 181.336C48.9332 181.315 49.5305 181.432 50.0639 181.688C50.6079 181.944 51.0399 182.323 51.3599 182.824C51.6799 183.325 51.8399 183.944 51.8399 184.68C51.8399 185.341 51.6799 185.933 51.3599 186.456C51.0399 186.979 50.6079 187.395 50.0639 187.704C49.5199 188.013 48.9172 188.179 48.2559 188.2ZM48.2719 187.288C48.7412 187.267 49.1679 187.149 49.5519 186.936C49.9359 186.712 50.2399 186.408 50.4639 186.024C50.6985 185.629 50.8159 185.187 50.8159 184.696C50.8159 184.152 50.6985 183.688 50.4639 183.304C50.2399 182.92 49.9359 182.632 49.5519 182.44C49.1679 182.237 48.7412 182.147 48.2719 182.168C47.8025 182.179 47.3705 182.301 46.9759 182.536C46.5812 182.76 46.2665 183.069 46.0319 183.464C45.7972 183.848 45.6799 184.296 45.6799 184.808C45.6799 185.341 45.7972 185.795 46.0319 186.168C46.2772 186.541 46.5972 186.824 46.9919 187.016C47.3865 187.208 47.8132 187.299 48.2719 187.288ZM54.3039 193.16C54.2612 193.16 54.2399 193.133 54.2399 193.08V181.528C54.2399 181.123 54.2239 180.749 54.1919 180.408C54.1705 180.056 54.1332 179.827 54.0799 179.72C54.0585 179.667 54.0585 179.629 54.0799 179.608C54.1119 179.576 54.1492 179.56 54.1919 179.56C54.2559 179.56 54.3625 179.565 54.5119 179.576C54.6719 179.576 54.8265 179.581 54.9759 179.592C55.1252 179.592 55.2105 179.592 55.2319 179.592C55.2852 179.592 55.3119 179.635 55.3119 179.72C55.2799 180.115 55.2585 180.461 55.2479 180.76C55.2479 181.048 55.2479 181.384 55.2479 181.768V185.512C55.5359 185.512 55.8452 185.501 56.1759 185.48C56.5172 185.448 56.8319 185.416 57.1199 185.384C57.4185 185.341 57.6425 185.299 57.7919 185.256C57.8879 185.245 57.9412 185.277 57.9519 185.352C57.9732 185.491 57.9892 185.629 57.9999 185.768C58.0105 185.907 58.0212 186.045 58.0319 186.184C58.0319 186.301 57.9839 186.36 57.8879 186.36C57.7279 186.339 57.4932 186.328 57.1839 186.328C56.8852 186.328 56.5652 186.328 56.2239 186.328C55.8825 186.328 55.5572 186.333 55.2479 186.344V192.76C55.2479 192.92 55.2372 193.016 55.2159 193.048C55.2052 193.08 55.1732 193.101 55.1199 193.112L54.3039 193.16ZM59.4189 187.784L59.0189 187.432C58.9762 187.389 58.9975 187.336 59.0829 187.272C59.8935 186.76 60.5869 186.184 61.1629 185.544C61.7389 184.893 62.1869 184.232 62.5069 183.56C62.8269 182.877 62.9975 182.232 63.0189 181.624C62.8695 181.635 62.7095 181.645 62.5389 181.656C62.3682 181.656 62.1762 181.667 61.9629 181.688C61.6429 181.709 61.3655 181.731 61.1309 181.752C60.9069 181.773 60.6509 181.805 60.3629 181.848C60.2562 181.859 60.1869 181.848 60.1549 181.816C60.1229 181.773 60.0962 181.725 60.0749 181.672C60.0642 181.661 60.0589 181.651 60.0589 181.64C60.0269 181.555 59.9949 181.459 59.9629 181.352C59.9415 181.245 59.9149 181.123 59.8829 180.984C59.8722 180.963 59.8775 180.936 59.8989 180.904C59.9202 180.872 59.9575 180.856 60.0109 180.856C60.2669 180.867 60.5495 180.883 60.8589 180.904C61.1682 180.915 61.4775 180.915 61.7869 180.904C62.2562 180.883 62.7469 180.867 63.2589 180.856C63.7709 180.835 64.2722 180.803 64.7629 180.76C65.1575 180.739 65.5309 180.707 65.8829 180.664C66.2349 180.621 66.5495 180.573 66.8269 180.52C66.8589 180.509 66.8962 180.515 66.9389 180.536C66.9815 180.547 67.0082 180.579 67.0189 180.632C67.0402 180.707 67.0615 180.819 67.0829 180.968C67.1042 181.107 67.1202 181.24 67.1309 181.368C67.1309 181.485 67.0669 181.544 66.9389 181.544C66.8322 181.544 66.7255 181.544 66.6189 181.544C66.5122 181.544 66.4002 181.544 66.2829 181.544C66.0589 181.544 65.8295 181.544 65.5949 181.544C65.3602 181.533 65.1149 181.533 64.8589 181.544C64.7309 181.544 64.6082 181.549 64.4909 181.56C64.3842 181.56 64.2775 181.56 64.1709 181.56C64.1282 181.837 64.0535 182.152 63.9469 182.504C63.8509 182.845 63.7069 183.219 63.5149 183.624C63.8029 183.816 64.1282 184.035 64.4909 184.28C64.8642 184.515 65.2269 184.755 65.5789 185C65.9415 185.245 66.2669 185.475 66.5549 185.688C66.8429 185.891 67.0509 186.051 67.1789 186.168C67.2215 186.211 67.2589 186.264 67.2909 186.328C67.3229 186.392 67.3122 186.461 67.2589 186.536C67.2269 186.568 67.1682 186.632 67.0829 186.728C66.9975 186.824 66.9122 186.92 66.8269 187.016C66.7522 187.101 66.6989 187.155 66.6669 187.176C66.6242 187.219 66.5869 187.235 66.5549 187.224C66.5335 187.213 66.5069 187.187 66.4749 187.144C66.2615 186.877 65.9575 186.568 65.5629 186.216C65.1789 185.853 64.7735 185.501 64.3469 185.16C63.9202 184.808 63.5309 184.509 63.1789 184.264C62.8482 184.829 62.4162 185.416 61.8829 186.024C61.3602 186.621 60.7042 187.203 59.9149 187.768C59.9149 187.768 59.9095 187.773 59.8989 187.784C59.8349 187.816 59.7602 187.848 59.6749 187.88C59.6002 187.901 59.5149 187.869 59.4189 187.784ZM69.1949 194.2C69.1522 194.2 69.1309 194.173 69.1309 194.12V189.912C69.1309 189.837 69.1202 189.789 69.0989 189.768C69.0882 189.747 69.0349 189.736 68.9389 189.736C68.6935 189.736 68.3522 189.741 67.9149 189.752C67.4775 189.763 67.0135 189.779 66.5229 189.8C66.0322 189.811 65.5682 189.827 65.1309 189.848C64.7042 189.859 64.3789 189.869 64.1549 189.88C63.8882 189.901 63.5949 189.923 63.2749 189.944C62.9655 189.965 62.6775 189.987 62.4109 190.008C62.3042 190.019 62.2349 190.008 62.2029 189.976C62.1709 189.933 62.1442 189.885 62.1229 189.832C62.1122 189.821 62.1069 189.811 62.1069 189.8L61.9469 189.112C61.9362 189.091 61.9415 189.064 61.9629 189.032C61.9842 189 62.0215 188.989 62.0749 189C62.2455 189.021 62.5549 189.037 63.0029 189.048C63.4615 189.059 63.9842 189.064 64.5709 189.064C65.1575 189.053 65.7495 189.037 66.3469 189.016C66.9442 188.995 67.4829 188.968 67.9629 188.936C68.4429 188.893 68.7895 188.845 69.0029 188.792C69.0135 188.792 69.0295 188.787 69.0509 188.776C69.0722 188.776 69.0935 188.776 69.1149 188.776C69.1362 188.765 69.1735 188.765 69.2269 188.776L70.1709 188.92C70.2242 188.931 70.2509 188.952 70.2509 188.984C70.2615 189.005 70.2669 189.027 70.2669 189.048C70.2669 189.059 70.2669 189.064 70.2669 189.064C70.2349 189.363 70.2082 189.667 70.1869 189.976C70.1762 190.285 70.1709 190.568 70.1709 190.824L70.1549 193.896C70.1549 194.024 70.1282 194.099 70.0749 194.12C70.0322 194.141 69.9842 194.157 69.9309 194.168L69.1949 194.2ZM69.2589 187.864C69.2162 187.864 69.1949 187.837 69.1949 187.784V181.512C69.1949 181.107 69.1789 180.733 69.1469 180.392C69.1255 180.051 69.0882 179.827 69.0349 179.72C69.0135 179.667 69.0135 179.629 69.0349 179.608C69.0669 179.576 69.1042 179.56 69.1469 179.56C69.2535 179.56 69.4082 179.56 69.6109 179.56C69.8242 179.56 70.0162 179.565 70.1869 179.576C70.2402 179.576 70.2669 179.619 70.2669 179.704C70.2349 180.099 70.2135 180.445 70.2029 180.744C70.2029 181.032 70.2029 181.368 70.2029 181.752V187.464C70.2029 187.624 70.1922 187.72 70.1709 187.752C70.1602 187.784 70.1282 187.805 70.0749 187.816L69.2589 187.864ZM80.0699 185.736C80.0592 185.736 80.0485 185.736 80.0379 185.736C79.7925 185.736 79.6005 185.72 79.4619 185.688C79.3232 185.656 79.2219 185.571 79.1579 185.432C79.0939 185.283 79.0619 185.027 79.0619 184.664V182.168C79.0619 181.795 79.0405 181.501 78.9979 181.288C78.9552 181.064 78.9072 180.899 78.8539 180.792C78.8219 180.728 78.8219 180.675 78.8539 180.632C78.8859 180.579 78.9285 180.552 78.9819 180.552C79.0672 180.552 79.2059 180.563 79.3979 180.584C79.5899 180.595 79.8085 180.605 80.0539 180.616C80.4272 180.627 80.8485 180.627 81.3179 180.616C81.7979 180.595 82.3685 180.568 83.0299 180.536C83.1152 180.536 83.1952 180.536 83.2699 180.536C83.3552 180.525 83.4405 180.52 83.5259 180.52C83.9099 180.499 84.2192 180.483 84.4539 180.472C84.6885 180.451 84.8912 180.429 85.0619 180.408C85.2325 180.376 85.4085 180.349 85.5899 180.328C85.6219 180.317 85.6592 180.323 85.7019 180.344C85.7445 180.355 85.7712 180.387 85.7819 180.44L85.8459 180.84C85.8565 180.883 85.8619 180.92 85.8619 180.952C85.8619 180.984 85.8619 181.016 85.8619 181.048C85.8832 181.165 85.8192 181.224 85.6699 181.224C85.3712 181.224 85.0779 181.224 84.7899 181.224C84.5019 181.224 84.2032 181.229 83.8939 181.24C83.6485 181.24 83.2965 181.251 82.8379 181.272C82.3899 181.283 81.9152 181.299 81.4139 181.32C80.9125 181.331 80.4592 181.347 80.0539 181.368V182.712C80.5765 182.712 81.1099 182.707 81.6539 182.696C82.2085 182.685 82.7312 182.669 83.2219 182.648C83.7232 182.616 84.1605 182.589 84.5339 182.568C84.9179 182.536 85.2059 182.504 85.3979 182.472C85.5152 182.451 85.5845 182.456 85.6059 182.488C85.6379 182.52 85.6592 182.563 85.6699 182.616C85.6805 182.691 85.6859 182.771 85.6859 182.856C85.6965 182.931 85.7019 183.021 85.7019 183.128C85.7019 183.181 85.6912 183.229 85.6699 183.272C85.6485 183.304 85.5739 183.32 85.4459 183.32C85.3499 183.32 85.1525 183.325 84.8539 183.336C84.5552 183.336 84.1925 183.341 83.7659 183.352C83.3499 183.352 82.9125 183.357 82.4539 183.368C81.9952 183.379 81.5525 183.389 81.1259 183.4C80.7099 183.411 80.3525 183.421 80.0539 183.432V184.36C80.0539 184.648 80.0805 184.824 80.1339 184.888C80.1872 184.941 80.2992 184.968 80.4699 184.968C80.9925 184.979 81.4939 184.973 81.9739 184.952C82.4645 184.931 82.9125 184.904 83.3179 184.872C83.3712 184.872 83.4085 184.872 83.4299 184.872C83.7499 184.851 84.0699 184.829 84.3899 184.808C84.7099 184.787 84.9872 184.76 85.2219 184.728C85.4672 184.696 85.6272 184.669 85.7019 184.648C85.8085 184.627 85.8779 184.632 85.9099 184.664C85.9419 184.685 85.9632 184.723 85.9739 184.776L86.0539 185.384C86.0539 185.448 86.0325 185.491 85.9899 185.512C85.9472 185.533 85.8512 185.544 85.7019 185.544C85.1365 185.555 84.6352 185.571 84.1979 185.592C83.7605 185.603 83.3392 185.619 82.9339 185.64C82.5392 185.661 82.1125 185.683 81.6539 185.704C81.2059 185.715 80.6779 185.725 80.0699 185.736ZM88.0539 193.16C88.0112 193.16 87.9899 193.133 87.9899 193.08V181.528C87.9899 181.123 87.9739 180.749 87.9419 180.408C87.9205 180.056 87.8832 179.827 87.8299 179.72C87.8085 179.667 87.8085 179.629 87.8299 179.608C87.8619 179.576 87.8992 179.56 87.9419 179.56C88.0059 179.56 88.1125 179.565 88.2619 179.576C88.4219 179.576 88.5765 179.581 88.7259 179.592C88.8752 179.592 88.9605 179.592 88.9819 179.592C89.0352 179.592 89.0619 179.635 89.0619 179.72C89.0299 180.115 89.0085 180.461 88.9979 180.76C88.9979 181.048 88.9979 181.384 88.9979 181.768V192.76C88.9979 192.92 88.9872 193.016 88.9659 193.048C88.9552 193.08 88.9232 193.101 88.8699 193.112L88.0539 193.16ZM81.2539 192.888C81.2219 192.888 81.1899 192.883 81.1579 192.872C81.1365 192.851 81.1365 192.803 81.1579 192.728C81.2432 192.493 81.3179 192.179 81.3819 191.784C81.4565 191.389 81.5152 190.968 81.5579 190.52C81.6112 190.061 81.6432 189.619 81.6539 189.192C81.6752 188.765 81.6805 188.397 81.6699 188.088C81.5525 188.099 81.4405 188.109 81.3339 188.12C81.2272 188.12 81.1259 188.12 81.0299 188.12L78.0699 188.296C77.9525 188.307 77.8779 188.301 77.8459 188.28C77.8139 188.259 77.7819 188.2 77.7499 188.104C77.7072 187.987 77.6699 187.88 77.6379 187.784C77.6165 187.688 77.5845 187.549 77.5419 187.368C77.5312 187.347 77.5365 187.32 77.5579 187.288C77.5792 187.256 77.6165 187.245 77.6699 187.256C77.8939 187.299 78.2939 187.325 78.8699 187.336C79.4565 187.347 80.0965 187.341 80.7899 187.32C81.5152 187.299 82.2619 187.261 83.0299 187.208C83.8085 187.155 84.5552 187.085 85.2699 187C85.9952 186.904 86.6352 186.792 87.1899 186.664C87.2645 186.632 87.3125 186.659 87.3339 186.744L87.3819 187.176C87.3925 187.272 87.3765 187.336 87.3339 187.368C87.3019 187.4 87.2539 187.427 87.1899 187.448C86.9659 187.501 86.6139 187.565 86.1339 187.64C85.6539 187.715 85.1099 187.784 84.5019 187.848C83.9045 187.912 83.3125 187.965 82.7259 188.008C82.7259 188.371 82.7045 188.824 82.6619 189.368C82.6299 189.901 82.5819 190.445 82.5179 191C82.4539 191.544 82.3685 192.013 82.2619 192.408C82.2085 192.589 82.1445 192.707 82.0699 192.76C81.9952 192.813 81.9205 192.845 81.8459 192.856C81.7605 192.867 81.6645 192.877 81.5579 192.888C81.4512 192.888 81.3499 192.888 81.2539 192.888ZM101.652 193.16C101.609 193.16 101.588 193.133 101.588 193.08V187.576C101.279 187.587 100.959 187.603 100.628 187.624C100.297 187.635 100.031 187.645 99.828 187.656C99.572 187.677 99.3 187.699 99.012 187.72C98.724 187.741 98.452 187.768 98.196 187.8C98.0787 187.821 97.9987 187.816 97.956 187.784C97.9133 187.752 97.8813 187.704 97.86 187.64C97.8173 187.501 97.7853 187.373 97.764 187.256C97.7427 187.128 97.7213 187.016 97.7 186.92C97.7 186.835 97.7427 186.803 97.828 186.824C97.9667 186.845 98.18 186.861 98.468 186.872C98.7667 186.872 99.0973 186.872 99.46 186.872C99.8333 186.861 100.207 186.851 100.58 186.84C100.953 186.829 101.289 186.813 101.588 186.792V184.184L100.34 184.248C100.084 184.269 99.812 184.291 99.524 184.312C99.236 184.333 98.964 184.36 98.708 184.392C98.5907 184.413 98.5107 184.408 98.468 184.376C98.4253 184.344 98.3933 184.296 98.372 184.232C98.3293 184.093 98.2973 183.965 98.276 183.848C98.2547 183.731 98.2333 183.624 98.212 183.528C98.212 183.443 98.2547 183.411 98.34 183.432C98.5213 183.453 98.7987 183.469 99.172 183.48C99.556 183.48 99.9667 183.475 100.404 183.464C100.841 183.443 101.236 183.421 101.588 183.4V181.528C101.588 181.123 101.572 180.749 101.54 180.408C101.519 180.056 101.481 179.827 101.428 179.72C101.407 179.667 101.407 179.629 101.428 179.608C101.46 179.576 101.497 179.56 101.54 179.56C101.604 179.56 101.711 179.565 101.86 179.576C102.02 179.576 102.175 179.581 102.324 179.592C102.473 179.592 102.559 179.592 102.58 179.592C102.633 179.592 102.66 179.635 102.66 179.72C102.628 180.115 102.607 180.461 102.596 180.76C102.596 181.048 102.596 181.384 102.596 181.768V192.76C102.596 192.92 102.585 193.016 102.564 193.048C102.553 193.08 102.521 193.101 102.468 193.112L101.652 193.16ZM91.956 190.488L91.572 190.136C91.5293 190.093 91.5453 190.04 91.62 189.976C92.3027 189.581 92.964 189.08 93.604 188.472C94.2547 187.864 94.8413 187.203 95.364 186.488C95.8973 185.763 96.3347 185.032 96.676 184.296C97.028 183.549 97.2467 182.84 97.332 182.168C97.3533 182.051 97.3053 181.992 97.188 181.992C96.7507 182.013 96.2547 182.045 95.7 182.088C95.1453 182.131 94.676 182.163 94.292 182.184L92.628 182.328C92.5213 182.339 92.452 182.328 92.42 182.296C92.388 182.253 92.3613 182.205 92.34 182.152C92.3293 182.141 92.324 182.131 92.324 182.12C92.2813 182.003 92.2493 181.907 92.228 181.832C92.2067 181.747 92.1747 181.613 92.132 181.432C92.1213 181.411 92.1267 181.384 92.148 181.352C92.1693 181.32 92.2067 181.309 92.26 181.32C92.7293 181.363 93.236 181.384 93.78 181.384C94.324 181.373 94.868 181.352 95.412 181.32C95.956 181.277 96.4627 181.229 96.932 181.176C97.06 181.165 97.1987 181.144 97.348 181.112C97.4973 181.08 97.572 181.064 97.572 181.064C97.6253 181.043 97.684 181.043 97.748 181.064L98.628 181.352C98.7133 181.395 98.7507 181.464 98.74 181.56L98.372 182.744C98.2333 183.181 98.0147 183.715 97.716 184.344C97.4173 184.973 97.028 185.651 96.548 186.376C96.068 187.101 95.492 187.821 94.82 188.536C94.148 189.24 93.364 189.891 92.468 190.488C92.3827 190.541 92.2973 190.573 92.212 190.584C92.1267 190.595 92.0413 190.563 91.956 190.488ZM105.386 189.464C105.332 189.421 105.258 189.368 105.162 189.304C105.076 189.229 105.007 189.165 104.954 189.112C104.89 189.037 104.895 188.979 104.97 188.936C106.036 188.179 106.874 187.389 107.482 186.568C108.1 185.747 108.543 184.947 108.81 184.168C109.087 183.379 109.247 182.675 109.29 182.056C109.012 182.077 108.772 182.093 108.57 182.104C108.367 182.115 108.228 182.12 108.154 182.12L106.394 182.28C106.287 182.291 106.218 182.28 106.186 182.248C106.154 182.205 106.127 182.157 106.106 182.104C106.095 182.093 106.09 182.083 106.09 182.072C106.047 181.955 106.015 181.853 105.994 181.768C105.983 181.672 105.956 181.533 105.914 181.352C105.903 181.277 105.946 181.24 106.042 181.24C106.34 181.261 106.618 181.277 106.874 181.288C107.14 181.288 107.53 181.288 108.042 181.288C108.618 181.288 109.135 181.277 109.594 181.256C110.063 181.235 110.495 181.208 110.89 181.176C111.306 181.144 111.642 181.117 111.898 181.096C112.164 181.075 112.394 181.053 112.586 181.032C112.788 181 113.002 180.973 113.226 180.952C113.258 180.952 113.295 180.957 113.338 180.968C113.38 180.979 113.407 181.011 113.418 181.064C113.428 181.128 113.439 181.203 113.45 181.288C113.471 181.373 113.487 181.459 113.498 181.544L113.53 181.832C113.551 181.949 113.487 182.008 113.338 182.008C113.135 181.997 112.906 181.992 112.65 181.992C112.404 181.992 112.175 181.992 111.962 181.992C111.78 181.992 111.562 181.997 111.306 182.008C111.06 182.008 110.794 182.013 110.506 182.024C110.442 182.877 110.186 183.795 109.738 184.776C110.25 185.139 110.762 185.523 111.274 185.928C111.786 186.323 112.25 186.701 112.666 187.064C113.082 187.416 113.402 187.72 113.626 187.976C113.668 188.029 113.7 188.093 113.722 188.168C113.754 188.232 113.743 188.301 113.69 188.376C113.594 188.493 113.482 188.6 113.354 188.696C113.236 188.781 113.119 188.872 113.002 188.968C112.938 189.021 112.884 189.011 112.842 188.936C112.692 188.701 112.484 188.429 112.218 188.12C111.962 187.811 111.668 187.496 111.338 187.176C111.018 186.845 110.687 186.531 110.346 186.232C110.015 185.933 109.7 185.672 109.402 185.448C109.028 186.12 108.554 186.792 107.978 187.464C107.402 188.136 106.708 188.781 105.898 189.4C105.887 189.411 105.871 189.421 105.85 189.432C105.775 189.485 105.706 189.523 105.642 189.544C105.578 189.555 105.492 189.528 105.386 189.464ZM115.258 193.16C115.215 193.16 115.194 193.133 115.194 193.08V181.528C115.194 181.123 115.178 180.749 115.146 180.408C115.124 180.056 115.087 179.827 115.034 179.72C115.012 179.667 115.012 179.629 115.034 179.608C115.066 179.576 115.103 179.56 115.146 179.56C115.21 179.56 115.316 179.565 115.466 179.576C115.626 179.576 115.78 179.581 115.93 179.592C116.079 179.592 116.164 179.592 116.186 179.592C116.239 179.592 116.266 179.635 116.266 179.72C116.234 180.115 116.212 180.461 116.202 180.76C116.202 181.048 116.202 181.384 116.202 181.768V192.76C116.202 192.92 116.191 193.016 116.17 193.048C116.159 193.08 116.127 193.101 116.074 193.112L115.258 193.16ZM118.991 189.464C118.938 189.421 118.863 189.368 118.767 189.304C118.682 189.229 118.613 189.165 118.559 189.112C118.495 189.037 118.501 188.979 118.575 188.936C119.642 188.179 120.479 187.389 121.087 186.568C121.706 185.747 122.149 184.947 122.415 184.168C122.693 183.379 122.853 182.675 122.895 182.056C122.618 182.077 122.378 182.093 122.175 182.104C121.973 182.115 121.834 182.12 121.759 182.12L119.999 182.28C119.893 182.291 119.823 182.28 119.791 182.248C119.759 182.205 119.733 182.157 119.711 182.104C119.701 182.093 119.695 182.083 119.695 182.072C119.653 181.955 119.621 181.853 119.599 181.768C119.589 181.672 119.562 181.533 119.519 181.352C119.509 181.277 119.551 181.24 119.647 181.24C119.946 181.261 120.223 181.277 120.479 181.288C120.746 181.288 121.135 181.288 121.647 181.288C122.223 181.288 122.741 181.277 123.199 181.256C123.669 181.235 124.101 181.208 124.495 181.176C124.911 181.144 125.247 181.117 125.503 181.096C125.77 181.075 125.999 181.053 126.191 181.032C126.394 181 126.607 180.973 126.831 180.952C126.863 180.952 126.901 180.957 126.943 180.968C126.986 180.979 127.013 181.011 127.023 181.064C127.034 181.128 127.045 181.203 127.055 181.288C127.077 181.373 127.093 181.459 127.103 181.544L127.135 181.832C127.157 181.949 127.093 182.008 126.943 182.008C126.741 181.997 126.511 181.992 126.255 181.992C126.01 181.992 125.781 181.992 125.567 181.992C125.386 181.992 125.167 181.997 124.911 182.008C124.666 182.008 124.399 182.013 124.111 182.024C124.047 182.877 123.791 183.795 123.343 184.776C123.855 185.139 124.367 185.523 124.879 185.928C125.391 186.323 125.855 186.701 126.271 187.064C126.687 187.416 127.007 187.72 127.231 187.976C127.274 188.029 127.306 188.093 127.327 188.168C127.359 188.232 127.349 188.301 127.295 188.376C127.199 188.493 127.087 188.6 126.959 188.696C126.842 188.781 126.725 188.872 126.607 188.968C126.543 189.021 126.49 189.011 126.447 188.936C126.298 188.701 126.09 188.429 125.823 188.12C125.567 187.811 125.274 187.496 124.943 187.176C124.623 186.845 124.293 186.531 123.951 186.232C123.621 185.933 123.306 185.672 123.007 185.448C122.634 186.12 122.159 186.792 121.583 187.464C121.007 188.136 120.314 188.781 119.503 189.4C119.493 189.411 119.477 189.421 119.455 189.432C119.381 189.485 119.311 189.523 119.247 189.544C119.183 189.555 119.098 189.528 118.991 189.464ZM128.863 193.16C128.821 193.16 128.799 193.133 128.799 193.08V181.528C128.799 181.123 128.783 180.749 128.751 180.408C128.73 180.056 128.693 179.827 128.639 179.72C128.618 179.667 128.618 179.629 128.639 179.608C128.671 179.576 128.709 179.56 128.751 179.56C128.815 179.56 128.922 179.565 129.071 179.576C129.231 179.576 129.386 179.581 129.535 179.592C129.685 179.592 129.77 179.592 129.791 179.592C129.845 179.592 129.871 179.635 129.871 179.72C129.839 180.115 129.818 180.461 129.807 180.76C129.807 181.048 129.807 181.384 129.807 181.768V192.76C129.807 192.92 129.797 193.016 129.775 193.048C129.765 193.08 129.733 193.101 129.679 193.112L128.863 193.16ZM140.894 186.504C140.286 186.515 139.726 186.403 139.214 186.168C138.713 185.923 138.307 185.576 137.998 185.128C137.699 184.68 137.55 184.163 137.55 183.576C137.55 183 137.705 182.488 138.014 182.04C138.323 181.581 138.729 181.219 139.23 180.952C139.742 180.675 140.302 180.531 140.91 180.52C141.529 180.499 142.089 180.605 142.59 180.84C143.102 181.064 143.507 181.4 143.806 181.848C144.115 182.285 144.27 182.819 144.27 183.448C144.27 184.013 144.115 184.525 143.806 184.984C143.497 185.443 143.086 185.805 142.574 186.072C142.062 186.339 141.502 186.483 140.894 186.504ZM140.91 185.704C141.561 185.683 142.105 185.469 142.542 185.064C142.979 184.659 143.198 184.12 143.198 183.448C143.198 182.712 142.974 182.168 142.526 181.816C142.089 181.464 141.545 181.299 140.894 181.32C140.254 181.341 139.71 181.555 139.262 181.96C138.814 182.365 138.59 182.899 138.59 183.56C138.59 184.264 138.814 184.803 139.262 185.176C139.721 185.549 140.27 185.725 140.91 185.704ZM146.494 194.44C145.961 194.451 145.513 194.365 145.15 194.184C144.798 194.013 144.531 193.784 144.35 193.496C144.169 193.219 144.078 192.936 144.078 192.648C144.078 192.339 144.163 192.045 144.334 191.768C144.505 191.48 144.771 191.24 145.134 191.048C145.497 190.856 145.966 190.755 146.542 190.744C147.31 190.723 147.897 190.883 148.302 191.224C148.707 191.555 148.91 191.997 148.91 192.552C148.91 192.861 148.814 193.16 148.622 193.448C148.441 193.747 148.169 193.987 147.806 194.168C147.454 194.349 147.017 194.44 146.494 194.44ZM147.022 187.224C146.979 187.224 146.958 187.197 146.958 187.144V181.512C146.958 181.107 146.942 180.733 146.91 180.392C146.889 180.051 146.851 179.827 146.798 179.72C146.777 179.667 146.777 179.629 146.798 179.608C146.83 179.576 146.867 179.56 146.91 179.56C146.995 179.56 147.139 179.56 147.342 179.56C147.555 179.56 147.758 179.565 147.95 179.576C148.003 179.576 148.03 179.619 148.03 179.704C147.998 180.099 147.977 180.445 147.966 180.744C147.966 181.032 147.966 181.368 147.966 181.752V183.704C148.254 183.704 148.563 183.693 148.894 183.672C149.235 183.64 149.55 183.608 149.838 183.576C150.137 183.533 150.361 183.491 150.51 183.448C150.606 183.437 150.659 183.469 150.67 183.544C150.691 183.683 150.707 183.821 150.718 183.96C150.729 184.099 150.739 184.237 150.75 184.376C150.75 184.493 150.702 184.552 150.606 184.552C150.457 184.531 150.227 184.52 149.918 184.52C149.609 184.509 149.278 184.504 148.926 184.504C148.585 184.504 148.265 184.515 147.966 184.536V186.824C147.966 186.984 147.955 187.08 147.934 187.112C147.923 187.144 147.891 187.165 147.838 187.176L147.022 187.224ZM139.854 193.832C139.673 193.811 139.523 193.683 139.406 193.448C139.299 193.224 139.246 192.941 139.246 192.6V190.344C139.246 189.971 139.225 189.661 139.182 189.416C139.15 189.171 139.118 188.995 139.086 188.888C139.054 188.781 139.091 188.728 139.198 188.728C139.262 188.728 139.369 188.733 139.518 188.744C139.667 188.744 139.811 188.749 139.95 188.76C140.089 188.771 140.169 188.776 140.19 188.776C140.243 188.797 140.27 188.851 140.27 188.936C140.259 189.181 140.249 189.4 140.238 189.592C140.238 189.773 140.238 190.003 140.238 190.28V192.136C140.238 192.339 140.249 192.504 140.27 192.632C140.291 192.76 140.361 192.829 140.478 192.84C140.638 192.851 140.905 192.829 141.278 192.776C141.651 192.723 142.041 192.643 142.446 192.536C142.862 192.429 143.214 192.312 143.502 192.184C143.587 192.131 143.641 192.157 143.662 192.264L143.742 192.744C143.763 192.872 143.71 192.963 143.582 193.016C143.358 193.123 143.075 193.224 142.734 193.32C142.403 193.427 142.051 193.517 141.678 193.592C141.315 193.677 140.969 193.741 140.638 193.784C140.318 193.827 140.057 193.843 139.854 193.832ZM146.494 193.704C146.942 193.693 147.299 193.576 147.566 193.352C147.833 193.128 147.966 192.851 147.966 192.52C147.966 192.349 147.918 192.173 147.822 191.992C147.726 191.8 147.571 191.64 147.358 191.512C147.155 191.384 146.883 191.331 146.542 191.352C146.009 191.363 145.614 191.491 145.358 191.736C145.113 191.981 144.99 192.264 144.99 192.584C144.99 192.883 145.129 193.144 145.406 193.368C145.683 193.603 146.046 193.715 146.494 193.704ZM143.31 190.488C143.214 190.488 143.15 190.483 143.118 190.472C143.097 190.461 143.075 190.435 143.054 190.392L142.878 189.688C142.867 189.667 142.873 189.645 142.894 189.624C142.915 189.592 142.947 189.581 142.99 189.592C143.225 189.613 143.534 189.629 143.918 189.64C144.313 189.651 144.723 189.656 145.15 189.656C145.587 189.645 145.987 189.635 146.35 189.624C146.979 189.592 147.587 189.549 148.174 189.496C148.761 189.432 149.235 189.363 149.598 189.288C149.683 189.267 149.742 189.304 149.774 189.4C149.806 189.517 149.827 189.635 149.838 189.752C149.859 189.869 149.87 189.955 149.87 190.008C149.891 190.147 149.833 190.216 149.694 190.216C149.267 190.205 148.761 190.205 148.174 190.216C147.598 190.227 147.006 190.248 146.398 190.28C146.089 190.291 145.742 190.312 145.358 190.344C144.974 190.365 144.601 190.387 144.238 190.408C143.875 190.429 143.566 190.456 143.31 190.488ZM146.158 188.872C146.019 188.872 145.833 188.861 145.598 188.84C145.374 188.808 145.145 188.765 144.91 188.712C144.686 188.659 144.489 188.584 144.318 188.488C144.275 188.456 144.259 188.397 144.27 188.312C144.291 188.227 144.323 188.147 144.366 188.072C144.419 187.987 144.473 187.944 144.526 187.944C145.411 188.029 146.137 188.067 146.702 188.056C147.267 188.045 147.737 188.003 148.11 187.928C148.195 187.917 148.243 187.923 148.254 187.944C148.275 187.955 148.291 187.971 148.302 187.992C148.302 188.003 148.302 188.008 148.302 188.008C148.313 188.051 148.313 188.125 148.302 188.232C148.302 188.339 148.291 188.44 148.27 188.536C148.259 188.632 148.233 188.691 148.19 188.712C148.126 188.744 147.982 188.771 147.758 188.792C147.545 188.813 147.294 188.835 147.006 188.856C146.718 188.867 146.435 188.872 146.158 188.872ZM158.781 185.464C158.098 185.475 157.479 185.368 156.925 185.144C156.37 184.909 155.927 184.579 155.597 184.152C155.266 183.715 155.101 183.197 155.101 182.6C155.101 182.045 155.266 181.549 155.597 181.112C155.927 180.664 156.37 180.312 156.925 180.056C157.49 179.789 158.114 179.651 158.797 179.64C159.479 179.619 160.098 179.72 160.653 179.944C161.218 180.157 161.666 180.477 161.997 180.904C162.327 181.331 162.482 181.853 162.461 182.472C162.45 183.048 162.285 183.56 161.965 184.008C161.645 184.456 161.207 184.808 160.653 185.064C160.109 185.309 159.485 185.443 158.781 185.464ZM158.797 184.664C159.597 184.643 160.231 184.44 160.701 184.056C161.181 183.672 161.431 183.139 161.453 182.456C161.474 181.976 161.367 181.581 161.133 181.272C160.898 180.963 160.573 180.733 160.157 180.584C159.751 180.435 159.293 180.371 158.781 180.392C158.279 180.403 157.821 180.504 157.405 180.696C156.999 180.888 156.674 181.144 156.429 181.464C156.194 181.784 156.077 182.152 156.077 182.568C156.077 183.251 156.327 183.779 156.829 184.152C157.33 184.515 157.986 184.685 158.797 184.664ZM152.349 188.344C152.231 188.355 152.151 188.344 152.109 188.312C152.066 188.28 152.034 188.232 152.013 188.168C151.97 188.051 151.933 187.933 151.901 187.816C151.869 187.699 151.831 187.549 151.789 187.368C151.778 187.347 151.783 187.32 151.805 187.288C151.826 187.245 151.863 187.229 151.917 187.24C152.322 187.293 152.877 187.336 153.581 187.368C154.285 187.389 155.058 187.395 155.901 187.384C156.551 187.384 157.245 187.379 157.981 187.368C158.717 187.347 159.447 187.325 160.173 187.304C160.909 187.272 161.602 187.24 162.253 187.208C162.914 187.176 163.495 187.139 163.997 187.096C164.509 187.053 164.903 187.005 165.181 186.952C165.287 186.931 165.357 186.936 165.389 186.968C165.421 187 165.442 187.043 165.453 187.096L165.549 187.8C165.559 187.949 165.458 188.019 165.245 188.008C164.914 187.987 164.466 187.976 163.901 187.976C163.346 187.976 162.743 187.981 162.093 187.992C161.517 187.992 160.925 188.003 160.317 188.024C159.719 188.035 159.154 188.045 158.621 188.056C158.098 188.067 157.645 188.077 157.261 188.088C156.183 188.12 155.213 188.157 154.349 188.2C153.485 188.243 152.818 188.291 152.349 188.344ZM156.333 193.8C155.959 193.8 155.677 193.656 155.485 193.368C155.293 193.08 155.197 192.717 155.197 192.28V191.256C155.197 190.883 155.175 190.573 155.133 190.328C155.101 190.083 155.069 189.907 155.037 189.8C155.005 189.693 155.042 189.64 155.149 189.64C155.202 189.64 155.303 189.645 155.453 189.656C155.613 189.656 155.762 189.661 155.901 189.672C156.05 189.683 156.135 189.688 156.157 189.688C156.21 189.699 156.237 189.752 156.237 189.848C156.226 190.093 156.215 190.312 156.205 190.504C156.205 190.685 156.205 190.915 156.205 191.192V192.232C156.205 192.509 156.237 192.701 156.301 192.808C156.375 192.904 156.514 192.957 156.717 192.968C157.015 192.979 157.394 192.989 157.853 193C158.311 193 158.786 192.995 159.277 192.984C159.778 192.973 160.242 192.957 160.669 192.936C161.117 192.915 161.57 192.883 162.029 192.84C162.498 192.787 162.866 192.733 163.133 192.68C163.239 192.659 163.309 192.664 163.341 192.696C163.373 192.728 163.394 192.771 163.405 192.824L163.533 193.544C163.543 193.661 163.463 193.72 163.293 193.72C162.237 193.72 161.122 193.731 159.949 193.752C158.786 193.784 157.581 193.8 156.333 193.8ZM172.837 187.688C172.816 187.688 172.789 187.683 172.757 187.672C172.725 187.661 172.709 187.629 172.709 187.576L172.693 182.552C172.693 182.264 172.672 181.971 172.629 181.672C172.587 181.373 172.549 181.171 172.517 181.064C172.485 180.957 172.523 180.904 172.629 180.904C172.683 180.904 172.784 180.909 172.933 180.92C173.083 180.92 173.227 180.925 173.365 180.936C173.515 180.936 173.6 180.936 173.621 180.936C173.675 180.947 173.701 181 173.701 181.096C173.691 181.373 173.685 181.661 173.685 181.96C173.685 182.248 173.685 182.531 173.685 182.808V183.32C173.888 183.32 174.165 183.32 174.517 183.32C174.88 183.32 175.269 183.315 175.685 183.304C176.101 183.293 176.501 183.283 176.885 183.272C177.28 183.261 177.611 183.245 177.877 183.224L177.893 182.36C177.904 181.955 177.888 181.629 177.845 181.384C177.813 181.128 177.771 180.947 177.717 180.84C177.696 180.787 177.696 180.749 177.717 180.728C177.749 180.696 177.787 180.68 177.829 180.68L178.853 180.696C178.907 180.707 178.933 180.76 178.933 180.856C178.923 181.208 178.912 181.523 178.901 181.8C178.891 182.067 178.885 182.387 178.885 182.76L178.853 187.304C178.853 187.443 178.779 187.512 178.629 187.512L173.733 187.608C173.669 187.608 173.568 187.613 173.429 187.624C173.301 187.635 173.173 187.651 173.045 187.672C172.928 187.683 172.859 187.688 172.837 187.688ZM181.573 190.04C181.531 190.04 181.509 190.013 181.509 189.96V181.512C181.509 181.107 181.493 180.733 181.461 180.392C181.44 180.051 181.403 179.827 181.349 179.72C181.328 179.667 181.328 179.629 181.349 179.608C181.381 179.576 181.419 179.56 181.461 179.56C181.611 179.56 181.787 179.56 181.989 179.56C182.192 179.56 182.363 179.565 182.501 179.576C182.555 179.576 182.581 179.619 182.581 179.704C182.549 180.099 182.528 180.445 182.517 180.744C182.517 181.032 182.517 181.368 182.517 181.752V184.168C182.816 184.168 183.136 184.157 183.477 184.136C183.819 184.115 184.133 184.088 184.421 184.056C184.72 184.024 184.939 183.987 185.077 183.944C185.173 183.933 185.227 183.965 185.237 184.04C185.259 184.179 185.269 184.317 185.269 184.456C185.28 184.595 185.291 184.733 185.301 184.872C185.301 184.989 185.253 185.048 185.157 185.048C185.008 185.027 184.779 185.016 184.469 185.016C184.171 185.005 183.845 185 183.493 185C183.141 185 182.816 185.011 182.517 185.032V189.64C182.517 189.8 182.507 189.896 182.485 189.928C182.475 189.96 182.443 189.981 182.389 189.992L181.573 190.04ZM173.701 186.776C173.915 186.787 174.208 186.792 174.581 186.792C174.965 186.792 175.371 186.787 175.797 186.776C176.224 186.765 176.624 186.749 176.997 186.728C177.371 186.707 177.659 186.685 177.861 186.664L177.877 184.056C177.611 184.056 177.28 184.056 176.885 184.056C176.501 184.056 176.096 184.061 175.669 184.072C175.253 184.072 174.864 184.077 174.501 184.088C174.149 184.099 173.877 184.109 173.685 184.12L173.701 186.776ZM176.501 193.8C176.16 193.8 175.899 193.672 175.717 193.416C175.547 193.171 175.461 192.819 175.461 192.36V191.096C175.461 190.723 175.445 190.413 175.413 190.168C175.381 189.923 175.349 189.747 175.317 189.64C175.285 189.533 175.323 189.48 175.429 189.48C175.493 189.48 175.6 189.485 175.749 189.496C175.909 189.496 176.059 189.501 176.197 189.512C176.347 189.523 176.427 189.528 176.437 189.528C176.491 189.528 176.517 189.581 176.517 189.688C176.496 189.933 176.48 190.152 176.469 190.344C176.469 190.525 176.469 190.755 176.469 191.032V192.264C176.469 192.531 176.501 192.717 176.565 192.824C176.64 192.92 176.757 192.973 176.917 192.984C177.216 192.995 177.579 193 178.005 193C178.443 193.011 178.896 193.011 179.365 193C179.845 192.979 180.299 192.957 180.725 192.936C181.173 192.915 181.637 192.877 182.117 192.824C182.597 192.76 182.965 192.696 183.221 192.632C183.328 192.611 183.397 192.616 183.429 192.648C183.461 192.68 183.483 192.723 183.493 192.776L183.621 193.528C183.621 193.581 183.605 193.624 183.573 193.656C183.552 193.688 183.467 193.704 183.317 193.704C182.261 193.704 181.173 193.72 180.053 193.752C178.933 193.784 177.749 193.8 176.501 193.8ZM196.34 194.28C196.297 194.28 196.276 194.253 196.276 194.2V190.424C196.276 190.307 196.212 190.248 196.084 190.248C195.849 190.248 195.503 190.253 195.044 190.264C194.596 190.275 194.116 190.291 193.604 190.312C193.103 190.333 192.628 190.355 192.18 190.376C191.743 190.387 191.412 190.397 191.188 190.408C190.921 190.429 190.628 190.451 190.308 190.472C189.999 190.483 189.711 190.499 189.444 190.52C189.327 190.531 189.252 190.515 189.22 190.472C189.188 190.429 189.161 190.376 189.14 190.312L188.98 189.64C188.969 189.619 188.975 189.592 188.996 189.56C189.017 189.528 189.055 189.517 189.108 189.528C189.268 189.549 189.535 189.565 189.908 189.576C190.281 189.587 190.719 189.592 191.22 189.592C191.732 189.592 192.249 189.587 192.772 189.576C192.761 189.459 192.756 189.352 192.756 189.256C192.756 189.149 192.756 189.043 192.756 188.936L192.74 187.176C192.569 187.187 192.404 187.197 192.244 187.208C192.095 187.208 191.951 187.208 191.812 187.208C190.735 187.24 189.764 187.277 188.9 187.32C188.036 187.363 187.369 187.411 186.9 187.464C186.783 187.475 186.703 187.464 186.66 187.432C186.617 187.4 186.585 187.352 186.564 187.288C186.521 187.171 186.484 187.053 186.452 186.936C186.42 186.819 186.383 186.669 186.34 186.488C186.329 186.467 186.335 186.44 186.356 186.408C186.377 186.365 186.415 186.349 186.468 186.36C186.873 186.413 187.428 186.456 188.132 186.488C188.836 186.509 189.609 186.515 190.452 186.504C191.103 186.504 191.796 186.499 192.532 186.488C193.268 186.467 193.999 186.445 194.724 186.424C195.46 186.392 196.153 186.36 196.804 186.328C197.465 186.296 198.047 186.259 198.548 186.216C199.06 186.173 199.455 186.125 199.732 186.072C199.839 186.051 199.908 186.056 199.94 186.088C199.972 186.12 199.993 186.163 200.004 186.216L200.1 186.92C200.111 187.069 200.009 187.139 199.796 187.128C199.465 187.107 199.017 187.096 198.452 187.096C197.897 187.096 197.295 187.101 196.644 187.112L193.764 187.16V188.776C193.764 189.064 193.748 189.32 193.716 189.544C194.26 189.523 194.756 189.496 195.204 189.464C195.652 189.421 195.977 189.379 196.18 189.336C196.191 189.336 196.207 189.331 196.228 189.32C196.249 189.32 196.271 189.32 196.292 189.32C196.313 189.309 196.351 189.309 196.404 189.32C196.543 189.341 196.687 189.363 196.836 189.384C196.985 189.405 197.135 189.432 197.284 189.464C197.348 189.475 197.38 189.523 197.38 189.608C197.359 189.917 197.337 190.232 197.316 190.552C197.305 190.861 197.3 191.144 197.3 191.4L197.284 193.96C197.284 194.056 197.268 194.12 197.236 194.152C197.204 194.184 197.145 194.211 197.06 194.232C197.007 194.232 196.884 194.237 196.692 194.248C196.511 194.269 196.393 194.28 196.34 194.28ZM189.06 185.176C188.985 185.197 188.895 185.219 188.788 185.24C188.692 185.251 188.607 185.197 188.532 185.08L188.212 184.616C188.18 184.563 188.175 184.531 188.196 184.52C188.228 184.499 188.26 184.483 188.292 184.472C188.303 184.472 188.308 184.472 188.308 184.472C189.055 184.28 189.759 184.008 190.42 183.656C191.092 183.293 191.652 182.877 192.1 182.408C192.559 181.928 192.841 181.416 192.948 180.872L191.716 180.92C191.545 180.931 191.3 180.947 190.98 180.968C190.66 180.989 190.34 181.011 190.02 181.032C189.711 181.043 189.465 181.059 189.284 181.08C189.167 181.101 189.092 181.091 189.06 181.048C189.028 181.005 188.996 180.952 188.964 180.888C188.964 180.877 188.964 180.872 188.964 180.872C188.921 180.755 188.889 180.653 188.868 180.568C188.847 180.483 188.815 180.349 188.772 180.168C188.761 180.147 188.767 180.12 188.788 180.088C188.809 180.056 188.847 180.045 188.9 180.056C189.167 180.077 189.551 180.099 190.052 180.12C190.553 180.131 191.119 180.136 191.748 180.136C192.377 180.125 193.023 180.109 193.684 180.088C194.356 180.067 194.996 180.035 195.604 179.992C196.212 179.939 196.735 179.875 197.172 179.8C197.204 179.789 197.241 179.795 197.284 179.816C197.327 179.827 197.353 179.859 197.364 179.912C197.407 180.157 197.439 180.419 197.46 180.696C197.46 180.813 197.396 180.872 197.268 180.872L195.3 180.856H194.132C194.057 181.091 193.967 181.32 193.86 181.544C193.764 181.757 193.652 181.965 193.524 182.168C194.303 182.371 195.06 182.611 195.796 182.888C196.532 183.165 197.172 183.427 197.716 183.672C197.716 183.672 197.721 183.677 197.732 183.688C197.785 183.72 197.839 183.757 197.892 183.8C197.945 183.843 197.961 183.907 197.94 183.992C197.833 184.259 197.705 184.525 197.556 184.792C197.524 184.867 197.476 184.883 197.412 184.84C197.188 184.68 196.9 184.504 196.548 184.312C196.196 184.12 195.812 183.923 195.396 183.72C194.991 183.517 194.58 183.336 194.164 183.176C193.759 183.005 193.385 182.872 193.044 182.776C192.575 183.309 191.999 183.773 191.316 184.168C190.644 184.552 189.892 184.888 189.06 185.176ZM213.693 194.36C213.021 194.36 212.423 194.237 211.901 193.992C211.389 193.757 210.983 193.432 210.685 193.016C210.397 192.6 210.253 192.12 210.253 191.576C210.253 191.053 210.413 190.579 210.733 190.152C211.053 189.725 211.479 189.389 212.013 189.144C212.546 188.888 213.127 188.76 213.757 188.76C214.397 188.76 214.978 188.867 215.501 189.08C216.034 189.283 216.455 189.592 216.765 190.008C217.085 190.413 217.234 190.915 217.213 191.512C217.202 192.067 217.037 192.557 216.717 192.984C216.407 193.411 215.986 193.747 215.453 193.992C214.93 194.237 214.343 194.36 213.693 194.36ZM213.725 193.528C214.397 193.507 214.962 193.325 215.421 192.984C215.89 192.643 216.135 192.147 216.157 191.496C216.178 191.069 216.077 190.712 215.853 190.424C215.639 190.136 215.346 189.917 214.973 189.768C214.61 189.608 214.199 189.528 213.741 189.528C213.293 189.539 212.882 189.635 212.509 189.816C212.135 189.987 211.837 190.221 211.613 190.52C211.389 190.819 211.277 191.165 211.277 191.56C211.277 191.965 211.383 192.317 211.597 192.616C211.821 192.904 212.119 193.128 212.493 193.288C212.866 193.448 213.277 193.528 213.725 193.528ZM206.445 187.864L206.045 187.512C206.002 187.469 206.018 187.421 206.093 187.368C206.103 187.357 206.109 187.352 206.109 187.352C206.706 186.957 207.271 186.477 207.805 185.912C208.349 185.336 208.829 184.733 209.245 184.104C209.661 183.464 209.97 182.851 210.173 182.264C210.258 182.083 210.333 181.875 210.397 181.64C210.461 181.395 210.509 181.16 210.541 180.936C210.573 180.712 210.589 180.531 210.589 180.392C210.589 180.296 210.642 180.253 210.749 180.264C210.866 180.285 211.031 180.328 211.245 180.392C211.458 180.456 211.645 180.515 211.805 180.568C211.869 180.6 211.885 180.659 211.853 180.744C211.778 180.957 211.677 181.235 211.549 181.576C211.431 181.917 211.319 182.216 211.213 182.472C211.159 182.6 211.095 182.739 211.021 182.888C210.957 183.027 210.882 183.171 210.797 183.32C211.117 183.555 211.453 183.811 211.805 184.088C212.167 184.355 212.514 184.621 212.845 184.888C213.186 185.144 213.485 185.379 213.741 185.592C213.997 185.805 214.183 185.971 214.301 186.088C214.343 186.12 214.375 186.173 214.397 186.248C214.429 186.312 214.418 186.381 214.365 186.456C214.322 186.52 214.221 186.621 214.061 186.76C213.911 186.899 213.805 187 213.741 187.064C213.655 187.117 213.591 187.107 213.549 187.032C213.367 186.755 213.095 186.429 212.733 186.056C212.381 185.683 211.997 185.309 211.581 184.936C211.175 184.552 210.797 184.227 210.445 183.96C210.082 184.557 209.618 185.192 209.053 185.864C208.487 186.536 207.783 187.192 206.941 187.832C206.887 187.875 206.818 187.912 206.733 187.944C206.647 187.976 206.551 187.949 206.445 187.864ZM216.125 188.536C216.082 188.536 216.061 188.509 216.061 188.456V181.512C216.061 181.107 216.045 180.733 216.013 180.392C215.991 180.051 215.954 179.827 215.901 179.72C215.879 179.667 215.879 179.629 215.901 179.608C215.933 179.576 215.97 179.56 216.013 179.56C216.13 179.56 216.29 179.56 216.493 179.56C216.695 179.56 216.882 179.565 217.053 179.576C217.106 179.576 217.133 179.619 217.133 179.704C217.101 180.099 217.079 180.445 217.069 180.744C217.069 181.032 217.069 181.368 217.069 181.752V183.848C217.357 183.848 217.671 183.837 218.013 183.816C218.354 183.795 218.669 183.768 218.957 183.736C219.255 183.704 219.479 183.667 219.629 183.624C219.725 183.613 219.778 183.645 219.789 183.72C219.81 183.859 219.821 183.997 219.821 184.136C219.831 184.275 219.842 184.413 219.853 184.552C219.853 184.669 219.805 184.728 219.709 184.728C219.559 184.707 219.33 184.696 219.021 184.696C218.711 184.685 218.381 184.68 218.029 184.68C217.687 184.68 217.367 184.691 217.069 184.712V188.136C217.069 188.296 217.058 188.392 217.037 188.424C217.026 188.456 216.994 188.477 216.941 188.488L216.125 188.536ZM231.467 193.16C231.425 193.16 231.403 193.133 231.403 193.08V186.056C231.073 186.056 230.731 186.061 230.379 186.072C230.027 186.072 229.723 186.083 229.467 186.104V192.344C229.467 192.493 229.457 192.589 229.435 192.632C229.425 192.664 229.393 192.685 229.339 192.696C229.275 192.707 229.142 192.717 228.939 192.728C228.747 192.739 228.625 192.744 228.571 192.744C228.529 192.744 228.507 192.717 228.507 192.664V181.928C228.507 181.523 228.497 181.149 228.475 180.808C228.454 180.467 228.417 180.243 228.363 180.136C228.342 180.083 228.342 180.045 228.363 180.024C228.395 179.992 228.433 179.976 228.475 179.976L229.419 179.992C229.473 180.013 229.499 180.056 229.499 180.12C229.478 180.429 229.467 180.707 229.467 180.952C229.467 181.197 229.467 181.453 229.467 181.72C229.467 181.784 229.467 181.853 229.467 181.928C229.467 182.003 229.467 182.083 229.467 182.168V185.192C229.521 185.192 229.574 185.192 229.627 185.192C229.681 185.192 229.734 185.192 229.787 185.192C230.033 185.192 230.294 185.192 230.571 185.192C230.859 185.192 231.137 185.181 231.403 185.16V181.512C231.403 181.107 231.393 180.733 231.371 180.392C231.361 180.051 231.329 179.827 231.275 179.72C231.254 179.667 231.254 179.629 231.275 179.608C231.307 179.576 231.345 179.56 231.387 179.56L232.331 179.576C232.385 179.597 232.411 179.64 232.411 179.704C232.39 180.024 232.374 180.312 232.363 180.568C232.363 180.824 232.363 181.091 232.363 181.368C232.363 181.432 232.363 181.496 232.363 181.56C232.363 181.624 232.363 181.688 232.363 181.752V192.76C232.363 192.92 232.353 193.016 232.331 193.048C232.321 193.08 232.289 193.101 232.235 193.112C232.203 193.112 232.129 193.112 232.011 193.112C231.905 193.123 231.798 193.133 231.691 193.144C231.585 193.155 231.51 193.16 231.467 193.16ZM222.587 189.592C222.385 189.603 222.225 189.544 222.107 189.416C221.99 189.277 221.905 189.101 221.851 188.888C221.798 188.675 221.771 188.456 221.771 188.232V183.128C221.771 182.755 221.745 182.424 221.691 182.136C221.649 181.848 221.601 181.651 221.547 181.544C221.515 181.48 221.515 181.427 221.547 181.384C221.579 181.341 221.617 181.32 221.659 181.32C221.723 181.32 221.851 181.325 222.043 181.336C222.246 181.347 222.438 181.363 222.619 181.384C223.025 181.384 223.478 181.379 223.979 181.368C224.491 181.357 224.987 181.336 225.467 181.304C225.947 181.272 226.337 181.229 226.635 181.176C226.667 181.165 226.705 181.171 226.747 181.192C226.79 181.203 226.817 181.235 226.827 181.288C226.859 181.459 226.881 181.587 226.891 181.672C226.902 181.757 226.907 181.832 226.907 181.896C226.907 182.013 226.843 182.072 226.715 182.072L224.939 182.104C224.555 182.115 224.203 182.125 223.883 182.136C223.563 182.147 223.19 182.163 222.763 182.184V184.68C223.873 184.669 224.742 184.627 225.371 184.552C226.011 184.477 226.353 184.435 226.395 184.424C226.513 184.403 226.582 184.408 226.603 184.44C226.635 184.472 226.657 184.515 226.667 184.568C226.689 184.643 226.705 184.723 226.715 184.808C226.726 184.893 226.737 184.989 226.747 185.096C226.758 185.149 226.747 185.197 226.715 185.24C226.694 185.272 226.619 185.288 226.491 185.288C226.385 185.288 226.193 185.293 225.915 185.304C225.649 185.304 225.329 185.309 224.955 185.32C224.593 185.331 224.219 185.347 223.835 185.368C223.451 185.379 223.094 185.389 222.763 185.4V187.752C222.763 187.955 222.779 188.152 222.811 188.344C222.843 188.525 222.95 188.616 223.131 188.616C223.697 188.616 224.283 188.568 224.891 188.472C225.51 188.365 226.081 188.237 226.603 188.088C227.126 187.928 227.521 187.779 227.787 187.64C227.873 187.587 227.926 187.613 227.947 187.72L228.027 188.248C228.049 188.387 227.995 188.477 227.867 188.52C227.59 188.627 227.195 188.76 226.683 188.92C226.182 189.069 225.585 189.208 224.891 189.336C224.198 189.464 223.43 189.549 222.587 189.592ZM238.87 188.2C238.219 188.211 237.622 188.077 237.078 187.8C236.534 187.523 236.096 187.128 235.766 186.616C235.446 186.093 235.286 185.496 235.286 184.824C235.286 184.173 235.446 183.592 235.766 183.08C236.086 182.557 236.518 182.141 237.062 181.832C237.616 181.512 238.224 181.347 238.886 181.336C239.547 181.315 240.144 181.432 240.678 181.688C241.222 181.944 241.654 182.323 241.974 182.824C242.294 183.325 242.454 183.944 242.454 184.68C242.454 185.341 242.294 185.933 241.974 186.456C241.654 186.979 241.222 187.395 240.678 187.704C240.134 188.013 239.531 188.179 238.87 188.2ZM238.886 187.288C239.355 187.267 239.782 187.149 240.166 186.936C240.55 186.712 240.854 186.408 241.078 186.024C241.312 185.629 241.43 185.187 241.43 184.696C241.43 184.152 241.312 183.688 241.078 183.304C240.854 182.92 240.55 182.632 240.166 182.44C239.782 182.237 239.355 182.147 238.886 182.168C238.416 182.179 237.984 182.301 237.59 182.536C237.195 182.76 236.88 183.069 236.646 183.464C236.411 183.848 236.294 184.296 236.294 184.808C236.294 185.341 236.411 185.795 236.646 186.168C236.891 186.541 237.211 186.824 237.606 187.016C238 187.208 238.427 187.299 238.886 187.288ZM245.158 193.16C245.115 193.16 245.094 193.133 245.094 193.08V181.528C245.094 181.123 245.078 180.749 245.046 180.408C245.024 180.056 244.987 179.827 244.934 179.72C244.912 179.667 244.912 179.629 244.934 179.608C244.966 179.576 245.003 179.56 245.046 179.56C245.11 179.56 245.216 179.565 245.366 179.576C245.526 179.576 245.68 179.581 245.83 179.592C245.979 179.592 246.064 179.592 246.086 179.592C246.139 179.592 246.166 179.635 246.166 179.72C246.134 180.115 246.112 180.461 246.102 180.76C246.102 181.048 246.102 181.384 246.102 181.768V192.76C246.102 192.92 246.091 193.016 246.07 193.048C246.059 193.08 246.027 193.101 245.974 193.112L245.158 193.16ZM250.536 189.496C250.237 189.496 250.034 189.352 249.928 189.064C249.821 188.776 249.768 188.467 249.768 188.136V183.16C249.768 182.787 249.741 182.456 249.688 182.168C249.645 181.88 249.597 181.683 249.544 181.576C249.512 181.512 249.512 181.459 249.544 181.416C249.576 181.373 249.613 181.352 249.656 181.352C249.72 181.352 249.848 181.357 250.04 181.368C250.242 181.379 250.434 181.395 250.616 181.416C251.032 181.416 251.517 181.411 252.072 181.4C252.626 181.389 253.202 181.368 253.8 181.336C254.408 181.293 254.978 181.24 255.512 181.176C255.544 181.176 255.581 181.181 255.624 181.192C255.666 181.203 255.693 181.235 255.704 181.288L255.768 181.72C255.778 181.763 255.784 181.805 255.784 181.848C255.784 181.88 255.784 181.917 255.784 181.96C255.805 182.077 255.741 182.136 255.592 182.136H253.816C253.421 182.136 252.941 182.147 252.376 182.168C251.81 182.189 251.272 182.211 250.76 182.232V187.624C250.76 187.656 250.76 187.704 250.76 187.768C250.76 187.949 250.77 188.115 250.792 188.264C250.824 188.413 250.936 188.488 251.128 188.488C251.629 188.488 252.237 188.451 252.952 188.376C253.677 188.301 254.434 188.173 255.224 187.992C256.024 187.8 256.781 187.544 257.496 187.224C257.581 187.171 257.634 187.197 257.656 187.304L257.736 187.848C257.757 187.976 257.704 188.067 257.576 188.12C257.149 188.301 256.642 188.477 256.056 188.648C255.48 188.808 254.866 188.952 254.216 189.08C253.565 189.208 252.92 189.309 252.28 189.384C251.65 189.459 251.069 189.496 250.536 189.496ZM258.44 193.16C258.397 193.16 258.376 193.133 258.376 193.08V181.528C258.376 181.123 258.36 180.749 258.328 180.408C258.306 180.056 258.269 179.827 258.216 179.72C258.194 179.667 258.194 179.629 258.216 179.608C258.248 179.576 258.285 179.56 258.328 179.56C258.392 179.56 258.498 179.565 258.648 179.576C258.808 179.576 258.962 179.581 259.112 179.592C259.261 179.592 259.346 179.592 259.368 179.592C259.421 179.592 259.448 179.635 259.448 179.72C259.416 180.115 259.394 180.461 259.384 180.76C259.384 181.048 259.384 181.384 259.384 181.768V185.512C259.672 185.512 259.981 185.501 260.312 185.48C260.653 185.448 260.968 185.416 261.256 185.384C261.554 185.341 261.778 185.299 261.928 185.256C262.024 185.245 262.077 185.277 262.088 185.352C262.109 185.491 262.125 185.629 262.136 185.768C262.146 185.907 262.157 186.045 262.168 186.184C262.168 186.301 262.12 186.36 262.024 186.36C261.864 186.339 261.629 186.328 261.32 186.328C261.021 186.328 260.701 186.328 260.36 186.328C260.018 186.328 259.693 186.333 259.384 186.344V192.76C259.384 192.92 259.373 193.016 259.352 193.048C259.341 193.08 259.309 193.101 259.256 193.112L258.44 193.16ZM264.822 192.36C264.566 192.36 264.353 192.275 264.182 192.104C264.012 191.933 263.926 191.72 263.926 191.464C263.926 191.219 264.012 191.016 264.182 190.856C264.353 190.685 264.566 190.6 264.822 190.6C265.068 190.6 265.27 190.685 265.43 190.856C265.601 191.016 265.686 191.219 265.686 191.464C265.686 191.72 265.601 191.933 265.43 192.104C265.27 192.275 265.068 192.36 264.822 192.36Z" fill="black"/>
</svg>
