<svg width="69" height="50" viewBox="0 0 69 50" fill="none" xmlns="http://www.w3.org/2000/svg">
<path d="M9.12306 37.6991C10.0773 39.6077 11.1039 41.3841 13.3009 41.7731C13.9679 43.7919 14.3525 44.6743 17.2816 45.6971C19.7694 46.5659 22.1803 47.2026 24.7178 47.837C27.6354 48.5664 31.8494 48.144 34.4813 46.7403C39.8297 43.8878 47.6677 44.947 53.6604 44.6806C58.6288 44.4598 60.6197 39.3167 63.5843 36.1477C65.3512 34.259 63.9719 31.6275 65.3765 29.7546C66.8943 27.7309 66.9435 25.1043 65.5103 23.0406C64.2658 21.2484 63.6973 18.6116 62.4609 17.022C61.0134 15.161 59.656 13.4515 58.6357 11.2977C57.7854 9.50241 53.5485 7.71086 51.8147 7.15156C46.6906 5.49864 41.7874 3.37816 36.3537 2.39021C33.2213 1.82069 29.6351 2.33672 26.4565 2.33672C25.162 2.33672 23.6352 2.09367 22.3906 2.44371C16.6257 4.06511 10.4056 8.22901 6.98312 13.1434C5.27824 15.5914 2.06128 18.873 2.06128 22.0776C2.06128 22.9753 2.4587 23.6444 2.54276 24.485C2.83942 27.4515 4.2714 31.4373 7.27737 32.1888C8.1306 32.4021 8.63131 36.7156 9.12306 37.6991Z" fill="#FAE392"/>
<path d="M13.6169 41.8185C11.2 41.5499 10.122 39.6969 9.12306 37.6991C8.63131 36.7156 8.1306 32.4021 7.27737 32.1888C4.2714 31.4373 2.83942 27.4515 2.54276 24.485C2.4587 23.6443 2.06128 22.9753 2.06128 22.0776C2.06128 18.873 5.27824 15.5914 6.98312 13.1434C10.4056 8.22901 16.6257 4.06511 22.3906 2.44371C23.6352 2.09367 25.162 2.33672 26.4565 2.33672C29.6351 2.33672 33.2213 1.82069 36.3537 2.39021C41.7874 3.37816 46.6906 5.49864 51.8147 7.15156C53.5485 7.71086 57.7854 9.50241 58.6358 11.2977C59.656 13.4515 61.0134 15.161 62.4609 17.022C63.6972 18.6116 64.2658 21.2484 65.5103 23.0406C66.9435 25.1043 66.8943 27.7309 65.3765 29.7546C63.9719 31.6275 65.3512 34.259 63.5843 36.1477C60.6197 39.3167 58.6288 44.4598 53.6604 44.6806C47.6677 44.947 39.8297 43.8878 34.4813 46.7403C31.8494 48.144 27.6354 48.5664 24.7178 47.837C22.1803 47.2026 19.7694 46.5659 17.2816 45.6971C13.5719 44.4016 13.9436 43.3315 12.6539 39.8925" stroke="black" stroke-width="3" stroke-linecap="round"/>
<path d="M20.5876 19.8912C22.6194 18.8754 23.7732 18.8821 25.884 19.4098" stroke="black" stroke-width="3" stroke-linecap="round"/>
<path d="M38.884 17.9653C39.075 16.4373 44.034 16.725 45.1433 17.0023" stroke="black" stroke-width="3" stroke-linecap="round"/>
<path d="M27.8098 25.6691C28.2611 26.7972 29.2661 28.0235 30.5917 28.0765C31.6931 28.1206 32.2823 26.4187 33.1061 26.7391C35.7662 27.7735 35.0111 25.8366 36.958 25.1876" stroke="black" stroke-width="3" stroke-linecap="round"/>
<path d="M31.6618 28.0765C31.6618 28.8099 31.328 30.5851 31.7421 31.2061C32.1805 31.8638 34.4048 32.3617 35.0055 31.6608C36.7134 29.6683 36.0093 29.5492 35.0322 27.595" stroke="black" stroke-width="3" stroke-linecap="round"/>
</svg>
