<svg width="24" height="26" viewBox="0 0 24 26" fill="none" xmlns="http://www.w3.org/2000/svg">
<path d="M12.6535 0.272785C12.5678 0.186316 12.4659 0.117712 12.3538 0.0709035C12.2416 0.0240945 12.1214 0 12 0C11.8786 0 11.7584 0.0240945 11.6462 0.0709035C11.5341 0.117712 11.4322 0.186316 11.3465 0.272785L0.26954 11.4149C0.183875 11.5013 0.115977 11.6038 0.0697277 11.7166C0.0234784 11.8294 -0.000215169 11.9503 1.4723e-06 12.0723V25.0715C1.4723e-06 25.3177 0.0972539 25.5539 0.270364 25.728C0.443475 25.9022 0.678263 26 0.923078 26H9.23077C9.47559 26 9.71037 25.9022 9.88348 25.728C10.0566 25.5539 10.1538 25.3177 10.1538 25.0715V17.6434H13.8462V25.0715C13.8462 25.3177 13.9434 25.5539 14.1165 25.728C14.2896 25.9022 14.5244 26 14.7692 26H23.0769C23.3217 26 23.5565 25.9022 23.7296 25.728C23.9027 25.5539 24 25.3177 24 25.0715V12.0723C24.0002 11.9503 23.9765 11.8294 23.9303 11.7166C23.884 11.6038 23.8161 11.5013 23.7305 11.4149L21.2308 8.90238V2.7872C21.2308 2.54094 21.1335 2.30477 20.9604 2.13064C20.7873 1.95651 20.5525 1.85868 20.3077 1.85868H18.4615C18.2167 1.85868 17.9819 1.95651 17.8088 2.13064C17.6357 2.30477 17.5385 2.54094 17.5385 2.7872V5.18833L12.6535 0.272785ZM1.84616 24.143V12.4567L12 2.24309L22.1538 12.4567V24.143H15.6923V16.7149C15.6923 16.4686 15.5951 16.2325 15.4219 16.0583C15.2488 15.8842 15.014 15.7864 14.7692 15.7864H9.23077C8.98595 15.7864 8.75117 15.8842 8.57806 16.0583C8.40495 16.2325 8.30769 16.4686 8.30769 16.7149V24.143H1.84616Z" fill="#FFE607"/>
</svg>
