<svg width="27" height="27" viewBox="0 0 27 27" fill="none" xmlns="http://www.w3.org/2000/svg">
<g clip-path="url(#clip0_253_456)">
<path fill-rule="evenodd" clip-rule="evenodd" d="M10.125 13.5V1.6875H11.8125V12.0099L14.7538 10.2431C14.8849 10.1646 15.0347 10.1231 15.1875 10.1231C15.3403 10.1231 15.4902 10.1646 15.6212 10.2431L18.5625 12.0099V1.6875H20.25V13.5C20.25 13.6493 20.2105 13.7959 20.1353 13.9249C20.0602 14.0539 19.9521 14.1606 19.8223 14.2342C19.6924 14.3078 19.5453 14.3457 19.396 14.3439C19.2467 14.3421 19.1006 14.3007 18.9726 14.2239L15.1875 11.9526L11.4024 14.2256C11.2743 14.3024 11.128 14.3438 10.9786 14.3456C10.8291 14.3473 10.6819 14.3093 10.552 14.2355C10.4221 14.1617 10.3141 14.0547 10.2391 13.9255C10.164 13.7963 10.1247 13.6494 10.125 13.5Z" fill="#FFE607"/>
<path d="M5.0625 0H21.9375C22.8326 0 23.691 0.355579 24.324 0.988515C24.9569 1.62145 25.3125 2.47989 25.3125 3.375V23.625C25.3125 24.5201 24.9569 25.3785 24.324 26.0115C23.691 26.6444 22.8326 27 21.9375 27H5.0625C4.16739 27 3.30895 26.6444 2.67601 26.0115C2.04308 25.3785 1.6875 24.5201 1.6875 23.625V21.9375H3.375V23.625C3.375 24.0726 3.55279 24.5018 3.86926 24.8182C4.18572 25.1347 4.61495 25.3125 5.0625 25.3125H21.9375C22.3851 25.3125 22.8143 25.1347 23.1307 24.8182C23.4472 24.5018 23.625 24.0726 23.625 23.625V3.375C23.625 2.92745 23.4472 2.49822 23.1307 2.18176C22.8143 1.86529 22.3851 1.6875 21.9375 1.6875H5.0625C4.61495 1.6875 4.18572 1.86529 3.86926 2.18176C3.55279 2.49822 3.375 2.92745 3.375 3.375V5.0625H1.6875V3.375C1.6875 2.47989 2.04308 1.62145 2.67601 0.988515C3.30895 0.355579 4.16739 0 5.0625 0Z" fill="#FFE607"/>
<path d="M1.6875 7.4375V6.59375C1.6875 6.36997 1.77639 6.15536 1.93463 5.99713C2.09286 5.83889 2.30747 5.75 2.53125 5.75C2.75503 5.75 2.96964 5.83889 3.12787 5.99713C3.28611 6.15536 3.375 6.36997 3.375 6.59375V7.4375H4.21875C4.44253 7.4375 4.65714 7.52639 4.81537 7.68463C4.97361 7.84286 5.0625 8.05747 5.0625 8.28125C5.0625 8.50503 4.97361 8.71964 4.81537 8.87787C4.65714 9.03611 4.44253 9.125 4.21875 9.125H0.84375C0.619974 9.125 0.405362 9.03611 0.247129 8.87787C0.0888948 8.71964 0 8.50503 0 8.28125C0 8.05747 0.0888948 7.84286 0.247129 7.68463C0.405362 7.52639 0.619974 7.4375 0.84375 7.4375H1.6875ZM1.6875 12.5V11.6562C1.6875 11.4325 1.77639 11.2179 1.93463 11.0596C2.09286 10.9014 2.30747 10.8125 2.53125 10.8125C2.75503 10.8125 2.96964 10.9014 3.12787 11.0596C3.28611 11.2179 3.375 11.4325 3.375 11.6562V12.5H4.21875C4.44253 12.5 4.65714 12.5889 4.81537 12.7471C4.97361 12.9054 5.0625 13.12 5.0625 13.3438C5.0625 13.5675 4.97361 13.7821 4.81537 13.9404C4.65714 14.0986 4.44253 14.1875 4.21875 14.1875H0.84375C0.619974 14.1875 0.405362 14.0986 0.247129 13.9404C0.0888948 13.7821 0 13.5675 0 13.3438C0 13.12 0.0888948 12.9054 0.247129 12.7471C0.405362 12.5889 0.619974 12.5 0.84375 12.5H1.6875ZM1.6875 17.5625V16.7188C1.6875 16.495 1.77639 16.2804 1.93463 16.1221C2.09286 15.9639 2.30747 15.875 2.53125 15.875C2.75503 15.875 2.96964 15.9639 3.12787 16.1221C3.28611 16.2804 3.375 16.495 3.375 16.7188V17.5625H4.21875C4.44253 17.5625 4.65714 17.6514 4.81537 17.8096C4.97361 17.9679 5.0625 18.1825 5.0625 18.4062C5.0625 18.63 4.97361 18.8446 4.81537 19.0029C4.65714 19.1611 4.44253 19.25 4.21875 19.25H0.84375C0.619974 19.25 0.405362 19.1611 0.247129 19.0029C0.0888948 18.8446 0 18.63 0 18.4062C0 18.1825 0.0888948 17.9679 0.247129 17.8096C0.405362 17.6514 0.619974 17.5625 0.84375 17.5625H1.6875Z" fill="#FFE607"/>
<path d="M12.1138 1.479C11.9736 1.66778 11.913 1.89701 11.913 2.13167C11.913 2.38772 12.5177 2.09352 12.6298 2.05636C12.9997 1.93382 13.3495 1.78494 13.7399 1.78024C14.2068 1.77461 14.6712 1.70493 15.1387 1.70493C15.4977 1.70493 15.8558 1.67982 16.2153 1.67982C16.4894 1.67982 16.6975 1.64865 16.967 1.59475C17.3599 1.51617 17.7603 1.57121 18.1538 1.60312C18.2563 1.61143 18.515 1.57633 18.515 1.72166C18.515 1.81948 18.5344 1.92838 18.4899 2.01732C18.2619 2.47336 18.2184 3.03534 18.2138 3.53742C18.2103 3.91893 18.2892 4.28891 18.3086 4.66982C18.3473 5.42855 18.2462 6.20428 18.1775 6.95974C18.1203 7.58848 18.1133 8.22345 18.1133 8.85498C18.1133 9.31055 18.1133 9.76612 18.1133 10.2217C18.1133 10.4962 18.119 10.805 18.2082 11.0626C18.2601 11.2127 18.3125 11.3522 18.3839 11.4949C18.4331 11.5933 18.515 11.7031 18.515 11.8157C18.515 11.9335 18.4691 12.0348 18.3839 12.1169C18.3063 12.1918 18.1768 12.074 18.1106 12.0333C17.8739 11.8878 17.6768 11.638 17.5053 11.428C17.1288 10.9669 16.8034 10.5066 16.5375 9.97484C16.4593 9.81849 16.3616 9.51184 16.154 9.51184C15.8904 9.51184 15.6595 9.49308 15.4232 9.63038C15.2839 9.71134 15.0928 9.80334 15.1777 9.98739C15.23 10.1006 15.3592 10.1484 15.4678 10.191C15.765 10.3075 16.0506 10.3755 16.3715 10.4002C16.5581 10.4145 16.7451 10.4155 16.9321 10.4155C17.0058 10.4155 17.0782 10.4002 17.1316 10.4574C17.2944 10.6318 17.472 10.8036 17.6503 10.9622C17.7467 11.0478 17.787 11.0745 17.787 10.9232C17.787 10.1985 17.3925 9.50947 17.0507 8.90101C17.0255 8.85623 16.9923 8.68884 16.9782 8.8006C16.9655 8.90013 16.9595 8.99866 16.9586 9.09904C16.9581 9.15761 16.9261 9.32349 16.9586 9.27476C16.9941 9.22148 17.0008 9.07612 17.0144 9.01815C17.0668 8.7954 17.1229 8.57319 17.1678 8.34875C17.2271 8.05256 17.2062 7.74781 17.2362 7.44784C17.2762 7.04722 17.3159 6.61948 17.4244 6.23176C17.5534 5.77101 17.6163 5.29135 17.7494 4.83299C17.8512 4.48222 17.8133 4.09911 17.8484 3.73824C17.8849 3.36269 17.8565 2.99572 17.8177 2.62536C17.8024 2.47888 17.8031 2.2285 17.7061 2.10378C17.6669 2.05336 17.5184 2.08147 17.4607 2.08147C17.1403 2.08147 16.8368 2.30749 16.5235 2.37712C16.1368 2.46305 15.716 2.30739 15.3284 2.30739C15.028 2.30739 14.742 2.3568 14.4442 2.3827C14.2967 2.39552 14.1517 2.41852 14.0063 2.44545C13.8544 2.47359 13.6968 2.45228 13.5433 2.47056C13.313 2.49798 13.0836 2.46344 12.8571 2.52216C12.7224 2.5571 12.5855 2.57339 12.4457 2.58212C12.389 2.58567 12.3292 2.571 12.284 2.60304C12.154 2.69507 11.5924 2.89457 11.6927 3.1553C11.7111 3.20335 11.8833 3.22403 11.9297 3.23619C12.1035 3.28163 12.2959 3.26129 12.4736 3.26129C12.8812 3.26129 13.283 3.27463 13.6841 3.19714C14.2155 3.09448 14.7992 3.08557 15.3381 3.08557C15.6621 3.08557 15.9708 3.02429 16.2864 2.94751C16.5541 2.88241 16.8451 2.75924 17.1232 2.75924C17.6299 2.75924 17.112 3.58364 16.9893 3.77171C16.9029 3.90412 16.7725 4.01233 16.7188 4.16498C16.6673 4.3111 16.6267 4.46509 16.6128 4.61962C16.5774 5.01147 16.5821 5.4005 16.5821 5.79386C16.5821 6.21131 16.5821 6.62876 16.5821 7.0462C16.5821 7.25086 16.5945 7.45953 16.5654 7.66261C16.5201 7.97765 16.4332 8.28876 16.4092 8.60675C16.4038 8.67806 16.4252 8.77857 16.3827 8.84243C16.3511 8.88985 16.391 8.72865 16.3994 8.67229C16.4369 8.42153 16.4903 8.17216 16.5514 7.92619C16.7042 7.31139 16.883 6.69776 17.0744 6.0937C17.1934 5.71799 17.3369 5.33507 17.4077 4.94595C17.4307 4.81917 17.4688 4.70117 17.4969 4.57639C17.5217 4.46664 17.49 4.34854 17.5234 4.24168C17.6302 3.90012 16.8825 3.88017 16.7076 3.83865C16.4562 3.77895 16.2903 3.73824 16.0326 3.73824C15.7212 3.73824 15.4097 3.73824 15.0982 3.73824C14.6912 3.73824 14.2541 3.68891 13.8515 3.74382C13.6329 3.77362 13.414 3.83865 13.1918 3.83865C13.082 3.83865 12.9878 3.88885 12.8767 3.88885C12.7353 3.88885 12.5966 3.91396 12.4541 3.91396C12.3399 3.91396 12.202 3.93866 12.0999 3.99484C11.9565 4.07371 11.9883 4.21146 11.9883 4.35186C11.9883 4.56325 12.1695 4.5826 12.3509 4.61683C12.6118 4.66605 12.8283 4.62276 13.0803 4.59312C13.5136 4.54214 13.9479 4.44094 14.3842 4.41601C14.9152 4.38566 15.4457 4.377 15.9768 4.36022C16.3268 4.34917 15.9214 5.27827 15.8848 5.44521C15.7819 5.91401 15.8039 6.3852 15.8039 6.86491C15.8039 7.19226 15.7452 7.57149 15.8653 7.88017C15.9251 8.0341 15.9714 8.16808 16.0773 8.30412C16.1506 8.39848 16.1818 8.48666 16.2418 8.58304C16.2961 8.67017 16.3424 8.79593 16.4315 8.85359C16.4436 8.86143 16.2061 8.90883 16.1749 8.90937C15.9455 8.9134 15.7318 8.9138 15.511 8.84522C15.432 8.82066 15.2959 8.81342 15.2712 8.71692C15.2212 8.52162 15.2517 8.29483 15.2517 8.09493C15.2517 7.77167 15.2265 7.46222 15.2028 7.14243C15.183 6.87488 15.101 6.6344 15.101 6.36425C15.101 6.02439 15.1169 5.68931 15.2042 5.35875C15.2204 5.29742 15.3929 4.80922 15.3214 4.78139C15.1677 4.72163 14.9179 4.76183 14.7566 4.76884C14.5333 4.77855 14.3158 4.80825 14.0997 4.86228C13.934 4.9037 13.7306 4.99337 13.5586 4.99337C13.3462 4.99337 13.1002 4.97152 12.8976 5.04357C12.5713 5.15958 12.164 5.16262 11.8238 5.19419C11.7835 5.19792 11.0575 5.24233 11.3984 5.35596C12.167 5.61216 12.99 5.67114 13.7929 5.67114C13.9669 5.67114 14.093 5.60646 14.2601 5.56933C14.4398 5.5294 14.7291 5.40276 14.5544 5.73529C14.2695 6.27749 13.4547 6.18294 12.9534 6.2485C12.7192 6.27912 12.5278 6.28378 12.3007 6.20945C12.1602 6.16348 12.01 6.04768 11.8572 6.04768C11.6602 6.04768 11.911 6.51575 11.9381 6.58738C12.002 6.75614 12.0308 7.30281 12.2826 7.30281C12.6352 7.30281 12.9184 7.27861 13.2434 7.15219C13.4227 7.08247 13.6148 7.02789 13.8027 6.98763C14.0272 6.93953 14.2244 6.8366 14.4428 6.77705C14.5089 6.75902 14.6857 6.58797 14.7301 6.70871C14.8991 7.16843 14.5313 7.50055 14.1025 7.60404C13.8175 7.67283 13.5133 7.62636 13.2239 7.6654C13.1613 7.67385 13.0245 7.68357 12.9729 7.73513C12.8641 7.84393 12.7568 7.99399 12.6856 8.13119C12.6256 8.24693 12.5685 8.40732 12.4123 8.40732C12.3405 8.40732 12.2554 8.42829 12.217 8.35154C12.1521 8.22167 12.1173 8.03781 12.0776 7.8969C12.0524 7.80773 12.0282 7.69912 12.0023 7.86204C11.9834 7.98031 11.9883 8.10109 11.9883 8.22045C11.9883 8.84184 11.9512 9.47885 12.0023 10.099C12.0142 10.2438 12.0385 10.3703 12.0385 10.5201C12.0385 10.6408 11.9898 10.749 11.9883 10.8702C11.9854 11.1034 11.9883 11.3369 11.9883 11.5702C11.9883 11.6962 11.9926 11.8407 11.913 11.9468C11.8756 11.9967 12.0251 11.892 12.0804 11.8631C12.4559 11.6672 12.8474 11.5049 13.2379 11.3415C13.6639 11.1633 14.0798 10.9926 14.4763 10.7558C14.7029 10.6205 14.8875 10.4149 15.0536 10.2119C15.1276 10.1216 15.2827 9.90532 15.1833 9.77541C15.1033 9.67074 14.9478 9.62727 14.8779 9.51602C14.8001 9.3923 14.7998 9.23931 14.7998 9.09904C14.7998 8.95919 14.8299 8.77643 14.7859 8.6444C14.7536 8.54757 14.7298 8.46243 14.6673 8.37803C14.596 8.28178 14.437 8.04471 14.2978 8.03078C14.1034 8.01135 13.9988 8.21637 13.8682 8.32086C13.6639 8.48434 13.4669 8.60598 13.2379 8.73365C13.0524 8.83702 12.9513 8.92958 12.8809 9.1353C12.7526 9.50968 12.7363 9.89555 12.6535 10.2761C12.6356 10.3585 12.641 10.4432 12.641 10.5271C12.641 10.675 12.9055 10.527 12.9729 10.4964C13.4592 10.2759 13.8695 10.0313 14.0342 9.50068C14.0576 9.42535 14.1691 8.93994 14.0788 8.91216C13.9881 8.88424 13.8001 8.95795 13.7343 9.02373C13.6418 9.11628 13.6063 9.22465 13.5893 9.35285C13.5716 9.4864 13.5409 9.61625 13.5447 9.7517C13.548 9.87168 13.8539 9.86957 13.9268 9.87722C14.0184 9.88684 14.9002 9.93736 14.9002 10.1282C14.9002 10.2498 14.4473 10.1896 14.3619 10.1896C14.2373 10.1896 14.1722 10.2044 14.1722 10.0641" stroke="#FFE607" stroke-linecap="round"/>
<path d="M12.7646 6.00208C12.7548 6.19892 12.66 6.34299 12.5783 6.51545C12.5368 6.60323 12.5628 6.7254 12.5602 6.81984C12.5384 7.60297 12.5286 8.39099 12.5806 9.18229C12.6121 9.66069 12.6011 10.1409 12.6011 10.6202C12.6011 10.8507 12.5089 11.0215 12.4375 11.2358" stroke="#FFE607" stroke-linecap="round"/>
<path d="M19.1022 8.04651C19.3469 8.04651 18.6095 8.05413 18.3708 8.10784C18.1953 8.14731 18.0281 8.20832 17.8574 8.26004C17.6063 8.33613 17.641 8.53499 17.5894 8.74161" stroke="#FFE607" stroke-linecap="round"/>
</g>
<defs>
<clipPath id="clip0_253_456">
<rect width="27" height="27" fill="white"/>
</clipPath>
</defs>
</svg>
