<svg width="73" height="54" viewBox="0 0 73 54" fill="none" xmlns="http://www.w3.org/2000/svg">
<path d="M9.60055 40.29C10.6276 42.3441 11.7325 44.256 14.0972 44.6747C14.815 46.8475 15.229 47.7971 18.3815 48.898C21.0591 49.833 23.6539 50.5184 26.3851 51.2011C29.5253 51.9862 34.0608 51.5315 36.8934 50.0208C42.6499 46.9507 51.086 48.0906 57.5358 47.804C62.8833 47.5663 65.0261 42.031 68.2169 38.6202C70.1186 36.5875 68.634 33.7553 70.1459 31.7396C71.7794 29.5616 71.8323 26.7347 70.2898 24.5135C68.9503 22.5847 68.3384 19.7468 67.0077 18.0359C65.4499 16.033 63.9888 14.1931 62.8908 11.875C61.9755 9.94283 57.4154 8.01464 55.5493 7.41269C50.0343 5.63369 44.757 3.3515 38.9087 2.2882C35.5374 1.67524 31.6776 2.23062 28.2565 2.23062C26.8632 2.23062 25.2199 1.96904 23.8804 2.34578C17.6756 4.09084 10.981 8.57231 7.29735 13.8615C5.4624 16.4962 2 20.0281 2 23.4771C2 24.4433 2.42774 25.1633 2.51822 26.0681C2.8375 29.2609 4.37875 33.5506 7.61404 34.3594C8.53237 34.589 9.07129 39.2315 9.60055 40.29Z" fill="#F6721B"/>
<path d="M14.4373 44.7235C11.836 44.4345 10.6757 42.4402 9.60055 40.29C9.07129 39.2315 8.53237 34.589 7.61404 34.3594C4.37875 33.5506 2.8375 29.2609 2.51822 26.0681C2.42774 25.1633 2 24.4433 2 23.4771C2 20.0281 5.4624 16.4962 7.29735 13.8615C10.981 8.57231 17.6756 4.09084 23.8804 2.34578C25.2199 1.96904 26.8632 2.23062 28.2565 2.23062C31.6776 2.23062 35.5374 1.67524 38.9087 2.2882C44.757 3.3515 50.0343 5.63369 55.5493 7.41269C57.4154 8.01464 61.9755 9.94283 62.8908 11.875C63.9888 14.1931 65.4499 16.033 67.0077 18.0359C68.3384 19.7468 68.9503 22.5847 70.2898 24.5135C71.8323 26.7347 71.7794 29.5616 70.1459 31.7396C68.634 33.7553 70.1186 36.5875 68.2169 38.6202C65.0261 42.031 62.8833 47.5663 57.5358 47.804C51.086 48.0906 42.6499 46.9507 36.8934 50.0208C34.0608 51.5315 29.5253 51.9862 26.3851 51.2011C23.6539 50.5184 21.0591 49.833 18.3815 48.898C14.3888 47.5037 14.7888 46.352 13.4008 42.6507" stroke="black" stroke-width="3" stroke-linecap="round"/>
<path d="M21.9399 21.124C24.1267 20.0307 25.3685 20.0379 27.6404 20.6058" stroke="black" stroke-width="3" stroke-linecap="round"/>
<path d="M41.6323 19.0513C41.8379 17.4067 47.1752 17.7164 48.3692 18.0148" stroke="black" stroke-width="3" stroke-linecap="round"/>
<path d="M29.7129 27.3425C30.1986 28.5567 31.2802 29.8765 32.707 29.9336C33.8924 29.981 34.5266 28.1493 35.4133 28.4941C38.2763 29.6075 37.4636 27.5228 39.5591 26.8243" stroke="black" stroke-width="3" stroke-linecap="round"/>
<path d="M33.859 29.9336C33.859 30.723 33.4998 32.6335 33.9454 33.3019C34.4173 34.0098 36.8112 34.5456 37.4578 33.7913C39.296 31.6468 38.5382 31.5186 37.4865 29.4154" stroke="black" stroke-width="3" stroke-linecap="round"/>
<path d="M5.48528 22.7708C5.38194 23.8042 5.1321 24.1981 5.48528 25.2576" stroke="#100F0F" stroke-linecap="round"/>
<path d="M8.59375 29.9203C11.8228 29.9203 10.1265 34.1061 12.3241 35.2049" stroke="#100F0F" stroke-linecap="round"/>
<path d="M26.002 45.1524C27.2861 45.1524 27.3787 45.577 28.4198 46.2577C29.0151 46.6469 30.2937 46.3958 30.9758 46.3958" stroke="#100F0F" stroke-linecap="round"/>
<path d="M56.4668 42.6657C56.5811 40.7225 58.3393 41.4222 59.5755 41.4222" stroke="#100F0F" stroke-linecap="round"/>
<path d="M62.995 22.4599C61.8199 22.6067 63.6955 25.7125 63.9103 26.0347C64.268 26.5712 63.9983 27.7236 64.6875 27.7444C66.0635 27.7861 65.7928 28.4152 65.7928 29.6096" stroke="#100F0F" stroke-linecap="round"/>
<path d="M16.0542 12.2015C16.1839 11.1643 18.1175 9.48917 18.852 10.9581" stroke="#100F0F" stroke-linecap="round"/>
<path d="M43.4106 7.84958C44.1964 7.84958 44.8426 8.16044 45.5867 8.16044" stroke="#100F0F" stroke-linecap="round"/>
<path d="M45.8975 8.16052C46.2824 8.54546 46.6959 8.7964 47.1409 9.0931" stroke="#100F0F" stroke-linecap="round"/>
<path d="M16.6431 39.7243C16.9856 39.9566 17.4063 40.0433 17.8127 39.9654C18.2192 39.8875 18.578 39.6513 18.8103 39.3088C19.0426 38.9663 19.1293 38.5456 19.0514 38.1391C18.9735 37.7327 18.7373 37.3739 18.3948 37.1416C17.8978 36.8044 17.1901 36.5797 16.5463 36.5313C16.2258 36.5072 15.9337 36.5278 15.6999 36.592C15.4643 36.6567 15.3107 36.7588 15.2288 36.8795C15.1469 37.0003 15.1088 37.1807 15.1359 37.4236C15.1627 37.6646 15.2515 37.9436 15.3925 38.2325C15.6755 38.8127 16.146 39.3871 16.6431 39.7243Z" fill="#FEC32C" stroke="black" stroke-width="0.5"/>
<path d="M61.3616 35.5902C61.1535 35.9479 61.0961 36.3736 61.2019 36.7737C61.3076 37.1738 61.568 37.5155 61.9257 37.7236C62.2834 37.9317 62.7092 37.9891 63.1093 37.8833C63.5093 37.7776 63.851 37.5172 64.0591 37.1595C64.3611 36.6403 64.5364 35.9188 64.5403 35.2732C64.5422 34.9518 64.5015 34.6618 64.4213 34.433C64.3405 34.2024 64.228 34.0562 64.1019 33.9829C63.9758 33.9095 63.7932 33.884 63.5528 33.9277C63.3142 33.9711 63.042 34.079 62.7635 34.2396C62.2043 34.562 61.6636 35.0711 61.3616 35.5902Z" fill="#FEC32C" stroke="black" stroke-width="0.5"/>
<path d="M25.1263 7.73379C24.9182 8.09149 24.8607 8.51722 24.9665 8.91731C25.0723 9.31739 25.3327 9.65907 25.6904 9.86717C26.0481 10.0753 26.4738 10.1328 26.8739 10.027C27.274 9.92117 27.6157 9.66079 27.8238 9.30308C28.1258 8.78396 28.3011 8.06238 28.3049 7.41686C28.3069 7.09538 28.2661 6.80543 28.1859 6.57663C28.1051 6.34603 27.9927 6.19983 27.8666 6.12647C27.7405 6.05311 27.5578 6.02764 27.3174 6.07136C27.0789 6.11475 26.8067 6.22263 26.5282 6.3832C25.9689 6.70563 25.4283 7.21467 25.1263 7.73379Z" fill="#FEC32C" stroke="black" stroke-width="0.5"/>
<path d="M35.4652 45.8434C35.3534 46.0857 35.3424 46.3625 35.4346 46.6128C35.5268 46.8632 35.7148 47.0667 35.957 47.1785C36.1993 47.2904 36.476 47.3014 36.7264 47.2091C36.9768 47.1169 37.1803 46.929 37.2921 46.6867C37.4603 46.3224 37.5329 45.8262 37.4943 45.3912C37.4752 45.175 37.4295 44.9866 37.3639 44.8439C37.2974 44.6996 37.2208 44.6235 37.1513 44.5914C37.0817 44.5593 36.9742 44.5503 36.8212 44.5934C36.67 44.6359 36.497 44.7235 36.32 44.8492C35.9639 45.102 35.6334 45.4791 35.4652 45.8434Z" fill="#FEC32C" stroke="black" stroke-width="0.5"/>
<path d="M51.5016 26.3976C51.4081 26.6968 51.4373 27.021 51.5828 27.2987C51.7282 27.5765 51.9781 27.785 52.2773 27.8786C52.5766 27.9721 52.9007 27.9429 53.1785 27.7975C53.4562 27.652 53.6648 27.4021 53.7583 27.1029C53.8969 26.6594 53.9057 26.0815 53.7969 25.5903C53.7428 25.346 53.6622 25.1356 53.5642 24.9796C53.4652 24.8221 53.3616 24.74 53.2674 24.7106C53.1733 24.6812 53.0414 24.6896 52.8703 24.7627C52.7009 24.8351 52.5149 24.9622 52.3313 25.1323C51.9622 25.474 51.6402 25.9541 51.5016 26.3976Z" fill="#FEC32C" stroke="black" stroke-width="0.5"/>
<path d="M8.64587 18.4782C8.69687 18.7386 8.84925 18.9682 9.06947 19.1163C9.28969 19.2643 9.55973 19.3189 9.82017 19.2679C10.0806 19.2169 10.3101 19.0645 10.4582 18.8443C10.6063 18.6241 10.6608 18.354 10.6098 18.0936C10.5331 17.7017 10.3024 17.2591 10.0177 16.9307C9.87613 16.7675 9.72948 16.6421 9.59342 16.5654C9.45571 16.4877 9.34982 16.4711 9.27531 16.4857C9.2008 16.5003 9.10901 16.5556 9.01076 16.6795C8.91369 16.8019 8.82518 16.9733 8.75568 17.1779C8.61586 17.5894 8.56912 18.0863 8.64587 18.4782Z" fill="#FEC32C" stroke="black" stroke-width="0.5"/>
<path d="M54.6459 12.4782C54.6969 12.7386 54.8492 12.9682 55.0695 13.1163C55.2897 13.2643 55.5597 13.3189 55.8202 13.2679C56.0806 13.2169 56.3101 13.0645 56.4582 12.8443C56.6063 12.6241 56.6608 12.354 56.6098 12.0936C56.5331 11.7017 56.3024 11.2591 56.0177 10.9307C55.8761 10.7675 55.7295 10.6421 55.5934 10.5654C55.4557 10.4877 55.3498 10.4711 55.2753 10.4857C55.2008 10.5003 55.109 10.5556 55.0108 10.6795C54.9137 10.8019 54.8252 10.9733 54.7557 11.1779C54.6159 11.5894 54.5691 12.0863 54.6459 12.4782Z" fill="#FEC32C" stroke="black" stroke-width="0.5"/>
<path d="M34.5827 32.1556C34.6501 32.4999 34.8547 32.8038 35.1532 32.9998C35.452 33.1959 35.8203 33.2679 36.1771 33.198C36.5339 33.1281 36.8479 32.9226 37.0506 32.6282C37.2531 32.3341 37.328 31.9754 37.2605 31.6312C37.1613 31.1245 36.8605 30.5569 36.4887 30.1362C36.3037 29.9269 36.1094 29.7635 35.9254 29.6623C35.7399 29.5604 35.5847 29.5319 35.4638 29.5556C35.3429 29.5793 35.2099 29.6641 35.0765 29.8286C34.9443 29.9917 34.826 30.2163 34.7336 30.4799C34.548 31.0097 34.4835 31.6489 34.5827 32.1556Z" fill="#FEC32C" stroke="black" stroke-width="0.5"/>
</svg>
