<svg width="320" height="169" viewBox="0 0 320 169" fill="none" xmlns="http://www.w3.org/2000/svg">
<rect width="320" height="169" rx="10" fill="#F1E89E"/>
<path d="M18.5734 45.617C21.1004 45.617 22.8864 47.954 22.8864 51.602C22.8864 55.269 21.1004 57.606 18.5734 57.606C16.0464 57.606 14.2604 55.269 14.2604 51.602C14.2604 47.954 16.0464 45.617 18.5734 45.617ZM18.5734 47.042C16.9014 47.042 15.7614 48.828 15.7614 51.602C15.7614 54.395 16.9014 56.219 18.5734 56.219C20.2264 56.219 21.3854 54.395 21.3854 51.602C21.3854 48.828 20.2264 47.042 18.5734 47.042ZM25.6224 44.306H27.2184V61.482H25.6224V44.306ZM26.8384 51.165H30.0304V52.495H26.8384V51.165ZM43.766 44.287H45.343V61.501H43.766V44.287ZM36.28 45.617C38.826 45.617 40.65 47.954 40.65 51.602C40.65 55.269 38.826 57.606 36.28 57.606C33.753 57.606 31.929 55.269 31.929 51.602C31.929 47.954 33.753 45.617 36.28 45.617ZM36.28 47.042C34.608 47.042 33.43 48.828 33.43 51.602C33.43 54.395 34.608 56.219 36.28 56.219C37.971 56.219 39.13 54.395 39.13 51.602C39.13 48.828 37.971 47.042 36.28 47.042ZM61.0545 44.306H62.6315V61.52H61.0545V44.306ZM49.6925 55.915H51.0795C54.4805 55.915 56.6845 55.801 59.2305 55.326L59.4015 56.656C56.7795 57.15 54.5375 57.245 51.0795 57.245H49.6925V55.915ZM49.6925 45.94H57.8055V47.251H51.2505V56.409H49.6925V45.94ZM71.237 45.769H85.05V47.004H71.237V45.769ZM78.191 47.707C81.725 47.707 83.739 48.562 83.739 50.196C83.739 51.83 81.725 52.685 78.191 52.685C74.657 52.685 72.643 51.83 72.643 50.196C72.643 48.562 74.657 47.707 78.191 47.707ZM78.191 48.809C75.664 48.809 74.258 49.303 74.258 50.196C74.258 51.07 75.664 51.545 78.191 51.545C80.718 51.545 82.124 51.07 82.124 50.196C82.124 49.303 80.718 48.809 78.191 48.809ZM77.412 44.04H78.97V46.51H77.412V44.04ZM70.42 54.053H85.943V55.326H70.42V54.053ZM77.412 52.248H78.97V54.642H77.412V52.248ZM72.111 56.694H83.891V61.482H82.333V57.929H72.111V56.694ZM87.7085 53.331H103.232V54.623H87.7085V53.331ZM89.7225 59.81H101.522V61.102H89.7225V59.81ZM89.7225 56.124H91.2995V60.209H89.7225V56.124ZM95.4795 44.876C99.1465 44.876 101.522 46.168 101.522 48.315C101.522 50.443 99.1465 51.735 95.4795 51.735C91.7935 51.735 89.4375 50.443 89.4375 48.315C89.4375 46.168 91.7935 44.876 95.4795 44.876ZM95.4795 46.168C92.7815 46.168 91.0525 46.966 91.0525 48.315C91.0525 49.664 92.7815 50.462 95.4795 50.462C98.1775 50.462 99.9065 49.664 99.9065 48.315C99.9065 46.966 98.1775 46.168 95.4795 46.168ZM122.04 44.287H123.617V61.501H122.04V44.287ZM114.554 45.617C117.1 45.617 118.924 47.954 118.924 51.602C118.924 55.269 117.1 57.606 114.554 57.606C112.027 57.606 110.203 55.269 110.203 51.602C110.203 47.954 112.027 45.617 114.554 45.617ZM114.554 47.042C112.882 47.042 111.704 48.828 111.704 51.602C111.704 54.395 112.882 56.219 114.554 56.219C116.245 56.219 117.404 54.395 117.404 51.602C117.404 48.828 116.245 47.042 114.554 47.042ZM127.473 46.282H134.028V56.884H127.473V46.282ZM132.546 47.536H128.955V55.63H132.546V47.536ZM139.937 44.306H141.457V61.482H139.937V44.306ZM133.23 50.766H137.182V52.077H133.23V50.766ZM136.536 44.667H138.037V60.627H136.536V44.667ZM148.96 44.933C151.525 44.933 153.406 46.491 153.406 48.752C153.406 50.994 151.525 52.552 148.96 52.552C146.414 52.552 144.533 50.994 144.533 48.752C144.533 46.491 146.414 44.933 148.96 44.933ZM148.96 46.225C147.307 46.225 146.053 47.27 146.053 48.752C146.053 50.234 147.307 51.26 148.96 51.26C150.632 51.26 151.867 50.234 151.867 48.752C151.867 47.27 150.632 46.225 148.96 46.225ZM156.636 44.306H158.232V53.103H156.636V44.306ZM147.117 53.939H158.232V58.119H148.694V60.703H147.155V56.941H156.674V55.212H147.117V53.939ZM147.155 60H158.802V61.254H147.155V60ZM173.906 44.287H175.483V61.501H173.906V44.287ZM166.42 45.617C168.966 45.617 170.79 47.954 170.79 51.602C170.79 55.269 168.966 57.606 166.42 57.606C163.893 57.606 162.069 55.269 162.069 51.602C162.069 47.954 163.893 45.617 166.42 45.617ZM166.42 47.042C164.748 47.042 163.57 48.828 163.57 51.602C163.57 54.395 164.748 56.219 166.42 56.219C168.111 56.219 169.27 54.395 169.27 51.602C169.27 48.828 168.111 47.042 166.42 47.042ZM190.244 52.894H191.821V55.896H190.244V52.894ZM183.271 52.343H198.794V53.616H183.271V52.343ZM191.023 55.421C194.709 55.421 196.913 56.504 196.913 58.442C196.913 60.361 194.709 61.444 191.023 61.444C187.337 61.444 185.133 60.361 185.133 58.442C185.133 56.504 187.337 55.421 191.023 55.421ZM191.023 56.637C188.344 56.637 186.729 57.283 186.729 58.442C186.729 59.582 188.344 60.228 191.023 60.228C193.721 60.228 195.317 59.582 195.317 58.442C195.317 57.283 193.721 56.637 191.023 56.637ZM190.016 45.712H191.422V46.225C191.422 48.999 188.268 50.861 184.715 51.298L184.145 50.044C187.223 49.721 190.016 48.182 190.016 46.225V45.712ZM190.681 45.712H192.068V46.225C192.068 48.182 194.861 49.721 197.939 50.044L197.369 51.298C193.816 50.861 190.681 48.999 190.681 46.225V45.712ZM184.696 45.085H197.407V46.358H184.696V45.085ZM200.56 53.16H216.083V54.452H200.56V53.16ZM207.552 50.595H209.11V53.559H207.552V50.595ZM202.289 56.124H214.164V61.482H212.587V57.416H202.289V56.124ZM202.631 44.705H204.189V46.643H212.492V44.705H214.069V51.127H202.631V44.705ZM204.189 47.878V49.873H212.492V47.878H204.189ZM219.216 51.697H228.013V52.989H219.216V51.697ZM222.731 52.723H224.327V56.675H222.731V52.723ZM219.216 45.921H227.918V47.213H220.793V52.153H219.216V45.921ZM230.274 44.287H231.851V61.501H230.274V44.287ZM218.171 57.777L217.943 56.466C221.306 56.447 225.524 56.409 229.153 55.972L229.286 57.15C225.524 57.72 221.42 57.796 218.171 57.777ZM239.526 54.775H240.761V55.763C240.761 58.043 239.355 60.323 236.885 61.273L236.087 60.095C238.253 59.297 239.526 57.435 239.526 55.763V54.775ZM239.887 54.775H241.065V55.763C241.065 57.511 242.072 59.392 244.143 60.228L243.478 61.425C240.989 60.456 239.887 58.062 239.887 55.763V54.775ZM245.891 54.775H247.05V55.763C247.05 57.796 245.929 60.38 243.478 61.425L242.794 60.228C244.846 59.278 245.891 57.264 245.891 55.763V54.775ZM246.195 54.775H247.43V55.763C247.43 57.568 248.684 59.354 250.888 60.095L250.071 61.273C247.582 60.361 246.195 58.157 246.195 55.763V54.775ZM243.592 48.6H248.133V49.911H243.592V48.6ZM239.83 45.275C242.357 45.275 244.238 46.928 244.238 49.303C244.238 51.659 242.357 53.312 239.83 53.312C237.303 53.312 235.441 51.659 235.441 49.303C235.441 46.928 237.303 45.275 239.83 45.275ZM239.83 46.586C238.158 46.586 236.942 47.726 236.942 49.303C236.942 50.88 238.158 52.001 239.83 52.001C241.483 52.001 242.718 50.88 242.718 49.303C242.718 47.726 241.483 46.586 239.83 46.586ZM247.696 44.306H249.273V54.091H247.696V44.306ZM254.401 54.604H255.959V56.599H264.357V54.604H265.934V61.254H254.401V54.604ZM255.959 57.815V59.981H264.357V57.815H255.959ZM252.425 52.134H267.948V53.407H252.425V52.134ZM259.398 44.496H260.747V45.256C260.747 48.239 257.422 50.386 253.888 50.918L253.318 49.683C256.415 49.265 259.398 47.422 259.398 45.256V44.496ZM259.645 44.496H260.994V45.256C260.994 47.384 264.015 49.265 267.074 49.683L266.485 50.918C262.989 50.386 259.645 48.201 259.645 45.256V44.496ZM282.216 44.306H283.793V61.482H282.216V44.306ZM270.816 45.978H272.374V56.618H270.816V45.978ZM270.816 55.687H272.222C274.825 55.687 277.542 55.497 280.449 54.889L280.639 56.238C277.656 56.846 274.939 57.055 272.222 57.055H270.816V55.687ZM298.63 44.287H300.226V61.501H298.63V44.287ZM299.846 51.07H303.038V52.4H299.846V51.07ZM287.743 55.896H289.092C292.265 55.896 294.488 55.782 297.053 55.307L297.224 56.637C294.583 57.131 292.322 57.226 289.092 57.226H287.743V55.896ZM287.743 45.959H295.723V47.251H289.301V56.485H287.743V45.959ZM305.374 55.82V46.7H307.046V55.82H305.374ZM306.21 60.19C305.969 60.19 305.747 60.1267 305.545 60C305.342 59.886 305.177 59.7277 305.051 59.525C304.937 59.3223 304.88 59.1007 304.88 58.86C304.88 58.48 305.006 58.1633 305.26 57.91C305.526 57.6567 305.842 57.53 306.21 57.53C306.577 57.53 306.887 57.6567 307.141 57.91C307.407 58.1633 307.54 58.48 307.54 58.86C307.54 59.1007 307.476 59.3223 307.35 59.525C307.236 59.7277 307.077 59.886 306.875 60C306.685 60.1267 306.463 60.19 306.21 60.19Z" fill="#512525"/>
<rect x="92.1855" y="111" width="134.57" height="34" rx="8" fill="#FFBC3A"/>
<path d="M149.991 127.235H151.236V129.29H149.991V127.235ZM150.576 122.225C152.541 122.225 153.921 123.305 153.921 124.91C153.921 126.515 152.541 127.58 150.576 127.58C148.626 127.58 147.246 126.515 147.246 124.91C147.246 123.305 148.626 122.225 150.576 122.225ZM150.576 123.185C149.301 123.185 148.416 123.89 148.416 124.91C148.416 125.945 149.301 126.635 150.576 126.635C151.866 126.635 152.751 125.945 152.751 124.91C152.751 123.89 151.866 123.185 150.576 123.185ZM155.751 121.625H156.996V131.99H155.751V121.625ZM156.471 126.2H158.976V127.235H156.471V126.2ZM148.416 133.835H157.476V134.87H148.416V133.835ZM148.416 131.105H149.661V134.285H148.416V131.105ZM146.631 129.98L146.466 128.96C148.851 128.96 152.151 128.93 154.911 128.51L155.001 129.425C152.166 129.95 148.956 129.98 146.631 129.98ZM163.565 129.56H164.795V132.89H163.565V129.56ZM167.9 129.53H169.115V132.875H167.9V129.53ZM160.145 132.47H172.43V133.505H160.145V132.47ZM161.63 122.615H170.915V126.71H162.905V129.44H161.675V125.72H169.685V123.62H161.63V122.615ZM161.675 128.885H171.23V129.905H161.675V128.885Z" fill="#311A1E"/>
</svg>
