<svg width="375" height="812" viewBox="0 0 375 812" fill="none" xmlns="http://www.w3.org/2000/svg">
<rect width="375" height="812" fill="#FBD962"/>
<mask id="path-1-outside-1_316_54" maskUnits="userSpaceOnUse" x="30" y="124" width="247" height="23" fill="black">
<rect fill="white" x="30" y="124" width="247" height="23"/>
<path d="M36.6566 137.468H38.5886V140.895H36.6566V137.468ZM45.7646 125.002H47.6736V145.794H45.7646V125.002ZM31.1136 141.838L30.8606 140.251C34.7936 140.228 39.9686 140.182 44.4536 139.607L44.5916 141.01C39.9686 141.792 34.9546 141.838 31.1136 141.838ZM31.2976 127.532H43.9246V129.073H31.2976V127.532ZM37.5996 130.269C40.5896 130.269 42.6136 131.787 42.6136 134.11C42.6136 136.456 40.5896 137.951 37.5996 137.951C34.6326 137.951 32.6086 136.456 32.6086 134.11C32.6086 131.787 34.6326 130.269 37.5996 130.269ZM37.5996 131.741C35.7366 131.741 34.4256 132.684 34.4256 134.11C34.4256 135.536 35.7366 136.479 37.5996 136.479C39.4856 136.479 40.7966 135.536 40.7966 134.11C40.7966 132.684 39.4856 131.741 37.5996 131.741ZM36.6566 125.002H38.5656V128.383H36.6566V125.002ZM57.5618 135.467H59.4708V140.09H57.5618V135.467ZM66.7848 125.002H68.6938V140.826H66.7848V125.002ZM54.5028 143.77H69.1998V145.334H54.5028V143.77ZM54.5028 139.285H56.4118V144.207H54.5028V139.285ZM51.8118 136.18L51.5588 134.616C55.3998 134.616 60.5518 134.57 64.9678 133.995L65.1058 135.398C60.6208 136.111 55.5838 136.18 51.8118 136.18ZM62.5528 137.284H67.2678V138.687H62.5528V137.284ZM58.3208 125.853C61.3568 125.853 63.4268 127.279 63.4268 129.464C63.4268 131.672 61.3568 133.098 58.3208 133.098C55.2618 133.098 53.1918 131.672 53.1918 129.464C53.1918 127.279 55.2618 125.853 58.3208 125.853ZM58.3208 127.279C56.3658 127.279 55.0088 128.13 55.0088 129.464C55.0088 130.798 56.3658 131.649 58.3208 131.649C60.2528 131.649 61.6098 130.798 61.6098 129.464C61.6098 128.13 60.2528 127.279 58.3208 127.279ZM89.6348 130.384H94.3268V131.971H89.6348V130.384ZM93.7288 125.002H95.6378V137.399H93.7288V125.002ZM88.8068 138.02C93.0848 138.02 95.7298 139.469 95.7298 141.907C95.7298 144.368 93.0848 145.771 88.8068 145.771C84.5058 145.771 81.8608 144.368 81.8608 141.907C81.8608 139.469 84.5058 138.02 88.8068 138.02ZM88.8068 139.515C85.6788 139.515 83.7698 140.389 83.7698 141.907C83.7698 143.402 85.6788 144.276 88.8068 144.276C91.9348 144.276 93.8438 143.402 93.8438 141.907C93.8438 140.389 91.9348 139.515 88.8068 139.515ZM83.8388 127.095H85.4028V128.774C85.4028 132.615 83.0568 135.904 79.6068 137.192L78.6178 135.674C81.6998 134.547 83.8388 131.764 83.8388 128.774V127.095ZM84.2068 127.095H85.7478V128.774C85.7478 131.465 87.7718 134.041 90.7848 135.099L89.8188 136.617C86.4378 135.398 84.2068 132.27 84.2068 128.774V127.095ZM79.1928 126.52H90.3018V128.084H79.1928V126.52ZM99.477 141.562H118.314V143.149H99.477V141.562ZM107.895 136.594H109.804V142.022H107.895V136.594ZM101.685 126.474H103.571V130.177H114.174V126.474H116.06V137.1H101.685V126.474ZM103.571 131.718V135.536H114.174V131.718H103.571ZM120.382 134.662H139.242V136.111H120.382V134.662ZM122.613 137.79H136.873V142.229H124.568V144.667H122.682V140.918H135.01V139.147H122.613V137.79ZM122.682 144.161H137.54V145.541H122.682V144.161ZM122.774 125.6H136.804V129.924H124.706V132.178H122.82V128.636H134.941V126.957H122.774V125.6ZM122.82 131.718H137.195V133.098H122.82V131.718ZM162.391 125.002H164.323V136.157H162.391V125.002ZM150.914 137.192H152.8V139.722H162.437V137.192H164.323V145.518H150.914V137.192ZM152.8 141.24V143.977H162.437V141.24H152.8ZM153.168 125.991C156.319 125.991 158.573 127.946 158.573 130.775C158.573 133.627 156.319 135.582 153.168 135.582C150.017 135.582 147.74 133.627 147.74 130.775C147.74 127.946 150.017 125.991 153.168 125.991ZM153.168 127.578C151.098 127.578 149.603 128.889 149.603 130.775C149.603 132.661 151.098 133.972 153.168 133.972C155.238 133.972 156.733 132.661 156.733 130.775C156.733 128.889 155.238 127.578 153.168 127.578ZM169.059 135.306H170.554C174.648 135.306 176.672 135.237 179.156 134.8L179.363 136.341C176.787 136.801 174.717 136.87 170.554 136.87H169.059V135.306ZM169.013 126.244H177.983V132.155H170.945V136.249H169.059V130.66H176.097V127.808H169.013V126.244ZM183.388 125.025H185.297V137.79H183.388V125.025ZM179.363 128.084H183.825V129.648H179.363V128.084ZM179.363 132.385H183.825V133.949H179.363V132.385ZM171.382 138.917H185.297V145.84H183.388V140.481H171.382V138.917ZM189.091 128.544H199.395V130.108H189.091V128.544ZM194.243 131.488C196.842 131.488 198.728 133.443 198.728 136.249C198.728 139.032 196.842 140.987 194.243 140.987C191.667 140.987 189.781 139.032 189.781 136.249C189.781 133.443 191.667 131.488 194.243 131.488ZM194.243 133.121C192.656 133.121 191.506 134.409 191.506 136.249C191.506 138.089 192.656 139.377 194.243 139.377C195.853 139.377 197.026 138.089 197.026 136.249C197.026 134.409 195.853 133.121 194.243 133.121ZM204.892 125.002H206.732V145.794H204.892V125.002ZM201.58 133.742H205.513V135.329H201.58V133.742ZM200.453 125.462H202.247V144.782H200.453V125.462ZM193.323 125.6H195.209V129.51H193.323V125.6ZM218.391 127.049H220.047V127.923C220.047 131.649 216.091 134.386 211.905 135.099L211.169 133.581C214.826 133.052 218.391 130.66 218.391 127.923V127.049ZM218.874 127.049H220.507V127.923C220.507 130.66 224.095 133.052 227.729 133.581L227.016 135.099C222.807 134.386 218.874 131.649 218.874 127.923V127.049ZM218.46 137.859H220.346V145.794H218.46V137.859ZM210.065 136.847H228.856V138.411H210.065V136.847ZM211.813 126.29H227.039V127.831H211.813V126.29ZM239.181 132.431H243.16V134.018H239.181V132.431ZM235.294 126.957H236.789V130.913C236.789 135.26 234.972 139.469 231.936 141.332L230.74 139.883C233.592 138.204 235.294 134.478 235.294 130.913V126.957ZM235.662 126.957H237.134V130.844C237.134 134.179 238.698 137.721 241.435 139.377L240.331 140.872C237.341 139.032 235.662 134.892 235.662 130.844V126.957ZM246.817 125.002H248.657V145.794H246.817V125.002ZM242.608 125.439H244.402V144.759H242.608V125.439ZM256.521 135.697H258.407V141.93H256.521V135.697ZM264.203 135.697H266.112V141.93H264.203V135.697ZM251.921 141.562H270.758V143.149H251.921V141.562ZM261.305 126.313C265.698 126.313 268.849 128.406 268.849 131.672C268.849 134.915 265.698 137.008 261.305 137.008C256.889 137.008 253.738 134.915 253.738 131.672C253.738 128.406 256.889 126.313 261.305 126.313ZM261.305 127.831C257.97 127.831 255.578 129.349 255.578 131.672C255.578 133.972 257.97 135.49 261.305 135.49C264.64 135.49 267.009 133.972 267.009 131.672C267.009 129.349 264.64 127.831 261.305 127.831ZM275.467 143.93C275.234 144.178 274.924 144.302 274.537 144.302C274.157 144.302 273.854 144.186 273.63 143.953C273.405 143.721 273.292 143.372 273.292 142.907C273.292 142.434 273.397 142.078 273.606 141.837C273.823 141.589 274.133 141.465 274.537 141.465C274.94 141.465 275.254 141.589 275.478 141.837C275.703 142.078 275.816 142.426 275.816 142.884C275.816 143.333 275.699 143.682 275.467 143.93Z"/>
</mask>
<path d="M36.6566 137.468H38.5886V140.895H36.6566V137.468ZM45.7646 125.002H47.6736V145.794H45.7646V125.002ZM31.1136 141.838L30.8606 140.251C34.7936 140.228 39.9686 140.182 44.4536 139.607L44.5916 141.01C39.9686 141.792 34.9546 141.838 31.1136 141.838ZM31.2976 127.532H43.9246V129.073H31.2976V127.532ZM37.5996 130.269C40.5896 130.269 42.6136 131.787 42.6136 134.11C42.6136 136.456 40.5896 137.951 37.5996 137.951C34.6326 137.951 32.6086 136.456 32.6086 134.11C32.6086 131.787 34.6326 130.269 37.5996 130.269ZM37.5996 131.741C35.7366 131.741 34.4256 132.684 34.4256 134.11C34.4256 135.536 35.7366 136.479 37.5996 136.479C39.4856 136.479 40.7966 135.536 40.7966 134.11C40.7966 132.684 39.4856 131.741 37.5996 131.741ZM36.6566 125.002H38.5656V128.383H36.6566V125.002ZM57.5618 135.467H59.4708V140.09H57.5618V135.467ZM66.7848 125.002H68.6938V140.826H66.7848V125.002ZM54.5028 143.77H69.1998V145.334H54.5028V143.77ZM54.5028 139.285H56.4118V144.207H54.5028V139.285ZM51.8118 136.18L51.5588 134.616C55.3998 134.616 60.5518 134.57 64.9678 133.995L65.1058 135.398C60.6208 136.111 55.5838 136.18 51.8118 136.18ZM62.5528 137.284H67.2678V138.687H62.5528V137.284ZM58.3208 125.853C61.3568 125.853 63.4268 127.279 63.4268 129.464C63.4268 131.672 61.3568 133.098 58.3208 133.098C55.2618 133.098 53.1918 131.672 53.1918 129.464C53.1918 127.279 55.2618 125.853 58.3208 125.853ZM58.3208 127.279C56.3658 127.279 55.0088 128.13 55.0088 129.464C55.0088 130.798 56.3658 131.649 58.3208 131.649C60.2528 131.649 61.6098 130.798 61.6098 129.464C61.6098 128.13 60.2528 127.279 58.3208 127.279ZM89.6348 130.384H94.3268V131.971H89.6348V130.384ZM93.7288 125.002H95.6378V137.399H93.7288V125.002ZM88.8068 138.02C93.0848 138.02 95.7298 139.469 95.7298 141.907C95.7298 144.368 93.0848 145.771 88.8068 145.771C84.5058 145.771 81.8608 144.368 81.8608 141.907C81.8608 139.469 84.5058 138.02 88.8068 138.02ZM88.8068 139.515C85.6788 139.515 83.7698 140.389 83.7698 141.907C83.7698 143.402 85.6788 144.276 88.8068 144.276C91.9348 144.276 93.8438 143.402 93.8438 141.907C93.8438 140.389 91.9348 139.515 88.8068 139.515ZM83.8388 127.095H85.4028V128.774C85.4028 132.615 83.0568 135.904 79.6068 137.192L78.6178 135.674C81.6998 134.547 83.8388 131.764 83.8388 128.774V127.095ZM84.2068 127.095H85.7478V128.774C85.7478 131.465 87.7718 134.041 90.7848 135.099L89.8188 136.617C86.4378 135.398 84.2068 132.27 84.2068 128.774V127.095ZM79.1928 126.52H90.3018V128.084H79.1928V126.52ZM99.477 141.562H118.314V143.149H99.477V141.562ZM107.895 136.594H109.804V142.022H107.895V136.594ZM101.685 126.474H103.571V130.177H114.174V126.474H116.06V137.1H101.685V126.474ZM103.571 131.718V135.536H114.174V131.718H103.571ZM120.382 134.662H139.242V136.111H120.382V134.662ZM122.613 137.79H136.873V142.229H124.568V144.667H122.682V140.918H135.01V139.147H122.613V137.79ZM122.682 144.161H137.54V145.541H122.682V144.161ZM122.774 125.6H136.804V129.924H124.706V132.178H122.82V128.636H134.941V126.957H122.774V125.6ZM122.82 131.718H137.195V133.098H122.82V131.718ZM162.391 125.002H164.323V136.157H162.391V125.002ZM150.914 137.192H152.8V139.722H162.437V137.192H164.323V145.518H150.914V137.192ZM152.8 141.24V143.977H162.437V141.24H152.8ZM153.168 125.991C156.319 125.991 158.573 127.946 158.573 130.775C158.573 133.627 156.319 135.582 153.168 135.582C150.017 135.582 147.74 133.627 147.74 130.775C147.74 127.946 150.017 125.991 153.168 125.991ZM153.168 127.578C151.098 127.578 149.603 128.889 149.603 130.775C149.603 132.661 151.098 133.972 153.168 133.972C155.238 133.972 156.733 132.661 156.733 130.775C156.733 128.889 155.238 127.578 153.168 127.578ZM169.059 135.306H170.554C174.648 135.306 176.672 135.237 179.156 134.8L179.363 136.341C176.787 136.801 174.717 136.87 170.554 136.87H169.059V135.306ZM169.013 126.244H177.983V132.155H170.945V136.249H169.059V130.66H176.097V127.808H169.013V126.244ZM183.388 125.025H185.297V137.79H183.388V125.025ZM179.363 128.084H183.825V129.648H179.363V128.084ZM179.363 132.385H183.825V133.949H179.363V132.385ZM171.382 138.917H185.297V145.84H183.388V140.481H171.382V138.917ZM189.091 128.544H199.395V130.108H189.091V128.544ZM194.243 131.488C196.842 131.488 198.728 133.443 198.728 136.249C198.728 139.032 196.842 140.987 194.243 140.987C191.667 140.987 189.781 139.032 189.781 136.249C189.781 133.443 191.667 131.488 194.243 131.488ZM194.243 133.121C192.656 133.121 191.506 134.409 191.506 136.249C191.506 138.089 192.656 139.377 194.243 139.377C195.853 139.377 197.026 138.089 197.026 136.249C197.026 134.409 195.853 133.121 194.243 133.121ZM204.892 125.002H206.732V145.794H204.892V125.002ZM201.58 133.742H205.513V135.329H201.58V133.742ZM200.453 125.462H202.247V144.782H200.453V125.462ZM193.323 125.6H195.209V129.51H193.323V125.6ZM218.391 127.049H220.047V127.923C220.047 131.649 216.091 134.386 211.905 135.099L211.169 133.581C214.826 133.052 218.391 130.66 218.391 127.923V127.049ZM218.874 127.049H220.507V127.923C220.507 130.66 224.095 133.052 227.729 133.581L227.016 135.099C222.807 134.386 218.874 131.649 218.874 127.923V127.049ZM218.46 137.859H220.346V145.794H218.46V137.859ZM210.065 136.847H228.856V138.411H210.065V136.847ZM211.813 126.29H227.039V127.831H211.813V126.29ZM239.181 132.431H243.16V134.018H239.181V132.431ZM235.294 126.957H236.789V130.913C236.789 135.26 234.972 139.469 231.936 141.332L230.74 139.883C233.592 138.204 235.294 134.478 235.294 130.913V126.957ZM235.662 126.957H237.134V130.844C237.134 134.179 238.698 137.721 241.435 139.377L240.331 140.872C237.341 139.032 235.662 134.892 235.662 130.844V126.957ZM246.817 125.002H248.657V145.794H246.817V125.002ZM242.608 125.439H244.402V144.759H242.608V125.439ZM256.521 135.697H258.407V141.93H256.521V135.697ZM264.203 135.697H266.112V141.93H264.203V135.697ZM251.921 141.562H270.758V143.149H251.921V141.562ZM261.305 126.313C265.698 126.313 268.849 128.406 268.849 131.672C268.849 134.915 265.698 137.008 261.305 137.008C256.889 137.008 253.738 134.915 253.738 131.672C253.738 128.406 256.889 126.313 261.305 126.313ZM261.305 127.831C257.97 127.831 255.578 129.349 255.578 131.672C255.578 133.972 257.97 135.49 261.305 135.49C264.64 135.49 267.009 133.972 267.009 131.672C267.009 129.349 264.64 127.831 261.305 127.831ZM275.467 143.93C275.234 144.178 274.924 144.302 274.537 144.302C274.157 144.302 273.854 144.186 273.63 143.953C273.405 143.721 273.292 143.372 273.292 142.907C273.292 142.434 273.397 142.078 273.606 141.837C273.823 141.589 274.133 141.465 274.537 141.465C274.94 141.465 275.254 141.589 275.478 141.837C275.703 142.078 275.816 142.426 275.816 142.884C275.816 143.333 275.699 143.682 275.467 143.93Z" fill="black"/>
<path d="M36.6566 137.468V137.268H36.4566V137.468H36.6566ZM38.5886 137.468H38.7886V137.268H38.5886V137.468ZM38.5886 140.895V141.095H38.7886V140.895H38.5886ZM36.6566 140.895H36.4566V141.095H36.6566V140.895ZM45.7646 125.002V124.802H45.5646V125.002H45.7646ZM47.6736 125.002H47.8736V124.802H47.6736V125.002ZM47.6736 145.794V145.994H47.8736V145.794H47.6736ZM45.7646 145.794H45.5646V145.994H45.7646V145.794ZM31.1136 141.838L30.9161 141.869L30.9429 142.038H31.1136V141.838ZM30.8606 140.251L30.8594 140.051L30.6264 140.052L30.6631 140.282L30.8606 140.251ZM44.4536 139.607L44.6526 139.587L44.6325 139.382L44.4282 139.409L44.4536 139.607ZM44.5916 141.01L44.6249 141.207L44.8089 141.176L44.7906 140.99L44.5916 141.01ZM31.2976 127.532V127.332H31.0976V127.532H31.2976ZM43.9246 127.532H44.1246V127.332H43.9246V127.532ZM43.9246 129.073V129.273H44.1246V129.073H43.9246ZM31.2976 129.073H31.0976V129.273H31.2976V129.073ZM36.6566 125.002V124.802H36.4566V125.002H36.6566ZM38.5656 125.002H38.7656V124.802H38.5656V125.002ZM38.5656 128.383V128.583H38.7656V128.383H38.5656ZM36.6566 128.383H36.4566V128.583H36.6566V128.383ZM36.6566 137.668H38.5886V137.268H36.6566V137.668ZM38.3886 137.468V140.895H38.7886V137.468H38.3886ZM38.5886 140.695H36.6566V141.095H38.5886V140.695ZM36.8566 140.895V137.468H36.4566V140.895H36.8566ZM45.7646 125.202H47.6736V124.802H45.7646V125.202ZM47.4736 125.002V145.794H47.8736V125.002H47.4736ZM47.6736 145.594H45.7646V145.994H47.6736V145.594ZM45.9646 145.794V125.002H45.5646V145.794H45.9646ZM31.3111 141.807L31.0581 140.22L30.6631 140.282L30.9161 141.869L31.3111 141.807ZM30.8618 140.451C34.7929 140.428 39.98 140.382 44.479 139.805L44.4282 139.409C39.9572 139.982 34.7943 140.028 30.8594 140.051L30.8618 140.451ZM44.2545 139.627L44.3925 141.03L44.7906 140.99L44.6526 139.587L44.2545 139.627ZM44.5582 140.813C39.9538 141.592 34.9553 141.638 31.1136 141.638V142.038C34.9539 142.038 39.9834 141.992 44.6249 141.207L44.5582 140.813ZM31.2976 127.732H43.9246V127.332H31.2976V127.732ZM43.7246 127.532V129.073H44.1246V127.532H43.7246ZM43.9246 128.873H31.2976V129.273H43.9246V128.873ZM31.4976 129.073V127.532H31.0976V129.073H31.4976ZM37.5996 130.469C39.0629 130.469 40.2703 130.841 41.1067 131.477C41.9384 132.111 42.4136 133.013 42.4136 134.11H42.8136C42.8136 132.884 42.2768 131.866 41.349 131.159C40.4259 130.456 39.1262 130.069 37.5996 130.069V130.469ZM42.4136 134.11C42.4136 135.219 41.9381 136.121 41.107 136.751C40.2709 137.385 39.0636 137.751 37.5996 137.751V138.151C39.1256 138.151 40.4253 137.77 41.3487 137.07C42.2771 136.366 42.8136 135.347 42.8136 134.11H42.4136ZM37.5996 137.751C36.1474 137.751 34.9459 137.385 34.1125 136.751C33.2842 136.121 32.8086 135.219 32.8086 134.11H32.4086C32.4086 135.347 32.945 136.366 33.8704 137.069C34.7908 137.77 36.0848 138.151 37.5996 138.151V137.751ZM32.8086 134.11C32.8086 133.013 33.2838 132.111 34.1129 131.477C34.9465 130.84 36.148 130.469 37.5996 130.469V130.069C36.0841 130.069 34.7902 130.457 33.8701 131.159C32.9454 131.866 32.4086 132.884 32.4086 134.11H32.8086ZM37.5996 131.541C36.6366 131.541 35.7983 131.784 35.1952 132.23C34.5876 132.679 34.2256 133.329 34.2256 134.11H34.6256C34.6256 133.465 34.9191 132.931 35.4328 132.552C35.9509 132.169 36.6996 131.941 37.5996 131.941V131.541ZM34.2256 134.11C34.2256 134.891 34.5876 135.541 35.1952 135.99C35.7983 136.436 36.6366 136.679 37.5996 136.679V136.279C36.6996 136.279 35.9509 136.051 35.4328 135.668C34.9191 135.289 34.6256 134.755 34.6256 134.11H34.2256ZM37.5996 136.679C38.5736 136.679 39.4176 136.436 40.0238 135.99C40.6345 135.542 40.9966 134.892 40.9966 134.11H40.5966C40.5966 134.754 40.3032 135.289 39.7869 135.668C39.266 136.051 38.5116 136.279 37.5996 136.279V136.679ZM40.9966 134.11C40.9966 133.328 40.6345 132.678 40.0238 132.23C39.4176 131.784 38.5736 131.541 37.5996 131.541V131.941C38.5116 131.941 39.266 132.169 39.7869 132.552C40.3032 132.931 40.5966 133.466 40.5966 134.11H40.9966ZM36.6566 125.202H38.5656V124.802H36.6566V125.202ZM38.3656 125.002V128.383H38.7656V125.002H38.3656ZM38.5656 128.183H36.6566V128.583H38.5656V128.183ZM36.8566 128.383V125.002H36.4566V128.383H36.8566ZM57.5618 135.467V135.267H57.3618V135.467H57.5618ZM59.4708 135.467H59.6708V135.267H59.4708V135.467ZM59.4708 140.09V140.29H59.6708V140.09H59.4708ZM57.5618 140.09H57.3618V140.29H57.5618V140.09ZM66.7848 125.002V124.802H66.5848V125.002H66.7848ZM68.6938 125.002H68.8938V124.802H68.6938V125.002ZM68.6938 140.826V141.026H68.8938V140.826H68.6938ZM66.7848 140.826H66.5848V141.026H66.7848V140.826ZM54.5028 143.77V143.57H54.3028V143.77H54.5028ZM69.1998 143.77H69.3998V143.57H69.1998V143.77ZM69.1998 145.334V145.534H69.3998V145.334H69.1998ZM54.5028 145.334H54.3028V145.534H54.5028V145.334ZM54.5028 139.285V139.085H54.3028V139.285H54.5028ZM56.4118 139.285H56.6118V139.085H56.4118V139.285ZM56.4118 144.207V144.407H56.6118V144.207H56.4118ZM54.5028 144.207H54.3028V144.407H54.5028V144.207ZM51.8118 136.18L51.6144 136.212L51.6415 136.38H51.8118V136.18ZM51.5588 134.616V134.416H51.3238L51.3614 134.648L51.5588 134.616ZM64.9678 133.995L65.1668 133.975L65.1466 133.77L64.942 133.797L64.9678 133.995ZM65.1058 135.398L65.1372 135.596L65.3233 135.566L65.3048 135.378L65.1058 135.398ZM62.5528 137.284V137.084H62.3528V137.284H62.5528ZM67.2678 137.284H67.4678V137.084H67.2678V137.284ZM67.2678 138.687V138.887H67.4678V138.687H67.2678ZM62.5528 138.687H62.3528V138.887H62.5528V138.687ZM57.5618 135.667H59.4708V135.267H57.5618V135.667ZM59.2708 135.467V140.09H59.6708V135.467H59.2708ZM59.4708 139.89H57.5618V140.29H59.4708V139.89ZM57.7618 140.09V135.467H57.3618V140.09H57.7618ZM66.7848 125.202H68.6938V124.802H66.7848V125.202ZM68.4938 125.002V140.826H68.8938V125.002H68.4938ZM68.6938 140.626H66.7848V141.026H68.6938V140.626ZM66.9848 140.826V125.002H66.5848V140.826H66.9848ZM54.5028 143.97H69.1998V143.57H54.5028V143.97ZM68.9998 143.77V145.334H69.3998V143.77H68.9998ZM69.1998 145.134H54.5028V145.534H69.1998V145.134ZM54.7028 145.334V143.77H54.3028V145.334H54.7028ZM54.5028 139.485H56.4118V139.085H54.5028V139.485ZM56.2118 139.285V144.207H56.6118V139.285H56.2118ZM56.4118 144.007H54.5028V144.407H56.4118V144.007ZM54.7028 144.207V139.285H54.3028V144.207H54.7028ZM52.0092 136.148L51.7562 134.584L51.3614 134.648L51.6144 136.212L52.0092 136.148ZM51.5588 134.816C55.399 134.816 60.5631 134.77 64.9936 134.193L64.942 133.797C60.5405 134.37 55.4006 134.416 51.5588 134.416V134.816ZM64.7688 134.015L64.9068 135.418L65.3048 135.378L65.1668 133.975L64.7688 134.015ZM65.0744 135.2C60.6066 135.911 55.5837 135.98 51.8118 135.98V136.38C55.5839 136.38 60.635 136.311 65.1372 135.596L65.0744 135.2ZM62.5528 137.484H67.2678V137.084H62.5528V137.484ZM67.0678 137.284V138.687H67.4678V137.284H67.0678ZM67.2678 138.487H62.5528V138.887H67.2678V138.487ZM62.7528 138.687V137.284H62.3528V138.687H62.7528ZM58.3208 126.053C59.8102 126.053 61.043 126.403 61.8974 127.003C62.7465 127.599 63.2268 128.443 63.2268 129.464H63.6268C63.6268 128.3 63.0721 127.339 62.1272 126.675C61.1876 126.016 59.8674 125.653 58.3208 125.653V126.053ZM63.2268 129.464C63.2268 130.497 62.7458 131.347 61.897 131.946C61.0428 132.548 59.8102 132.898 58.3208 132.898V133.298C59.8673 133.298 61.1877 132.935 62.1275 132.272C63.0728 131.606 63.6268 130.639 63.6268 129.464H63.2268ZM58.3208 132.898C56.8196 132.898 55.5812 132.548 54.7242 131.945C53.8727 131.347 53.3918 130.497 53.3918 129.464H52.9918C52.9918 130.639 53.5459 131.606 54.4942 132.273C55.4369 132.935 56.763 133.298 58.3208 133.298V132.898ZM53.3918 129.464C53.3918 128.443 53.872 127.599 54.7238 127.003C55.581 126.403 56.8196 126.053 58.3208 126.053V125.653C56.763 125.653 55.4371 126.016 54.4945 126.675C53.5466 127.339 52.9918 128.3 52.9918 129.464H53.3918ZM58.3208 127.079C57.3174 127.079 56.448 127.297 55.8226 127.704C55.1917 128.114 54.8088 128.719 54.8088 129.464H55.2088C55.2088 128.875 55.5044 128.388 56.0407 128.039C56.5826 127.687 57.3691 127.479 58.3208 127.479V127.079ZM54.8088 129.464C54.8088 130.209 55.1917 130.814 55.8226 131.224C56.448 131.631 57.3174 131.849 58.3208 131.849V131.449C57.3691 131.449 56.5826 131.241 56.0407 130.889C55.5044 130.54 55.2088 130.053 55.2088 129.464H54.8088ZM58.3208 131.849C59.313 131.849 60.1768 131.631 60.7992 131.224C61.427 130.814 61.8098 130.209 61.8098 129.464H61.4098C61.4098 130.053 61.1141 130.541 60.5804 130.889C60.0413 131.242 59.2605 131.449 58.3208 131.449V131.849ZM61.8098 129.464C61.8098 128.719 61.427 128.114 60.7992 127.704C60.1768 127.297 59.313 127.079 58.3208 127.079V127.479C59.2605 127.479 60.0413 127.686 60.5804 128.039C61.1141 128.387 61.4098 128.875 61.4098 129.464H61.8098ZM89.6348 130.384V130.184H89.4348V130.384H89.6348ZM94.3268 130.384H94.5268V130.184H94.3268V130.384ZM94.3268 131.971V132.171H94.5268V131.971H94.3268ZM89.6348 131.971H89.4348V132.171H89.6348V131.971ZM93.7288 125.002V124.802H93.5288V125.002H93.7288ZM95.6378 125.002H95.8378V124.802H95.6378V125.002ZM95.6378 137.399V137.599H95.8378V137.399H95.6378ZM93.7288 137.399H93.5288V137.599H93.7288V137.399ZM83.8388 127.095V126.895H83.6388V127.095H83.8388ZM85.4028 127.095H85.6028V126.895H85.4028V127.095ZM79.6068 137.192L79.4392 137.301L79.5266 137.435L79.6767 137.379L79.6068 137.192ZM78.6178 135.674L78.5491 135.486L78.3129 135.573L78.4502 135.783L78.6178 135.674ZM84.2068 127.095V126.895H84.0068V127.095H84.2068ZM85.7478 127.095H85.9478V126.895H85.7478V127.095ZM90.7848 135.099L90.9535 135.206L91.0888 134.994L90.851 134.91L90.7848 135.099ZM89.8188 136.617L89.7509 136.805L89.9015 136.859L89.9875 136.724L89.8188 136.617ZM79.1928 126.52V126.32H78.9928V126.52H79.1928ZM90.3018 126.52H90.5018V126.32H90.3018V126.52ZM90.3018 128.084V128.284H90.5018V128.084H90.3018ZM79.1928 128.084H78.9928V128.284H79.1928V128.084ZM89.6348 130.584H94.3268V130.184H89.6348V130.584ZM94.1268 130.384V131.971H94.5268V130.384H94.1268ZM94.3268 131.771H89.6348V132.171H94.3268V131.771ZM89.8348 131.971V130.384H89.4348V131.971H89.8348ZM93.7288 125.202H95.6378V124.802H93.7288V125.202ZM95.4378 125.002V137.399H95.8378V125.002H95.4378ZM95.6378 137.199H93.7288V137.599H95.6378V137.199ZM93.9288 137.399V125.002H93.5288V137.399H93.9288ZM88.8068 138.22C90.9275 138.22 92.6202 138.58 93.7751 139.224C94.922 139.864 95.5298 140.776 95.5298 141.907H95.9298C95.9298 140.6 95.215 139.569 93.9699 138.875C92.7328 138.185 90.964 137.82 88.8068 137.82V138.22ZM95.5298 141.907C95.5298 143.05 94.922 143.956 93.7761 144.587C92.6213 145.222 90.9285 145.571 88.8068 145.571V145.971C90.963 145.971 92.7317 145.618 93.969 144.937C95.215 144.251 95.9298 143.225 95.9298 141.907H95.5298ZM88.8068 145.571C86.6734 145.571 84.9748 145.222 83.8172 144.587C82.6684 143.956 82.0608 143.05 82.0608 141.907H81.6608C81.6608 143.225 82.3756 144.251 83.6246 144.937C84.8647 145.618 86.6391 145.971 88.8068 145.971V145.571ZM82.0608 141.907C82.0608 140.776 82.6684 139.864 83.8181 139.224C84.9759 138.58 86.6743 138.22 88.8068 138.22V137.82C86.6382 137.82 84.8636 138.185 83.6236 138.874C82.3756 139.569 81.6608 140.6 81.6608 141.907H82.0608ZM88.8068 139.315C87.2287 139.315 85.9361 139.535 85.0302 139.961C84.1197 140.389 83.5698 141.044 83.5698 141.907H83.9698C83.9698 141.252 84.3743 140.711 85.2004 140.323C86.0309 139.932 87.2568 139.715 88.8068 139.715V139.315ZM83.5698 141.907C83.5698 142.76 84.1213 143.409 85.0306 143.833C85.9363 144.256 87.2287 144.476 88.8068 144.476V144.076C87.2568 144.076 86.0307 143.859 85.1999 143.471C84.3727 143.085 83.9698 142.549 83.9698 141.907H83.5698ZM88.8068 144.476C90.3848 144.476 91.6772 144.256 92.5829 143.833C93.4922 143.409 94.0438 142.76 94.0438 141.907H93.6438C93.6438 142.549 93.2408 143.085 92.4136 143.471C91.5828 143.859 90.3567 144.076 88.8068 144.076V144.476ZM94.0438 141.907C94.0438 141.044 93.4938 140.389 92.5834 139.961C91.6774 139.535 90.3848 139.315 88.8068 139.315V139.715C90.3567 139.715 91.5826 139.932 92.4132 140.323C93.2392 140.711 93.6438 141.252 93.6438 141.907H94.0438ZM83.8388 127.295H85.4028V126.895H83.8388V127.295ZM85.2028 127.095V128.774H85.6028V127.095H85.2028ZM85.2028 128.774C85.2028 132.531 82.9089 135.746 79.5368 137.005L79.6767 137.379C83.2046 136.062 85.6028 132.699 85.6028 128.774H85.2028ZM79.7743 137.083L78.7853 135.565L78.4502 135.783L79.4392 137.301L79.7743 137.083ZM78.6864 135.862C81.8348 134.711 84.0388 131.861 84.0388 128.774H83.6388C83.6388 131.667 81.5647 134.383 78.5491 135.486L78.6864 135.862ZM84.0388 128.774V127.095H83.6388V128.774H84.0388ZM84.2068 127.295H85.7478V126.895H84.2068V127.295ZM85.5478 127.095V128.774H85.9478V127.095H85.5478ZM85.5478 128.774C85.5478 131.567 87.6427 134.208 90.7185 135.288L90.851 134.91C87.9008 133.874 85.9478 131.363 85.9478 128.774H85.5478ZM90.616 134.992L89.65 136.51L89.9875 136.724L90.9535 135.206L90.616 134.992ZM89.8866 136.429C86.5823 135.238 84.4068 132.183 84.4068 128.774H84.0068C84.0068 132.357 86.2932 135.558 89.7509 136.805L89.8866 136.429ZM84.4068 128.774V127.095H84.0068V128.774H84.4068ZM79.1928 126.72H90.3018V126.32H79.1928V126.72ZM90.1018 126.52V128.084H90.5018V126.52H90.1018ZM90.3018 127.884H79.1928V128.284H90.3018V127.884ZM79.3928 128.084V126.52H78.9928V128.084H79.3928ZM99.477 141.562V141.362H99.277V141.562H99.477ZM118.314 141.562H118.514V141.362H118.314V141.562ZM118.314 143.149V143.349H118.514V143.149H118.314ZM99.477 143.149H99.277V143.349H99.477V143.149ZM107.895 136.594V136.394H107.695V136.594H107.895ZM109.804 136.594H110.004V136.394H109.804V136.594ZM109.804 142.022V142.222H110.004V142.022H109.804ZM107.895 142.022H107.695V142.222H107.895V142.022ZM101.685 126.474V126.274H101.485V126.474H101.685ZM103.571 126.474H103.771V126.274H103.571V126.474ZM103.571 130.177H103.371V130.377H103.571V130.177ZM114.174 130.177V130.377H114.374V130.177H114.174ZM114.174 126.474V126.274H113.974V126.474H114.174ZM116.06 126.474H116.26V126.274H116.06V126.474ZM116.06 137.1V137.3H116.26V137.1H116.06ZM101.685 137.1H101.485V137.3H101.685V137.1ZM103.571 131.718V131.518H103.371V131.718H103.571ZM103.571 135.536H103.371V135.736H103.571V135.536ZM114.174 135.536V135.736H114.374V135.536H114.174ZM114.174 131.718H114.374V131.518H114.174V131.718ZM99.477 141.762H118.314V141.362H99.477V141.762ZM118.114 141.562V143.149H118.514V141.562H118.114ZM118.314 142.949H99.477V143.349H118.314V142.949ZM99.677 143.149V141.562H99.277V143.149H99.677ZM107.895 136.794H109.804V136.394H107.895V136.794ZM109.604 136.594V142.022H110.004V136.594H109.604ZM109.804 141.822H107.895V142.222H109.804V141.822ZM108.095 142.022V136.594H107.695V142.022H108.095ZM101.685 126.674H103.571V126.274H101.685V126.674ZM103.371 126.474V130.177H103.771V126.474H103.371ZM103.571 130.377H114.174V129.977H103.571V130.377ZM114.374 130.177V126.474H113.974V130.177H114.374ZM114.174 126.674H116.06V126.274H114.174V126.674ZM115.86 126.474V137.1H116.26V126.474H115.86ZM116.06 136.9H101.685V137.3H116.06V136.9ZM101.885 137.1V126.474H101.485V137.1H101.885ZM103.371 131.718V135.536H103.771V131.718H103.371ZM103.571 135.736H114.174V135.336H103.571V135.736ZM114.374 135.536V131.718H113.974V135.536H114.374ZM114.174 131.518H103.571V131.918H114.174V131.518ZM120.382 134.662V134.462H120.182V134.662H120.382ZM139.242 134.662H139.442V134.462H139.242V134.662ZM139.242 136.111V136.311H139.442V136.111H139.242ZM120.382 136.111H120.182V136.311H120.382V136.111ZM122.613 137.79V137.59H122.413V137.79H122.613ZM136.873 137.79H137.073V137.59H136.873V137.79ZM136.873 142.229V142.429H137.073V142.229H136.873ZM124.568 142.229V142.029H124.368V142.229H124.568ZM124.568 144.667V144.867H124.768V144.667H124.568ZM122.682 144.667H122.482V144.867H122.682V144.667ZM122.682 140.918V140.718H122.482V140.918H122.682ZM135.01 140.918V141.118H135.21V140.918H135.01ZM135.01 139.147H135.21V138.947H135.01V139.147ZM122.613 139.147H122.413V139.347H122.613V139.147ZM122.682 144.161V143.961H122.482V144.161H122.682ZM137.54 144.161H137.74V143.961H137.54V144.161ZM137.54 145.541V145.741H137.74V145.541H137.54ZM122.682 145.541H122.482V145.741H122.682V145.541ZM122.774 125.6V125.4H122.574V125.6H122.774ZM136.804 125.6H137.004V125.4H136.804V125.6ZM136.804 129.924V130.124H137.004V129.924H136.804ZM124.706 129.924V129.724H124.506V129.924H124.706ZM124.706 132.178V132.378H124.906V132.178H124.706ZM122.82 132.178H122.62V132.378H122.82V132.178ZM122.82 128.636V128.436H122.62V128.636H122.82ZM134.941 128.636V128.836H135.141V128.636H134.941ZM134.941 126.957H135.141V126.757H134.941V126.957ZM122.774 126.957H122.574V127.157H122.774V126.957ZM122.82 131.718V131.518H122.62V131.718H122.82ZM137.195 131.718H137.395V131.518H137.195V131.718ZM137.195 133.098V133.298H137.395V133.098H137.195ZM122.82 133.098H122.62V133.298H122.82V133.098ZM120.382 134.862H139.242V134.462H120.382V134.862ZM139.042 134.662V136.111H139.442V134.662H139.042ZM139.242 135.911H120.382V136.311H139.242V135.911ZM120.582 136.111V134.662H120.182V136.111H120.582ZM122.613 137.99H136.873V137.59H122.613V137.99ZM136.673 137.79V142.229H137.073V137.79H136.673ZM136.873 142.029H124.568V142.429H136.873V142.029ZM124.368 142.229V144.667H124.768V142.229H124.368ZM124.568 144.467H122.682V144.867H124.568V144.467ZM122.882 144.667V140.918H122.482V144.667H122.882ZM122.682 141.118H135.01V140.718H122.682V141.118ZM135.21 140.918V139.147H134.81V140.918H135.21ZM135.01 138.947H122.613V139.347H135.01V138.947ZM122.813 139.147V137.79H122.413V139.147H122.813ZM122.682 144.361H137.54V143.961H122.682V144.361ZM137.34 144.161V145.541H137.74V144.161H137.34ZM137.54 145.341H122.682V145.741H137.54V145.341ZM122.882 145.541V144.161H122.482V145.541H122.882ZM122.774 125.8H136.804V125.4H122.774V125.8ZM136.604 125.6V129.924H137.004V125.6H136.604ZM136.804 129.724H124.706V130.124H136.804V129.724ZM124.506 129.924V132.178H124.906V129.924H124.506ZM124.706 131.978H122.82V132.378H124.706V131.978ZM123.02 132.178V128.636H122.62V132.178H123.02ZM122.82 128.836H134.941V128.436H122.82V128.836ZM135.141 128.636V126.957H134.741V128.636H135.141ZM134.941 126.757H122.774V127.157H134.941V126.757ZM122.974 126.957V125.6H122.574V126.957H122.974ZM122.82 131.918H137.195V131.518H122.82V131.918ZM136.995 131.718V133.098H137.395V131.718H136.995ZM137.195 132.898H122.82V133.298H137.195V132.898ZM123.02 133.098V131.718H122.62V133.098H123.02ZM162.391 125.002V124.802H162.191V125.002H162.391ZM164.323 125.002H164.523V124.802H164.323V125.002ZM164.323 136.157V136.357H164.523V136.157H164.323ZM162.391 136.157H162.191V136.357H162.391V136.157ZM150.914 137.192V136.992H150.714V137.192H150.914ZM152.8 137.192H153V136.992H152.8V137.192ZM152.8 139.722H152.6V139.922H152.8V139.722ZM162.437 139.722V139.922H162.637V139.722H162.437ZM162.437 137.192V136.992H162.237V137.192H162.437ZM164.323 137.192H164.523V136.992H164.323V137.192ZM164.323 145.518V145.718H164.523V145.518H164.323ZM150.914 145.518H150.714V145.718H150.914V145.518ZM152.8 141.24V141.04H152.6V141.24H152.8ZM152.8 143.977H152.6V144.177H152.8V143.977ZM162.437 143.977V144.177H162.637V143.977H162.437ZM162.437 141.24H162.637V141.04H162.437V141.24ZM162.391 125.202H164.323V124.802H162.391V125.202ZM164.123 125.002V136.157H164.523V125.002H164.123ZM164.323 135.957H162.391V136.357H164.323V135.957ZM162.591 136.157V125.002H162.191V136.157H162.591ZM150.914 137.392H152.8V136.992H150.914V137.392ZM152.6 137.192V139.722H153V137.192H152.6ZM152.8 139.922H162.437V139.522H152.8V139.922ZM162.637 139.722V137.192H162.237V139.722H162.637ZM162.437 137.392H164.323V136.992H162.437V137.392ZM164.123 137.192V145.518H164.523V137.192H164.123ZM164.323 145.318H150.914V145.718H164.323V145.318ZM151.114 145.518V137.192H150.714V145.518H151.114ZM152.6 141.24V143.977H153V141.24H152.6ZM152.8 144.177H162.437V143.777H152.8V144.177ZM162.637 143.977V141.24H162.237V143.977H162.637ZM162.437 141.04H152.8V141.44H162.437V141.04ZM153.168 126.191C154.703 126.191 156.005 126.667 156.92 127.472C157.834 128.276 158.373 129.417 158.373 130.775H158.773C158.773 129.304 158.186 128.053 157.184 127.172C156.185 126.293 154.785 125.791 153.168 125.791V126.191ZM158.373 130.775C158.373 132.145 157.833 133.292 156.92 134.098C156.005 134.906 154.703 135.382 153.168 135.382V135.782C154.785 135.782 156.185 135.28 157.185 134.398C158.186 133.514 158.773 132.257 158.773 130.775H158.373ZM153.168 135.382C151.633 135.382 150.326 134.906 149.404 134.098C148.485 133.291 147.94 132.144 147.94 130.775H147.54C147.54 132.258 148.134 133.515 149.141 134.398C150.146 135.28 151.552 135.782 153.168 135.782V135.382ZM147.94 130.775C147.94 128.081 150.102 126.191 153.168 126.191V125.791C149.933 125.791 147.54 127.811 147.54 130.775H147.94ZM153.168 127.378C151.01 127.378 149.403 128.757 149.403 130.775H149.803C149.803 129.021 151.186 127.778 153.168 127.778V127.378ZM149.403 130.775C149.403 132.793 151.01 134.172 153.168 134.172V133.772C151.186 133.772 149.803 132.529 149.803 130.775H149.403ZM153.168 134.172C155.326 134.172 156.933 132.793 156.933 130.775H156.533C156.533 132.529 155.15 133.772 153.168 133.772V134.172ZM156.933 130.775C156.933 128.757 155.326 127.378 153.168 127.378V127.778C155.15 127.778 156.533 129.021 156.533 130.775H156.933ZM169.059 135.306V135.106H168.859V135.306H169.059ZM179.156 134.8L179.355 134.773L179.327 134.567L179.122 134.603L179.156 134.8ZM179.363 136.341L179.398 136.538L179.587 136.504L179.562 136.314L179.363 136.341ZM169.059 136.87H168.859V137.07H169.059V136.87ZM169.013 126.244V126.044H168.813V126.244H169.013ZM177.983 126.244H178.183V126.044H177.983V126.244ZM177.983 132.155V132.355H178.183V132.155H177.983ZM170.945 132.155V131.955H170.745V132.155H170.945ZM170.945 136.249V136.449H171.145V136.249H170.945ZM169.059 136.249H168.859V136.449H169.059V136.249ZM169.059 130.66V130.46H168.859V130.66H169.059ZM176.097 130.66V130.86H176.297V130.66H176.097ZM176.097 127.808H176.297V127.608H176.097V127.808ZM169.013 127.808H168.813V128.008H169.013V127.808ZM183.388 125.025V124.825H183.188V125.025H183.388ZM185.297 125.025H185.497V124.825H185.297V125.025ZM185.297 137.79V137.99H185.497V137.79H185.297ZM183.388 137.79H183.188V137.99H183.388V137.79ZM179.363 128.084V127.884H179.163V128.084H179.363ZM183.825 128.084H184.025V127.884H183.825V128.084ZM183.825 129.648V129.848H184.025V129.648H183.825ZM179.363 129.648H179.163V129.848H179.363V129.648ZM179.363 132.385V132.185H179.163V132.385H179.363ZM183.825 132.385H184.025V132.185H183.825V132.385ZM183.825 133.949V134.149H184.025V133.949H183.825ZM179.363 133.949H179.163V134.149H179.363V133.949ZM171.382 138.917V138.717H171.182V138.917H171.382ZM185.297 138.917H185.497V138.717H185.297V138.917ZM185.297 145.84V146.04H185.497V145.84H185.297ZM183.388 145.84H183.188V146.04H183.388V145.84ZM183.388 140.481H183.588V140.281H183.388V140.481ZM171.382 140.481H171.182V140.681H171.382V140.481ZM169.059 135.506H170.554V135.106H169.059V135.506ZM170.554 135.506C174.649 135.506 176.688 135.437 179.191 134.997L179.122 134.603C176.656 135.037 174.647 135.106 170.554 135.106V135.506ZM178.958 134.827L179.165 136.368L179.562 136.314L179.355 134.773L178.958 134.827ZM179.328 136.144C176.771 136.601 174.716 136.67 170.554 136.67V137.07C174.718 137.07 176.804 137.001 179.398 136.538L179.328 136.144ZM170.554 136.67H169.059V137.07H170.554V136.67ZM169.259 136.87V135.306H168.859V136.87H169.259ZM169.013 126.444H177.983V126.044H169.013V126.444ZM177.783 126.244V132.155H178.183V126.244H177.783ZM177.983 131.955H170.945V132.355H177.983V131.955ZM170.745 132.155V136.249H171.145V132.155H170.745ZM170.945 136.049H169.059V136.449H170.945V136.049ZM169.259 136.249V130.66H168.859V136.249H169.259ZM169.059 130.86H176.097V130.46H169.059V130.86ZM176.297 130.66V127.808H175.897V130.66H176.297ZM176.097 127.608H169.013V128.008H176.097V127.608ZM169.213 127.808V126.244H168.813V127.808H169.213ZM183.388 125.225H185.297V124.825H183.388V125.225ZM185.097 125.025V137.79H185.497V125.025H185.097ZM185.297 137.59H183.388V137.99H185.297V137.59ZM183.588 137.79V125.025H183.188V137.79H183.588ZM179.363 128.284H183.825V127.884H179.363V128.284ZM183.625 128.084V129.648H184.025V128.084H183.625ZM183.825 129.448H179.363V129.848H183.825V129.448ZM179.563 129.648V128.084H179.163V129.648H179.563ZM179.363 132.585H183.825V132.185H179.363V132.585ZM183.625 132.385V133.949H184.025V132.385H183.625ZM183.825 133.749H179.363V134.149H183.825V133.749ZM179.563 133.949V132.385H179.163V133.949H179.563ZM171.382 139.117H185.297V138.717H171.382V139.117ZM185.097 138.917V145.84H185.497V138.917H185.097ZM185.297 145.64H183.388V146.04H185.297V145.64ZM183.588 145.84V140.481H183.188V145.84H183.588ZM183.388 140.281H171.382V140.681H183.388V140.281ZM171.582 140.481V138.917H171.182V140.481H171.582ZM189.091 128.544V128.344H188.891V128.544H189.091ZM199.395 128.544H199.595V128.344H199.395V128.544ZM199.395 130.108V130.308H199.595V130.108H199.395ZM189.091 130.108H188.891V130.308H189.091V130.108ZM204.892 125.002V124.802H204.692V125.002H204.892ZM206.732 125.002H206.932V124.802H206.732V125.002ZM206.732 145.794V145.994H206.932V145.794H206.732ZM204.892 145.794H204.692V145.994H204.892V145.794ZM201.58 133.742V133.542H201.38V133.742H201.58ZM205.513 133.742H205.713V133.542H205.513V133.742ZM205.513 135.329V135.529H205.713V135.329H205.513ZM201.58 135.329H201.38V135.529H201.58V135.329ZM200.453 125.462V125.262H200.253V125.462H200.453ZM202.247 125.462H202.447V125.262H202.247V125.462ZM202.247 144.782V144.982H202.447V144.782H202.247ZM200.453 144.782H200.253V144.982H200.453V144.782ZM193.323 125.6V125.4H193.123V125.6H193.323ZM195.209 125.6H195.409V125.4H195.209V125.6ZM195.209 129.51V129.71H195.409V129.51H195.209ZM193.323 129.51H193.123V129.71H193.323V129.51ZM189.091 128.744H199.395V128.344H189.091V128.744ZM199.195 128.544V130.108H199.595V128.544H199.195ZM199.395 129.908H189.091V130.308H199.395V129.908ZM189.291 130.108V128.544H188.891V130.108H189.291ZM194.243 131.688C196.721 131.688 198.528 133.543 198.528 136.249H198.928C198.928 133.343 196.962 131.288 194.243 131.288V131.688ZM198.528 136.249C198.528 138.931 196.722 140.787 194.243 140.787V141.187C196.961 141.187 198.928 139.133 198.928 136.249H198.528ZM194.243 140.787C191.787 140.787 189.981 138.932 189.981 136.249H189.581C189.581 139.132 191.546 141.187 194.243 141.187V140.787ZM189.981 136.249C189.981 133.543 191.787 131.688 194.243 131.688V131.288C191.546 131.288 189.581 133.343 189.581 136.249H189.981ZM194.243 132.921C192.522 132.921 191.306 134.323 191.306 136.249H191.706C191.706 134.495 192.789 133.321 194.243 133.321V132.921ZM191.306 136.249C191.306 138.175 192.522 139.577 194.243 139.577V139.177C192.789 139.177 191.706 138.003 191.706 136.249H191.306ZM194.243 139.577C195.983 139.577 197.226 138.178 197.226 136.249H196.826C196.826 138 195.722 139.177 194.243 139.177V139.577ZM197.226 136.249C197.226 134.32 195.983 132.921 194.243 132.921V133.321C195.722 133.321 196.826 134.498 196.826 136.249H197.226ZM204.892 125.202H206.732V124.802H204.892V125.202ZM206.532 125.002V145.794H206.932V125.002H206.532ZM206.732 145.594H204.892V145.994H206.732V145.594ZM205.092 145.794V125.002H204.692V145.794H205.092ZM201.58 133.942H205.513V133.542H201.58V133.942ZM205.313 133.742V135.329H205.713V133.742H205.313ZM205.513 135.129H201.58V135.529H205.513V135.129ZM201.78 135.329V133.742H201.38V135.329H201.78ZM200.453 125.662H202.247V125.262H200.453V125.662ZM202.047 125.462V144.782H202.447V125.462H202.047ZM202.247 144.582H200.453V144.982H202.247V144.582ZM200.653 144.782V125.462H200.253V144.782H200.653ZM193.323 125.8H195.209V125.4H193.323V125.8ZM195.009 125.6V129.51H195.409V125.6H195.009ZM195.209 129.31H193.323V129.71H195.209V129.31ZM193.523 129.51V125.6H193.123V129.51H193.523ZM218.391 127.049V126.849H218.191V127.049H218.391ZM220.047 127.049H220.247V126.849H220.047V127.049ZM211.905 135.099L211.725 135.186L211.79 135.321L211.938 135.296L211.905 135.099ZM211.169 133.581L211.14 133.383L210.869 133.422L210.989 133.668L211.169 133.581ZM218.874 127.049V126.849H218.674V127.049H218.874ZM220.507 127.049H220.707V126.849H220.507V127.049ZM227.729 133.581L227.91 133.666L228.024 133.422L227.758 133.383L227.729 133.581ZM227.016 135.099L226.982 135.296L227.132 135.322L227.197 135.184L227.016 135.099ZM218.46 137.859V137.659H218.26V137.859H218.46ZM220.346 137.859H220.546V137.659H220.346V137.859ZM220.346 145.794V145.994H220.546V145.794H220.346ZM218.46 145.794H218.26V145.994H218.46V145.794ZM210.065 136.847V136.647H209.865V136.847H210.065ZM228.856 136.847H229.056V136.647H228.856V136.847ZM228.856 138.411V138.611H229.056V138.411H228.856ZM210.065 138.411H209.865V138.611H210.065V138.411ZM211.813 126.29V126.09H211.613V126.29H211.813ZM227.039 126.29H227.239V126.09H227.039V126.29ZM227.039 127.831V128.031H227.239V127.831H227.039ZM211.813 127.831H211.613V128.031H211.813V127.831ZM218.391 127.249H220.047V126.849H218.391V127.249ZM219.847 127.049V127.923H220.247V127.049H219.847ZM219.847 127.923C219.847 129.709 218.9 131.273 217.419 132.486C215.937 133.7 213.935 134.55 211.871 134.902L211.938 135.296C214.06 134.935 216.129 134.06 217.672 132.796C219.216 131.531 220.247 129.863 220.247 127.923H219.847ZM212.085 135.012L211.349 133.494L210.989 133.668L211.725 135.186L212.085 135.012ZM211.197 133.779C213.056 133.51 214.894 132.768 216.271 131.74C217.643 130.716 218.591 129.381 218.591 127.923H218.191C218.191 129.202 217.356 130.432 216.031 131.42C214.712 132.404 212.938 133.123 211.14 133.383L211.197 133.779ZM218.591 127.923V127.049H218.191V127.923H218.591ZM218.874 127.249H220.507V126.849H218.874V127.249ZM220.307 127.049V127.923H220.707V127.049H220.307ZM220.307 127.923C220.307 129.382 221.26 130.716 222.636 131.74C224.015 132.768 225.853 133.51 227.7 133.779L227.758 133.383C225.971 133.123 224.197 132.405 222.874 131.42C221.547 130.431 220.707 129.201 220.707 127.923H220.307ZM227.548 133.496L226.835 135.014L227.197 135.184L227.91 133.666L227.548 133.496ZM227.049 134.902C224.973 134.55 222.972 133.7 221.493 132.486C220.016 131.273 219.074 129.71 219.074 127.923H218.674C218.674 129.862 219.698 131.53 221.239 132.795C222.78 134.06 224.849 134.935 226.982 135.296L227.049 134.902ZM219.074 127.923V127.049H218.674V127.923H219.074ZM218.46 138.059H220.346V137.659H218.46V138.059ZM220.146 137.859V145.794H220.546V137.859H220.146ZM220.346 145.594H218.46V145.994H220.346V145.594ZM218.66 145.794V137.859H218.26V145.794H218.66ZM210.065 137.047H228.856V136.647H210.065V137.047ZM228.656 136.847V138.411H229.056V136.847H228.656ZM228.856 138.211H210.065V138.611H228.856V138.211ZM210.265 138.411V136.847H209.865V138.411H210.265ZM211.813 126.49H227.039V126.09H211.813V126.49ZM226.839 126.29V127.831H227.239V126.29H226.839ZM227.039 127.631H211.813V128.031H227.039V127.631ZM212.013 127.831V126.29H211.613V127.831H212.013ZM239.181 132.431V132.231H238.981V132.431H239.181ZM243.16 132.431H243.36V132.231H243.16V132.431ZM243.16 134.018V134.218H243.36V134.018H243.16ZM239.181 134.018H238.981V134.218H239.181V134.018ZM235.294 126.957V126.757H235.094V126.957H235.294ZM236.789 126.957H236.989V126.757H236.789V126.957ZM231.936 141.332L231.782 141.459L231.892 141.593L232.041 141.502L231.936 141.332ZM230.74 139.883L230.638 139.711L230.436 139.83L230.586 140.01L230.74 139.883ZM235.662 126.957V126.757H235.462V126.957H235.662ZM237.134 126.957H237.334V126.757H237.134V126.957ZM241.435 139.377L241.596 139.496L241.726 139.319L241.538 139.206L241.435 139.377ZM240.331 140.872L240.226 141.042L240.383 141.139L240.492 140.991L240.331 140.872ZM246.817 125.002V124.802H246.617V125.002H246.817ZM248.657 125.002H248.857V124.802H248.657V125.002ZM248.657 145.794V145.994H248.857V145.794H248.657ZM246.817 145.794H246.617V145.994H246.817V145.794ZM242.608 125.439V125.239H242.408V125.439H242.608ZM244.402 125.439H244.602V125.239H244.402V125.439ZM244.402 144.759V144.959H244.602V144.759H244.402ZM242.608 144.759H242.408V144.959H242.608V144.759ZM239.181 132.631H243.16V132.231H239.181V132.631ZM242.96 132.431V134.018H243.36V132.431H242.96ZM243.16 133.818H239.181V134.218H243.16V133.818ZM239.381 134.018V132.431H238.981V134.018H239.381ZM235.294 127.157H236.789V126.757H235.294V127.157ZM236.589 126.957V130.913H236.989V126.957H236.589ZM236.589 130.913C236.589 135.217 234.788 139.347 231.831 141.162L232.041 141.502C235.156 139.591 236.989 135.303 236.989 130.913H236.589ZM232.09 141.205L230.894 139.756L230.586 140.01L231.782 141.459L232.09 141.205ZM230.841 140.055C233.77 138.331 235.494 134.529 235.494 130.913H235.094C235.094 134.427 233.414 138.077 230.638 139.711L230.841 140.055ZM235.494 130.913V126.957H235.094V130.913H235.494ZM235.662 127.157H237.134V126.757H235.662V127.157ZM236.934 126.957V130.844H237.334V126.957H236.934ZM236.934 130.844C236.934 134.229 238.519 137.847 241.331 139.548L241.538 139.206C238.876 137.595 237.334 134.129 237.334 130.844H236.934ZM241.274 139.258L240.17 140.753L240.492 140.991L241.596 139.496L241.274 139.258ZM240.436 140.702C237.526 138.911 235.862 134.852 235.862 130.844H235.462C235.462 134.932 237.156 139.153 240.226 141.042L240.436 140.702ZM235.862 130.844V126.957H235.462V130.844H235.862ZM246.817 125.202H248.657V124.802H246.817V125.202ZM248.457 125.002V145.794H248.857V125.002H248.457ZM248.657 145.594H246.817V145.994H248.657V145.594ZM247.017 145.794V125.002H246.617V145.794H247.017ZM242.608 125.639H244.402V125.239H242.608V125.639ZM244.202 125.439V144.759H244.602V125.439H244.202ZM244.402 144.559H242.608V144.959H244.402V144.559ZM242.808 144.759V125.439H242.408V144.759H242.808ZM256.521 135.697V135.497H256.321V135.697H256.521ZM258.407 135.697H258.607V135.497H258.407V135.697ZM258.407 141.93V142.13H258.607V141.93H258.407ZM256.521 141.93H256.321V142.13H256.521V141.93ZM264.203 135.697V135.497H264.003V135.697H264.203ZM266.112 135.697H266.312V135.497H266.112V135.697ZM266.112 141.93V142.13H266.312V141.93H266.112ZM264.203 141.93H264.003V142.13H264.203V141.93ZM251.921 141.562V141.362H251.721V141.562H251.921ZM270.758 141.562H270.958V141.362H270.758V141.562ZM270.758 143.149V143.349H270.958V143.149H270.758ZM251.921 143.149H251.721V143.349H251.921V143.149ZM256.521 135.897H258.407V135.497H256.521V135.897ZM258.207 135.697V141.93H258.607V135.697H258.207ZM258.407 141.73H256.521V142.13H258.407V141.73ZM256.721 141.93V135.697H256.321V141.93H256.721ZM264.203 135.897H266.112V135.497H264.203V135.897ZM265.912 135.697V141.93H266.312V135.697H265.912ZM266.112 141.73H264.203V142.13H266.112V141.73ZM264.403 141.93V135.697H264.003V141.93H264.403ZM251.921 141.762H270.758V141.362H251.921V141.762ZM270.558 141.562V143.149H270.958V141.562H270.558ZM270.758 142.949H251.921V143.349H270.758V142.949ZM252.121 143.149V141.562H251.721V143.149H252.121ZM261.305 126.513C263.473 126.513 265.315 127.03 266.61 127.932C267.9 128.83 268.649 130.112 268.649 131.672H269.049C269.049 129.966 268.223 128.568 266.839 127.604C265.46 126.643 263.531 126.113 261.305 126.113V126.513ZM268.649 131.672C268.649 133.22 267.9 134.496 266.61 135.392C265.316 136.291 263.473 136.808 261.305 136.808V137.208C263.531 137.208 265.46 136.678 266.839 135.72C268.222 134.759 269.049 133.367 269.049 131.672H268.649ZM261.305 136.808C259.126 136.808 257.277 136.291 255.98 135.392C254.687 134.496 253.938 133.22 253.938 131.672H253.538C253.538 133.367 254.365 134.759 255.752 135.72C257.134 136.678 259.068 137.208 261.305 137.208V136.808ZM253.938 131.672C253.938 130.112 254.687 128.831 255.98 127.932C257.277 127.03 259.126 126.513 261.305 126.513V126.113C259.068 126.113 257.133 126.643 255.751 127.604C254.364 128.568 253.538 129.966 253.538 131.672H253.938ZM261.305 127.631C259.61 127.631 258.137 128.016 257.081 128.713C256.02 129.414 255.378 130.432 255.378 131.672H255.778C255.778 130.589 256.332 129.687 257.301 129.047C258.275 128.405 259.665 128.031 261.305 128.031V127.631ZM255.378 131.672C255.378 132.901 256.021 133.914 257.081 134.611C258.137 135.305 259.61 135.69 261.305 135.69V135.29C259.665 135.29 258.275 134.916 257.301 134.276C256.332 133.639 255.778 132.743 255.778 131.672H255.378ZM261.305 135.69C263 135.69 264.468 135.305 265.518 134.61C266.573 133.913 267.209 132.9 267.209 131.672H266.809C266.809 132.744 266.261 133.64 265.297 134.277C264.33 134.916 262.945 135.29 261.305 135.29V135.69ZM267.209 131.672C267.209 130.433 266.574 129.414 265.518 128.714C264.468 128.016 263 127.631 261.305 127.631V128.031C262.945 128.031 264.33 128.405 265.297 129.047C266.26 129.686 266.809 130.588 266.809 131.672H267.209ZM275.467 143.93L275.613 144.067L275.613 144.067L275.467 143.93ZM273.63 143.953L273.773 143.814L273.63 143.953ZM273.606 141.837L273.456 141.706L273.456 141.706L273.606 141.837ZM275.478 141.837L275.33 141.972L275.332 141.974L275.478 141.837ZM275.321 143.793C275.132 143.995 274.877 144.102 274.537 144.102V144.502C274.971 144.502 275.337 144.361 275.613 144.067L275.321 143.793ZM274.537 144.102C274.201 144.102 273.954 144.001 273.773 143.814L273.486 144.092C273.755 144.371 274.113 144.502 274.537 144.502V144.102ZM273.773 143.814C273.598 143.633 273.492 143.343 273.492 142.907H273.092C273.092 143.401 273.212 143.809 273.486 144.092L273.773 143.814ZM273.492 142.907C273.492 142.46 273.592 142.158 273.757 141.969L273.456 141.706C273.202 141.997 273.092 142.409 273.092 142.907H273.492ZM273.757 141.969C273.928 141.774 274.177 141.665 274.537 141.665V141.265C274.09 141.265 273.719 141.405 273.456 141.706L273.757 141.969ZM274.537 141.665C274.896 141.665 275.151 141.774 275.33 141.972L275.627 141.703C275.356 141.405 274.984 141.265 274.537 141.265V141.665ZM275.332 141.974C275.511 142.165 275.616 142.457 275.616 142.884H276.016C276.016 142.396 275.895 141.99 275.624 141.701L275.332 141.974ZM275.616 142.884C275.616 143.299 275.509 143.593 275.321 143.793L275.613 144.067C275.89 143.771 276.016 143.367 276.016 142.884H275.616Z" fill="black" mask="url(#path-1-outside-1_316_54)"/>
<path d="M34.4516 211.402C36.3136 211.402 37.6296 213.124 37.6296 215.812C37.6296 218.514 36.3136 220.236 34.4516 220.236C32.5896 220.236 31.2736 218.514 31.2736 215.812C31.2736 213.124 32.5896 211.402 34.4516 211.402ZM34.4516 212.452C33.2196 212.452 32.3796 213.768 32.3796 215.812C32.3796 217.87 33.2196 219.214 34.4516 219.214C35.6696 219.214 36.5236 217.87 36.5236 215.812C36.5236 213.768 35.6696 212.452 34.4516 212.452ZM39.6456 210.436H40.8216V223.092H39.6456V210.436ZM40.5416 215.49H42.8936V216.47H40.5416V215.49ZM53.0145 210.422H54.1765V223.106H53.0145V210.422ZM47.4985 211.402C49.3745 211.402 50.7185 213.124 50.7185 215.812C50.7185 218.514 49.3745 220.236 47.4985 220.236C45.6365 220.236 44.2925 218.514 44.2925 215.812C44.2925 213.124 45.6365 211.402 47.4985 211.402ZM47.4985 212.452C46.2665 212.452 45.3985 213.768 45.3985 215.812C45.3985 217.87 46.2665 219.214 47.4985 219.214C48.7445 219.214 49.5985 217.87 49.5985 215.812C49.5985 213.768 48.7445 212.452 47.4985 212.452ZM65.7535 210.436H66.9155V223.12H65.7535V210.436ZM57.3815 218.99H58.4035C60.9095 218.99 62.5335 218.906 64.4095 218.556L64.5355 219.536C62.6035 219.9 60.9515 219.97 58.4035 219.97H57.3815V218.99ZM57.3815 211.64H63.3595V212.606H58.5295V219.354H57.3815V211.64Z" fill="black"/>
<path d="M39.9062 311.422H41.0682V324.106H39.9062V311.422ZM31.4362 312.5H32.5842V315.846H36.2382V312.5H37.4002V321.054H31.4362V312.5ZM32.5842 316.77V320.102H36.2382V316.77H32.5842ZM44.1191 312.136H50.0131V317.316H44.1191V312.136ZM48.8931 313.06H45.2391V316.378H48.8931V313.06ZM52.6591 311.436H53.8211V317.946H52.6591V311.436ZM45.6311 318.576H53.8211V321.642H46.7931V323.42H45.6591V320.774H52.6731V319.5H45.6311V318.576ZM45.6591 323.028H54.2551V323.952H45.6591V323.028ZM62.164 315.006H65.804V315.958H62.164V315.006ZM65.44 311.45H66.602V320.816H65.44V311.45ZM58.468 322.86H66.91V323.812H58.468V322.86ZM58.468 319.906H59.63V323.35H58.468V319.906ZM56.816 312.276H57.964V314.516H61.394V312.276H62.528V318.66H56.816V312.276ZM57.964 315.426V317.708H61.394V315.426H57.964ZM69.4989 313.284H79.7749V314.236H69.4989V313.284ZM68.9389 321.656H80.4049V322.622H68.9389V321.656ZM74.0769 319.654H75.2249V322.034H74.0769V319.654ZM74.6369 315.09C77.1989 315.09 78.7809 315.972 78.7809 317.498C78.7809 319.024 77.1989 319.906 74.6369 319.906C72.0889 319.906 70.5069 319.024 70.5069 317.498C70.5069 315.972 72.0889 315.09 74.6369 315.09ZM74.6369 316C72.8029 316 71.6689 316.56 71.6689 317.498C71.6689 318.436 72.8029 318.982 74.6369 318.982C76.4849 318.982 77.6049 318.436 77.6049 317.498C77.6049 316.56 76.4849 316 74.6369 316ZM74.0769 311.646H75.2249V313.872H74.0769V311.646Z" fill="black"/>
<path d="M40.2056 415.422H41.3676V428.106H40.2056V415.422ZM34.6896 416.402C36.5656 416.402 37.9096 418.124 37.9096 420.812C37.9096 423.514 36.5656 425.236 34.6896 425.236C32.8276 425.236 31.4836 423.514 31.4836 420.812C31.4836 418.124 32.8276 416.402 34.6896 416.402ZM34.6896 417.452C33.4576 417.452 32.5896 418.768 32.5896 420.812C32.5896 422.87 33.4576 424.214 34.6896 424.214C35.9356 424.214 36.7896 422.87 36.7896 420.812C36.7896 418.768 35.9356 417.452 34.6896 417.452ZM44.2085 416.892H49.0385V424.704H44.2085V416.892ZM47.9465 417.816H45.3005V423.78H47.9465V417.816ZM53.3925 415.436H54.5125V428.092H53.3925V415.436ZM48.4505 420.196H51.3625V421.162H48.4505V420.196ZM50.8865 415.702H51.9925V427.462H50.8865V415.702ZM60.0415 415.898C61.9315 415.898 63.3175 417.046 63.3175 418.712C63.3175 420.364 61.9315 421.512 60.0415 421.512C58.1655 421.512 56.7795 420.364 56.7795 418.712C56.7795 417.046 58.1655 415.898 60.0415 415.898ZM60.0415 416.85C58.8235 416.85 57.8995 417.62 57.8995 418.712C57.8995 419.804 58.8235 420.56 60.0415 420.56C61.2735 420.56 62.1835 419.804 62.1835 418.712C62.1835 417.62 61.2735 416.85 60.0415 416.85ZM65.6975 415.436H66.8735V421.918H65.6975V415.436ZM58.6835 422.534H66.8735V425.614H59.8455V427.518H58.7115V424.746H65.7255V423.472H58.6835V422.534ZM58.7115 427H67.2935V427.924H58.7115V427Z" fill="black"/>
</svg>
