<svg width="85" height="41" viewBox="0 0 85 41" fill="none" xmlns="http://www.w3.org/2000/svg">
<rect x="0.5" y="0.5" width="84" height="40" rx="20" fill="#FFE898" stroke="#FFE898"/>
<path d="M43.2919 6.62858L43.2923 6.62897L48.1772 11.7336L49.0385 12.6335V11.3879V8.8944C49.0385 8.76441 49.0881 8.6439 49.17 8.55835C49.2512 8.47354 49.3565 8.43017 49.4615 8.43017H51.3077C51.4127 8.43017 51.518 8.47354 51.5992 8.55835C51.6811 8.6439 51.7308 8.76441 51.7308 8.8944V15.2448V15.4456L51.8697 15.5907L54.3689 18.1993C54.369 18.1994 54.3691 18.1996 54.3693 18.1997C54.4095 18.2419 54.4424 18.2931 54.4652 18.3509C54.4881 18.4089 54.5001 18.4718 54.5 18.5358V18.5366V32.0358C54.5 32.1658 54.4504 32.2863 54.3685 32.3718C54.2873 32.4566 54.1819 32.5 54.0769 32.5H45.7692C45.6642 32.5 45.5589 32.4566 45.4777 32.3718C45.3958 32.2863 45.3462 32.1658 45.3462 32.0358V24.322V23.822H44.8462H41.1538H40.6538V24.322V32.0358C40.6538 32.1658 40.6042 32.2863 40.5223 32.3718C40.4411 32.4566 40.3358 32.5 40.2308 32.5H31.9231C31.8181 32.5 31.7127 32.4566 31.6315 32.3718C31.5496 32.2863 31.5 32.1658 31.5 32.0358L31.5 18.5366L31.5 18.5358C31.4999 18.4718 31.5119 18.4089 31.5348 18.3509C31.5576 18.293 31.5906 18.2418 31.6309 18.1995C31.631 18.1995 31.6311 18.1994 31.6312 18.1993L42.7076 6.62904L42.7081 6.62858C42.7484 6.58632 42.7952 6.55401 42.8451 6.53239C42.8949 6.5108 42.9475 6.5 43 6.5C43.0525 6.5 43.1051 6.5108 43.1549 6.53239C43.2048 6.55401 43.2516 6.58632 43.2919 6.62858ZM55 32.0358V18.5366L31 32.0358C31 32.2915 31.0973 32.5368 31.2704 32.7176C31.4435 32.8984 31.6783 33 31.9231 33H40.2308C40.4756 33 40.7104 32.8984 40.8835 32.7176C41.0566 32.5368 41.1538 32.2915 41.1538 32.0358V24.822V24.322H41.6538H44.3462H44.8462V24.822V32.0358C44.8462 32.2915 44.9434 32.5368 45.1165 32.7176C45.2896 32.8984 45.5244 33 45.7692 33H54.0769C54.3217 33 54.5565 32.8984 54.7296 32.7176C54.9027 32.5368 55 32.2915 55 32.0358ZM32.3462 31.0716V31.5716H32.8462H39.3077H39.8077V31.0716V23.3578C39.8077 23.2278 39.8573 23.1073 39.9392 23.0217C40.0204 22.9369 40.1258 22.8935 40.2308 22.8935H45.7692C45.8742 22.8935 45.9796 22.9369 46.0608 23.0217C46.1427 23.1073 46.1923 23.2278 46.1923 23.3578V31.0716V31.5716H46.6923H53.1538H53.6538V31.0716V18.9358V18.7351L53.515 18.5901L43.3612 7.9836L43 7.60632L42.6388 7.9836L32.485 18.5901L32.3462 18.7351V18.9358V31.0716Z" fill="black" stroke="black"/>
</svg>
