<svg width="177" height="128" viewBox="0 0 177 128" fill="none" xmlns="http://www.w3.org/2000/svg">
<path d="M20.9625 97.5318C23.525 102.657 26.2815 107.427 32.1811 108.472C33.972 113.892 35.0049 116.262 42.87 119.008C49.5504 121.341 56.0242 123.051 62.8382 124.755C70.6726 126.713 81.9883 125.579 89.0553 121.81C103.417 114.15 124.464 116.994 140.556 116.279C153.897 115.686 159.243 101.875 167.204 93.3658C171.948 88.2942 168.245 81.228 172.016 76.1989C176.092 70.7648 176.224 63.7118 172.376 58.1701C169.034 53.3579 167.507 46.2774 164.187 42.0089C160.301 37.0116 156.655 32.4212 153.916 26.6377C151.632 21.817 140.255 17.0062 135.6 15.5044C121.84 11.0659 108.674 5.37193 94.0833 2.71905C85.6721 1.18974 76.0423 2.57539 67.507 2.57539C64.031 2.57539 59.9311 1.92277 56.5892 2.8627C41.1088 7.21655 24.4066 18.3976 15.2163 31.5938C10.6383 38.1674 2 46.9792 2 55.5843C2 57.995 3.06716 59.7914 3.2929 62.0488C4.08948 70.0147 7.93471 80.7173 16.0064 82.7353C18.2976 83.308 19.6421 94.8909 20.9625 97.5318Z" fill="#FAE392"/>
<path d="M33.0296 108.593C26.5397 107.872 23.6448 102.896 20.9625 97.5318C19.6421 94.8909 18.2976 83.308 16.0064 82.7353C7.93471 80.7173 4.08948 70.0147 3.2929 62.0488C3.06716 59.7914 2 57.995 2 55.5843C2 46.9792 10.6383 38.1674 15.2163 31.5938C24.4066 18.3976 41.1088 7.21655 56.5892 2.8627C59.9311 1.92277 64.031 2.57539 67.507 2.57539C76.0423 2.57539 85.6721 1.18974 94.0833 2.71905C108.674 5.37193 121.84 11.0659 135.6 15.5044C140.255 17.0062 151.632 21.817 153.916 26.6377C156.655 32.4212 160.301 37.0116 164.187 42.0089C167.507 46.2774 169.034 53.3579 172.376 58.1701C176.224 63.7118 176.092 70.7648 172.016 76.1989C168.245 81.228 171.948 88.2942 167.204 93.3658C159.243 101.875 153.897 115.686 140.556 116.279C124.464 116.994 103.417 114.15 89.0553 121.81C81.9883 125.579 70.6726 126.713 62.8382 124.755C56.0242 123.051 49.5504 121.341 42.87 119.008C32.9086 115.53 33.9068 112.656 30.4438 103.422" stroke="black" stroke-width="3" stroke-linecap="round"/>
<path d="M59.4747 54.5575C65.5706 54.345 68.2833 52.848 72.584 48.8936" stroke="black" stroke-width="3" stroke-linecap="round"/>
<path d="M120.44 52.344C118.221 55.8333 106.515 49.4388 104.141 47.4914" stroke="black" stroke-width="3" stroke-linecap="round"/>
<path d="M103.024 75.1158C101.892 72.0556 99.2816 68.6926 95.7268 68.4564C92.7736 68.2601 91.0714 72.7867 88.8826 71.8683C81.8155 68.903 83.7053 74.1558 78.4331 75.76" stroke="black" stroke-width="3" stroke-linecap="round"/>
</svg>
