<svg width="153" height="36" viewBox="0 0 153 36" fill="none" xmlns="http://www.w3.org/2000/svg">
<path d="M62.9051 19.595C62.9251 19.735 62.8601 19.82 62.7101 19.85C62.3401 19.94 61.8701 20.025 61.3001 20.105C60.7401 20.185 60.1451 20.255 59.5151 20.315C58.8951 20.375 58.2801 20.42 57.6701 20.45C57.0601 20.48 56.5301 20.49 56.0801 20.48C55.6301 20.47 55.3201 20.365 55.1501 20.165C54.9901 19.965 54.9101 19.655 54.9101 19.235V12.785C54.9101 12.365 54.9901 12.085 55.1501 11.945C55.3101 11.805 55.6101 11.735 56.0501 11.735H61.2101C61.3401 11.735 61.4051 11.795 61.4051 11.915V12.455C61.4051 12.575 61.3401 12.635 61.2101 12.635H56.2451C56.1051 12.635 56.0201 12.655 55.9901 12.695C55.9601 12.725 55.9451 12.815 55.9451 12.965V19.16C55.9451 19.31 55.9701 19.41 56.0201 19.46C56.0701 19.51 56.1651 19.54 56.3051 19.55C56.7851 19.57 57.2901 19.57 57.8201 19.55C58.3601 19.52 58.9001 19.48 59.4401 19.43C59.9901 19.37 60.5251 19.305 61.0451 19.235C61.5751 19.155 62.0751 19.07 62.5451 18.98C62.7051 18.95 62.8001 19.005 62.8301 19.145L62.9051 19.595ZM65.0351 24.23C65.0351 24.37 64.9651 24.44 64.8251 24.44H64.2101C64.0701 24.44 64.0001 24.37 64.0001 24.23V10.82C64.0001 10.68 64.0701 10.61 64.2101 10.61H64.8251C64.9651 10.61 65.0351 10.68 65.0351 10.82V16.28H67.1051C67.1651 16.28 67.2151 16.3 67.2551 16.34C67.3051 16.37 67.3301 16.415 67.3301 16.475V16.985C67.3301 17.035 67.3051 17.08 67.2551 17.12C67.2151 17.16 67.1651 17.18 67.1051 17.18H65.0351V24.23ZM73.0815 11.585C73.0815 12.245 73.0515 12.88 72.9915 13.49C72.9415 14.09 72.8565 14.67 72.7365 15.23C72.8365 15.63 72.9915 16.055 73.2015 16.505C73.4115 16.945 73.6565 17.385 73.9365 17.825C74.2265 18.265 74.5465 18.695 74.8965 19.115C75.2565 19.525 75.6365 19.895 76.0365 20.225C76.0865 20.265 76.1115 20.315 76.1115 20.375C76.1215 20.435 76.1115 20.485 76.0815 20.525L75.7065 20.99C75.6165 21.1 75.5115 21.1 75.3915 20.99C75.1115 20.75 74.8215 20.465 74.5215 20.135C74.2315 19.795 73.9465 19.44 73.6665 19.07C73.3965 18.7 73.1415 18.32 72.9015 17.93C72.6615 17.54 72.4565 17.165 72.2865 16.805C71.9665 17.715 71.5465 18.555 71.0265 19.325C70.5065 20.085 69.8865 20.795 69.1665 21.455C69.0665 21.535 68.9815 21.54 68.9115 21.47L68.4615 21.005C68.4315 20.975 68.4165 20.935 68.4165 20.885C68.4265 20.835 68.4565 20.785 68.5065 20.735C69.1165 20.155 69.6465 19.545 70.0965 18.905C70.5465 18.265 70.9115 17.575 71.1915 16.835C71.4815 16.095 71.6915 15.29 71.8215 14.42C71.9615 13.55 72.0315 12.595 72.0315 11.555C72.0315 11.485 72.0465 11.435 72.0765 11.405C72.1165 11.365 72.1615 11.345 72.2115 11.345L72.9165 11.375C73.0265 11.375 73.0815 11.445 73.0815 11.585ZM79.5165 24.23C79.5165 24.37 79.4465 24.44 79.3065 24.44H78.6915C78.5515 24.44 78.4815 24.37 78.4815 24.23V10.82C78.4815 10.68 78.5515 10.61 78.6915 10.61H79.3065C79.4465 10.61 79.5165 10.68 79.5165 10.82V24.23ZM92.982 18.08V21.17H98.877C98.927 21.17 98.977 21.19 99.027 21.23C99.077 21.26 99.102 21.305 99.102 21.365V21.875C99.102 21.925 99.077 21.97 99.027 22.01C98.977 22.05 98.927 22.07 98.877 22.07H86.127C86.067 22.07 86.012 22.05 85.962 22.01C85.922 21.97 85.902 21.925 85.902 21.875V21.365C85.902 21.305 85.922 21.26 85.962 21.23C86.012 21.19 86.067 21.17 86.127 21.17H91.947V18.08H88.962C88.722 18.08 88.527 18.065 88.377 18.035C88.237 18.005 88.127 17.95 88.047 17.87C87.967 17.78 87.912 17.67 87.882 17.54C87.852 17.4 87.837 17.225 87.837 17.015V11.39C87.837 11.34 87.857 11.3 87.897 11.27C87.937 11.23 87.982 11.21 88.032 11.21H88.677C88.727 11.21 88.767 11.23 88.797 11.27C88.837 11.31 88.857 11.35 88.857 11.39V13.775H96.072V11.405C96.072 11.355 96.087 11.31 96.117 11.27C96.157 11.23 96.202 11.21 96.252 11.21H96.897C96.947 11.21 96.992 11.23 97.032 11.27C97.072 11.3 97.092 11.34 97.092 11.39V17.12C97.092 17.5 97.012 17.755 96.8521 17.885C96.692 18.015 96.392 18.08 95.952 18.08H92.982ZM88.857 14.66V16.835C88.857 16.985 88.882 17.085 88.932 17.135C88.982 17.175 89.077 17.195 89.217 17.195H95.712C95.852 17.195 95.947 17.175 95.997 17.135C96.047 17.085 96.072 16.985 96.072 16.835V14.66H88.857ZM111.483 24.23C111.483 24.37 111.413 24.44 111.273 24.44H110.658C110.518 24.44 110.448 24.37 110.448 24.23V10.82C110.448 10.68 110.518 10.61 110.658 10.61H111.273C111.413 10.61 111.483 10.68 111.483 10.82V24.23ZM107.463 12.815C107.413 13.675 107.243 14.52 106.953 15.35C106.663 16.18 106.258 16.975 105.738 17.735C105.228 18.485 104.608 19.185 103.878 19.835C103.158 20.475 102.338 21.04 101.418 21.53C101.288 21.6 101.193 21.585 101.133 21.485L100.803 20.96C100.733 20.84 100.753 20.755 100.863 20.705C101.713 20.265 102.463 19.765 103.113 19.205C103.773 18.635 104.333 18.02 104.793 17.36C105.263 16.7 105.633 16.005 105.903 15.275C106.173 14.545 106.343 13.795 106.413 13.025C106.433 12.875 106.413 12.775 106.353 12.725C106.293 12.665 106.193 12.635 106.053 12.635H101.283C101.163 12.635 101.103 12.57 101.103 12.44V11.915C101.103 11.795 101.163 11.735 101.283 11.735H106.338C106.808 11.735 107.118 11.825 107.268 12.005C107.418 12.175 107.483 12.445 107.463 12.815Z" fill="#706868"/>
<path fill-rule="evenodd" clip-rule="evenodd" d="M118.189 10.1469C118.249 10.1003 118.319 10.0634 118.398 10.0382C118.476 10.013 118.559 10 118.644 10C118.728 10 118.812 10.013 118.89 10.0382C118.968 10.0634 119.039 10.1003 119.099 10.1469L126.811 16.1462C126.871 16.1926 126.919 16.2478 126.951 16.3085C126.983 16.3693 127 16.4344 127 16.5001C127 16.5659 126.983 16.631 126.951 16.6917C126.919 16.7525 126.871 16.8076 126.811 16.8541L119.099 22.8534C118.978 22.9473 118.815 23 118.644 23C118.473 23 118.309 22.9473 118.189 22.8534C118.068 22.7595 118 22.6322 118 22.4994C118 22.3667 118.068 22.2393 118.189 22.1455L125.447 16.5001L118.189 10.8548C118.129 10.8084 118.081 10.7532 118.049 10.6924C118.017 10.6317 118 10.5666 118 10.5008C118 10.4351 118.017 10.37 118.049 10.3092C118.081 10.2485 118.129 10.1933 118.189 10.1469Z" fill="#706868"/>
</svg>
