<svg width="29" height="25" viewBox="0 0 29 25" fill="none" xmlns="http://www.w3.org/2000/svg">
<path d="M14.5 1.69248C12.7147 0.0765584 10.1264 -0.163826 7.77019 0.0841897C5.02606 0.376086 2.25656 1.36624 0.531063 2.19233C0.372739 2.26812 0.23848 2.39027 0.144313 2.54419C0.0501459 2.69811 4.81607e-05 2.87731 0 3.06038L0 24.0464C4.19811e-05 24.206 0.0381298 24.363 0.110775 24.5031C0.18342 24.6432 0.288299 24.7619 0.415807 24.8482C0.543315 24.9346 0.689374 24.9859 0.840607 24.9975C0.99184 25.0091 1.14341 24.9805 1.28144 24.9144C2.88006 24.1513 5.45563 23.2336 7.95144 22.9684C10.5052 22.6975 12.6458 23.1344 13.7931 24.6416C13.878 24.753 13.9856 24.8429 14.108 24.9047C14.2303 24.9665 14.3643 24.9986 14.5 24.9986C14.6357 24.9986 14.7697 24.9665 14.892 24.9047C15.0144 24.8429 15.122 24.753 15.2069 24.6416C16.3542 23.1344 18.4948 22.6975 21.0468 22.9684C23.5444 23.2336 26.1217 24.1513 27.7186 24.9144C27.8566 24.9805 28.0082 25.0091 28.1594 24.9975C28.3106 24.9859 28.4567 24.9346 28.5842 24.8482C28.7117 24.7619 28.8166 24.6432 28.8892 24.5031C28.9619 24.363 29 24.206 29 24.0464V3.06038C29 2.87731 28.9499 2.69811 28.8557 2.54419C28.7615 2.39027 28.6273 2.26812 28.4689 2.19233C26.7434 1.36624 23.9739 0.376086 21.2298 0.0841897C18.8736 -0.165734 16.2853 0.0765584 14.5 1.69248Z" fill="#FFE607"/>
</svg>
