<svg width="27" height="19" viewBox="0 0 27 19" fill="none" xmlns="http://www.w3.org/2000/svg">
<path d="M23.8967 0.491652C24.0642 0.335989 24.2641 0.212326 24.4848 0.127905C24.7054 0.0434837 24.9424 0 25.1817 0C25.421 0 25.6579 0.0434837 25.8786 0.127905C26.0992 0.212326 26.2991 0.335989 26.4667 0.491652C27.1687 1.1377 27.1785 2.18165 26.4912 2.83888L11.9772 18.4647C11.8124 18.6295 11.6124 18.7619 11.3895 18.8539C11.1666 18.9459 10.9254 18.9955 10.6807 18.9997C10.436 19.0039 10.1929 18.9626 9.96635 18.8783C9.73979 18.794 9.5345 18.6684 9.36304 18.5094L0.5314 10.3589C0.190793 10.0426 0 9.6172 0 9.17414C0 8.73109 0.190793 8.3057 0.5314 7.98935C0.698916 7.83369 0.89885 7.71003 1.11949 7.62561C1.34014 7.54119 1.57706 7.4977 1.81638 7.4977C2.05571 7.4977 2.29263 7.54119 2.51327 7.62561C2.73391 7.71003 2.93385 7.83369 3.10136 7.98935L10.5928 14.9036L23.8476 0.540832L23.8967 0.491652Z" fill="#97FA55"/>
</svg>
