<svg width="140" height="88" viewBox="0 0 140 88" fill="none" xmlns="http://www.w3.org/2000/svg">
<path d="M130.5 59.5C130.5 61.9625 128.925 64.3976 125.867 66.6902C122.818 68.9763 118.373 71.0563 112.836 72.812C101.768 76.3214 86.446 78.5 69.5 78.5C52.554 78.5 37.2323 76.3214 26.1641 72.812C20.627 71.0563 16.1825 68.9763 13.1329 66.6902C10.0746 64.3976 8.5 61.9625 8.5 59.5C8.5 57.0375 10.0746 54.6024 13.1329 52.3098C16.1825 50.0237 20.627 47.9437 26.1641 46.188C37.2323 42.6786 52.554 40.5 69.5 40.5C86.446 40.5 101.768 42.6786 112.836 46.188C118.373 47.9437 122.818 50.0237 125.867 52.3098C128.925 54.6024 130.5 57.0375 130.5 59.5Z" fill="url(#paint0_radial_15_139)"/>
<path d="M130.5 59.5C130.5 61.9625 128.925 64.3976 125.867 66.6902C122.818 68.9763 118.373 71.0563 112.836 72.812C101.768 76.3214 86.446 78.5 69.5 78.5C52.554 78.5 37.2323 76.3214 26.1641 72.812C20.627 71.0563 16.1825 68.9763 13.1329 66.6902C10.0746 64.3976 8.5 61.9625 8.5 59.5C8.5 57.0375 10.0746 54.6024 13.1329 52.3098C16.1825 50.0237 20.627 47.9437 26.1641 46.188C37.2323 42.6786 52.554 40.5 69.5 40.5C86.446 40.5 101.768 42.6786 112.836 46.188C118.373 47.9437 122.818 50.0237 125.867 52.3098C128.925 54.6024 130.5 57.0375 130.5 59.5Z" stroke="black" stroke-linejoin="round"/>
<path d="M130.5 59.5C130.5 61.9625 128.925 64.3976 125.867 66.6902C122.818 68.9763 118.373 71.0563 112.836 72.812C101.768 76.3214 86.446 78.5 69.5 78.5C52.554 78.5 37.2323 76.3214 26.1641 72.812C20.627 71.0563 16.1825 68.9763 13.1329 66.6902C10.0746 64.3976 8.5 61.9625 8.5 59.5C8.5 57.0375 10.0746 54.6024 13.1329 52.3098C16.1825 50.0237 20.627 47.9437 26.1641 46.188C37.2323 42.6786 52.554 40.5 69.5 40.5C86.446 40.5 101.768 42.6786 112.836 46.188C118.373 47.9437 122.818 50.0237 125.867 52.3098C128.925 54.6024 130.5 57.0375 130.5 59.5Z" stroke="#FD94D8" stroke-linejoin="round"/>
<path d="M18.0585 59.9919C18.2558 61.9647 22.6965 65.658 24.5347 65.8549C25.8591 65.9968 26.7827 67.1861 28.1368 67.2345C29.5989 67.2867 31.0365 67.9834 32.3521 68.5374C34.5469 69.4615 37.4182 69.3064 39.7097 70.0702C40.9861 70.4957 41.7254 70.9731 43.1586 71.0283C43.8893 71.0564 45.2821 71.2912 45.9944 71.5456C47.4088 72.0508 48.9442 72.7527 50.4587 72.7527C51.8473 72.7527 52.966 72.688 54.2525 73.2509C55.2646 73.6936 56.9658 73.6667 58.0846 73.8065C59.8038 74.0214 61.4183 74.1322 63.1621 74.1322C66.5856 74.1322 69.9858 74.4771 73.5087 74.4771C76.6139 74.4771 79.6468 74.1322 82.7057 74.1322C88.2699 74.1322 93.4083 71.227 98.9154 70.7025C101.599 70.4469 104.35 69.5335 107.039 68.7865C109.36 68.142 111.78 67.51 113.861 66.1998C114.7 65.6711 115.793 65.6199 116.696 65.0885C117.458 64.6403 118.151 63.944 118.919 63.5174C121.1 62.3055 121.222 60.9654 121.85 58.7656C123.122 54.3152 116.823 52.4679 113.937 51.0248" stroke="#F3EEEF" stroke-linecap="round"/>
<path d="M18.8545 55.0227C18.8545 53.5798 22.9868 51.5695 24.3903 51.0855C26.3747 50.4013 28.2261 49.6246 30.3109 49.1613C31.2219 48.9589 32.4189 49.1133 33.2564 48.7469C33.8716 48.4777 34.8765 47.9558 35.4914 47.844C36.8294 47.6007 38.2903 47.0299 39.6359 47.0299" stroke="#F3EEEF" stroke-linecap="round"/>
<rect x="21" y="8" width="99" height="20" rx="10" fill="#F5E19A"/>
<path d="M51.1735 26.41C51.1735 26.41 51.1685 26.41 51.1585 26.41C51.0985 26.43 51.0385 26.44 50.9785 26.44C50.9185 26.44 50.8585 26.415 50.7985 26.365L50.4535 25.93C50.4435 25.91 50.4435 25.88 50.4535 25.84C50.4635 25.81 50.4835 25.79 50.5135 25.78C50.8035 25.72 51.1585 25.61 51.5785 25.45C52.0085 25.3 52.4385 25.1 52.8685 24.85C53.2985 24.6 53.6785 24.315 54.0085 23.995C54.3485 23.675 54.5685 23.32 54.6685 22.93C54.4185 22.94 54.1735 22.95 53.9335 22.96C53.6935 22.97 53.4585 22.98 53.2285 22.99C52.9085 23 52.5885 23.02 52.2685 23.05C51.9485 23.07 51.6285 23.1 51.3085 23.14C51.2085 23.15 51.1435 23.14 51.1135 23.11C51.0835 23.08 51.0535 23.04 51.0235 22.99C51.0135 22.97 51.0085 22.955 51.0085 22.945C50.9385 22.745 50.8785 22.535 50.8285 22.315C50.8185 22.295 50.8235 22.27 50.8435 22.24C50.8635 22.21 50.8985 22.2 50.9485 22.21C51.2285 22.24 51.5785 22.265 51.9985 22.285C52.4285 22.305 52.8835 22.31 53.3635 22.3C53.9635 22.3 54.5935 22.285 55.2535 22.255C55.9135 22.225 56.5535 22.185 57.1735 22.135C57.7935 22.075 58.3335 22.005 58.7935 21.925C58.8235 21.915 58.8585 21.92 58.8985 21.94C58.9385 21.95 58.9635 21.98 58.9735 22.03C58.9935 22.13 59.0135 22.235 59.0335 22.345C59.0535 22.445 59.0685 22.57 59.0785 22.72C59.0985 22.83 59.0385 22.885 58.8985 22.885L57.2035 22.87C56.9635 22.87 56.7185 22.875 56.4685 22.885C56.2285 22.885 55.9835 22.89 55.7335 22.9C55.6635 23.18 55.5335 23.46 55.3435 23.74C55.6535 23.83 55.9935 23.945 56.3635 24.085C56.7435 24.215 57.1185 24.355 57.4885 24.505C57.8685 24.655 58.2135 24.8 58.5235 24.94C58.8335 25.07 59.0685 25.185 59.2285 25.285C59.2785 25.305 59.3285 25.345 59.3785 25.405C59.4285 25.465 59.4285 25.535 59.3785 25.615L58.9435 26.275C58.9135 26.345 58.8635 26.345 58.7935 26.275C58.4835 26.025 58.0935 25.77 57.6235 25.51C57.1635 25.25 56.6935 25.01 56.2135 24.79C55.7335 24.57 55.3035 24.395 54.9235 24.265C54.4635 24.755 53.8885 25.19 53.1985 25.57C52.5185 25.95 51.8435 26.23 51.1735 26.41ZM48.9685 19.435C48.8585 19.445 48.7835 19.435 48.7435 19.405C48.7035 19.375 48.6735 19.33 48.6535 19.27C48.6135 19.16 48.5785 19.05 48.5485 18.94C48.5185 18.83 48.4835 18.69 48.4435 18.52C48.4335 18.5 48.4385 18.475 48.4585 18.445C48.4785 18.405 48.5135 18.39 48.5635 18.4C48.9435 18.45 49.4635 18.49 50.1235 18.52C50.7835 18.54 51.5085 18.545 52.2985 18.535C52.6885 18.535 53.0935 18.535 53.5135 18.535C53.9435 18.525 54.3735 18.515 54.8035 18.505V17.59C54.8035 17.2 54.7885 16.88 54.7585 16.63C54.7285 16.38 54.6935 16.205 54.6535 16.105C54.6135 16.005 54.6485 15.955 54.7585 15.955H55.6585C55.7185 15.955 55.7485 15.995 55.7485 16.075C55.7485 16.085 55.7485 16.095 55.7485 16.105C55.7385 16.325 55.7285 16.54 55.7185 16.75C55.7085 16.95 55.6985 17.195 55.6885 17.485L55.6735 18.475C56.4335 18.455 57.1635 18.43 57.8635 18.4C58.5635 18.36 59.1885 18.32 59.7385 18.28C60.2885 18.23 60.7085 18.18 60.9985 18.13C61.0985 18.11 61.1635 18.115 61.1935 18.145C61.2235 18.175 61.2435 18.215 61.2535 18.265L61.3435 18.925C61.3535 19.065 61.2585 19.13 61.0585 19.12C60.7485 19.1 60.3285 19.09 59.7985 19.09C59.2785 19.09 58.7135 19.095 58.1035 19.105C57.5635 19.105 57.0085 19.115 56.4385 19.135C55.8785 19.145 55.3485 19.155 54.8485 19.165C54.3585 19.175 53.9335 19.185 53.5735 19.195C52.5635 19.225 51.6535 19.26 50.8435 19.3C50.0335 19.34 49.4085 19.385 48.9685 19.435ZM57.6985 17.29C57.6685 17.29 57.6385 17.285 57.6085 17.275C57.5885 17.255 57.5885 17.21 57.6085 17.14C57.6685 16.93 57.7335 16.67 57.8035 16.36C57.8735 16.05 57.9385 15.725 57.9985 15.385C58.0585 15.045 58.1035 14.725 58.1335 14.425C58.1735 14.125 58.1885 13.885 58.1785 13.705C58.1785 13.595 58.1285 13.54 58.0285 13.54C57.9385 13.54 57.7835 13.545 57.5635 13.555C57.3435 13.565 57.0985 13.58 56.8285 13.6C56.5585 13.61 56.2885 13.625 56.0185 13.645C55.7585 13.655 55.5335 13.67 55.3435 13.69C55.2335 13.7 55.1585 13.69 55.1185 13.66C55.0785 13.63 55.0485 13.575 55.0285 13.495L54.8785 12.94C54.8685 12.92 54.8735 12.895 54.8935 12.865C54.9135 12.835 54.9485 12.825 54.9985 12.835C55.3285 12.855 55.6935 12.865 56.0935 12.865C56.5035 12.865 56.8985 12.85 57.2785 12.82C57.6685 12.78 57.9835 12.735 58.2235 12.685C58.3035 12.665 58.3835 12.665 58.4635 12.685L59.2885 12.865C59.3785 12.895 59.4135 12.95 59.3935 13.03C59.3635 13.19 59.3285 13.385 59.2885 13.615C59.2485 13.835 59.2035 14.08 59.1535 14.35C59.0535 14.9 58.9635 15.36 58.8835 15.73C58.8135 16.1 58.7285 16.47 58.6285 16.84C58.5885 17.02 58.5435 17.135 58.4935 17.185C58.4535 17.225 58.4035 17.25 58.3435 17.26L57.6985 17.29ZM52.8385 17.395L52.3585 17.29C52.3285 17.28 52.2985 17.265 52.2685 17.245C52.2385 17.225 52.2385 17.19 52.2685 17.14C52.4185 16.9 52.5735 16.58 52.7335 16.18C52.9035 15.77 53.0485 15.35 53.1685 14.92C53.2985 14.48 53.3735 14.105 53.3935 13.795C53.4035 13.725 53.3985 13.68 53.3785 13.66C53.3685 13.64 53.3235 13.63 53.2435 13.63C52.8435 13.62 52.4135 13.635 51.9535 13.675C51.5035 13.715 51.0435 13.765 50.5735 13.825C50.4735 13.835 50.4085 13.825 50.3785 13.795C50.3485 13.765 50.3185 13.71 50.2885 13.63L50.0935 13.03C50.0835 13.01 50.0885 12.985 50.1085 12.955C50.1285 12.925 50.1635 12.915 50.2135 12.925C50.5335 12.945 50.8985 12.955 51.3085 12.955C51.7185 12.955 52.1135 12.94 52.4935 12.91C52.8735 12.88 53.1735 12.84 53.3935 12.79C53.4735 12.77 53.5535 12.77 53.6335 12.79L54.4585 13.015C54.5585 13.045 54.5985 13.1 54.5785 13.18L54.3085 14.17C54.1485 14.75 53.9935 15.245 53.8435 15.655C53.6935 16.065 53.5135 16.505 53.3035 16.975C53.2035 17.195 53.1135 17.325 53.0335 17.365C52.9635 17.395 52.8985 17.405 52.8385 17.395ZM54.6235 21.31C54.2735 21.29 53.9235 21.255 53.5735 21.205C53.2335 21.145 52.9485 21.05 52.7185 20.92C52.6785 20.9 52.6635 20.845 52.6735 20.755C52.6935 20.655 52.7235 20.565 52.7635 20.485C52.8135 20.395 52.8635 20.36 52.9135 20.38C53.6635 20.49 54.3885 20.535 55.0885 20.515C55.7985 20.495 56.4235 20.46 56.9635 20.41C57.0435 20.4 57.0935 20.4 57.1135 20.41C57.1335 20.42 57.1485 20.445 57.1585 20.485C57.1685 20.525 57.1685 20.6 57.1585 20.71C57.1585 20.81 57.1485 20.905 57.1285 20.995C57.1185 21.085 57.0885 21.14 57.0385 21.16C56.9885 21.18 56.8235 21.205 56.5435 21.235C56.2735 21.265 55.9585 21.29 55.5985 21.31C55.2485 21.32 54.9235 21.32 54.6235 21.31ZM70.7864 25.9C70.7664 25.9 70.7414 25.895 70.7114 25.885C70.6814 25.875 70.6664 25.845 70.6664 25.795C70.6664 25.755 70.6664 25.695 70.6664 25.615C70.6664 25.545 70.6664 25.465 70.6664 25.375C70.6664 25.105 70.6664 24.765 70.6664 24.355C70.6664 23.945 70.6664 23.54 70.6664 23.14C70.6664 22.74 70.6614 22.405 70.6514 22.135C70.6414 21.875 70.6214 21.62 70.5914 21.37C70.5614 21.12 70.5314 20.945 70.5014 20.845C70.4714 20.745 70.5064 20.695 70.6064 20.695L71.5664 20.71C71.6164 20.71 71.6414 20.745 71.6414 20.815C71.6314 21.045 71.6214 21.29 71.6114 21.55C71.6114 21.8 71.6114 22.065 71.6114 22.345C71.7914 22.355 72.0514 22.36 72.3914 22.36C72.7314 22.36 73.1064 22.36 73.5164 22.36C73.9264 22.36 74.3414 22.355 74.7614 22.345C75.1814 22.335 75.5664 22.325 75.9164 22.315C76.2764 22.295 76.5614 22.28 76.7714 22.27V21.85C76.7714 21.51 76.7614 21.25 76.7414 21.07C76.7314 20.88 76.7064 20.74 76.6664 20.65C76.6464 20.6 76.6464 20.565 76.6664 20.545C76.6964 20.515 76.7314 20.5 76.7714 20.5H77.6864C77.7364 20.5 77.7614 20.53 77.7614 20.59C77.7514 20.82 77.7414 21.065 77.7314 21.325C77.7314 21.575 77.7314 21.915 77.7314 22.345V25.645C77.7314 25.775 77.6564 25.84 77.5064 25.84L71.5814 25.855C71.4814 25.855 71.3314 25.86 71.1314 25.87C70.9314 25.89 70.8164 25.9 70.7864 25.9ZM67.4414 20.11L67.0664 19.78C67.0264 19.74 67.0464 19.69 67.1264 19.63C67.8664 19.15 68.5014 18.61 69.0314 18.01C69.5614 17.4 69.9714 16.775 70.2614 16.135C70.5614 15.495 70.7214 14.89 70.7414 14.32C70.6014 14.33 70.4514 14.34 70.2914 14.35C70.1314 14.36 69.9514 14.375 69.7514 14.395C69.4514 14.415 69.1914 14.435 68.9714 14.455C68.7614 14.475 68.5214 14.505 68.2514 14.545C68.1514 14.555 68.0864 14.545 68.0564 14.515C68.0264 14.475 68.0014 14.43 67.9814 14.38C67.9714 14.37 67.9664 14.36 67.9664 14.35C67.9364 14.27 67.9064 14.18 67.8764 14.08C67.8564 13.98 67.8314 13.865 67.8014 13.735C67.7914 13.715 67.7964 13.69 67.8164 13.66C67.8364 13.63 67.8714 13.615 67.9214 13.615C68.1614 13.625 68.4264 13.64 68.7164 13.66C69.0064 13.67 69.2964 13.67 69.5864 13.66C70.0264 13.64 70.4714 13.625 70.9214 13.615C71.3814 13.595 71.8414 13.565 72.3014 13.525C72.6714 13.505 73.0214 13.475 73.3514 13.435C73.6814 13.395 73.9764 13.35 74.2364 13.3C74.2664 13.29 74.3014 13.295 74.3414 13.315C74.3814 13.325 74.4064 13.355 74.4164 13.405C74.4364 13.475 74.4564 13.58 74.4764 13.72C74.4964 13.85 74.5114 13.975 74.5214 14.095C74.5214 14.205 74.4614 14.26 74.3414 14.26C74.2414 14.26 74.1414 14.26 74.0414 14.26C73.9414 14.26 73.8364 14.26 73.7264 14.26C73.5164 14.26 73.3014 14.26 73.0814 14.26C72.8614 14.25 72.6314 14.25 72.3914 14.26C72.2914 14.26 72.1914 14.265 72.0914 14.275C72.0014 14.275 71.9114 14.275 71.8214 14.275C71.7814 14.535 71.7114 14.835 71.6114 15.175C71.5214 15.515 71.3814 15.875 71.1914 16.255C71.5914 16.545 72.0014 16.865 72.4214 17.215C72.8514 17.565 73.2414 17.89 73.5914 18.19C73.9414 18.48 74.1864 18.7 74.3264 18.85C74.3764 18.89 74.4114 18.94 74.4314 19C74.4514 19.06 74.4364 19.125 74.3864 19.195C74.3664 19.225 74.3164 19.28 74.2364 19.36C74.1564 19.44 74.0764 19.52 73.9964 19.6C73.9164 19.67 73.8564 19.72 73.8164 19.75C73.7364 19.8 73.6714 19.795 73.6214 19.735C73.4314 19.465 73.1764 19.15 72.8564 18.79C72.5364 18.43 72.2014 18.075 71.8514 17.725C71.5014 17.375 71.1714 17.085 70.8614 16.855C70.5514 17.385 70.1664 17.925 69.7064 18.475C69.2464 19.025 68.6464 19.565 67.9064 20.095C67.9064 20.095 67.9014 20.1 67.8914 20.11C67.8314 20.14 67.7614 20.17 67.6814 20.2C67.6114 20.22 67.5314 20.19 67.4414 20.11ZM71.6114 25C71.7114 25.01 71.9314 25.015 72.2714 25.015C72.6214 25.025 73.0264 25.03 73.4864 25.03C73.9564 25.03 74.4214 25.025 74.8814 25.015C75.3414 25.015 75.7464 25.01 76.0964 25C76.4464 24.99 76.6714 24.98 76.7714 24.97V23.095C76.5014 23.095 76.1464 23.095 75.7064 23.095C75.2664 23.095 74.7914 23.1 74.2814 23.11C73.7814 23.11 73.2914 23.115 72.8114 23.125C72.3414 23.125 71.9414 23.13 71.6114 23.14V25ZM76.8164 19.675C76.7764 19.675 76.7564 19.65 76.7564 19.6V16.75C76.5764 16.76 76.4014 16.77 76.2314 16.78C76.0614 16.79 75.9014 16.8 75.7514 16.81C75.5114 16.82 75.2364 16.845 74.9264 16.885C74.6164 16.915 74.3414 16.945 74.1014 16.975C73.9914 16.995 73.9164 16.99 73.8764 16.96C73.8364 16.93 73.8064 16.885 73.7864 16.825C73.7464 16.695 73.7114 16.575 73.6814 16.465C73.6614 16.345 73.6414 16.235 73.6214 16.135C73.6214 16.055 73.6614 16.025 73.7414 16.045C73.9014 16.065 74.1514 16.08 74.4914 16.09C74.8414 16.09 75.2214 16.085 75.6314 16.075C76.0414 16.055 76.4164 16.035 76.7564 16.015V14.23C76.7564 13.85 76.7414 13.5 76.7114 13.18C76.6914 12.86 76.6564 12.65 76.6064 12.55C76.5864 12.5 76.5864 12.465 76.6064 12.445C76.6364 12.415 76.6714 12.4 76.7114 12.4C76.8014 12.4 76.9414 12.4 77.1314 12.4C77.3314 12.4 77.5164 12.405 77.6864 12.415C77.7364 12.415 77.7614 12.455 77.7614 12.535C77.7314 12.905 77.7114 13.23 77.7014 13.51C77.7014 13.78 77.7014 14.095 77.7014 14.455V19.3C77.7014 19.45 77.6914 19.54 77.6714 19.57C77.6614 19.6 77.6314 19.62 77.5814 19.63L76.8164 19.675ZM80.0697 21.52L79.6647 21.175C79.6247 21.135 79.6397 21.09 79.7097 21.04C79.7197 21.03 79.7247 21.025 79.7247 21.025C80.4147 20.515 81.0447 19.945 81.6147 19.315C82.1847 18.675 82.6697 18.015 83.0697 17.335C83.4797 16.655 83.7747 15.995 83.9547 15.355C84.0347 15.065 84.1097 14.74 84.1797 14.38C84.2497 14.02 84.2847 13.745 84.2847 13.555C84.2847 13.495 84.2997 13.455 84.3297 13.435C84.3597 13.405 84.3897 13.4 84.4197 13.42L85.4547 13.675C85.5047 13.685 85.5247 13.74 85.5147 13.84C85.4747 13.98 85.4147 14.165 85.3347 14.395C85.2547 14.625 85.1747 14.86 85.0947 15.1C85.0147 15.33 84.9447 15.53 84.8847 15.7C84.8047 15.9 84.7147 16.115 84.6147 16.345C84.5147 16.565 84.4047 16.795 84.2847 17.035C84.7647 17.395 85.2597 17.78 85.7697 18.19C86.2797 18.6 86.7447 18.985 87.1647 19.345C87.5847 19.705 87.8997 20 88.1097 20.23C88.1497 20.28 88.1797 20.34 88.1997 20.41C88.2297 20.47 88.2197 20.535 88.1697 20.605C88.0797 20.715 87.9797 20.815 87.8697 20.905C87.7697 20.995 87.6647 21.085 87.5547 21.175C87.4947 21.225 87.4447 21.215 87.4047 21.145C87.2447 20.905 87.0297 20.63 86.7597 20.32C86.4897 20.01 86.1897 19.69 85.8597 19.36C85.5397 19.03 85.2097 18.715 84.8697 18.415C84.5397 18.115 84.2297 17.855 83.9397 17.635C83.5697 18.255 83.1047 18.9 82.5447 19.57C81.9947 20.23 81.3247 20.875 80.5347 21.505C80.4847 21.545 80.4147 21.58 80.3247 21.61C80.2447 21.64 80.1597 21.61 80.0697 21.52ZM89.6397 25.15C89.5997 25.15 89.5797 25.125 89.5797 25.075V14.245C89.5797 13.865 89.5647 13.515 89.5347 13.195C89.5147 12.865 89.4797 12.65 89.4297 12.55C89.4097 12.5 89.4097 12.465 89.4297 12.445C89.4597 12.415 89.4947 12.4 89.5347 12.4C89.5947 12.4 89.6947 12.405 89.8347 12.415C89.9847 12.415 90.1297 12.42 90.2697 12.43C90.4097 12.43 90.4897 12.43 90.5097 12.43C90.5597 12.43 90.5847 12.47 90.5847 12.55C90.5547 12.92 90.5347 13.245 90.5247 13.525C90.5247 13.795 90.5247 14.11 90.5247 14.47V24.775C90.5247 24.925 90.5147 25.015 90.4947 25.045C90.4847 25.075 90.4547 25.095 90.4047 25.105L89.6397 25.15Z" fill="black"/>
<g clip-path="url(#clip0_15_139)">
<path d="M13.6939 66.2827C13.1325 66.1891 12.5918 65.5734 12.0453 65.3305C11.7828 65.2138 11.4326 64.2666 11.2431 64.0081C10.1684 62.5427 9.55133 60.9094 8.53652 59.3708C7.08251 57.1664 6.21132 54.384 6.08565 51.7449C6.0283 50.5407 6.05115 48.7331 7.27582 48.0333C7.98837 47.6262 9.24643 47.8746 10.0088 47.8746C10.9513 47.8746 12.1177 47.8049 12.9887 48.192C13.5174 48.427 14.118 48.3952 14.6461 48.6328C15.0761 48.8263 15.4311 49.1121 15.8803 49.2676C16.5323 49.4933 17.1987 50.1031 17.8199 50.4137" stroke="#FE4AA0" stroke-width="2" stroke-linecap="round"/>
<path d="M17.8199 51.5246C18.6719 49.9152 19.333 48.1687 20.2885 46.6052C20.8797 45.6377 21.3753 44.6034 21.9106 43.5901C22.231 42.9836 23.1594 41.5718 24.0089 41.5271C24.9679 41.4766 25.7751 41.051 26.7595 41.051C27.5163 41.051 28.407 40.9234 29.1575 41.0598C29.8022 41.1771 30.5216 41.6454 31.1235 41.9062C31.964 42.2704 32.5611 42.7089 33.301 43.2374C33.9223 43.6812 34.7399 44.4694 35.4345 44.7009" stroke="#FE4AA0" stroke-width="2" stroke-linecap="round"/>
<path d="M36.0693 44.3835C36.5341 44.3319 37.2542 43.4603 37.33 43.0435C37.4873 42.1787 38.6292 41.3108 39.296 40.8218C40.751 39.7548 42.5428 37.9706 44.4887 37.7273C47.0257 37.4102 49.2168 37.7662 51.4094 39.1467C52.8278 40.0398 54.176 41.075 55.1121 42.4792" stroke="#FE4AA0" stroke-width="2" stroke-linecap="round"/>
<path d="M10.9652 54.8142C10.9652 55.4869 10.8658 56.0965 10.6065 56.723C10.4059 57.2075 10.1784 57.6829 9.95667 58.158C9.88879 58.3035 9.78452 58.5679 9.84837 58.1919C10.0412 57.0566 10.3776 55.943 10.6606 54.8277C10.7033 54.6596 10.8354 54.167 10.8434 54.3404C10.8605 54.7112 10.8292 55.0812 10.7486 55.4437C10.4786 56.6589 10.0703 57.7699 9.91606 59.0042C9.88165 59.2795 9.79274 59.537 9.69945 59.7961C9.60911 60.0471 9.72241 59.263 9.74684 58.9974C9.88395 57.5063 9.67924 55.9376 9.02933 54.5773C8.77662 54.0483 8.56433 53.4898 8.36597 52.9392C8.08897 52.1702 7.77189 51.3516 7.68908 50.5362C7.66137 50.2633 7.67554 49.9843 7.67554 49.7104C7.67554 49.6846 7.67126 49.508 7.68908 49.6292C7.74778 50.0284 7.79408 50.4287 7.8583 50.8273C7.96675 51.5003 8.07709 52.1748 8.16291 52.8512C8.23276 53.4018 8.24092 53.93 8.37951 54.469C8.67466 55.6168 8.613 56.8358 8.73827 58.0024C8.74519 58.0668 8.90107 59.0699 8.80595 58.6657C8.53899 57.5311 8.0644 56.4637 7.87184 55.3083C7.65146 53.9861 7.26507 52.636 7.2491 51.2943C7.24568 51.0074 6.87409 49.6179 7.2491 49.4193C7.51149 49.2804 8.13001 49.385 8.39982 49.3923C8.88909 49.4055 9.47012 49.5472 9.9296 49.7104C10.0433 49.7508 10.3515 49.8554 10.417 49.9676C10.5923 50.2682 10.8286 50.5531 10.8569 50.9085C10.9245 51.7565 10.9043 52.6106 10.9043 53.4604C10.9043 53.7592 10.9774 54.1564 10.9043 54.4487C10.8589 54.6304 10.7043 54.1317 10.6133 53.9681C10.2765 53.363 9.94747 52.7569 9.65884 52.1269C9.39255 51.5457 8.97093 50.8509 8.84657 50.2113C8.81934 50.0713 9.32905 50.1168 9.41516 50.0962C10.2531 49.8961 10.8089 49.0369 11.7234 49.1012C12.55 49.1593 13.1493 49.3047 13.8759 49.6495C14.1668 49.7875 14.4005 49.976 14.7152 50.0962C14.9533 50.1872 15.2395 50.2959 15.4869 50.3535C16.2259 50.5253 15.7569 51.207 15.2838 51.45C14.2981 51.9564 13.2641 52.3561 12.2784 52.8647C11.6962 53.1651 11.1437 53.4918 10.6403 53.9139C10.6369 53.9168 10.2573 54.3584 10.2004 54.1847C10.1004 53.8794 10.1684 53.4427 10.1733 53.1287C10.18 52.6993 10.2491 52.3185 10.3831 51.9103C10.5486 51.4062 10.6893 50.8985 10.9517 50.4347C11.1146 50.1467 11.2214 50.1524 11.4052 50.4347C11.919 51.224 12.691 52.1387 12.8267 53.0949C12.9068 53.6591 12.9122 54.2958 12.6575 54.8142C12.6537 54.8219 12.4335 55.2673 12.38 55.2271C12.3147 55.1782 12.365 54.6997 12.3664 54.6517C12.3967 53.6105 12.725 52.5414 13.1448 51.5922C13.2113 51.442 13.3133 51.1563 13.4765 51.0845C13.7002 50.9861 13.933 50.8034 14.1263 51.0574C14.5084 51.5593 14.9053 52.0917 14.5325 52.682C14.3917 52.9049 14.2797 53.309 14.0722 52.973C13.6975 52.3664 13.2212 51.8202 12.8605 51.2063C12.8136 51.1265 12.0375 49.4835 12.7184 49.7104C12.8087 49.7405 12.8924 49.9004 12.9485 49.9609C13.1698 50.199 13.4166 50.4069 13.6796 50.5971C14.0114 50.8372 14.3471 51.0184 14.7152 51.1928C15.2442 51.4434 15.824 51.5665 16.3872 51.7072" stroke="#FF3D95" stroke-width="2" stroke-linecap="round"/>
<path d="M9.13757 58.8959C9.27178 58.9126 9.57948 59.4344 9.6554 59.5694C9.75362 59.744 9.78056 59.9529 9.89908 60.1109C10.1509 60.4466 10.2305 60.8853 10.444 61.2244C10.9673 62.0555 11.4531 62.8572 11.7572 63.7695" stroke="#FF3D95" stroke-width="2" stroke-linecap="round"/>
<path d="M19.9205 49.9406C19.9205 49.3713 20.2314 48.6105 20.462 48.0724C20.7675 47.3596 21.1573 46.5615 21.6128 45.9334C22.0009 45.398 22.2478 44.7574 22.6281 44.2141C23.0528 43.6073 23.8208 43.2172 24.4422 42.8603C24.9898 42.5457 25.6798 42.3875 26.3036 42.3391C27.0019 42.2849 27.7153 42.3255 28.4155 42.3255C28.9809 42.3255 29.5239 42.3247 30.0807 42.4338C31.1962 42.6526 32.1886 43.126 33.191 43.6658C33.3474 43.75 33.9724 44.2537 33.895 44.4239C33.7408 44.7631 32.9772 44.7722 32.6834 44.8233C32.2756 44.8942 31.96 45.006 31.5326 45.006C31.2993 45.006 31.0296 45.1173 30.7948 45.1617C30.5957 45.1994 30.3399 45.2234 30.1552 45.3106C29.7061 45.5227 29.1721 45.607 28.6931 45.7236C28.4134 45.7916 28.1291 45.8479 27.8537 45.9334C27.7183 45.9754 27.5231 45.9496 27.4137 46.0417C26.9839 46.4037 26.1802 46.3711 25.6606 46.4817C25.1831 46.5833 24.7226 46.8211 24.2831 47.0164C23.9386 47.1695 23.5582 47.3636 23.2102 47.5376C22.9493 47.6681 21.9506 47.796 21.8734 48.1434C21.8443 48.2741 21.6129 48.5811 21.6297 48.2788C21.6615 47.7062 22.0146 47.311 22.3777 46.9013C23.0285 46.167 23.7712 45.6448 24.6723 45.2193C25.2911 44.9271 25.6716 44.3475 26.3443 44.1329C27.3932 43.7981 28.502 43.7622 29.5933 43.7301C30.034 43.7171 30.4758 43.7267 30.9167 43.7267C31.0715 43.7267 31.0285 43.9943 30.9471 44.0685C30.681 44.3115 30.2498 44.4291 29.9115 44.5187C29.1817 44.712 28.434 44.8416 27.6913 44.9722C26.9404 45.1043 26.1853 45.2438 25.4237 45.2971C25.2699 45.3079 24.971 45.2481 24.8551 45.3851C24.486 45.8213 23.883 46.1237 23.4539 46.5087C23.1554 46.7766 22.8345 47.1642 22.4927 47.3684C22.1862 47.5515 21.4676 47.9245 21.4435 48.3567C21.4277 48.6419 21.0257 48.9975 21.166 48.3973C21.2448 48.0604 21.4927 47.7436 21.6534 47.4429C21.9745 46.8417 22.5011 46.3442 22.9666 45.8555C23.5052 45.29 24.0707 44.7512 24.608 44.187C24.7147 44.075 24.8369 43.9813 24.9498 43.8756C25.0509 43.7811 24.8076 44.1548 24.7908 44.1836C24.1151 45.3378 23.1356 46.4141 22.1949 47.3549C22.0289 47.5208 21.8319 47.6587 21.7211 47.8693C21.6653 47.9752 21.6366 48.1077 21.562 48.201C21.475 48.3097 21.3479 48.4368 21.3183 48.5699C21.3018 48.6444 21.0848 48.9466 21.0848 48.7391C21.0848 47.9213 22.0063 47.21 22.5401 46.7118" stroke="#FF3D95" stroke-width="2" stroke-linecap="round"/>
<path d="M34.7242 45.006C35.4613 45.006 36.2553 44.7023 36.9783 44.5322C37.3365 44.4479 37.6556 44.3026 37.9835 44.126C38.5192 43.8376 39.1397 43.6235 39.6994 43.3747C40.623 42.9642 41.599 42.5586 42.5762 42.2883C43.0781 42.1495 43.5395 41.9348 44.0518 41.8381C44.8424 41.689 45.6329 41.57 46.4277 41.4388C46.9111 41.359 47.3877 41.3781 47.8729 41.344C48.5008 41.3 49.1218 41.1362 49.7513 41.1105C50.7903 41.0681 51.8333 41.168 52.8548 41.168C52.9067 41.168 53.352 41.1642 53.2644 41.2289C53.0741 41.3696 52.8232 41.3596 52.6078 41.4388C51.6994 41.7729 50.7336 41.6874 49.819 41.9295C49.211 42.0905 48.4126 42.0625 47.7747 42.0818C47.058 42.1036 46.3174 42.1512 45.6087 42.2646C45.0224 42.3584 44.4267 42.3792 43.842 42.5083C43.1695 42.6567 42.4173 42.5692 41.7335 42.5692C40.8434 42.5692 39.944 42.6301 39.0631 42.6301C38.5767 42.6301 38.9535 42.1779 39.1511 41.9803C39.7937 41.3377 40.6011 40.9108 41.2427 40.2881C41.5921 39.949 42.1483 39.664 42.5796 39.4386C42.9672 39.236 43.3357 39.1234 43.7472 38.9749C44.0766 38.856 44.4726 38.6752 44.8303 38.6703C46.0132 38.6541 47.1975 38.6703 48.3806 38.6703C48.9836 38.6703 49.5356 38.6887 50.0762 38.9749C50.2495 39.0667 50.4001 39.1001 50.5872 39.1577C50.9964 39.2835 49.9117 39.5681 49.8663 39.5773C48.5646 39.8414 47.1912 39.7749 45.893 40.0376C44.8151 40.2557 43.8139 40.6157 42.786 40.9785C42.6812 41.0155 42.3014 41.1071 42.583 41.1071C42.9888 41.1071 43.3821 41.0167 43.7811 40.9514C45.9032 40.6042 48.039 40.1324 50.198 40.1324C50.6346 40.1324 51.0712 40.1324 51.5078 40.1324C52.9127 40.1324 48.6831 40.1378 47.3009 40.3896C46.0311 40.621 44.7483 40.9753 43.4629 41.1071C43.0379 41.1507 42.6227 41.2792 42.1971 41.3372C41.9402 41.3723 41.7322 41.3743 41.4864 41.4726" stroke="#FF3D95" stroke-width="2" stroke-linecap="round"/>
<path d="M57.2648 41.3508C57.6691 41.2834 58.1045 40.6823 58.4223 40.4234C58.7285 40.1739 59.0067 39.8733 59.3022 39.6315C59.5165 39.4562 59.7042 39.2545 59.9453 39.1306C60.2433 38.9773 60.6813 38.6983 61.008 38.6703C61.3842 38.638 61.8932 38.4105 62.2264 38.2438C62.5233 38.0954 62.824 37.9214 63.0996 37.7362C63.397 37.5363 63.7799 37.4656 64.1082 37.33C64.4621 37.1839 64.8077 37.0254 65.198 37.0254C65.8003 37.0254 66.4084 37.0003 67.0086 37.0559C67.4518 37.0969 68.0096 37.0364 68.4335 37.1777C68.6606 37.2534 68.9121 37.1821 69.1476 37.2116C69.4381 37.2479 69.797 37.5076 70.0581 37.6346C71.0602 38.1222 72.2254 38.8034 72.8942 39.7398C72.9654 39.8394 73.4791 40.3762 73.4628 40.3794C73.1349 40.445 72.8255 40.437 72.4847 40.437C71.2381 40.437 69.9915 40.437 68.7449 40.437C67.4335 40.437 66.1081 40.3769 64.802 40.5013C63.7555 40.6009 62.7111 40.7621 61.6646 40.877C61.3785 40.9084 61.108 40.9853 60.8185 40.9853C60.647 40.9853 60.4528 40.959 60.2837 40.9988C60.1119 41.0392 59.9265 41.1003 59.749 41.1003C59.6537 41.1003 60.1414 40.7221 60.1957 40.6874C60.9906 40.1796 61.9657 39.7754 62.8627 39.4893C63.5579 39.2676 64.2209 38.9817 64.9306 38.8226C65.894 38.6066 66.8262 38.5484 67.8142 38.5484C68.1159 38.5484 68.5481 38.4748 68.8396 38.5789C69.1772 38.6995 69.5691 38.6416 69.899 38.8192C70.1851 38.9733 70.5427 39.0552 70.85 39.1577" stroke="#FF3D95" stroke-width="2" stroke-linecap="round"/>
<path d="M7.62976 61.7546C7.62976 62.1298 8.11897 62.4937 8.30967 62.8116C8.51 63.1455 8.79947 63.3678 8.96795 63.7048C9.06316 63.8952 9.25245 64.0736 9.37899 64.2363C9.48148 64.3681 9.55396 64.6541 9.68804 64.7463C9.81299 64.8322 9.82007 64.9772 9.92292 65.08C10.047 65.2041 10.2162 65.3534 10.3031 65.5127C10.411 65.7106 10.6579 65.87 10.745 66.0659C10.8191 66.2326 11.1433 66.3614 11.1869 66.514C11.2203 66.6309 11.4407 66.8121 11.5485 66.9003C11.7141 67.0358 11.8774 67.22 12.0307 67.3732C12.7845 68.1271 13.6281 68.5644 14.5834 69.0421" stroke="#F3D054" stroke-linecap="round"/>
<path d="M9.57678 64.2579C9.59945 64.5073 9.94662 64.8908 10.1609 65.0337C10.3606 65.1668 10.4943 65.3656 10.6863 65.5096C10.8117 65.6037 10.9125 65.8344 11.0231 65.9515C11.2563 66.1984 11.4249 66.4942 11.7031 66.7056C12.0896 66.9994 12.4537 67.5226 12.9145 67.707C13.2321 67.834 13.5329 68.0607 13.8355 68.22C14.0328 68.3238 14.4281 68.4533 14.5278 68.6526" stroke="#F3D054" stroke-linecap="round"/>
<path d="M10.1331 65.0367C10.4422 65.2483 10.5646 65.6742 10.8562 65.9144C11.0325 66.0596 11.1836 66.2229 11.3538 66.3718C11.5635 66.5553 11.8342 66.6969 12.0739 66.8385C12.2277 66.9294 12.4679 67.0512 12.5931 67.163C12.719 67.2754 12.8747 67.2971 12.9702 67.4164C13.0648 67.5347 13.3534 67.698 13.4986 67.7626C13.7717 67.8839 14.0719 68.1077 14.3053 68.2632" stroke="#F3D054" stroke-linecap="round"/>
<path d="M6.54224 48.0111C6.81511 47.9838 7.00952 47.7077 7.23207 47.584C7.48285 47.4447 7.78414 47.4376 8.0533 47.303C8.31873 47.1703 8.68509 47.1971 8.97672 47.1241C9.37295 47.0251 9.72413 47.0256 10.152 47.0256C11.0916 47.0256 11.9963 46.9981 12.915 47.2081C13.1756 47.2677 13.4374 47.2847 13.7034 47.3541C13.9116 47.4084 14.2733 47.422 14.4589 47.522C14.8932 47.7558 15.3872 47.875 15.8349 48.0914C15.9762 48.1597 16.1653 48.2067 16.2875 48.3067C16.3761 48.3792 16.3661 48.4525 16.4955 48.5002C16.7375 48.5893 17.1775 48.7129 17.3314 48.9308C17.361 48.9728 17.7516 49.1895 17.7621 49.179C17.8123 49.1287 17.4116 48.8208 17.3423 48.7995C17.1528 48.7412 16.8614 48.6052 16.6963 48.5002C16.5144 48.3844 16.3315 48.3164 16.1488 48.2082C15.9634 48.0983 15.8638 47.9867 15.6415 47.9125C15.3206 47.8056 14.9598 47.6036 14.645 47.5366C14.3008 47.4633 13.9053 47.4456 13.5574 47.4198C13.2578 47.3976 12.9675 47.3021 12.6631 47.2847C12.0415 47.2492 11.4399 47.2227 10.8163 47.2227C10.2286 47.2227 9.64101 47.2227 9.05337 47.2227C8.68854 47.2227 8.31736 47.204 7.9657 47.3212C7.71787 47.4039 7.52495 47.4855 7.26492 47.4855" stroke="#FF3D95" stroke-linecap="round"/>
<path d="M7.13354 47.814C7.17545 47.4788 7.99594 47.3602 8.18472 47.1242C8.39396 46.8626 9.04853 46.8776 9.33809 46.8249C10.2766 46.6543 11.2754 46.6315 12.2434 46.6315C13.2285 46.6315 14.1866 46.8932 15.0903 47.2629C15.7289 47.5241 16.4225 47.7895 16.9883 48.1936C17.4674 48.5358 17.9838 48.8686 18.5651 49.0623" stroke="#FF3D95" stroke-linecap="round"/>
<path d="M19.4788 48.3612C18.7084 48.3612 18.0156 48.0768 17.2032 48.0768" stroke="#FF3D95" stroke-linecap="round"/>
<path d="M7.33582 47.5239C7.47752 47.5239 7.8362 47.4451 7.91055 47.3369C8.02338 47.1728 8.44222 47.1982 8.61684 47.1188C8.96047 46.9626 9.35206 46.7141 9.73169 46.6653C11.3624 46.4556 13.0658 46.5268 14.7138 46.5268C15.3232 46.5268 16.0288 46.7205 16.6215 46.8522C17.4103 47.0275 18.1946 47.2294 18.9586 47.4304C19.173 47.4869 19.3198 47.5646 19.5333 47.5897C19.6909 47.6082 20.1521 47.7003 19.9938 47.7109C19.8728 47.7189 19.7481 47.7109 19.6268 47.7109C19.0385 47.7109 18.4708 47.6385 17.8853 47.5897C17.459 47.5542 17.0478 47.3993 16.6215 47.3993" stroke="#FF3D95" stroke-linecap="round"/>
<path d="M33.6169 42.5264C33.7567 42.6605 33.885 42.7825 34.0623 42.8699C34.2335 42.9541 34.4305 42.9869 34.5964 43.0699C34.8592 43.2013 35.1126 43.376 35.4061 43.436C35.5415 43.4637 35.703 43.4436 35.8402 43.4436C36.0203 43.4436 36.2772 43.4926 36.4328 43.3926C36.6415 43.2584 36.8394 43.1619 37.031 43.0057C37.2902 42.7945 37.4872 42.5567 37.6935 42.2886" stroke="#FF3D95" stroke-linecap="round"/>
<path d="M31.8505 41.6432C32.0682 41.6214 32.1901 41.6771 32.3978 41.7621C32.4886 41.7992 32.6074 41.806 32.6714 41.8828C32.7281 41.9508 32.8683 42.0202 32.9526 42.0508C33.1917 42.1377 33.441 42.4184 33.617 42.5943" stroke="#FF3D95" stroke-linecap="round"/>
<path d="M37.0141 42.7641C36.761 42.8596 36.5969 43.026 36.4027 43.2057C36.3672 43.2385 35.9409 43.5318 35.9365 43.5209C35.8999 43.4293 36.4705 42.9605 36.5555 42.9113C36.6522 42.8553 36.6991 42.7092 36.7782 42.6301C36.8949 42.5135 37.0424 42.3914 37.1764 42.296C37.3742 42.1552 37.5494 41.9723 37.7596 41.8506C37.9696 41.7291 38.1214 41.548 38.339 41.4392" stroke="#FF3D95" stroke-linecap="round"/>
<path d="M36.4366 43.0359C36.3669 43.1753 36.3648 43.1351 36.4064 42.9925C36.4639 42.7954 36.5432 42.6221 36.6555 42.4509C36.7934 42.2408 36.9441 42.0142 37.1141 41.83C37.2974 41.6315 37.5043 41.435 37.6784 41.2279C37.861 41.0109 38.1255 40.8555 38.3579 40.6882C38.9517 40.2606 39.4616 39.7582 40.113 39.4086C40.9505 38.9592 41.8692 38.5163 42.8232 38.4159" stroke="#FF3D95" stroke-linecap="round"/>
<path d="M56.4729 41.3886C56.5124 41.1999 56.563 41.0164 56.6214 40.8328C56.6675 40.6882 56.7619 40.5854 56.8131 40.4447C56.9024 40.1991 57.1192 40.0075 57.2683 39.7906C57.5623 39.363 58.0126 39.1504 58.38 38.7915C58.5782 38.5979 58.8794 38.4896 59.1275 38.3699C59.5914 38.1459 60.0402 37.9402 60.474 37.6631C61.1102 37.2566 61.7198 36.9228 62.4242 36.688" stroke="#FF3D95" stroke-linecap="round"/>
<path d="M56.6023 40.828C56.6541 40.0515 57.3908 39.539 57.8433 38.9928C58.1395 38.6353 58.5536 38.3502 58.8879 38.0249C59.5159 37.4138 60.4468 37.2123 61.2383 36.8605C61.5713 36.7124 61.8544 36.505 62.2038 36.3885C62.707 36.2208 63.1672 36.2136 63.6916 36.2136C64.8093 36.2136 66.0723 36.0513 67.1249 36.4724" stroke="#FF3D95" stroke-linecap="round"/>
<path d="M53.9266 42.3733C53.9399 42.2536 54.2806 42.1217 54.3741 42.075C54.4231 42.0505 54.4866 42.0481 54.5302 42.0142C54.5553 41.9946 54.4379 42.0186 54.4238 42.0252C54.3671 42.052 54.3053 42.0783 54.2525 42.1123C54.1704 42.1651 54.4477 42.1269 54.4625 42.1247C54.7204 42.0861 54.9941 42.0501 55.2554 42.0501C55.474 42.0501 55.6 42.0871 55.7167 42.2794C55.7772 42.379 55.6783 42.5295 55.6145 42.604C55.4906 42.7485 55.2024 42.8506 55.0205 42.8844C54.8746 42.9115 54.696 42.9075 54.5481 42.8927C54.478 42.8857 54.2128 42.831 54.1807 42.7587C54.1587 42.7092 54.4722 42.7027 54.4846 42.7021C54.8959 42.6824 55.3011 42.7298 55.7112 42.7435C55.9395 42.7511 56.168 42.7426 56.3963 42.7463C56.4795 42.7476 56.4805 42.809 56.4143 42.8582C56.1631 43.0445 55.6626 42.9813 55.3769 42.9894C55.1384 42.9961 54.8999 42.9949 54.6614 42.9949C54.3575 42.9949 54.0536 42.9949 53.7497 42.9949C53.4335 42.9949 53.1188 43.0198 52.8036 43.0198C52.6735 43.0198 52.5487 43.0664 52.4182 43.0695C52.3771 43.0705 52.127 43.1064 52.24 43.0709C52.9802 42.8378 53.7237 42.7055 54.4804 42.5474C54.6408 42.5139 54.8317 42.4479 54.9957 42.4479" stroke="#FD57AC" stroke-linecap="round"/>
<path d="M56.3859 38.9294C56.5478 38.5083 56.9361 38.1368 57.1752 37.751C57.4641 37.2847 57.8777 36.8401 58.3369 36.5282C58.7154 36.271 59.1044 36.0868 59.5153 35.8889C59.7487 35.7765 60.1501 35.6614 60.4129 35.6305C60.8848 35.575 61.3798 35.6185 61.8553 35.5805C62.1057 35.5604 62.3619 35.5276 62.6113 35.5276C63.1707 35.5276 63.7371 35.5777 64.2899 35.5777C64.5384 35.5777 64.8159 35.7705 65.0403 35.8667C65.1829 35.9278 65.4607 35.9311 65.5795 36.039C65.8462 36.2815 66.3507 36.3223 66.5939 36.606C66.7036 36.7339 66.9827 36.8764 67.1386 36.9284C67.3494 36.9986 67.4946 37.217 67.6667 37.3508C67.8631 37.5036 68.3132 37.8424 68.392 38.079" stroke="#F3D054" stroke-linecap="round"/>
<path d="M52.7953 41.8235C53.2206 41.6345 53.7276 41.5326 54.1826 41.4544C54.668 41.371 55.1635 41.3217 55.6526 41.2635C55.9003 41.234 56.1417 41.1418 56.3908 41.1362C56.422 41.1355 56.7193 41.1362 56.6103 41.1362C56.1554 41.1362 55.7656 41.2046 55.3217 41.3017C54.9952 41.3731 54.6628 41.3579 54.3353 41.4226C54.0489 41.4792 53.7734 41.5581 53.4826 41.5944" stroke="#FF3D95" stroke-linecap="round"/>
<path d="M37.1024 42.8545C37.1146 42.4271 37.3931 42.0446 37.5892 41.674C37.7374 41.3941 37.9063 41.1342 38.1333 40.9072C38.3886 40.6519 38.6885 40.4383 38.9224 40.1626C39.1538 39.89 39.5775 39.7102 39.8452 39.4499C40.1787 39.1256 40.6184 38.9524 40.9747 38.6735C41.3402 38.3875 41.7686 38.1955 42.2029 38.0435C43.2773 37.6675 44.3733 37.6647 45.4897 37.754C45.8533 37.7831 46.2035 37.8279 46.5652 37.8844C47.3044 37.9999 48.044 37.9863 48.7798 38.1453C49.9754 38.4039 51.2725 38.6465 52.3689 39.2208C52.8495 39.4726 53.3046 39.8592 53.8134 40.0354C54.1489 40.1515 54.4491 40.3382 54.7425 40.4935C54.8878 40.5705 55.0509 40.6754 55.2007 40.7354" stroke="#FF3D95" stroke-linecap="round"/>
<path d="M55.8307 41.1363C56.0458 41.1124 56.3804 40.6653 56.5371 40.5317C56.8423 40.2715 57.1382 40.0342 57.4662 39.8063C57.918 39.4922 58.3206 38.8099 58.8662 38.6735" stroke="#FF3D95" stroke-linecap="round"/>
<path d="M55.7162 41.3653C55.7162 40.4341 56.8031 39.4679 57.5489 38.9853C58.9507 38.0783 60.4621 36.959 62.1849 36.7867C63.2845 36.6767 64.369 36.6689 65.4781 36.6689C66.1436 36.6689 66.83 36.8217 67.3999 37.1844C67.621 37.3251 67.8866 37.4134 68.0872 37.5853C68.2453 37.7208 68.4336 37.826 68.6026 37.948C68.7091 38.025 68.7499 38.1189 68.8444 38.1899C69.0171 38.3194 69.1977 38.5281 69.3344 38.7053C69.5094 38.9322 69.7599 39.0902 69.9199 39.3035" stroke="#FF3D95" stroke-linecap="round"/>
<path d="M62.5317 36.6117C62.5741 36.2728 64.5136 36.4399 64.7368 36.4399C65.1623 36.4399 65.6146 36.3741 65.9968 36.5799C66.1755 36.6761 66.4167 36.7408 66.6109 36.8217C66.911 36.9468 67.183 37.1675 67.4699 37.2863C67.7903 37.4188 68.1248 37.6135 68.3609 37.859C68.641 38.1504 69.0528 38.3424 69.3122 38.6417C69.6933 39.0814 70.1398 39.4661 70.55 39.8763" stroke="#FF3D95" stroke-linecap="round"/>
</g>
<g clip-path="url(#clip1_15_139)">
<path d="M124.696 66.463C125.259 66.3803 125.812 65.7752 126.363 65.543C126.627 65.4314 126.996 64.4911 127.19 64.2364C128.293 62.7921 128.942 61.171 129.986 59.6524C131.483 57.4765 132.408 54.7116 132.584 52.0754C132.665 50.8725 132.677 49.0648 131.466 48.3414C130.762 47.9205 129.499 48.1446 128.737 48.1298C127.795 48.1116 126.63 48.0193 125.751 48.3894C125.218 48.6141 124.618 48.5707 124.086 48.798C123.652 48.9832 123.292 49.262 122.84 49.4088C122.183 49.6218 121.505 50.2186 120.878 50.5171" stroke="#FE4AA0" stroke-width="2" stroke-linecap="round"/>
<path d="M120.857 51.6278C120.036 50.0022 119.409 48.2432 118.484 46.6615C117.911 45.6827 117.436 44.639 116.92 43.6155C116.612 43.003 115.711 41.5734 114.863 41.5123C113.905 41.4432 113.106 41.0021 112.122 40.983C111.365 40.9683 110.477 40.8235 109.724 40.9453C109.077 41.0501 108.349 41.5043 107.742 41.7534C106.894 42.1013 106.289 42.5281 105.539 43.0422C104.909 43.4739 104.076 44.2461 103.378 44.4641" stroke="#FE4AA0" stroke-width="2" stroke-linecap="round"/>
<path d="M102.749 44.1344C102.285 44.0738 101.582 43.1885 101.514 42.7702C101.374 41.9026 100.249 41.0127 99.5919 40.5109C98.1578 39.4159 96.401 37.5973 94.4601 37.3164C91.9298 36.9502 89.7322 37.2637 87.5133 38.6015C86.0778 39.4669 84.7098 40.4757 83.7466 41.8616" stroke="#FE4AA0" stroke-width="2" stroke-linecap="round"/>
<path d="M127.646 55.0495C127.633 55.7221 127.721 56.3335 127.968 56.965C128.159 57.4532 128.377 57.9329 128.59 58.4123C128.655 58.559 128.754 58.8254 128.698 58.4482C128.527 57.3094 128.212 56.1896 127.951 55.069C127.911 54.9 127.789 54.405 127.777 54.5781C127.753 54.9486 127.777 55.3191 127.851 55.6831C128.097 56.9034 128.484 58.022 128.614 59.259C128.643 59.5349 128.727 59.7942 128.815 60.055C128.901 60.3077 128.803 59.5216 128.783 59.2555C128.675 57.7621 128.91 56.1976 129.586 54.8502C129.849 54.3262 130.072 53.7719 130.281 53.2252C130.573 52.4618 130.906 51.6495 131.005 50.8358C131.038 50.5635 131.029 50.2842 131.034 50.0104C131.035 49.9846 131.042 49.8081 131.022 49.929C130.956 50.3269 130.902 50.7263 130.83 51.1236C130.708 51.7943 130.585 52.4666 130.486 53.1412C130.406 53.6903 130.387 54.2183 130.238 54.7545C129.921 55.8963 129.959 57.1163 129.811 58.2802C129.803 58.3446 129.628 59.3445 129.731 58.9422C130.019 57.8129 130.515 56.7549 130.73 55.6035C130.975 54.2857 131.388 52.9435 131.43 51.6023C131.439 51.3155 131.837 49.9335 131.466 49.7277C131.207 49.5837 130.586 49.6763 130.316 49.6783C129.827 49.6821 129.243 49.8125 128.781 49.9668C128.666 50.005 128.356 50.1036 128.288 50.2145C128.107 50.5116 127.865 50.7919 127.83 51.1467C127.746 51.9932 127.75 52.8475 127.733 53.6972C127.728 53.9959 127.647 54.3917 127.714 54.6852C127.756 54.8678 127.92 54.3722 128.015 54.2104C128.363 53.6119 128.704 53.0123 129.005 52.3881C129.282 51.8121 129.717 51.1256 129.854 50.4886C129.884 50.3491 129.373 50.3847 129.287 50.3625C128.454 50.1462 127.915 49.2764 126.999 49.3229C126.171 49.365 125.569 49.4987 124.836 49.8294C124.543 49.9618 124.305 50.1457 123.988 50.2598C123.749 50.3461 123.46 50.4493 123.212 50.502C122.47 50.6596 122.925 51.3502 123.394 51.6023C124.369 52.1277 125.395 52.5474 126.371 53.075C126.947 53.3866 127.493 53.7239 127.989 54.1557C127.992 54.1587 128.363 54.6075 128.423 54.4349C128.529 54.1317 128.47 53.6937 128.471 53.3797C128.472 52.9502 128.411 52.5682 128.285 52.1575C128.129 51.6503 127.998 51.1399 127.745 50.6711C127.587 50.38 127.48 50.3836 127.291 50.6623C126.762 51.4415 125.973 52.3411 125.818 53.2945C125.728 53.857 125.71 54.4935 125.954 55.0167C125.958 55.0245 126.17 55.4741 126.224 55.4349C126.29 55.3873 126.249 54.9079 126.249 54.86C126.238 53.8184 125.931 52.7431 125.53 51.7859C125.466 51.6345 125.37 51.3469 125.208 51.2719C124.986 51.1691 124.757 50.982 124.559 51.2322C124.167 51.7266 123.76 52.2512 124.121 52.8486C124.257 53.0742 124.362 53.4804 124.576 53.1485C124.962 52.5493 125.449 52.0123 125.821 51.4056C125.87 51.3267 126.677 49.699 125.992 49.9127C125.901 49.9411 125.815 50.0994 125.757 50.1587C125.532 50.3925 125.281 50.5956 125.014 50.7807C124.678 51.0142 124.339 51.189 123.967 51.3562C123.433 51.5964 122.851 51.7083 122.286 51.8381" stroke="#FF3D95" stroke-width="2" stroke-linecap="round"/>
<path d="M129.395 59.1658C129.26 59.18 128.942 59.6957 128.864 59.8292C128.762 60.0019 128.731 60.2102 128.61 60.3659C128.351 60.6967 128.263 61.1337 128.043 61.4686C127.504 62.2894 127.003 63.0816 126.681 63.9878" stroke="#FF3D95" stroke-width="2" stroke-linecap="round"/>
<path d="M118.787 50.0034C118.798 49.4342 118.502 48.6675 118.282 48.125C117.99 47.4065 117.616 46.601 117.173 45.9641C116.795 45.4214 116.561 44.776 116.191 44.2255C115.778 43.6106 115.018 43.2057 114.403 42.8368C113.862 42.5117 113.175 42.3401 112.552 42.2796C111.855 42.2119 111.141 42.2387 110.441 42.2252C109.876 42.2142 109.333 42.2028 108.774 42.3012C107.655 42.4983 106.653 42.9524 105.641 43.4727C105.483 43.5538 104.848 44.0453 104.922 44.217C105.07 44.5591 105.833 44.583 106.126 44.6398C106.532 44.7186 106.845 44.8365 107.273 44.8448C107.506 44.8493 107.773 44.9658 108.007 45.0147C108.206 45.0563 108.461 45.0852 108.644 45.176C109.089 45.3967 109.621 45.4914 110.098 45.6172C110.376 45.6906 110.659 45.7524 110.933 45.8432C111.068 45.8879 111.263 45.8658 111.371 45.96C111.793 46.3303 112.598 46.3133 113.115 46.4339C113.59 46.5447 114.046 46.7914 114.482 46.9952C114.823 47.155 115.2 47.3564 115.544 47.5371C115.803 47.6726 116.799 47.8199 116.869 48.1687C116.896 48.2999 117.121 48.6114 117.11 48.3088C117.09 47.7356 116.744 47.3337 116.389 46.9171C115.753 46.1703 115.02 45.6338 114.128 45.1909C113.515 44.8868 113.145 44.2999 112.477 44.0723C111.435 43.7172 110.327 43.6599 109.236 43.6066C108.796 43.5852 108.354 43.5862 107.913 43.5776C107.759 43.5746 107.796 43.8429 107.876 43.9188C108.138 44.1669 108.566 44.2928 108.903 44.3889C109.629 44.5963 110.374 44.7404 111.114 44.8854C111.862 45.032 112.614 45.1861 113.375 45.2541C113.528 45.2679 113.828 45.2139 113.942 45.3531C114.302 45.7964 114.899 46.1105 115.321 46.5037C115.614 46.7773 115.927 47.1711 116.265 47.3818C116.568 47.5709 117.279 47.9577 117.295 48.3902C117.305 48.6757 117.7 49.039 117.572 48.4362C117.499 48.0978 117.258 47.7764 117.103 47.4725C116.793 46.8653 116.277 46.3577 115.821 45.8601C115.293 45.2842 114.738 44.7345 114.212 44.16C114.107 44.046 113.987 43.9499 113.876 43.8421C113.777 43.7456 114.013 44.124 114.029 44.1531C114.682 45.3202 115.641 46.4153 116.563 47.3741C116.726 47.5432 116.92 47.6849 117.027 47.8976C117.081 48.0045 117.107 48.1376 117.18 48.2323C117.264 48.3427 117.389 48.4722 117.416 48.6058C117.431 48.6807 117.642 48.987 117.646 48.7796C117.662 47.9619 116.755 47.2329 116.23 46.7244" stroke="#FF3D95" stroke-width="2" stroke-linecap="round"/>
<path d="M104.082 44.7829C103.345 44.7686 102.557 44.4496 101.837 44.2655C101.481 44.1743 101.165 44.0229 100.84 43.84C100.31 43.5412 99.6939 43.3151 99.1391 43.0555C98.2236 42.6272 97.2557 42.2027 96.2839 41.9136C95.7848 41.765 95.3276 41.5415 94.8172 41.4349C94.0297 41.2705 93.2417 41.1362 92.4495 40.9896C91.9678 40.9004 91.4909 40.9103 91.0065 40.8669C90.3795 40.8106 89.7618 40.6349 89.133 40.597C88.095 40.5345 87.0502 40.6142 86.0289 40.5944C85.977 40.5934 85.5319 40.5809 85.6183 40.6474C85.8058 40.7917 86.0568 40.7865 86.2707 40.8699C87.1724 41.2215 88.1396 41.1548 89.0494 41.4146C89.6541 41.5872 90.4529 41.5747 91.0903 41.6064C91.8065 41.642 92.546 41.704 93.2524 41.8311C93.8368 41.9363 94.432 41.9686 95.0141 42.109C95.6836 42.2705 96.4373 42.1975 97.121 42.2107C98.0109 42.228 98.909 42.3063 99.7897 42.3234C100.276 42.3328 99.908 41.8734 99.7143 41.672C99.0842 41.0171 98.2853 40.5746 97.6558 39.9396C97.3131 39.5937 96.7626 39.2981 96.3357 39.0643C95.9521 38.8542 95.5858 38.7346 95.1773 38.5781C94.8503 38.4529 94.4578 38.2644 94.1003 38.2526C92.9179 38.2135 91.7335 38.2067 90.5507 38.1838C89.9478 38.1721 89.3955 38.1798 88.8495 38.4555C88.6744 38.5439 88.5232 38.5744 88.335 38.6283C87.9235 38.7463 89.0025 39.0518 89.0476 39.0619C90.344 39.3512 91.7184 39.3112 93.0113 39.5991C94.0847 39.838 95.0788 40.2173 96.0994 40.6C96.2035 40.639 96.5816 40.7379 96.3 40.7325C95.8942 40.7246 95.5028 40.6266 95.1051 40.5536C92.9901 40.1653 90.8638 39.6522 88.7052 39.6104C88.2687 39.6019 87.8322 39.5935 87.3957 39.585C85.9911 39.5578 90.2198 39.6451 91.5968 39.9237C92.8619 40.1796 94.1376 40.5587 95.4202 40.7154C95.8443 40.7672 96.2569 40.9038 96.6813 40.97C96.9375 41.0101 97.1454 41.0161 97.3893 41.1192" stroke="#FF3D95" stroke-width="2" stroke-linecap="round"/>
<path d="M81.6163 40.6917C81.2133 40.6165 80.7896 40.0071 80.477 39.7421C80.1756 39.4867 79.9033 39.1807 79.6125 38.9333C79.4017 38.7538 79.2179 38.5486 78.9793 38.42C78.6843 38.2609 78.2518 37.9735 77.9257 37.9392C77.5502 37.8997 77.0457 37.6623 76.7158 37.4892C76.4218 37.3351 76.1245 37.1553 75.8526 36.9647C75.5591 36.7591 75.1777 36.6811 74.8521 36.5391C74.5011 36.3861 74.1586 36.221 73.7684 36.2135C73.1661 36.2018 72.5587 36.1649 71.9574 36.2089C71.5135 36.2413 70.957 36.17 70.5305 36.3031C70.302 36.3743 70.0519 36.2982 69.8158 36.3231C69.5248 36.3537 69.1609 36.6065 68.8974 36.7284C67.886 37.1965 66.7078 37.855 66.021 38.7782C65.9479 38.8764 65.4239 39.4032 65.4401 39.4067C65.7667 39.4787 66.0762 39.4766 66.4169 39.4832C67.6633 39.5074 68.9097 39.5315 70.156 39.5557C71.4672 39.5811 72.7935 39.5467 74.097 39.6963C75.1413 39.8163 76.1824 39.9976 77.2265 40.1327C77.5119 40.1697 77.7808 40.2518 78.0703 40.2574C78.2418 40.2607 78.4364 40.2382 78.6047 40.2813C78.7757 40.325 78.9599 40.3897 79.1374 40.3932C79.2327 40.395 78.7524 40.0075 78.6987 39.9717C77.9139 39.4486 76.9467 39.0256 76.0555 38.7222C75.3647 38.487 74.7073 38.1883 74.0009 38.0155C73.0418 37.7809 72.1109 37.7047 71.1232 37.6855C70.8215 37.6797 70.3908 37.5977 70.0973 37.6961C69.7574 37.8101 69.3668 37.7446 69.0335 37.9158C68.7444 38.0643 68.3854 38.1393 68.0761 38.2358" stroke="#FF3D95" stroke-width="2" stroke-linecap="round"/>
<path d="M130.847 62.0533C130.839 62.4284 130.343 62.7828 130.146 63.0969C129.94 63.4268 129.646 63.6435 129.471 63.9771C129.372 64.1656 129.179 64.3404 129.05 64.5006C128.945 64.6304 128.867 64.9149 128.731 65.0045C128.604 65.0879 128.594 65.2328 128.49 65.3336C128.363 65.4553 128.191 65.6012 128.101 65.7589C127.989 65.9546 127.739 66.1092 127.649 66.3034C127.571 66.4686 127.245 66.5911 127.198 66.7429C127.162 66.859 126.938 67.036 126.829 67.1221C126.661 67.2543 126.494 67.4353 126.338 67.5855C125.569 68.3247 124.718 68.7456 123.753 69.2046" stroke="#F3D054" stroke-linecap="round"/>
<path d="M128.851 64.5184C128.824 64.7673 128.469 65.144 128.252 65.2827C128.05 65.412 127.913 65.6081 127.718 65.7484C127.591 65.84 127.485 66.0687 127.373 66.1837C127.135 66.426 126.96 66.7185 126.678 66.9245C126.286 67.2107 125.912 67.7268 125.447 67.9021C125.128 68.023 124.822 68.2439 124.517 68.3972C124.317 68.4972 123.92 68.619 123.816 68.8164" stroke="#F3D054" stroke-linecap="round"/>
<path d="M128.28 65.2863C127.967 65.4918 127.837 65.9153 127.54 66.1498C127.361 66.2915 127.207 66.4519 127.034 66.5975C126.821 66.7769 126.547 66.9132 126.305 67.0501C126.149 67.1381 125.907 67.2552 125.779 67.3645C125.651 67.4745 125.495 67.4931 125.398 67.6106C125.301 67.727 125.009 67.8847 124.863 67.9464C124.587 68.0625 124.283 68.2804 124.046 68.4314" stroke="#F3D054" stroke-linecap="round"/>
<path d="M132.2 48.3334C131.928 48.3008 131.739 48.021 131.519 47.8931C131.271 47.7489 130.97 47.7359 130.703 47.5962C130.44 47.4583 130.074 47.478 129.783 47.3995C129.389 47.2928 129.038 47.2865 128.61 47.2782C127.671 47.26 126.767 47.215 125.844 47.4071C125.583 47.4616 125.32 47.4736 125.053 47.5378C124.844 47.5881 124.482 47.5947 124.295 47.691C123.856 47.9164 123.36 48.026 122.908 48.2337C122.765 48.2992 122.575 48.3426 122.451 48.4402C122.361 48.511 122.37 48.5844 122.239 48.6296C121.996 48.714 121.553 48.829 121.395 49.044C121.365 49.0854 120.97 49.2944 120.96 49.2838C120.911 49.2325 121.317 48.9324 121.387 48.9124C121.577 48.8578 121.872 48.7275 122.039 48.6257C122.223 48.5135 122.407 48.4491 122.592 48.3443C122.779 48.2381 122.881 48.1284 123.105 48.0586C123.428 47.9579 123.792 47.7629 124.108 47.702C124.454 47.6355 124.85 47.6253 125.198 47.6063C125.498 47.5899 125.79 47.5001 126.095 47.4886C126.717 47.4651 127.319 47.4503 127.942 47.4624C128.53 47.4737 129.117 47.4851 129.705 47.4965C130.07 47.5036 130.441 47.4921 130.79 47.6161C131.037 47.7035 131.228 47.7889 131.488 47.7939" stroke="#FF3D95" stroke-linecap="round"/>
<path d="M131.613 48.1249C131.577 47.7889 130.759 47.6544 130.575 47.4148C130.371 47.1493 129.716 47.1515 129.428 47.0933C128.493 46.9045 127.495 46.8623 126.527 46.8436C125.542 46.8245 124.579 47.0676 123.668 47.4197C123.025 47.6685 122.326 47.9204 121.753 48.3135C121.267 48.6464 120.744 48.969 120.159 49.1515" stroke="#FF3D95" stroke-linecap="round"/>
<path d="M119.259 48.4329C120.03 48.4478 120.728 48.1768 121.54 48.1926" stroke="#FF3D95" stroke-linecap="round"/>
<path d="M131.416 47.8309C131.275 47.8282 130.917 47.7424 130.845 47.6328C130.736 47.4666 130.316 47.4838 130.143 47.4011C129.803 47.2383 129.416 46.9822 129.037 46.926C127.411 46.6848 125.707 46.723 124.059 46.691C123.45 46.6792 122.74 46.8592 122.145 46.9795C121.353 47.1394 120.565 47.3261 119.798 47.5123C119.582 47.5645 119.434 47.6394 119.22 47.6604C119.062 47.6759 118.599 47.759 118.757 47.7726C118.878 47.783 119.003 47.7774 119.124 47.7797C119.712 47.7911 120.281 47.7297 120.868 47.6923C121.294 47.665 121.709 47.5181 122.135 47.5264" stroke="#FF3D95" stroke-linecap="round"/>
<path d="M105.237 42.3252C105.095 42.4566 104.964 42.5761 104.785 42.66C104.612 42.741 104.415 42.7699 104.247 42.8497C103.982 42.9759 103.725 43.1457 103.43 43.2C103.294 43.2251 103.133 43.2018 102.996 43.1992C102.816 43.1957 102.558 43.2398 102.405 43.1368C102.199 42.9985 102.003 42.8982 101.814 42.7384C101.559 42.5222 101.367 42.2805 101.166 42.0085" stroke="#FF3D95" stroke-linecap="round"/>
<path d="M107.02 41.4764C106.803 41.4504 106.68 41.5037 106.471 41.5846C106.379 41.62 106.26 41.6245 106.195 41.7001C106.137 41.767 105.995 41.8336 105.91 41.8626C105.669 41.9449 105.415 42.2206 105.235 42.3931" stroke="#FF3D95" stroke-linecap="round"/>
<path d="M101.836 42.497C102.087 42.5974 102.248 42.767 102.438 42.9504C102.473 42.9839 102.894 43.2854 102.898 43.2745C102.937 43.1837 102.375 42.7039 102.291 42.6531C102.196 42.5952 102.152 42.4483 102.074 42.3676C101.96 42.2487 101.815 42.1239 101.682 42.0259C101.487 41.8813 101.316 41.695 101.108 41.5693C100.9 41.4437 100.752 41.2597 100.537 41.1467" stroke="#FF3D95" stroke-linecap="round"/>
<path d="M102.408 42.7801C102.475 42.9207 102.478 42.8806 102.439 42.7372C102.385 42.5391 102.309 42.3642 102.2 42.1909C102.067 41.9781 101.92 41.7487 101.754 41.5612C101.574 41.3592 101.371 41.1587 101.201 40.9483C101.023 40.7278 100.762 40.5673 100.532 40.3955C99.947 39.9565 99.447 39.4443 98.8024 39.0822C97.9738 38.6167 97.0639 38.156 96.112 38.0371" stroke="#FF3D95" stroke-linecap="round"/>
<path d="M82.4072 40.7449C82.3714 40.5554 82.3243 40.371 82.2695 40.1863C82.2263 40.0408 82.1338 39.9362 82.0854 39.7945C82.0008 39.5473 81.7878 39.3514 81.6429 39.1317C81.3573 38.6985 80.9112 38.4772 80.5508 38.1113C80.3563 37.9139 80.0573 37.7998 79.8116 37.6752C79.3521 37.4423 78.9074 37.228 78.4791 36.9425C77.8508 36.5238 77.2478 36.1782 76.5481 35.9298" stroke="#FF3D95" stroke-linecap="round"/>
<path d="M82.2887 40.1819C82.252 39.4045 81.5253 38.8778 81.0834 38.323C80.7942 37.9598 80.3858 37.6667 80.0578 37.335C79.4417 36.7119 78.515 36.4923 77.7304 36.1253C77.4003 35.9708 77.1213 35.7579 76.7742 35.6347C76.2744 35.4572 75.8144 35.4412 75.2901 35.431C74.1726 35.4093 72.9129 35.2226 71.8525 35.6232" stroke="#FF3D95" stroke-linecap="round"/>
<path d="M76.9825 32.9558C76.8716 33.0778 76.7849 33.213 76.6893 33.3469" stroke="#F3D054" stroke-linecap="round"/>
<path d="M65.4911 35.6777C65.5195 35.4508 66.1477 36.0159 66.1887 36.0473C66.3782 36.1926 66.535 36.3645 66.7168 36.5059C66.8516 36.6108 66.9489 36.5485 67.0892 36.4503C67.3067 36.298 67.4984 36.1906 67.7312 36.0668C67.8743 35.9907 68.0546 36.0157 68.1675 35.9028C68.2416 35.8287 68.2844 35.7777 68.3926 35.7777" stroke="#F3D054" stroke-linecap="round"/>
<path d="M65.8502 36.4314C65.64 36.4577 66.1258 37.0021 66.1366 37.0507C66.1557 37.1368 66.3249 37.217 66.4038 37.2443C66.5172 37.2836 66.6131 37.437 66.7271 37.4972C66.8682 37.5717 66.9686 37.691 67.1175 37.7548C67.2643 37.8177 67.3994 37.89 67.5496 37.9436C67.6566 37.9818 67.7371 38.0653 67.8376 38.1244C67.8654 38.1408 67.9282 38.1496 67.9464 38.1661C68.0064 38.2201 67.9734 38.2559 68.068 38.2749" stroke="#F3D054" stroke-linecap="round"/>
<path d="M68.212 38.4477C68.3682 38.1354 68.5344 37.8389 68.7753 37.582C69.0985 37.2372 69.4364 36.8823 69.7962 36.5738C70.0026 36.397 70.198 36.212 70.4235 36.057C70.5097 35.9977 70.6098 35.881 70.7051 35.8538C70.8468 35.8133 70.9304 35.6758 71.0636 35.6249C71.4664 35.4711 71.8498 35.2704 72.2829 35.1993C72.559 35.154 72.8277 35.0849 73.1006 35.0233C73.2841 34.9818 73.4821 34.9744 73.6559 34.9048" stroke="#F3D054" stroke-linecap="round"/>
<path d="M66.0806 36.5466C66.3196 36.5466 66.4648 36.7793 66.6742 36.8795C66.8924 36.9838 67.1344 37.114 67.2839 37.2955C67.41 37.4487 67.5333 37.6877 67.6791 37.8012C67.7245 37.8365 67.7386 37.8844 67.7576 37.9356C67.7799 37.9959 67.8371 38.0096 67.8648 38.0604C67.8982 38.1217 67.9688 38.167 67.9832 38.2316C68.003 38.321 68.1685 38.4443 68.2184 38.5341C68.2287 38.5525 68.3789 38.6757 68.2776 38.6141C68.1434 38.5324 68.0378 38.4154 67.9368 38.3052C67.7994 38.1554 67.6245 38.0562 67.5207 37.8716C67.4956 37.827 67.4161 37.7125 67.3703 37.6924C67.2861 37.6553 67.2135 37.5068 67.1463 37.4395" stroke="#F3D054" stroke-linecap="round"/>
<path d="M68.7305 38.7933C68.7305 38.4023 68.9026 38.0589 69.0473 37.7052C69.1138 37.5425 69.2291 37.3422 69.3449 37.2155C69.52 37.0242 69.6072 36.7841 69.8122 36.6106C70.2283 36.2585 70.6344 35.8759 71.0859 35.5673C71.5862 35.2254 72.1747 35.0422 72.7341 34.8184" stroke="#F3D054" stroke-linecap="round"/>
<path d="M69.0185 38.6205C69.0185 38.3292 69.2442 38.1363 69.3929 37.9132C69.6215 37.5704 69.9013 37.1956 70.1962 36.9099C70.3721 36.7396 70.5017 36.5465 70.6907 36.3851C70.9342 36.1771 71.1665 35.9755 71.4316 35.793C71.7836 35.5506 72.1466 35.3352 72.5405 35.1673C72.851 35.035 73.1533 34.8341 73.483 34.7609" stroke="#F3D054" stroke-linecap="round"/>
<path d="M69.0551 38.3845C69.2317 38.3649 69.3857 37.877 69.4488 37.7349C69.567 37.469 69.816 37.2413 70.0022 37.024C70.133 36.8715 70.3261 36.7185 70.4813 36.5909C70.6249 36.4727 70.7692 36.3455 70.9231 36.2409C71.103 36.1187 71.2265 35.9552 71.3956 35.8253C71.7302 35.5683 72.0888 35.3623 72.4543 35.156C72.8774 34.9171 73.3554 34.7684 73.8192 34.6047" stroke="#F3D054" stroke-linecap="round"/>
<path d="M69.1733 38.5814C69.476 38.2787 69.7686 37.9686 70.0701 37.6671C70.1698 37.5674 70.2378 37.4382 70.3369 37.339C70.4748 37.2012 70.6473 37.0784 70.7679 36.93C70.986 36.6615 71.3254 36.4562 71.575 36.2191C71.755 36.0481 71.9687 35.9707 72.1656 35.8275C72.3582 35.6875 72.6487 35.5542 72.8765 35.4929C73.3137 35.3752 73.7142 35.2322 74.1714 35.156C74.6987 35.0681 75.1689 34.9985 75.7092 34.9985C76.297 34.9985 76.8912 34.9591 77.4831 34.9591C77.6097 34.9591 78.0335 34.9352 78.1415 35.0073C78.2566 35.0839 78.4802 35.1322 78.6228 35.156" stroke="#F3D054" stroke-linecap="round"/>
<path d="M69.4479 38.5941C69.4747 38.2993 69.8935 37.9107 70.1275 37.7937C70.4329 37.641 70.7114 37.3337 70.9959 37.1367C71.3574 36.8865 71.9703 36.6883 72.2343 36.3363C72.5114 35.9668 73.1141 35.8842 73.4953 35.6416C73.6438 35.5471 74.0268 35.4509 74.2051 35.4C74.4315 35.3353 74.6952 35.3811 74.9111 35.2981C75.4727 35.0821 76.1142 35.1282 76.7158 35.1282C77.6345 35.1282 78.539 35.2589 79.37 35.5359" stroke="#F3D054" stroke-linecap="round"/>
<path d="M68.6324 38.7301C68.6611 38.5 69.3099 38.9007 69.0401 38.8622C68.9082 38.8433 68.714 38.477 68.7305 38.6092C68.7448 38.7234 68.9384 38.866 69.0401 38.866" stroke="#F3D054" stroke-linecap="round"/>
<path d="M68.3606 37.8466C68.3606 38.1771 68.379 38.529 68.7684 38.647C68.9766 38.7101 69.1765 39.0509 69.414 38.9981C69.6007 38.9566 69.9236 38.6282 70.0294 38.4922C70.0659 38.4452 70.253 38.308 70.2597 38.2846C70.3049 38.1265 70.3531 38.0053 70.4673 37.8843C70.6954 37.6429 70.914 37.4 71.1469 37.167C71.331 36.9829 71.5938 36.8414 71.7548 36.6535C72.0231 36.3405 72.421 36.2412 72.7138 35.9777C73.0638 35.6627 73.8216 35.3321 74.2731 35.3321" stroke="#F3D054" stroke-linecap="round"/>
<path d="M82.3341 39.6812C82.4366 39.6926 82.5438 39.8684 82.6001 39.9471C82.6572 40.0272 82.7599 40.0746 82.7877 40.1583C82.7978 40.1883 82.9239 40.3148 82.9536 40.3444C83.0253 40.4162 83.0995 40.5293 83.1788 40.5822" stroke="#FF3D95" stroke-linecap="round"/>
<path d="M83.404 40.6103C83.4501 40.5694 83.5198 40.6041 83.5448 40.554" stroke="#FF3D95" stroke-linecap="round"/>
<path d="M83.7701 40.5822C84.0462 40.391 84.2929 40.1221 84.5177 39.8768C84.6777 39.7022 84.9799 39.6717 85.1903 39.5952C85.6332 39.4342 86.0153 39.1935 86.4166 38.9492" stroke="#FF3D95" stroke-linecap="round"/>
<path d="M84.3331 40.3851C84.4364 39.9464 84.8528 39.5958 85.1621 39.3027C85.409 39.0689 85.6329 38.8478 85.9192 38.6614C86.2084 38.4731 86.4942 38.2709 86.8108 38.1108C87.3681 37.8291 88.0121 37.7479 88.6127 37.5978" stroke="#FF3D95" stroke-linecap="round"/>
<path d="M68.9199 40.1053C69.0175 39.78 69.618 39.3097 69.8617 39.0776C70.2451 38.7125 70.6031 38.3326 71.0072 37.9862C71.5725 37.5016 72.1869 37.1137 72.8845 36.8408C73.2158 36.7111 73.5462 36.6445 73.8772 36.5226C74.072 36.4508 74.2556 36.3902 74.4627 36.3826C74.6917 36.3741 74.8992 36.2108 75.134 36.2108C75.9493 36.2108 76.8063 36.1535 77.6381 36.1535C78.0819 36.1535 78.5656 36.2558 78.9713 36.443C79.2949 36.5924 79.8344 36.7621 80.0818 37.0094C80.5265 37.4542 81.127 37.7974 81.5772 38.2726C82.2945 39.0297 82.9451 39.8628 83.41 40.7926" stroke="#FF3D95" stroke-linecap="round"/>
<path d="M83.5246 40.1626C83.9451 40.0224 84.3462 39.734 84.7019 39.4753C85.0117 39.25 85.2274 38.9086 85.5323 38.699C86.4967 38.036 87.596 37.5938 88.7237 37.2862C90.268 36.8651 91.9733 36.6117 93.5792 36.6117C94.6725 36.6117 95.6185 36.9595 96.6369 37.2989C97.131 37.4636 97.6061 37.766 98.0719 37.999C98.2762 38.1011 98.5071 38.2715 98.6447 38.4571C98.8096 38.6797 99.2488 38.9427 99.332 39.1921C99.4467 39.5364 99.8731 39.6381 100.022 39.9367C100.085 40.0614 100.249 40.0644 100.306 40.1912C100.386 40.3731 100.606 40.4498 100.707 40.6208C100.909 40.965 101.227 41.2881 101.464 41.6199C101.666 41.9024 101.934 42.22 102.094 42.5108C102.208 42.7178 102.445 42.8946 102.539 43.0835" stroke="#FF3D95" stroke-linecap="round"/>
</g>
<path d="M64.7908 35.6277C64.9142 35.6277 64.9834 35.6856 65.0853 35.75C65.3215 35.8991 65.5968 36.0428 65.8524 36.1557C66.1141 36.2713 66.338 36.4558 66.5917 36.5893C66.7748 36.6857 66.9189 36.8163 67.0808 36.9283C67.1876 37.0023 67.2951 37.0882 67.4032 37.1562C67.4819 37.2058 67.5704 37.1711 67.6533 37.2285C67.8838 37.3881 67.9749 37.5409 68.2203 37.3397C68.4079 37.1859 68.5021 36.9778 68.7039 36.8283C68.9242 36.6651 69.0954 36.4019 69.3431 36.278C69.733 36.0831 70.1134 35.884 70.527 35.7444C70.8954 35.6201 71.2628 35.4867 71.6165 35.3275C71.8677 35.2145 72.1437 35.1893 72.3947 35.0774C72.5558 35.0055 72.7148 34.9637 72.8894 34.9384C72.9398 34.9311 73.0699 34.9245 73.0339 34.8884C72.9582 34.8127 72.6499 34.9566 72.5725 34.9773C72.2254 35.0702 71.8985 35.2308 71.5498 35.3164C70.9672 35.4595 70.3443 35.4578 69.7822 35.6777C69.2114 35.901 68.7914 36.1265 68.3426 36.5281C68.0478 36.7919 67.6979 37.1559 67.292 37.1785C67.1026 37.189 66.9441 37.2538 66.7418 37.2174C66.37 37.1505 66.7453 37.1482 66.8918 37.2785C67.1604 37.5172 67.4742 37.2497 67.7089 37.0895C68.0831 36.8341 68.4674 36.6032 68.8039 36.2891C69.2536 35.8695 69.9906 35.6215 70.5437 35.3887C70.6448 35.3461 70.7732 35.3689 70.8828 35.3275C71.0954 35.2472 71.3152 35.1815 71.5442 35.1774C71.9531 35.1701 72.3455 35.0823 72.7504 35.0774C73.3601 35.07 73.9351 34.8909 74.5347 34.8773C75.038 34.8659 75.5431 34.8773 76.0465 34.8773C76.4283 34.8773 76.8155 34.8582 77.1971 34.8773C77.3257 34.8837 77.4204 34.9727 77.5584 34.9773C77.7388 34.9835 77.8856 35.0509 78.0587 35.0885C78.6347 35.2137 79.1593 35.5075 79.7207 35.6777C80.4676 35.9042 81.1923 36.1887 81.9496 36.3781" stroke="#F3D054" stroke-linecap="round"/>
<path d="M64.4527 36.6117C64.9179 36.6117 65.2438 36.9175 65.6586 37.0731C65.8703 37.1525 66.0629 37.3032 66.2599 37.4135C66.5276 37.5634 66.7608 37.6227 66.9599 37.8717C67.289 38.283 67.6638 38.7283 68.0354 39.0999C68.3213 39.3858 68.6795 39.7963 68.8627 40.1626" stroke="#FF3D95" stroke-linecap="round"/>
<path d="M64.0517 36.3826C64.6409 36.3826 65.2301 36.3687 65.7699 36.6244C66.1902 36.8235 66.5763 37.2264 66.9599 37.5026C67.8317 38.1303 68.6215 38.9629 69.2635 39.8189" stroke="#FF3D95" stroke-linecap="round"/>
<defs>
<radialGradient id="paint0_radial_15_139" cx="0" cy="0" r="1" gradientUnits="userSpaceOnUse" gradientTransform="translate(69.5 59.5) scale(61.5 19.5)">
<stop offset="0.23" stop-color="#FF95DA"/>
<stop offset="0.45" stop-color="#FD93D8"/>
<stop offset="0.695" stop-color="#FC93D7"/>
<stop offset="0.881" stop-color="#FD63B6"/>
<stop offset="1" stop-color="#FF3B93"/>
</radialGradient>
<clipPath id="clip0_15_139">
<rect width="70" height="53" fill="white" transform="translate(4 31)"/>
</clipPath>
<clipPath id="clip1_15_139">
<rect width="70" height="53" fill="white" transform="matrix(-0.999812 -0.0193732 -0.0193732 0.999812 135.072 31.3748)"/>
</clipPath>
</defs>
</svg>
