<svg width="123" height="79" viewBox="0 0 123 79" fill="none" xmlns="http://www.w3.org/2000/svg">
<path d="M122.5 59.5C122.5 61.9625 120.925 64.3976 117.867 66.6902C114.818 68.9763 110.373 71.0563 104.836 72.812C93.7677 76.3214 78.446 78.5 61.5 78.5C44.554 78.5 29.2323 76.3214 18.1641 72.812C12.627 71.0563 8.18245 68.9763 5.13288 66.6902C2.07456 64.3976 0.5 61.9625 0.5 59.5C0.5 57.0375 2.07456 54.6024 5.13288 52.3098C8.18245 50.0237 12.627 47.9437 18.1641 46.188C29.2323 42.6786 44.554 40.5 61.5 40.5C78.446 40.5 93.7677 42.6786 104.836 46.188C110.373 47.9437 114.818 50.0237 117.867 52.3098C120.925 54.6024 122.5 57.0375 122.5 59.5Z" fill="#AEE8FF"/>
<path d="M122.5 59.5C122.5 61.9625 120.925 64.3976 117.867 66.6902C114.818 68.9763 110.373 71.0563 104.836 72.812C93.7677 76.3214 78.446 78.5 61.5 78.5C44.554 78.5 29.2323 76.3214 18.1641 72.812C12.627 71.0563 8.18245 68.9763 5.13288 66.6902C2.07456 64.3976 0.5 61.9625 0.5 59.5C0.5 57.0375 2.07456 54.6024 5.13288 52.3098C8.18245 50.0237 12.627 47.9437 18.1641 46.188C29.2323 42.6786 44.554 40.5 61.5 40.5C78.446 40.5 93.7677 42.6786 104.836 46.188C110.373 47.9437 114.818 50.0237 117.867 52.3098C120.925 54.6024 122.5 57.0375 122.5 59.5Z" stroke="black" stroke-linejoin="round"/>
<path d="M122.5 59.5C122.5 61.9625 120.925 64.3976 117.867 66.6902C114.818 68.9763 110.373 71.0563 104.836 72.812C93.7677 76.3214 78.446 78.5 61.5 78.5C44.554 78.5 29.2323 76.3214 18.1641 72.812C12.627 71.0563 8.18245 68.9763 5.13288 66.6902C2.07456 64.3976 0.5 61.9625 0.5 59.5C0.5 57.0375 2.07456 54.6024 5.13288 52.3098C8.18245 50.0237 12.627 47.9437 18.1641 46.188C29.2323 42.6786 44.554 40.5 61.5 40.5C78.446 40.5 93.7677 42.6786 104.836 46.188C110.373 47.9437 114.818 50.0237 117.867 52.3098C120.925 54.6024 122.5 57.0375 122.5 59.5Z" stroke="#AEE8FF" stroke-linejoin="round"/>
<path d="M10.0585 59.9919C10.2558 61.9647 14.6965 65.658 16.5347 65.8549C17.8591 65.9968 18.7827 67.1861 20.1368 67.2345C21.5989 67.2867 23.0365 67.9834 24.3521 68.5374C26.5469 69.4615 29.4182 69.3064 31.7097 70.0702C32.9861 70.4957 33.7254 70.9731 35.1586 71.0283C35.8893 71.0564 37.2821 71.2912 37.9944 71.5456C39.4088 72.0508 40.9442 72.7527 42.4587 72.7527C43.8473 72.7527 44.966 72.688 46.2525 73.2509C47.2646 73.6936 48.9658 73.6667 50.0846 73.8065C51.8038 74.0214 53.4183 74.1322 55.1621 74.1322C58.5856 74.1322 61.9858 74.4771 65.5087 74.4771C68.6139 74.4771 71.6468 74.1322 74.7057 74.1322C80.2699 74.1322 85.4083 71.227 90.9154 70.7025C93.5991 70.4469 96.3503 69.5335 99.0394 68.7865C101.36 68.142 103.78 67.51 105.861 66.1998C106.7 65.6711 107.793 65.6199 108.696 65.0885C109.458 64.6403 110.151 63.944 110.919 63.5174C113.1 62.3055 113.222 60.9654 113.85 58.7656C115.122 54.3152 108.823 52.4679 105.937 51.0248" stroke="white" stroke-linecap="round"/>
<path d="M10.8545 55.0227C10.8545 53.5798 14.9868 51.5695 16.3903 51.0855C18.3747 50.4013 20.2261 49.6246 22.3109 49.1613C23.2219 48.9589 24.4189 49.1133 25.2564 48.7469C25.8716 48.4777 26.8765 47.9558 27.4914 47.844C28.8294 47.6007 30.2903 47.0299 31.6359 47.0299" stroke="white" stroke-linecap="round"/>
<rect x="13" y="8" width="99" height="20" rx="10" fill="#F5E19A"/>
<path d="M34.1893 21.46C34.0793 21.47 34.0093 21.465 33.9793 21.445C33.9493 21.425 33.9193 21.37 33.8893 21.28C33.8493 21.17 33.8143 21.07 33.7843 20.98C33.7643 20.88 33.7343 20.745 33.6943 20.575C33.6843 20.555 33.6893 20.53 33.7093 20.5C33.7293 20.47 33.7643 20.46 33.8143 20.47C33.9743 20.49 34.2343 20.505 34.5943 20.515C34.9643 20.525 35.3793 20.525 35.8393 20.515C35.8293 19.915 35.8193 19.32 35.8093 18.73C35.7993 18.14 35.7843 17.575 35.7643 17.035C35.7443 16.655 35.7093 16.345 35.6593 16.105C35.6193 15.855 35.5743 15.68 35.5243 15.58C35.5043 15.53 35.5043 15.495 35.5243 15.475C35.5543 15.445 35.5893 15.43 35.6293 15.43H36.6193C36.6693 15.43 36.6993 15.445 36.7093 15.475C36.7193 15.495 36.7243 15.53 36.7243 15.58C36.7143 15.8 36.7093 16.05 36.7093 16.33C36.7093 16.6 36.7093 16.915 36.7093 17.275L36.6943 20.5C36.8343 20.5 37.0143 20.495 37.2343 20.485C37.4543 20.475 37.6793 20.465 37.9093 20.455C38.1493 20.435 38.3643 20.42 38.5543 20.41C38.7543 20.4 38.8993 20.39 38.9893 20.38C39.0093 19.87 39.0343 19.33 39.0643 18.76C39.0943 18.18 39.1143 17.62 39.1243 17.08C39.1443 16.7 39.1393 16.35 39.1093 16.03C39.0893 15.71 39.0543 15.5 39.0043 15.4C38.9843 15.35 38.9843 15.315 39.0043 15.295C39.0343 15.265 39.0693 15.25 39.1093 15.25C39.1893 15.25 39.3343 15.255 39.5443 15.265C39.7643 15.265 39.9643 15.275 40.1443 15.295C40.2143 15.295 40.2393 15.345 40.2193 15.445C40.1793 15.845 40.1493 16.18 40.1293 16.45C40.1093 16.71 40.0893 17.02 40.0693 17.38C40.0593 17.49 40.0443 17.665 40.0243 17.905C40.0043 18.135 39.9843 18.395 39.9643 18.685C39.9543 18.975 39.9393 19.265 39.9193 19.555C39.8993 19.845 39.8843 20.095 39.8743 20.305C40.3143 20.255 40.7393 20.195 41.1493 20.125C41.5693 20.045 41.9643 19.95 42.3343 19.84C42.4043 19.81 42.4493 19.835 42.4693 19.915L42.5443 20.335C42.5543 20.415 42.5443 20.47 42.5143 20.5C42.4943 20.53 42.4543 20.555 42.3943 20.575C42.3943 20.585 42.3893 20.59 42.3793 20.59C42.1693 20.66 41.8493 20.73 41.4193 20.8C40.9893 20.87 40.5043 20.935 39.9643 20.995C39.4343 21.055 38.9043 21.11 38.3743 21.16C37.8543 21.2 37.3943 21.235 36.9943 21.265C36.4543 21.305 35.9343 21.34 35.4343 21.37C34.9343 21.4 34.5193 21.43 34.1893 21.46ZM43.1743 25.15C43.1343 25.15 43.1143 25.125 43.1143 25.075V14.245C43.1143 13.865 43.0993 13.515 43.0693 13.195C43.0493 12.865 43.0143 12.65 42.9643 12.55C42.9443 12.5 42.9443 12.465 42.9643 12.445C42.9943 12.415 43.0293 12.4 43.0693 12.4C43.1293 12.4 43.2293 12.405 43.3693 12.415C43.5193 12.415 43.6643 12.42 43.8043 12.43C43.9443 12.43 44.0243 12.43 44.0443 12.43C44.0943 12.43 44.1193 12.47 44.1193 12.55C44.0893 12.92 44.0693 13.245 44.0593 13.525C44.0593 13.795 44.0593 14.11 44.0593 14.47V17.98C44.3293 17.98 44.6193 17.97 44.9293 17.95C45.2493 17.92 45.5443 17.89 45.8143 17.86C46.0943 17.82 46.3043 17.78 46.4443 17.74C46.5343 17.73 46.5843 17.76 46.5943 17.83C46.6143 17.96 46.6293 18.09 46.6393 18.22C46.6493 18.35 46.6593 18.48 46.6693 18.61C46.6693 18.72 46.6243 18.775 46.5343 18.775C46.3843 18.755 46.1643 18.745 45.8743 18.745C45.5943 18.745 45.2943 18.745 44.9743 18.745C44.6543 18.745 44.3493 18.75 44.0593 18.76V24.775C44.0593 24.925 44.0493 25.015 44.0293 25.045C44.0193 25.075 43.9893 25.095 43.9393 25.105L43.1743 25.15ZM34.5793 14.935C34.4793 14.955 34.4143 14.95 34.3843 14.92C34.3543 14.88 34.3293 14.83 34.3093 14.77C34.2993 14.76 34.2943 14.75 34.2943 14.74C34.2543 14.63 34.2193 14.53 34.1893 14.44C34.1693 14.34 34.1493 14.225 34.1293 14.095C34.1193 14.025 34.1593 13.99 34.2493 13.99C34.5293 14.01 34.8293 14.025 35.1493 14.035C35.4693 14.045 35.8693 14.045 36.3493 14.035C36.8193 14.035 37.3093 14.025 37.8193 14.005C38.3393 13.975 38.7693 13.95 39.1093 13.93C39.4393 13.91 39.7893 13.885 40.1593 13.855C40.5293 13.815 40.9043 13.77 41.2843 13.72C41.3143 13.71 41.3493 13.715 41.3893 13.735C41.4293 13.745 41.4543 13.775 41.4643 13.825C41.4843 13.925 41.5043 14.045 41.5243 14.185C41.5443 14.315 41.5593 14.425 41.5693 14.515C41.5893 14.625 41.5293 14.68 41.3893 14.68C41.1993 14.67 40.9743 14.665 40.7143 14.665C40.4643 14.665 40.2393 14.665 40.0393 14.665C39.8193 14.665 39.5143 14.67 39.1243 14.68C38.7443 14.69 38.3493 14.705 37.9393 14.725C37.5293 14.735 37.1643 14.745 36.8443 14.755C36.5243 14.765 36.3143 14.775 36.2143 14.785C35.9643 14.795 35.6893 14.815 35.3893 14.845C35.0993 14.875 34.8293 14.905 34.5793 14.935ZM49.1547 20.5C48.9347 20.49 48.7647 20.38 48.6447 20.17C48.5247 19.96 48.4647 19.695 48.4647 19.375V17.86C48.4647 17.66 48.4597 17.46 48.4497 17.26C48.4397 17.05 48.3997 16.845 48.3297 16.645C48.2797 16.525 48.3247 16.475 48.4647 16.495C48.5847 16.505 48.7997 16.51 49.1097 16.51C49.4197 16.51 49.7697 16.505 50.1597 16.495C50.5597 16.485 50.9497 16.475 51.3297 16.465C51.7097 16.445 52.0347 16.425 52.3047 16.405C52.5747 16.375 52.7297 16.35 52.7697 16.33C52.7997 16.04 52.8297 15.735 52.8597 15.415C52.8897 15.085 52.9097 14.76 52.9197 14.44C52.9197 14.38 52.8947 14.35 52.8447 14.35C52.4147 14.35 51.9947 14.365 51.5847 14.395C51.1847 14.415 50.7747 14.435 50.3547 14.455C50.1147 14.475 49.8547 14.495 49.5747 14.515C49.2947 14.535 49.0347 14.555 48.7947 14.575C48.6847 14.585 48.6147 14.58 48.5847 14.56C48.5647 14.53 48.5447 14.485 48.5247 14.425L48.3597 13.84C48.3497 13.82 48.3547 13.8 48.3747 13.78C48.3947 13.75 48.4197 13.74 48.4497 13.75C48.5197 13.76 48.6897 13.765 48.9597 13.765C49.2297 13.765 49.5547 13.76 49.9347 13.75C50.3147 13.74 50.7047 13.725 51.1047 13.705C51.5047 13.685 51.8697 13.665 52.1997 13.645C52.5397 13.615 52.7997 13.58 52.9797 13.54C53.0397 13.53 53.0797 13.525 53.0997 13.525C53.1297 13.525 53.1597 13.53 53.1897 13.54C53.1997 13.54 53.2097 13.54 53.2197 13.54L53.9097 13.72C53.9697 13.73 53.9897 13.77 53.9697 13.84C53.9497 13.96 53.9147 14.145 53.8647 14.395C53.8147 14.635 53.7797 14.84 53.7597 15.01L53.5197 16.975C53.5097 17.065 53.4597 17.11 53.3697 17.11C53.2597 17.11 53.0747 17.115 52.8147 17.125C52.5547 17.125 52.2547 17.135 51.9147 17.155C51.5847 17.165 51.2497 17.18 50.9097 17.2C50.5697 17.21 50.2647 17.225 49.9947 17.245C49.7247 17.255 49.5297 17.265 49.4097 17.275V19.33C49.4097 19.43 49.4247 19.5 49.4547 19.54C49.4947 19.57 49.5397 19.59 49.5897 19.6C49.8997 19.62 50.3147 19.615 50.8347 19.585C51.3547 19.555 51.9197 19.5 52.5297 19.42C53.1397 19.33 53.7397 19.215 54.3297 19.075C54.9197 18.935 55.4347 18.765 55.8747 18.565C55.9747 18.525 56.0297 18.535 56.0397 18.595L56.1147 19.135C56.1247 19.235 56.0747 19.31 55.9647 19.36C55.6247 19.51 55.1847 19.655 54.6447 19.795C54.1047 19.925 53.5097 20.045 52.8597 20.155C52.2197 20.255 51.5747 20.34 50.9247 20.41C50.2847 20.47 49.6947 20.5 49.1547 20.5ZM56.7447 22.375C56.7047 22.375 56.6847 22.35 56.6847 22.3V14.23C56.6847 13.85 56.6697 13.5 56.6397 13.18C56.6197 12.86 56.5847 12.65 56.5347 12.55C56.5147 12.5 56.5147 12.465 56.5347 12.445C56.5647 12.415 56.5997 12.4 56.6397 12.4C56.7797 12.4 56.9447 12.4 57.1347 12.4C57.3247 12.4 57.4847 12.405 57.6147 12.415C57.6647 12.415 57.6897 12.455 57.6897 12.535C57.6597 12.905 57.6397 13.23 57.6297 13.51C57.6297 13.78 57.6297 14.095 57.6297 14.455V16.9C57.8997 16.9 58.1947 16.89 58.5147 16.87C58.8347 16.85 59.1297 16.825 59.3997 16.795C59.6797 16.765 59.8897 16.73 60.0297 16.69C60.1197 16.68 60.1697 16.71 60.1797 16.78C60.1997 16.91 60.2097 17.04 60.2097 17.17C60.2197 17.3 60.2297 17.43 60.2397 17.56C60.2397 17.67 60.1947 17.725 60.1047 17.725C59.9647 17.705 59.7497 17.695 59.4597 17.695C59.1697 17.685 58.8597 17.68 58.5297 17.68C58.2097 17.68 57.9097 17.69 57.6297 17.71V22C57.6297 22.15 57.6197 22.24 57.5997 22.27C57.5897 22.3 57.5597 22.32 57.5097 22.33L56.7447 22.375ZM51.9147 25.75C51.5947 25.75 51.3497 25.63 51.1797 25.39C51.0197 25.16 50.9397 24.83 50.9397 24.4V23.365C50.9397 23.015 50.9247 22.725 50.8947 22.495C50.8647 22.265 50.8347 22.1 50.8047 22C50.7747 21.9 50.8097 21.85 50.9097 21.85C50.9697 21.85 51.0697 21.855 51.2097 21.865C51.3597 21.865 51.4997 21.87 51.6297 21.88C51.7697 21.89 51.8447 21.895 51.8547 21.895C51.9047 21.895 51.9297 21.945 51.9297 22.045C51.9097 22.275 51.8947 22.48 51.8847 22.66C51.8847 22.83 51.8847 23.045 51.8847 23.305V24.31C51.8847 24.56 51.9147 24.735 51.9747 24.835C52.0447 24.925 52.1547 24.975 52.3047 24.985C52.5847 24.995 52.9247 25 53.3247 25C53.7347 25.01 54.1597 25.01 54.5997 25C55.0497 24.98 55.4747 24.96 55.8747 24.94C56.2947 24.92 56.7297 24.885 57.1797 24.835C57.6297 24.775 57.9747 24.715 58.2147 24.655C58.3147 24.635 58.3797 24.64 58.4097 24.67C58.4397 24.7 58.4597 24.74 58.4697 24.79L58.5897 25.495C58.5897 25.545 58.5747 25.585 58.5447 25.615C58.5247 25.645 58.4447 25.66 58.3047 25.66C57.3147 25.66 56.2947 25.675 55.2447 25.705C54.1947 25.735 53.0847 25.75 51.9147 25.75ZM69.3106 25.9C69.2906 25.9 69.2656 25.895 69.2356 25.885C69.2056 25.875 69.1906 25.845 69.1906 25.795C69.1906 25.755 69.1906 25.695 69.1906 25.615C69.1906 25.545 69.1906 25.465 69.1906 25.375C69.1906 25.105 69.1906 24.765 69.1906 24.355C69.1906 23.945 69.1906 23.54 69.1906 23.14C69.1906 22.74 69.1856 22.405 69.1756 22.135C69.1656 21.875 69.1456 21.62 69.1156 21.37C69.0856 21.12 69.0556 20.945 69.0256 20.845C68.9956 20.745 69.0306 20.695 69.1306 20.695L70.0906 20.71C70.1406 20.71 70.1656 20.745 70.1656 20.815C70.1556 21.045 70.1456 21.29 70.1356 21.55C70.1356 21.8 70.1356 22.065 70.1356 22.345C70.3156 22.355 70.5756 22.36 70.9156 22.36C71.2556 22.36 71.6306 22.36 72.0406 22.36C72.4506 22.36 72.8656 22.355 73.2856 22.345C73.7056 22.335 74.0906 22.325 74.4406 22.315C74.8006 22.295 75.0856 22.28 75.2956 22.27V21.85C75.2956 21.51 75.2856 21.25 75.2656 21.07C75.2556 20.88 75.2306 20.74 75.1906 20.65C75.1706 20.6 75.1706 20.565 75.1906 20.545C75.2206 20.515 75.2556 20.5 75.2956 20.5H76.2106C76.2606 20.5 76.2856 20.53 76.2856 20.59C76.2756 20.82 76.2656 21.065 76.2556 21.325C76.2556 21.575 76.2556 21.915 76.2556 22.345V25.645C76.2556 25.775 76.1806 25.84 76.0306 25.84L70.1056 25.855C70.0056 25.855 69.8556 25.86 69.6556 25.87C69.4556 25.89 69.3406 25.9 69.3106 25.9ZM65.9656 20.11L65.5906 19.78C65.5506 19.74 65.5706 19.69 65.6506 19.63C66.3906 19.15 67.0256 18.61 67.5556 18.01C68.0856 17.4 68.4956 16.775 68.7856 16.135C69.0856 15.495 69.2456 14.89 69.2656 14.32C69.1256 14.33 68.9756 14.34 68.8156 14.35C68.6556 14.36 68.4756 14.375 68.2756 14.395C67.9756 14.415 67.7156 14.435 67.4956 14.455C67.2856 14.475 67.0456 14.505 66.7756 14.545C66.6756 14.555 66.6106 14.545 66.5806 14.515C66.5506 14.475 66.5256 14.43 66.5056 14.38C66.4956 14.37 66.4906 14.36 66.4906 14.35C66.4606 14.27 66.4306 14.18 66.4006 14.08C66.3806 13.98 66.3556 13.865 66.3256 13.735C66.3156 13.715 66.3206 13.69 66.3406 13.66C66.3606 13.63 66.3956 13.615 66.4456 13.615C66.6856 13.625 66.9506 13.64 67.2406 13.66C67.5306 13.67 67.8206 13.67 68.1106 13.66C68.5506 13.64 68.9956 13.625 69.4456 13.615C69.9056 13.595 70.3656 13.565 70.8256 13.525C71.1956 13.505 71.5456 13.475 71.8756 13.435C72.2056 13.395 72.5006 13.35 72.7606 13.3C72.7906 13.29 72.8256 13.295 72.8656 13.315C72.9056 13.325 72.9306 13.355 72.9406 13.405C72.9606 13.475 72.9806 13.58 73.0006 13.72C73.0206 13.85 73.0356 13.975 73.0456 14.095C73.0456 14.205 72.9856 14.26 72.8656 14.26C72.7656 14.26 72.6656 14.26 72.5656 14.26C72.4656 14.26 72.3606 14.26 72.2506 14.26C72.0406 14.26 71.8256 14.26 71.6056 14.26C71.3856 14.25 71.1556 14.25 70.9156 14.26C70.8156 14.26 70.7156 14.265 70.6156 14.275C70.5256 14.275 70.4356 14.275 70.3456 14.275C70.3056 14.535 70.2356 14.835 70.1356 15.175C70.0456 15.515 69.9056 15.875 69.7156 16.255C70.1156 16.545 70.5256 16.865 70.9456 17.215C71.3756 17.565 71.7656 17.89 72.1156 18.19C72.4656 18.48 72.7106 18.7 72.8506 18.85C72.9006 18.89 72.9356 18.94 72.9556 19C72.9756 19.06 72.9606 19.125 72.9106 19.195C72.8906 19.225 72.8406 19.28 72.7606 19.36C72.6806 19.44 72.6006 19.52 72.5206 19.6C72.4406 19.67 72.3806 19.72 72.3406 19.75C72.2606 19.8 72.1956 19.795 72.1456 19.735C71.9556 19.465 71.7006 19.15 71.3806 18.79C71.0606 18.43 70.7256 18.075 70.3756 17.725C70.0256 17.375 69.6956 17.085 69.3856 16.855C69.0756 17.385 68.6906 17.925 68.2306 18.475C67.7706 19.025 67.1706 19.565 66.4306 20.095C66.4306 20.095 66.4256 20.1 66.4156 20.11C66.3556 20.14 66.2856 20.17 66.2056 20.2C66.1356 20.22 66.0556 20.19 65.9656 20.11ZM70.1356 25C70.2356 25.01 70.4556 25.015 70.7956 25.015C71.1456 25.025 71.5506 25.03 72.0106 25.03C72.4806 25.03 72.9456 25.025 73.4056 25.015C73.8656 25.015 74.2706 25.01 74.6206 25C74.9706 24.99 75.1956 24.98 75.2956 24.97V23.095C75.0256 23.095 74.6706 23.095 74.2306 23.095C73.7906 23.095 73.3156 23.1 72.8056 23.11C72.3056 23.11 71.8156 23.115 71.3356 23.125C70.8656 23.125 70.4656 23.13 70.1356 23.14V25ZM75.3406 19.675C75.3006 19.675 75.2806 19.65 75.2806 19.6V16.75C75.1006 16.76 74.9256 16.77 74.7556 16.78C74.5856 16.79 74.4256 16.8 74.2756 16.81C74.0356 16.82 73.7606 16.845 73.4506 16.885C73.1406 16.915 72.8656 16.945 72.6256 16.975C72.5156 16.995 72.4406 16.99 72.4006 16.96C72.3606 16.93 72.3306 16.885 72.3106 16.825C72.2706 16.695 72.2356 16.575 72.2056 16.465C72.1856 16.345 72.1656 16.235 72.1456 16.135C72.1456 16.055 72.1856 16.025 72.2656 16.045C72.4256 16.065 72.6756 16.08 73.0156 16.09C73.3656 16.09 73.7456 16.085 74.1556 16.075C74.5656 16.055 74.9406 16.035 75.2806 16.015V14.23C75.2806 13.85 75.2656 13.5 75.2356 13.18C75.2156 12.86 75.1806 12.65 75.1306 12.55C75.1106 12.5 75.1106 12.465 75.1306 12.445C75.1606 12.415 75.1956 12.4 75.2356 12.4C75.3256 12.4 75.4656 12.4 75.6556 12.4C75.8556 12.4 76.0406 12.405 76.2106 12.415C76.2606 12.415 76.2856 12.455 76.2856 12.535C76.2556 12.905 76.2356 13.23 76.2256 13.51C76.2256 13.78 76.2256 14.095 76.2256 14.455V19.3C76.2256 19.45 76.2156 19.54 76.1956 19.57C76.1856 19.6 76.1556 19.62 76.1056 19.63L75.3406 19.675ZM78.5938 21.52L78.1888 21.175C78.1488 21.135 78.1638 21.09 78.2338 21.04C78.2438 21.03 78.2488 21.025 78.2488 21.025C78.9388 20.515 79.5688 19.945 80.1388 19.315C80.7088 18.675 81.1938 18.015 81.5938 17.335C82.0038 16.655 82.2988 15.995 82.4788 15.355C82.5588 15.065 82.6338 14.74 82.7038 14.38C82.7738 14.02 82.8088 13.745 82.8088 13.555C82.8088 13.495 82.8238 13.455 82.8538 13.435C82.8838 13.405 82.9138 13.4 82.9438 13.42L83.9788 13.675C84.0288 13.685 84.0488 13.74 84.0388 13.84C83.9988 13.98 83.9388 14.165 83.8588 14.395C83.7788 14.625 83.6988 14.86 83.6188 15.1C83.5388 15.33 83.4688 15.53 83.4088 15.7C83.3288 15.9 83.2388 16.115 83.1388 16.345C83.0388 16.565 82.9288 16.795 82.8088 17.035C83.2888 17.395 83.7838 17.78 84.2938 18.19C84.8038 18.6 85.2688 18.985 85.6888 19.345C86.1088 19.705 86.4238 20 86.6338 20.23C86.6738 20.28 86.7038 20.34 86.7238 20.41C86.7538 20.47 86.7438 20.535 86.6938 20.605C86.6038 20.715 86.5038 20.815 86.3938 20.905C86.2938 20.995 86.1888 21.085 86.0788 21.175C86.0188 21.225 85.9688 21.215 85.9288 21.145C85.7688 20.905 85.5538 20.63 85.2838 20.32C85.0138 20.01 84.7138 19.69 84.3838 19.36C84.0638 19.03 83.7338 18.715 83.3938 18.415C83.0638 18.115 82.7538 17.855 82.4638 17.635C82.0938 18.255 81.6288 18.9 81.0688 19.57C80.5188 20.23 79.8488 20.875 79.0588 21.505C79.0088 21.545 78.9388 21.58 78.8488 21.61C78.7688 21.64 78.6838 21.61 78.5938 21.52ZM88.1638 25.15C88.1238 25.15 88.1038 25.125 88.1038 25.075V14.245C88.1038 13.865 88.0888 13.515 88.0588 13.195C88.0388 12.865 88.0038 12.65 87.9538 12.55C87.9338 12.5 87.9338 12.465 87.9538 12.445C87.9838 12.415 88.0188 12.4 88.0588 12.4C88.1188 12.4 88.2188 12.405 88.3588 12.415C88.5088 12.415 88.6538 12.42 88.7938 12.43C88.9338 12.43 89.0138 12.43 89.0338 12.43C89.0838 12.43 89.1088 12.47 89.1088 12.55C89.0788 12.92 89.0588 13.245 89.0488 13.525C89.0488 13.795 89.0488 14.11 89.0488 14.47V24.775C89.0488 24.925 89.0388 25.015 89.0188 25.045C89.0088 25.075 88.9788 25.095 88.9288 25.105L88.1638 25.15Z" fill="black"/>
</svg>
