<svg width="28" height="27" viewBox="0 0 28 27" fill="none" xmlns="http://www.w3.org/2000/svg">
<path d="M5.1975 0.63C5.3618 0.432422 5.56577 0.273799 5.79536 0.165044C6.02495 0.0562888 6.27473 -1.71012e-05 6.5275 3.89607e-09H21.4725C21.7253 -1.71012e-05 21.975 0.0562888 22.2046 0.165044C22.4342 0.273799 22.6382 0.432422 22.8025 0.63L27.3683 6.1092C27.7759 6.5985 28 7.22162 28 7.866V8.325C28.0001 9.21596 27.7296 10.0847 27.2262 10.8098C26.7228 11.5348 26.0118 12.08 25.1924 12.3691C24.3731 12.6583 23.4864 12.6768 22.6563 12.4223C21.8262 12.1677 21.0942 11.6528 20.5625 10.9494C20.1743 11.4639 19.6768 11.8801 19.108 12.1662C18.5393 12.4524 17.9144 12.6007 17.2812 12.6C16.6481 12.6007 16.0232 12.4524 15.4545 12.1662C14.8857 11.8801 14.3882 11.4639 14 10.9494C13.6118 11.4639 13.1143 11.8801 12.5455 12.1662C11.9768 12.4524 11.3519 12.6007 10.7188 12.6C10.0856 12.6007 9.46072 12.4524 8.89195 12.1662C8.32319 11.8801 7.82566 11.4639 7.4375 10.9494C6.90583 11.6528 6.17379 12.1677 5.34369 12.4223C4.51359 12.6768 3.6269 12.6583 2.80757 12.3691C1.98823 12.08 1.27719 11.5348 0.773819 10.8098C0.270448 10.0847 -9.55475e-05 9.21596 2.53129e-08 8.325V7.866C2.20632e-05 7.22162 0.224099 6.5985 0.63175 6.1092L5.1975 0.63ZM8.3125 8.325C8.3125 8.98141 8.56601 9.61094 9.01727 10.0751C9.46853 10.5392 10.0806 10.8 10.7188 10.8C11.3569 10.8 11.969 10.5392 12.4202 10.0751C12.8715 9.61094 13.125 8.98141 13.125 8.325C13.125 8.0863 13.2172 7.85739 13.3813 7.6886C13.5454 7.51982 13.7679 7.425 14 7.425C14.2321 7.425 14.4546 7.51982 14.6187 7.6886C14.7828 7.85739 14.875 8.0863 14.875 8.325C14.875 8.98141 15.1285 9.61094 15.5798 10.0751C16.031 10.5392 16.6431 10.8 17.2812 10.8C17.9194 10.8 18.5315 10.5392 18.9827 10.0751C19.434 9.61094 19.6875 8.98141 19.6875 8.325C19.6875 8.0863 19.7797 7.85739 19.9438 7.6886C20.1079 7.51982 20.3304 7.425 20.5625 7.425C20.7946 7.425 21.0171 7.51982 21.1812 7.6886C21.3453 7.85739 21.4375 8.0863 21.4375 8.325C21.4375 8.98141 21.691 9.61094 22.1423 10.0751C22.5935 10.5392 23.2056 10.8 23.8438 10.8C24.4819 10.8 25.094 10.5392 25.5452 10.0751C25.9965 9.61094 26.25 8.98141 26.25 8.325V7.866C26.25 7.65149 26.1755 7.44403 26.04 7.281L21.4725 1.8H6.5275L1.96 7.281C1.82446 7.44403 1.74998 7.65149 1.75 7.866V8.325C1.75 8.98141 2.00351 9.61094 2.45477 10.0751C2.90603 10.5392 3.51807 10.8 4.15625 10.8C4.79443 10.8 5.40647 10.5392 5.85773 10.0751C6.30899 9.61094 6.5625 8.98141 6.5625 8.325C6.5625 8.0863 6.65469 7.85739 6.81878 7.6886C6.98288 7.51982 7.20544 7.425 7.4375 7.425C7.66956 7.425 7.89212 7.51982 8.05622 7.6886C8.22031 7.85739 8.3125 8.0863 8.3125 8.325ZM2.625 13.5C2.85706 13.5 3.07962 13.5948 3.24372 13.7636C3.40781 13.9324 3.5 14.1613 3.5 14.4V25.2H24.5V14.4C24.5 14.1613 24.5922 13.9324 24.7563 13.7636C24.9204 13.5948 25.1429 13.5 25.375 13.5C25.6071 13.5 25.8296 13.5948 25.9937 13.7636C26.1578 13.9324 26.25 14.1613 26.25 14.4V25.2H27.125C27.3571 25.2 27.5796 25.2948 27.7437 25.4636C27.9078 25.6324 28 25.8613 28 26.1C28 26.3387 27.9078 26.5676 27.7437 26.7364C27.5796 26.9052 27.3571 27 27.125 27H0.875C0.642936 27 0.420376 26.9052 0.256282 26.7364C0.0921873 26.5676 2.53129e-08 26.3387 2.53129e-08 26.1C2.53129e-08 25.8613 0.0921873 25.6324 0.256282 25.4636C0.420376 25.2948 0.642936 25.2 0.875 25.2H1.75V14.4C1.75 14.1613 1.84219 13.9324 2.00628 13.7636C2.17038 13.5948 2.39294 13.5 2.625 13.5ZM6.125 14.4C6.35706 14.4 6.57962 14.4948 6.74372 14.6636C6.90781 14.8324 7 15.0613 7 15.3V21.6H21V15.3C21 15.0613 21.0922 14.8324 21.2563 14.6636C21.4204 14.4948 21.6429 14.4 21.875 14.4C22.1071 14.4 22.3296 14.4948 22.4937 14.6636C22.6578 14.8324 22.75 15.0613 22.75 15.3V21.6C22.75 22.0774 22.5656 22.5352 22.2374 22.8728C21.9092 23.2104 21.4641 23.4 21 23.4H7C6.53587 23.4 6.09075 23.2104 5.76256 22.8728C5.43437 22.5352 5.25 22.0774 5.25 21.6V15.3C5.25 15.0613 5.34219 14.8324 5.50628 14.6636C5.67038 14.4948 5.89294 14.4 6.125 14.4Z" fill="#FFE607"/>
<path d="M20.5859 8.38985C20.5494 8.09723 20.2658 7.90326 20.3263 7.54688C20.3624 7.3344 20.551 6.40042 20.9636 6.61961C21.7021 7.01196 21.6177 8.04381 21.6177 8.75738C21.6177 9.39011 21.482 8.26942 21.4356 8.08638C21.3813 7.87196 21.1205 6.66557 21.2198 7.53339C21.2612 7.8948 21.2808 8.30712 21.4053 8.65285C21.4718 8.83771 21.648 8.95961 21.7728 9.10469C21.9587 9.32072 22.1633 9.48705 22.3461 9.71163C22.5669 9.98289 22.8847 10.3927 23.2565 10.3927C23.6239 10.3927 23.9597 10.5324 24.3388 10.5108C24.7666 10.4863 25.452 10.4429 25.7753 10.1196C25.9252 9.96964 26.0724 9.86138 26.2035 9.67791C26.3804 9.43029 26.3519 9.16424 26.3519 8.8754C26.3519 8.64188 26.3523 8.44527 26.2777 8.22125C26.1952 7.9739 26.0752 7.73105 26.0012 7.47944C25.9339 7.25073 25.6439 7.05807 25.4718 6.90622C25.141 6.61431 24.8463 6.27593 24.5648 5.93511C24.0671 5.33263 23.6841 4.63636 23.1351 4.08732C22.7614 3.71362 22.3776 3.36154 22.0898 2.9139C21.8258 2.5033 21.443 2.16316 20.9771 2.01698C19.5975 1.58418 18.0121 1.77421 16.5835 1.77421C13.9689 1.77421 11.3563 1.8349 8.74049 1.8349C8.22277 1.8349 7.71593 1.88451 7.19954 1.92931C6.65552 1.97651 6.49303 2.06167 6.17111 2.47556C5.76649 2.99579 5.31043 3.45426 4.84259 3.9221C4.20395 4.56074 3.61959 5.21823 2.87004 5.74292C2.53514 5.97734 2.37504 6.35619 2.11473 6.66344C1.93213 6.87898 1.82567 6.95368 1.76743 7.24003C1.69883 7.5773 1.64941 7.92356 1.64941 8.26846C1.64941 8.62654 1.9544 9.01833 2.12148 9.32049C2.27155 9.59189 2.46509 10.033 2.72167 10.2107C2.963 10.3777 3.39215 10.4007 3.6658 10.3793C4.38304 10.3231 4.85218 10.3005 5.35175 9.78581C5.80514 9.31867 6.15719 8.79197 6.53528 8.26846C6.59454 8.18641 6.70897 7.90665 6.68701 8.00545C6.62622 8.279 6.54229 8.60919 6.35657 8.82145C6.27959 8.90943 6.31151 9.11296 6.24867 9.22608C6.12985 9.43995 6.04163 9.66848 5.90136 9.87011C5.74908 10.089 5.44067 10.1172 5.19327 10.1432C4.8714 10.1771 4.91274 9.85407 4.92689 9.59698C4.97741 8.67908 5.86699 8.45962 6.33634 7.8436C6.50924 7.61667 6.84736 7.24086 7.11187 7.47944C7.32764 7.67405 7.53818 7.86391 7.76602 8.03917C8.37926 8.5109 8.74253 9.04132 9.08442 9.72511C9.16462 9.88551 9.22792 10.2151 9.42498 10.2714C9.90426 10.4083 10.2537 10.3693 10.7434 10.2714C11.3868 10.1427 12.0201 9.5702 12.5608 9.22608C13.0349 8.9244 13.9131 7.45729 13.687 7.97173C13.3254 8.79481 12.6327 9.98817 11.8123 10.4804C11.5572 10.6335 11.4514 10.7097 11.1514 10.6625C11.0489 10.6464 10.3481 10.695 10.3253 10.6456C10.1054 10.1692 9.8431 9.41675 9.8431 8.88551C9.8431 8.84137 10.0682 9.10103 10.1196 9.14178C10.3553 9.32869 10.6652 9.30026 10.9491 9.30026C11.229 9.30026 11.4993 9.30479 11.6639 9.03051C12.0101 8.4536 12.6227 7.92543 13.2487 7.67501C13.5678 7.54737 14.062 8.34022 14.4086 8.46403C14.965 8.66274 15.4929 8.59003 15.9125 9.09794C16.1099 9.3369 16.2356 9.67987 16.4722 9.87348C16.9877 10.2952 17.5275 10.5198 18.1919 10.622C18.5599 10.6787 18.7252 10.0853 18.8561 9.80267C19.0773 9.32536 19.135 8.67216 19.19 8.15044C19.2499 7.5812 19.463 7.29918 19.9149 6.96691C19.9826 6.91718 20.8086 6.2565 20.9096 6.34311C21.0177 6.43577 20.1911 7.7407 20.0869 7.93801C19.867 8.35428 19.5035 8.72986 19.1428 9.03051C18.7544 9.3541 18.6617 10.3927 18.0368 10.3927C17.303 10.3927 16.4451 10.4069 15.7877 10.0556C15.2303 9.7576 14.5792 9.57669 14.2434 9.01702C13.9721 8.56481 14.1677 6.43846 14.9785 6.64995C15.7423 6.84922 16.4241 7.19198 17.2174 7.31759C17.5167 7.36497 17.8177 7.4096 18.1177 7.45246C18.209 7.46551 18.4417 7.44046 18.5223 7.50641C18.9792 7.88022 18.2586 8.7713 18.2189 9.17887C18.1765 9.6135 17.8811 9.77252 17.4636 9.71163C16.6715 9.59611 15.7217 9.15282 15.0628 8.71355C14.894 8.60102 14.82 8.49325 14.82 8.30218C14.82 7.88051 15.3441 7.66826 15.7203 7.66826C16.2242 7.66826 16.7333 7.76752 17.2275 7.85709C17.6364 7.93119 18.3335 7.97381 18.3335 8.53147C18.3335 8.64342 18.3058 8.9977 18.1582 9.03051C17.9997 9.06572 17.7152 8.85517 17.6086 8.79785C17.1756 8.56507 16.7184 8.36349 16.307 8.09312C16.2814 8.0763 15.6992 7.70015 15.8518 7.61431C15.912 7.58046 16.0168 7.59639 16.0676 7.63792C16.2386 7.77786 15.3747 7.33027 15.3157 7.30073C15.1498 7.21778 14.8392 6.98369 14.6447 6.95342C14.5846 6.94408 15.1045 7.78566 15.1235 7.80988C15.3674 8.1214 16.3283 9.1891 16.8431 9.00353C17.3411 8.82403 17.5565 8.37453 17.6591 7.87058C17.7009 7.66561 17.6652 7.24772 17.8412 7.12202C19.0847 6.2338 20.7001 6.29309 22.1437 6.08685C22.1751 6.08237 22.0803 6.09062 22.0493 6.09696C21.4382 6.22197 20.8434 6.4915 20.269 6.72414C19.8188 6.90645 19.3681 7.09373 18.927 7.29736C18.6206 7.43877 18.2 7.77166 17.8581 7.79302C17.7351 7.80071 17.926 7.54268 18.0166 7.45921C18.3562 7.1462 18.8651 6.9981 19.2911 6.85227C19.8292 6.66807 20.3784 6.6384 20.9265 6.50834C21.2661 6.42776 21.593 6.38114 21.9414 6.38695C22.2471 6.39204 22.3123 6.66225 22.3697 6.92982C22.5088 7.57902 22.4557 8.48457 22.2584 9.10469C22.2002 9.28765 22.144 9.2099 22.1168 9.04399C22.0614 8.70619 22.0545 8.36127 22.0089 8.02231C21.9939 7.91117 21.6699 6.70857 22.0122 6.76123C22.2494 6.79771 22.4973 7.49962 22.5888 7.67501C22.8728 8.21901 23.0773 8.77602 23.2227 9.37107C23.2567 9.50997 23.3434 9.68515 23.3138 9.83302C23.3013 9.89541 23.2314 9.73459 23.2025 9.67791C23.0829 9.44344 22.9545 9.20857 22.8586 8.96307C22.6023 8.30697 22.3383 7.58436 22.4944 6.85901C22.5611 6.54903 22.6374 6.3047 22.8451 6.09696C22.9321 6.00994 23.4948 5.93048 23.5599 5.98906C23.8818 6.27876 24.0236 6.82859 24.1365 7.22992C24.251 7.63709 24.3543 8.03933 24.2781 8.47077C24.2215 8.792 24.1214 9.21329 23.9376 9.48908C23.8882 9.56319 23.8321 9.76436 23.769 9.80941C23.695 9.86229 23.4719 9.35074 23.4385 9.28677C23.1482 8.7302 23.093 8.03505 22.9901 7.42549C22.9167 6.9911 22.7018 5.69878 22.8586 6.11045C23.0788 6.68852 22.9461 7.36652 23.0879 7.96499C23.1826 8.36498 23.3765 8.84519 23.5869 9.19236C23.6356 9.27266 23.7157 9.53663 23.796 9.57675C23.8945 9.62602 23.8027 9.35648 23.8027 9.24631C23.8027 8.83059 23.8094 8.4141 23.7892 7.99871C23.7708 7.61845 23.6813 7.23614 23.6813 6.85901C23.6813 6.53525 23.6859 6.43462 24.0657 6.40043C24.5205 6.35951 24.9061 6.23157 25.0301 6.69042C25.1622 7.17914 25.1987 7.60619 25.1987 8.1201C25.1987 8.571 25.1808 9.17069 24.9289 9.55989C24.7258 9.87376 24.7548 9.68689 24.6794 9.37444C24.5303 8.75694 24.6002 8.17464 24.7468 7.56711C24.8378 7.19038 24.8879 7.13391 25.0301 7.55362C25.1551 7.92261 25.1987 8.22444 25.1987 8.60902C25.1987 8.91611 25.1443 9.18178 25.0807 9.47897C25.0636 9.55867 24.9527 9.9377 25.0166 10.0016C25.0396 10.0247 25.0605 9.95264 25.0874 9.93417C25.1878 9.86513 25.2987 9.8152 25.4044 9.75546C25.5821 9.65502 25.6572 9.49184 25.6977 9.30026C25.7465 9.06956 26.1546 8.2114 25.7921 8.09987C25.6567 8.05821 25.5482 8.09571 25.4482 8.19428C25.0664 8.57073 24.7273 8.99631 24.3523 9.38118C23.8651 9.88124 23.315 10.0893 22.636 10.0893C22.3999 10.0893 21.9313 10.1828 21.7054 10.0758C21.613 10.032 21.6242 9.59277 21.6211 9.5228C21.5831 8.66848 21.8015 7.75099 22.2179 7.00737C22.454 6.58577 22.7302 6.14151 22.8013 5.65862C22.8263 5.48819 22.8545 5.38627 22.953 5.24725C23.0412 5.12275 22.7366 5.54468 22.6664 5.61141C22.6351 5.64115 22.2993 5.87201 22.3629 5.925C22.5084 6.04623 22.8928 5.75818 23.0407 5.71594C23.4573 5.5969 23.4357 4.79898 23.0609 4.67403C22.59 4.51708 22.0869 4.15183 21.7391 3.80408C21.3265 3.39145 20.9089 2.88516 20.3701 2.65427C19.3659 2.22388 18.2187 2.19906 17.1163 2.19906C15.9544 2.19906 14.737 2.13953 13.5859 2.30696C12.8561 2.41311 12.0931 2.44046 11.3571 2.49242C10.9136 2.52373 10.4951 2.64657 10.0522 2.70485C8.93749 2.85151 7.79966 2.87298 6.68027 3.01506C6.28389 3.06537 5.82121 3.07347 5.44279 3.21737C5.20272 3.30867 5.08219 3.56666 4.937 3.76025C4.7284 4.03838 4.50945 4.30117 4.34018 4.60659C4.15051 4.94881 4.02257 5.3118 3.90858 5.68559C3.80686 6.01915 3.53696 6.63423 3.60174 6.99051C3.626 7.12396 3.75529 6.76688 3.8344 6.6567C4.11882 6.26054 4.46064 5.92595 4.79876 5.57769C5.00459 5.36569 5.14528 5.12366 5.30791 4.87971C5.67475 4.32945 6.16163 3.98063 6.64992 3.56468C6.88672 3.36296 7.17923 3.1981 7.36139 2.94762C7.44867 2.82761 7.53645 2.77243 7.66486 2.70822C7.72471 2.67829 8.09106 2.49255 7.87392 2.51602C7.62136 2.54333 7.29877 2.54428 7.07815 2.69136C6.68781 2.95159 6.43426 3.50108 6.22169 3.89849C6.13238 4.06547 6.01241 4.31413 5.96543 4.50206C5.93901 4.60774 5.99614 4.5356 6.02612 4.49195C6.36359 4.00055 6.71613 3.52572 7.09164 3.06227C7.32489 2.77439 7.54114 2.5251 7.79299 2.27325C7.93394 2.1323 8.74438 2.10416 8.90571 2.23616C9.2652 2.53028 8.98487 2.85047 8.62922 3.03192C7.95421 3.37631 7.25237 3.6283 6.53865 3.87826C6.07644 4.04014 5.4454 4.10357 5.04828 4.41102C4.50847 4.82894 3.99988 5.27073 3.43651 5.65862C3.20331 5.81919 3.09989 6.09715 2.95096 6.32963C2.58855 6.89534 2.39351 7.61298 2.51262 8.2752C2.57526 8.62351 2.59891 9.33861 2.99817 9.51606C3.42393 9.70528 3.68025 9.78745 4.11089 9.54303C4.32586 9.42102 4.45469 9.11576 4.44134 8.8754C4.43142 8.69688 4.15806 8.48561 4.0502 8.36287C3.85414 8.13977 3.67635 7.8886 3.5579 7.61431C3.41754 7.28926 3.41392 8.04238 3.40954 8.1201C3.39427 8.39104 3.34884 8.66495 3.34884 8.93609C3.34884 9.54777 3.66799 8.74793 3.76021 8.5517C4.14367 7.73584 4.6208 6.95472 5.29105 6.33974C5.65222 6.00836 6.7123 5.00595 6.42401 5.40236C6.25273 5.63786 5.96913 5.82697 5.76986 6.04301C5.40846 6.43485 5.04135 6.82499 4.71446 7.24678C4.51338 7.50623 4.24215 7.93427 4.19856 8.26846C4.16338 8.53818 5.04246 8.29114 5.10897 8.2752C6.11437 8.03424 7.18776 7.66097 7.72893 6.741C8.02414 6.23913 9.38155 5.11138 8.91246 5.45631C7.95775 6.1583 7.12259 7.00439 6.17449 7.71547C6.0027 7.84431 5.14805 8.71302 5.57429 7.97173C6.23426 6.82396 7.00127 5.72005 7.79299 4.66054C8.1906 4.12845 8.60465 3.49622 9.23616 3.21737C9.39877 3.14557 9.57608 2.96758 9.4115 3.18703C9.0718 3.63996 8.83705 4.15881 8.48086 4.60659C7.73491 5.54435 6.74829 6.19935 5.76649 6.86238C5.68549 6.91709 5.002 7.51819 4.92689 7.26364C4.77141 6.73674 5.1184 6.12852 5.44616 5.74292C6.00863 5.08118 6.96503 4.55518 7.70532 4.14801C8.06487 3.95026 8.39971 3.68823 8.79781 3.56468C10.1531 3.14406 11.4709 3.23086 12.8778 3.23086C13.4357 3.23086 14.0088 3.27737 14.5637 3.21737C14.7919 3.19271 14.9783 3.12034 15.1943 3.05215C15.6873 2.89646 16.2935 2.98809 16.8027 2.98809C17.2995 2.98809 17.7963 2.98809 18.293 2.98809C19.0647 2.98809 19.8206 3.15792 20.5859 3.22749C21.2115 3.28436 21.6394 3.98962 21.7964 4.53915C21.9514 5.08144 17.7596 5.39115 17.0589 5.51026C16.3899 5.62398 15.7258 5.83319 15.0493 5.88791C14.1633 5.95957 13.2748 6.01302 12.3922 6.13068C11.9549 6.189 11.0997 6.42821 10.8142 6.75448C10.4488 7.17208 10.7755 8.2401 10.9693 8.6832C11.213 9.24013 13.9057 7.71647 14.2063 7.48955C14.7035 7.11433 14.6986 6.46867 14.6986 5.90477C14.6986 5.38601 14.1247 5.79204 13.8995 5.97221C13.5726 6.2337 13.3243 6.53039 13.161 6.91971C13.0702 7.13632 13.0955 7.29946 12.9351 7.50304C12.7052 7.79481 12.3276 7.93823 11.9876 8.05266C11.2062 8.31564 10.3877 8.60551 9.58009 8.77761C9.22274 8.85377 8.68714 9.12052 8.44714 8.74052C8.24819 8.42553 8.18315 8.06161 8.19425 7.69187C8.22375 6.70843 8.68573 6.24035 9.49242 5.7328C10.9458 4.81835 12.5715 4.93032 14.1591 4.47846C14.8746 4.27481 15.513 4.13477 16.2497 4.01988C16.8789 3.92175 17.523 3.95919 18.1582 3.95919C18.8857 3.95919 19.6185 3.95919 20.3195 3.95919C20.5556 3.95919 20.7938 3.95867 21.0243 4.01988C21.2379 4.07663 20.9917 4.18721 20.8995 4.20196C20.0834 4.33255 19.2836 4.32335 18.4583 4.32335C17.7339 4.32335 16.8855 4.31204 16.216 4.61333C15.8694 4.76931 15.4845 4.89932 15.1235 5.03819C14.701 5.20067 14.2057 5.10946 13.7747 5.22027C13.1469 5.38173 12.2047 5.31144 11.6605 5.69234C11.3183 5.93188 10.7363 5.97392 10.45 6.29591C10.2346 6.53832 9.978 6.71174 9.77566 6.97028C9.56279 7.24228 9.29685 7.55635 9.29685 7.91778C9.29685 8.12843 9.46775 8.76728 9.58009 8.30892C9.70064 7.81708 9.72171 7.3592 9.72171 6.85564C9.72171 6.82325 9.72386 6.4107 9.69473 6.45438C9.4415 6.83424 9.24886 7.52884 9.23616 7.99871C9.23218 8.14586 9.20993 8.27251 9.17546 8.41682C9.00822 9.11716 9.29325 8.0515 9.33732 7.9279C9.56598 7.28652 9.79752 6.46828 10.1533 5.87105C10.2305 5.74151 10.3297 5.62996 10.4096 5.50351C10.634 5.1482 9.86709 6.14602 9.61381 6.48136C9.22434 6.99703 8.92062 7.53966 8.62922 8.11335C8.45475 8.45684 8.31233 8.82132 8.13018 9.15864C8.08345 9.24517 8.0491 9.34098 7.99868 9.42502C7.95672 9.49494 8.0303 8.94604 8.03239 8.93609C8.11704 8.53402 8.32245 8.16156 8.52469 7.80651C9.02601 6.92642 9.59122 6.10406 10.0252 5.18656C10.3629 4.47253 10.604 3.64058 11.0435 2.98134C11.4166 2.42166 10.3208 4.12651 9.85659 4.61333C9.7352 4.74064 9.59498 4.87893 9.48905 5.01796C9.29092 5.27801 9.47407 4.80304 9.5194 4.71449C9.78302 4.19951 10.4686 4.01952 10.9288 3.74339C11.5533 3.36872 9.72338 4.56079 9.12151 4.97075C8.91257 5.11308 8.70505 5.2577 8.49772 5.40236C8.49172 5.40654 8.1606 5.64979 8.17739 5.55746C8.2793 4.99692 9.14318 4.50607 9.57335 4.24917C10.1572 3.90051 10.8149 3.54426 11.4751 3.35562C12.0333 3.19615 12.6075 3.23086 13.1813 3.23086C13.8354 3.23086 14.4896 3.23086 15.1437 3.23086C15.311 3.23086 14.8696 3.43068 14.7121 3.48712C14.149 3.68891 13.6271 3.6974 13.0396 3.72653C12.2537 3.7655 11.4596 3.86863 10.6793 3.97268C10.6707 3.97383 10.4628 4.01399 10.6625 3.98279C11.0569 3.92116 11.4503 3.8584 11.846 3.80408C12.8614 3.66471 13.9222 3.43688 14.938 3.35562C15.0841 3.34393 15.6689 3.38601 15.6495 3.39608C15.2193 3.6198 14.7082 3.76265 14.24 3.87826C12.8435 4.22317 11.4261 4.46937 10.0083 4.70775C9.77444 4.74707 8.62692 4.93416 9.51265 4.93029C10.9062 4.92421 12.3107 4.84111 13.687 4.61671C14.3913 4.50189 15.3325 4.46801 15.926 4.01988C16.2226 3.79589 16.5483 3.69779 16.8903 3.56805C16.958 3.54238 17.1583 3.47364 17.0859 3.47364C16.3507 3.47364 15.7992 3.66653 15.1842 4.08732C14.0943 4.83303 13.5951 6.17236 12.5372 6.96017C12.3247 7.11846 12.0867 7.23626 11.846 7.34456C11.7161 7.40303 11.5545 7.31905 11.4245 7.39851C11.2918 7.4796 11.2189 7.66613 11.0772 7.72221C10.6394 7.89551 10.1435 7.99156 9.68799 8.10998C9.06744 8.27133 9.94279 7.86631 10.0522 7.82337C11.1272 7.40128 12.2695 7.1183 13.3903 6.84215C13.8811 6.72122 14.3358 6.50404 14.82 6.35997C15.0026 6.30566 15.536 6.01447 15.7338 6.09359C15.8273 6.13099 15.5668 6.20621 15.4809 6.25882C15.1872 6.43876 14.8962 6.62439 14.584 6.77134C13.9659 7.06218 13.293 7.28485 12.6485 7.50641C12.1458 7.67923 12.9085 6.95218 12.9722 6.90622C13.7008 6.38025 14.5641 6.0494 15.373 5.66874C16.0327 5.35827 16.6438 5.02437 17.3759 4.88309C17.6086 4.83818 17.8339 4.77379 18.0705 4.74821C18.2317 4.73078 19.0593 4.52309 19.1495 4.64031C19.2756 4.80428 16.5798 6.44807 16.3036 6.60275C16.1328 6.69843 15.9285 6.78862 15.7844 6.92645C15.7315 6.97699 15.709 7.07759 15.6394 7.10853C15.5998 7.12613 16.0734 6.88307 16.1755 6.84552C17.1087 6.50243 18.1093 6.33983 19.018 5.925C19.7989 5.56851 20.5254 5.04344 21.3581 4.80553C21.6611 4.71894 22.3461 4.4767 22.3461 4.95727C22.3461 5.36058 21.5496 5.23376 21.267 5.23376C20.7821 5.23376 21.6918 4.96641 21.7256 5.00447C21.8839 5.18255 21.3201 5.27287 21.0883 5.32817C20.1907 5.54237 19.2352 5.63718 18.3133 5.65862C18.2863 5.65925 18.2593 5.65862 18.2324 5.65862C18.1919 5.65862 18.3133 5.65697 18.3537 5.65525C18.7758 5.63729 19.1967 5.59852 19.6182 5.57095C19.6951 5.56592 20.3695 5.53756 20.3432 5.55072C18.1485 6.64803 15.4578 7.06258 13.0329 7.16248C12.3175 7.19195 11.5506 7.23941 10.8378 7.14562C10.6927 7.12653 10.5265 7.13876 10.45 6.99389C10.1505 6.42628 10.4255 5.85484 10.9086 5.50351C11.0534 5.39824 11.1914 5.28568 11.3267 5.1697C11.4822 5.03647 10.7146 4.98036 10.6793 4.9775C10.5857 4.96991 9.97031 4.83573 9.92402 4.99773C9.8713 5.18227 10.238 5.17307 10.3286 5.17307" stroke="#FFE607" stroke-linecap="round"/>
</svg>
