<svg width="138" height="79" viewBox="0 0 138 79" fill="none" xmlns="http://www.w3.org/2000/svg">
<rect x="13" y="8" width="99" height="20" rx="10" fill="#F5E19A"/>
<path d="M27.8417 23.485C27.7317 23.495 27.6567 23.485 27.6167 23.455C27.5767 23.425 27.5467 23.38 27.5267 23.32C27.4867 23.21 27.4517 23.1 27.4217 22.99C27.3917 22.87 27.3567 22.725 27.3167 22.555C27.3067 22.535 27.3117 22.51 27.3317 22.48C27.3517 22.44 27.3867 22.425 27.4367 22.435C27.6767 22.465 27.9667 22.49 28.3067 22.51C28.6567 22.53 29.1217 22.545 29.7017 22.555C30.2817 22.555 31.0317 22.555 31.9517 22.555V19.645C31.9517 19.255 31.9367 18.915 31.9067 18.625C31.8767 18.335 31.8417 18.14 31.8017 18.04C31.7617 17.94 31.7967 17.89 31.9067 17.89H32.8067C32.8667 17.89 32.8967 17.93 32.8967 18.01C32.8967 18.02 32.8967 18.03 32.8967 18.04C32.8767 18.3 32.8617 18.55 32.8517 18.79C32.8417 19.03 32.8367 19.28 32.8367 19.54L32.7917 22.525C33.4617 22.505 34.1317 22.485 34.8017 22.465C35.4717 22.435 36.1067 22.41 36.7067 22.39C37.3067 22.36 37.8417 22.33 38.3117 22.3C38.7817 22.26 39.1517 22.215 39.4217 22.165C39.5217 22.145 39.5867 22.15 39.6167 22.18C39.6467 22.21 39.6667 22.25 39.6767 22.3L39.7667 23.02C39.7667 23.07 39.7517 23.115 39.7217 23.155C39.6917 23.195 39.6117 23.215 39.4817 23.215C39.1417 23.205 38.7467 23.2 38.2967 23.2C37.8467 23.2 37.3667 23.2 36.8567 23.2C35.6067 23.2 34.3967 23.215 33.2267 23.245C32.0567 23.265 31.0067 23.295 30.0767 23.335C29.1467 23.375 28.4017 23.425 27.8417 23.485ZM35.8817 20.185C35.8517 20.185 35.8217 20.18 35.7917 20.17C35.7717 20.15 35.7717 20.105 35.7917 20.035C35.8517 19.825 35.9167 19.54 35.9867 19.18C36.0567 18.82 36.1267 18.425 36.1967 17.995C36.2667 17.555 36.3317 17.12 36.3917 16.69C36.4517 16.25 36.5017 15.845 36.5417 15.475C36.5817 15.095 36.6067 14.79 36.6167 14.56C36.6167 14.55 36.6167 14.54 36.6167 14.53C36.6167 14.47 36.6117 14.435 36.6017 14.425C36.5917 14.405 36.5467 14.395 36.4667 14.395C36.2967 14.395 36.0467 14.4 35.7167 14.41C35.3967 14.42 35.0417 14.435 34.6517 14.455C34.2617 14.465 33.8717 14.48 33.4817 14.5C33.0917 14.52 32.7367 14.54 32.4167 14.56C32.1067 14.58 31.8667 14.595 31.6967 14.605C31.4467 14.625 31.1367 14.65 30.7667 14.68C30.4067 14.7 30.1017 14.72 29.8517 14.74C29.7417 14.76 29.6717 14.755 29.6417 14.725C29.6117 14.695 29.5867 14.64 29.5667 14.56C29.5667 14.55 29.5667 14.545 29.5667 14.545C29.5267 14.435 29.4917 14.345 29.4617 14.275C29.4417 14.195 29.4117 14.07 29.3717 13.9C29.3617 13.88 29.3667 13.855 29.3867 13.825C29.4067 13.795 29.4417 13.785 29.4917 13.795C29.7717 13.815 30.1567 13.83 30.6467 13.84C31.1367 13.84 31.6767 13.835 32.2667 13.825C32.8567 13.805 33.4367 13.78 34.0067 13.75C34.5867 13.72 35.1067 13.685 35.5667 13.645C36.0267 13.605 36.3717 13.56 36.6017 13.51C36.6817 13.49 36.7617 13.49 36.8417 13.51L37.6817 13.69C37.7717 13.72 37.8067 13.775 37.7867 13.855C37.7767 13.955 37.7517 14.1 37.7117 14.29C37.6817 14.48 37.6517 14.675 37.6217 14.875C37.5917 15.065 37.5667 15.22 37.5467 15.34C37.4967 15.68 37.4367 16.055 37.3667 16.465C37.3067 16.875 37.2367 17.29 37.1567 17.71C37.0867 18.12 37.0167 18.5 36.9467 18.85C36.8767 19.2 36.8117 19.49 36.7517 19.72C36.7017 19.9 36.6517 20.01 36.6017 20.05C36.5617 20.09 36.5117 20.12 36.4517 20.14C36.3717 20.16 36.2767 20.175 36.1667 20.185C36.0667 20.185 35.9717 20.185 35.8817 20.185ZM44.3626 19.21C43.7926 19.22 43.2676 19.11 42.7876 18.88C42.3076 18.64 41.9226 18.305 41.6326 17.875C41.3426 17.445 41.1976 16.945 41.1976 16.375C41.1976 15.825 41.3426 15.33 41.6326 14.89C41.9226 14.45 42.3076 14.1 42.7876 13.84C43.2776 13.57 43.8126 13.43 44.3926 13.42C44.9726 13.4 45.5026 13.505 45.9826 13.735C46.4626 13.955 46.8476 14.28 47.1376 14.71C47.4276 15.14 47.5726 15.655 47.5726 16.255C47.5726 16.805 47.4226 17.3 47.1226 17.74C46.8326 18.18 46.4426 18.53 45.9526 18.79C45.4726 19.05 44.9426 19.19 44.3626 19.21ZM47.7976 26.275C47.1676 26.275 46.6076 26.16 46.1176 25.93C45.6376 25.71 45.2576 25.405 44.9776 25.015C44.7076 24.625 44.5726 24.175 44.5726 23.665C44.5726 23.175 44.7226 22.73 45.0226 22.33C45.3226 21.93 45.7226 21.615 46.2226 21.385C46.7226 21.145 47.2676 21.025 47.8576 21.025C48.4576 21.025 49.0026 21.125 49.4926 21.325C49.9926 21.515 50.3876 21.805 50.6776 22.195C50.9776 22.575 51.1176 23.045 51.0976 23.605C51.0876 24.125 50.9326 24.585 50.6326 24.985C50.3426 25.385 49.9476 25.7 49.4476 25.93C48.9576 26.16 48.4076 26.275 47.7976 26.275ZM44.3926 18.445C45.0126 18.425 45.5276 18.22 45.9376 17.83C46.3476 17.44 46.5526 16.915 46.5526 16.255C46.5526 15.545 46.3426 15.02 45.9226 14.68C45.5126 14.33 44.9926 14.165 44.3626 14.185C43.7426 14.225 43.2226 14.435 42.8026 14.815C42.3926 15.195 42.1876 15.71 42.1876 16.36C42.1876 17.04 42.3926 17.565 42.8026 17.935C43.2226 18.295 43.7526 18.465 44.3926 18.445ZM47.8276 25.495C48.4576 25.475 48.9876 25.305 49.4176 24.985C49.8576 24.665 50.0876 24.2 50.1076 23.59C50.1276 23.19 50.0326 22.855 49.8226 22.585C49.6226 22.315 49.3476 22.11 48.9976 21.97C48.6576 21.82 48.2726 21.745 47.8426 21.745C47.4226 21.755 47.0376 21.845 46.6876 22.015C46.3376 22.175 46.0576 22.395 45.8476 22.675C45.6376 22.955 45.5326 23.28 45.5326 23.65C45.5326 24.03 45.6326 24.36 45.8326 24.64C46.0426 24.91 46.3226 25.12 46.6726 25.27C47.0226 25.42 47.4076 25.495 47.8276 25.495ZM50.0776 20.815C50.0376 20.815 50.0176 20.79 50.0176 20.74V14.23C50.0176 13.85 50.0026 13.5 49.9726 13.18C49.9526 12.86 49.9176 12.65 49.8676 12.55C49.8476 12.5 49.8476 12.465 49.8676 12.445C49.8976 12.415 49.9326 12.4 49.9726 12.4C50.0826 12.4 50.2326 12.4 50.4226 12.4C50.6126 12.4 50.7876 12.405 50.9476 12.415C50.9976 12.415 51.0226 12.455 51.0226 12.535C50.9926 12.905 50.9726 13.23 50.9626 13.51C50.9626 13.78 50.9626 14.095 50.9626 14.455V14.815C51.2326 14.815 51.5126 14.8 51.8026 14.77C52.0926 14.74 52.3626 14.705 52.6126 14.665C52.8626 14.625 53.0526 14.595 53.1826 14.575C53.2726 14.565 53.3226 14.595 53.3326 14.665C53.3726 14.895 53.3926 15.13 53.3926 15.37C53.3926 15.48 53.3476 15.535 53.2576 15.535C53.1176 15.535 52.9176 15.535 52.6576 15.535C52.4076 15.535 52.1326 15.54 51.8326 15.55C51.5326 15.55 51.2426 15.55 50.9626 15.55V17.65C51.2326 17.65 51.5126 17.645 51.8026 17.635C52.0926 17.615 52.3626 17.59 52.6126 17.56C52.8726 17.53 53.0676 17.505 53.1976 17.485C53.2876 17.475 53.3376 17.505 53.3476 17.575C53.3676 17.705 53.3826 17.825 53.3926 17.935C53.4026 18.045 53.4126 18.165 53.4226 18.295C53.4226 18.405 53.3776 18.46 53.2876 18.46C53.1476 18.46 52.9426 18.455 52.6726 18.445C52.4126 18.435 52.1326 18.43 51.8326 18.43C51.5326 18.42 51.2426 18.415 50.9626 18.415V20.44C50.9626 20.59 50.9526 20.68 50.9326 20.71C50.9226 20.74 50.8926 20.76 50.8426 20.77L50.0776 20.815ZM58.3529 20.5C57.7429 20.51 57.1829 20.385 56.6729 20.125C56.1629 19.865 55.7529 19.495 55.4429 19.015C55.1429 18.525 54.9929 17.965 54.9929 17.335C54.9929 16.725 55.1429 16.18 55.4429 15.7C55.7429 15.21 56.1479 14.82 56.6579 14.53C57.1779 14.23 57.7479 14.075 58.3679 14.065C58.9879 14.045 59.5479 14.155 60.0479 14.395C60.5579 14.635 60.9629 14.99 61.2629 15.46C61.5629 15.93 61.7129 16.51 61.7129 17.2C61.7129 17.82 61.5629 18.375 61.2629 18.865C60.9629 19.355 60.5579 19.745 60.0479 20.035C59.5379 20.325 58.9729 20.48 58.3529 20.5ZM58.3679 19.645C58.8079 19.625 59.2079 19.515 59.5679 19.315C59.9279 19.105 60.2129 18.82 60.4229 18.46C60.6429 18.09 60.7529 17.675 60.7529 17.215C60.7529 16.705 60.6429 16.27 60.4229 15.91C60.2129 15.55 59.9279 15.28 59.5679 15.1C59.2079 14.91 58.8079 14.825 58.3679 14.845C57.9279 14.855 57.5229 14.97 57.1529 15.19C56.7829 15.4 56.4879 15.69 56.2679 16.06C56.0479 16.42 55.9379 16.84 55.9379 17.32C55.9379 17.82 56.0479 18.245 56.2679 18.595C56.4979 18.945 56.7979 19.21 57.1679 19.39C57.5379 19.57 57.9379 19.655 58.3679 19.645ZM64.2479 25.15C64.2079 25.15 64.1879 25.125 64.1879 25.075V14.245C64.1879 13.865 64.1729 13.515 64.1429 13.195C64.1229 12.865 64.0879 12.65 64.0379 12.55C64.0179 12.5 64.0179 12.465 64.0379 12.445C64.0679 12.415 64.1029 12.4 64.1429 12.4C64.2029 12.4 64.3029 12.405 64.4429 12.415C64.5929 12.415 64.7379 12.42 64.8779 12.43C65.0179 12.43 65.0979 12.43 65.1179 12.43C65.1679 12.43 65.1929 12.47 65.1929 12.55C65.1629 12.92 65.1429 13.245 65.1329 13.525C65.1329 13.795 65.1329 14.11 65.1329 14.47V24.775C65.1329 24.925 65.1229 25.015 65.1029 25.045C65.0929 25.075 65.0629 25.095 65.0129 25.105L64.2479 25.15ZM75.6882 25.9C75.6682 25.9 75.6432 25.895 75.6132 25.885C75.5832 25.875 75.5682 25.845 75.5682 25.795C75.5682 25.755 75.5682 25.695 75.5682 25.615C75.5682 25.545 75.5682 25.465 75.5682 25.375C75.5682 25.105 75.5682 24.765 75.5682 24.355C75.5682 23.945 75.5682 23.54 75.5682 23.14C75.5682 22.74 75.5632 22.405 75.5532 22.135C75.5432 21.875 75.5232 21.62 75.4932 21.37C75.4632 21.12 75.4332 20.945 75.4032 20.845C75.3732 20.745 75.4082 20.695 75.5082 20.695L76.4682 20.71C76.5182 20.71 76.5432 20.745 76.5432 20.815C76.5332 21.045 76.5232 21.29 76.5132 21.55C76.5132 21.8 76.5132 22.065 76.5132 22.345C76.6932 22.355 76.9532 22.36 77.2932 22.36C77.6332 22.36 78.0082 22.36 78.4182 22.36C78.8282 22.36 79.2432 22.355 79.6632 22.345C80.0832 22.335 80.4682 22.325 80.8182 22.315C81.1782 22.295 81.4632 22.28 81.6732 22.27V21.85C81.6732 21.51 81.6632 21.25 81.6432 21.07C81.6332 20.88 81.6082 20.74 81.5682 20.65C81.5482 20.6 81.5482 20.565 81.5682 20.545C81.5982 20.515 81.6332 20.5 81.6732 20.5H82.5882C82.6382 20.5 82.6632 20.53 82.6632 20.59C82.6532 20.82 82.6432 21.065 82.6332 21.325C82.6332 21.575 82.6332 21.915 82.6332 22.345V25.645C82.6332 25.775 82.5582 25.84 82.4082 25.84L76.4832 25.855C76.3832 25.855 76.2332 25.86 76.0332 25.87C75.8332 25.89 75.7182 25.9 75.6882 25.9ZM72.3432 20.11L71.9682 19.78C71.9282 19.74 71.9482 19.69 72.0282 19.63C72.7682 19.15 73.4032 18.61 73.9332 18.01C74.4632 17.4 74.8732 16.775 75.1632 16.135C75.4632 15.495 75.6232 14.89 75.6432 14.32C75.5032 14.33 75.3532 14.34 75.1932 14.35C75.0332 14.36 74.8532 14.375 74.6532 14.395C74.3532 14.415 74.0932 14.435 73.8732 14.455C73.6632 14.475 73.4232 14.505 73.1532 14.545C73.0532 14.555 72.9882 14.545 72.9582 14.515C72.9282 14.475 72.9032 14.43 72.8832 14.38C72.8732 14.37 72.8682 14.36 72.8682 14.35C72.8382 14.27 72.8082 14.18 72.7782 14.08C72.7582 13.98 72.7332 13.865 72.7032 13.735C72.6932 13.715 72.6982 13.69 72.7182 13.66C72.7382 13.63 72.7732 13.615 72.8232 13.615C73.0632 13.625 73.3282 13.64 73.6182 13.66C73.9082 13.67 74.1982 13.67 74.4882 13.66C74.9282 13.64 75.3732 13.625 75.8232 13.615C76.2832 13.595 76.7432 13.565 77.2032 13.525C77.5732 13.505 77.9232 13.475 78.2532 13.435C78.5832 13.395 78.8782 13.35 79.1382 13.3C79.1682 13.29 79.2032 13.295 79.2432 13.315C79.2832 13.325 79.3082 13.355 79.3182 13.405C79.3382 13.475 79.3582 13.58 79.3782 13.72C79.3982 13.85 79.4132 13.975 79.4232 14.095C79.4232 14.205 79.3632 14.26 79.2432 14.26C79.1432 14.26 79.0432 14.26 78.9432 14.26C78.8432 14.26 78.7382 14.26 78.6282 14.26C78.4182 14.26 78.2032 14.26 77.9832 14.26C77.7632 14.25 77.5332 14.25 77.2932 14.26C77.1932 14.26 77.0932 14.265 76.9932 14.275C76.9032 14.275 76.8132 14.275 76.7232 14.275C76.6832 14.535 76.6132 14.835 76.5132 15.175C76.4232 15.515 76.2832 15.875 76.0932 16.255C76.4932 16.545 76.9032 16.865 77.3232 17.215C77.7532 17.565 78.1432 17.89 78.4932 18.19C78.8432 18.48 79.0882 18.7 79.2282 18.85C79.2782 18.89 79.3132 18.94 79.3332 19C79.3532 19.06 79.3382 19.125 79.2882 19.195C79.2682 19.225 79.2182 19.28 79.1382 19.36C79.0582 19.44 78.9782 19.52 78.8982 19.6C78.8182 19.67 78.7582 19.72 78.7182 19.75C78.6382 19.8 78.5732 19.795 78.5232 19.735C78.3332 19.465 78.0782 19.15 77.7582 18.79C77.4382 18.43 77.1032 18.075 76.7532 17.725C76.4032 17.375 76.0732 17.085 75.7632 16.855C75.4532 17.385 75.0682 17.925 74.6082 18.475C74.1482 19.025 73.5482 19.565 72.8082 20.095C72.8082 20.095 72.8032 20.1 72.7932 20.11C72.7332 20.14 72.6632 20.17 72.5832 20.2C72.5132 20.22 72.4332 20.19 72.3432 20.11ZM76.5132 25C76.6132 25.01 76.8332 25.015 77.1732 25.015C77.5232 25.025 77.9282 25.03 78.3882 25.03C78.8582 25.03 79.3232 25.025 79.7832 25.015C80.2432 25.015 80.6482 25.01 80.9982 25C81.3482 24.99 81.5732 24.98 81.6732 24.97V23.095C81.4032 23.095 81.0482 23.095 80.6082 23.095C80.1682 23.095 79.6932 23.1 79.1832 23.11C78.6832 23.11 78.1932 23.115 77.7132 23.125C77.2432 23.125 76.8432 23.13 76.5132 23.14V25ZM81.7182 19.675C81.6782 19.675 81.6582 19.65 81.6582 19.6V16.75C81.4782 16.76 81.3032 16.77 81.1332 16.78C80.9632 16.79 80.8032 16.8 80.6532 16.81C80.4132 16.82 80.1382 16.845 79.8282 16.885C79.5182 16.915 79.2432 16.945 79.0032 16.975C78.8932 16.995 78.8182 16.99 78.7782 16.96C78.7382 16.93 78.7082 16.885 78.6882 16.825C78.6482 16.695 78.6132 16.575 78.5832 16.465C78.5632 16.345 78.5432 16.235 78.5232 16.135C78.5232 16.055 78.5632 16.025 78.6432 16.045C78.8032 16.065 79.0532 16.08 79.3932 16.09C79.7432 16.09 80.1232 16.085 80.5332 16.075C80.9432 16.055 81.3182 16.035 81.6582 16.015V14.23C81.6582 13.85 81.6432 13.5 81.6132 13.18C81.5932 12.86 81.5582 12.65 81.5082 12.55C81.4882 12.5 81.4882 12.465 81.5082 12.445C81.5382 12.415 81.5732 12.4 81.6132 12.4C81.7032 12.4 81.8432 12.4 82.0332 12.4C82.2332 12.4 82.4182 12.405 82.5882 12.415C82.6382 12.415 82.6632 12.455 82.6632 12.535C82.6332 12.905 82.6132 13.23 82.6032 13.51C82.6032 13.78 82.6032 14.095 82.6032 14.455V19.3C82.6032 19.45 82.5932 19.54 82.5732 19.57C82.5632 19.6 82.5332 19.62 82.4832 19.63L81.7182 19.675ZM84.9714 21.52L84.5664 21.175C84.5264 21.135 84.5414 21.09 84.6114 21.04C84.6214 21.03 84.6264 21.025 84.6264 21.025C85.3164 20.515 85.9464 19.945 86.5164 19.315C87.0864 18.675 87.5714 18.015 87.9714 17.335C88.3814 16.655 88.6764 15.995 88.8564 15.355C88.9364 15.065 89.0114 14.74 89.0814 14.38C89.1514 14.02 89.1864 13.745 89.1864 13.555C89.1864 13.495 89.2014 13.455 89.2314 13.435C89.2614 13.405 89.2914 13.4 89.3214 13.42L90.3564 13.675C90.4064 13.685 90.4264 13.74 90.4164 13.84C90.3764 13.98 90.3164 14.165 90.2364 14.395C90.1564 14.625 90.0764 14.86 89.9964 15.1C89.9164 15.33 89.8464 15.53 89.7864 15.7C89.7064 15.9 89.6164 16.115 89.5164 16.345C89.4164 16.565 89.3064 16.795 89.1864 17.035C89.6664 17.395 90.1614 17.78 90.6714 18.19C91.1814 18.6 91.6464 18.985 92.0664 19.345C92.4864 19.705 92.8014 20 93.0114 20.23C93.0514 20.28 93.0814 20.34 93.1014 20.41C93.1314 20.47 93.1214 20.535 93.0714 20.605C92.9814 20.715 92.8814 20.815 92.7714 20.905C92.6714 20.995 92.5664 21.085 92.4564 21.175C92.3964 21.225 92.3464 21.215 92.3064 21.145C92.1464 20.905 91.9314 20.63 91.6614 20.32C91.3914 20.01 91.0914 19.69 90.7614 19.36C90.4414 19.03 90.1114 18.715 89.7714 18.415C89.4414 18.115 89.1314 17.855 88.8414 17.635C88.4714 18.255 88.0064 18.9 87.4464 19.57C86.8964 20.23 86.2264 20.875 85.4364 21.505C85.3864 21.545 85.3164 21.58 85.2264 21.61C85.1464 21.64 85.0614 21.61 84.9714 21.52ZM94.5414 25.15C94.5014 25.15 94.4814 25.125 94.4814 25.075V14.245C94.4814 13.865 94.4664 13.515 94.4364 13.195C94.4164 12.865 94.3814 12.65 94.3314 12.55C94.3114 12.5 94.3114 12.465 94.3314 12.445C94.3614 12.415 94.3964 12.4 94.4364 12.4C94.4964 12.4 94.5964 12.405 94.7364 12.415C94.8864 12.415 95.0314 12.42 95.1714 12.43C95.3114 12.43 95.3914 12.43 95.4114 12.43C95.4614 12.43 95.4864 12.47 95.4864 12.55C95.4564 12.92 95.4364 13.245 95.4264 13.525C95.4264 13.795 95.4264 14.11 95.4264 14.47V24.775C95.4264 24.925 95.4164 25.015 95.3964 25.045C95.3864 25.075 95.3564 25.095 95.3064 25.105L94.5414 25.15Z" fill="black"/>
<path d="M122.75 59.5C122.75 62.0775 121.102 64.5774 118.017 66.8902C114.936 69.1998 110.462 71.2902 104.912 73.0503C93.8127 76.5694 78.4644 78.75 61.5 78.75C44.5356 78.75 29.1873 76.5694 18.0885 73.0503C12.5376 71.2902 8.06375 69.1998 4.98293 66.8902C1.89773 64.5774 0.25 62.0775 0.25 59.5C0.25 56.9225 1.89773 54.4226 4.98293 52.1098C8.06375 49.8002 12.5376 47.7098 18.0885 45.9497C29.1873 42.4306 44.5356 40.25 61.5 40.25C78.4644 40.25 93.8127 42.4306 104.912 45.9497C110.462 47.7098 114.936 49.8002 118.017 52.1098C121.102 54.4226 122.75 56.9225 122.75 59.5Z" fill="#FCEDB5"/>
<path d="M122.75 59.5C122.75 62.0775 121.102 64.5774 118.017 66.8902C114.936 69.1998 110.462 71.2902 104.912 73.0503C93.8127 76.5694 78.4644 78.75 61.5 78.75C44.5356 78.75 29.1873 76.5694 18.0885 73.0503C12.5376 71.2902 8.06375 69.1998 4.98293 66.8902C1.89773 64.5774 0.25 62.0775 0.25 59.5C0.25 56.9225 1.89773 54.4226 4.98293 52.1098C8.06375 49.8002 12.5376 47.7098 18.0885 45.9497C29.1873 42.4306 44.5356 40.25 61.5 40.25C78.4644 40.25 93.8127 42.4306 104.912 45.9497C110.462 47.7098 114.936 49.8002 118.017 52.1098C121.102 54.4226 122.75 56.9225 122.75 59.5Z" stroke="black" stroke-width="0.5" stroke-linejoin="round"/>
<path d="M122.75 59.5C122.75 62.0775 121.102 64.5774 118.017 66.8902C114.936 69.1998 110.462 71.2902 104.912 73.0503C93.8127 76.5694 78.4644 78.75 61.5 78.75C44.5356 78.75 29.1873 76.5694 18.0885 73.0503C12.5376 71.2902 8.06375 69.1998 4.98293 66.8902C1.89773 64.5774 0.25 62.0775 0.25 59.5C0.25 56.9225 1.89773 54.4226 4.98293 52.1098C8.06375 49.8002 12.5376 47.7098 18.0885 45.9497C29.1873 42.4306 44.5356 40.25 61.5 40.25C78.4644 40.25 93.8127 42.4306 104.912 45.9497C110.462 47.7098 114.936 49.8002 118.017 52.1098C121.102 54.4226 122.75 56.9225 122.75 59.5Z" stroke="black" stroke-opacity="0.2" stroke-width="0.5" stroke-linejoin="round"/>
<path d="M55.6695 69.61C54.587 69.6684 55.4345 68.3348 55.8786 67.976C56.8077 67.2256 57.1175 68.8356 56.6579 69.4125C55.704 70.6097 56.4399 68.6164 56.4604 68.4241C56.6316 66.815 55.5994 68.2938 55.5928 68.8563C55.5864 69.3992 56.2474 71.5062 55.4652 70.8322C54.5789 70.0687 54.9725 68.3141 55.6786 67.5704C57.232 65.9343 57.0086 70.3631 56.3156 71.2328" stroke="#5F333B" stroke-linecap="round"/>
<path d="M67.6695 69.61C66.587 69.6684 67.4345 68.3348 67.8786 67.976C68.8077 67.2256 69.1175 68.8356 68.6579 69.4125C67.704 70.6097 68.4399 68.6164 68.4604 68.4241C68.6316 66.815 67.5994 68.2938 67.5928 68.8563C67.5864 69.3992 68.2474 71.5062 67.4652 70.8322C66.5789 70.0687 66.9725 68.3141 67.6786 67.5704C69.232 65.9343 69.0086 70.3631 68.3156 71.2328" stroke="#5F333B" stroke-linecap="round"/>
<path d="M8.38806 51.5218C8.38806 49.1713 9.81813 47.272 10.8676 45.323C11.4808 44.1842 12.1298 42.7353 12.2999 41.4593C12.3864 40.8108 12.8644 40.3013 12.9499 39.6178C13.0311 38.9679 13.8507 39.1756 14.2859 39.2928C15.1101 39.5147 15.833 39.9887 16.621 40.2076C17.3492 40.4098 18.1683 40.3171 18.9079 40.5205C19.6827 40.7336 20.1111 41.1055 20.9541 41.1223C21.6386 41.136 22.4154 41.3725 23.0725 41.5556C24.5192 41.9588 26.0815 41.9408 27.4537 42.5908C28.2353 42.961 29.4622 42.9141 30.0536 43.5055" stroke="#FCEDB5" stroke-linecap="round"/>
<path d="M95.9169 43.7222C95.9169 42.8274 97.7648 42.3033 98.5408 42.1093C99.862 41.779 101.222 41.1816 102.585 41.1223C103.394 41.0871 104.059 40.5938 104.848 40.4723C106.087 40.2817 108.27 40.5046 109.362 39.8224C110.311 39.2289 110.819 39.3206 111.408 40.027C112.466 41.2975 112.35 43.576 113.033 45.0221C113.702 46.4398 114.101 47.9644 114.501 49.4756C114.626 49.946 114.469 50.4255 114.67 50.8838C114.944 51.5114 115.199 52.1261 115.199 52.8217" stroke="#FCEDB5" stroke-linecap="round"/>
<path d="M97.024 43.619C97.6306 43.619 98.1618 43.2692 98.7267 43.0954C99.2857 42.9234 99.8698 42.9157 100.429 42.7292C101.136 42.4936 101.916 42.3749 102.641 42.1836C103.286 42.0136 104.022 41.8835 104.684 41.8394C105.223 41.8035 105.864 41.5969 106.394 41.4732C107.151 41.2967 107.958 41.2741 108.686 41.0192C109.12 40.8675 109.579 40.8712 110.008 40.7702C110.46 40.664 110.605 41.5145 110.682 41.8907C110.96 43.2491 111.346 44.6024 111.693 45.9588C111.931 46.8912 112.211 47.8179 112.396 48.7599C112.45 49.0377 112.555 49.3401 112.645 49.6094C112.771 49.9882 112.809 50.0487 112.857 49.6314C112.938 48.9272 113.04 48.2871 113.04 47.5736C113.04 46.7433 112.896 46.176 112.517 45.4352C112.213 44.8427 111.684 44.364 111.29 43.8314C110.998 43.4372 110.715 43.0588 110.418 42.6596C110.317 42.5226 110.22 42.3993 110.129 42.2568C110.057 42.1443 109.679 41.715 109.679 41.8211C109.679 43.0002 109.996 44.2542 110.528 45.318C110.681 45.6226 110.815 45.9607 110.894 46.292C110.992 46.6993 111.221 47.1461 111.261 47.5589C111.271 47.6702 111.436 48.2119 111.414 48.0276C111.291 46.963 110.919 45.8822 110.536 44.8859C110.325 44.3405 110.171 43.7701 109.975 43.2235C109.851 42.8753 109.69 42.5718 109.609 42.2092C109.555 41.9643 109.311 41.7868 109.137 41.6563C108.889 41.4702 107.98 41.8394 107.775 41.876C107.269 41.9661 106.755 42.008 106.251 42.1031C104.759 42.385 103.263 42.5912 101.762 42.8244C101.272 42.9005 99.6765 42.9053 99.5982 43.6885C99.5242 44.4284 100.817 44.6472 101.286 44.7761C102.612 45.1398 103.966 45.2558 105.292 45.5816C105.788 45.7034 106.272 45.7915 106.731 46.0247C107.083 46.2036 107.403 46.4385 107.753 46.6215C108.119 46.8129 108.513 46.9283 108.899 47.0719C109.321 47.2291 109.223 46.8397 109.203 46.5044C109.154 45.7086 108.919 44.8356 108.657 44.0803C108.481 43.5715 108.101 43.7664 107.603 43.7435C106.202 43.6791 104.704 43.4341 103.318 43.7581C102.897 43.8566 102.493 44.0129 102.077 44.1316C102.053 44.1386 101.628 44.2548 101.733 44.2781C102.504 44.4493 103.292 44.5674 104.069 44.7101C104.575 44.8032 105.12 44.9257 105.636 44.9372C106.06 44.9466 106.775 45.2534 107.167 45.0397C107.384 44.9212 107.255 44.1611 107.108 44.0144" stroke="#FCEDB5" stroke-width="2" stroke-linecap="round"/>
<path d="M10.0232 49.3531C8.96279 50.546 11.6011 46.5634 12.1616 45.069C12.5183 44.1176 12.7104 43.1293 13.1063 42.2056C13.338 41.6649 13.4725 41.0445 13.6775 40.4882C13.7421 40.3127 13.8716 40.1257 14.0766 40.1257C14.2543 40.1257 14.4653 40.2866 14.6149 40.3674C15.2593 40.7155 15.9349 41.0923 16.6361 41.3121C17.1065 41.4595 17.5528 41.6039 18.0349 41.7222C18.4788 41.8312 18.9156 41.9675 19.3677 42.0408C20.0683 42.1544 20.7896 42.1396 21.4805 42.3008C22.2255 42.4746 22.9907 42.5011 23.7434 42.634C24.7188 42.8061 25.6762 43.0118 26.669 43.0258C26.8375 43.0281 27.0261 43.0488 27.189 43.0953C27.288 43.1236 26.7801 43.2787 26.7423 43.2894C24.5599 43.9083 22.3631 43.969 20.1183 44.1133C18.5497 44.2141 17.1984 44.3384 15.8086 45.1056C14.9543 45.5772 14.0449 45.9395 13.1905 46.4201C13.0229 46.5144 12.8051 47.1928 12.806 47.1927C13.0983 47.1562 13.6335 46.4688 13.8166 46.2553C14.3625 45.6193 14.7065 44.9435 14.9664 44.1536C15.2159 43.3953 15.46 42.4635 15.4278 41.6563C15.4222 41.5171 15.295 42.0884 15.285 42.125C15.0018 43.1514 14.9796 44.1292 14.9005 45.1898C14.8672 45.6355 14.837 46.0791 14.8346 46.5263C14.8337 46.6768 14.791 47.0005 14.9151 47.1341C15.1475 47.3844 16.4973 46.829 16.7276 46.768C17.9184 46.4524 21.3851 45.2365 20.1659 45.4132C19.1585 45.5592 18.1913 45.9116 17.2037 46.1455C16.5034 46.3113 15.4085 46.6505 14.6661 46.4384C14.3803 46.3567 14.5066 45.4105 14.516 45.2447C14.5656 44.3677 14.7965 43.5522 15.3216 42.8427C15.8352 42.1485 16.3323 41.7721 17.1304 42.2532C17.7257 42.6119 19.6828 43.4893 18.7599 44.4318C18.1421 45.0627 16.9081 45.2426 16.0795 45.3546C15.9408 45.3733 14.7687 45.6133 14.7174 45.3765C14.536 44.5394 14.9179 43.2404 15.761 42.861C15.8775 42.8086 16.2684 42.6151 16.3871 42.6596C16.5394 42.7167 15.3312 43.9378 15.2666 43.9924C14.5069 44.6359 13.6551 45.1724 12.8353 45.7354C12.7495 45.7943 12.6265 46.0319 12.5936 45.9331C12.5304 45.7435 12.6083 45.3678 12.6376 45.1861C12.743 44.5319 13.0839 43.9762 13.2857 43.3553C13.3716 43.0911 13.5106 42.7272 13.7214 42.5314C13.9121 42.3544 14.1012 42.3063 14.3073 42.1689" stroke="#FCEDB5" stroke-width="2" stroke-linecap="round"/>
<path d="M13.5163 46.9144C13.0877 46.9303 12.81 47.2998 12.6082 47.6541C12.4813 47.8768 12.3672 48.3788 12.1322 48.4963" stroke="#FCEDB5" stroke-width="2" stroke-linecap="round"/>
<path d="M50.7096 73.8621C51.1718 74.3756 51.1578 74.9229 51.7803 75.3446C52.3225 75.7119 52.9246 76.1506 53.5718 76.3124C54.7748 76.6132 56.4529 76.6546 57.5665 76.1271C58.5147 75.6779 59.5883 75.4569 60.5316 74.9328C60.7838 74.7927 61.0876 74.6239 61.314 74.4592C61.9484 73.9979 62.9667 75.0219 63.5276 75.1902C64.6639 75.5311 65.2758 75.9745 66.4927 76.0962C67.5399 76.2009 68.6427 76.4244 69.7049 76.2609C70.6846 76.1102 71.3806 75.4694 72.2068 75.0564C72.7941 74.7627 73.4444 73.6768 74.06 73.6768" stroke="#5F333B" stroke-linecap="round"/>
<path d="M66.2496 72.2469C66.7294 72.2469 67.2603 72.3513 67.7215 72.2489C67.8815 72.2133 67.949 72.1458 68.1007 72.1133C68.1918 72.0937 68.267 72.0342 68.3562 72.0072C68.4125 71.9901 68.5089 71.9776 68.5566 71.9482C68.7748 71.814 68.9998 71.6322 69.2365 71.5375C69.3469 71.4934 69.4969 71.3705 69.551 71.2624C69.5536 71.2572 69.176 71.3947 69.1324 71.4157C68.8923 71.5313 68.6694 71.6208 68.4151 71.7085C68.2612 71.7616 67.7894 71.8895 67.9475 71.85C68.1529 71.7986 68.3299 71.7708 68.5232 71.6849C68.7326 71.5918 68.0673 71.7309 67.8394 71.7537C67.8187 71.7557 67.5932 71.8046 67.6488 71.8205C67.7832 71.8589 68.2403 71.872 68.3641 71.7792C68.5118 71.6684 68.2611 71.714 68.1833 71.732C68.0708 71.7581 67.7259 71.7871 67.8413 71.7871C68.1914 71.7871 68.846 71.6196 69.0597 71.3449C69.2675 71.0777 69.6313 70.8599 69.7868 70.5491" stroke="#FCEDB5" stroke-width="0.5" stroke-linecap="round"/>
<path d="M55.6736 71.8225C55.8947 71.8225 56.1859 71.8807 56.3967 71.8205C56.5169 71.7862 56.6654 71.7056 56.7897 71.683C56.8867 71.6653 57.5344 71.2427 57.4775 71.1858" stroke="#FCEDB5" stroke-width="0.5" stroke-linecap="round"/>
<path d="M55.4614 71.8225C55.5671 71.7286 55.771 71.7537 55.9016 71.7518C56.081 71.7492 56.3507 71.7285 56.5049 71.628C56.6887 71.5081 56.8784 71.3877 57.0531 71.2566" stroke="#FCEDB5" stroke-width="0.5" stroke-linecap="round"/>
<path d="M57.4068 70.832C57.1911 70.8455 57.0573 71.2523 56.9116 71.398" stroke="#FCEDB5" stroke-width="0.5" stroke-linecap="round"/>
<path d="M94.924 44.2902C96.3767 43.7497 97.6722 42.7848 99.1081 42.1487C99.6708 41.8993 100.238 41.6136 100.827 41.4288C101.741 41.1419 102.7 40.9964 103.616 40.691C104.531 40.386 105.474 40.1091 106.419 39.9486C107.191 39.8175 107.959 39.6474 108.727 39.5077C109.115 39.4371 109.507 39.2693 109.906 39.2693" stroke="#FCEDB5" stroke-width="0.5" stroke-linecap="round"/>
<path d="M100.269 42.1846C100.589 42.1526 100.922 41.8887 101.205 41.7392C101.568 41.547 101.965 41.3611 102.347 41.2083C102.794 41.0297 103.267 40.9524 103.715 40.7899C104.465 40.5183 105.237 40.5024 106.019 40.322" stroke="#FCEDB5" stroke-width="0.5" stroke-linecap="round"/>
<path d="M12.9694 39.2693C12.6637 39.2693 12.4982 40.0563 12.4835 40.3221C12.4482 40.9561 12.0772 41.659 11.8851 42.2567C11.1572 44.5211 10.3209 46.7634 9.29814 48.9422C9.01644 49.5424 8.67056 50.1067 8.33534 50.6789C8.06982 51.1321 7.88846 51.3514 8.11039 50.6789C8.25656 50.2359 8.51799 49.8444 8.72226 49.4281C9.45301 47.9391 9.97646 46.3477 10.6658 44.8436C11.151 43.7851 11.559 42.7379 12.0785 41.6988C12.3029 41.2501 12.6851 40.8159 12.8074 40.3266C12.8523 40.147 12.9821 39.9356 13.1313 39.8362" stroke="#FCEDB5" stroke-width="0.5" stroke-linecap="round"/>
<path d="M12.9693 39.2693C12.4351 39.8332 12.2679 40.7275 12.119 41.4424C11.9983 42.0219 11.7176 42.5565 11.5476 43.1205C11.1841 44.3268 10.7323 45.5125 10.3599 46.7198C10.1946 47.2555 9.97158 47.7613 9.88748 48.3079C9.87024 48.42 9.73454 48.7226 9.73001 48.6094C9.69695 47.7829 9.73131 46.9035 9.93247 46.0989C10.0862 45.4839 10.3013 44.8173 10.5398 44.2273C10.7241 43.7715 11.0564 43.373 11.2057 42.9136C11.3495 42.471 11.6957 42.1091 11.8266 41.6673C11.9326 41.3096 12.167 40.926 12.362 40.6011C12.4912 40.3857 12.6937 40.1083 12.7894 39.8812C12.86 39.7134 12.7639 39.5478 12.5734 39.6023C12.4849 39.6276 12.2538 39.9333 12.1955 40.0162C11.7908 40.5913 11.5142 41.4006 11.2732 42.0632C10.9903 42.8411 10.7114 43.6035 10.5398 44.4162C10.4266 44.9527 10.2527 45.4742 10.1304 46.0089C10.042 46.3957 9.94316 46.7781 9.83799 47.1607C9.79023 47.3344 9.65073 48.3663 9.46907 48.4654C9.2975 48.559 9.4746 48.0728 9.50956 47.8805C9.60791 47.3396 9.76707 46.8127 9.92797 46.2879C10.1743 45.4844 10.4779 44.6917 10.6658 43.8719C10.8357 43.1304 11.0292 42.4893 11.2687 41.7708C11.4398 41.2574 11.6044 40.7093 11.9795 40.3041C12.0917 40.183 12.1404 40.0593 12.2045 39.9127C12.2855 39.7276 12.4509 39.6686 12.5464 39.5123C12.7873 39.1182 13.569 39.2693 13.9816 39.2693C14.9748 39.2693 15.945 39.2185 16.8565 39.6743C17.2599 39.876 17.5827 39.9481 18.0308 40.0432C18.484 40.1393 19.0864 40.1416 19.4884 40.3581C19.8655 40.5612 20.4105 40.6421 20.8247 40.79C21.7756 41.1296 22.8159 41.3559 23.803 41.5549C24.9723 41.7905 26.1549 42.0119 27.2808 42.3872C27.577 42.4859 27.8884 42.5368 28.1941 42.5941C28.4203 42.6365 28.6174 42.8208 28.842 42.8326C29.2052 42.8517 29.5227 43.11 29.8947 43.1565" stroke="#FCEDB5" stroke-width="0.5" stroke-linecap="round"/>
<path d="M117.632 52.5914C117.968 50.2341 119.8 48.501 121.476 46.9775C122.624 45.9339 124.733 45.6583 126.219 45.5134C129.113 45.231 132.026 46.0001 134.123 47.9925C135.752 49.54 135.74 51.5146 135.74 53.5974C135.74 55.1753 135.347 56.4718 133.629 56.4718C131.709 56.4718 130.63 55.7495 130.234 53.9657C130.176 53.7077 129.965 53.5667 129.91 53.319C129.874 53.153 129.659 52.4272 129.56 52.304C129.254 51.9208 129.209 51.3847 128.635 51.289C126.92 51.0031 125.8 51.3861 124.18 52.1064C123.352 52.474 122.623 53.9223 122.195 54.6933C121.857 55.3008 121.674 56.0793 121.674 56.7951" stroke="#FCEDB5" stroke-linecap="round"/>
<path d="M119.248 53.8849C119.32 54.1908 120.844 52.2771 121.081 52.0166C121.669 51.3702 122.253 50.7551 122.895 50.1662C123.116 49.964 124.925 48.6771 123.82 49.3039C122.516 50.044 121.037 51.4189 120.308 52.7442C119.734 53.7878 119.895 55.1281 119.895 56.2742C119.895 56.3523 119.916 55.5573 119.967 55.376C120.074 54.9903 120.341 54.6901 120.506 54.334C120.889 53.5094 122.015 52.5143 122.743 51.9447C123.338 51.4787 123.958 50.983 124.593 50.5704C125.191 50.1819 125.803 50.1224 126.362 49.8429" stroke="#FCEDB5" stroke-width="2" stroke-linecap="round"/>
<path d="M119.895 56.7952C121.154 56.0256 121.825 53.6728 122.446 52.4298C122.611 52.1005 121.36 52.3997 121.26 52.4298C120.515 52.6547 120.012 52.9674 119.392 53.4537C118.797 53.9201 119.118 52.381 119.248 52.0884C119.362 51.8342 119.729 51.5836 119.895 51.3339C120.249 50.8026 121.024 49.526 120.093 50.7231C119.715 51.2086 119.193 51.6533 118.961 52.2322C118.952 52.2546 119.36 51.2197 119.536 50.9207C120.325 49.5756 121.726 48.7489 122.805 47.6691C123.832 46.6425 125.591 46.7467 126.973 46.4835C127.857 46.3152 128.944 46.0965 129.812 46.4476C130.342 46.6622 130.894 47.1917 131.536 47.256C132.563 47.3587 133.524 48.6201 134.087 49.3937C134.651 50.1691 134.931 51.6265 134.931 52.5914C134.931 53.1723 134.931 53.7532 134.931 54.334C134.931 55.0049 134.038 55.2495 133.548 55.5376C133.323 55.6704 133.525 55.8251 133.153 55.8251C132.565 55.8251 132.441 55.6136 132.075 55.1783C131.417 54.3949 131.078 53.9079 130.925 52.9148C130.866 52.5275 130.77 52.1262 130.728 51.7471C130.681 51.3261 130.312 51.0678 130.243 50.6513C130.212 50.4651 128.745 50.3279 128.5 50.3279C127.556 50.3279 126.449 50.6112 125.877 49.6991C125.723 49.4528 124.814 48.1914 125.267 48.0284C125.561 47.9226 125.865 47.8627 126.165 47.7769C126.911 47.5637 128.023 47.7487 128.716 47.9925C129.268 48.1868 129.823 48.5905 130.207 49.0345C130.423 49.2844 131.753 50.1556 131.231 50.1662C130.677 50.1775 127.462 49.5308 127.889 49.1602C128.277 48.8244 129.36 48.4131 129.83 48.8548C130.344 49.3386 130.983 49.7833 131.428 50.3279C131.946 50.9601 132.244 51.9459 132.596 52.6813C132.65 52.7937 132.983 54.2002 133.243 54.1005C133.533 53.9888 132.27 50.4268 132.021 49.9686C131.769 49.5036 130.586 48.7135 130.925 48.1362C131.329 47.4496 132.127 49.4574 132.183 49.6812" stroke="#FCEDB5" stroke-width="2" stroke-linecap="round"/>
<path d="M134.123 49.0344C134.123 50.0069 134.007 51.4267 134.608 52.268C135.436 53.4266 133.261 49.7567 132.506 48.5493" stroke="#FCEDB5" stroke-width="2" stroke-linecap="round"/>
<path d="M131.775 52.3001C131.51 52.3001 131.081 52.3896 130.877 52.2015C130.654 51.996 130.297 51.8356 130.02 51.7186C129.417 51.4636 128.803 50.8966 128.271 50.4829C127.925 50.2137 127.614 49.821 127.284 49.4912C126.941 49.1481 126.41 48.9632 125.981 48.7488" stroke="#FCEDB5" stroke-width="2" stroke-linecap="round"/>
<path d="M130.747 52.3937C130.322 52.3512 129.891 52.1471 129.501 51.9887C129.214 51.872 129.148 51.7202 128.92 51.5993C128.526 51.3908 128.215 51.1398 127.757 51.0126C126.662 50.7086 125.299 51.2675 124.423 51.9576C123.749 52.4894 122.757 52.9948 122.357 53.7955C122.058 54.3934 121.789 55.0256 121.537 55.6387C121.359 56.0699 121.273 56.5615 121.168 57.0146C121.098 57.3197 120.934 57.5943 120.934 57.9076" stroke="#FCEDB5" stroke-width="2" stroke-linecap="round"/>
<path d="M121.589 57.5337C121.589 56.7454 121.563 56.0623 121.775 55.3115C121.917 54.8118 122.089 54.0732 122.45 53.6812C122.796 53.3073 122.862 52.7513 123.271 52.4144C123.893 51.9021 124.4 51.4553 125.14 51.0852" stroke="#FCEDB5" stroke-width="2" stroke-linecap="round"/>
<path d="M124.989 56.3447V56.1292" stroke="#F3D054" stroke-width="0.5" stroke-linecap="round"/>
<path d="M125.492 54.6919C125.858 53.9806 126.094 53.2311 126.825 52.8076C127.365 52.4951 128.102 52.4637 128.725 52.624C129.278 52.766 129.602 53.513 129.947 53.9015C130.279 54.2749 130.444 54.7836 130.701 55.1949C130.86 55.4486 131.04 55.6583 131.204 55.9135C131.44 56.2805 131.805 56.4595 132.135 56.7359C132.239 56.824 132.624 56.9808 132.502 56.9196C132.254 56.7957 132.072 56.6981 131.839 56.5164C131.466 56.2244 131.148 55.8861 130.785 55.5862C130.606 55.438 130.359 55.351 130.194 55.1949C129.741 54.7654 129.425 54.3184 129.1 53.7737C128.841 53.3384 128.719 52.8332 128.222 52.64C127.429 52.3316 128.122 52.1897 128.57 52.3964C128.814 52.5092 129.08 52.7467 129.268 52.9354C129.416 53.0834 129.549 53.3163 129.695 53.4304C129.989 53.6589 130.314 54.2876 130.382 54.66C130.485 55.2239 130.682 55.8356 130.969 56.3447C131.414 57.1357 129.388 53.093 129.907 53.8376C130.32 54.4298 130.701 55.0325 131.2 55.5463C131.392 55.7433 131.772 56.1208 131.887 56.3806C132.049 56.7456 132.564 56.9815 132.893 57.0992C133.543 57.3314 134.365 57.207 135.049 57.207" stroke="#F3D054" stroke-width="0.5" stroke-linecap="round"/>
<path d="M123.52 55.5726C123.52 54.6685 123.71 54.3748 124.349 53.8359C124.727 53.5173 125.097 53.1868 125.456 52.848C125.667 52.6489 126.003 52.5174 126.261 52.4018C126.631 52.2355 127.215 51.8442 127.623 51.8442C128.159 51.8442 128.91 51.5771 129.36 52.0274C129.651 52.3181 130.281 52.641 130.404 53.071C130.492 53.3799 130.917 53.8051 131.121 54.0669C131.406 54.4343 131.578 54.9182 131.822 55.3137C131.886 55.4177 131.907 55.5711 131.965 55.6842C132.097 55.9414 131.776 55.3419 131.762 55.3217C131.364 54.7576 131.021 54.232 130.69 53.6367C130.491 53.2787 130.187 52.8978 129.886 52.6169C129.658 52.4047 129.414 52.4573 129.145 52.37C128.967 52.3122 128.34 52.0188 128.786 52.2505C129.054 52.3895 129.347 52.6429 129.559 52.8639C129.757 53.0692 129.73 53.3485 129.973 53.5491C130.366 53.8725 130.731 54.4513 131.045 54.8596C131.576 55.5502 132.068 56.3051 132.662 56.8991C133.228 57.4647 134.44 57.5992 135.048 56.9907C135.159 56.8797 135.403 56.7185 135.247 56.7915C134.821 56.992 134.189 56.8632 133.726 56.8632C133.409 56.8632 133.311 56.8107 133.057 56.7358C132.819 56.6658 132.718 56.5047 132.499 56.4171C132.369 56.3651 131.856 55.5944 131.838 55.4292C131.816 55.2392 131.596 55.0543 131.535 54.8556C131.501 54.7457 131.452 54.7037 131.372 54.6325C131.247 54.5216 131.29 54.319 131.224 54.1784C131.179 54.0812 130.988 53.5938 130.937 53.565C130.835 53.5064 130.712 53.2847 130.686 53.1706C130.629 52.9113 130.311 52.7466 130.192 52.5293C130.004 52.1846 129.298 51.5796 128.898 51.5573C128.748 51.549 128.675 51.4204 128.539 51.4139C128.204 51.398 127.855 51.3948 127.52 51.4139C126.785 51.4559 126.097 51.7645 125.472 52.131C125.194 52.2938 124.927 52.48 124.652 52.6488C124.327 52.848 124.176 53.173 123.895 53.4216C123.729 53.5684 123.622 53.7958 123.576 54.0111C123.505 54.3428 123.428 54.3391 123.564 54.0669C124.186 52.8229 125.453 52.0976 126.771 51.9159C127.281 51.8455 127.755 51.7785 128.253 52.0274C128.864 52.3332 129.279 52.8651 129.83 53.2782" stroke="#F3D054" stroke-width="0.5" stroke-linecap="round"/>
<path d="M128.181 52.4178C128.222 52.1679 128.486 52.8225 128.651 53.0153C128.907 53.3163 129.148 53.6454 129.432 53.9196C129.958 54.4274 130.454 54.9677 130.949 55.501C131.253 55.8286 131.726 56.0098 132.053 56.3216C132.403 56.6558 132.819 57.0608 133.272 57.2377C133.473 57.3167 134.611 57.3662 133.833 57.1541C133.548 57.0763 133.211 57.1517 132.969 56.9748C132.689 56.7704 132.305 56.4752 132.124 56.1821C131.899 55.8166 131.671 55.4538 131.479 55.0708C131.39 54.8929 131.133 54.4705 131.447 54.8597C131.573 55.0157 131.713 55.201 131.853 55.3416C132.226 55.7144 132.618 56.1112 133.021 56.4331C133.552 56.8582 134.648 56.7515 135.279 56.7199C136.056 56.6811 136.75 56.0272 137.036 55.3974C137.398 54.6014 137.502 53.788 137.502 52.9197" stroke="#F3D054" stroke-width="0.5" stroke-linecap="round"/>
<path d="M124.726 47.9607C124.623 47.9722 123.899 48.1701 123.877 48.1197C123.786 47.918 124.138 47.6381 124.277 47.5518" stroke="#FCEDB5" stroke-width="0.5" stroke-linecap="round"/>
<path d="M133.969 47.9197C134.354 47.6396 134.724 48.3179 134.895 48.5513C135.026 48.7289 135.2 48.9122 135.3 49.1056C135.386 49.2728 135.446 49.5577 135.563 49.6963C135.656 49.8057 135.636 49.9522 135.718 50.0689C135.78 50.1575 135.785 50.2261 135.818 50.3234C135.872 50.4859 136 50.6599 136.013 50.8323C136.021 50.9414 136.089 51.0001 136.095 51.1095C136.099 51.1873 136.125 51.3188 136.145 51.3957C136.174 51.5066 136.242 51.6201 136.29 51.7229C136.325 51.7959 136.297 51.8889 136.331 51.9683C136.405 52.1405 136.422 52.4379 136.422 52.6226C136.422 52.8407 136.422 53.0588 136.422 53.2769C136.422 53.7501 136.259 54.2016 136.259 54.6673C136.259 54.8238 136.148 54.9719 136.136 55.1262C136.122 55.3136 136.016 55.4619 135.931 55.6261C135.847 55.7893 135.736 55.9361 135.654 56.0986C135.614 56.18 135.604 56.1698 135.532 56.2304C135.224 56.4865 135.165 55.926 135.114 55.7306" stroke="#FCEDB5" stroke-width="0.5" stroke-linecap="round"/>
<path d="M133.723 57.4891C134.055 57.3009 134.545 57.3382 134.848 57.1029C134.938 57.0327 135.177 56.9988 135.291 56.9575C135.39 56.9212 135.525 56.8903 135.622 56.8348C135.722 56.7779 135.809 56.7196 135.922 56.6803C135.997 56.6546 136.345 56.4049 136.209 56.4349C136.041 56.4718 135.837 56.6158 135.695 56.7121C135.543 56.8158 135.382 56.8825 135.214 56.9665C135.165 56.991 134.925 57.0867 135.014 57.0142C135.158 56.8961 135.289 56.825 135.457 56.7348C135.597 56.6591 135.797 56.5604 135.911 56.4463C135.932 56.4256 136.316 56.1601 136.268 56.1464C136.085 56.0941 135.692 56.4289 135.554 56.5394C135.543 56.5481 135.05 56.7263 135.382 56.653C135.77 56.5673 136.157 56.4626 136.545 56.3849" stroke="#F3D054" stroke-width="0.5" stroke-linecap="round"/>
<path d="M129.961 53.3179C129.97 53.1557 130.013 53.0548 130.106 53.2406C130.191 53.4098 130.345 53.7457 130.533 53.8086" stroke="#F3D054" stroke-width="0.5" stroke-linecap="round"/>
<path d="M135.645 57.0392C135.645 56.8802 135.84 56.6473 135.932 56.4985C135.982 56.4161 135.985 56.2723 136.045 56.2122C136.077 56.1799 136.247 56.0254 136.256 55.9941C136.3 55.8399 136.422 55.6749 136.522 55.5466C136.59 55.4596 136.601 55.3603 136.629 55.2626C136.661 55.1516 136.762 55.0295 136.799 54.9036C136.995 54.2432 137.117 53.5635 137.117 52.8475C137.117 52.5891 137.107 52.3507 137.074 52.1091C137.057 51.9805 137.012 51.8579 136.993 51.7229C136.958 51.4789 136.87 51.2627 136.831 51.0277" stroke="#F3D054" stroke-width="0.5" stroke-linecap="round"/>
<path d="M116.639 52.2446C116.705 51.9835 116.957 51.6502 117.161 51.4838C117.266 51.3978 117.32 51.2443 117.397 51.1339C117.468 51.0305 117.562 50.9447 117.621 50.8351C117.803 50.5021 118.182 50.234 118.435 49.9538C118.651 49.7145 118.884 49.5376 119.128 49.3332C119.248 49.2331 119.403 49.0731 119.551 49.0361" stroke="#FCEDB5" stroke-width="0.5" stroke-linecap="round"/>
<path d="M116.877 51.9476C117.094 51.3071 117.552 50.8941 117.894 50.3368C118.044 50.0914 118.415 49.8498 118.656 49.7096C118.984 49.5194 119.389 49.4513 119.699 49.2441" stroke="#FCEDB5" stroke-width="0.5" stroke-linecap="round"/>
<path d="M116.877 51.6802C116.927 51.5287 117.139 51.3855 117.243 51.2692C117.396 51.0983 117.541 50.9218 117.674 50.7344C117.822 50.525 117.977 50.3473 118.125 50.137C118.474 49.6374 118.897 49.2617 119.432 48.9767" stroke="#FCEDB5" stroke-width="0.5" stroke-linecap="round"/>
<path d="M118.986 49.4223C118.857 49.4366 118.676 49.6835 118.585 49.764C118.559 49.7874 118.3 49.9675 118.438 49.901C118.867 49.6943 119.272 49.4281 119.699 49.2144" stroke="#FCEDB5" stroke-width="0.5" stroke-linecap="round"/>
<path d="M108.885 42.0844C108.759 42.3559 108.578 42.7939 108.707 43.101C108.773 43.2592 108.919 42.8729 108.938 42.8337C109.014 42.6774 109.162 42.4825 109.169 42.3022C109.174 42.1789 109.121 42.5517 109.149 42.6719C109.342 43.4982 109.871 44.2695 110.328 44.9694C110.595 45.3793 110.888 45.7875 110.995 46.2732C111.084 46.6784 111.173 47.1061 111.173 47.5226C111.173 47.6693 111.231 47.8445 111.036 47.8445C110.664 47.8445 110.577 47.3326 110.356 47.1199C110.202 46.9718 110.133 47.5536 110.133 47.6547C110.133 47.6976 110.151 47.7613 110.181 47.6794C110.252 47.4818 110.308 47.2761 110.371 47.0754" stroke="#FCEDB5" stroke-width="0.5" stroke-linecap="round"/>
<path d="M111.411 40.3315C111.573 40.6984 111.743 41.0299 111.812 41.4291C111.869 41.7608 111.928 42.0911 111.952 42.4276C111.967 42.6361 111.975 42.8442 111.975 43.0532C111.975 43.0889 111.979 43.196 111.975 43.1604C111.957 43.0013 111.936 42.8447 111.907 42.6868C111.844 42.3339 111.766 41.9799 111.678 41.6321C111.667 41.5882 111.648 41.5648 111.648 41.5199" stroke="#FCEDB5" stroke-width="0.5" stroke-linecap="round"/>
<path d="M55.7488 40.2542C55.6033 40.8119 55.0395 41.1385 54.829 41.665C54.5176 42.4434 54.2243 43.2311 53.9204 44.0125" stroke="#5F333B" stroke-linecap="round"/>
<path d="M61.0309 40.3558C60.8505 41.6186 60.2183 42.8015 60.2183 44.1142" stroke="#5F333B" stroke-linecap="round"/>
<path d="M66.1099 40.2542C65.3237 41.3023 65.5004 43.0069 65.5004 44.2157" stroke="#5F333B" stroke-linecap="round"/>
<path d="M11.6642 47.8726C12.5993 47.3775 13.4077 46.7069 14.3616 46.2981C15.2519 45.9165 16.1024 45.3586 17.0252 45.0509C18.0251 44.7176 18.9983 44.5608 20.0331 44.3173C20.4715 44.2142 21.0707 44.2832 21.4664 44.0634C21.9535 43.7928 22.6124 43.9739 23.086 43.7587C23.1285 43.7393 23.5036 43.6903 23.5036 43.6853C23.5036 43.4862 23.0805 43.3791 22.9619 43.3016C22.5112 43.0069 22.081 42.924 21.5737 42.6921C21.0185 42.4383 20.0999 42.4889 19.497 42.4889C18.8732 42.4889 17.9477 42.4372 17.409 42.0601C16.5561 41.463 14.4816 40.4294 13.8481 41.823C13.3613 42.8939 13.5296 44.109 13.1427 45.2146C13.0268 45.5457 13.0881 45.7131 12.8267 45.999C12.6322 46.2118 12.4778 46.5816 12.3188 46.8342C12.2181 46.9941 12.1113 47.1589 12.0479 47.3421C11.8443 47.9304 11.8673 46.8173 11.8673 46.6875C11.8673 45.5012 12.1882 44.5326 12.5784 43.4596C12.7251 43.0561 12.8708 42.6715 13.0637 42.2858C13.1709 42.0714 13.4955 41.5119 13.6957 41.3942C13.7793 41.345 13.7835 41.2951 13.8481 41.2305C13.887 41.1916 13.7142 41.825 13.6957 41.8795C13.4514 42.5985 13.1583 43.331 12.8267 44.0126C12.5559 44.5692 12.6322 45.2705 12.4542 45.8636C12.3119 46.3381 11.8673 47.7247 11.8673 47.2292C11.8673 46.0699 11.8983 45.219 12.522 44.2553C12.7149 43.957 12.8387 43.6076 13.0355 43.3016C13.2449 42.9757 13.5575 42.7542 13.7352 42.3986C13.9587 41.9518 14.3052 41.4207 14.3052 40.9201C14.3052 40.2099 14.7642 40.4085 15.1178 40.7621C15.4406 41.0848 15.998 40.9848 16.3368 41.27C16.5632 41.4607 16.8967 41.3379 17.172 41.3942C17.4884 41.4589 17.8695 41.5485 18.1652 41.6763C18.9706 42.0246 19.8916 42.1637 20.7046 42.4889" stroke="#5F333B" stroke-linecap="round"/>
<path d="M14.4936 41.4235C14.3828 42.4026 14.1933 43.3777 13.9781 44.3386C13.8609 44.8618 13.7036 45.3844 13.6381 45.9181C13.6109 46.1397 13.7457 45.4836 13.8246 45.2746C14.0047 44.797 14.2649 44.3661 14.4936 43.9121C14.6552 43.5913 14.7748 43.2531 14.8946 42.9152C14.9518 42.7537 14.988 42.5744 15.064 42.4204C15.0938 42.3599 15.1465 42.3358 15.1993 42.2985C15.238 42.2712 15.3763 42.2243 15.3906 42.1778C15.4186 42.0868 15.3986 41.8942 15.315 41.833C15.3042 41.825 15.2898 41.819 15.276 41.8232C15.2111 41.8432 15.3937 41.894 15.4589 41.9134C16.0187 42.0799 16.5962 42.1888 17.1748 42.2632C17.5757 42.3147 17.9844 42.3349 18.3789 42.4277C18.7007 42.5034 19.0187 42.5874 19.3441 42.6483C19.866 42.746 20.3964 42.8929 20.9236 42.9542C21.0837 42.9728 21.2447 43.0009 21.4013 43.0419C21.4788 43.0622 21.5624 43.2271 21.4647 43.2662C21.318 43.3248 21.1701 43.3546 21.0162 43.3856C20.4641 43.4967 19.9058 43.5759 19.3526 43.683C18.8412 43.7819 18.3522 43.928 17.8622 44.101C17.3223 44.2915 16.761 44.4376 16.2071 44.5812C15.9456 44.649 15.6829 44.7118 15.4247 44.792C15.3074 44.8284 15.1711 44.8584 15.0664 44.9261C14.9515 45.0003 14.8875 45.1321 14.7959 45.2307C14.6566 45.3808 14.505 45.518 14.3669 45.6695C14.2191 45.8316 14.0704 45.9783 13.9135 46.1277C13.8646 46.1743 13.6504 46.4468 13.66 46.2739C13.6932 45.6767 13.9826 45.1089 14.284 44.6043C14.6252 44.0331 15.1143 43.6494 15.5929 43.2064C15.7787 43.0344 15.969 42.8619 16.1036 42.6446C16.2547 42.4004 15.9326 42.9174 15.9256 42.9298C15.7729 43.2009 15.6545 43.4761 15.5442 43.7658C15.4796 43.9354 15.3776 44.1105 15.3528 44.2923C15.3461 44.3414 15.3026 44.4579 15.3492 44.441C15.3799 44.4298 15.4926 44.3303 15.5003 44.3252C15.6857 44.2016 15.8804 44.0927 16.0755 43.9852C16.2551 43.8862 16.5906 43.7723 16.6532 43.544C16.6831 43.435 16.7322 43.3281 16.7495 43.2162C16.7561 43.1734 16.7423 43.1154 16.7751 43.0809C16.818 43.0358 16.8991 43.0332 16.9554 43.0224C17.208 42.974 17.4613 42.9569 17.7184 42.9639C18.0677 42.9734 18.4142 43.0099 18.7543 43.0919C18.9386 43.1363 19.1189 43.1896 19.3051 43.2235C19.3417 43.2302 19.2476 43.2733 19.2125 43.2857C18.9479 43.3785 18.6743 43.4568 18.4008 43.5184C17.9948 43.6099 17.5806 43.6559 17.1748 43.7488C17.0718 43.7724 16.8782 43.8601 16.7665 43.8353C16.7367 43.8287 16.7823 43.7717 16.7921 43.7634C16.9388 43.6401 17.1431 43.5556 17.3113 43.466C17.4733 43.3798 17.6523 43.3686 17.828 43.31" stroke="#5F333B" stroke-linecap="round"/>
<path d="M22.3471 43.4856C22.1772 43.4856 22.0112 43.4805 21.8425 43.4636" stroke="#5F333B" stroke-linecap="round"/>
<path d="M11.0934 44.3191C11.0934 44.6053 10.9396 44.8691 10.8716 45.1429C10.7978 45.4402 10.7928 45.7468 10.7522 46.0484C10.7331 46.1905 10.6952 46.2688 10.7205 46.4104C10.7517 46.5847 10.7466 46.7594 10.7753 46.932C10.8298 47.2587 10.8814 47.5875 10.952 47.9119C10.979 48.0358 11.0368 48.4062 11.0483 48.2799C11.0718 48.0213 11.0495 47.7502 11.0495 47.4902C11.0495 47.4313 11.0495 47.3724 11.0495 47.3135C11.0495 47.2364 11.1221 47.4867 11.1373 47.5219C11.1835 47.6288 11.1956 47.7617 11.264 47.8558C11.3138 47.9243 11.2938 48.0549 11.3298 48.1361C11.3771 48.2425 11.3635 48.315 11.4883 48.3774" stroke="#FCEDB5" stroke-width="0.5" stroke-linecap="round"/>
<path d="M12.6948 41.1602C12.8783 41.1418 13.0776 40.9234 13.2213 40.8104C13.307 40.7431 13.4262 40.6629 13.4675 40.5581C13.4893 40.5028 13.5435 40.5089 13.576 40.4667C13.6216 40.4074 13.7021 40.368 13.7624 40.3241C13.8253 40.2784 13.9293 40.1782 14.0037 40.1511C14.2233 40.0712 14.3953 39.9756 14.635 39.9756C14.6862 39.9756 14.7374 39.9756 14.7886 39.9756C14.847 39.9756 14.8863 40.03 14.9421 40.0402C15.0175 40.0539 15.1546 40.0886 15.2163 40.1401C15.2433 40.1626 15.3098 40.1619 15.3443 40.1681C15.4262 40.183 15.4909 40.2019 15.571 40.2291C15.7002 40.273 15.8334 40.2937 15.9622 40.3388C16.0849 40.3817 16.218 40.4226 16.3363 40.4753C16.4826 40.5403 16.6495 40.5599 16.797 40.6166C16.9073 40.659 17.0461 40.6951 17.159 40.7202C17.3103 40.7539 17.4697 40.8238 17.6306 40.8531C17.808 40.8853 17.9779 40.9564 18.1571 40.9896C18.4088 41.0362 18.6663 41.0769 18.9151 41.1382C19.2167 41.2126 19.5048 41.3413 19.8121 41.3966C19.9921 41.429 20.1686 41.5292 20.3484 41.5782C20.4222 41.5983 20.6588 41.6438 20.7018 41.6976C20.7483 41.7557 20.9756 41.7803 21.0528 41.8134C21.0972 41.8324 21.1535 41.8217 21.2015 41.8402C21.264 41.8644 21.3153 41.9098 21.3818 41.9231C21.6529 41.9773 21.908 42.12 22.1606 42.2229C22.2152 42.2451 22.2739 42.2567 22.33 42.2741C22.4034 42.2969 22.4667 42.3419 22.5396 42.3618C22.6444 42.3904 22.7342 42.4609 22.8309 42.4971C23.0497 42.5792 23.2553 42.6586 23.4536 42.7835C23.594 42.8719 23.7418 42.9096 23.8522 43.037C23.9394 43.1376 24.0593 43.1982 24.1447 43.2978C24.256 43.4277 24.4104 43.6068 24.5627 43.6829" stroke="#FCEDB5" stroke-width="0.5" stroke-linecap="round"/>
<path d="M20.6611 45.1146C21.0895 44.8867 21.5616 44.8577 22.0097 44.7083C22.2528 44.6273 22.5659 44.5115 22.8181 44.5115C23.1232 44.5115 23.451 44.4546 23.7395 44.3691C23.918 44.3162 23.9406 44.3471 23.9406 44.1345C23.9406 44.0277 23.9406 43.9209 23.9406 43.8141C23.9406 43.4504 23.5648 43.1217 23.2453 42.9848C23.0143 42.8858 22.8148 42.6743 22.5815 42.5723C22.2597 42.4315 21.9359 42.2766 21.6119 42.1367C21.4588 42.0706 21.2704 42.0093 21.1302 41.9252C20.9902 41.8412 20.8247 41.8171 20.6904 41.743C20.3164 41.5366 19.7984 41.5333 19.3879 41.3912C18.9169 41.2281 20.3784 41.5579 20.8412 41.743C21.4364 41.9811 22.043 42.1649 22.6129 42.4718C22.8496 42.5992 23.0411 42.7039 23.2411 42.8906C23.4011 43.0399 23.5436 43.1812 23.6767 43.3618C23.7157 43.4147 24.0563 43.8612 24.1081 43.8267C24.1251 43.8154 23.5727 43.3142 23.4798 43.2382C23.3153 43.1036 23.0564 42.9547 22.8642 42.8529C22.5787 42.7018 22.2373 42.5017 21.9218 42.4089C21.7982 42.3726 21.69 42.3031 21.5658 42.2686C21.446 42.2354 21.3466 42.118 21.2265 42.099C20.9215 42.0508 20.5141 41.8421 20.2297 41.7074C20.0246 41.6102 19.7972 41.5574 19.5889 41.4582C19.4401 41.3873 19.2664 41.1943 19.0968 41.1943C18.999 41.1943 18.8964 41.164 18.8015 41.1399C18.6816 41.1095 18.2908 40.9702 18.6068 41.1189C18.8489 41.2329 19.1171 41.2689 19.3669 41.3619C19.8232 41.5316 20.3211 41.5793 20.7742 41.8058C21.0639 41.9507 21.3853 42.1228 21.6872 42.2414C21.989 42.3599 22.2451 42.6457 22.5668 42.7042C22.6642 42.7219 22.7559 42.8253 22.8558 42.8613C22.9212 42.8848 23.0062 42.9782 23.0547 43.0267C23.2365 43.2085 23.423 43.3866 23.6034 43.567C23.7096 43.6732 23.8507 43.8339 23.9782 43.9104C24.1306 44.0019 24.2124 44.2628 24.3929 44.323" stroke="#FCEDB5" stroke-width="0.5" stroke-linecap="round"/>
<path d="M20.6743 44.9374C21.0695 44.9228 21.4548 44.7404 21.8496 44.7075C22.0931 44.6872 22.346 44.6029 22.5864 44.5524C22.7623 44.5155 22.9696 44.4931 23.1361 44.4284C23.2544 44.3824 23.4991 44.4164 23.5617 44.2755C23.5828 44.228 23.6387 44.1916 23.6387 44.129C23.6387 44.0584 23.6387 43.9878 23.6387 43.9172C23.6387 43.7793 23.4891 43.6253 23.3842 43.5515C23.2782 43.4769 23.178 43.3697 23.0805 43.2831C22.9428 43.1607 22.833 43.026 22.6869 42.9077C22.5352 42.7849 22.3927 42.68 22.2335 42.5698C22.0114 42.416 21.7372 42.351 21.501 42.2329C21.4706 42.2177 21.2744 42.1655 21.3288 42.1655C21.4493 42.1655 21.5913 42.2372 21.7009 42.281C21.8517 42.3413 22.021 42.3858 22.1458 42.4928C22.1802 42.5223 22.2352 42.5328 22.2763 42.5505C22.3336 42.5753 22.3704 42.6253 22.4249 42.6553C22.493 42.6927 22.5451 42.7767 22.6174 42.8008C22.6821 42.8223 22.7381 42.91 22.8014 42.9441C22.9121 43.0037 23.008 43.1132 23.0976 43.2029C23.1306 43.2359 23.1723 43.2683 23.1949 43.3098C23.2092 43.336 23.2379 43.3294 23.2494 43.3483C23.2932 43.4198 23.3298 43.5119 23.3842 43.575C23.4982 43.7072 23.5443 43.891 23.6387 44.0327" stroke="#FCEDB5" stroke-width="0.5" stroke-linecap="round"/>
<path d="M23.4375 44.3555C23.4553 44.3396 23.483 44.3304 23.4931 44.3095C23.5015 44.2918 23.5228 44.2813 23.5265 44.26C23.5313 44.2319 23.541 44.2038 23.5432 44.1753C23.5444 44.1598 23.5508 44.1459 23.5508 44.1302C23.5508 44.1113 23.5508 44.0923 23.5508 44.0734C23.5508 44.0379 23.5508 44.0025 23.5508 43.967C23.5508 43.8683 23.5156 43.7699 23.4805 43.6797" stroke="#FCEDB5" stroke-width="0.5" stroke-linecap="round"/>
<path d="M13.3367 41.812C13.3648 41.6573 13.4748 41.4985 13.5428 41.3557C13.5913 41.2538 13.5926 41.1621 13.6543 41.0651C13.7709 40.8819 13.8283 40.6608 13.9771 40.4872C14.0123 40.4461 14.1609 40.3485 14.1055 40.3689C13.9201 40.4372 13.8298 40.5808 13.7084 40.7339C13.6315 40.831 13.5983 40.9205 13.5631 41.0364C13.4988 41.2477 13.3759 41.4498 13.2893 41.6531C13.2498 41.7461 13.0556 42.1122 13.1981 41.8153C13.3078 41.5867 13.432 41.3826 13.5479 41.158C13.6773 40.9072 13.831 40.6898 13.9771 40.4585C14.2109 40.0883 14.5711 40.3039 14.9115 40.3588C15.1609 40.399 15.4013 40.4764 15.6482 40.5345C16.314 40.6912 16.99 40.8782 17.637 41.0938C17.9618 41.2021 18.3019 41.2657 18.612 41.4166C18.8011 41.5086 19.023 41.5381 19.2034 41.6447C19.4617 41.7973 19.7439 41.8622 20.0347 41.9269C20.7098 42.0769 21.3462 42.3233 22.005 42.5115C22.6086 42.684 23.0946 43.1716 23.7386 43.2432C24.0393 43.2766 24.3409 43.3474 24.6376 43.4172C24.6629 43.4232 24.7411 43.4212 24.7153 43.424C24.6171 43.4343 24.572 43.4865 24.4939 43.5304C24.3944 43.5864 24.2462 43.6622 24.134 43.6673C24.0411 43.6715 23.8889 43.7095 23.8062 43.7585C23.7189 43.8103 23.6182 43.7747 23.524 43.8041C23.4137 43.8386 23.3055 43.9106 23.1911 43.9106C22.9976 43.9106 22.9992 43.8745 22.963 43.6791C22.9168 43.4295 22.8917 43.1318 22.6487 42.9948C22.599 42.9667 21.7848 42.5158 21.7684 42.5487C21.6862 42.713 23.4375 43.1806 23.7555 43.1806C23.8317 43.1806 23.9714 43.1969 23.8096 43.2651C23.6403 43.3365 23.4345 43.3769 23.2554 43.4172C23.2431 43.42 22.8993 43.4848 23.0458 43.4848C23.5081 43.4848 23.963 43.424 24.4213 43.424C24.5243 43.424 24.6274 43.424 24.7305 43.424C25.0443 43.424 24.799 43.4119 24.6274 43.3395C24.466 43.2714 24.3267 43.171 24.1644 43.1046C24.0309 43.05 23.8855 43.0121 23.7623 42.9373C23.6588 42.8745 23.5099 42.8608 23.4209 42.7852C23.3667 42.7392 23.2895 42.7156 23.2216 42.7008C23.0938 42.6729 22.9858 42.5978 22.8583 42.5723C22.527 42.5061 22.1978 42.3769 21.8698 42.2851C21.198 42.097 20.534 41.8426 19.8691 41.6362C19.5338 41.5321 19.1725 41.4787 18.835 41.3861C18.5441 41.3064 18.2312 41.1428 17.9293 41.1428" stroke="#5F333B" stroke-width="0.5" stroke-linecap="round"/>
<path d="M23.6169 43.6673C23.7756 43.6673 23.9471 43.6879 24.1036 43.6656C24.2496 43.6447 24.3957 43.5652 24.548 43.5473C24.7122 43.528 24.8822 43.5325 25.0465 43.5152C25.2606 43.4927 25.0281 43.424 24.9248 43.424" stroke="#5F333B" stroke-width="0.5" stroke-linecap="round"/>
<path d="M98.265 43.8103C98.6793 43.8103 99.2492 44.1694 99.6017 44.3574C100.071 44.6077 100.699 44.6961 101.209 44.8537C101.707 45.0076 102.208 45.1955 102.681 45.4233C103.343 45.7425 104.099 45.775 104.765 46.0663C104.987 46.1635 105.245 46.165 105.476 46.2721C105.867 46.4537 106.31 46.495 106.711 46.65C107.336 46.8921 108.013 47.0119 108.631 47.2619C109.435 47.5875 110.12 48.1474 110.927 48.4322C111.283 48.558 111.616 48.8949 112.021 48.9398C112.18 48.9575 112.297 49.1026 112.452 49.1372C112.569 49.1631 112.645 49.1541 112.757 49.2161C112.851 49.2686 112.998 49.3882 113.104 49.3882C113.161 49.3882 113.159 49.0262 113.109 48.9624C113.006 48.8295 113.037 48.6537 112.957 48.5055C112.877 48.3566 112.816 48.2205 112.743 48.0741C112.567 47.722 112.362 47.2982 112.235 46.9179C112.073 46.4331 111.787 45.9028 111.713 45.3838C111.674 45.1118 111.464 44.874 111.417 44.6027C111.378 44.3779 111.286 44.1989 111.209 43.9852C111.077 43.6246 110.969 43.2231 110.955 42.8346C110.938 42.3641 110.82 41.8916 110.802 41.4134C110.793 41.1565 110.494 40.7631 110.205 40.9283C110.017 41.0354 109.606 41.0568 109.381 41.0693C109.09 41.0855 108.783 41.2231 108.507 41.3119C108.046 41.4599 107.568 41.6588 107.094 41.7771C106.668 41.8838 106.265 42.0249 105.828 42.0873C105.515 42.1321 105.175 42.2231 104.861 42.2904C104.69 42.327 104.531 42.4211 104.356 42.437C104.224 42.449 104.097 42.4283 103.967 42.4624C103.353 42.6235 102.652 42.6768 102.061 42.8967C101.578 43.0764 100.963 43.2124 100.448 43.2492C100.129 43.2719 99.7992 43.3602 99.4804 43.424C99.2494 43.4702 99.0033 43.4179 98.7782 43.4804C98.6996 43.5022 98.3832 43.658 98.5724 43.658C98.8342 43.658 99.0621 43.7588 99.3056 43.8329C100.071 44.0659 100.889 44.1341 101.629 44.4251C102.191 44.6457 102.758 44.7698 103.344 44.9016C103.523 44.942 103.677 45.0329 103.851 45.0765C104.004 45.1146 104.19 45.1169 104.317 45.2203C104.444 45.3246 104.002 45.1238 103.843 45.0793C103.358 44.9435 102.864 44.8473 102.376 44.724C101.814 44.5816 101.198 44.5399 100.651 44.3574C100.193 44.205 99.7316 44.1076 99.2605 43.9626C99.1356 43.9242 98.3798 43.6677 98.3919 43.658C98.6136 43.4807 98.9873 43.5565 99.2802 43.5565" stroke="#5F333B" stroke-width="0.5" stroke-linecap="round"/>
<path d="M110.618 40.8752C110.812 41.0691 110.937 41.3986 111.057 41.6455C111.14 41.8162 111.232 41.9993 111.269 42.1858C111.304 42.3571 111.402 42.5163 111.402 42.6929C111.402 42.81 111.436 42.9189 111.458 43.0328C111.509 43.3013 111.478 43.5972 111.543 43.8571C111.694 44.4604 111.778 45.0719 111.904 45.6835C112.142 46.8459 112.556 47.9567 112.97 49.0626" stroke="#5F333B" stroke-width="0.5" stroke-linecap="round"/>
<path d="M110.555 40.8125C110.518 40.4417 109.877 40.8125 109.661 40.8457C109.413 40.8838 109.196 41.0769 108.953 41.1437C108.817 41.1811 108.634 41.236 108.516 41.3145" stroke="#5F333B" stroke-width="0.5" stroke-linecap="round"/>
<path d="M108.234 45.0474C108.004 45.0474 107.997 44.8105 108.016 44.6396C108.055 44.2846 108.688 44.7026 108.76 44.8383C108.817 44.9457 108.941 45.2641 108.791 45.3542C108.665 45.4302 108.426 45.3779 108.3 45.3576C107.807 45.2785 107.363 45.1044 106.93 44.861C106.605 44.6784 106.385 44.5561 106.353 44.1778C106.326 43.8456 106.913 43.6806 107.146 43.6741C107.61 43.6613 108.09 43.7585 108.537 43.8728C108.783 43.9359 109.045 44.0151 109.248 44.1761C109.479 44.3591 109.548 44.6451 109.548 44.9289C109.548 45.1579 109.394 45.3333 109.171 45.3733C109.014 45.4017 108.874 45.3805 108.727 45.3176C108.298 45.1344 107.821 44.8854 107.495 44.5455C107.149 44.1853 107.265 43.6502 107.819 43.601C108.487 43.5415 109.162 43.7852 109.593 44.2928C109.824 44.565 109.945 44.7739 109.734 45.1102C109.399 45.6446 108.676 45.6166 108.122 45.5598C107.544 45.5005 107.081 45.3034 106.575 45.0405C106.237 44.8653 106.061 44.6723 106.074 44.2737C106.086 43.9087 106.277 43.7539 106.583 43.601C106.79 43.4977 107.004 43.4088 107.233 43.3709C107.807 43.2761 108.451 43.1919 109.032 43.2559C109.37 43.2931 109.678 43.4036 109.907 43.6602C110.031 43.7999 110.094 44.0036 110.165 44.1726C110.256 44.39 110.368 44.6182 110.393 44.8557C110.409 45.0108 110.444 45.2576 110.297 45.3611C109.93 45.6202 109.272 45.6326 108.844 45.5528C108.182 45.4295 107.494 45.1593 106.92 44.8069C106.544 44.5763 106.024 44.2901 105.823 43.8763C105.708 43.6381 105.98 43.3564 106.155 43.2315C106.6 42.9125 107.188 42.8032 107.721 42.74C108.019 42.7047 108.322 42.6673 108.621 42.639C108.707 42.6307 108.876 42.5781 108.96 42.5902C109.05 42.6029 108.808 42.6884 108.727 42.7278C108.478 42.8485 108.218 42.9377 107.948 42.9945C107.444 43.1001 106.929 43.134 106.421 43.2088C106.12 43.2532 105.81 43.2907 105.504 43.2907C105.345 43.2907 105.221 43.3843 105.069 43.4162C104.605 43.5134 104.127 43.5389 103.668 43.6497C103.49 43.6927 103.289 43.6672 103.106 43.6672C102.898 43.6672 102.702 43.741 102.493 43.7543C102.286 43.7675 102.079 43.7536 101.873 43.7613C101.705 43.7675 102.084 44.0355 102.232 44.1151C103.912 45.0189 105.721 45.6882 107.498 46.3719C107.96 46.5495 108.392 46.7918 108.852 46.9662C109.206 47.1001 109.561 47.2616 109.896 47.4315C110.143 47.5568 110.416 47.6282 110.663 47.7469C110.749 47.788 110.809 47.8567 110.89 47.902C111.006 47.9674 111.202 48.0006 111.283 48.1077C111.346 48.1889 111.668 48.3098 111.759 48.3098C111.908 48.3098 112.022 48.4297 112.179 48.4353C112.25 48.4378 112.323 48.545 112.378 48.5852C112.419 48.6153 112.348 48.4865 112.322 48.4423C112.166 48.1745 111.985 47.9314 111.799 47.6842C111.515 47.3048 111.363 46.7992 111.165 46.3719C111.121 46.278 111.08 46.1403 111.019 46.0582C110.987 46.0164 110.873 45.9526 110.848 45.9362C110.51 45.7187 110.156 45.5205 109.776 45.3873C109.534 45.3024 109.485 45.3866 109.445 45.6312C109.382 46.0124 109.611 46.3759 109.868 46.6368C109.891 46.6603 110.166 46.8888 110.189 46.8285C110.221 46.7422 109.814 46.4993 109.804 46.4922C109.358 46.1873 108.897 45.8994 108.439 45.6121C108.213 45.4703 107.982 45.3364 107.763 45.1834C107.684 45.1282 107.904 45.3143 107.976 45.3786C108.428 45.7842 108.977 46.0248 109.494 46.3318C109.826 46.5294 110.144 46.7327 110.497 46.9C110.611 46.9536 110.714 47.0081 110.782 47.1178C110.79 47.1314 110.88 47.2382 110.893 47.198C110.923 47.1091 110.803 46.9421 110.768 46.8843C110.57 46.5598 110.293 46.267 110.137 45.9188C110.125 45.8928 110.116 45.822 110.142 45.8334C110.202 45.8598 110.339 45.9963 110.363 46.0199C110.553 46.2013 110.737 46.39 110.923 46.5758C111.118 46.7713 111.278 46.9495 111.5 47.1108C111.633 47.2084 111.501 46.6754 111.479 46.5985C111.449 46.4931 111.403 46.3916 111.371 46.2865C111.299 46.0533 111.209 45.8295 111.158 45.5877C111.045 45.0548 110.729 44.5869 110.642 44.0436C110.536 43.3865 110.273 42.7127 110.273 42.0429C110.273 41.8837 110.336 41.5771 110.269 41.4278C110.219 41.3145 109.215 41.6343 109.095 41.6595C108.844 41.7118 108.593 41.784 108.349 41.86C108.041 41.9556 107.698 41.9638 107.394 42.0673C107.153 42.1494 106.892 42.188 106.646 42.2556C106.342 42.3391 106.046 42.4388 105.74 42.5222C104.567 42.8421 103.232 42.7159 102.132 43.3082C101.992 43.3839 101.765 43.5385 101.601 43.5417C101.361 43.5464 101.125 43.6672 100.891 43.6672C100.654 43.6672 101.008 43.8941 101.054 43.9234C101.572 44.2537 102.163 44.4945 102.741 44.6989C103.148 44.8431 103.571 44.9235 103.95 45.1398C104.178 45.2701 104.504 45.3547 104.752 45.4483C104.852 45.4863 105.195 45.6524 105.254 45.4727C105.355 45.163 105.25 44.7679 105.015 44.5473C104.668 44.2215 104.18 44.0629 103.769 43.8362C103.514 43.6955 103.278 43.5196 103.021 43.3831C102.941 43.3407 102.986 43.3795 103.014 43.3918C103.232 43.4874 103.491 43.532 103.716 43.5975C104.106 43.7106 104.614 43.7844 104.94 44.0506C105.101 44.1825 105.15 44.5344 105.241 44.7215C105.276 44.7928 105.595 45.2859 105.626 45.1537C105.737 44.6826 105.674 44.2531 106.128 43.9181C106.875 43.3674 107.936 43.2279 108.819 43.0537C109.168 42.9849 109.544 42.954 109.889 42.8585C109.987 42.8315 110.067 42.6931 110.128 42.618C110.192 42.5404 110.099 42.5394 110.044 42.5361C109.84 42.5241 109.593 42.4436 109.422 42.3253C109.386 42.3004 109.37 42.16 109.375 42.2033C109.393 42.3446 109.235 42.5202 109.206 42.6634" stroke="#5F333B" stroke-linecap="round"/>
<path d="M99.6384 43.7298C100.019 43.7298 100.414 43.7158 100.789 43.7908C101.083 43.8496 100.189 43.8239 99.8894 43.8239" stroke="#5F333B" stroke-width="0.5" stroke-linecap="round"/>
<path d="M94.3759 43.9076C95.3224 43.9076 96.1828 44.2184 97.1126 44.3217C97.5354 44.3687 97.9835 44.3548 98.4014 44.4477C98.7496 44.525 99.1879 44.5553 99.518 44.6829C99.9821 44.8622 100.485 44.8535 100.936 45.054C101.242 45.1899 101.568 45.2643 101.894 45.3455C102.25 45.4347 102.591 45.7171 102.964 45.7564C103.321 45.794 103.554 46.0005 103.888 46.0811C104.842 46.3113 105.74 46.7186 106.661 46.9624C107.008 47.0542 107.283 47.2027 107.602 47.3202C108.146 47.52 108.688 47.7342 109.193 48.0226C109.466 48.1786 109.753 48.3839 110.081 48.4434C110.189 48.4632 110.408 48.6536 110.541 48.7118C110.805 48.8272 111.159 49.0551 111.432 49.0961C111.893 49.1652 112.205 49.4791 112.619 49.6859C112.919 49.836 113.223 49.9573 113.51 50.1365C113.634 50.2143 113.937 50.3764 113.937 50.5275" stroke="#FCEDB5" stroke-width="0.5" stroke-linecap="round"/>
<path d="M97.2222 44.2246C97.3791 44.1818 97.5089 43.988 97.6249 43.8845C97.8522 43.6815 98.0718 43.4919 98.3251 43.3207C99.4064 42.5901 100.578 42.0294 101.813 41.6071" stroke="#FCEDB5" stroke-width="0.5" stroke-linecap="round"/>
<path d="M97.061 44.5468C97.443 44.308 97.6869 43.9542 98.0901 43.7414C98.2516 43.6562 98.524 43.4713 98.6472 43.3387C98.9354 43.0283 99.451 42.8664 99.8463 42.7413C101.407 42.2476 103.011 41.9257 104.551 41.3655" stroke="#FCEDB5" stroke-width="0.5" stroke-linecap="round"/>
<path d="M97.4236 44.0635C97.5917 43.9396 97.8747 43.8464 98.0053 43.6921C98.0678 43.6182 98.1495 43.567 98.2379 43.531C98.4585 43.4412 98.5812 43.2811 98.8106 43.2156C98.9853 43.1657 99.1651 43.0478 99.3386 42.9784C99.6606 42.8496 99.9974 42.7455 100.325 42.6317C100.722 42.4939 101.144 42.2916 101.571 42.2916" stroke="#FCEDB5" stroke-width="0.5" stroke-linecap="round"/>
<path d="M97.504 44.3051C98.1649 43.8756 98.8434 43.4139 99.5488 43.0613C99.7392 42.9661 99.9131 42.8585 100.108 42.7749C100.524 42.5966 101.079 42.4125 101.531 42.4125" stroke="#FCEDB5" stroke-width="0.5" stroke-linecap="round"/>
<path d="M101.37 42.4528C101.243 42.4654 101.115 42.5907 100.992 42.6362C100.908 42.6672 100.807 42.7479 100.723 42.795C100.485 42.9291 100.226 42.9473 99.9896 43.0725C99.8449 43.149 99.6532 43.1662 99.4952 43.238C99.3013 43.3261 99.1317 43.4413 98.9538 43.5557C98.69 43.7253 98.189 44.2935 98.6987 44.5154C98.8932 44.6002 99.1066 44.6422 99.2983 44.7168C99.4734 44.7849 99.0097 44.4739 98.8867 44.332C98.7531 44.178 98.6704 43.9799 98.6003 43.7906C98.58 43.7358 98.5675 43.6785 98.5332 43.6295C98.4623 43.5283 98.639 43.8555 98.7166 43.9517C98.9093 44.1904 99.2729 44.2099 99.522 44.3655C99.5913 44.4089 99.7529 44.438 99.8375 44.4662C99.9019 44.4877 99.955 44.5468 100.023 44.5468C100.315 44.5468 100.652 44.7769 100.949 44.8309C101.225 44.8809 101.526 45.0312 101.746 45.2045C102.024 45.4242 102.349 45.5183 102.672 45.6475C103.009 45.7824 103.408 45.7633 103.714 45.9562C103.855 46.0448 104.062 46.115 104.22 46.1575C104.459 46.2219 104.74 46.388 104.945 46.5289C105.19 46.698 105.468 46.8157 105.719 46.9808C105.886 47.0907 106.299 47.2527 106.363 47.4461" stroke="#FCEDB5" stroke-width="0.5" stroke-linecap="round"/>
<path d="M107.571 40.9225C107.841 40.8512 108.181 40.6808 108.457 40.6808C108.778 40.6808 109.091 40.5051 109.404 40.4392C109.56 40.4064 109.705 40.3176 109.862 40.2826C109.946 40.264 110.069 40.2609 110.149 40.2289C110.352 40.1477 110.731 40.1171 110.954 40.1171" stroke="#FCEDB5" stroke-width="0.5" stroke-linecap="round"/>
<path d="M108.216 40.842C108.332 40.8375 108.433 40.8002 108.538 40.7525C108.714 40.6724 108.886 40.6952 109.073 40.6608C109.296 40.6195 109.538 40.6177 109.755 40.5511C109.938 40.4947 110.127 40.4842 110.31 40.4192C110.454 40.3676 110.621 40.3844 110.753 40.3185" stroke="#FCEDB5" stroke-width="0.5" stroke-linecap="round"/>
<path d="M110.269 40.3989C109.995 40.4717 109.72 40.5368 109.446 40.6092C109.291 40.6502 108.961 40.6493 108.84 40.7435C108.736 40.8239 108.555 40.8374 108.426 40.8419C108.233 40.8486 107.988 40.9537 107.809 41.0298C107.472 41.1722 107.134 41.2919 106.766 41.3654" stroke="#FCEDB5" stroke-width="0.5" stroke-linecap="round"/>
<path d="M110.39 40.3587C110.602 40.3587 110.703 40.3516 110.873 40.4795" stroke="#FCEDB5" stroke-width="0.5" stroke-linecap="round"/>
<path d="M110.994 40.3588C110.994 40.5242 111.198 40.6614 111.234 40.8219C111.267 40.9713 111.367 41.0798 111.399 41.2246C111.419 41.3119 111.502 41.342 111.527 41.4147C111.564 41.5217 111.533 41.6454 111.578 41.7458C111.643 41.8894 111.719 42.1154 111.719 42.2693C111.719 42.4638 111.829 42.6642 111.871 42.8555C111.918 43.064 111.914 43.3293 112.01 43.5221C112.098 43.699 112.15 44.0987 112.162 44.3052C112.179 44.5991 112.324 44.8981 112.372 45.1911C112.455 45.6879 112.637 46.1641 112.728 46.6631C112.829 47.2181 113.009 47.8452 113.308 48.3142C113.37 48.4129 113.444 48.7351 113.451 48.8556C113.46 49.0242 113.491 49.1666 113.491 49.3388C113.491 49.5187 113.466 49.6839 113.24 49.7012C113.161 49.7074 113.044 49.7343 112.967 49.7616C112.597 49.8941 112.106 49.8402 111.719 49.8623" stroke="#FCEDB5" stroke-width="0.5" stroke-linecap="round"/>
<path d="M111.316 49.1374C111.65 49.4706 112.069 49.6579 112.54 49.6989C112.725 49.7149 112.902 49.7414 113.088 49.7414C113.301 49.7414 113.28 49.5114 113.339 49.379C113.517 48.9785 113.256 48.5477 113.173 48.1754C113.072 47.7195 112.927 47.2878 112.927 46.8018" stroke="#FCEDB5" stroke-width="0.5" stroke-linecap="round"/>
<path d="M135.181 48.8893C135.147 49.5314 134.96 49.9757 134.56 50.4695C134.208 50.9041 133.604 51.3946 133.043 51.5068" stroke="#5F333B" stroke-width="0.5" stroke-linecap="round"/>
<path d="M136.053 50.5907C135.984 51.1061 135.581 51.7566 135.181 52.0837C134.954 52.2689 134.791 52.4477 134.504 52.5321C134.386 52.5669 134.281 52.5453 134.177 52.5975" stroke="#5F333B" stroke-width="0.5" stroke-linecap="round"/>
<path d="M136.62 52.554C136.62 53.3604 135.488 53.7755 134.832 53.7755" stroke="#5F333B" stroke-width="0.5" stroke-linecap="round"/>
</svg>
