<svg width="125" height="80" viewBox="0 0 125 80" fill="none" xmlns="http://www.w3.org/2000/svg">
<path d="M62.5 79.5C79.5195 79.5 94.9479 77.3134 106.138 73.7652C111.73 71.992 116.292 69.8701 119.467 67.4903C122.633 65.1171 124.5 62.4223 124.5 59.5C124.5 56.5777 122.633 53.8829 119.467 51.5097C116.292 49.1299 111.73 47.008 106.138 45.2348C94.9479 41.6866 79.5195 39.5 62.5 39.5C45.4805 39.5 30.0521 41.6866 18.8618 45.2348C13.2695 47.008 8.70763 49.1299 5.53307 51.5097C2.36725 53.8829 0.5 56.5777 0.5 59.5C0.5 62.4223 2.36725 65.1171 5.53307 67.4903C8.70763 69.8701 13.2695 71.992 18.8618 73.7652C30.0521 77.3134 45.4805 79.5 62.5 79.5Z" fill="#CCFCB5"/>
<path d="M62.5 79.5C79.5195 79.5 94.9479 77.3134 106.138 73.7652C111.73 71.992 116.292 69.8701 119.467 67.4903C122.633 65.1171 124.5 62.4223 124.5 59.5C124.5 56.5777 122.633 53.8829 119.467 51.5097C116.292 49.1299 111.73 47.008 106.138 45.2348C94.9479 41.6866 79.5195 39.5 62.5 39.5C45.4805 39.5 30.0521 41.6866 18.8618 45.2348C13.2695 47.008 8.70763 49.1299 5.53307 51.5097C2.36725 53.8829 0.5 56.5777 0.5 59.5C0.5 62.4223 2.36725 65.1171 5.53307 67.4903C8.70763 69.8701 13.2695 71.992 18.8618 73.7652C30.0521 77.3134 45.4805 79.5 62.5 79.5Z" stroke="black" stroke-linejoin="round"/>
<path d="M62.5 79.5C79.5195 79.5 94.9479 77.3134 106.138 73.7652C111.73 71.992 116.292 69.8701 119.467 67.4903C122.633 65.1171 124.5 62.4223 124.5 59.5C124.5 56.5777 122.633 53.8829 119.467 51.5097C116.292 49.1299 111.73 47.008 106.138 45.2348C94.9479 41.6866 79.5195 39.5 62.5 39.5C45.4805 39.5 30.0521 41.6866 18.8618 45.2348C13.2695 47.008 8.70763 49.1299 5.53307 51.5097C2.36725 53.8829 0.5 56.5777 0.5 59.5C0.5 62.4223 2.36725 65.1171 5.53307 67.4903C8.70763 69.8701 13.2695 71.992 18.8618 73.7652C30.0521 77.3134 45.4805 79.5 62.5 79.5Z" stroke="#CCFCB5" stroke-linejoin="round"/>
<path d="M11 60.9619C11.1973 62.9348 15.6381 66.6281 17.4762 66.825C18.8006 66.9669 19.7242 68.1562 21.0784 68.2046C22.5404 68.2568 23.978 68.9535 25.2937 69.5075C27.4884 70.4316 30.3597 70.2765 32.6513 71.0403C33.9277 71.4658 34.6669 71.9432 36.1001 71.9983C36.8308 72.0264 38.2236 72.2613 38.9359 72.5157C40.3504 73.0208 41.8857 73.7228 43.4003 73.7228C44.7889 73.7228 45.9075 73.6581 47.194 74.221C48.2061 74.6637 49.9073 74.6368 51.0261 74.7766C52.7454 74.9915 54.3598 75.1023 56.1036 75.1023C59.5272 75.1023 62.9274 75.4472 66.4502 75.4472C69.5555 75.4472 72.5883 75.1023 75.6472 75.1023C81.2114 75.1023 86.3499 72.1971 91.8569 71.6726C94.5407 71.417 97.2918 70.5036 99.981 69.7566C102.301 69.1121 104.721 68.4801 106.802 67.1699C107.642 66.6412 108.734 66.59 109.638 66.0586C110.4 65.6104 111.092 64.9141 111.86 64.4875C114.042 63.2756 114.163 61.9354 114.792 59.7357C116.064 55.2853 109.765 53.438 106.879 51.9949" stroke="#737272" stroke-linecap="round"/>
<path d="M11.796 55.9928C11.796 54.5499 15.9283 52.5396 17.3318 52.0556C19.3162 51.3713 21.1676 50.5947 23.2524 50.1314C24.1634 49.929 25.3605 50.0834 26.1979 49.717C26.8131 49.4478 27.8181 48.9259 28.433 48.8141C29.7709 48.5708 31.2318 48 32.5774 48" stroke="#737272" stroke-linecap="round"/>
<rect x="14" y="8" width="99" height="20" rx="10" fill="#F5E19A"/>
<path d="M36.7155 20.32C36.6555 20.35 36.5755 20.365 36.4755 20.365C36.3855 20.365 36.3005 20.315 36.2205 20.215L35.9055 19.87C35.8655 19.83 35.8855 19.785 35.9655 19.735C35.9855 19.725 36.0005 19.715 36.0105 19.705C36.7105 19.435 37.3655 19.1 37.9755 18.7C38.5955 18.29 39.1205 17.835 39.5505 17.335C39.9805 16.835 40.2755 16.305 40.4355 15.745C40.1055 15.755 39.8105 15.765 39.5505 15.775C39.3005 15.785 39.1355 15.795 39.0555 15.805C38.8955 15.815 38.6605 15.83 38.3505 15.85C38.0505 15.87 37.7455 15.89 37.4355 15.91C37.1355 15.92 36.9005 15.935 36.7305 15.955C36.6205 15.975 36.5505 15.965 36.5205 15.925C36.4905 15.885 36.4605 15.835 36.4305 15.775C36.4305 15.765 36.4305 15.76 36.4305 15.76C36.3905 15.65 36.3605 15.555 36.3405 15.475C36.3205 15.395 36.2905 15.27 36.2505 15.1C36.2405 15.08 36.2455 15.055 36.2655 15.025C36.2855 14.995 36.3205 14.985 36.3705 14.995C36.6505 15.015 37.0405 15.03 37.5405 15.04C38.0505 15.05 38.6255 15.055 39.2655 15.055C39.9055 15.045 40.5555 15.025 41.2155 14.995C41.8855 14.955 42.5255 14.91 43.1355 14.86C43.7455 14.8 44.2705 14.73 44.7105 14.65C44.7405 14.64 44.7755 14.645 44.8155 14.665C44.8555 14.675 44.8805 14.705 44.8905 14.755C44.9005 14.815 44.9105 14.89 44.9205 14.98C44.9405 15.06 44.9555 15.14 44.9655 15.22L44.9955 15.505C45.0155 15.615 44.9555 15.67 44.8155 15.67L42.9105 15.685C42.7505 15.685 42.5505 15.685 42.3105 15.685C42.0705 15.685 41.8105 15.69 41.5305 15.7C41.4605 15.93 41.3755 16.155 41.2755 16.375C41.1755 16.595 41.0655 16.805 40.9455 17.005C41.7755 17.315 42.5505 17.615 43.2705 17.905C43.9905 18.185 44.6055 18.47 45.1155 18.76C45.2855 18.84 45.3455 18.955 45.2955 19.105C45.1855 19.365 45.0355 19.615 44.8455 19.855C44.7855 19.925 44.7255 19.93 44.6655 19.87C44.3755 19.62 43.9905 19.35 43.5105 19.06C43.0405 18.76 42.5405 18.475 42.0105 18.205C41.4905 17.935 41.0055 17.715 40.5555 17.545C40.0455 18.205 39.4505 18.76 38.7705 19.21C38.0905 19.66 37.4055 20.03 36.7155 20.32ZM35.0655 23.635C34.9555 23.645 34.8805 23.635 34.8405 23.605C34.8005 23.575 34.7705 23.53 34.7505 23.47C34.7105 23.36 34.6755 23.25 34.6455 23.14C34.6155 23.02 34.5805 22.875 34.5405 22.705C34.5305 22.685 34.5355 22.66 34.5555 22.63C34.5755 22.59 34.6105 22.575 34.6605 22.585C35.0405 22.635 35.5555 22.67 36.2055 22.69C36.8655 22.7 37.5905 22.705 38.3805 22.705C38.6905 22.705 39.0055 22.705 39.3255 22.705C39.6555 22.705 39.9805 22.7 40.3005 22.69V21.775C40.3005 21.385 40.2855 21.045 40.2555 20.755C40.2255 20.465 40.1905 20.27 40.1505 20.17C40.1105 20.07 40.1455 20.02 40.2555 20.02H41.1555C41.2155 20.02 41.2455 20.06 41.2455 20.14C41.2455 20.15 41.2455 20.16 41.2455 20.17C41.2255 20.43 41.2105 20.68 41.2005 20.92C41.2005 21.16 41.1955 21.41 41.1855 21.67L41.1555 22.675C41.9355 22.655 42.6805 22.63 43.3905 22.6C44.1105 22.56 44.7505 22.515 45.3105 22.465C45.8805 22.415 46.3255 22.365 46.6455 22.315C46.7455 22.295 46.8105 22.3 46.8405 22.33C46.8705 22.36 46.8905 22.4 46.9005 22.45L46.9905 23.17C46.9905 23.22 46.9755 23.265 46.9455 23.305C46.9155 23.345 46.8355 23.365 46.7055 23.365C46.3655 23.355 45.9705 23.35 45.5205 23.35C45.0705 23.35 44.5905 23.35 44.0805 23.35C42.8305 23.35 41.6205 23.365 40.4505 23.395C39.2805 23.415 38.2305 23.445 37.3005 23.485C36.3705 23.525 35.6255 23.575 35.0655 23.635ZM40.1805 13.705C40.0305 13.685 39.8205 13.665 39.5505 13.645C39.2905 13.615 39.0255 13.575 38.7555 13.525C38.4955 13.465 38.2855 13.39 38.1255 13.3C38.0855 13.27 38.0755 13.2 38.0955 13.09C38.1155 12.98 38.1505 12.875 38.2005 12.775C38.2505 12.665 38.3005 12.62 38.3505 12.64C38.8305 12.73 39.3555 12.79 39.9255 12.82C40.5055 12.84 41.0605 12.84 41.5905 12.82C42.1205 12.8 42.5455 12.77 42.8655 12.73C42.9455 12.72 42.9955 12.725 43.0155 12.745C43.0355 12.755 43.0505 12.785 43.0605 12.835C43.0605 12.845 43.0605 12.87 43.0605 12.91C43.0605 13.01 43.0555 13.135 43.0455 13.285C43.0455 13.425 43.0155 13.505 42.9555 13.525C42.9055 13.545 42.7805 13.57 42.5805 13.6C42.3805 13.62 42.1405 13.645 41.8605 13.675C41.5805 13.695 41.2905 13.71 40.9905 13.72C40.7005 13.73 40.4305 13.725 40.1805 13.705ZM48.6464 20.635C48.5364 20.645 48.4614 20.635 48.4214 20.605C48.3814 20.575 48.3514 20.53 48.3314 20.47C48.2914 20.36 48.2564 20.25 48.2264 20.14C48.1964 20.03 48.1614 19.89 48.1214 19.72C48.1114 19.7 48.1164 19.675 48.1364 19.645C48.1564 19.605 48.1914 19.59 48.2414 19.6C48.6214 19.65 49.1414 19.69 49.8014 19.72C50.4614 19.74 51.1864 19.745 51.9764 19.735C52.3264 19.735 52.6914 19.735 53.0714 19.735C53.4514 19.725 53.8364 19.715 54.2264 19.705L54.1814 17.89C53.7214 17.9 53.2714 17.91 52.8314 17.92C52.4014 17.93 51.9864 17.94 51.5864 17.95C51.2964 17.94 51.1114 17.835 51.0314 17.635C50.9614 17.435 50.9264 17.19 50.9264 16.9V16.15C50.9264 15.99 50.9114 15.81 50.8814 15.61C50.8614 15.4 50.8214 15.215 50.7614 15.055C50.7414 15.025 50.7464 14.985 50.7764 14.935C50.8064 14.875 50.8564 14.855 50.9264 14.875C51.0364 14.895 51.2764 14.915 51.6464 14.935C52.0164 14.945 52.4564 14.95 52.9664 14.95C53.4764 14.94 53.9964 14.93 54.5264 14.92C55.0664 14.91 55.5614 14.895 56.0114 14.875C56.4614 14.845 56.8064 14.81 57.0464 14.77L57.1064 13.465C57.1064 13.355 57.0564 13.3 56.9564 13.3C56.7264 13.3 56.4314 13.305 56.0714 13.315C55.7214 13.315 55.3464 13.32 54.9464 13.33C54.5464 13.34 54.1614 13.35 53.7914 13.36C53.4314 13.37 53.1214 13.38 52.8614 13.39C52.6314 13.4 52.3564 13.415 52.0364 13.435C51.7164 13.445 51.4464 13.46 51.2264 13.48C51.0764 13.49 50.9864 13.435 50.9564 13.315L50.7914 12.745C50.7814 12.725 50.7864 12.7 50.8064 12.67C50.8264 12.64 50.8614 12.63 50.9114 12.64C51.0814 12.65 51.3414 12.66 51.6914 12.67C52.0514 12.68 52.4614 12.685 52.9214 12.685C53.3914 12.685 53.8764 12.68 54.3764 12.67C54.8864 12.66 55.3714 12.64 55.8314 12.61C56.3014 12.58 56.7064 12.54 57.0464 12.49C57.0664 12.49 57.0864 12.485 57.1064 12.475C57.1764 12.465 57.2314 12.465 57.2714 12.475L58.1114 12.64C58.1914 12.65 58.2214 12.695 58.2014 12.775L58.0814 13.555C58.0414 13.915 58.0064 14.21 57.9764 14.44C57.9564 14.66 57.9364 14.925 57.9164 15.235C57.9064 15.345 57.8764 15.42 57.8264 15.46C57.7764 15.49 57.7264 15.505 57.6764 15.505C57.3364 15.505 56.9214 15.51 56.4314 15.52C55.9414 15.53 55.4214 15.54 54.8714 15.55C54.3214 15.56 53.7814 15.575 53.2514 15.595C52.7314 15.605 52.2714 15.615 51.8714 15.625V16.795C51.8714 16.965 51.8864 17.075 51.9164 17.125C51.9564 17.175 52.0264 17.2 52.1264 17.2C53.4164 17.25 54.7064 17.235 55.9964 17.155C56.4164 17.135 56.8114 17.11 57.1814 17.08C57.5514 17.05 57.9014 17.005 58.2314 16.945C58.3314 16.925 58.3964 16.93 58.4264 16.96C58.4564 16.99 58.4764 17.03 58.4864 17.08C58.5064 17.16 58.5164 17.25 58.5164 17.35C58.5264 17.44 58.5364 17.54 58.5464 17.65C58.5464 17.73 58.5264 17.785 58.4864 17.815C58.4564 17.835 58.3864 17.845 58.2764 17.845C57.7864 17.845 57.2764 17.85 56.7464 17.86C56.2264 17.86 55.7014 17.865 55.1714 17.875L55.1264 19.675C55.9064 19.655 56.6614 19.63 57.3914 19.6C58.1314 19.56 58.7864 19.52 59.3564 19.48C59.9364 19.43 60.3764 19.38 60.6764 19.33C60.7764 19.31 60.8414 19.315 60.8714 19.345C60.9014 19.375 60.9214 19.415 60.9314 19.465L61.0214 20.125C61.0314 20.265 60.9364 20.33 60.7364 20.32C60.4264 20.3 60.0064 20.29 59.4764 20.29C58.9564 20.29 58.3914 20.295 57.7814 20.305C57.2414 20.305 56.6864 20.315 56.1164 20.335C55.5564 20.345 55.0264 20.355 54.5264 20.365C54.0364 20.375 53.6114 20.385 53.2514 20.395C52.2414 20.425 51.3314 20.46 50.5214 20.5C49.7114 20.54 49.0864 20.585 48.6464 20.635ZM57.4964 26.2C57.4564 26.2 57.4364 26.175 57.4364 26.125V22.735C57.4364 22.625 57.3764 22.57 57.2564 22.57C57.0364 22.57 56.7114 22.575 56.2814 22.585C55.8614 22.595 55.4114 22.61 54.9314 22.63C54.4614 22.65 54.0164 22.67 53.5964 22.69C53.1864 22.7 52.8764 22.71 52.6664 22.72C52.4164 22.74 52.1414 22.76 51.8414 22.78C51.5514 22.79 51.2814 22.805 51.0314 22.825C50.9214 22.835 50.8514 22.82 50.8214 22.78C50.7914 22.74 50.7664 22.69 50.7464 22.63L50.5964 22C50.5864 21.98 50.5914 21.955 50.6114 21.925C50.6314 21.895 50.6664 21.885 50.7164 21.895C50.8564 21.915 51.0914 21.93 51.4214 21.94C51.7514 21.95 52.1364 21.955 52.5764 21.955C53.0164 21.955 53.4764 21.95 53.9564 21.94C54.4364 21.93 54.9014 21.915 55.3514 21.895C55.8114 21.875 56.2164 21.85 56.5664 21.82C56.9164 21.79 57.1764 21.755 57.3464 21.715C57.3564 21.715 57.3714 21.71 57.3914 21.7C57.4114 21.7 57.4314 21.7 57.4514 21.7C57.4714 21.69 57.5064 21.69 57.5564 21.7C57.6864 21.72 57.8214 21.74 57.9614 21.76C58.1014 21.78 58.2414 21.805 58.3814 21.835C58.4414 21.845 58.4714 21.89 58.4714 21.97C58.4514 22.26 58.4314 22.555 58.4114 22.855C58.4014 23.145 58.3964 23.41 58.3964 23.65L58.3814 25.9C58.3814 25.99 58.3664 26.05 58.3364 26.08C58.3064 26.11 58.2514 26.135 58.1714 26.155C58.1214 26.155 58.0064 26.16 57.8264 26.17C57.6564 26.19 57.5464 26.2 57.4964 26.2ZM70.4644 25.9C70.4444 25.9 70.4194 25.895 70.3894 25.885C70.3594 25.875 70.3444 25.845 70.3444 25.795C70.3444 25.755 70.3444 25.695 70.3444 25.615C70.3444 25.545 70.3444 25.465 70.3444 25.375C70.3444 25.105 70.3444 24.765 70.3444 24.355C70.3444 23.945 70.3444 23.54 70.3444 23.14C70.3444 22.74 70.3394 22.405 70.3294 22.135C70.3194 21.875 70.2994 21.62 70.2694 21.37C70.2394 21.12 70.2094 20.945 70.1794 20.845C70.1494 20.745 70.1844 20.695 70.2844 20.695L71.2444 20.71C71.2944 20.71 71.3194 20.745 71.3194 20.815C71.3094 21.045 71.2994 21.29 71.2894 21.55C71.2894 21.8 71.2894 22.065 71.2894 22.345C71.4694 22.355 71.7294 22.36 72.0694 22.36C72.4094 22.36 72.7844 22.36 73.1944 22.36C73.6044 22.36 74.0194 22.355 74.4394 22.345C74.8594 22.335 75.2444 22.325 75.5944 22.315C75.9544 22.295 76.2394 22.28 76.4494 22.27V21.85C76.4494 21.51 76.4394 21.25 76.4194 21.07C76.4094 20.88 76.3844 20.74 76.3444 20.65C76.3244 20.6 76.3244 20.565 76.3444 20.545C76.3744 20.515 76.4094 20.5 76.4494 20.5H77.3644C77.4144 20.5 77.4394 20.53 77.4394 20.59C77.4294 20.82 77.4194 21.065 77.4094 21.325C77.4094 21.575 77.4094 21.915 77.4094 22.345V25.645C77.4094 25.775 77.3344 25.84 77.1844 25.84L71.2594 25.855C71.1594 25.855 71.0094 25.86 70.8094 25.87C70.6094 25.89 70.4944 25.9 70.4644 25.9ZM67.1194 20.11L66.7444 19.78C66.7044 19.74 66.7244 19.69 66.8044 19.63C67.5444 19.15 68.1794 18.61 68.7094 18.01C69.2394 17.4 69.6494 16.775 69.9394 16.135C70.2394 15.495 70.3994 14.89 70.4194 14.32C70.2794 14.33 70.1294 14.34 69.9694 14.35C69.8094 14.36 69.6294 14.375 69.4294 14.395C69.1294 14.415 68.8694 14.435 68.6494 14.455C68.4394 14.475 68.1994 14.505 67.9294 14.545C67.8294 14.555 67.7644 14.545 67.7344 14.515C67.7044 14.475 67.6794 14.43 67.6594 14.38C67.6494 14.37 67.6444 14.36 67.6444 14.35C67.6144 14.27 67.5844 14.18 67.5544 14.08C67.5344 13.98 67.5094 13.865 67.4794 13.735C67.4694 13.715 67.4744 13.69 67.4944 13.66C67.5144 13.63 67.5494 13.615 67.5994 13.615C67.8394 13.625 68.1044 13.64 68.3944 13.66C68.6844 13.67 68.9744 13.67 69.2644 13.66C69.7044 13.64 70.1494 13.625 70.5994 13.615C71.0594 13.595 71.5194 13.565 71.9794 13.525C72.3494 13.505 72.6994 13.475 73.0294 13.435C73.3594 13.395 73.6544 13.35 73.9144 13.3C73.9444 13.29 73.9794 13.295 74.0194 13.315C74.0594 13.325 74.0844 13.355 74.0944 13.405C74.1144 13.475 74.1344 13.58 74.1544 13.72C74.1744 13.85 74.1894 13.975 74.1994 14.095C74.1994 14.205 74.1394 14.26 74.0194 14.26C73.9194 14.26 73.8194 14.26 73.7194 14.26C73.6194 14.26 73.5144 14.26 73.4044 14.26C73.1944 14.26 72.9794 14.26 72.7594 14.26C72.5394 14.25 72.3094 14.25 72.0694 14.26C71.9694 14.26 71.8694 14.265 71.7694 14.275C71.6794 14.275 71.5894 14.275 71.4994 14.275C71.4594 14.535 71.3894 14.835 71.2894 15.175C71.1994 15.515 71.0594 15.875 70.8694 16.255C71.2694 16.545 71.6794 16.865 72.0994 17.215C72.5294 17.565 72.9194 17.89 73.2694 18.19C73.6194 18.48 73.8644 18.7 74.0044 18.85C74.0544 18.89 74.0894 18.94 74.1094 19C74.1294 19.06 74.1144 19.125 74.0644 19.195C74.0444 19.225 73.9944 19.28 73.9144 19.36C73.8344 19.44 73.7544 19.52 73.6744 19.6C73.5944 19.67 73.5344 19.72 73.4944 19.75C73.4144 19.8 73.3494 19.795 73.2994 19.735C73.1094 19.465 72.8544 19.15 72.5344 18.79C72.2144 18.43 71.8794 18.075 71.5294 17.725C71.1794 17.375 70.8494 17.085 70.5394 16.855C70.2294 17.385 69.8444 17.925 69.3844 18.475C68.9244 19.025 68.3244 19.565 67.5844 20.095C67.5844 20.095 67.5794 20.1 67.5694 20.11C67.5094 20.14 67.4394 20.17 67.3594 20.2C67.2894 20.22 67.2094 20.19 67.1194 20.11ZM71.2894 25C71.3894 25.01 71.6094 25.015 71.9494 25.015C72.2994 25.025 72.7044 25.03 73.1644 25.03C73.6344 25.03 74.0994 25.025 74.5594 25.015C75.0194 25.015 75.4244 25.01 75.7744 25C76.1244 24.99 76.3494 24.98 76.4494 24.97V23.095C76.1794 23.095 75.8244 23.095 75.3844 23.095C74.9444 23.095 74.4694 23.1 73.9594 23.11C73.4594 23.11 72.9694 23.115 72.4894 23.125C72.0194 23.125 71.6194 23.13 71.2894 23.14V25ZM76.4944 19.675C76.4544 19.675 76.4344 19.65 76.4344 19.6V16.75C76.2544 16.76 76.0794 16.77 75.9094 16.78C75.7394 16.79 75.5794 16.8 75.4294 16.81C75.1894 16.82 74.9144 16.845 74.6044 16.885C74.2944 16.915 74.0194 16.945 73.7794 16.975C73.6694 16.995 73.5944 16.99 73.5544 16.96C73.5144 16.93 73.4844 16.885 73.4644 16.825C73.4244 16.695 73.3894 16.575 73.3594 16.465C73.3394 16.345 73.3194 16.235 73.2994 16.135C73.2994 16.055 73.3394 16.025 73.4194 16.045C73.5794 16.065 73.8294 16.08 74.1694 16.09C74.5194 16.09 74.8994 16.085 75.3094 16.075C75.7194 16.055 76.0944 16.035 76.4344 16.015V14.23C76.4344 13.85 76.4194 13.5 76.3894 13.18C76.3694 12.86 76.3344 12.65 76.2844 12.55C76.2644 12.5 76.2644 12.465 76.2844 12.445C76.3144 12.415 76.3494 12.4 76.3894 12.4C76.4794 12.4 76.6194 12.4 76.8094 12.4C77.0094 12.4 77.1944 12.405 77.3644 12.415C77.4144 12.415 77.4394 12.455 77.4394 12.535C77.4094 12.905 77.3894 13.23 77.3794 13.51C77.3794 13.78 77.3794 14.095 77.3794 14.455V19.3C77.3794 19.45 77.3694 19.54 77.3494 19.57C77.3394 19.6 77.3094 19.62 77.2594 19.63L76.4944 19.675ZM79.7476 21.52L79.3426 21.175C79.3026 21.135 79.3176 21.09 79.3876 21.04C79.3976 21.03 79.4026 21.025 79.4026 21.025C80.0926 20.515 80.7226 19.945 81.2926 19.315C81.8626 18.675 82.3476 18.015 82.7476 17.335C83.1576 16.655 83.4526 15.995 83.6326 15.355C83.7126 15.065 83.7876 14.74 83.8576 14.38C83.9276 14.02 83.9626 13.745 83.9626 13.555C83.9626 13.495 83.9776 13.455 84.0076 13.435C84.0376 13.405 84.0676 13.4 84.0976 13.42L85.1326 13.675C85.1826 13.685 85.2026 13.74 85.1926 13.84C85.1526 13.98 85.0926 14.165 85.0126 14.395C84.9326 14.625 84.8526 14.86 84.7726 15.1C84.6926 15.33 84.6226 15.53 84.5626 15.7C84.4826 15.9 84.3926 16.115 84.2926 16.345C84.1926 16.565 84.0826 16.795 83.9626 17.035C84.4426 17.395 84.9376 17.78 85.4476 18.19C85.9576 18.6 86.4226 18.985 86.8426 19.345C87.2626 19.705 87.5776 20 87.7876 20.23C87.8276 20.28 87.8576 20.34 87.8776 20.41C87.9076 20.47 87.8976 20.535 87.8476 20.605C87.7576 20.715 87.6576 20.815 87.5476 20.905C87.4476 20.995 87.3426 21.085 87.2326 21.175C87.1726 21.225 87.1226 21.215 87.0826 21.145C86.9226 20.905 86.7076 20.63 86.4376 20.32C86.1676 20.01 85.8676 19.69 85.5376 19.36C85.2176 19.03 84.8876 18.715 84.5476 18.415C84.2176 18.115 83.9076 17.855 83.6176 17.635C83.2476 18.255 82.7826 18.9 82.2226 19.57C81.6726 20.23 81.0026 20.875 80.2126 21.505C80.1626 21.545 80.0926 21.58 80.0026 21.61C79.9226 21.64 79.8376 21.61 79.7476 21.52ZM89.3176 25.15C89.2776 25.15 89.2576 25.125 89.2576 25.075V14.245C89.2576 13.865 89.2426 13.515 89.2126 13.195C89.1926 12.865 89.1576 12.65 89.1076 12.55C89.0876 12.5 89.0876 12.465 89.1076 12.445C89.1376 12.415 89.1726 12.4 89.2126 12.4C89.2726 12.4 89.3726 12.405 89.5126 12.415C89.6626 12.415 89.8076 12.42 89.9476 12.43C90.0876 12.43 90.1676 12.43 90.1876 12.43C90.2376 12.43 90.2626 12.47 90.2626 12.55C90.2326 12.92 90.2126 13.245 90.2026 13.525C90.2026 13.795 90.2026 14.11 90.2026 14.47V24.775C90.2026 24.925 90.1926 25.015 90.1726 25.045C90.1626 25.075 90.1326 25.095 90.0826 25.105L89.3176 25.15Z" fill="black"/>
</svg>
