<svg width="19" height="17" viewBox="0 0 19 17" fill="none" xmlns="http://www.w3.org/2000/svg">
<path d="M15.0136 17C16.6001 17 17.8125 15.5975 17.8125 13.9643V4.85714H1.1875V13.9643C1.1875 15.5975 2.39994 17 3.98644 17H15.0136ZM6.53125 7.28571H12.4688C12.6262 7.28571 12.7772 7.34968 12.8886 7.46354C12.9999 7.5774 13.0625 7.73183 13.0625 7.89286C13.0625 8.05388 12.9999 8.20831 12.8886 8.32217C12.7772 8.43603 12.6262 8.5 12.4688 8.5H6.53125C6.37378 8.5 6.22275 8.43603 6.11141 8.32217C6.00006 8.20831 5.9375 8.05388 5.9375 7.89286C5.9375 7.73183 6.00006 7.5774 6.11141 7.46354C6.22275 7.34968 6.37378 7.28571 6.53125 7.28571ZM0.95 0C0.698044 0 0.456408 0.102347 0.278249 0.284525C0.100089 0.466703 0 0.71379 0 0.971429L0 2.42857C0 2.68621 0.100089 2.9333 0.278249 3.11548C0.456408 3.29765 0.698044 3.4 0.95 3.4H18.05C18.302 3.4 18.5436 3.29765 18.7218 3.11548C18.8999 2.9333 19 2.68621 19 2.42857V0.971429C19 0.71379 18.8999 0.466703 18.7218 0.284525C18.5436 0.102347 18.302 0 18.05 0H0.95Z" fill="#754A51"/>
</svg>
