<svg width="123" height="79" viewBox="0 0 123 79" fill="none" xmlns="http://www.w3.org/2000/svg">
<path d="M122.5 59.5C122.5 61.9625 120.925 64.3976 117.867 66.6902C114.818 68.9763 110.373 71.0563 104.836 72.812C93.7677 76.3214 78.446 78.5 61.5 78.5C44.554 78.5 29.2323 76.3214 18.1641 72.812C12.627 71.0563 8.18245 68.9763 5.13288 66.6902C2.07456 64.3976 0.5 61.9625 0.5 59.5C0.5 57.0375 2.07456 54.6024 5.13288 52.3098C8.18245 50.0237 12.627 47.9437 18.1641 46.188C29.2323 42.6786 44.554 40.5 61.5 40.5C78.446 40.5 93.7677 42.6786 104.836 46.188C110.373 47.9437 114.818 50.0237 117.867 52.3098C120.925 54.6024 122.5 57.0375 122.5 59.5Z" fill="#FFEB39"/>
<path d="M122.5 59.5C122.5 61.9625 120.925 64.3976 117.867 66.6902C114.818 68.9763 110.373 71.0563 104.836 72.812C93.7677 76.3214 78.446 78.5 61.5 78.5C44.554 78.5 29.2323 76.3214 18.1641 72.812C12.627 71.0563 8.18245 68.9763 5.13288 66.6902C2.07456 64.3976 0.5 61.9625 0.5 59.5C0.5 57.0375 2.07456 54.6024 5.13288 52.3098C8.18245 50.0237 12.627 47.9437 18.1641 46.188C29.2323 42.6786 44.554 40.5 61.5 40.5C78.446 40.5 93.7677 42.6786 104.836 46.188C110.373 47.9437 114.818 50.0237 117.867 52.3098C120.925 54.6024 122.5 57.0375 122.5 59.5Z" stroke="black" stroke-linejoin="round"/>
<path d="M122.5 59.5C122.5 61.9625 120.925 64.3976 117.867 66.6902C114.818 68.9763 110.373 71.0563 104.836 72.812C93.7677 76.3214 78.446 78.5 61.5 78.5C44.554 78.5 29.2323 76.3214 18.1641 72.812C12.627 71.0563 8.18245 68.9763 5.13288 66.6902C2.07456 64.3976 0.5 61.9625 0.5 59.5C0.5 57.0375 2.07456 54.6024 5.13288 52.3098C8.18245 50.0237 12.627 47.9437 18.1641 46.188C29.2323 42.6786 44.554 40.5 61.5 40.5C78.446 40.5 93.7677 42.6786 104.836 46.188C110.373 47.9437 114.818 50.0237 117.867 52.3098C120.925 54.6024 122.5 57.0375 122.5 59.5Z" stroke="#FFEB39" stroke-linejoin="round"/>
<path d="M10.0585 59.9919C10.2558 61.9647 14.6965 65.658 16.5347 65.8549C17.8591 65.9968 18.7827 67.1861 20.1368 67.2345C21.5989 67.2867 23.0365 67.9834 24.3521 68.5374C26.5469 69.4615 29.4182 69.3064 31.7097 70.0702C32.9861 70.4957 33.7254 70.9731 35.1586 71.0283C35.8893 71.0564 37.2821 71.2912 37.9944 71.5456C39.4088 72.0508 40.9442 72.7527 42.4587 72.7527C43.8473 72.7527 44.966 72.688 46.2525 73.2509C47.2646 73.6936 48.9658 73.6667 50.0846 73.8065C51.8038 74.0214 53.4183 74.1322 55.1621 74.1322C58.5856 74.1322 61.9858 74.4771 65.5087 74.4771C68.6139 74.4771 71.6468 74.1322 74.7057 74.1322C80.2699 74.1322 85.4083 71.227 90.9154 70.7025C93.5991 70.4469 96.3503 69.5335 99.0394 68.7865C101.36 68.142 103.78 67.51 105.861 66.1998C106.7 65.6711 107.793 65.6199 108.696 65.0885C109.458 64.6403 110.151 63.944 110.919 63.5174C113.1 62.3055 113.222 60.9654 113.85 58.7656C115.122 54.3152 108.823 52.4679 105.937 51.0248" stroke="#FFDB28" stroke-linecap="round"/>
<path d="M10.8545 55.0227C10.8545 53.5798 14.9868 51.5695 16.3903 51.0855C18.3747 50.4013 20.2261 49.6246 22.3109 49.1613C23.2219 48.9589 24.4189 49.1133 25.2564 48.7469C25.8716 48.4777 26.8765 47.9558 27.4914 47.844C28.8294 47.6007 30.2903 47.0299 31.6359 47.0299" stroke="#B6B0B1" stroke-linecap="round"/>
<path d="M10.0585 59.9919C10.2558 61.9647 14.6965 65.658 16.5347 65.8549C17.8591 65.9968 18.7827 67.1861 20.1368 67.2345C21.5989 67.2867 23.0365 67.9834 24.3521 68.5374C26.5469 69.4615 29.4182 69.3064 31.7097 70.0702C32.9861 70.4957 33.7254 70.9731 35.1586 71.0283C35.8893 71.0564 37.2821 71.2912 37.9944 71.5456C39.4088 72.0508 40.9442 72.7527 42.4587 72.7527C43.8473 72.7527 44.966 72.688 46.2525 73.2509C47.2646 73.6936 48.9658 73.6667 50.0846 73.8065C51.8038 74.0214 53.4183 74.1322 55.1621 74.1322C58.5856 74.1322 61.9858 74.4771 65.5087 74.4771C68.6139 74.4771 71.6468 74.1322 74.7057 74.1322C80.2699 74.1322 85.4083 71.227 90.9154 70.7025C93.5991 70.4469 96.3503 69.5335 99.0394 68.7865C101.36 68.142 103.78 67.51 105.861 66.1998C106.7 65.6711 107.793 65.6199 108.696 65.0885C109.458 64.6403 110.151 63.944 110.919 63.5174C113.1 62.3055 113.222 60.9654 113.85 58.7656C115.122 54.3152 108.823 52.4679 105.937 51.0248" stroke="#7C7879" stroke-linecap="round"/>
<path d="M10.8545 55.0227C10.8545 53.5798 14.9868 51.5695 16.3903 51.0855C18.3747 50.4013 20.2261 49.6246 22.3109 49.1613C23.2219 48.9589 24.4189 49.1133 25.2564 48.7469C25.8716 48.4777 26.8765 47.9558 27.4914 47.844C28.8294 47.6007 30.2903 47.0299 31.6359 47.0299" stroke="#7C7879" stroke-linecap="round"/>
<rect x="13" y="8" width="99" height="20" rx="10" fill="#F5E19A"/>
<path d="M34.4391 23.56C34.3291 23.57 34.2541 23.56 34.2141 23.53C34.1741 23.5 34.1441 23.455 34.1241 23.395C34.0841 23.285 34.0491 23.175 34.0191 23.065C33.9891 22.945 33.9541 22.8 33.9141 22.63C33.9041 22.61 33.9091 22.585 33.9291 22.555C33.9491 22.515 33.9841 22.5 34.0341 22.51C34.4141 22.56 34.9341 22.595 35.5941 22.615C36.2541 22.625 36.9791 22.63 37.7691 22.63C38.0891 22.63 38.4141 22.63 38.7441 22.63C39.0841 22.63 39.4291 22.625 39.7791 22.615V21.265C39.7791 20.875 39.7641 20.535 39.7341 20.245C39.7041 19.955 39.6691 19.76 39.6291 19.66C39.5891 19.56 39.6241 19.51 39.7341 19.51H40.6341C40.6941 19.51 40.7241 19.55 40.7241 19.63C40.7241 19.64 40.7241 19.65 40.7241 19.66C40.7041 19.92 40.6891 20.17 40.6791 20.41C40.6691 20.65 40.6641 20.9 40.6641 21.16L40.6491 22.6C41.4091 22.58 42.1391 22.555 42.8391 22.525C43.5491 22.485 44.1791 22.44 44.7291 22.39C45.2791 22.34 45.7091 22.29 46.0191 22.24C46.1191 22.22 46.1841 22.225 46.2141 22.255C46.2441 22.285 46.2641 22.325 46.2741 22.375L46.3641 23.095C46.3641 23.145 46.3491 23.19 46.3191 23.23C46.2891 23.27 46.2091 23.29 46.0791 23.29C45.7391 23.28 45.3441 23.275 44.8941 23.275C44.4441 23.275 43.9641 23.275 43.4541 23.275C42.2041 23.275 40.9941 23.29 39.8241 23.32C38.6541 23.34 37.6041 23.37 36.6741 23.41C35.7441 23.45 34.9991 23.5 34.4391 23.56ZM36.9591 18.82C36.6091 18.83 36.3641 18.735 36.2241 18.535C36.0841 18.335 36.0141 17.995 36.0141 17.515V14.95C36.0141 14.68 35.9941 14.41 35.9541 14.14C35.9241 13.87 35.8941 13.685 35.8641 13.585C35.8341 13.485 35.8691 13.435 35.9691 13.435C36.0191 13.435 36.1191 13.445 36.2691 13.465C36.4191 13.475 36.5641 13.49 36.7041 13.51C36.8541 13.52 36.9391 13.525 36.9591 13.525C36.9991 13.535 37.0141 13.57 37.0041 13.63C37.0041 13.65 37.0041 13.665 37.0041 13.675C36.9841 13.935 36.9691 14.2 36.9591 14.47C36.9591 14.73 36.9591 14.99 36.9591 15.25V17.335C36.9591 17.635 36.9841 17.83 37.0341 17.92C37.0841 18.01 37.1891 18.06 37.3491 18.07C37.6091 18.08 37.9341 18.085 38.3241 18.085C38.7141 18.085 39.1191 18.08 39.5391 18.07C39.9691 18.06 40.3641 18.05 40.7241 18.04C41.0941 18.02 41.3741 18.005 41.5641 17.995C42.1041 17.975 42.6041 17.94 43.0641 17.89C43.5241 17.84 43.8791 17.79 44.1291 17.74C44.2291 17.72 44.2941 17.725 44.3241 17.755C44.3541 17.775 44.3741 17.81 44.3841 17.86L44.4441 18.535C44.4541 18.595 44.4391 18.635 44.3991 18.655C44.3591 18.675 44.2691 18.685 44.1291 18.685C43.4191 18.685 42.6541 18.695 41.8341 18.715C41.0141 18.725 40.1841 18.74 39.3441 18.76C38.5141 18.78 37.7191 18.8 36.9591 18.82ZM48.9349 20.5C48.7149 20.49 48.5449 20.38 48.4249 20.17C48.3049 19.96 48.2449 19.695 48.2449 19.375V17.86C48.2449 17.66 48.2399 17.46 48.2299 17.26C48.2199 17.05 48.1799 16.845 48.1099 16.645C48.0599 16.525 48.1049 16.475 48.2449 16.495C48.3649 16.505 48.5799 16.51 48.8899 16.51C49.1999 16.51 49.5499 16.505 49.9399 16.495C50.3399 16.485 50.7299 16.475 51.1099 16.465C51.4899 16.445 51.8149 16.425 52.0849 16.405C52.3549 16.375 52.5099 16.35 52.5499 16.33C52.5799 16.04 52.6099 15.735 52.6399 15.415C52.6699 15.085 52.6899 14.76 52.6999 14.44C52.6999 14.38 52.6749 14.35 52.6249 14.35C52.1949 14.35 51.7749 14.365 51.3649 14.395C50.9649 14.415 50.5549 14.435 50.1349 14.455C49.8949 14.475 49.6349 14.495 49.3549 14.515C49.0749 14.535 48.8149 14.555 48.5749 14.575C48.4649 14.585 48.3949 14.58 48.3649 14.56C48.3449 14.53 48.3249 14.485 48.3049 14.425L48.1399 13.84C48.1299 13.82 48.1349 13.8 48.1549 13.78C48.1749 13.75 48.1999 13.74 48.2299 13.75C48.2999 13.76 48.4699 13.765 48.7399 13.765C49.0099 13.765 49.3349 13.76 49.7149 13.75C50.0949 13.74 50.4849 13.725 50.8849 13.705C51.2849 13.685 51.6499 13.665 51.9799 13.645C52.3199 13.615 52.5799 13.58 52.7599 13.54C52.8199 13.53 52.8599 13.525 52.8799 13.525C52.9099 13.525 52.9399 13.53 52.9699 13.54C52.9799 13.54 52.9899 13.54 52.9999 13.54L53.6899 13.72C53.7499 13.73 53.7699 13.77 53.7499 13.84C53.7299 13.96 53.6949 14.145 53.6449 14.395C53.5949 14.635 53.5599 14.84 53.5399 15.01L53.2999 16.975C53.2899 17.065 53.2399 17.11 53.1499 17.11C53.0399 17.11 52.8549 17.115 52.5949 17.125C52.3349 17.125 52.0349 17.135 51.6949 17.155C51.3649 17.165 51.0299 17.18 50.6899 17.2C50.3499 17.21 50.0449 17.225 49.7749 17.245C49.5049 17.255 49.3099 17.265 49.1899 17.275V19.33C49.1899 19.43 49.2049 19.5 49.2349 19.54C49.2749 19.57 49.3199 19.59 49.3699 19.6C49.6799 19.62 50.0949 19.615 50.6149 19.585C51.1349 19.555 51.6999 19.5 52.3099 19.42C52.9199 19.33 53.5199 19.215 54.1099 19.075C54.6999 18.935 55.2149 18.765 55.6549 18.565C55.7549 18.525 55.8099 18.535 55.8199 18.595L55.8949 19.135C55.9049 19.235 55.8549 19.31 55.7449 19.36C55.4049 19.51 54.9649 19.655 54.4249 19.795C53.8849 19.925 53.2899 20.045 52.6399 20.155C51.9999 20.255 51.3549 20.34 50.7049 20.41C50.0649 20.47 49.4749 20.5 48.9349 20.5ZM56.5249 22.375C56.4849 22.375 56.4649 22.35 56.4649 22.3V14.23C56.4649 13.85 56.4499 13.5 56.4199 13.18C56.3999 12.86 56.3649 12.65 56.3149 12.55C56.2949 12.5 56.2949 12.465 56.3149 12.445C56.3449 12.415 56.3799 12.4 56.4199 12.4C56.5599 12.4 56.7249 12.4 56.9149 12.4C57.1049 12.4 57.2649 12.405 57.3949 12.415C57.4449 12.415 57.4699 12.455 57.4699 12.535C57.4399 12.905 57.4199 13.23 57.4099 13.51C57.4099 13.78 57.4099 14.095 57.4099 14.455V16.9C57.6799 16.9 57.9749 16.89 58.2949 16.87C58.6149 16.85 58.9099 16.825 59.1799 16.795C59.4599 16.765 59.6699 16.73 59.8099 16.69C59.8999 16.68 59.9499 16.71 59.9599 16.78C59.9799 16.91 59.9899 17.04 59.9899 17.17C59.9999 17.3 60.0099 17.43 60.0199 17.56C60.0199 17.67 59.9749 17.725 59.8849 17.725C59.7449 17.705 59.5299 17.695 59.2399 17.695C58.9499 17.685 58.6399 17.68 58.3099 17.68C57.9899 17.68 57.6899 17.69 57.4099 17.71V22C57.4099 22.15 57.3999 22.24 57.3799 22.27C57.3699 22.3 57.3399 22.32 57.2899 22.33L56.5249 22.375ZM51.6949 25.75C51.3749 25.75 51.1299 25.63 50.9599 25.39C50.7999 25.16 50.7199 24.83 50.7199 24.4V23.365C50.7199 23.015 50.7049 22.725 50.6749 22.495C50.6449 22.265 50.6149 22.1 50.5849 22C50.5549 21.9 50.5899 21.85 50.6899 21.85C50.7499 21.85 50.8499 21.855 50.9899 21.865C51.1399 21.865 51.2799 21.87 51.4099 21.88C51.5499 21.89 51.6249 21.895 51.6349 21.895C51.6849 21.895 51.7099 21.945 51.7099 22.045C51.6899 22.275 51.6749 22.48 51.6649 22.66C51.6649 22.83 51.6649 23.045 51.6649 23.305V24.31C51.6649 24.56 51.6949 24.735 51.7549 24.835C51.8249 24.925 51.9349 24.975 52.0849 24.985C52.3649 24.995 52.7049 25 53.1049 25C53.5149 25.01 53.9399 25.01 54.3799 25C54.8299 24.98 55.2549 24.96 55.6549 24.94C56.0749 24.92 56.5099 24.885 56.9599 24.835C57.4099 24.775 57.7549 24.715 57.9949 24.655C58.0949 24.635 58.1599 24.64 58.1899 24.67C58.2199 24.7 58.2399 24.74 58.2499 24.79L58.3699 25.495C58.3699 25.545 58.3549 25.585 58.3249 25.615C58.3049 25.645 58.2249 25.66 58.0849 25.66C57.0949 25.66 56.0749 25.675 55.0249 25.705C53.9749 25.735 52.8649 25.75 51.6949 25.75ZM69.0908 25.9C69.0708 25.9 69.0458 25.895 69.0158 25.885C68.9858 25.875 68.9708 25.845 68.9708 25.795C68.9708 25.755 68.9708 25.695 68.9708 25.615C68.9708 25.545 68.9708 25.465 68.9708 25.375C68.9708 25.105 68.9708 24.765 68.9708 24.355C68.9708 23.945 68.9708 23.54 68.9708 23.14C68.9708 22.74 68.9658 22.405 68.9558 22.135C68.9458 21.875 68.9258 21.62 68.8958 21.37C68.8658 21.12 68.8358 20.945 68.8058 20.845C68.7758 20.745 68.8108 20.695 68.9108 20.695L69.8708 20.71C69.9208 20.71 69.9458 20.745 69.9458 20.815C69.9358 21.045 69.9258 21.29 69.9158 21.55C69.9158 21.8 69.9158 22.065 69.9158 22.345C70.0958 22.355 70.3558 22.36 70.6958 22.36C71.0358 22.36 71.4108 22.36 71.8208 22.36C72.2308 22.36 72.6458 22.355 73.0658 22.345C73.4858 22.335 73.8708 22.325 74.2208 22.315C74.5808 22.295 74.8658 22.28 75.0758 22.27V21.85C75.0758 21.51 75.0658 21.25 75.0458 21.07C75.0358 20.88 75.0108 20.74 74.9708 20.65C74.9508 20.6 74.9508 20.565 74.9708 20.545C75.0008 20.515 75.0358 20.5 75.0758 20.5H75.9908C76.0408 20.5 76.0658 20.53 76.0658 20.59C76.0558 20.82 76.0458 21.065 76.0358 21.325C76.0358 21.575 76.0358 21.915 76.0358 22.345V25.645C76.0358 25.775 75.9608 25.84 75.8108 25.84L69.8858 25.855C69.7858 25.855 69.6358 25.86 69.4358 25.87C69.2358 25.89 69.1208 25.9 69.0908 25.9ZM65.7458 20.11L65.3708 19.78C65.3308 19.74 65.3508 19.69 65.4308 19.63C66.1708 19.15 66.8058 18.61 67.3358 18.01C67.8658 17.4 68.2758 16.775 68.5658 16.135C68.8658 15.495 69.0258 14.89 69.0458 14.32C68.9058 14.33 68.7558 14.34 68.5958 14.35C68.4358 14.36 68.2558 14.375 68.0558 14.395C67.7558 14.415 67.4958 14.435 67.2758 14.455C67.0658 14.475 66.8258 14.505 66.5558 14.545C66.4558 14.555 66.3908 14.545 66.3608 14.515C66.3308 14.475 66.3058 14.43 66.2858 14.38C66.2758 14.37 66.2708 14.36 66.2708 14.35C66.2408 14.27 66.2108 14.18 66.1808 14.08C66.1608 13.98 66.1358 13.865 66.1058 13.735C66.0958 13.715 66.1008 13.69 66.1208 13.66C66.1408 13.63 66.1758 13.615 66.2258 13.615C66.4658 13.625 66.7308 13.64 67.0208 13.66C67.3108 13.67 67.6008 13.67 67.8908 13.66C68.3308 13.64 68.7758 13.625 69.2258 13.615C69.6858 13.595 70.1458 13.565 70.6058 13.525C70.9758 13.505 71.3258 13.475 71.6558 13.435C71.9858 13.395 72.2808 13.35 72.5408 13.3C72.5708 13.29 72.6058 13.295 72.6458 13.315C72.6858 13.325 72.7108 13.355 72.7208 13.405C72.7408 13.475 72.7608 13.58 72.7808 13.72C72.8008 13.85 72.8158 13.975 72.8258 14.095C72.8258 14.205 72.7658 14.26 72.6458 14.26C72.5458 14.26 72.4458 14.26 72.3458 14.26C72.2458 14.26 72.1408 14.26 72.0308 14.26C71.8208 14.26 71.6058 14.26 71.3858 14.26C71.1658 14.25 70.9358 14.25 70.6958 14.26C70.5958 14.26 70.4958 14.265 70.3958 14.275C70.3058 14.275 70.2158 14.275 70.1258 14.275C70.0858 14.535 70.0158 14.835 69.9158 15.175C69.8258 15.515 69.6858 15.875 69.4958 16.255C69.8958 16.545 70.3058 16.865 70.7258 17.215C71.1558 17.565 71.5458 17.89 71.8958 18.19C72.2458 18.48 72.4908 18.7 72.6308 18.85C72.6808 18.89 72.7158 18.94 72.7358 19C72.7558 19.06 72.7408 19.125 72.6908 19.195C72.6708 19.225 72.6208 19.28 72.5408 19.36C72.4608 19.44 72.3808 19.52 72.3008 19.6C72.2208 19.67 72.1608 19.72 72.1208 19.75C72.0408 19.8 71.9758 19.795 71.9258 19.735C71.7358 19.465 71.4808 19.15 71.1608 18.79C70.8408 18.43 70.5058 18.075 70.1558 17.725C69.8058 17.375 69.4758 17.085 69.1658 16.855C68.8558 17.385 68.4708 17.925 68.0108 18.475C67.5508 19.025 66.9508 19.565 66.2108 20.095C66.2108 20.095 66.2058 20.1 66.1958 20.11C66.1358 20.14 66.0658 20.17 65.9858 20.2C65.9158 20.22 65.8358 20.19 65.7458 20.11ZM69.9158 25C70.0158 25.01 70.2358 25.015 70.5758 25.015C70.9258 25.025 71.3308 25.03 71.7908 25.03C72.2608 25.03 72.7258 25.025 73.1858 25.015C73.6458 25.015 74.0508 25.01 74.4008 25C74.7508 24.99 74.9758 24.98 75.0758 24.97V23.095C74.8058 23.095 74.4508 23.095 74.0108 23.095C73.5708 23.095 73.0958 23.1 72.5858 23.11C72.0858 23.11 71.5958 23.115 71.1158 23.125C70.6458 23.125 70.2458 23.13 69.9158 23.14V25ZM75.1208 19.675C75.0808 19.675 75.0608 19.65 75.0608 19.6V16.75C74.8808 16.76 74.7058 16.77 74.5358 16.78C74.3658 16.79 74.2058 16.8 74.0558 16.81C73.8158 16.82 73.5408 16.845 73.2308 16.885C72.9208 16.915 72.6458 16.945 72.4058 16.975C72.2958 16.995 72.2208 16.99 72.1808 16.96C72.1408 16.93 72.1108 16.885 72.0908 16.825C72.0508 16.695 72.0158 16.575 71.9858 16.465C71.9658 16.345 71.9458 16.235 71.9258 16.135C71.9258 16.055 71.9658 16.025 72.0458 16.045C72.2058 16.065 72.4558 16.08 72.7958 16.09C73.1458 16.09 73.5258 16.085 73.9358 16.075C74.3458 16.055 74.7208 16.035 75.0608 16.015V14.23C75.0608 13.85 75.0458 13.5 75.0158 13.18C74.9958 12.86 74.9608 12.65 74.9108 12.55C74.8908 12.5 74.8908 12.465 74.9108 12.445C74.9408 12.415 74.9758 12.4 75.0158 12.4C75.1058 12.4 75.2458 12.4 75.4358 12.4C75.6358 12.4 75.8208 12.405 75.9908 12.415C76.0408 12.415 76.0658 12.455 76.0658 12.535C76.0358 12.905 76.0158 13.23 76.0058 13.51C76.0058 13.78 76.0058 14.095 76.0058 14.455V19.3C76.0058 19.45 75.9958 19.54 75.9758 19.57C75.9658 19.6 75.9358 19.62 75.8858 19.63L75.1208 19.675ZM78.3741 21.52L77.9691 21.175C77.9291 21.135 77.9441 21.09 78.0141 21.04C78.0241 21.03 78.0291 21.025 78.0291 21.025C78.7191 20.515 79.3491 19.945 79.9191 19.315C80.4891 18.675 80.9741 18.015 81.3741 17.335C81.7841 16.655 82.0791 15.995 82.2591 15.355C82.3391 15.065 82.4141 14.74 82.4841 14.38C82.5541 14.02 82.5891 13.745 82.5891 13.555C82.5891 13.495 82.6041 13.455 82.6341 13.435C82.6641 13.405 82.6941 13.4 82.7241 13.42L83.7591 13.675C83.8091 13.685 83.8291 13.74 83.8191 13.84C83.7791 13.98 83.7191 14.165 83.6391 14.395C83.5591 14.625 83.4791 14.86 83.3991 15.1C83.3191 15.33 83.2491 15.53 83.1891 15.7C83.1091 15.9 83.0191 16.115 82.9191 16.345C82.8191 16.565 82.7091 16.795 82.5891 17.035C83.0691 17.395 83.5641 17.78 84.0741 18.19C84.5841 18.6 85.0491 18.985 85.4691 19.345C85.8891 19.705 86.2041 20 86.4141 20.23C86.4541 20.28 86.4841 20.34 86.5041 20.41C86.5341 20.47 86.5241 20.535 86.4741 20.605C86.3841 20.715 86.2841 20.815 86.1741 20.905C86.0741 20.995 85.9691 21.085 85.8591 21.175C85.7991 21.225 85.7491 21.215 85.7091 21.145C85.5491 20.905 85.3341 20.63 85.0641 20.32C84.7941 20.01 84.4941 19.69 84.1641 19.36C83.8441 19.03 83.5141 18.715 83.1741 18.415C82.8441 18.115 82.5341 17.855 82.2441 17.635C81.8741 18.255 81.4091 18.9 80.8491 19.57C80.2991 20.23 79.6291 20.875 78.8391 21.505C78.7891 21.545 78.7191 21.58 78.6291 21.61C78.5491 21.64 78.4641 21.61 78.3741 21.52ZM87.9441 25.15C87.9041 25.15 87.8841 25.125 87.8841 25.075V14.245C87.8841 13.865 87.8691 13.515 87.8391 13.195C87.8191 12.865 87.7841 12.65 87.7341 12.55C87.7141 12.5 87.7141 12.465 87.7341 12.445C87.7641 12.415 87.7991 12.4 87.8391 12.4C87.8991 12.4 87.9991 12.405 88.1391 12.415C88.2891 12.415 88.4341 12.42 88.5741 12.43C88.7141 12.43 88.7941 12.43 88.8141 12.43C88.8641 12.43 88.8891 12.47 88.8891 12.55C88.8591 12.92 88.8391 13.245 88.8291 13.525C88.8291 13.795 88.8291 14.11 88.8291 14.47V24.775C88.8291 24.925 88.8191 25.015 88.7991 25.045C88.7891 25.075 88.7591 25.095 88.7091 25.105L87.9441 25.15Z" fill="black"/>
</svg>
