<svg width="125" height="80" viewBox="0 0 125 80" fill="none" xmlns="http://www.w3.org/2000/svg">
<path d="M62.5 79.5C79.5195 79.5 94.9479 77.3134 106.138 73.7652C111.73 71.992 116.292 69.8701 119.467 67.4903C122.633 65.1171 124.5 62.4223 124.5 59.5C124.5 56.5777 122.633 53.8829 119.467 51.5097C116.292 49.1299 111.73 47.008 106.138 45.2348C94.9479 41.6866 79.5195 39.5 62.5 39.5C45.4805 39.5 30.0521 41.6866 18.8618 45.2348C13.2695 47.008 8.70763 49.1299 5.53307 51.5097C2.36725 53.8829 0.5 56.5777 0.5 59.5C0.5 62.4223 2.36725 65.1171 5.53307 67.4903C8.70763 69.8701 13.2695 71.992 18.8618 73.7652C30.0521 77.3134 45.4805 79.5 62.5 79.5Z" fill="#F5F5F5"/>
<path d="M62.5 79.5C79.5195 79.5 94.9479 77.3134 106.138 73.7652C111.73 71.992 116.292 69.8701 119.467 67.4903C122.633 65.1171 124.5 62.4223 124.5 59.5C124.5 56.5777 122.633 53.8829 119.467 51.5097C116.292 49.1299 111.73 47.008 106.138 45.2348C94.9479 41.6866 79.5195 39.5 62.5 39.5C45.4805 39.5 30.0521 41.6866 18.8618 45.2348C13.2695 47.008 8.70763 49.1299 5.53307 51.5097C2.36725 53.8829 0.5 56.5777 0.5 59.5C0.5 62.4223 2.36725 65.1171 5.53307 67.4903C8.70763 69.8701 13.2695 71.992 18.8618 73.7652C30.0521 77.3134 45.4805 79.5 62.5 79.5Z" stroke="#B6B0B1" stroke-linejoin="round"/>
<path d="M62.5 79.5C79.5195 79.5 94.9479 77.3134 106.138 73.7652C111.73 71.992 116.292 69.8701 119.467 67.4903C122.633 65.1171 124.5 62.4223 124.5 59.5C124.5 56.5777 122.633 53.8829 119.467 51.5097C116.292 49.1299 111.73 47.008 106.138 45.2348C94.9479 41.6866 79.5195 39.5 62.5 39.5C45.4805 39.5 30.0521 41.6866 18.8618 45.2348C13.2695 47.008 8.70763 49.1299 5.53307 51.5097C2.36725 53.8829 0.5 56.5777 0.5 59.5C0.5 62.4223 2.36725 65.1171 5.53307 67.4903C8.70763 69.8701 13.2695 71.992 18.8618 73.7652C30.0521 77.3134 45.4805 79.5 62.5 79.5Z" stroke="white" stroke-opacity="0.2" stroke-linejoin="round"/>
<path d="M11.0585 59.9919C11.2558 61.9647 15.6965 65.658 17.5347 65.8549C18.8591 65.9968 19.7827 67.1861 21.1368 67.2345C22.5989 67.2867 24.0365 67.9834 25.3521 68.5374C27.5469 69.4615 30.4182 69.3064 32.7097 70.0702C33.9861 70.4957 34.7254 70.9731 36.1586 71.0283C36.8893 71.0564 38.2821 71.2912 38.9944 71.5456C40.4088 72.0508 41.9442 72.7527 43.4587 72.7527C44.8473 72.7527 45.966 72.688 47.2525 73.2509C48.2646 73.6936 49.9658 73.6667 51.0846 73.8065C52.8038 74.0214 54.4183 74.1322 56.1621 74.1322C59.5856 74.1322 62.9858 74.4771 66.5087 74.4771C69.6139 74.4771 72.6468 74.1322 75.7057 74.1322C81.2699 74.1322 86.4083 71.227 91.9154 70.7025C94.5991 70.4469 97.3503 69.5335 100.039 68.7865C102.36 68.142 104.78 67.51 106.861 66.1998C107.7 65.6711 108.793 65.6199 109.696 65.0885C110.458 64.6403 111.151 63.944 111.919 63.5174C114.1 62.3055 114.222 60.9654 114.85 58.7656C116.122 54.3152 109.823 52.4679 106.937 51.0248" stroke="#B6B0B1" stroke-linecap="round"/>
<path d="M11.8545 55.0227C11.8545 53.5798 15.9868 51.5695 17.3903 51.0855C19.3747 50.4013 21.2261 49.6246 23.3109 49.1613C24.2219 48.9589 25.4189 49.1133 26.2564 48.7469C26.8716 48.4777 27.8765 47.9558 28.4914 47.844C29.8294 47.6007 31.2903 47.0299 32.6359 47.0299" stroke="#B6B0B1" stroke-linecap="round"/>
<rect x="14" y="8" width="99" height="20" rx="10" fill="#F5E19A"/>
<path d="M38.9823 22C38.3423 22.02 37.7973 21.91 37.3473 21.67C36.9073 21.43 36.5723 21.11 36.3423 20.71C36.1123 20.31 35.9973 19.9 35.9973 19.48C35.9973 19.09 36.1073 18.71 36.3273 18.34C36.5573 17.97 36.8923 17.66 37.3323 17.41C37.7823 17.15 38.3373 17.01 38.9973 16.99C39.5673 16.97 40.0723 17.06 40.5123 17.26C40.9623 17.46 41.3173 17.745 41.5773 18.115C41.8373 18.485 41.9573 18.925 41.9373 19.435C41.9273 19.855 41.8073 20.26 41.5773 20.65C41.3573 21.03 41.0273 21.345 40.5873 21.595C40.1573 21.845 39.6223 21.98 38.9823 22ZM44.0973 25.15C44.0573 25.15 44.0373 25.125 44.0373 25.075V14.245C44.0373 13.865 44.0223 13.515 43.9923 13.195C43.9723 12.865 43.9373 12.65 43.8873 12.55C43.8673 12.5 43.8673 12.465 43.8873 12.445C43.9173 12.415 43.9523 12.4 43.9923 12.4C44.0523 12.4 44.1523 12.405 44.2923 12.415C44.4423 12.415 44.5873 12.42 44.7273 12.43C44.8673 12.43 44.9473 12.43 44.9673 12.43C45.0173 12.43 45.0423 12.47 45.0423 12.55C45.0123 12.92 44.9923 13.245 44.9823 13.525C44.9823 13.795 44.9823 14.11 44.9823 14.47V18.205C45.2523 18.205 45.5423 18.195 45.8523 18.175C46.1723 18.145 46.4673 18.115 46.7373 18.085C47.0173 18.045 47.2273 18.005 47.3673 17.965C47.4573 17.955 47.5073 17.985 47.5173 18.055C47.5373 18.185 47.5523 18.315 47.5623 18.445C47.5723 18.575 47.5823 18.705 47.5923 18.835C47.5923 18.945 47.5473 19 47.4573 19C47.3073 18.98 47.0873 18.97 46.7973 18.97C46.5173 18.97 46.2173 18.97 45.8973 18.97C45.5773 18.97 45.2723 18.975 44.9823 18.985V24.775C44.9823 24.925 44.9723 25.015 44.9523 25.045C44.9423 25.075 44.9123 25.095 44.8623 25.105L44.0973 25.15ZM38.9823 21.19C39.4223 21.17 39.7873 21.075 40.0773 20.905C40.3673 20.735 40.5873 20.52 40.7373 20.26C40.8873 19.99 40.9673 19.715 40.9773 19.435C40.9973 19.175 40.9473 18.915 40.8273 18.655C40.7073 18.395 40.5023 18.175 40.2123 17.995C39.9223 17.805 39.5323 17.705 39.0423 17.695C38.5723 17.695 38.1773 17.785 37.8573 17.965C37.5473 18.135 37.3173 18.355 37.1673 18.625C37.0173 18.885 36.9423 19.16 36.9423 19.45C36.9423 19.94 37.1223 20.36 37.4823 20.71C37.8423 21.05 38.3423 21.21 38.9823 21.19ZM35.1573 16.33C35.0573 16.34 34.9923 16.33 34.9623 16.3C34.9323 16.26 34.9073 16.215 34.8873 16.165C34.8773 16.155 34.8723 16.145 34.8723 16.135C34.8323 16.025 34.8023 15.925 34.7823 15.835C34.7623 15.745 34.7323 15.615 34.6923 15.445C34.6823 15.425 34.6873 15.4 34.7073 15.37C34.7273 15.34 34.7623 15.33 34.8123 15.34C35.0923 15.37 35.4123 15.395 35.7723 15.415C36.1423 15.435 36.5673 15.44 37.0473 15.43C37.5573 15.42 38.1073 15.41 38.6973 15.4C39.2973 15.38 39.8723 15.35 40.4223 15.31C40.8623 15.28 41.2773 15.24 41.6673 15.19C42.0573 15.14 42.4123 15.09 42.7323 15.04C42.7623 15.03 42.7973 15.035 42.8373 15.055C42.8773 15.065 42.9023 15.095 42.9123 15.145C42.9423 15.345 42.9623 15.5 42.9723 15.61C42.9823 15.72 42.9873 15.81 42.9873 15.88C43.0073 15.99 42.9473 16.045 42.8073 16.045C42.6173 16.035 42.3873 16.03 42.1173 16.03C41.8473 16.03 41.6123 16.03 41.4123 16.03C41.1923 16.03 40.8723 16.035 40.4523 16.045C40.0323 16.055 39.5773 16.07 39.0873 16.09C38.6073 16.1 38.1573 16.115 37.7373 16.135C37.3173 16.155 37.0023 16.175 36.7923 16.195L35.1573 16.33ZM38.5023 14.05C38.3523 14.03 38.1423 14.005 37.8723 13.975C37.6123 13.945 37.3523 13.9 37.0923 13.84C36.8423 13.78 36.6473 13.695 36.5073 13.585C36.4673 13.555 36.4573 13.495 36.4773 13.405C36.4973 13.305 36.5323 13.21 36.5823 13.12C36.6323 13.03 36.6823 12.995 36.7323 13.015C37.2123 13.105 37.7223 13.16 38.2623 13.18C38.8023 13.2 39.3173 13.2 39.8073 13.18C40.3073 13.16 40.7173 13.14 41.0373 13.12C41.1173 13.11 41.1673 13.115 41.1873 13.135C41.2073 13.145 41.2223 13.175 41.2323 13.225C41.2323 13.235 41.2323 13.26 41.2323 13.3C41.2323 13.4 41.2273 13.52 41.2173 13.66C41.2173 13.8 41.1873 13.88 41.1273 13.9C41.0673 13.92 40.8873 13.95 40.5873 13.99C40.2973 14.02 39.9573 14.045 39.5673 14.065C39.1873 14.075 38.8323 14.07 38.5023 14.05ZM52.1287 19.585C51.5587 19.595 51.0287 19.48 50.5387 19.24C50.0587 19 49.6737 18.66 49.3837 18.22C49.0937 17.78 48.9487 17.27 48.9487 16.69C48.9487 16.13 49.0937 15.63 49.3837 15.19C49.6737 14.74 50.0587 14.38 50.5387 14.11C51.0287 13.83 51.5637 13.685 52.1437 13.675C52.7237 13.655 53.2537 13.76 53.7337 13.99C54.2137 14.22 54.5987 14.555 54.8887 14.995C55.1787 15.425 55.3237 15.95 55.3237 16.57C55.3237 17.13 55.1737 17.635 54.8737 18.085C54.5837 18.535 54.1987 18.895 53.7187 19.165C53.2387 19.425 52.7087 19.565 52.1287 19.585ZM52.1437 18.805C52.7637 18.785 53.2787 18.575 53.6887 18.175C54.1087 17.775 54.3187 17.24 54.3187 16.57C54.3187 15.84 54.1087 15.3 53.6887 14.95C53.2787 14.6 52.7587 14.435 52.1287 14.455C51.4987 14.495 50.9737 14.71 50.5537 15.1C50.1337 15.49 49.9237 16.015 49.9237 16.675C49.9237 17.375 50.1337 17.91 50.5537 18.28C50.9837 18.65 51.5137 18.825 52.1437 18.805ZM57.8287 22.225C57.7887 22.225 57.7687 22.2 57.7687 22.15V14.23C57.7687 13.85 57.7537 13.5 57.7237 13.18C57.7037 12.86 57.6687 12.65 57.6187 12.55C57.5987 12.5 57.5987 12.465 57.6187 12.445C57.6487 12.415 57.6837 12.4 57.7237 12.4C57.8637 12.4 58.0287 12.4 58.2187 12.4C58.4087 12.4 58.5687 12.405 58.6987 12.415C58.7487 12.415 58.7737 12.455 58.7737 12.535C58.7437 12.905 58.7237 13.23 58.7137 13.51C58.7137 13.78 58.7137 14.095 58.7137 14.455V14.95C58.9837 14.93 59.2637 14.91 59.5537 14.89C59.8537 14.86 60.1287 14.83 60.3787 14.8C60.6287 14.77 60.8137 14.74 60.9337 14.71C61.0237 14.7 61.0737 14.73 61.0837 14.8C61.1037 14.91 61.1187 15.03 61.1287 15.16C61.1387 15.28 61.1437 15.405 61.1437 15.535C61.1437 15.645 61.0987 15.7 61.0087 15.7C60.9687 15.7 60.9137 15.7 60.8437 15.7C60.7837 15.7 60.7187 15.7 60.6487 15.7C60.3987 15.69 60.0937 15.685 59.7337 15.685C59.3837 15.685 59.0437 15.695 58.7137 15.715V18.16C58.9837 18.16 59.2687 18.15 59.5687 18.13C59.8687 18.11 60.1437 18.085 60.3937 18.055C60.6437 18.025 60.8287 18 60.9487 17.98C61.0387 17.97 61.0887 18 61.0987 18.07C61.1187 18.2 61.1337 18.325 61.1437 18.445C61.1537 18.565 61.1637 18.69 61.1737 18.82C61.1737 18.93 61.1287 18.985 61.0387 18.985C60.9087 18.985 60.7137 18.98 60.4537 18.97C60.1937 18.96 59.9087 18.955 59.5987 18.955C59.2887 18.945 58.9937 18.94 58.7137 18.94V21.85C58.7137 22 58.7037 22.09 58.6837 22.12C58.6737 22.15 58.6437 22.17 58.5937 22.18L57.8287 22.225ZM52.9987 25.75C52.6787 25.75 52.4337 25.63 52.2637 25.39C52.1037 25.16 52.0237 24.83 52.0237 24.4V23.065C52.0237 22.715 52.0087 22.425 51.9787 22.195C51.9487 21.965 51.9187 21.8 51.8887 21.7C51.8587 21.6 51.8937 21.55 51.9937 21.55C52.0537 21.55 52.1537 21.555 52.2937 21.565C52.4437 21.565 52.5837 21.57 52.7137 21.58C52.8537 21.59 52.9287 21.595 52.9387 21.595C52.9887 21.595 53.0137 21.645 53.0137 21.745C52.9937 21.975 52.9787 22.18 52.9687 22.36C52.9687 22.53 52.9687 22.745 52.9687 23.005V24.31C52.9687 24.56 52.9987 24.735 53.0587 24.835C53.1287 24.925 53.2387 24.975 53.3887 24.985C53.6687 24.995 54.0087 25 54.4087 25C54.8187 25.01 55.2437 25.01 55.6837 25C56.1337 24.98 56.5587 24.96 56.9587 24.94C57.3787 24.92 57.8137 24.885 58.2637 24.835C58.7137 24.775 59.0587 24.715 59.2987 24.655C59.3987 24.635 59.4637 24.64 59.4937 24.67C59.5237 24.7 59.5437 24.74 59.5537 24.79L59.6737 25.495C59.6737 25.545 59.6587 25.585 59.6287 25.615C59.6087 25.645 59.5287 25.66 59.3887 25.66C58.3987 25.66 57.3787 25.675 56.3287 25.705C55.2787 25.735 54.1687 25.75 52.9987 25.75ZM70.5376 25.9C70.5176 25.9 70.4926 25.895 70.4626 25.885C70.4326 25.875 70.4176 25.845 70.4176 25.795C70.4176 25.755 70.4176 25.695 70.4176 25.615C70.4176 25.545 70.4176 25.465 70.4176 25.375C70.4176 25.105 70.4176 24.765 70.4176 24.355C70.4176 23.945 70.4176 23.54 70.4176 23.14C70.4176 22.74 70.4126 22.405 70.4026 22.135C70.3926 21.875 70.3726 21.62 70.3426 21.37C70.3126 21.12 70.2826 20.945 70.2526 20.845C70.2226 20.745 70.2576 20.695 70.3576 20.695L71.3176 20.71C71.3676 20.71 71.3926 20.745 71.3926 20.815C71.3826 21.045 71.3726 21.29 71.3626 21.55C71.3626 21.8 71.3626 22.065 71.3626 22.345C71.5426 22.355 71.8026 22.36 72.1426 22.36C72.4826 22.36 72.8576 22.36 73.2676 22.36C73.6776 22.36 74.0926 22.355 74.5126 22.345C74.9326 22.335 75.3176 22.325 75.6676 22.315C76.0276 22.295 76.3126 22.28 76.5226 22.27V21.85C76.5226 21.51 76.5126 21.25 76.4926 21.07C76.4826 20.88 76.4576 20.74 76.4176 20.65C76.3976 20.6 76.3976 20.565 76.4176 20.545C76.4476 20.515 76.4826 20.5 76.5226 20.5H77.4376C77.4876 20.5 77.5126 20.53 77.5126 20.59C77.5026 20.82 77.4926 21.065 77.4826 21.325C77.4826 21.575 77.4826 21.915 77.4826 22.345V25.645C77.4826 25.775 77.4076 25.84 77.2576 25.84L71.3326 25.855C71.2326 25.855 71.0826 25.86 70.8826 25.87C70.6826 25.89 70.5676 25.9 70.5376 25.9ZM67.1926 20.11L66.8176 19.78C66.7776 19.74 66.7976 19.69 66.8776 19.63C67.6176 19.15 68.2526 18.61 68.7826 18.01C69.3126 17.4 69.7226 16.775 70.0126 16.135C70.3126 15.495 70.4726 14.89 70.4926 14.32C70.3526 14.33 70.2026 14.34 70.0426 14.35C69.8826 14.36 69.7026 14.375 69.5026 14.395C69.2026 14.415 68.9426 14.435 68.7226 14.455C68.5126 14.475 68.2726 14.505 68.0026 14.545C67.9026 14.555 67.8376 14.545 67.8076 14.515C67.7776 14.475 67.7526 14.43 67.7326 14.38C67.7226 14.37 67.7176 14.36 67.7176 14.35C67.6876 14.27 67.6576 14.18 67.6276 14.08C67.6076 13.98 67.5826 13.865 67.5526 13.735C67.5426 13.715 67.5476 13.69 67.5676 13.66C67.5876 13.63 67.6226 13.615 67.6726 13.615C67.9126 13.625 68.1776 13.64 68.4676 13.66C68.7576 13.67 69.0476 13.67 69.3376 13.66C69.7776 13.64 70.2226 13.625 70.6726 13.615C71.1326 13.595 71.5926 13.565 72.0526 13.525C72.4226 13.505 72.7726 13.475 73.1026 13.435C73.4326 13.395 73.7276 13.35 73.9876 13.3C74.0176 13.29 74.0526 13.295 74.0926 13.315C74.1326 13.325 74.1576 13.355 74.1676 13.405C74.1876 13.475 74.2076 13.58 74.2276 13.72C74.2476 13.85 74.2626 13.975 74.2726 14.095C74.2726 14.205 74.2126 14.26 74.0926 14.26C73.9926 14.26 73.8926 14.26 73.7926 14.26C73.6926 14.26 73.5876 14.26 73.4776 14.26C73.2676 14.26 73.0526 14.26 72.8326 14.26C72.6126 14.25 72.3826 14.25 72.1426 14.26C72.0426 14.26 71.9426 14.265 71.8426 14.275C71.7526 14.275 71.6626 14.275 71.5726 14.275C71.5326 14.535 71.4626 14.835 71.3626 15.175C71.2726 15.515 71.1326 15.875 70.9426 16.255C71.3426 16.545 71.7526 16.865 72.1726 17.215C72.6026 17.565 72.9926 17.89 73.3426 18.19C73.6926 18.48 73.9376 18.7 74.0776 18.85C74.1276 18.89 74.1626 18.94 74.1826 19C74.2026 19.06 74.1876 19.125 74.1376 19.195C74.1176 19.225 74.0676 19.28 73.9876 19.36C73.9076 19.44 73.8276 19.52 73.7476 19.6C73.6676 19.67 73.6076 19.72 73.5676 19.75C73.4876 19.8 73.4226 19.795 73.3726 19.735C73.1826 19.465 72.9276 19.15 72.6076 18.79C72.2876 18.43 71.9526 18.075 71.6026 17.725C71.2526 17.375 70.9226 17.085 70.6126 16.855C70.3026 17.385 69.9176 17.925 69.4576 18.475C68.9976 19.025 68.3976 19.565 67.6576 20.095C67.6576 20.095 67.6526 20.1 67.6426 20.11C67.5826 20.14 67.5126 20.17 67.4326 20.2C67.3626 20.22 67.2826 20.19 67.1926 20.11ZM71.3626 25C71.4626 25.01 71.6826 25.015 72.0226 25.015C72.3726 25.025 72.7776 25.03 73.2376 25.03C73.7076 25.03 74.1726 25.025 74.6326 25.015C75.0926 25.015 75.4976 25.01 75.8476 25C76.1976 24.99 76.4226 24.98 76.5226 24.97V23.095C76.2526 23.095 75.8976 23.095 75.4576 23.095C75.0176 23.095 74.5426 23.1 74.0326 23.11C73.5326 23.11 73.0426 23.115 72.5626 23.125C72.0926 23.125 71.6926 23.13 71.3626 23.14V25ZM76.5676 19.675C76.5276 19.675 76.5076 19.65 76.5076 19.6V16.75C76.3276 16.76 76.1526 16.77 75.9826 16.78C75.8126 16.79 75.6526 16.8 75.5026 16.81C75.2626 16.82 74.9876 16.845 74.6776 16.885C74.3676 16.915 74.0926 16.945 73.8526 16.975C73.7426 16.995 73.6676 16.99 73.6276 16.96C73.5876 16.93 73.5576 16.885 73.5376 16.825C73.4976 16.695 73.4626 16.575 73.4326 16.465C73.4126 16.345 73.3926 16.235 73.3726 16.135C73.3726 16.055 73.4126 16.025 73.4926 16.045C73.6526 16.065 73.9026 16.08 74.2426 16.09C74.5926 16.09 74.9726 16.085 75.3826 16.075C75.7926 16.055 76.1676 16.035 76.5076 16.015V14.23C76.5076 13.85 76.4926 13.5 76.4626 13.18C76.4426 12.86 76.4076 12.65 76.3576 12.55C76.3376 12.5 76.3376 12.465 76.3576 12.445C76.3876 12.415 76.4226 12.4 76.4626 12.4C76.5526 12.4 76.6926 12.4 76.8826 12.4C77.0826 12.4 77.2676 12.405 77.4376 12.415C77.4876 12.415 77.5126 12.455 77.5126 12.535C77.4826 12.905 77.4626 13.23 77.4526 13.51C77.4526 13.78 77.4526 14.095 77.4526 14.455V19.3C77.4526 19.45 77.4426 19.54 77.4226 19.57C77.4126 19.6 77.3826 19.62 77.3326 19.63L76.5676 19.675ZM79.8208 21.52L79.4158 21.175C79.3758 21.135 79.3908 21.09 79.4608 21.04C79.4708 21.03 79.4758 21.025 79.4758 21.025C80.1658 20.515 80.7958 19.945 81.3658 19.315C81.9358 18.675 82.4208 18.015 82.8208 17.335C83.2308 16.655 83.5258 15.995 83.7058 15.355C83.7858 15.065 83.8608 14.74 83.9308 14.38C84.0008 14.02 84.0358 13.745 84.0358 13.555C84.0358 13.495 84.0508 13.455 84.0808 13.435C84.1108 13.405 84.1408 13.4 84.1708 13.42L85.2058 13.675C85.2558 13.685 85.2758 13.74 85.2658 13.84C85.2258 13.98 85.1658 14.165 85.0858 14.395C85.0058 14.625 84.9258 14.86 84.8458 15.1C84.7658 15.33 84.6958 15.53 84.6358 15.7C84.5558 15.9 84.4658 16.115 84.3658 16.345C84.2658 16.565 84.1558 16.795 84.0358 17.035C84.5158 17.395 85.0108 17.78 85.5208 18.19C86.0308 18.6 86.4958 18.985 86.9158 19.345C87.3358 19.705 87.6508 20 87.8608 20.23C87.9008 20.28 87.9308 20.34 87.9508 20.41C87.9808 20.47 87.9708 20.535 87.9208 20.605C87.8308 20.715 87.7308 20.815 87.6208 20.905C87.5208 20.995 87.4158 21.085 87.3058 21.175C87.2458 21.225 87.1958 21.215 87.1558 21.145C86.9958 20.905 86.7808 20.63 86.5108 20.32C86.2408 20.01 85.9408 19.69 85.6108 19.36C85.2908 19.03 84.9608 18.715 84.6208 18.415C84.2908 18.115 83.9808 17.855 83.6908 17.635C83.3208 18.255 82.8558 18.9 82.2958 19.57C81.7458 20.23 81.0758 20.875 80.2858 21.505C80.2358 21.545 80.1658 21.58 80.0758 21.61C79.9958 21.64 79.9108 21.61 79.8208 21.52ZM89.3908 25.15C89.3508 25.15 89.3308 25.125 89.3308 25.075V14.245C89.3308 13.865 89.3158 13.515 89.2858 13.195C89.2658 12.865 89.2308 12.65 89.1808 12.55C89.1608 12.5 89.1608 12.465 89.1808 12.445C89.2108 12.415 89.2458 12.4 89.2858 12.4C89.3458 12.4 89.4458 12.405 89.5858 12.415C89.7358 12.415 89.8808 12.42 90.0208 12.43C90.1608 12.43 90.2408 12.43 90.2608 12.43C90.3108 12.43 90.3358 12.47 90.3358 12.55C90.3058 12.92 90.2858 13.245 90.2758 13.525C90.2758 13.795 90.2758 14.11 90.2758 14.47V24.775C90.2758 24.925 90.2658 25.015 90.2458 25.045C90.2358 25.075 90.2058 25.095 90.1558 25.105L89.3908 25.15Z" fill="black"/>
</svg>
