<svg width="302" height="169" viewBox="0 0 302 169" fill="none" xmlns="http://www.w3.org/2000/svg">
<rect width="302" height="169" rx="10" fill="#F1E89E"/>
<path d="M79.1678 49.948H94.7288V51.259H79.1678V49.948ZM86.0838 45.787H87.6418V50.385H86.0838V45.787ZM86.0458 37.446H87.4138V38.776C87.4138 42.443 83.8988 45.274 80.4408 45.996L79.7758 44.685C82.7968 44.134 86.0458 41.607 86.0458 38.776V37.446ZM86.3308 37.446H87.6988V38.776C87.6988 41.626 90.9668 44.134 93.9878 44.685L93.3038 45.996C89.8458 45.274 86.3308 42.443 86.3308 38.776V37.446ZM103.334 37.484H104.702V38.795C104.702 42.538 101.225 45.445 97.7863 46.224L97.0833 44.913C100.104 44.343 103.334 41.721 103.334 38.795V37.484ZM103.619 37.484H104.987V38.795C104.987 41.74 108.236 44.343 111.238 44.913L110.535 46.224C107.115 45.445 103.619 42.557 103.619 38.795V37.484ZM96.4563 49.872H112.017V51.164H96.4563V49.872ZM125.354 36.287H126.95V53.482H125.354V36.287ZM126.513 43.26H129.686V44.571H126.513V43.26ZM120.965 38.149H122.504C122.504 43.032 120.262 47.44 114.714 50.233L113.84 49.017C118.59 46.604 120.965 42.937 120.965 38.396V38.149ZM114.638 38.149H121.782V39.441H114.638V38.149ZM135.574 46.471H151.154V47.763H135.574V46.471ZM142.528 47.079H144.086V53.482H142.528V47.079ZM137.531 36.99H139.108V39.346H147.601V36.99H149.159V44.419H137.531V36.99ZM139.108 40.619V43.146H147.601V40.619H139.108ZM159.608 37.674H161.014V38.187C161.014 40.961 157.86 42.861 154.307 43.298L153.737 42.063C156.815 41.702 159.608 40.144 159.608 38.187V37.674ZM160.273 37.674H161.66V38.187C161.66 40.144 164.453 41.721 167.531 42.063L166.961 43.298C163.408 42.861 160.273 40.961 160.273 38.187V37.674ZM154.288 37.009H166.999V38.282H154.288V37.009ZM152.863 44.913H168.443V46.205H152.863V44.913ZM159.836 42.348H161.394V45.54H159.836V42.348ZM154.592 47.915H166.467V53.482H164.89V49.188H154.592V47.915ZM181.912 36.306H183.489V46.281H181.912V36.306ZM182.805 40.676H186.035V42.006H182.805V40.676ZM172.697 47.041H174.236V48.865H181.931V47.041H183.489V53.254H172.697V47.041ZM174.236 50.081V51.981H181.931V50.081H174.236ZM170.208 38.054H180.354V39.346H170.208V38.054ZM175.281 40.125C177.732 40.125 179.385 41.322 179.385 43.146C179.385 44.97 177.732 46.167 175.281 46.167C172.811 46.167 171.158 44.97 171.158 43.146C171.158 41.322 172.811 40.125 175.281 40.125ZM175.281 41.322C173.704 41.322 172.659 42.044 172.659 43.146C172.659 44.248 173.704 44.97 175.281 44.97C176.82 44.97 177.884 44.248 177.884 43.146C177.884 42.044 176.82 41.322 175.281 41.322ZM174.483 36.135H176.06V38.757H174.483V36.135ZM199.942 36.306H201.519V53.482H199.942V36.306ZM188.542 37.978H190.1V48.618H188.542V37.978ZM188.542 47.687H189.948C192.551 47.687 195.268 47.497 198.175 46.889L198.365 48.238C195.382 48.846 192.665 49.055 189.948 49.055H188.542V47.687ZM216.356 36.287H217.952V53.501H216.356V36.287ZM217.572 43.07H220.764V44.4H217.572V43.07ZM205.469 47.896H206.818C209.991 47.896 212.214 47.782 214.779 47.307L214.95 48.637C212.309 49.131 210.048 49.226 206.818 49.226H205.469V47.896ZM205.469 37.959H213.449V39.251H207.027V48.485H205.469V37.959ZM223.1 47.82V38.7H224.772V47.82H223.1ZM223.936 52.19C223.695 52.19 223.474 52.1267 223.271 52C223.068 51.886 222.904 51.7277 222.777 51.525C222.663 51.3223 222.606 51.1007 222.606 50.86C222.606 50.48 222.733 50.1633 222.986 49.91C223.252 49.6567 223.569 49.53 223.936 49.53C224.303 49.53 224.614 49.6567 224.867 49.91C225.133 50.1633 225.266 50.48 225.266 50.86C225.266 51.1007 225.203 51.3223 225.076 51.525C224.962 51.7277 224.804 51.886 224.601 52C224.411 52.1267 224.189 52.19 223.936 52.19Z" fill="#512525"/>
<rect x="87" y="111" width="127" height="34" rx="8" fill="#FFBC3A"/>
<path d="M141.021 127.235H142.266V129.29H141.021V127.235ZM141.606 122.225C143.571 122.225 144.951 123.305 144.951 124.91C144.951 126.515 143.571 127.58 141.606 127.58C139.656 127.58 138.276 126.515 138.276 124.91C138.276 123.305 139.656 122.225 141.606 122.225ZM141.606 123.185C140.331 123.185 139.446 123.89 139.446 124.91C139.446 125.945 140.331 126.635 141.606 126.635C142.896 126.635 143.781 125.945 143.781 124.91C143.781 123.89 142.896 123.185 141.606 123.185ZM146.781 121.625H148.026V131.99H146.781V121.625ZM147.501 126.2H150.006V127.235H147.501V126.2ZM139.446 133.835H148.506V134.87H139.446V133.835ZM139.446 131.105H140.691V134.285H139.446V131.105ZM137.661 129.98L137.496 128.96C139.881 128.96 143.181 128.93 145.941 128.51L146.031 129.425C143.196 129.95 139.986 129.98 137.661 129.98ZM154.595 129.56H155.825V132.89H154.595V129.56ZM158.93 129.53H160.145V132.875H158.93V129.53ZM151.175 132.47H163.46V133.505H151.175V132.47ZM152.66 122.615H161.945V126.71H153.935V129.44H152.705V125.72H160.715V123.62H152.66V122.615ZM152.705 128.885H162.26V129.905H152.705V128.885Z" fill="#311A1E"/>
</svg>
